<?xml version="1.0" standalone="no"?> <!DOCTYPE svg PUBLIC "-//W3C//DTD SVG 1.0//EN" "http://www.w3.org/TR/2001/REC-SVG-20010904/DTD/svg10.dtd" > <svg xmlns="http://www.w3.org/2000/svg" width="100%" height="100%">
<defs >
<font id="The" horiz-adv-x="510" ><font-face
    font-family="The Met Serif Web"
    units-per-em="1000"
    panose-1="2 0 0 0 0 0 0 0 0 0"
    ascent="787"
    descent="-213"
    alphabetic="0" />
<missing-glyph horiz-adv-x="250" />
<glyph unicode=" " glyph-name="space" horiz-adv-x="180" />
<glyph unicode="!" glyph-name="exclam" horiz-adv-x="275" d="M287 615Q287 587 271 540T230 427L127 150H99Q114 236 127 308T149 438Q159 500 166 541T181 614Q189 645 205 657T240 670Q287 670 287 615ZM137 38Q137 17 122 2T86 -13Q65 -13 50 2T35 38Q35
59 50 74T86 89Q107 89 122 74T137 38Z" />
<glyph unicode="&quot;" glyph-name="quotedbl" horiz-adv-x="310" d="M357 631Q357 620 347 594T325 541Q316 518 305 492T285 446H262L274 542Q275 555 276 569T279 596T282 619T285 634Q293 669 323 669Q357 669 357 631ZM227 631Q227 620 217 594T195 541Q186
518 175 492T155 446H132L144 542Q145 555 146 569T149 596T152 619T155 634Q163 669 193 669Q227 669 227 631Z" />
<glyph unicode="#" glyph-name="numbersign" horiz-adv-x="555" d="M364 166L323 0H296L337 166H176L135 0H108L149 166H30V189H154L196 359H66V382H202L242 542H268L229 382H390L430 542H456L417 382H535V359H411L369 189H500V166H364ZM181 189H342L384 359H223L181
189Z" />
<glyph unicode="$" glyph-name="dollar" horiz-adv-x="376" d="M289 540Q344 532 370 505T396 447Q396 419 383 406T352 392Q334 392 320 401T306 434Q306 451 314 461T322 479Q322 490 311 497T281 506L230 305Q254 281 273 262T305 224T326 185T333 139Q333
77 288 35T152 -10L128 -108H90L115 -9Q84 -6 60 3T19 28T-6 61T-15 98Q-15 120 -4 135T31 151Q54 151 64 138T75 108Q75 91 68 82T61 61Q61 44 81 35T123 24L177 240Q177 241 177 241T176 242Q158 261 142 279T113 316T94 355T86 400Q86 432 99 458T134 502T187
531T253 542L275 630H312L289 540ZM265 110Q265 136 248 160T207 210L160 22Q205 23 235 46T265 110ZM155 426Q155 396 169 374T201 334L244 508Q204 508 180 486T155 426Z" />
<glyph unicode="%" glyph-name="percent" horiz-adv-x="635" d="M215 518Q188 518 164 491Q140 463 124 421T108 331Q108 268 143 268Q170 268 194 295Q218 323 234 365T250 455Q250 518 215 518ZM445 14Q472 14 496 41Q520 69 536 111T552 201Q552 264 517 264Q490
264 466 237Q442 209 426 167T410 77Q410 14 445 14ZM215 542Q260 542 284 514T308 440Q308 398 294 363T256 301T203 259T143 244Q98 244 74 272T50 346Q50 388 64 423T102 485T155 527T215 542ZM519 552L542 535L141 -20L118 -3L519 552ZM445 -10Q400 -10 376
18T352 92Q352 134 366 169T404 231T457 273T517 288Q562 288 586 260T610 186Q610 144 596 109T558 47T505 5T445 -10Z" />
<glyph unicode="&amp;" glyph-name="ampersand" horiz-adv-x="682" d="M767 528Q767 468 732 433T634 397Q600 397 566 404Q582 393 593 375T611 336T620 295T623 259Q623 221 605 174T550 84T453 14T311 -15Q248 -15 199 3T115 55T63 133T45 230Q45 267 56 299T86
355T126 398T171 425Q157 445 149 469T141 521Q141 551 154 578T192 625T248 658T317 670Q377 670 407 644T438 566Q438 536 419 513T377 478L362 497Q379 508 385 521T392 552Q392 581 374 598T309 616Q261 616 227 584T193 481Q193 456 201 437Q224 442 238 442Q300
442 300 398Q300 383 290 373T261 363Q241 363 222 373T186 400Q151 380 134 346T116 269Q116 227 128 189T168 123T237 78T338 61Q397 61 440 82T512 138T555 216T569 303Q569 339 557 362T527 398T488 417T450 423Q412 423 390 400T367 345Q367 316 381 300T408
283Q406 294 406 304T410 323Q415 340 428 350T464 361Q484 361 498 347T512 309Q512 280 490 260T434 240Q410 240 391 249T359 273T338 307T331 345Q331 378 344 403T378 444T422 469T469 478Q490 478 511 476T550 470Q570 466 594 463T628 459Q679 459 702 484T725
541Q725 558 720 573T709 599T695 618T681 626Q679 597 664 581T622 564Q599 564 584 578T569 615Q569 640 589 654T632 669Q660 669 684 659T727 629T756 585T767 528Z" />
<glyph unicode="&apos;" glyph-name="quotesingle" horiz-adv-x="180" d="M227 631Q227 620 217 594T195 541Q186 518 175 492T155 446H132L144 542Q145 555 146 569T149 596T152 619T155 634Q163 669 193 669Q227 669 227 631Z" />
<glyph unicode="(" glyph-name="parenleft" horiz-adv-x="276" d="M168 -103Q139 -37 116 39T93 209Q93 286 111 354T163 481T240 591T337 682L356 661Q303 618 261 568T188 460T142 340T125 209Q125 173 131 133T147 54T170 -23T197 -90L168 -103Z" />
<glyph unicode=")" glyph-name="parenright" horiz-adv-x="276" d="M159 682Q188 616 211 540T234 370Q234 293 216 225T164 98T87 -12T-10 -103L-29 -82Q23 -39 66 11T139 119T185 239T202 370Q202 406 196 446T180 525T157 602T130 669L159 682Z" />
<glyph unicode="*" glyph-name="asterisk" horiz-adv-x="389" d="M243 301Q232 301 224 308T216 328Q216 347 225 385T236 466Q216 443 201 422T175 383T153 356T133 346Q122 346 114 355T105 375Q105 385 115 395T143 417T182 443T227 477Q206 476 185 473T145
467T111 461T87 458Q74 458 67 466T60 486Q60 497 67 505T86 513Q95 513 110 511T144 505T184 498T226 493Q203 513 182 528T143 555T116 576T105 596Q105 607 114 616T134 625Q144 625 154 615T175 587T201 548T236 504Q235 525 232 546T225 585T219 619T216 643Q216
655 224 662T244 670Q256 670 264 663T272 643Q272 634 270 619T264 585T257 545T252 502Q271 525 286 547T313 586T335 613T355 624Q366 624 374 616T383 596Q383 585 373 576T345 554T306 528T262 493Q283 494 304 497T343 504T377 510T401 513Q413 513 421 505T429
484Q429 473 421 466T402 458Q393 458 378 460T344 466T304 473T262 478Q285 458 306 443T345 416T372 395T383 375Q383 364 375 355T355 346Q344 346 334 356T312 384T286 422T252 467Q253 446 256 425T263 386T269 352T272 328Q272 316 264 309T243 301Z" />
<glyph unicode="+" glyph-name="plus" horiz-adv-x="415" d="M225 252V102H201V252H50V276H201V426H225V276H375V252H225Z" />
<glyph unicode="," glyph-name="comma" horiz-adv-x="202" d="M106 25Q106 -7 93 -31T57 -73T5 -106T-58 -133L-66 -113Q-44 -104 -24 -94T11 -72T36 -50T46 -30Q46 -21 40 -19Q17 -14 3 1T-11 36Q-11 58 4 73T47 89Q73 89 89 72T106 25Z" />
<glyph unicode="-" glyph-name="hyphen" horiz-adv-x="362" d="M288 233H75L89 283H302L288 233Z" />
<glyph unicode="." glyph-name="period" horiz-adv-x="187" d="M97 38Q97 17 82 2T46 -13Q25 -13 10 2T-5 38Q-5 59 10 74T46 89Q67 89 82 74T97 38Z" />
<glyph unicode="/" glyph-name="slash" horiz-adv-x="282" d="M-57 -99L-80 -86L353 686L377 674L-57 -99Z" />
<glyph unicode="0" glyph-name="zero" horiz-adv-x="516" d="M203 -10Q157 -10 125 6T72 50T42 115T32 193Q32 262 57 325T125 436T220 513T330 542Q376 542 408 526T461 482T491 417T501 339Q501 270 476 207T408 96T313 19T203 -10ZM205 24Q231 24 251 30T290
49Q315 66 338 97T379 171T406 267T417 384Q417 447 393 477T329 508Q303 508 283 502T244 483Q218 466 195 435T155 361T128 265T117 148Q117 85 141 55T205 24Z" />
<glyph unicode="1" glyph-name="one" horiz-adv-x="284" d="M156 122Q151 105 149 94T146 67Q146 54 152 44T173 28Q183 25 194 24T221 20L216 0H-40L-36 20Q-20 21 -3 24T24 35Q39 44 50 59Q57 69 61 81T71 111L138 388Q139 394 142 404T148 427T153 449T155
465Q155 478 146 483Q143 485 134 486T113 489T91 491T74 492L80 512Q115 514 139 517T188 526Q208 530 226 534T250 538Q255 538 257 535T259 529Q259 521 254 503T244 468L156 122V122Z" />
<glyph unicode="2" glyph-name="two" horiz-adv-x="468" d="M79 78Q126 116 179 150T276 223T350 308T380 417Q380 465 354 486T282 507Q255 507 227 495T175 461T136 407T121 336Q121 304 136 289T173 273Q189 273 204 280T231 298T254 324T271 354L293 345Q285
328 274 308T244 271T201 241T142 229Q100 229 75 256T49 335Q49 372 68 409T119 476T196 523T290 542Q378 542 423 508T468 400Q468 368 454 339T418 284T368 234T312 192T259 158T217 133Q201 122 181 110T130 78L131 73H278Q304 73 324 80T361 98Q376 109 386
121T407 150H430L366 0H-30Q-27 2 -15 11T14 32T47 56T79 78Z" />
<glyph unicode="3" glyph-name="three" horiz-adv-x="429" d="M413 437Q413 409 398 384T357 338T297 300T226 269V265Q271 269 302 262T353 239T382 203T391 156Q391 126 375 96T329 43T253 5T148 -10Q115 -10 87 -3T37 18T3 52T-10 96Q-10 121 4 136T38 151Q58
151 70 140T82 106Q82 97 80 91T75 78Q71 70 68 65T65 51Q65 44 72 39T92 29T118 23T147 21Q181 21 210 29T260 55T293 99T305 163Q305 189 299 204T282 228T255 240T221 243Q205 243 193 240T168 231L144 218L130 244L185 273Q221 292 248 307T293 340T320 380T330
436Q330 469 312 488T253 507Q224 507 201 499T162 475T136 440T127 398Q127 374 141 362T177 349Q192 349 204 355T225 369T240 386T250 404L270 391Q262 377 250 363T223 337T188 318T147 310Q100 310 82 333T64 387Q64 416 79 444T121 493T185 528T266 542Q343
542 378 511T413 437Z" />
<glyph unicode="4" glyph-name="four" horiz-adv-x="477" d="M190 59Q197 69 201 81T211 111L229 184H-10L-1 213L377 543H399Q406 543 404 538Q398 519 394 505T386 474L320 218H360Q385 218 397 225T417 241Q427 251 434 263T446 290H467L422 107H401Q403 125
403 141T398 165Q393 176 385 180T350 184H312L296 122Q291 105 289 94T286 67Q286 54 292 44T313 28Q323 25 334 24T361 20L356 0H100L104 20Q120 21 137 24T164 35Q179 44 190 59ZM286 424L49 218H237L288 424H286Z" />
<glyph unicode="5" glyph-name="five" horiz-adv-x="428" d="M149 -10Q109 -10 80 -1T30 23T0 58T-10 100Q-10 126 4 140T39 154Q59 154 72 141T85 108Q85 99 82 92T76 78Q73 72 70 66T66 53Q66 44 73 38T93 29T119 23T149 21Q182 21 210 30T260 59T294 110T307
186Q307 237 284 266T212 295Q166 295 133 276T83 229L55 241L166 532H199Q209 528 217 525T236 520T258 517T290 516Q318 516 338 522T373 539T397 560T412 581L432 573Q406 514 364 478T253 442Q230 442 210 443T168 448L111 297L113 296Q134 312 164 321T225
330Q307 330 349 289T391 177Q391 138 374 104T325 45T248 5T149 -10Z" />
<glyph unicode="6" glyph-name="six" horiz-adv-x="472" d="M497 454Q497 427 484 411T447 394Q423 394 413 408T402 440Q402 451 410 467Q413 474 415 478T418 487Q418 498 404 502T369 507Q330 507 295 489T230 441T179 371T142 285H148Q174 316 212 330T286
345Q348 345 388 312T429 213Q429 170 415 130T371 59T299 9T198 -10Q151 -10 119 5T68 44T40 97T32 155Q32 239 62 309T142 432T250 513T369 542Q430 542 463 516T497 454ZM341 209Q341 256 322 282T264 309Q238 309 212 298T168 268Q142 239 129 204T116 121Q116
73 139 47T205 21Q231 21 253 31T292 58Q322 90 331 128T341 209Z" />
<glyph unicode="7" glyph-name="seven" horiz-adv-x="395" d="M456 507Q399 441 361 390T295 289T247 188T209 69Q198 28 183 9T143 -10Q102 -10 102 39Q102 53 108 69T125 104T147 140T170 176Q186 202 209 236T260 307T317 383T375 457V460H177Q160 460 146
457T120 448Q103 439 93 428T69 393H45L104 567H122Q125 556 132 544T159 532H460L456 507Z" />
<glyph unicode="8" glyph-name="eight" horiz-adv-x="434" d="M418 427Q418 399 406 377T376 338T335 309T292 287Q310 274 328 261T362 231T387 194T397 148Q397 117 384 89T346 38T282 3T192 -10Q99 -10 56 29T12 131Q12 159 25 181T58 220T104 250T156 271Q142
282 128 294T103 321T85 356T78 403Q78 434 92 459T131 503T187 532T255 542Q330 542 374 511T418 427ZM320 117Q320 139 308 157T276 191T232 221T186 249Q166 243 147 235T113 213T88 180T78 131Q78 104 87 84T112 50T148 31T192 24Q249 24 284 48T320 117ZM146
427Q146 409 157 393T186 361T224 333T263 307Q280 316 297 326T327 350T348 383T356 427Q356 459 332 483T255 508Q208 508 177 491T146 427Z" />
<glyph unicode="9" glyph-name="nine" horiz-adv-x="473" d="M145 323Q145 276 164 250T222 223Q248 223 274 234T318 264Q344 293 357 328T370 411Q370 459 347 485T281 511Q255 511 233 501T194 474Q164 442 155 404T145 323ZM-8 83Q-8 109 5 125T42 142Q66
142 76 128T87 96Q87 85 79 69Q76 62 74 58T71 49Q71 38 85 32T120 25Q159 25 193 43T256 91T307 161T343 247H337Q312 216 273 202T199 187Q137 187 97 224T56 324Q56 364 70 403T112 473T184 523T287 542Q334 542 366 526T417 483T445 426T453 367Q453 283 423
214T345 95T238 18T120 -10Q59 -10 26 18T-8 83Z" />
<glyph unicode=":" glyph-name="colon" horiz-adv-x="233" d="M212 383Q212 362 197 347T161 332Q140 332 125 347T110 383Q110 404 125 419T161 434Q182 434 197 419T212 383ZM121 38Q121 17 106 2T70 -13Q49 -13 34 2T19 38Q19 59 34 74T70 89Q91 89 106 74T121 38Z" />
<glyph unicode=";" glyph-name="semicolon" horiz-adv-x="233" d="M121 25Q121 -7 108 -31T72 -73T20 -106T-43 -133L-51 -113Q-29 -104 -9 -94T26 -72T51 -50T61 -30Q61 -21 55 -19Q32 -14 18 1T4 36Q4 58 19 73T62 89Q88 89 104 72T121 25ZM211 383Q211 362
196 347T160 332Q139 332 124 347T109 383Q109 404 124 419T160 434Q181 434 196 419T211 383Z" />
<glyph unicode="&lt;" glyph-name="less" horiz-adv-x="448" d="M72 250V277L390 435V410L94 264L390 118V93L72 250Z" />
<glyph unicode="=" glyph-name="equal" horiz-adv-x="415" d="M50 163V187H375V163H50ZM50 338V362H375V338H50Z" />
<glyph unicode="&gt;" glyph-name="greater" horiz-adv-x="448" d="M76 118L372 264L76 410V435L394 277V250L76 93V118Z" />
<glyph unicode="?" glyph-name="question" horiz-adv-x="427" d="M188 38Q188 17 173 2T137 -13Q116 -13 101 2T86 38Q86 59 101 74T137 89Q158 89 173 74T188 38ZM487 538Q487 496 472 466T431 412T368 369T288 331Q252 315 223 303T172 278T140 251T128 215Q128
188 144 178T183 167Q214 167 234 183T267 213L283 199Q267 176 236 156T167 136Q125 136 98 165T70 238Q70 272 86 296T130 337T193 369T265 398Q350 433 384 464T419 538Q419 592 390 616T300 641Q274 641 251 634T209 613T181 582T170 541Q170 504 188 482T233
460Q242 460 252 465T264 476Q253 481 242 493T231 525Q231 546 244 562T280 578Q300 578 314 566T329 526Q329 509 319 493T292 463T253 441T206 433Q167 433 143 460T118 529Q118 559 134 585T177 629T242 659T323 670Q362 670 392 660T444 631T476 589T487 538Z"
/>
<glyph unicode="@" glyph-name="at" horiz-adv-x="777" d="M745 265Q745 206 727 156T677 68T604 9T518 -13Q486 -13 462 4T438 56Q438 64 438 77T443 104H437Q423 81 411 64T385 32Q362 9 337 -2T288 -13Q272 -13 257 -7T229 13T209 50T201 110Q201 152 218 201T266
293T339 364T429 393Q456 393 475 377T497 331H505Q512 347 516 359T528 386H595Q589 367 584 349T572 312T559 269T542 217Q521 154 512 112T502 55Q502 12 535 12Q568 12 601 31T661 85T703 165T720 265Q720 386 650 456T442 526Q374 526 310 499T197 424T117
308T86 160Q86 87 108 29T171 -71T272 -134T408 -156Q451 -156 491 -149T567 -131T632 -105T685 -74L697 -92Q674 -109 643 -124T574 -151T493 -170T402 -177Q319 -177 251 -154T135 -89T61 14T34 151Q34 239 69 312T161 437T291 518T441 547Q516 547 572 527T667
471T725 382T745 265ZM475 301Q475 332 464 351T429 371Q403 371 381 351T336 295Q319 267 308 237T291 179T283 125T280 84Q280 51 289 37T315 22Q332 22 348 30T381 61Q407 92 425 126T456 197Q466 226 470 252T475 301Z" />
<glyph unicode="A" glyph-name="A" horiz-adv-x="625" d="M368 57Q376 70 378 89T381 143V244H195L129 142Q115 122 108 106T100 74Q100 54 108 46T126 32Q140 26 152 25T181 21L176 0H-73L-68 21Q-58 23 -44 29T-13 43Q-4 47 5 53T26 71T52 101T85 147L423 657H479V135Q479
115 479 98T483 67Q490 38 522 28Q530 26 544 24T568 21L563 0H270L275 21Q287 22 298 24T318 28Q332 32 345 37T368 57ZM217 279H381V520H374L217 279Z" />
<glyph unicode="B" glyph-name="B" horiz-adv-x="603" d="M-28 21Q-16 22 -3 24T18 28Q32 32 45 39T70 58Q83 72 89 90T103 143L194 522Q199 542 202 557T205 588Q205 606 196 615T172 629Q163 632 148 633T121 636L126 657H397Q437 657 474 650T538 628T582 586T599
523Q599 486 584 458T544 409T485 375T414 354L413 350Q459 342 490 328T541 294T568 251T576 201Q576 157 557 120T503 57T419 15T311 0H-33L-28 21ZM357 368Q424 368 460 404Q483 428 494 460T505 540Q505 578 480 600T397 622H334Q323 622 319 619Q315 616 312
604L255 368H357ZM305 35Q389 35 432 78T475 221Q475 272 447 302T345 332H246L198 132Q195 118 193 105T190 80Q190 57 204 48Q215 40 229 38T266 35H305Z" />
<glyph unicode="C" glyph-name="C" horiz-adv-x="593" d="M574 389H552Q557 507 525 571T417 635Q373 635 340 616T278 566Q254 541 231 505T190 424T160 325T148 209Q148 159 160 124T195 66Q235 26 297 26Q340 26 376 42T441 84T493 145T533 215L560 200Q539
154 510 115T446 47T369 2T281 -14Q176 -14 113 49T50 237Q50 286 63 337T99 437T156 527T230 601T318 651T416 670Q450 670 475 664T518 648T548 626T570 602H574L616 647H638L574 389Z" />
<glyph unicode="D" glyph-name="D" horiz-adv-x="680" d="M406 657Q475 657 526 636T610 579T659 496T675 394Q674 285 631 200T502 57Q460 29 410 15T293 0H-33L-28 21Q-16 22 -3 24T18 28Q32 32 45 39T70 58Q83 72 89 90T103 143L194 522Q199 542 202 557T205
588Q205 606 196 615T172 629Q163 632 148 633T121 636L126 657H406ZM298 35Q334 35 379 50T469 108Q500 138 520 177T553 260T570 345T575 424Q575 486 565 523T531 582Q519 593 507 601T479 613T444 620T398 622H334Q322 622 319 619T312 604L198 132Q195 118
193 105T190 80Q190 57 204 48Q215 40 229 38T266 35H298Z" />
<glyph unicode="E" glyph-name="E" horiz-adv-x="600" d="M-28 21Q-16 22 -3 24T18 28Q32 32 45 39T70 58Q83 72 89 90T103 143L194 522Q199 542 202 557T205 588Q205 606 196 615T172 629Q163 632 148 633T121 636L125 657H585L603 456H581Q576 475 569 494T555
531T539 563T524 585Q512 599 494 610T434 622H371Q337 622 323 607T299 552L252 358H295Q316 358 331 359T357 364T378 372T396 383Q420 400 432 419T452 462H472L413 216H393Q394 240 392 260T378 296Q369 308 352 315T289 322H244L198 132Q192 106 192 83T204
48Q215 39 229 37T266 35H341Q381 35 405 45T453 73Q492 101 518 140T562 209H584L521 0H-33L-28 21Z" />
<glyph unicode="F" glyph-name="F" horiz-adv-x="579" d="M269 0H-33L-28 21Q-16 22 -3 24T18 28Q32 32 45 39T70 58Q83 72 89 90T103 143L194 522Q199 542 202 557T205 588Q205 606 196 615T172 629Q163 632 148 633T121 636L126 657H604L602 466H581Q573 495
562 527T532 587Q516 610 494 616T439 622H371Q341 622 324 604T299 554L255 370H292Q313 370 328 371T354 376T375 384T393 395Q417 412 429 431T449 474H469L410 228H390Q391 252 389 272T375 308Q366 320 349 327T286 334H246L199 135Q194 115 191 100T188 69Q188
51 197 42T221 28Q230 25 246 24T274 21L269 0Z" />
<glyph unicode="G" glyph-name="G" horiz-adv-x="639" d="M452 180Q457 198 458 209T460 228Q460 246 450 255T426 269Q417 272 406 273T383 276L388 297H653L648 276Q631 275 621 273T602 269Q591 265 583 262T566 241Q558 223 551 206T536 154L500 9H486Q484
11 477 15T462 20Q443 20 413 8Q386 -3 353 -8T285 -14Q237 -14 195 2T120 50T69 131T50 243Q50 315 77 391T154 529T273 630T425 670Q494 670 536 649T598 605H602L634 647H656L599 414H577Q582 531 542 583T426 635Q375 635 342 616T279 566Q260 546 237 507T194
418T160 309T146 191Q146 149 156 118T183 67Q203 44 230 33T286 21Q323 21 353 29T401 52Q418 67 425 86T441 135L452 180V180Z" />
<glyph unicode="H" glyph-name="H" horiz-adv-x="743" d="M259 0H-33L-28 21Q-16 22 -3 24T18 28Q32 32 45 39T70 58Q83 72 89 90T103 143L194 522Q199 542 202 557T205 588Q205 606 196 615T172 629Q163 632 148 633T121 636L126 657H421L416 636Q404 635 394
633T375 629Q361 625 348 618T323 599Q310 585 304 567T290 514L251 352H558L599 522Q604 542 607 557T610 588Q610 606 601 615T577 629Q568 632 555 633T531 636L536 657H831L826 636Q814 635 801 633T780 629Q766 625 753 618T728 599Q715 585 709 567T695 514L604
135Q599 115 596 100T593 69Q593 51 602 42T626 28Q635 25 650 24T677 21L672 0H377L382 21Q394 22 404 24T423 28Q437 32 450 39T475 58Q488 72 494 90T508 143L550 317H243L199 135Q194 115 191 100T188 69Q188 51 197 42T221 28Q230 25 241 24T264 21L259 0Z"
/>
<glyph unicode="I" glyph-name="I" horiz-adv-x="338" d="M199 135Q194 115 191 100T188 69Q188 51 197 42T221 28Q230 25 245 24T272 21L267 0H-33L-28 21Q-16 22 -3 24T18 28Q32 32 45 39T70 58Q83 72 89 90T103 143L194 522Q199 542 202 557T205 588Q205 606
196 615T172 629Q163 632 148 633T121 636L126 657H426L421 636Q409 635 396 633T375 629Q361 625 348 618T323 599Q310 585 304 567T290 514L199 135V135Z" />
<glyph unicode="J" glyph-name="J" horiz-adv-x="457" d="M313 522Q318 542 321 557T324 588Q324 606 315 615T291 629Q282 632 268 633T243 636L248 657H545L540 636Q528 635 515 633T494 629Q480 625 467 618T442 599Q429 585 423 567T409 514L317 131Q310 103
294 77T251 31T190 -2T110 -14Q46 -14 4 18T-38 108Q-38 141 -20 164T29 188Q60 188 73 171T87 133Q87 118 82 108T71 91Q61 80 56 73T50 57Q50 43 67 32T111 21Q135 21 152 27T183 50Q200 70 207 92T222 143L313 522Z" />
<glyph unicode="K" glyph-name="K" horiz-adv-x="670" d="M525 172Q528 126 531 100T540 60T554 43T576 39Q588 39 598 47T616 66T629 90T638 113L660 105Q653 84 643 63T616 25T579 -2T530 -13Q480 -13 454 21T425 134Q425 159 425 178T424 212T424 239T422 265Q419
310 397 325T345 340Q321 340 291 326T237 294L199 135Q194 115 191 100T188 69Q188 51 197 42T221 28Q230 25 245 24T271 21L266 0H-33L-28 21Q-16 22 -3 24T18 28Q32 32 45 39T70 58Q83 72 89 90T103 143L194 522Q199 542 202 557T205 588Q205 606 196 615T172
629Q163 632 148 633T121 636L126 657H428L423 636Q411 635 397 633T375 629Q361 625 348 618T323 599Q310 585 304 567T290 514L249 343L463 510Q498 537 520 557T543 598Q543 614 535 620T515 630Q508 632 498 633T477 636L482 657H744L739 636Q723 634 701 628T658
610Q645 603 629 593T597 571T564 547T533 522L339 372L338 365Q348 369 356 370T380 372Q416 372 441 362T484 327T511 265T525 172Z" />
<glyph unicode="L" glyph-name="L" horiz-adv-x="580" d="M198 132Q195 118 193 105T190 80Q190 57 204 48Q215 40 229 38T266 35H321Q361 35 385 45T433 73Q472 101 498 140T542 209H564L501 0H-33L-28 21Q-16 22 -3 24T18 28Q32 32 45 39T70 58Q83 72 89 90T103
143L194 522Q199 542 202 557T205 588Q205 606 196 615T172 629Q163 632 148 633T122 636L127 657H428L423 636Q411 635 397 633T375 629Q361 625 348 618T323 599Q310 585 304 567T290 514L198 132Z" />
<glyph unicode="M" glyph-name="M" horiz-adv-x="831" d="M913 636Q901 635 888 633T867 629Q853 625 840 618T815 599Q802 585 796 567T782 514L691 135Q686 115 683 100T680 69Q680 51 689 42T713 28Q722 25 737 24T764 21L759 0H464L469 21Q481 22 491 24T510
28Q524 32 537 39T562 58Q575 72 581 90T595 143L698 570H692L351 -4H315L251 570H245L142 156Q135 129 133 114T131 84Q131 58 144 45T175 27Q183 25 193 24T215 21L210 0H-35L-30 21Q-7 22 8 28Q25 34 35 41T58 62Q68 73 79 92T102 158L196 514Q201 533 203 547T205
579Q205 599 192 611T159 629Q152 631 142 633T117 636L122 657H340L391 137H396L704 657H918L913 636Z" />
<glyph unicode="N" glyph-name="N" horiz-adv-x="678" d="M471 -8L251 518H244L151 156Q144 129 142 114T140 84Q140 58 153 45T184 27Q192 25 203 24T225 21L220 0H-26L-21 21Q2 22 17 28Q34 34 44 41T67 62Q77 73 87 92T111 158L201 498Q207 521 209 532T211
560Q211 586 198 601T161 627Q152 631 142 633T121 636L126 657H300L503 159H510L594 498Q602 527 604 543T606 573Q606 599 593 612T562 630Q554 632 543 633T521 636L526 657H766L761 636Q749 635 741 634T725 629Q708 623 698 616T675 595Q664 584 655 564T634
497L510 -8H471Z" />
<glyph unicode="O" glyph-name="O" horiz-adv-x="658" d="M420 670Q465 670 507 654T581 606T633 526T653 413Q653 370 643 323T614 230T568 144T506 73Q458 31 402 9T283 -14Q238 -14 196 2T122 50T70 130T50 243Q50 286 60 333T90 425T136 512T197 583Q245 624
301 647T420 670ZM420 635Q395 635 374 629T336 612T306 591T282 570Q262 550 239 515T195 430T160 319T146 188Q146 144 157 112T188 60T231 31T283 21Q308 21 329 27T367 43T397 64T421 86Q440 105 464 141T508 226T543 337T557 468Q557 512 546 543T515 595T472
625T420 635Z" />
<glyph unicode="P" glyph-name="P" horiz-adv-x="553" d="M271 0H-33L-28 21Q-16 22 -3 24T18 28Q32 32 45 39T70 58Q83 72 89 90T103 143L194 522Q199 542 202 557T205 588Q205 606 196 615T172 629Q163 632 148 633T121 636L126 657H406Q458 657 496 646T558
616T594 570T606 514Q606 458 579 414T497 338Q467 321 423 310T307 298Q296 298 277 298T239 300L198 132Q193 114 191 102T189 73Q189 55 197 45T222 29Q231 26 248 24T276 21L271 0ZM334 622Q324 622 319 617Q314 612 311 600L247 336Q266 335 282 335T314 334Q368
334 400 346T450 376Q476 402 489 438T503 522Q503 576 477 599T399 622H334Z" />
<glyph unicode="Q" glyph-name="Q" horiz-adv-x="658" d="M357 -195Q324 -168 299 -148T250 -115T202 -94T148 -87Q141 -87 133 -88T117 -93T104 -100T99 -110Q99 -116 104 -122T115 -133Q121 -140 124 -150T128 -175Q128 -200 111 -213T73 -226Q47 -226 31 -210T15
-166Q15 -136 31 -114T67 -76T107 -52T135 -40Q152 -34 174 -26T220 -11V-6Q185 4 154 24T100 76T64 148T50 243Q50 286 60 333T90 425T136 512T197 583Q245 625 301 647T420 670Q465 670 507 654T581 606T633 525T653 413Q653 370 643 323T613 231T567 144T506
73Q480 51 456 36T394 7Q386 4 357 -4T294 -22T226 -41T174 -57V-59Q199 -56 220 -56Q239 -56 264 -60T320 -77T379 -108T443 -146Q488 -172 523 -186T599 -201Q626 -201 645 -193T679 -171T704 -140T723 -104L745 -114Q732 -148 715 -185T671 -249Q654 -266 626
-280T563 -294Q536 -294 513 -289T465 -271T415 -240T357 -195ZM420 635Q395 635 374 629T336 612T306 591T282 570Q262 550 239 515T195 430T160 319T146 188Q146 144 157 112T188 60T231 31T283 21Q308 21 329 27T367 43T397 64T421 86Q440 105 464 141T508 226T543
337T557 468Q557 512 546 543T515 595T472 625T420 635Z" />
<glyph unicode="R" glyph-name="R" horiz-adv-x="653" d="M513 -13Q463 -13 437 21T408 134Q407 185 406 220T386 281Q379 290 372 297T354 308T328 314T291 316H232L188 132Q183 114 181 101T178 71Q178 53 187 43T211 28Q220 25 235 24T262 21L257 0H-43L-38
21Q-26 22 -13 24T8 28Q22 32 35 39T60 58Q73 72 79 90T93 143L184 522Q189 542 192 557T195 588Q195 606 186 615T162 629Q153 632 137 633T110 636L115 657H410Q461 657 497 647T556 619T591 577T602 523Q602 467 566 425T473 358Q457 351 441 347T394 335V330Q414
325 426 320T453 302Q478 282 491 251T508 172Q511 126 514 100T523 60T537 43T559 39Q571 39 581 47T599 66T612 90T621 113L643 105Q636 84 626 63T599 25T562 -2T513 -13ZM324 622Q314 622 309 617Q304 612 300 596L241 352H307Q365 352 396 358T448 386Q471
409 485 444T500 526Q500 577 473 599T403 622H324Z" />
<glyph unicode="S" glyph-name="S" d="M498 444H475Q473 487 466 522T444 581Q431 602 406 618T336 635Q281 635 252 607T223 528Q223 506 229 490T247 460T276 430T315 395Q345 367 371 344T417 296T448 243T460 179Q460 131 442 95T392 35T322 -2T240 -14Q213
-14 188 -8T141 9T101 33T71 59H66L9 -1H-10L47 235H70Q74 181 89 141T126 75T178 35T240 21Q306 21 342 53T378 135Q378 164 369 186T344 226T305 264T258 306Q237 325 216 343T179 383T153 431T143 494Q143 526 155 558T191 615T252 655T336 671Q387 671 427
653T484 610H486L528 660H550L498 444Z" />
<glyph unicode="T" glyph-name="T" horiz-adv-x="618" d="M335 135Q330 115 327 100T324 69Q324 51 333 42T357 28Q366 25 380 24T405 21L400 0H103L108 21Q120 22 133 24T154 28Q168 32 181 39T206 58Q219 72 225 90T239 143L355 622H316Q282 622 249 616T194
593Q161 567 134 534T86 471H64L126 657H710L667 471H645Q644 506 639 536T609 592Q590 612 558 617T487 622H452L335 135V135Z" />
<glyph unicode="U" glyph-name="U" horiz-adv-x="695" d="M585 214Q569 150 546 107T492 36T419 -2T326 -14Q279 -14 239 -3T169 30T122 85T105 164Q105 181 108 208T120 271L180 522Q185 542 188 557T191 588Q191 606 182 615T158 629Q151 631 140 633T121 636L126
657H412L407 636Q395 635 382 633T361 629Q347 625 334 618T309 599Q296 585 290 567T276 514L211 244Q206 222 202 190T197 134Q197 81 229 50T327 18Q382 18 418 31T479 70T518 132T544 214L614 498Q622 527 624 543T626 573Q626 599 613 612T582 630Q574 632
563 633T541 636L546 657H783L778 636Q767 635 760 634T745 629Q728 623 718 616T695 595Q684 584 675 564T654 497L585 214V214Z" />
<glyph unicode="V" glyph-name="V" horiz-adv-x="621" d="M546 515Q560 535 567 551T575 583Q575 603 567 611T549 625Q535 631 523 632T494 636L499 657H748L743 636Q734 634 719 628T688 614Q679 609 670 603T648 586T622 556T590 510L256 0H200V522Q202 565
196 590Q189 619 157 629Q149 631 135 633T111 636L116 657H409L404 636Q392 635 381 633T361 629Q347 625 333 620T311 600Q302 587 301 568T298 514V137H305L546 515Z" />
<glyph unicode="W" glyph-name="W" horiz-adv-x="934" d="M858 515Q871 536 879 552T888 583Q888 603 880 611T862 625Q849 631 838 632T810 636L815 657H1061L1056 636Q1046 634 1031 628T1001 614Q992 609 982 603T960 586T934 556T902 510L590 0H534V446H527L256
0H200V522Q202 565 196 590Q189 619 157 629Q149 631 136 633T111 636L116 657H409L404 636Q392 635 381 633T361 629Q347 625 334 620T311 600Q303 587 301 568T298 514V143H305L534 518V522Q536 565 530 590Q523 619 491 629Q483 631 472 633T450 636L455 657H748L743
636Q730 635 718 633T695 629Q681 625 668 620T645 600Q637 587 635 568T632 514V143H639L858 515Z" />
<glyph unicode="X" glyph-name="X" horiz-adv-x="639" d="M-23 0L-18 21Q-10 22 1 25T22 33Q39 41 51 49T73 66Q77 70 89 80T116 105T147 137T179 169L317 315L226 529Q216 552 210 565T198 587Q187 604 179 611T157 625Q139 633 115 636L119 657H394L389 636Q380
635 368 634T348 630Q327 625 318 617T309 591Q309 580 314 566T325 537L389 386L508 514Q534 541 546 558T559 596Q559 610 552 617T531 629Q523 632 514 633T494 636L499 657H737L732 636Q724 635 713 632T692 624Q675 616 662 607T638 590Q633 586 623 577T600
556T572 529T542 499L404 351L498 128Q509 103 514 92T526 72Q538 52 546 45T567 31Q577 26 588 25T612 21L607 0H332L337 21Q346 22 358 23T378 27Q399 32 407 40T415 66Q415 77 411 90T399 120L332 278L226 167Q198 138 176 112T153 63Q153 49 160 42T179 29Q188
25 197 24T216 21L211 0H-23Z" />
<glyph unicode="Y" glyph-name="Y" horiz-adv-x="626" d="M351 135Q346 115 343 100T340 69Q340 51 349 42T373 28Q382 25 397 24T423 21L418 0H121L126 21Q138 22 150 24T170 28Q184 32 197 39T222 58Q235 72 241 90T256 143L288 291L207 555Q199 580 190 595T169
618T143 630T111 636L116 657H379L375 636Q367 635 353 633T331 627Q320 622 312 615T304 587Q304 572 308 558T317 521L374 333H379L507 508Q530 540 540 558T550 597Q550 619 527 629Q520 632 512 633T496 636L501 657H724L719 636Q711 635 696 632T670 625Q659
621 649 615T624 597T592 561T545 501L384 283L351 135V135Z" />
<glyph unicode="Z" glyph-name="Z" horiz-adv-x="545" d="M600 632L100 35H186Q220 35 245 36T291 40T329 51T367 70Q395 87 415 103T451 135T480 169T508 205H530L449 0H-28L-20 25L480 622H360Q334 622 315 620T279 614T247 603T215 585Q200 575 188 566T162
547T135 522T102 489H80L168 657H605L600 632Z" />
<glyph unicode="[" glyph-name="bracketleft" horiz-adv-x="412" d="M494 648Q494 610 471 589T398 567Q377 567 354 572T308 585T268 603T240 622L68 -63Q104 -37 146 -24T228 -10Q267 -10 288 -27T309 -81Q309 -107 296 -126T267 -158L249 -150Q260 -136 260
-114Q260 -69 202 -69Q160 -69 110 -77T17 -108L210 661Q228 651 251 644T298 633T346 627T390 625Q425 625 439 640T453 681Q453 689 451 695T447 705H470Q478 699 486 682T494 648Z" />
<glyph unicode="\" glyph-name="backslash" horiz-adv-x="382" d="M307 -99L128 680L152 686L332 -93L307 -99Z" />
<glyph unicode="]" glyph-name="bracketright" horiz-adv-x="412" d="M-62 -101Q-62 -63 -39 -42T34 -20Q55 -20 78 -25T124 -38T163 -56T192 -75L364 610Q328 584 286 571T204 557Q165 557 144 574T123 628Q123 654 136 673T165 705L183 697Q172 683 172 661Q172
616 230 616Q272 616 322 624T415 655L222 -114Q204 -104 181 -97T134 -86T86 -80T42 -78Q7 -78 -7 -93T-21 -134Q-21 -142 -19 -148T-15 -158H-38Q-46 -152 -54 -135T-62 -101Z" />
<glyph unicode="^" glyph-name="asciicircum" horiz-adv-x="400" d="M218 657H246L368 409H341L232 635L123 409H96L218 657Z" />
<glyph unicode="_" glyph-name="underscore" horiz-adv-x="295" d="M-95 -167L-85 -131H220L210 -167H-95Z" />
<glyph unicode="`" glyph-name="grave" horiz-adv-x="400" d="M372 507L251 579Q242 584 233 590T215 603T202 619T197 638Q197 652 205 661T228 670Q245 670 254 662T282 632Q301 611 325 584T381 520L372 507Z" />
<glyph unicode="a" glyph-name="a" horiz-adv-x="464" d="M323 53Q323 35 338 35Q350 35 363 43T388 64T413 95T437 130L455 117Q441 94 425 72T390 31T348 2T300 -10Q274 -10 262 4T249 43Q249 59 250 70T254 94H248Q242 84 237 77T227 63T217 51T202 35Q182
15 159 3T108 -10Q92 -10 76 -4T47 16T26 52T17 107Q17 152 37 208T92 315T170 400T262 434Q295 434 312 417T334 371H336L362 424H431L365 222Q344 159 334 113T323 53ZM308 337Q308 405 262 405Q236 405 215 388T172 335Q137 279 117 215T97 89Q97 56 107 42T133
27Q152 27 169 40T199 67Q213 83 224 99T248 138Q261 162 272 190T291 245T303 296T308 337Z" />
<glyph unicode="b" glyph-name="b" horiz-adv-x="424" d="M409 300Q409 275 403 246T386 186T358 128T323 77Q289 38 241 14T150 -10Q116 -10 92 -1T53 24T31 60T24 104Q24 133 30 161T48 225L157 555Q174 605 174 622Q174 633 173 639T165 651Q160 656 146 658T119
663L126 684H274Q280 684 280 679Q280 675 276 667T267 644Q263 634 260 626T254 608T246 586T237 558L176 370H182Q206 405 239 419T302 434Q356 434 382 400T409 300ZM331 339Q331 400 280 400Q262 400 244 391T212 367Q196 351 182 329T156 283Q144 257 134
230T115 178T103 132T98 95Q98 51 113 35T151 19Q188 19 220 45T276 118Q296 160 313 216T331 339Z" />
<glyph unicode="c" glyph-name="c" horiz-adv-x="369" d="M371 352Q371 334 363 318T332 302Q312 302 304 312T295 338Q295 343 296 350T300 365Q302 372 303 377T304 386Q304 397 295 401T271 405Q259 405 245 400T220 385Q200 370 179 340T141 272T112 189T100
100Q100 65 117 46T167 26Q194 26 215 34T254 56T284 87T306 120L325 108Q299 57 255 24T153 -10Q120 -10 95 1T54 32T29 77T20 131Q20 170 32 208T63 279T107 340T154 386Q191 414 217 424T271 434Q319 434 345 413T371 352Z" />
<glyph unicode="d" glyph-name="d" horiz-adv-x="464" d="M326 360Q319 378 304 391T265 405Q239 405 216 387T171 334Q154 306 140 271T117 201T102 136T97 90Q97 57 108 43T136 28Q153 28 167 38T196 65Q210 80 223 100T249 143Q262 167 274 199T296 262T314
319T326 360ZM252 103Q240 83 229 67T204 36Q181 13 156 2T106 -10Q90 -10 74 -4T46 16T25 55T17 115Q17 163 38 218T93 322T173 402T266 434Q298 434 313 424T337 401H340L389 555Q406 605 406 622Q406 633 405 639T397 651Q392 656 378 658T351 663L358 684H506Q512
684 512 679Q512 675 508 667T499 644Q495 634 492 626T486 608T478 586T469 558L365 222Q345 158 334 113T323 53Q323 35 338 35Q350 35 363 43T388 64T413 95T437 130L455 117Q441 94 426 72T393 31T354 2T307 -10Q277 -10 263 6T248 46Q248 58 252 75T258 103H252Z"
/>
<glyph unicode="e" glyph-name="e" horiz-adv-x="355" d="M325 108Q312 83 293 62T250 24T199 -1T143 -10Q113 -10 90 1T52 32T29 76T21 130Q21 201 53 262T137 372Q170 404 202 419T261 434Q310 434 329 415T348 365Q348 342 331 319T295 279Q280 267 259 254T213
227T161 203T109 183Q101 140 101 99Q101 26 157 26Q184 26 207 34T249 56T282 87T306 120L325 108ZM115 211Q157 229 191 247T246 287Q266 307 276 330T286 374Q286 405 261 405Q240 405 219 392T179 353T143 292T115 211Z" />
<glyph unicode="f" glyph-name="f" horiz-adv-x="249" d="M203 389Q186 325 169 256T130 119T84 -8T28 -113T-43 -186T-131 -213Q-179 -213 -211 -192T-243 -129Q-243 -104 -230 -92T-202 -80Q-184 -80 -175 -92T-165 -119Q-165 -132 -167 -141T-169 -158Q-169
-171 -159 -177T-131 -184Q-71 -184 -40 -126Q-26 -100 -10 -61T24 36T63 175T109 365L115 389H39L48 424H124Q139 484 162 533T216 616T281 670T355 689Q409 689 435 672T461 628Q461 608 450 597T421 585Q404 585 395 595T386 622Q386 628 386 631T387 641Q387
646 381 653T355 660Q329 660 310 645T279 612Q268 595 260 579T245 542T230 493T212 424H307L298 389H203V389Z" />
<glyph unicode="g" glyph-name="g" horiz-adv-x="388" d="M143 -213Q54 -213 3 -181T-48 -92Q-48 -59 -13 -35T75 3V8Q49 19 33 35T16 81Q16 109 41 129T105 161Q80 174 65 197T50 255Q50 291 64 323T102 380T156 419T220 434Q251 434 275 424T314 393H318Q325
416 345 434T391 453Q415 453 431 441T448 408Q448 391 439 382T417 373Q403 373 396 379T382 396Q376 406 372 411T360 417Q349 417 343 402T337 372Q337 368 337 363T339 353Q340 347 341 341T342 326Q342 290 328 258T290 201T235 162T171 147Q163 147 156 148T140
150Q121 150 104 138T87 111Q87 99 93 93T111 82T141 74T185 64Q229 53 262 43T318 19T352 -15T364 -64Q364 -100 348 -127T302 -174T232 -203T143 -213ZM143 -184Q171 -184 200 -180T252 -165T289 -137T304 -94Q304 -81 299 -72T280 -54T243 -38T185 -22L110 -4Q95
-7 79 -14T48 -34T25 -63T16 -103Q16 -126 26 -141T54 -166T94 -180T143 -184ZM220 408Q197 408 177 392T142 347Q128 321 122 293T116 240Q116 209 128 191T171 173Q194 173 214 189T249 234Q263 260 269 288T275 341Q275 372 263 390T220 408Z" />
<glyph unicode="h" glyph-name="h" horiz-adv-x="471" d="M-8 0Q-1 22 6 45T24 99T48 168T79 262T122 388T177 555Q194 605 194 622Q194 633 193 639T185 651Q180 656 166 658T139 663L146 684H297Q303 684 303 679Q303 675 299 667T290 644Q286 634 283 626T277
608T269 586T260 558L168 297H173Q199 341 225 368T274 409T318 429T352 434Q384 434 399 417T415 370Q415 342 403 304T370 204Q362 181 354 157T339 112T328 76T324 53Q324 35 339 35Q351 35 365 43T394 64T423 95T448 130L466 117Q452 94 434 72T393 31T346
2T296 -10Q270 -10 254 6T238 47Q238 60 243 80T257 125T275 177T294 230Q311 278 324 316T337 371Q337 384 332 388T316 393Q302 393 283 384T241 350T192 282T138 170Q132 154 124 132T106 87T89 41T74 0H-8V0Z" />
<glyph unicode="i" glyph-name="i" horiz-adv-x="267" d="M260 595Q260 570 243 559T209 547Q192 547 176 559T160 595Q160 618 176 631T209 645Q226 645 243 633T260 595ZM133 362Q133 388 115 388Q103 388 82 373T26 306L7 317Q43 377 84 405T163 434Q189 434
202 418T215 373Q215 353 203 313T171 218Q160 189 151 161T135 110T123 72T119 53Q119 35 134 35Q146 35 160 43T187 64T214 95T239 131L257 118Q243 95 226 72T188 31T143 2T90 -10Q66 -10 51 6T36 47Q36 60 41 81T55 127T74 179T93 231Q110 281 121 314T133
362Z" />
<glyph unicode="j" glyph-name="j" horiz-adv-x="232" d="M260 595Q260 570 243 559T209 547Q192 547 176 559T160 595Q160 618 176 631T209 645Q226 645 243 633T260 595ZM166 200Q140 123 119 65T79 -36T45 -107T15 -152Q-13 -184 -40 -198T-103 -213Q-150 -213
-175 -192T-200 -135Q-200 -115 -188 -102T-161 -88Q-140 -88 -129 -100T-118 -127Q-118 -140 -121 -150Q-123 -155 -124 -159T-125 -167Q-125 -185 -101 -185Q-81 -185 -67 -178T-39 -147Q-33 -137 -22 -110T2 -45T29 34T55 114T78 184T93 231Q110 281 121 314T133
362Q133 388 115 388Q103 388 82 373T26 306L7 317Q43 377 84 405T163 434Q189 434 202 418T215 373Q215 363 211 345T200 304T184 254T166 200Z" />
<glyph unicode="k" glyph-name="k" horiz-adv-x="465" d="M298 -10Q272 -10 257 6T242 47Q242 70 247 92T258 133Q260 144 263 159T267 186Q267 216 250 227T195 239H156L76 0H-8L177 555Q185 581 189 597T194 622Q194 633 193 639T185 651Q180 656 166 658T139
663L146 684H297Q303 684 303 679Q303 675 299 667T290 644Q286 634 283 626T277 608T269 586T260 558L164 268H198Q216 268 232 274T261 291T283 313T298 336Q322 383 348 411Q361 424 372 429T400 434Q429 434 445 414T462 369Q462 343 452 330T423 316Q409 316
398 324T386 351Q386 353 387 359T390 372Q392 377 392 381T393 387Q393 396 382 396Q367 396 352 373T319 319Q305 295 287 280T246 257V253Q278 249 297 239T326 217T340 190T343 162Q343 149 341 134T334 100Q329 80 328 69T326 53Q326 35 341 35Q352 35 365
43T391 64T417 95T440 130L458 117Q445 94 428 72T389 31T345 2T298 -10Z" />
<glyph unicode="l" glyph-name="l" horiz-adv-x="257" d="M149 218Q138 189 129 162T113 112T101 75T97 53Q97 35 114 35Q127 35 141 43T170 64T198 95T223 131L241 118Q227 95 210 72T171 31T125 2T72 -10Q46 -10 31 6T15 48Q15 64 20 87T34 138T53 194T73 251L177
555Q194 605 194 622Q194 633 193 639T185 651Q180 656 166 658T139 663L146 684H299Q305 684 305 679Q305 675 301 667T292 644Q288 634 285 626T279 608T271 586T262 558Q228 458 207 393T172 288Q157 242 149 218Z" />
<glyph unicode="m" glyph-name="m" horiz-adv-x="704" d="M471 47Q471 60 476 80T490 125T508 177T527 230Q544 278 557 316T571 371Q571 384 566 388T552 393Q539 393 520 379T477 336T427 261T374 152Q367 130 359 107T344 63T331 26T322 0H238Q243 16 252 44T273
105T295 171T315 230Q332 278 345 316T359 371Q359 384 354 388T340 393Q327 393 307 379T263 333T212 253T157 136Q144 104 132 70T108 0H26Q36 33 49 72T75 149T99 219T116 269Q129 308 131 327T134 361Q134 388 114 388Q103 388 82 373T26 306L7 317Q43 377
82 405T158 434Q208 434 208 377Q208 365 207 355T204 333T199 308T192 276H198Q243 355 285 394T375 434Q407 434 416 417T426 370Q426 352 421 330T405 276H411Q456 355 497 394T587 434Q619 434 634 417T649 370Q649 342 637 304T603 204Q595 181 587 157T572
112T561 76T557 53Q557 35 572 35Q584 35 598 43T627 64T656 95T681 130L699 117Q685 94 667 72T626 31T579 2T529 -10Q503 -10 487 6T471 47Z" />
<glyph unicode="n" glyph-name="n" horiz-adv-x="498" d="M493 117Q479 94 461 72T420 31T373 2T323 -10Q297 -10 281 6T265 47Q265 60 270 80T284 125T302 177T321 230Q338 278 351 316T365 371Q365 384 360 388T346 393Q333 393 312 379T266 333T212 253T157
136Q144 104 132 70T108 0H26Q36 33 49 72T75 149T99 219T116 269Q129 308 131 327T134 361Q134 388 114 388Q103 388 82 373T26 306L7 317Q43 377 82 405T158 434Q208 434 208 377Q208 365 207 355T204 333T199 308T192 276H198Q243 355 288 394T381 434Q413 434
428 417T443 370Q443 342 431 304T397 204Q389 181 381 157T366 112T355 76T351 53Q351 35 366 35Q378 35 392 43T421 64T450 95T475 130L493 117V117Z" />
<glyph unicode="o" glyph-name="o" horiz-adv-x="409" d="M153 -10Q93 -10 55 29T17 135Q17 199 38 259T101 363Q133 395 170 414T256 434Q285 434 310 424T353 395T381 349T392 289Q392 226 371 165T308 61Q276 29 239 10T153 -10ZM256 405Q227 405 208 392T171
356Q157 338 144 310T119 247T102 173T95 94Q95 59 108 39T153 19Q182 19 201 32T238 68Q252 86 265 114T290 177T307 251T314 330Q314 365 301 385T256 405Z" />
<glyph unicode="p" glyph-name="p" horiz-adv-x="465" d="M205 332Q221 362 239 382T275 413T311 429T342 434Q364 434 383 428T416 407T439 365T448 300Q448 266 439 230T414 159T375 94T326 42Q297 19 267 5T188 -10Q162 -10 143 -5T109 8L77 -91Q72 -108 70
-119T67 -146Q67 -159 73 -169T94 -185Q104 -188 113 -189T138 -193L132 -213H-118L-112 -193Q-96 -192 -82 -189T-57 -179Q-38 -166 -29 -149T-10 -102L126 310Q131 325 133 339T136 361Q136 388 116 388Q105 388 84 373T28 306L9 317Q45 377 84 405T160 434Q207
434 206 374Q206 366 204 355T199 332H205ZM370 327Q370 365 358 379T321 394Q302 394 285 386T256 366Q247 358 238 345T219 315T202 282T189 249L124 52Q136 38 152 29T189 19Q221 19 239 31T272 59Q291 81 309 113T340 181T362 255T370 327Z" />
<glyph unicode="q" glyph-name="q" horiz-adv-x="429" d="M273 -91Q268 -108 266 -119T263 -146Q263 -159 269 -169T290 -185Q300 -188 309 -189T334 -193L328 -213H78L84 -193Q100 -192 114 -189T139 -179Q148 -173 154 -168T165 -155T174 -138T183 -112L254
94H248Q242 84 237 77T227 63T217 51T202 35Q182 15 159 3T108 -10Q92 -10 76 -4T47 16T26 52T17 107Q17 152 37 208T92 315T170 400T262 434Q302 434 318 414T340 361H346L420 424H442L273 -91ZM308 337Q308 405 262 405Q236 405 215 388T172 335Q137 279 117
215T97 89Q97 56 107 42T133 27Q152 27 169 40T198 68Q211 84 223 99T248 138Q261 162 272 190T291 245T303 296T308 337Z" />
<glyph unicode="r" glyph-name="r" horiz-adv-x="389" d="M188 267Q209 316 230 348T271 400T310 426T347 434Q372 434 391 418T411 370Q411 345 399 334T372 322Q356 322 344 331T326 366Q323 378 320 384T308 390Q299 390 284 376T250 331T206 252T157 136Q144
104 132 70T108 0H26Q36 33 49 72T75 149T99 219T116 269Q129 308 131 327T134 361Q134 388 114 388Q103 388 82 373T26 306L7 317Q43 377 81 405T155 434Q183 434 192 418T201 376Q201 353 195 324T181 267H188V267Z" />
<glyph unicode="s" glyph-name="s" horiz-adv-x="329" d="M337 350Q337 332 328 320T301 308Q287 308 278 316T269 339Q269 353 271 358T273 376Q273 387 262 397T230 408Q196 408 183 392T169 349Q169 337 171 327T178 305T191 279T211 246Q227 220 236 201T251
166T259 139T261 113Q261 82 248 59T213 21T166 -2T115 -10Q56 -10 27 18T-2 90Q-2 114 8 129T38 145Q54 145 63 136T72 109Q72 98 70 91T64 78T58 66T55 53Q55 32 74 24T114 16Q148 16 169 33T190 81Q190 94 188 104T179 127T164 156T141 197Q130 217 122 232T109
259T102 285T99 315Q99 340 109 361T138 399T179 424T230 434Q250 434 269 430T304 415T328 389T337 350Z" />
<glyph unicode="t" glyph-name="t" horiz-adv-x="279" d="M104 55Q104 35 119 35Q131 35 146 43T176 64T205 95T230 131L248 118Q234 95 216 72T176 31T129 2T75 -10Q51 -10 37 6T22 45Q22 58 27 79T39 126T55 178T72 231L122 389H54L63 424H133L180 573H260L213
424H322L313 389H202L147 215Q139 189 131 163T117 116T108 78T104 55Z" />
<glyph unicode="u" glyph-name="u" horiz-adv-x="491" d="M349 59Q349 34 365 34Q377 34 391 42T418 63T445 93T469 128L487 115Q473 92 457 70T423 30T382 1T335 -10Q306 -10 292 8T277 52Q277 76 280 94T291 139H284Q263 97 240 69T192 23T146 -2T104 -10Q78
-10 60 8T42 56Q42 84 54 121T88 220Q104 266 119 305T134 361Q134 388 114 388Q103 388 82 373T26 306L7 317Q43 377 82 405T158 434Q184 434 198 418T213 373Q213 360 209 341T198 300T183 252T166 201Q149 153 137 116T124 61Q124 48 130 41T146 34Q159 34 179
48T223 94T274 173T329 290Q342 322 354 355T379 424H458Q447 391 435 352T409 276T386 208T369 158Q356 119 353 96T349 59Z" />
<glyph unicode="v" glyph-name="v" horiz-adv-x="419" d="M85 220Q93 242 101 265T116 307T127 342T131 364Q131 388 111 388Q100 388 79 373T23 306L4 317Q40 377 79 405T155 434Q210 434 210 377Q210 348 196 300T159 194Q151 174 144 155T132 118T124 86T120
64Q120 51 126 40T153 29Q192 29 228 54T291 116T336 195T353 270Q353 290 351 312T342 357Q337 373 335 380T333 395Q333 408 341 421T368 434Q408 434 408 358Q408 334 403 304T387 241T364 178T334 123Q317 98 294 74T245 32T189 2T133 -10Q93 -10 67 11T40
74Q40 98 53 134T85 220Z" />
<glyph unicode="w" glyph-name="w" horiz-adv-x="680" d="M421 -10Q389 -10 359 4T311 53Q275 25 237 8T157 -10Q113 -10 87 15T61 86Q61 119 72 153T99 220T134 280T169 331Q158 336 145 343T110 364Q97 372 81 379T57 387Q48 387 48 378Q48 373 56 357Q61 346
62 340T64 329Q64 313 54 304T33 294Q3 294 3 329Q3 348 15 371T41 407Q56 421 73 427T106 434Q120 434 132 428T157 414Q176 403 186 398T203 393Q211 393 215 397T222 407Q229 423 234 428T247 434Q264 434 264 416Q264 408 256 401T239 388Q230 382 225 377T212
360Q200 340 187 313T164 254T148 192T141 132Q141 87 160 66T208 45Q230 45 253 52T301 76Q293 103 293 135Q293 181 301 220T321 293T347 352T375 395Q392 418 407 426T436 434Q459 434 473 414T487 361Q487 330 478 298T454 234T420 173T378 118Q384 95 393
81T413 59T436 49T460 46Q513 46 553 96Q579 130 596 179T613 283Q613 303 610 323T597 367Q590 383 589 388T587 401Q587 414 596 424T619 434Q639 434 651 414T663 357Q663 328 658 293T642 220T613 144T569 71Q543 36 504 13T421 -10ZM423 386Q395 386 380 347T365
244Q365 222 365 194T370 145Q383 161 397 184T424 234T444 287T452 335Q452 363 445 374T423 386Z" />
<glyph unicode="x" glyph-name="x" horiz-adv-x="482" d="M484 369Q484 335 467 302T430 242L409 251Q423 274 432 303T442 356Q442 379 437 391T411 403Q395 403 379 390T346 352Q328 324 312 291T284 211Q273 163 270 131T267 84Q267 57 279 45T305 32Q324 32
340 42T369 68T394 102T414 139L433 128Q421 102 405 78T370 34T327 2T277 -10Q238 -10 215 15T191 87Q191 96 192 106T195 126H191Q183 103 171 79T142 36T104 3T57 -10Q27 -10 11 8T-5 59Q-5 74 0 90T14 121T33 152T53 180L74 169Q59 144 48 115T37 64Q37 40
44 29T69 17Q84 17 103 31T136 67Q153 94 171 131T201 216Q212 264 215 294T218 340Q218 392 188 392Q172 392 157 382T129 356T103 322T82 285L61 296Q73 321 90 346T128 390T171 422T216 434Q251 434 273 409T295 337Q295 329 295 324T292 310H296Q305 332 318
354T347 394T382 423T425 434Q454 434 469 415T484 369Z" />
<glyph unicode="y" glyph-name="y" horiz-adv-x="402" d="M84 374Q67 374 54 355T24 306L3 318Q14 341 27 362T56 399T88 424T123 434Q139 434 154 425T185 381Q193 365 202 335T218 261T231 165T239 48H244Q261 79 277 111T305 175T325 237T333 295Q333 315 327
330T315 364Q313 368 310 378T307 397Q307 413 318 423T346 434Q366 434 375 417T385 380Q385 297 358 218T290 68T199 -59T103 -154Q65 -186 34 -199T-30 -213Q-58 -213 -78 -201T-98 -162Q-98 -139 -85 -128T-54 -116Q-40 -116 -28 -124T-5 -142Q3 -150 9 -155T24
-160Q35 -160 51 -151T84 -130Q98 -120 121 -96T169 -43Q167 7 163 57T154 154T141 240T123 310Q103 374 84 374Z" />
<glyph unicode="z" glyph-name="z" horiz-adv-x="419" d="M419 407Q419 391 403 369T367 327L110 99L114 100Q120 102 132 102T155 100Q168 98 187 94T216 88Q239 83 258 79T296 74Q313 74 327 78T361 107Q368 115 374 126T388 152L409 142Q399 117 386 91T355
42T314 5T261 -10Q233 -10 212 2T171 35Q157 50 140 65T108 80Q93 80 80 64T61 25Q57 12 48 1T21 -10Q5 -10 -3 1T-12 24Q-12 38 -4 50T16 70Q28 78 41 84T67 94L312 313Q304 310 296 310Q286 310 272 313T243 322T214 334T188 348Q170 359 150 372T112 385Q90
385 78 372T65 334Q65 322 69 314T77 303Q82 316 93 323T115 331Q131 331 142 323T154 292Q154 277 142 265T111 253Q79 253 58 275T37 335Q37 353 44 370T64 402T98 425T143 434Q175 434 195 421T239 390Q249 382 260 373T283 356T304 343T319 338Q332 338 337
345T345 363T348 386T354 407Q360 420 370 427T390 434Q403 434 411 427T419 407Z" />
<glyph unicode="{" glyph-name="braceleft" horiz-adv-x="341" d="M247 -140Q169 -135 127 -99T84 0Q84 15 90 37T103 84T117 131T123 170Q123 215 104 234T42 260L47 283Q96 286 126 303Q152 318 166 341T191 404Q196 424 199 458T209 522Q217 559 238 588T290
638T359 670T442 683L437 661Q413 659 392 655T353 637T323 601T303 539Q298 511 294 484T284 424Q277 386 260 359T219 314T164 286T102 271L100 266Q122 260 141 251T174 229T196 198T205 158Q205 135 198 106T183 47T168 -6T161 -43Q161 -64 169 -78T190 -100T219
-112T250 -118L247 -140V-140Z" />
<glyph unicode="|" glyph-name="bar" horiz-adv-x="238" d="M137 -99V687H165V-99H137Z" />
<glyph unicode="}" glyph-name="braceright" horiz-adv-x="341" d="M120 683Q198 678 240 642T283 543Q283 528 277 506T264 459T250 412T244 373Q244 328 263 309T325 283L320 260Q271 257 241 240Q215 225 201 202T176 139Q171 119 168 85T158 21Q150 -16 129
-45T77 -95T7 -127T-75 -140L-70 -118Q-46 -116 -25 -112T14 -94T43 -58T64 4Q69 32 73 59T83 119Q90 157 107 184T148 229T203 257T265 272L267 277Q223 288 193 314T162 385Q162 408 169 437T184 496T199 549T206 586Q206 607 198 621T177 643T148 655T117 661L120
683V683Z" />
<glyph unicode="~" glyph-name="asciitilde" horiz-adv-x="365" d="M245 239Q226 239 211 243T181 252T152 261T119 265Q102 265 88 256T59 222L40 229Q46 246 55 262T75 291T102 312T135 320Q153 320 168 316T197 307T225 298T255 294Q279 294 293 303T321 337L340
330Q334 313 325 297T305 267T278 247T245 239Z" />
<glyph unicode="&#xa0;" glyph-name="uni00A0" horiz-adv-x="180" />
<glyph unicode="&#xa1;" glyph-name="exclamdown" horiz-adv-x="261" d="M-10 -194Q-10 -166 6 -119T47 -6L150 271H178Q163 185 150 113T128 -17Q118 -79 111 -120T96 -193Q88 -224 72 -236T37 -249Q-10 -249 -10 -194ZM140 383Q140 404 155 419T191 434Q212
434 227 419T242 383Q242 362 227 347T191 332Q170 332 155 347T140 383Z" />
<glyph unicode="&#xa2;" glyph-name="cent" horiz-adv-x="372" d="M135 -9Q127 -8 118 -6T101 -1Q60 14 40 50T20 131Q20 170 32 208T63 279T107 340T154 386Q177 403 199 415T250 432L277 533H305L279 434Q321 432 347 412T374 352Q374 334 366 318T335 302Q315
302 307 312T298 338Q298 343 299 350T303 365Q305 372 306 377T307 386Q307 396 297 400T271 405L172 26Q182 26 189 27T204 31Q242 42 267 68T306 120L325 108Q313 84 296 63T258 27T213 1T162 -10L140 -96H112L135 -9ZM100 100Q100 76 109 56T145 29L241 398Q233
394 228 391T220 385Q200 370 179 340T141 272T112 189T100 100Z" />
<glyph unicode="&#xa3;" glyph-name="sterling" horiz-adv-x="578" d="M283 220Q275 187 264 157T238 101Q254 94 273 85T311 68T350 55T386 49Q441 49 470 68T513 131L535 126Q531 97 520 70T489 23T443 -10T379 -23Q353 -23 328 -17T281 0T238 23T202 49Q176
21 145 6T76 -10Q23 -10 -1 10T-25 58Q-25 77 -15 91T12 115T49 129T89 134Q117 134 137 131T178 122Q186 146 192 171T203 220H96L104 250H210Q225 319 249 373T305 464T374 522T453 542Q517 542 545 517T573 450Q573 425 563 406T537 373T499 352T456 344Q427
344 406 354T367 385L389 405Q399 391 417 382T455 373Q467 373 478 376T499 387T513 409T519 444Q519 480 498 494T451 508Q407 508 377 479T324 384Q315 357 307 324T290 251V250H460L452 220H283ZM76 20Q106 20 127 37T162 82Q148 92 130 98T88 105Q63 105 45
95T27 63Q27 40 40 30T76 20Z" />
<glyph unicode="&#xa5;" glyph-name="yen" horiz-adv-x="516" d="M201 280L141 446Q134 465 127 477T111 496T90 506T61 511L64 532H298L294 511Q286 510 271 509T247 504Q236 499 228 491T219 465Q219 451 222 439T231 410L278 282H283L356 383Q379 415 390 433T401
472Q401 484 397 492T380 505Q373 508 363 509T345 511L350 532H566L561 511Q553 510 540 508T516 501Q505 497 493 489T466 467T433 431T391 376L322 280H469L462 250H300L297 245L283 190H448L441 160H275L266 122Q261 105 259 94T256 67Q256 54 262 44T283 28Q293
25 304 24T331 20L326 0H70L74 20Q90 21 107 24T134 35Q150 46 158 57Q173 76 181 111L192 160H43L50 190H199L213 249L212 250H64L70 280H201Z" />
<glyph unicode="&#xa6;" glyph-name="brokenbar" horiz-adv-x="198" d="M97 -99V247H125V-99H97ZM97 341V687H125V341H97Z" />
<glyph unicode="&#xa7;" glyph-name="section" horiz-adv-x="379" d="M30 288Q30 339 59 374T131 430Q123 447 119 466T114 509Q114 542 126 571T160 623T208 657T266 670Q300 670 323 663T361 645T382 619T389 591Q389 574 377 561T345 547Q323 547 313 561T302
592Q302 602 302 605T303 621Q303 632 292 636T263 641Q228 641 205 614T182 542Q182 521 187 503T202 467T224 431T252 393Q265 375 281 354T311 309T335 261T345 216Q345 165 317 132T243 75Q255 53 264 27T273 -29Q273 -62 258 -90T219 -140T166 -173T106 -185Q75
-185 53 -178T17 -160T-3 -135T-10 -106Q-10 -89 2 -76T34 -62Q56 -62 66 -76T77 -107Q77 -117 77 -120T76 -136Q76 -156 109 -156Q126 -156 143 -150T174 -131T196 -102T205 -62Q205 -19 184 17T132 92Q107 123 88 148T56 196T37 241T30 288ZM193 147Q198 139
207 128T228 99Q247 112 260 130T274 171Q274 212 250 251T191 338Q183 348 170 365T143 405Q122 391 110 372T98 324Q98 300 104 281T123 242T152 200T193 147Z" />
<glyph unicode="&#xa8;" glyph-name="dieresis" horiz-adv-x="400" d="M332 621Q350 621 363 608T376 576Q376 557 363 544T332 531Q313 531 301 544T288 576Q288 595 301 608T332 621ZM178 621Q196 621 209 608T222 576Q222 557 209 544T178 531Q159 531 147
544T134 576Q134 595 147 608T178 621Z" />
<glyph unicode="&#xa9;" glyph-name="copyright" horiz-adv-x="932" d="M677 185Q669 150 654 119T614 63T555 25T475 11Q413 11 356 37Q298 66 263 122T228 259Q228 317 250 363T307 441T388 489T482 506Q539 506 569 492T620 457H627L648 484H664V309H642Q636
338 625 368T594 424T548 465T482 481Q462 481 442 475T404 458Q369 431 347 385T325 259Q325 216 332 185T349 131T372 94T397 70Q418 53 438 48T483 42Q508 42 532 48T579 72T621 118T654 192L677 185ZM466 671Q551 671 627 638T759 549T849 417T882 256Q882
170 849 95T760 -36T627 -124T466 -157Q380 -157 305 -124T173 -35T83 96T50 258Q50 343 83 418T172 549T304 638T466 671ZM466 -122Q544 -122 612 -93T730 -13T809 107T838 256Q838 336 810 405T731 526T612 606T466 636Q388 636 320 607T202 526T123 406T94 258Q94
178 122 109T201 -12T320 -92T466 -122Z" />
<glyph unicode="&#xaa;" glyph-name="ordfeminine" horiz-adv-x="404" d="M466 401Q452 377 440 358T413 324T381 303T340 295Q324 295 307 307T289 355Q289 372 297 399H289Q277 377 267 362T239 331Q217 310 200 303T160 295Q148 295 134 300T109 317T91 349T83
398Q83 439 99 486T144 575T210 643T290 670Q320 670 336 655T354 614H360Q366 626 371 637T382 662H442L382 480Q363 423 358 395T352 355Q352 333 370 333Q383 333 394 339T414 356T431 381T450 410L466 401ZM330 586Q330 609 323 627T292 645Q274 645 256 632T220
590Q205 565 193 537T172 482T160 431T155 389Q155 329 182 329Q205 329 236 360Q261 385 283 426Q307 470 318 513T330 586Z" />
<glyph unicode="&#xab;" glyph-name="guillemotleft" horiz-adv-x="411" d="M292 242L370 119L353 104L210 235L217 259L394 387L406 372L292 242ZM117 242L195 119L178 104L35 235L42 259L219 387L231 372L117 242Z" />
<glyph unicode="&#xae;" glyph-name="registered" horiz-adv-x="553" d="M398 291Q391 299 384 314T375 348Q372 372 368 385T354 411Q346 419 339 422T313 426H294V362Q294 337 297 327Q299 322 301 318T309 311Q313 309 320 309T332 308V291H202V308Q206 308
213 308T224 311Q230 313 232 317T236 327Q238 332 238 340T238 361V503Q238 515 238 524T236 538Q234 543 232 547T224 553Q220 555 213 556T202 557V574H336Q386 574 409 556T432 505Q432 475 413 459T358 438V435Q373 433 384 430T404 420T419 399T429 365Q434
337 441 330T458 317Q464 314 473 312T489 308V291H398ZM373 501Q373 530 363 541T325 553H294V445H320Q348 445 360 461T373 501ZM75 422Q75 475 95 522T151 604T233 659T334 680Q387 680 434 660T516 604T572 522T593 422Q593 369 573 322T517 240T434 185T334
164Q281 164 234 184T151 240T96 322T75 422ZM558 422Q558 468 541 509T493 582T422 631T334 649Q287 649 246 631T175 582T128 510T110 422Q110 376 127 335T175 262T246 213T334 195Q381 195 422 213T493 262T540 334T558 422Z" />
<glyph unicode="&#xaf;" glyph-name="macron" horiz-adv-x="400" d="M124 555L134 596H364L354 555H124Z" />
<glyph unicode="&#xb0;" glyph-name="degree" horiz-adv-x="239" d="M80 531Q80 576 108 604T182 633Q227 633 255 605T284 531Q284 486 256 457T182 428Q137 428 109 457T80 531ZM248 531Q248 562 231 581T182 601Q150 601 133 582T116 531Q116 499 133 480T182
461Q214 461 231 480T248 531Z" />
<glyph unicode="&#xb4;" glyph-name="acute" horiz-adv-x="400" d="M351 625Q351 605 339 595T299 571Q272 558 240 544T154 505L144 520Q166 540 181 554T209 578T231 598T255 620Q278 642 291 649T318 657Q333 657 342 648T351 625Z" />
<glyph unicode="&#xb6;" glyph-name="paragraph" horiz-adv-x="573" d="M614 625H542L350 -151H312L504 625H408L216 -151H178L266 203H256Q210 203 172 219T107 263T65 327T50 404Q50 460 71 506T132 586T225 638T344 657H623L614 625Z" />
<glyph unicode="&#xb7;" glyph-name="periodcentered" horiz-adv-x="209" d="M163 258Q163 237 148 222T112 207Q91 207 76 222T61 258Q61 279 76 294T112 309Q133 309 148 294T163 258Z" />
<glyph unicode="&#xb8;" glyph-name="cedilla" horiz-adv-x="343" d="M225 -103Q225 -144 191 -167T102 -191Q75 -191 51 -182T13 -161L29 -141Q41 -150 61 -157T105 -165Q136 -165 155 -152T175 -108Q175 -81 163 -73T132 -65Q112 -65 96 -79L74 -67L113 3H145L116
-51Q126 -45 138 -43T161 -40Q196 -40 210 -58T225 -103Z" />
<glyph unicode="&#xba;" glyph-name="ordmasculine" horiz-adv-x="344" d="M285 670Q336 670 368 635T400 532Q400 488 383 438T328 351Q302 325 271 310T198 295Q147 295 115 330T83 433Q83 477 100 527T155 614Q181 640 212 655T285 670ZM285 646Q260 646 244
634T213 604Q201 589 190 565T169 512T155 449T149 382Q149 352 160 336T198 319Q223 319 239 331T270 361Q282 376 293 400T314 453T328 515T334 583Q334 613 323 629T285 646Z" />
<glyph unicode="&#xbb;" glyph-name="guillemotright" horiz-adv-x="411" d="M389 232L212 104L200 119L314 249L236 372L253 387L396 256L389 232ZM214 232L37 104L25 119L139 249L61 372L78 387L221 256L214 232Z" />
<glyph unicode="&#xbc;" glyph-name="onequarter" horiz-adv-x="738" d="M26 305Q33 306 45 306T63 309Q71 311 78 315T92 326Q99 334 102 344T110 375L153 553Q156 569 159 583T162 605Q162 611 161 614T154 620Q151 621 144 622T128 623T111 625T98 626L105
648Q137 650 160 653T201 660Q217 663 226 665T241 668Q250 668 250 660Q251 654 245 638T234 601L178 371Q176 359 173 350T171 332Q171 322 177 317T192 309Q197 307 212 307T233 305L226 284H20L26 305ZM138 -24L107 0L635 683L667 660L138 -24ZM602 122L594
87Q592 75 589 66T587 48Q587 38 593 33T607 25Q610 24 615 24T627 23T640 22T649 21L642 0H436L442 21Q448 22 460 22T478 25Q486 27 494 31T508 42Q514 50 518 60T526 91L534 122H371L375 142L613 379H660Q665 379 664 372Q662 359 659 350T654 330L609 148H637Q655
148 664 154T677 165Q685 172 691 183T702 206H723L690 64H668Q670 75 670 89T665 108Q660 116 654 119T630 122H602ZM416 148H540L580 305H576L416 148Z" />
<glyph unicode="&#xbd;" glyph-name="onehalf" horiz-adv-x="796" d="M26 305Q33 306 45 306T63 309Q71 311 78 315T92 326Q99 334 102 344T110 375L153 553Q156 569 159 583T162 605Q162 611 161 614T154 620Q151 621 144 622T128 623T111 625T98 626L105 648Q137
650 160 653T201 660Q217 663 226 665T241 668Q250 668 250 660Q251 654 245 638T234 601L178 371Q176 359 173 350T171 332Q171 322 177 317T192 309Q197 307 212 307T233 305L226 284H20L26 305ZM138 -24L107 0L635 683L667 660L138 -24ZM409 0Q414 4 422 10T438
22T453 33T465 41Q502 68 544 96T621 156T679 222T702 294Q703 325 688 339T640 354Q620 354 599 346T559 323T529 284T513 230Q511 212 517 201T542 187Q566 185 584 202T616 246L634 235Q628 223 617 209T591 181T556 161T513 155Q481 157 468 178T457 225Q460
256 475 285T516 336T575 371T647 384Q714 384 744 357T775 288Q775 254 755 225T708 172T651 130T605 102Q593 94 576 86T536 64L537 61H647Q666 61 680 66T707 81Q727 96 739 117H764L699 0H409V0Z" />
<glyph unicode="&#xbe;" glyph-name="threequarters" horiz-adv-x="808" d="M173 303Q219 303 247 321T276 393Q276 418 261 434T213 450Q202 450 190 447T170 439L153 430L141 449L182 470Q201 481 220 491T254 515T280 545T290 585Q290 641 231 641Q214 641
199 635T171 619T152 594T144 564Q144 547 152 537T178 527Q198 527 210 540T229 564L243 555Q232 535 210 518T156 500Q128 500 111 516T94 556Q94 583 108 604T143 639T191 661T242 668Q302 668 331 647T361 591Q361 568 349 550T316 517T271 492T218 472V469Q281
476 316 455T351 395Q351 338 303 306T174 274Q116 274 83 298T50 358Q49 378 60 387T84 397Q118 397 120 362Q120 356 119 352T115 343Q113 339 112 336T110 329Q110 315 128 309T173 303ZM207 -24L176 0L704 683L736 660L207 -24ZM672 122L664 87Q662 75 659
66T657 48Q657 38 663 33T677 25Q680 24 685 24T697 23T710 22T719 21L712 0H506L512 21Q518 22 530 22T548 25Q556 27 564 31T578 42Q584 50 588 60T596 91L604 122H441L445 142L683 379H730Q735 379 734 372Q732 359 729 350T724 330L679 148H707Q725 148 734
154T747 165Q755 172 761 183T772 206H793L760 64H738Q740 75 740 89T735 108Q730 116 724 119T700 122H672ZM486 148H610L650 305H646L486 148Z" />
<glyph unicode="&#xbf;" glyph-name="questiondown" horiz-adv-x="399" d="M211 383Q211 404 226 419T262 434Q283 434 298 419T313 383Q313 362 298 347T262 332Q241 332 226 347T211 383ZM-88 -117Q-88 -75 -73 -45T-32 9T31 52T111 90Q147 106 176 118T227
143T259 170T271 206Q271 233 255 243T216 254Q185 254 165 238T132 208L116 222Q132 245 163 265T232 285Q274 285 301 256T329 183Q329 149 313 125T269 84T206 52T134 23Q49 -12 15 -43T-20 -117Q-20 -171 9 -195T99 -220Q125 -220 148 -213T190 -192T218 -161T229
-120Q229 -83 211 -61T166 -39Q157 -39 147 -44T135 -55Q146 -60 157 -72T168 -104Q168 -125 155 -141T119 -157Q99 -157 85 -145T70 -105Q70 -88 80 -72T107 -42T146 -20T193 -12Q232 -12 256 -39T281 -108Q281 -138 265 -164T222 -208T157 -238T76 -249Q37 -249
7 -239T-45 -210T-77 -168T-88 -117Z" />
<glyph unicode="&#xc0;" glyph-name="Agrave" horiz-adv-x="625" d="M368 57Q376 70 378 89T381 143V244H195L129 142Q115 122 108 106T100 74Q100 54 108 46T126 32Q140 26 152 25T181 21L176 0H-73L-68 21Q-58 23 -44 29T-13 43Q-4 47 5 53T26 71T52 101T85
147L423 657H479V135Q479 115 479 98T483 67Q490 38 522 28Q530 26 544 24T568 21L563 0H270L275 21Q287 22 298 24T318 28Q332 32 345 37T368 57ZM217 279H381V520H374L217 279ZM533 708Q500 717 479 723T442 735T413 744T384 755Q358 764 343 775T327 806Q327
820 336 831T363 842Q377 842 388 836T420 815L541 725L533 708Z" />
<glyph unicode="&#xc1;" glyph-name="Aacute" horiz-adv-x="625" d="M368 57Q376 70 378 89T381 143V244H195L129 142Q115 122 108 106T100 74Q100 54 108 46T126 32Q140 26 152 25T181 21L176 0H-73L-68 21Q-58 23 -44 29T-13 43Q-4 47 5 53T26 71T52 101T85
147L423 657H479V135Q479 115 479 98T483 67Q490 38 522 28Q530 26 544 24T568 21L563 0H270L275 21Q287 22 298 24T318 28Q332 32 345 37T368 57ZM217 279H381V520H374L217 279ZM366 728L496 815Q519 830 530 836T556 842Q573 842 581 833T590 809Q590 790 576
779T535 758Q521 753 507 749T473 739T430 727T373 711L366 728Z" />
<glyph unicode="&#xc2;" glyph-name="Acircumflex" horiz-adv-x="625" d="M368 57Q376 70 378 89T381 143V244H195L129 142Q115 122 108 106T100 74Q100 54 108 46T126 32Q140 26 152 25T181 21L176 0H-73L-68 21Q-58 23 -44 29T-13 43Q-4 47 5 53T26 71T52 101T85
147L423 657H479V135Q479 115 479 98T483 67Q490 38 522 28Q530 26 544 24T568 21L563 0H270L275 21Q287 22 298 24T318 28Q332 32 345 37T368 57ZM217 279H381V520H374L217 279ZM565 703L491 779L351 702L341 717L484 837H529Q536 819 541 807T551 783T564 754T582
712L565 703Z" />
<glyph unicode="&#xc3;" glyph-name="Atilde" horiz-adv-x="625" d="M368 57Q376 70 378 89T381 143V244H195L129 142Q115 122 108 106T100 74Q100 54 108 46T126 32Q140 26 152 25T181 21L176 0H-73L-68 21Q-58 23 -44 29T-13 43Q-4 47 5 53T26 71T52 101T85
147L423 657H479V135Q479 115 479 98T483 67Q490 38 522 28Q530 26 544 24T568 21L563 0H270L275 21Q287 22 298 24T318 28Q332 32 345 37T368 57ZM217 279H381V520H374L217 279ZM630 815Q615 779 588 750T523 721Q509 721 493 726T459 737T426 747T396 752Q379
752 361 741T326 705L311 712Q331 754 363 781T429 808Q445 808 459 804T487 794T514 783T542 777Q566 777 582 788T614 823L630 815Z" />
<glyph unicode="&#xc4;" glyph-name="Adieresis" horiz-adv-x="625" d="M368 57Q376 70 378 89T381 143V244H195L129 142Q115 122 108 106T100 74Q100 54 108 46T126 32Q140 26 152 25T181 21L176 0H-73L-68 21Q-58 23 -44 29T-13 43Q-4 47 5 53T26 71T52 101T85
147L423 657H479V135Q479 115 479 98T483 67Q490 38 522 28Q530 26 544 24T568 21L563 0H270L275 21Q287 22 298 24T318 28Q332 32 345 37T368 57ZM217 279H381V520H374L217 279ZM355 823Q375 823 389 809T403 774Q403 753 389 739T355 724Q334 724 320 738T306
774Q306 794 320 808T355 823ZM564 823Q584 823 598 809T612 774Q612 753 598 739T564 724Q543 724 529 738T515 774Q515 794 529 808T564 823Z" />
<glyph unicode="&#xc5;" glyph-name="Aring" horiz-adv-x="625" d="M368 57Q376 70 378 89T381 143V244H195L129 142Q115 122 108 106T100 74Q100 54 108 46T126 32Q140 26 152 25T181 21L176 0H-73L-68 21Q-58 23 -44 29T-13 43Q-4 47 5 53T26 71T52 101T85 147L423
657H479V135Q479 115 479 98T483 67Q490 38 522 28Q530 26 544 24T568 21L563 0H270L275 21Q287 22 298 24T318 28Q332 32 345 37T368 57ZM217 279H381V520H374L217 279ZM545 784Q545 744 520 723T465 702Q435 702 410 723T385 784Q385 824 410 845T465 866Q495
866 520 845T545 784ZM522 784Q522 814 505 830T465 847Q442 847 425 831T408 784Q408 754 425 738T465 721Q488 721 505 737T522 784Z" />
<glyph unicode="&#xc6;" glyph-name="AE" horiz-adv-x="852" d="M149 0H-106L-101 21Q-78 24 -61 32Q-43 41 -25 55T10 85T42 117T68 147L450 627Q439 630 418 632T386 636L390 657H837L855 456H833Q828 475 821 494T807 531T791 563T776 585Q764 599 746 610T686
622H643Q606 622 591 603Q580 588 571 552L524 358H547Q568 358 583 359T609 364T630 372T648 383Q672 400 684 419T704 462H724L665 216H645Q646 240 644 260T630 296Q621 308 604 315T541 322H516L470 132Q467 118 465 105T462 80Q462 57 476 48Q487 40 501 38T538
35H593Q633 35 657 45T705 73Q744 101 770 140T814 209H836L773 0H239L244 21Q256 22 269 24T290 28Q304 32 317 39T342 58Q355 72 361 90T375 143L399 244H192L114 142Q95 118 84 103T73 68Q73 52 80 45T99 32Q113 27 125 25T154 21L149 0ZM481 606L219 279H408L487
606H481Z" />
<glyph unicode="&#xc7;" glyph-name="Ccedilla" horiz-adv-x="593" d="M359 -113Q359 -154 325 -177T236 -201Q209 -201 185 -192T147 -171L163 -151Q175 -160 195 -167T239 -175Q270 -175 289 -162T309 -118Q309 -91 297 -83T266 -75Q246 -75 230 -89L208 -77L244
-12Q164 -2 113 49Q50 112 50 237Q50 286 63 337T99 437T156 527T230 601T318 651T416 670Q450 670 475 664T518 648T548 626T570 602H574L616 647H638L574 389H552Q557 507 525 571T417 635Q373 635 340 616T278 566Q254 541 231 505T190 424T160 325T148 209Q148
159 160 124T195 66Q235 26 297 26Q340 26 376 42T441 84T493 145T533 215L560 200Q539 154 510 115T446 47T369 2T281 -14H275L250 -61Q260 -55 272 -53T295 -50Q330 -50 344 -68T359 -113Z" />
<glyph unicode="&#xc8;" glyph-name="Egrave" horiz-adv-x="600" d="M-28 21Q-16 22 -3 24T18 28Q32 32 45 39T70 58Q83 72 89 90T103 143L194 522Q199 542 202 557T205 588Q205 606 196 615T172 629Q163 632 148 633T121 636L125 657H585L603 456H581Q576 475
569 494T555 531T539 563T524 585Q512 599 494 610T434 622H371Q337 622 323 607T299 552L252 358H295Q316 358 331 359T357 364T378 372T396 383Q420 400 432 419T452 462H472L413 216H393Q394 240 392 260T378 296Q369 308 352 315T289 322H244L198 132Q192 106
192 83T204 48Q215 39 229 37T266 35H341Q381 35 405 45T453 73Q492 101 518 140T562 209H584L521 0H-33L-28 21ZM461 708Q428 717 407 723T370 735T341 744T312 755Q286 764 271 775T255 806Q255 820 264 831T291 842Q305 842 316 836T348 815L469 725L461 708Z"
/>
<glyph unicode="&#xc9;" glyph-name="Eacute" horiz-adv-x="600" d="M-28 21Q-16 22 -3 24T18 28Q32 32 45 39T70 58Q83 72 89 90T103 143L194 522Q199 542 202 557T205 588Q205 606 196 615T172 629Q163 632 148 633T121 636L125 657H585L603 456H581Q576 475
569 494T555 531T539 563T524 585Q512 599 494 610T434 622H371Q337 622 323 607T299 552L252 358H295Q316 358 331 359T357 364T378 372T396 383Q420 400 432 419T452 462H472L413 216H393Q394 240 392 260T378 296Q369 308 352 315T289 322H244L198 132Q192 106
192 83T204 48Q215 39 229 37T266 35H341Q381 35 405 45T453 73Q492 101 518 140T562 209H584L521 0H-33L-28 21ZM293 728L423 815Q446 830 457 836T483 842Q500 842 508 833T517 809Q517 790 503 779T462 758Q448 753 434 749T400 739T357 727T300 711L293 728Z"
/>
<glyph unicode="&#xca;" glyph-name="Ecircumflex" horiz-adv-x="600" d="M-28 21Q-16 22 -3 24T18 28Q32 32 45 39T70 58Q83 72 89 90T103 143L194 522Q199 542 202 557T205 588Q205 606 196 615T172 629Q163 632 148 633T121 636L125 657H585L603 456H581Q576
475 569 494T555 531T539 563T524 585Q512 599 494 610T434 622H371Q337 622 323 607T299 552L252 358H295Q316 358 331 359T357 364T378 372T396 383Q420 400 432 419T452 462H472L413 216H393Q394 240 392 260T378 296Q369 308 352 315T289 322H244L198 132Q192
106 192 83T204 48Q215 39 229 37T266 35H341Q381 35 405 45T453 73Q492 101 518 140T562 209H584L521 0H-33L-28 21ZM494 703L420 779L280 702L270 717L413 837H458Q465 819 470 807T480 783T493 754T511 712L494 703Z" />
<glyph unicode="&#xcb;" glyph-name="Edieresis" horiz-adv-x="600" d="M-28 21Q-16 22 -3 24T18 28Q32 32 45 39T70 58Q83 72 89 90T103 143L194 522Q199 542 202 557T205 588Q205 606 196 615T172 629Q163 632 148 633T121 636L125 657H585L603 456H581Q576
475 569 494T555 531T539 563T524 585Q512 599 494 610T434 622H371Q337 622 323 607T299 552L252 358H295Q316 358 331 359T357 364T378 372T396 383Q420 400 432 419T452 462H472L413 216H393Q394 240 392 260T378 296Q369 308 352 315T289 322H244L198 132Q192
106 192 83T204 48Q215 39 229 37T266 35H341Q381 35 405 45T453 73Q492 101 518 140T562 209H584L521 0H-33L-28 21ZM286 823Q306 823 320 809T334 774Q334 753 320 739T286 724Q265 724 251 738T237 774Q237 794 251 808T286 823ZM495 823Q515 823 529 809T543
774Q543 753 529 739T495 724Q474 724 460 738T446 774Q446 794 460 808T495 823Z" />
<glyph unicode="&#xcc;" glyph-name="Igrave" horiz-adv-x="338" d="M199 135Q194 115 191 100T188 69Q188 51 197 42T221 28Q230 25 245 24T272 21L267 0H-33L-28 21Q-16 22 -3 24T18 28Q32 32 45 39T70 58Q83 72 89 90T103 143L194 522Q199 542 202 557T205
588Q205 606 196 615T172 629Q163 632 148 633T121 636L126 657H426L421 636Q409 635 396 633T375 629Q361 625 348 618T323 599Q310 585 304 567T290 514L199 135V135ZM608 708Q575 717 554 723T517 735T488 744T459 755Q433 764 418 775T402 806Q402 820 411
831T438 842Q452 842 463 836T495 815L616 725L608 708Z" />
<glyph unicode="&#xcd;" glyph-name="Iacute" horiz-adv-x="338" d="M199 135Q194 115 191 100T188 69Q188 51 197 42T221 28Q230 25 245 24T272 21L267 0H-33L-28 21Q-16 22 -3 24T18 28Q32 32 45 39T70 58Q83 72 89 90T103 143L194 522Q199 542 202 557T205
588Q205 606 196 615T172 629Q163 632 148 633T121 636L126 657H426L421 636Q409 635 396 633T375 629Q361 625 348 618T323 599Q310 585 304 567T290 514L199 135V135ZM439 728L569 815Q592 830 603 836T629 842Q646 842 654 833T663 809Q663 790 649 779T608
758Q594 753 580 749T546 739T503 727T446 711L439 728Z" />
<glyph unicode="&#xce;" glyph-name="Icircumflex" horiz-adv-x="338" d="M199 135Q194 115 191 100T188 69Q188 51 197 42T221 28Q230 25 245 24T272 21L267 0H-33L-28 21Q-16 22 -3 24T18 28Q32 32 45 39T70 58Q83 72 89 90T103 143L194 522Q199 542 202 557T205
588Q205 606 196 615T172 629Q163 632 148 633T121 636L126 657H426L421 636Q409 635 396 633T375 629Q361 625 348 618T323 599Q310 585 304 567T290 514L199 135V135ZM635 703L561 779L421 702L411 717L554 837H599Q606 819 611 807T621 783T634 754T652 712L635
703Z" />
<glyph unicode="&#xcf;" glyph-name="Idieresis" horiz-adv-x="338" d="M199 135Q194 115 191 100T188 69Q188 51 197 42T221 28Q230 25 245 24T272 21L267 0H-33L-28 21Q-16 22 -3 24T18 28Q32 32 45 39T70 58Q83 72 89 90T103 143L194 522Q199 542 202 557T205
588Q205 606 196 615T172 629Q163 632 148 633T121 636L126 657H426L421 636Q409 635 396 633T375 629Q361 625 348 618T323 599Q310 585 304 567T290 514L199 135V135ZM433 823Q453 823 467 809T481 774Q481 753 467 739T433 724Q412 724 398 738T384 774Q384
794 398 808T433 823ZM642 823Q662 823 676 809T690 774Q690 753 676 739T642 724Q621 724 607 738T593 774Q593 794 607 808T642 823Z" />
<glyph unicode="&#xd0;" glyph-name="Eth" horiz-adv-x="683" d="M406 657Q475 657 526 636T610 579T659 496T675 394Q674 285 631 200T502 57Q460 29 410 15T293 0H-33L-28 21Q-16 22 -3 24T18 28Q32 32 45 39T70 58Q83 72 89 90T103 143L146 322H48L56 357H154L194
522Q199 542 202 557T205 588Q205 606 196 615T172 629Q163 632 148 633T121 636L126 657H406ZM298 35Q334 35 379 50T469 108Q500 138 520 177T553 260T570 345T575 424Q575 486 565 523T531 582Q519 593 507 601T479 613T444 620T398 622H334Q322 622 319 619T312
604L252 357H404L396 322H244L198 132Q195 118 193 105T190 80Q190 57 204 48Q215 40 229 38T266 35H298Z" />
<glyph unicode="&#xd1;" glyph-name="Ntilde" horiz-adv-x="678" d="M471 -8L251 518H244L151 156Q144 129 142 114T140 84Q140 58 153 45T184 27Q192 25 203 24T225 21L220 0H-26L-21 21Q2 22 17 28Q34 34 44 41T67 62Q77 73 87 92T111 158L201 498Q207 521 209
532T211 560Q211 586 198 601T161 627Q152 631 142 633T121 636L126 657H300L503 159H510L594 498Q602 527 604 543T606 573Q606 599 593 612T562 630Q554 632 543 633T521 636L526 657H766L761 636Q749 635 741 634T725 629Q708 623 698 616T675 595Q664 584 655
564T634 497L510 -8H471ZM627 815Q612 779 585 750T520 721Q506 721 490 726T456 737T423 747T393 752Q376 752 358 741T323 705L308 712Q328 754 360 781T426 808Q442 808 456 804T484 794T511 783T539 777Q563 777 579 788T611 823L627 815Z" />
<glyph unicode="&#xd2;" glyph-name="Ograve" horiz-adv-x="658" d="M420 670Q465 670 507 654T581 606T633 526T653 413Q653 370 643 323T614 230T568 144T506 73Q458 31 402 9T283 -14Q238 -14 196 2T122 50T70 130T50 243Q50 286 60 333T90 425T136 512T197
583Q245 624 301 647T420 670ZM420 635Q395 635 374 629T336 612T306 591T282 570Q262 550 239 515T195 430T160 319T146 188Q146 144 157 112T188 60T231 31T283 21Q308 21 329 27T367 43T397 64T421 86Q440 105 464 141T508 226T543 337T557 468Q557 512 546
543T515 595T472 625T420 635ZM514 708Q481 717 460 723T423 735T394 744T365 755Q339 764 324 775T308 806Q308 820 317 831T344 842Q358 842 369 836T401 815L522 725L514 708Z" />
<glyph unicode="&#xd3;" glyph-name="Oacute" horiz-adv-x="658" d="M420 670Q465 670 507 654T581 606T633 526T653 413Q653 370 643 323T614 230T568 144T506 73Q458 31 402 9T283 -14Q238 -14 196 2T122 50T70 130T50 243Q50 286 60 333T90 425T136 512T197
583Q245 624 301 647T420 670ZM420 635Q395 635 374 629T336 612T306 591T282 570Q262 550 239 515T195 430T160 319T146 188Q146 144 157 112T188 60T231 31T283 21Q308 21 329 27T367 43T397 64T421 86Q440 105 464 141T508 226T543 337T557 468Q557 512 546
543T515 595T472 625T420 635ZM346 728L476 815Q499 830 510 836T536 842Q553 842 561 833T570 809Q570 790 556 779T515 758Q501 753 487 749T453 739T410 727T353 711L346 728Z" />
<glyph unicode="&#xd4;" glyph-name="Ocircumflex" horiz-adv-x="658" d="M420 670Q465 670 507 654T581 606T633 526T653 413Q653 370 643 323T614 230T568 144T506 73Q458 31 402 9T283 -14Q238 -14 196 2T122 50T70 130T50 243Q50 286 60 333T90 425T136 512T197
583Q245 624 301 647T420 670ZM420 635Q395 635 374 629T336 612T306 591T282 570Q262 550 239 515T195 430T160 319T146 188Q146 144 157 112T188 60T231 31T283 21Q308 21 329 27T367 43T397 64T421 86Q440 105 464 141T508 226T543 337T557 468Q557 512 546
543T515 595T472 625T420 635ZM542 703L468 779L328 702L318 717L461 837H506Q513 819 518 807T528 783T541 754T559 712L542 703Z" />
<glyph unicode="&#xd5;" glyph-name="Otilde" horiz-adv-x="658" d="M420 670Q465 670 507 654T581 606T633 526T653 413Q653 370 643 323T614 230T568 144T506 73Q458 31 402 9T283 -14Q238 -14 196 2T122 50T70 130T50 243Q50 286 60 333T90 425T136 512T197
583Q245 624 301 647T420 670ZM420 635Q395 635 374 629T336 612T306 591T282 570Q262 550 239 515T195 430T160 319T146 188Q146 144 157 112T188 60T231 31T283 21Q308 21 329 27T367 43T397 64T421 86Q440 105 464 141T508 226T543 337T557 468Q557 512 546
543T515 595T472 625T420 635ZM599 815Q584 779 557 750T492 721Q478 721 462 726T428 737T395 747T365 752Q348 752 330 741T295 705L280 712Q300 754 332 781T398 808Q414 808 428 804T456 794T483 783T511 777Q535 777 551 788T583 823L599 815Z" />
<glyph unicode="&#xd6;" glyph-name="Odieresis" horiz-adv-x="658" d="M420 670Q465 670 507 654T581 606T633 526T653 413Q653 370 643 323T614 230T568 144T506 73Q458 31 402 9T283 -14Q238 -14 196 2T122 50T70 130T50 243Q50 286 60 333T90 425T136 512T197
583Q245 624 301 647T420 670ZM420 635Q395 635 374 629T336 612T306 591T282 570Q262 550 239 515T195 430T160 319T146 188Q146 144 157 112T188 60T231 31T283 21Q308 21 329 27T367 43T397 64T421 86Q440 105 464 141T508 226T543 337T557 468Q557 512 546
543T515 595T472 625T420 635ZM339 823Q359 823 373 809T387 774Q387 753 373 739T339 724Q318 724 304 738T290 774Q290 794 304 808T339 823ZM548 823Q568 823 582 809T596 774Q596 753 582 739T548 724Q527 724 513 738T499 774Q499 794 513 808T548 823Z" />
<glyph unicode="&#xd7;" glyph-name="multiply" horiz-adv-x="423" d="M233 264L348 149L331 132L216 247L102 133L85 150L199 264L86 377L103 394L216 281L330 395L347 378L233 264Z" />
<glyph unicode="&#xd8;" glyph-name="Oslash" horiz-adv-x="658" d="M420 670Q467 670 513 651L550 718L573 705L536 639Q587 610 620 554T653 413Q653 370 643 323T613 231T567 144T506 73Q458 31 402 9T283 -14Q232 -14 186 6L150 -59L127 -47L163 18Q113 48
82 103T50 243Q50 286 60 333T90 425T136 512T197 583Q245 625 301 647T420 670ZM557 468Q557 513 545 545T513 597L206 44Q239 21 283 21Q308 21 329 27T367 43T397 64T421 86Q440 105 464 141T508 226T543 337T557 468ZM420 635Q395 635 374 629T336 612T306
591T282 570Q262 550 239 515T195 430T160 319T146 188Q146 143 157 112T187 61L493 614Q460 635 420 635Z" />
<glyph unicode="&#xd9;" glyph-name="Ugrave" horiz-adv-x="695" d="M585 214Q569 150 546 107T492 36T419 -2T326 -14Q279 -14 239 -3T169 30T122 85T105 164Q105 181 108 208T120 271L180 522Q185 542 188 557T191 588Q191 606 182 615T158 629Q151 631 140
633T121 636L126 657H412L407 636Q395 635 382 633T361 629Q347 625 334 618T309 599Q296 585 290 567T276 514L211 244Q206 222 202 190T197 134Q197 81 229 50T327 18Q382 18 418 31T479 70T518 132T544 214L614 498Q622 527 624 543T626 573Q626 599 613 612T582
630Q574 632 563 633T541 636L546 657H783L778 636Q767 635 760 634T745 629Q728 623 718 616T695 595Q684 584 675 564T654 497L585 214V214ZM550 708Q517 717 496 723T459 735T430 744T401 755Q375 764 360 775T344 806Q344 820 353 831T380 842Q394 842 405
836T437 815L558 725L550 708Z" />
<glyph unicode="&#xda;" glyph-name="Uacute" horiz-adv-x="695" d="M585 214Q569 150 546 107T492 36T419 -2T326 -14Q279 -14 239 -3T169 30T122 85T105 164Q105 181 108 208T120 271L180 522Q185 542 188 557T191 588Q191 606 182 615T158 629Q151 631 140
633T121 636L126 657H412L407 636Q395 635 382 633T361 629Q347 625 334 618T309 599Q296 585 290 567T276 514L211 244Q206 222 202 190T197 134Q197 81 229 50T327 18Q382 18 418 31T479 70T518 132T544 214L614 498Q622 527 624 543T626 573Q626 599 613 612T582
630Q574 632 563 633T541 636L546 657H783L778 636Q767 635 760 634T745 629Q728 623 718 616T695 595Q684 584 675 564T654 497L585 214V214ZM382 728L512 815Q535 830 546 836T572 842Q589 842 597 833T606 809Q606 790 592 779T551 758Q537 753 523 749T489
739T446 727T389 711L382 728Z" />
<glyph unicode="&#xdb;" glyph-name="Ucircumflex" horiz-adv-x="695" d="M585 214Q569 150 546 107T492 36T419 -2T326 -14Q279 -14 239 -3T169 30T122 85T105 164Q105 181 108 208T120 271L180 522Q185 542 188 557T191 588Q191 606 182 615T158 629Q151 631
140 633T121 636L126 657H412L407 636Q395 635 382 633T361 629Q347 625 334 618T309 599Q296 585 290 567T276 514L211 244Q206 222 202 190T197 134Q197 81 229 50T327 18Q382 18 418 31T479 70T518 132T544 214L614 498Q622 527 624 543T626 573Q626 599 613
612T582 630Q574 632 563 633T541 636L546 657H783L778 636Q767 635 760 634T745 629Q728 623 718 616T695 595Q684 584 675 564T654 497L585 214V214ZM583 703L509 779L369 702L359 717L502 837H547Q554 819 559 807T569 783T582 754T600 712L583 703Z" />
<glyph unicode="&#xdc;" glyph-name="Udieresis" horiz-adv-x="695" d="M585 214Q569 150 546 107T492 36T419 -2T326 -14Q279 -14 239 -3T169 30T122 85T105 164Q105 181 108 208T120 271L180 522Q185 542 188 557T191 588Q191 606 182 615T158 629Q151 631 140
633T121 636L126 657H412L407 636Q395 635 382 633T361 629Q347 625 334 618T309 599Q296 585 290 567T276 514L211 244Q206 222 202 190T197 134Q197 81 229 50T327 18Q382 18 418 31T479 70T518 132T544 214L614 498Q622 527 624 543T626 573Q626 599 613 612T582
630Q574 632 563 633T541 636L546 657H783L778 636Q767 635 760 634T745 629Q728 623 718 616T695 595Q684 584 675 564T654 497L585 214V214ZM376 823Q396 823 410 809T424 774Q424 753 410 739T376 724Q355 724 341 738T327 774Q327 794 341 808T376 823ZM585
823Q605 823 619 809T633 774Q633 753 619 739T585 724Q564 724 550 738T536 774Q536 794 550 808T585 823Z" />
<glyph unicode="&#xdd;" glyph-name="Yacute" horiz-adv-x="626" d="M351 135Q346 115 343 100T340 69Q340 51 349 42T373 28Q382 25 397 24T423 21L418 0H121L126 21Q138 22 150 24T170 28Q184 32 197 39T222 58Q235 72 241 90T256 143L288 291L207 555Q199 580
190 595T169 618T143 630T111 636L116 657H379L375 636Q367 635 353 633T331 627Q320 622 312 615T304 587Q304 572 308 558T317 521L374 333H379L507 508Q530 540 540 558T550 597Q550 619 527 629Q520 632 512 633T496 636L501 657H724L719 636Q711 635 696 632T670
625Q659 621 649 615T624 597T592 561T545 501L384 283L351 135V135ZM370 728L500 815Q523 830 534 836T560 842Q577 842 585 833T594 809Q594 790 580 779T539 758Q525 753 511 749T477 739T434 727T377 711L370 728Z" />
<glyph unicode="&#xde;" glyph-name="Thorn" horiz-adv-x="544" d="M267 0H-33L-28 21Q-16 22 -3 24T18 28Q32 32 45 39T70 58Q83 72 89 90T103 143L194 522Q199 542 202 557T205 588Q205 606 196 615T172 629Q163 632 148 633T121 636L126 657H426L421 636Q409
635 396 633T375 629Q361 625 348 618T323 599Q316 591 311 577T300 548Q295 531 290 512H343Q395 512 434 501T498 471T535 425T548 369Q548 313 520 274T438 203Q408 186 367 176T254 165H206Q202 144 198 126Q195 110 193 95T190 72Q190 54 199 45T222 30Q231
27 246 25T272 21L267 0ZM311 477Q303 477 296 474T286 468Q283 465 280 460T272 439L215 201H263Q294 201 316 204T355 214T382 228T402 244Q426 267 438 299T450 380Q450 434 419 455T336 477H311Z" />
<glyph unicode="&#xdf;" glyph-name="germandbls" horiz-adv-x="444" d="M484 577Q484 554 471 533T437 491T394 451T350 414T317 377T303 341Q303 316 316 296T352 243Q369 219 381 201T402 169T413 143T417 118Q417 87 405 64T374 24T331 -1T281 -10Q258 -10
237 -3T200 16T173 46T163 85Q163 109 175 125T208 141Q224 141 234 132T245 105Q245 94 242 87T236 74T229 62T226 49Q226 33 243 25T281 16Q315 16 332 32T349 84Q349 110 332 132T284 195Q264 223 255 244T246 290Q246 329 264 357T307 409Q326 427 346 444T383
481T411 524T422 577Q422 627 405 643T353 660Q327 660 303 645T267 612Q256 594 248 578T232 539T216 487T197 413Q180 349 163 278T124 136T77 3T19 -108T-53 -184T-143 -213Q-191 -213 -223 -192T-255 -129Q-255 -104 -242 -92T-214 -80Q-196 -80 -187 -92T-177
-119Q-177 -132 -179 -141T-181 -158Q-181 -171 -171 -177T-143 -184Q-83 -184 -52 -126Q-37 -99 -21 -57T15 49T58 202T109 413Q123 475 148 526T206 613T277 669T357 689Q426 689 455 662T484 577Z" />
<glyph unicode="&#xe0;" glyph-name="agrave" horiz-adv-x="464" d="M323 53Q323 35 338 35Q350 35 363 43T388 64T413 95T437 130L455 117Q441 94 425 72T390 31T348 2T300 -10Q274 -10 262 4T249 43Q249 59 250 70T254 94H248Q242 84 237 77T227 63T217 51T202
35Q182 15 159 3T108 -10Q92 -10 76 -4T47 16T26 52T17 107Q17 152 37 208T92 315T170 400T262 434Q295 434 312 417T334 371H336L362 424H431L365 222Q344 159 334 113T323 53ZM308 337Q308 405 262 405Q236 405 215 388T172 335Q137 279 117 215T97 89Q97 56
107 42T133 27Q152 27 169 40T199 67Q213 83 224 99T248 138Q261 162 272 190T291 245T303 296T308 337ZM374 507L253 579Q244 584 235 590T217 603T204 619T199 638Q199 652 207 661T230 670Q247 670 256 662T284 632Q303 611 327 584T383 520L374 507Z" />
<glyph unicode="&#xe1;" glyph-name="aacute" horiz-adv-x="464" d="M323 53Q323 35 338 35Q350 35 363 43T388 64T413 95T437 130L455 117Q441 94 425 72T390 31T348 2T300 -10Q274 -10 262 4T249 43Q249 59 250 70T254 94H248Q242 84 237 77T227 63T217 51T202
35Q182 15 159 3T108 -10Q92 -10 76 -4T47 16T26 52T17 107Q17 152 37 208T92 315T170 400T262 434Q295 434 312 417T334 371H336L362 424H431L365 222Q344 159 334 113T323 53ZM308 337Q308 405 262 405Q236 405 215 388T172 335Q137 279 117 215T97 89Q97 56
107 42T133 27Q152 27 169 40T199 67Q213 83 224 99T248 138Q261 162 272 190T291 245T303 296T308 337ZM426 625Q426 605 414 595T374 571Q347 558 315 544T229 505L219 520Q241 540 256 554T284 578T306 598T330 620Q353 642 366 649T393 657Q408 657 417 648T426
625Z" />
<glyph unicode="&#xe2;" glyph-name="acircumflex" horiz-adv-x="464" d="M323 53Q323 35 338 35Q350 35 363 43T388 64T413 95T437 130L455 117Q441 94 425 72T390 31T348 2T300 -10Q274 -10 262 4T249 43Q249 59 250 70T254 94H248Q242 84 237 77T227 63T217
51T202 35Q182 15 159 3T108 -10Q92 -10 76 -4T47 16T26 52T17 107Q17 152 37 208T92 315T170 400T262 434Q295 434 312 417T334 371H336L362 424H431L365 222Q344 159 334 113T323 53ZM308 337Q308 405 262 405Q236 405 215 388T172 335Q137 279 117 215T97 89Q97
56 107 42T133 27Q152 27 169 40T199 67Q213 83 224 99T248 138Q261 162 272 190T291 245T303 296T308 337ZM403 747L328 843L199 747L187 760Q215 789 234 810T269 847T296 876T321 904H366Q373 886 378 872T389 841T402 805T420 756L403 747Z" />
<glyph unicode="&#xe3;" glyph-name="atilde" horiz-adv-x="464" d="M323 53Q323 35 338 35Q350 35 363 43T388 64T413 95T437 130L455 117Q441 94 425 72T390 31T348 2T300 -10Q274 -10 262 4T249 43Q249 59 250 70T254 94H248Q242 84 237 77T227 63T217 51T202
35Q182 15 159 3T108 -10Q92 -10 76 -4T47 16T26 52T17 107Q17 152 37 208T92 315T170 400T262 434Q295 434 312 417T334 371H336L362 424H431L365 222Q344 159 334 113T323 53ZM308 337Q308 405 262 405Q236 405 215 388T172 335Q137 279 117 215T97 89Q97 56
107 42T133 27Q152 27 169 40T199 67Q213 83 224 99T248 138Q261 162 272 190T291 245T303 296T308 337ZM460 620Q445 584 420 559T358 533Q344 533 328 537T294 548T261 558T231 562Q214 562 198 553T163 522L148 529Q168 571 199 594T264 618Q280 618 294 614T322
605T349 594T377 589Q401 589 415 598T444 628L460 620Z" />
<glyph unicode="&#xe4;" glyph-name="adieresis" horiz-adv-x="464" d="M323 53Q323 35 338 35Q350 35 363 43T388 64T413 95T437 130L455 117Q441 94 425 72T390 31T348 2T300 -10Q274 -10 262 4T249 43Q249 59 250 70T254 94H248Q242 84 237 77T227 63T217 51T202
35Q182 15 159 3T108 -10Q92 -10 76 -4T47 16T26 52T17 107Q17 152 37 208T92 315T170 400T262 434Q295 434 312 417T334 371H336L362 424H431L365 222Q344 159 334 113T323 53ZM308 337Q308 405 262 405Q236 405 215 388T172 335Q137 279 117 215T97 89Q97 56
107 42T133 27Q152 27 169 40T199 67Q213 83 224 99T248 138Q261 162 272 190T291 245T303 296T308 337ZM388 621Q406 621 419 608T432 576Q432 557 419 544T388 531Q369 531 357 544T344 576Q344 595 357 608T388 621ZM234 621Q252 621 265 608T278 576Q278 557
265 544T234 531Q215 531 203 544T190 576Q190 595 203 608T234 621Z" />
<glyph unicode="&#xe5;" glyph-name="aring" horiz-adv-x="464" d="M323 53Q323 35 338 35Q350 35 363 43T388 64T413 95T437 130L455 117Q441 94 425 72T390 31T348 2T300 -10Q274 -10 262 4T249 43Q249 59 250 70T254 94H248Q242 84 237 77T227 63T217 51T202
35Q182 15 159 3T108 -10Q92 -10 76 -4T47 16T26 52T17 107Q17 152 37 208T92 315T170 400T262 434Q295 434 312 417T334 371H336L362 424H431L365 222Q344 159 334 113T323 53ZM308 337Q308 405 262 405Q236 405 215 388T172 335Q137 279 117 215T97 89Q97 56
107 42T133 27Q152 27 169 40T199 67Q213 83 224 99T248 138Q261 162 272 190T291 245T303 296T308 337ZM397 588Q397 548 372 527T317 506Q287 506 262 527T237 588Q237 628 262 649T317 670Q347 670 372 649T397 588ZM374 588Q374 618 357 634T317 651Q294 651
277 635T260 588Q260 558 277 542T317 525Q340 525 357 541T374 588Z" />
<glyph unicode="&#xe6;" glyph-name="ae" horiz-adv-x="611" d="M604 365Q604 342 587 319T551 279Q536 267 515 254T469 227T417 203T365 183Q357 140 357 99Q357 26 417 26Q442 26 464 34T504 56T536 87T559 120L578 108Q565 83 546 62T504 24T454 -1T399 -10Q370
-10 348 0T310 29T286 72T277 124H273Q260 98 243 76T209 37Q189 17 165 4T108 -10Q92 -10 76 -4T47 16T26 52T17 107Q17 152 37 208T92 315T170 400T262 434Q295 434 310 417T330 371H334L360 424H411L394 371H398Q430 400 460 417T517 434Q566 434 585 415T604
365ZM305 335Q305 405 262 405Q236 405 215 388T172 335Q137 279 117 215T97 89Q97 56 107 42T133 27Q152 27 169 40T198 68Q211 84 223 99T248 138Q261 162 271 190T289 244T301 294T305 335ZM542 374Q542 405 517 405Q501 405 481 392T440 353T401 292T371 211Q406
227 443 246T502 287Q522 307 532 330T542 374Z" />
<glyph unicode="&#xe7;" glyph-name="ccedilla" horiz-adv-x="369" d="M232 -103Q232 -144 198 -167T109 -191Q82 -191 58 -182T20 -161L36 -141Q48 -150 68 -157T112 -165Q143 -165 162 -152T182 -108Q182 -81 170 -73T139 -65Q119 -65 103 -79L81 -67L115 -6Q104
-3 95 1Q70 13 54 32T29 77T20 131Q20 170 32 208T63 279T107 340T154 386Q191 414 217 424T271 434Q319 434 345 413T371 352Q371 334 363 318T332 302Q312 302 304 312T295 338Q295 343 296 350T300 365Q302 372 303 377T304 386Q304 397 295 401T271 405Q259
405 245 400T220 385Q200 370 179 340T141 272T112 189T100 100Q100 65 117 46T167 26Q194 26 215 34T254 56T284 87T306 120L325 108Q299 57 255 24T153 -10H145L123 -51Q133 -45 145 -43T168 -40Q203 -40 217 -58T232 -103Z" />
<glyph unicode="&#xe8;" glyph-name="egrave" horiz-adv-x="355" d="M325 108Q312 83 293 62T250 24T199 -1T143 -10Q113 -10 90 1T52 32T29 76T21 130Q21 201 53 262T137 372Q170 404 202 419T261 434Q310 434 329 415T348 365Q348 342 331 319T295 279Q280 267
259 254T213 227T161 203T109 183Q101 140 101 99Q101 26 157 26Q184 26 207 34T249 56T282 87T306 120L325 108ZM115 211Q157 229 191 247T246 287Q266 307 276 330T286 374Q286 405 261 405Q240 405 219 392T179 353T143 292T115 211ZM601 507L480 579Q471 584
462 590T444 603T431 619T426 638Q426 652 434 661T457 670Q474 670 483 662T511 632Q530 611 554 584T610 520L601 507Z" />
<glyph unicode="&#xe9;" glyph-name="eacute" horiz-adv-x="355" d="M325 108Q312 83 293 62T250 24T199 -1T143 -10Q113 -10 90 1T52 32T29 76T21 130Q21 201 53 262T137 372Q170 404 202 419T261 434Q310 434 329 415T348 365Q348 342 331 319T295 279Q280 267
259 254T213 227T161 203T109 183Q101 140 101 99Q101 26 157 26Q184 26 207 34T249 56T282 87T306 120L325 108ZM115 211Q157 229 191 247T246 287Q266 307 276 330T286 374Q286 405 261 405Q240 405 219 392T179 353T143 292T115 211ZM397 625Q397 605 385 595T345
571Q318 558 286 544T200 505L190 520Q212 540 227 554T255 578T277 598T301 620Q324 642 337 649T364 657Q379 657 388 648T397 625Z" />
<glyph unicode="&#xea;" glyph-name="ecircumflex" horiz-adv-x="355" d="M325 108Q312 83 293 62T250 24T199 -1T143 -10Q113 -10 90 1T52 32T29 76T21 130Q21 201 53 262T137 372Q170 404 202 419T261 434Q310 434 329 415T348 365Q348 342 331 319T295 279Q280
267 259 254T213 227T161 203T109 183Q101 140 101 99Q101 26 157 26Q184 26 207 34T249 56T282 87T306 120L325 108ZM115 211Q157 229 191 247T246 287Q266 307 276 330T286 374Q286 405 261 405Q240 405 219 392T179 353T143 292T115 211ZM374 747L299 843L170
747L158 760Q186 789 205 810T240 847T267 876T292 904H337Q344 886 349 872T360 841T373 805T391 756L374 747Z" />
<glyph unicode="&#xeb;" glyph-name="edieresis" horiz-adv-x="355" d="M325 108Q312 83 293 62T250 24T199 -1T143 -10Q113 -10 90 1T52 32T29 76T21 130Q21 201 53 262T137 372Q170 404 202 419T261 434Q310 434 329 415T348 365Q348 342 331 319T295 279Q280
267 259 254T213 227T161 203T109 183Q101 140 101 99Q101 26 157 26Q184 26 207 34T249 56T282 87T306 120L325 108ZM115 211Q157 229 191 247T246 287Q266 307 276 330T286 374Q286 405 261 405Q240 405 219 392T179 353T143 292T115 211ZM359 621Q377 621 390
608T403 576Q403 557 390 544T359 531Q340 531 328 544T315 576Q315 595 328 608T359 621ZM205 621Q223 621 236 608T249 576Q249 557 236 544T205 531Q186 531 174 544T161 576Q161 595 174 608T205 621Z" />
<glyph unicode="&#xec;" glyph-name="igrave" horiz-adv-x="267" d="M257 118Q243 95 226 72T188 31T143 2T90 -10Q66 -10 51 6T36 47Q36 60 41 81T55 127T74 179T93 231Q110 281 121 314T133 362Q133 388 115 388Q103 388 82 373T26 306L7 317Q43 377 84 405T163
434Q189 434 202 418T215 373Q215 353 203 313T171 218Q160 189 151 161T135 110T123 72T119 53Q119 35 134 35Q146 35 160 43T187 64T214 95T239 131L257 118V118ZM521 507L400 579Q391 584 382 590T364 603T351 619T346 638Q346 652 354 661T377 670Q394 670
403 662T431 632Q450 611 474 584T530 520L521 507Z" />
<glyph unicode="&#xed;" glyph-name="iacute" horiz-adv-x="267" d="M257 118Q243 95 226 72T188 31T143 2T90 -10Q66 -10 51 6T36 47Q36 60 41 81T55 127T74 179T93 231Q110 281 121 314T133 362Q133 388 115 388Q103 388 82 373T26 306L7 317Q43 377 84 405T163
434Q189 434 202 418T215 373Q215 353 203 313T171 218Q160 189 151 161T135 110T123 72T119 53Q119 35 134 35Q146 35 160 43T187 64T214 95T239 131L257 118V118ZM573 625Q573 605 561 595T521 571Q494 558 462 544T376 505L366 520Q388 540 403 554T431 578T453
598T477 620Q500 642 513 649T540 657Q555 657 564 648T573 625Z" />
<glyph unicode="&#xee;" glyph-name="icircumflex" horiz-adv-x="267" d="M257 118Q243 95 226 72T188 31T143 2T90 -10Q66 -10 51 6T36 47Q36 60 41 81T55 127T74 179T93 231Q110 281 121 314T133 362Q133 388 115 388Q103 388 82 373T26 306L7 317Q43 377 84
405T163 434Q189 434 202 418T215 373Q215 353 203 313T171 218Q160 189 151 161T135 110T123 72T119 53Q119 35 134 35Q146 35 160 43T187 64T214 95T239 131L257 118V118ZM540 747L465 843L336 747L324 760Q352 789 371 810T406 847T433 876T458 904H503Q510
886 515 872T526 841T539 805T557 756L540 747Z" />
<glyph unicode="&#xef;" glyph-name="idieresis" horiz-adv-x="267" d="M257 118Q243 95 226 72T188 31T143 2T90 -10Q66 -10 51 6T36 47Q36 60 41 81T55 127T74 179T93 231Q110 281 121 314T133 362Q133 388 115 388Q103 388 82 373T26 306L7 317Q43 377 84 405T163
434Q189 434 202 418T215 373Q215 353 203 313T171 218Q160 189 151 161T135 110T123 72T119 53Q119 35 134 35Q146 35 160 43T187 64T214 95T239 131L257 118V118ZM535 621Q553 621 566 608T579 576Q579 557 566 544T535 531Q516 531 504 544T491 576Q491 595
504 608T535 621ZM381 621Q399 621 412 608T425 576Q425 557 412 544T381 531Q362 531 350 544T337 576Q337 595 350 608T381 621Z" />
<glyph unicode="&#xf0;" glyph-name="eth" horiz-adv-x="393" d="M105 548L200 595Q180 621 158 643T116 684H142Q164 672 188 654T238 613L328 658L339 637L256 596Q280 571 302 542T340 479T366 409T376 333Q376 288 369 247T348 170T317 105T280 54Q253 25
215 8T140 -10Q83 -10 50 29T17 135Q17 201 40 264T107 372Q135 401 173 417T247 434Q257 434 269 431T290 422Q282 463 262 502T215 576L116 527L105 548ZM301 327Q302 405 247 405Q220 405 195 387T156 345Q142 321 130 289T107 222T92 153T86 90Q86 55 100 37T140
19Q175 19 195 38T230 80Q246 105 259 136T281 200T295 266T301 327Z" />
<glyph unicode="&#xf1;" glyph-name="ntilde" horiz-adv-x="498" d="M493 117Q479 94 461 72T420 31T373 2T323 -10Q297 -10 281 6T265 47Q265 60 270 80T284 125T302 177T321 230Q338 278 351 316T365 371Q365 384 360 388T346 393Q333 393 312 379T266 333T212
253T157 136Q144 104 132 70T108 0H26Q36 33 49 72T75 149T99 219T116 269Q129 308 131 327T134 361Q134 388 114 388Q103 388 82 373T26 306L7 317Q43 377 82 405T158 434Q208 434 208 377Q208 365 207 355T204 333T199 308T192 276H198Q243 355 288 394T381 434Q413
434 428 417T443 370Q443 342 431 304T397 204Q389 181 381 157T366 112T355 76T351 53Q351 35 366 35Q378 35 392 43T421 64T450 95T475 130L493 117V117ZM473 620Q458 584 433 559T371 533Q357 533 341 537T307 548T274 558T244 562Q227 562 211 553T176 522L161
529Q181 571 212 594T277 618Q293 618 307 614T335 605T362 594T390 589Q414 589 428 598T457 628L473 620Z" />
<glyph unicode="&#xf2;" glyph-name="ograve" horiz-adv-x="409" d="M153 -10Q93 -10 55 29T17 135Q17 199 38 259T101 363Q133 395 170 414T256 434Q285 434 310 424T353 395T381 349T392 289Q392 226 371 165T308 61Q276 29 239 10T153 -10ZM256 405Q227 405
208 392T171 356Q157 338 144 310T119 247T102 173T95 94Q95 59 108 39T153 19Q182 19 201 32T238 68Q252 86 265 114T290 177T307 251T314 330Q314 365 301 385T256 405ZM614 507L493 579Q484 584 475 590T457 603T444 619T439 638Q439 652 447 661T470 670Q487
670 496 662T524 632Q543 611 567 584T623 520L614 507Z" />
<glyph unicode="&#xf3;" glyph-name="oacute" horiz-adv-x="409" d="M153 -10Q93 -10 55 29T17 135Q17 199 38 259T101 363Q133 395 170 414T256 434Q285 434 310 424T353 395T381 349T392 289Q392 226 371 165T308 61Q276 29 239 10T153 -10ZM256 405Q227 405
208 392T171 356Q157 338 144 310T119 247T102 173T95 94Q95 59 108 39T153 19Q182 19 201 32T238 68Q252 86 265 114T290 177T307 251T314 330Q314 365 301 385T256 405ZM410 625Q410 605 398 595T358 571Q331 558 299 544T213 505L203 520Q225 540 240 554T268
578T290 598T314 620Q337 642 350 649T377 657Q392 657 401 648T410 625Z" />
<glyph unicode="&#xf4;" glyph-name="ocircumflex" horiz-adv-x="409" d="M153 -10Q93 -10 55 29T17 135Q17 199 38 259T101 363Q133 395 170 414T256 434Q285 434 310 424T353 395T381 349T392 289Q392 226 371 165T308 61Q276 29 239 10T153 -10ZM256 405Q227
405 208 392T171 356Q157 338 144 310T119 247T102 173T95 94Q95 59 108 39T153 19Q182 19 201 32T238 68Q252 86 265 114T290 177T307 251T314 330Q314 365 301 385T256 405ZM377 747L302 843L173 747L161 760Q189 789 208 810T243 847T270 876T295 904H340Q347
886 352 872T363 841T376 805T394 756L377 747Z" />
<glyph unicode="&#xf5;" glyph-name="otilde" horiz-adv-x="409" d="M153 -10Q93 -10 55 29T17 135Q17 199 38 259T101 363Q133 395 170 414T256 434Q285 434 310 424T353 395T381 349T392 289Q392 226 371 165T308 61Q276 29 239 10T153 -10ZM256 405Q227 405
208 392T171 356Q157 338 144 310T119 247T102 173T95 94Q95 59 108 39T153 19Q182 19 201 32T238 68Q252 86 265 114T290 177T307 251T314 330Q314 365 301 385T256 405ZM444 620Q429 584 404 559T342 533Q328 533 312 537T278 548T245 558T215 562Q198 562 182
553T147 522L132 529Q152 571 183 594T248 618Q264 618 278 614T306 605T333 594T361 589Q385 589 399 598T428 628L444 620Z" />
<glyph unicode="&#xf6;" glyph-name="odieresis" horiz-adv-x="409" d="M153 -10Q93 -10 55 29T17 135Q17 199 38 259T101 363Q133 395 170 414T256 434Q285 434 310 424T353 395T381 349T392 289Q392 226 371 165T308 61Q276 29 239 10T153 -10ZM256 405Q227
405 208 392T171 356Q157 338 144 310T119 247T102 173T95 94Q95 59 108 39T153 19Q182 19 201 32T238 68Q252 86 265 114T290 177T307 251T314 330Q314 365 301 385T256 405ZM362 621Q380 621 393 608T406 576Q406 557 393 544T362 531Q343 531 331 544T318 576Q318
595 331 608T362 621ZM208 621Q226 621 239 608T252 576Q252 557 239 544T208 531Q189 531 177 544T164 576Q164 595 177 608T208 621Z" />
<glyph unicode="&#xf7;" glyph-name="divide" horiz-adv-x="415" d="M50 252V276H375V252H50ZM213 441Q233 441 247 427T261 393Q261 373 247 359T213 345Q193 345 179 359T165 393Q165 413 179 427T213 441ZM213 193Q233 193 247 179T261 145Q261 125 247 111T213
97Q193 97 179 111T165 145Q165 165 179 179T213 193Z" />
<glyph unicode="&#xf8;" glyph-name="oslash" horiz-adv-x="409" d="M321 418Q353 401 371 368T392 289Q394 226 372 165T308 61Q276 29 239 10T153 -10Q128 -10 108 -3L77 -65L54 -54L85 7Q54 24 36 56T17 135Q15 198 37 259T101 363Q133 395 170 414T256 434Q278
434 298 428L328 487L351 476L321 418ZM314 330Q314 361 303 381L123 26Q134 19 153 19Q182 19 201 32T238 68Q252 86 265 114T290 177T307 251T314 330ZM95 94Q95 63 104 45L284 399Q272 405 256 405Q227 405 208 392T171 356Q157 338 144 310T119 247T102 173T95
94Z" />
<glyph unicode="&#xf9;" glyph-name="ugrave" horiz-adv-x="491" d="M349 59Q349 34 365 34Q377 34 391 42T418 63T445 93T469 128L487 115Q473 92 457 70T423 30T382 1T335 -10Q306 -10 292 8T277 52Q277 76 280 94T291 139H284Q263 97 240 69T192 23T146 -2T104
-10Q78 -10 60 8T42 56Q42 84 54 121T88 220Q104 266 119 305T134 361Q134 388 114 388Q103 388 82 373T26 306L7 317Q43 377 82 405T158 434Q184 434 198 418T213 373Q213 360 209 341T198 300T183 252T166 201Q149 153 137 116T124 61Q124 48 130 41T146 34Q159
34 179 48T223 94T274 173T329 290Q342 322 354 355T379 424H458Q447 391 435 352T409 276T386 208T369 158Q356 119 353 96T349 59ZM627 507L506 579Q497 584 488 590T470 603T457 619T452 638Q452 652 460 661T483 670Q500 670 509 662T537 632Q556 611 580 584T636
520L627 507Z" />
<glyph unicode="&#xfa;" glyph-name="uacute" horiz-adv-x="491" d="M349 59Q349 34 365 34Q377 34 391 42T418 63T445 93T469 128L487 115Q473 92 457 70T423 30T382 1T335 -10Q306 -10 292 8T277 52Q277 76 280 94T291 139H284Q263 97 240 69T192 23T146 -2T104
-10Q78 -10 60 8T42 56Q42 84 54 121T88 220Q104 266 119 305T134 361Q134 388 114 388Q103 388 82 373T26 306L7 317Q43 377 82 405T158 434Q184 434 198 418T213 373Q213 360 209 341T198 300T183 252T166 201Q149 153 137 116T124 61Q124 48 130 41T146 34Q159
34 179 48T223 94T274 173T329 290Q342 322 354 355T379 424H458Q447 391 435 352T409 276T386 208T369 158Q356 119 353 96T349 59ZM423 625Q423 605 411 595T371 571Q344 558 312 544T226 505L216 520Q238 540 253 554T281 578T303 598T327 620Q350 642 363 649T390
657Q405 657 414 648T423 625Z" />
<glyph unicode="&#xfb;" glyph-name="ucircumflex" horiz-adv-x="491" d="M349 59Q349 34 365 34Q377 34 391 42T418 63T445 93T469 128L487 115Q473 92 457 70T423 30T382 1T335 -10Q306 -10 292 8T277 52Q277 76 280 94T291 139H284Q263 97 240 69T192 23T146
-2T104 -10Q78 -10 60 8T42 56Q42 84 54 121T88 220Q104 266 119 305T134 361Q134 388 114 388Q103 388 82 373T26 306L7 317Q43 377 82 405T158 434Q184 434 198 418T213 373Q213 360 209 341T198 300T183 252T166 201Q149 153 137 116T124 61Q124 48 130 41T146
34Q159 34 179 48T223 94T274 173T329 290Q342 322 354 355T379 424H458Q447 391 435 352T409 276T386 208T369 158Q356 119 353 96T349 59ZM400 747L325 843L196 747L184 760Q212 789 231 810T266 847T293 876T318 904H363Q370 886 375 872T386 841T399 805T417
756L400 747Z" />
<glyph unicode="&#xfc;" glyph-name="udieresis" horiz-adv-x="491" d="M349 59Q349 34 365 34Q377 34 391 42T418 63T445 93T469 128L487 115Q473 92 457 70T423 30T382 1T335 -10Q306 -10 292 8T277 52Q277 76 280 94T291 139H284Q263 97 240 69T192 23T146
-2T104 -10Q78 -10 60 8T42 56Q42 84 54 121T88 220Q104 266 119 305T134 361Q134 388 114 388Q103 388 82 373T26 306L7 317Q43 377 82 405T158 434Q184 434 198 418T213 373Q213 360 209 341T198 300T183 252T166 201Q149 153 137 116T124 61Q124 48 130 41T146
34Q159 34 179 48T223 94T274 173T329 290Q342 322 354 355T379 424H458Q447 391 435 352T409 276T386 208T369 158Q356 119 353 96T349 59ZM385 621Q403 621 416 608T429 576Q429 557 416 544T385 531Q366 531 354 544T341 576Q341 595 354 608T385 621ZM231 621Q249
621 262 608T275 576Q275 557 262 544T231 531Q212 531 200 544T187 576Q187 595 200 608T231 621Z" />
<glyph unicode="&#xfd;" glyph-name="yacute" horiz-adv-x="402" d="M84 374Q67 374 54 355T24 306L3 318Q14 341 27 362T56 399T88 424T123 434Q139 434 154 425T185 381Q193 365 202 335T218 261T231 165T239 48H244Q261 79 277 111T305 175T325 237T333 295Q333
315 327 330T315 364Q313 368 310 378T307 397Q307 413 318 423T346 434Q366 434 375 417T385 380Q385 297 358 218T290 68T199 -59T103 -154Q65 -186 34 -199T-30 -213Q-58 -213 -78 -201T-98 -162Q-98 -139 -85 -128T-54 -116Q-40 -116 -28 -124T-5 -142Q3 -150
9 -155T24 -160Q35 -160 51 -151T84 -130Q98 -120 121 -96T169 -43Q167 7 163 57T154 154T141 240T123 310Q103 374 84 374ZM355 625Q355 605 343 595T303 571Q276 558 244 544T158 505L148 520Q170 540 185 554T213 578T235 598T259 620Q282 642 295 649T322 657Q337
657 346 648T355 625Z" />
<glyph unicode="&#xfe;" glyph-name="thorn" horiz-adv-x="435" d="M312 434Q334 434 353 428T386 407T409 365T418 300Q418 266 409 230T384 159T345 94T296 42Q267 19 237 5T158 -10Q132 -10 113 -5T79 8L47 -91Q42 -108 40 -119T37 -146Q37 -159 43 -169T64
-185Q74 -188 83 -189T108 -193L102 -213H-148L-141 -193Q-125 -192 -111 -189T-87 -179Q-68 -166 -59 -149T-40 -102L177 555Q194 605 194 622Q194 633 193 639T185 651Q180 656 166 658T139 663L146 684H289Q295 684 295 679Q295 675 291 667T282 644Q278 634
275 626T269 608T261 586T252 558L187 363H193Q221 401 252 417T312 434ZM340 327Q340 365 328 379T291 394Q272 394 255 386T226 366Q217 358 208 345T189 315T172 282T159 249L94 52Q106 38 122 29T159 19Q191 19 209 31T242 59Q261 81 279 113T310 181T332 255T340
327Z" />
<glyph unicode="&#xff;" glyph-name="ydieresis" horiz-adv-x="402" d="M84 374Q67 374 54 355T24 306L3 318Q14 341 27 362T56 399T88 424T123 434Q139 434 154 425T185 381Q193 365 202 335T218 261T231 165T239 48H244Q261 79 277 111T305 175T325 237T333
295Q333 315 327 330T315 364Q313 368 310 378T307 397Q307 413 318 423T346 434Q366 434 375 417T385 380Q385 297 358 218T290 68T199 -59T103 -154Q65 -186 34 -199T-30 -213Q-58 -213 -78 -201T-98 -162Q-98 -139 -85 -128T-54 -116Q-40 -116 -28 -124T-5 -142Q3
-150 9 -155T24 -160Q35 -160 51 -151T84 -130Q98 -120 121 -96T169 -43Q167 7 163 57T154 154T141 240T123 310Q103 374 84 374ZM574 621Q592 621 605 608T618 576Q618 557 605 544T574 531Q555 531 543 544T530 576Q530 595 543 608T574 621ZM420 621Q438 621
451 608T464 576Q464 557 451 544T420 531Q401 531 389 544T376 576Q376 595 389 608T420 621Z" />
<glyph unicode="&#x100;" glyph-name="Amacron" horiz-adv-x="625" d="M368 57Q376 70 378 89T381 143V244H195L129 142Q115 122 108 106T100 74Q100 54 108 46T126 32Q140 26 152 25T181 21L176 0H-73L-68 21Q-58 23 -44 29T-13 43Q-4 47 5 53T26 71T52 101T85
147L423 657H479V135Q479 115 479 98T483 67Q490 38 522 28Q530 26 544 24T568 21L563 0H270L275 21Q287 22 298 24T318 28Q332 32 345 37T368 57ZM217 279H381V520H374L217 279ZM333 726L343 767H593L583 726H333Z" />
<glyph unicode="&#x101;" glyph-name="amacron" horiz-adv-x="464" d="M323 53Q323 35 338 35Q350 35 363 43T388 64T413 95T437 130L455 117Q441 94 425 72T390 31T348 2T300 -10Q274 -10 262 4T249 43Q249 59 250 70T254 94H248Q242 84 237 77T227 63T217 51T202
35Q182 15 159 3T108 -10Q92 -10 76 -4T47 16T26 52T17 107Q17 152 37 208T92 315T170 400T262 434Q295 434 312 417T334 371H336L362 424H431L365 222Q344 159 334 113T323 53ZM308 337Q308 405 262 405Q236 405 215 388T172 335Q137 279 117 215T97 89Q97 56
107 42T133 27Q152 27 169 40T199 67Q213 83 224 99T248 138Q261 162 272 190T291 245T303 296T308 337ZM192 555L202 596H432L422 555H192Z" />
<glyph unicode="&#x102;" glyph-name="Abreve" horiz-adv-x="625" d="M368 57Q376 70 378 89T381 143V244H195L129 142Q115 122 108 106T100 74Q100 54 108 46T126 32Q140 26 152 25T181 21L176 0H-73L-68 21Q-58 23 -44 29T-13 43Q-4 47 5 53T26 71T52 101T85
147L423 657H479V135Q479 115 479 98T483 67Q490 38 522 28Q530 26 544 24T568 21L563 0H270L275 21Q287 22 298 24T318 28Q332 32 345 37T368 57ZM217 279H381V520H374L217 279ZM363 837Q372 797 398 784T459 770Q498 770 526 781T577 835L595 829Q592 805 582
783T554 745T512 719T453 709Q407 709 375 729T342 799Q342 814 345 831L363 837Z" />
<glyph unicode="&#x103;" glyph-name="abreve" horiz-adv-x="464" d="M323 53Q323 35 338 35Q350 35 363 43T388 64T413 95T437 130L455 117Q441 94 425 72T390 31T348 2T300 -10Q274 -10 262 4T249 43Q249 59 250 70T254 94H248Q242 84 237 77T227 63T217 51T202
35Q182 15 159 3T108 -10Q92 -10 76 -4T47 16T26 52T17 107Q17 152 37 208T92 315T170 400T262 434Q295 434 312 417T334 371H336L362 424H431L365 222Q344 159 334 113T323 53ZM308 337Q308 405 262 405Q236 405 215 388T172 335Q137 279 117 215T97 89Q97 56
107 42T133 27Q152 27 169 40T199 67Q213 83 224 99T248 138Q261 162 272 190T291 245T303 296T308 337ZM217 643Q225 597 250 583T311 568Q350 568 376 586T424 646L442 640Q439 616 430 593T404 551T363 522T305 510Q259 510 228 532T196 605Q196 620 199 637L217
643Z" />
<glyph unicode="&#x104;" glyph-name="Aogonek" horiz-adv-x="625" d="M310 -207Q277 -211 253 -206T214 -190T192 -163T185 -131Q185 -110 194 -94T220 -63T258 -34T305 -3Q326 11 340 23T365 51Q377 68 379 88T382 143V244H196L130 142Q116 122 109 106T101
74Q101 54 109 46T127 32Q141 26 153 25T182 21L177 0H-82L-77 21Q-66 23 -50 29T-17 43Q-8 47 2 53T25 71T52 101T86 147L424 657H480V135Q480 115 480 98T484 67Q491 38 523 28Q532 26 546 24T572 21L567 0H408Q370 0 345 -9T304 -29Q278 -48 262 -71T246 -126Q246
-155 263 -169T312 -189L310 -207ZM218 279H382V520H375L218 279Z" />
<glyph unicode="&#x105;" glyph-name="aogonek" horiz-adv-x="464" d="M184 -131Q184 -110 194 -93T223 -62T263 -34T310 -8Q280 -13 265 1T249 43Q249 59 250 70T254 94H248Q242 84 237 77T227 63T217 51T202 35Q182 15 159 3T108 -10Q92 -10 76 -4T47 16T26
52T17 107Q17 152 37 208T92 315T170 400T262 434Q295 434 312 417T334 371H336L362 424H431L365 222Q344 159 334 113T323 53Q323 35 338 35Q350 35 363 43T388 64T413 95T437 130L455 117Q438 87 416 59T365 11Q339 -6 317 -21T279 -51T254 -85T245 -125Q245
-154 262 -169T311 -189L309 -207Q276 -211 252 -206T213 -190T191 -163T184 -131ZM308 337Q308 405 262 405Q236 405 215 388T172 335Q137 279 117 215T97 89Q97 56 107 42T133 27Q152 27 169 40T198 68Q211 84 223 99T248 138Q261 162 272 190T291 245T303 296T308
337Z" />
<glyph unicode="&#x106;" glyph-name="Cacute" horiz-adv-x="593" d="M574 389H552Q557 507 525 571T417 635Q373 635 340 616T278 566Q254 541 231 505T190 424T160 325T148 209Q148 159 160 124T195 66Q235 26 297 26Q340 26 376 42T441 84T493 145T533 215L560
200Q539 154 510 115T446 47T369 2T281 -14Q176 -14 113 49T50 237Q50 286 63 337T99 437T156 527T230 601T318 651T416 670Q450 670 475 664T518 648T548 626T570 602H574L616 647H638L574 389ZM329 728L459 815Q482 830 493 836T519 842Q536 842 544 833T553
809Q553 790 539 779T498 758Q484 753 470 749T436 739T393 727T336 711L329 728Z" />
<glyph unicode="&#x107;" glyph-name="cacute" horiz-adv-x="369" d="M371 352Q371 334 363 318T332 302Q312 302 304 312T295 338Q295 343 296 350T300 365Q302 372 303 377T304 386Q304 397 295 401T271 405Q259 405 245 400T220 385Q200 370 179 340T141 272T112
189T100 100Q100 65 117 46T167 26Q194 26 215 34T254 56T284 87T306 120L325 108Q299 57 255 24T153 -10Q120 -10 95 1T54 32T29 77T20 131Q20 170 32 208T63 279T107 340T154 386Q191 414 217 424T271 434Q319 434 345 413T371 352ZM413 625Q413 605 401 595T361
571Q334 558 302 544T216 505L206 520Q228 540 243 554T271 578T293 598T317 620Q340 642 353 649T380 657Q395 657 404 648T413 625Z" />
<glyph unicode="&#x108;" glyph-name="Ccircumflex" horiz-adv-x="593" d="M574 389H552Q557 507 525 571T417 635Q373 635 340 616T278 566Q254 541 231 505T190 424T160 325T148 209Q148 159 160 124T195 66Q235 26 297 26Q340 26 376 42T441 84T493 145T533
215L560 200Q539 154 510 115T446 47T369 2T281 -14Q176 -14 113 49T50 237Q50 286 63 337T99 437T156 527T230 601T318 651T416 670Q450 670 475 664T518 648T548 626T570 602H574L616 647H638L574 389ZM530 703L456 779L316 702L306 717L449 837H494Q501 819
506 807T516 783T529 754T547 712L530 703Z" />
<glyph unicode="&#x109;" glyph-name="ccircumflex" horiz-adv-x="369" d="M371 352Q371 334 363 318T332 302Q312 302 304 312T295 338Q295 343 296 350T300 365Q302 372 303 377T304 386Q304 397 295 401T271 405Q259 405 245 400T220 385Q200 370 179 340T141
272T112 189T100 100Q100 65 117 46T167 26Q194 26 215 34T254 56T284 87T306 120L325 108Q299 57 255 24T153 -10Q120 -10 95 1T54 32T29 77T20 131Q20 170 32 208T63 279T107 340T154 386Q191 414 217 424T271 434Q319 434 345 413T371 352ZM375 747L300 843L171
747L159 760Q187 789 206 810T241 847T268 876T293 904H338Q345 886 350 872T361 841T374 805T392 756L375 747Z" />
<glyph unicode="&#x10a;" glyph-name="Cdotaccent" horiz-adv-x="593" d="M574 389H552Q557 507 525 571T417 635Q373 635 340 616T278 566Q254 541 231 505T190 424T160 325T148 209Q148 159 160 124T195 66Q235 26 297 26Q340 26 376 42T441 84T493 145T533
215L560 200Q539 154 510 115T446 47T369 2T281 -14Q176 -14 113 49T50 237Q50 286 63 337T99 437T156 527T230 601T318 651T416 670Q450 670 475 664T518 648T548 626T570 602H574L616 647H638L574 389ZM480 777Q480 754 465 739T426 724Q403 724 388 739T372
777Q372 800 387 815T426 830Q449 830 464 815T480 777Z" />
<glyph unicode="&#x10b;" glyph-name="cdotaccent" horiz-adv-x="369" d="M371 352Q371 334 363 318T332 302Q312 302 304 312T295 338Q295 343 296 350T300 365Q302 372 303 377T304 386Q304 397 295 401T271 405Q259 405 245 400T220 385Q200 370 179 340T141
272T112 189T100 100Q100 65 117 46T167 26Q194 26 215 34T254 56T284 87T306 120L325 108Q299 57 255 24T153 -10Q120 -10 95 1T54 32T29 77T20 131Q20 170 32 208T63 279T107 340T154 386Q191 414 217 424T271 434Q319 434 345 413T371 352ZM353 575Q353 550
336 539T302 527Q285 527 269 539T253 575Q253 598 269 611T302 625Q319 625 336 613T353 575Z" />
<glyph unicode="&#x10c;" glyph-name="Ccaron" horiz-adv-x="593" d="M574 389H552Q557 507 525 571T417 635Q373 635 340 616T278 566Q254 541 231 505T190 424T160 325T148 209Q148 159 160 124T195 66Q235 26 297 26Q340 26 376 42T441 84T493 145T533 215L560
200Q539 154 510 115T446 47T369 2T281 -14Q176 -14 113 49T50 237Q50 286 63 337T99 437T156 527T230 601T318 651T416 670Q450 670 475 664T518 648T548 626T570 602H574L616 647H638L574 389ZM354 846L428 770L568 847L578 832L435 712H390Q383 730 378 742T368
766T355 795T337 837L354 846Z" />
<glyph unicode="&#x10d;" glyph-name="ccaron" horiz-adv-x="369" d="M371 352Q371 334 363 318T332 302Q312 302 304 312T295 338Q295 343 296 350T300 365Q302 372 303 377T304 386Q304 397 295 401T271 405Q259 405 245 400T220 385Q200 370 179 340T141 272T112
189T100 100Q100 65 117 46T167 26Q194 26 215 34T254 56T284 87T306 120L325 108Q299 57 255 24T153 -10Q120 -10 95 1T54 32T29 77T20 131Q20 170 32 208T63 279T107 340T154 386Q191 414 217 424T271 434Q319 434 345 413T371 352ZM219 661L294 565L423 661L435
648Q407 619 388 598T353 561T326 532T301 504H256Q249 522 244 536T233 567T220 603T202 652L219 661Z" />
<glyph unicode="&#x10e;" glyph-name="Dcaron" horiz-adv-x="680" d="M406 657Q475 657 526 636T610 579T659 496T675 394Q674 285 631 200T502 57Q460 29 410 15T293 0H-33L-28 21Q-16 22 -3 24T18 28Q32 32 45 39T70 58Q83 72 89 90T103 143L194 522Q199 542
202 557T205 588Q205 606 196 615T172 629Q163 632 148 633T121 636L126 657H406ZM298 35Q334 35 379 50T469 108Q500 138 520 177T553 260T570 345T575 424Q575 486 565 523T531 582Q519 593 507 601T479 613T444 620T398 622H334Q322 622 319 619T312 604L198
132Q195 118 193 105T190 80Q190 57 204 48Q215 40 229 38T266 35H298ZM354 846L428 770L568 847L578 832L435 712H390Q383 730 378 742T368 766T355 795T337 837L354 846Z" />
<glyph unicode="&#x10f;" glyph-name="dcaron" horiz-adv-x="464" d="M326 360Q319 378 304 391T265 405Q239 405 216 387T171 334Q154 306 140 271T117 201T102 136T97 90Q97 57 108 43T136 28Q153 28 167 38T196 65Q210 80 223 100T249 143Q262 167 274 199T296
262T314 319T326 360ZM252 103Q240 83 229 67T204 36Q181 13 156 2T106 -10Q90 -10 74 -4T46 16T25 55T17 115Q17 163 38 218T93 322T173 402T266 434Q298 434 313 424T337 401H340L389 555Q406 605 406 622Q406 633 405 639T397 651Q392 656 378 658T351 663L358
684H506Q512 684 512 679Q512 675 508 667T499 644Q495 634 492 626T486 608T478 586T469 558L365 222Q345 158 334 113T323 53Q323 35 338 35Q350 35 363 43T388 64T413 95T437 130L455 117Q441 94 426 72T393 31T354 2T307 -10Q277 -10 263 6T248 46Q248 58 252
75T258 103H252ZM573 684H637Q626 664 615 644T590 602T562 553T527 494H503L573 684Z" />
<glyph unicode="&#x110;" glyph-name="Dcroat" horiz-adv-x="680" d="M404 357L396 322H48L56 357H404ZM406 657Q475 657 526 636T610 579T659 496T675 394Q674 285 631 200T502 57Q460 29 410 15T293 0H-33L-28 21Q-16 22 -3 24T18 28Q32 32 45 39T70 58Q83 72
89 90T103 143L194 522Q199 542 202 557T205 588Q205 606 196 615T172 629Q163 632 148 633T121 636L126 657H406ZM298 35Q334 35 379 50T469 108Q500 138 520 177T553 260T570 345T575 424Q575 486 565 523T531 582Q519 593 507 601T479 613T444 620T398 622H334Q322
622 319 619T312 604L198 132Q195 118 193 105T190 80Q190 57 204 48Q215 40 229 38T266 35H298Z" />
<glyph unicode="&#x111;" glyph-name="dcroat" horiz-adv-x="464" d="M536 535H238L245 561H543L536 535ZM326 360Q319 378 304 391T265 405Q239 405 216 387T171 334Q154 306 140 271T117 201T102 136T97 90Q97 57 108 43T136 28Q153 28 167 38T196 65Q210 80
223 100T249 143Q262 167 274 199T296 262T314 319T326 360ZM252 103Q240 83 229 67T204 36Q181 13 156 2T106 -10Q90 -10 74 -4T46 16T25 55T17 115Q17 163 38 218T93 322T173 402T266 434Q298 434 313 424T337 401H340L389 555Q406 605 406 622Q406 633 405 639T397
651Q392 656 378 658T351 663L358 684H506Q512 684 512 679Q512 675 508 667T499 644Q495 634 492 626T486 608T478 586T469 558L365 222Q345 158 334 113T323 53Q323 35 338 35Q350 35 363 43T388 64T413 95T437 130L455 117Q441 94 426 72T393 31T354 2T307 -10Q277
-10 263 6T248 46Q248 58 252 75T258 103H252Z" />
<glyph unicode="&#x112;" glyph-name="Emacron" horiz-adv-x="600" d="M-28 21Q-16 22 -3 24T18 28Q32 32 45 39T70 58Q83 72 89 90T103 143L194 522Q199 542 202 557T205 588Q205 606 196 615T172 629Q163 632 148 633T121 636L125 657H585L603 456H581Q576 475
569 494T555 531T539 563T524 585Q512 599 494 610T434 622H371Q337 622 323 607T299 552L252 358H295Q316 358 331 359T357 364T378 372T396 383Q420 400 432 419T452 462H472L413 216H393Q394 240 392 260T378 296Q369 308 352 315T289 322H244L198 132Q192 106
192 83T204 48Q215 39 229 37T266 35H341Q381 35 405 45T453 73Q492 101 518 140T562 209H584L521 0H-33L-28 21ZM255 726L265 767H515L505 726H255Z" />
<glyph unicode="&#x113;" glyph-name="emacron" horiz-adv-x="355" d="M325 108Q312 83 293 62T250 24T199 -1T143 -10Q113 -10 90 1T52 32T29 76T21 130Q21 201 53 262T137 372Q170 404 202 419T261 434Q310 434 329 415T348 365Q348 342 331 319T295 279Q280
267 259 254T213 227T161 203T109 183Q101 140 101 99Q101 26 157 26Q184 26 207 34T249 56T282 87T306 120L325 108ZM115 211Q157 229 191 247T246 287Q266 307 276 330T286 374Q286 405 261 405Q240 405 219 392T179 353T143 292T115 211ZM164 555L174 596H404L394
555H164Z" />
<glyph unicode="&#x114;" glyph-name="Ebreve" horiz-adv-x="600" d="M-28 21Q-16 22 -3 24T18 28Q32 32 45 39T70 58Q83 72 89 90T103 143L194 522Q199 542 202 557T205 588Q205 606 196 615T172 629Q163 632 148 633T121 636L125 657H585L603 456H581Q576 475
569 494T555 531T539 563T524 585Q512 599 494 610T434 622H371Q337 622 323 607T299 552L252 358H295Q316 358 331 359T357 364T378 372T396 383Q420 400 432 419T452 462H472L413 216H393Q394 240 392 260T378 296Q369 308 352 315T289 322H244L198 132Q192 106
192 83T204 48Q215 39 229 37T266 35H341Q381 35 405 45T453 73Q492 101 518 140T562 209H584L521 0H-33L-28 21ZM300 837Q309 797 335 784T396 770Q435 770 463 781T514 835L532 829Q529 805 519 783T491 745T449 719T390 709Q344 709 312 729T279 799Q279 814
282 831L300 837Z" />
<glyph unicode="&#x115;" glyph-name="ebreve" horiz-adv-x="355" d="M325 108Q312 83 293 62T250 24T199 -1T143 -10Q113 -10 90 1T52 32T29 76T21 130Q21 201 53 262T137 372Q170 404 202 419T261 434Q310 434 329 415T348 365Q348 342 331 319T295 279Q280
267 259 254T213 227T161 203T109 183Q101 140 101 99Q101 26 157 26Q184 26 207 34T249 56T282 87T306 120L325 108ZM115 211Q157 229 191 247T246 287Q266 307 276 330T286 374Q286 405 261 405Q240 405 219 392T179 353T143 292T115 211ZM188 643Q196 597 221
583T282 568Q321 568 347 586T395 646L413 640Q410 616 401 593T375 551T334 522T276 510Q230 510 199 532T167 605Q167 620 170 637L188 643Z" />
<glyph unicode="&#x116;" glyph-name="Edotaccent" horiz-adv-x="600" d="M-28 21Q-16 22 -3 24T18 28Q32 32 45 39T70 58Q83 72 89 90T103 143L194 522Q199 542 202 557T205 588Q205 606 196 615T172 629Q163 632 148 633T121 636L125 657H585L603 456H581Q576
475 569 494T555 531T539 563T524 585Q512 599 494 610T434 622H371Q337 622 323 607T299 552L252 358H295Q316 358 331 359T357 364T378 372T396 383Q420 400 432 419T452 462H472L413 216H393Q394 240 392 260T378 296Q369 308 352 315T289 322H244L198 132Q192
106 192 83T204 48Q215 39 229 37T266 35H341Q381 35 405 45T453 73Q492 101 518 140T562 209H584L521 0H-33L-28 21ZM444 777Q444 754 429 739T390 724Q367 724 352 739T336 777Q336 800 351 815T390 830Q413 830 428 815T444 777Z" />
<glyph unicode="&#x117;" glyph-name="edotaccent" horiz-adv-x="355" d="M325 108Q312 83 293 62T250 24T199 -1T143 -10Q113 -10 90 1T52 32T29 76T21 130Q21 201 53 262T137 372Q170 404 202 419T261 434Q310 434 329 415T348 365Q348 342 331 319T295 279Q280
267 259 254T213 227T161 203T109 183Q101 140 101 99Q101 26 157 26Q184 26 207 34T249 56T282 87T306 120L325 108ZM115 211Q157 229 191 247T246 287Q266 307 276 330T286 374Q286 405 261 405Q240 405 219 392T179 353T143 292T115 211ZM337 575Q337 550 320
539T286 527Q269 527 253 539T237 575Q237 598 253 611T286 625Q303 625 320 613T337 575Z" />
<glyph unicode="&#x118;" glyph-name="Eogonek" horiz-adv-x="600" d="M-28 21Q-16 22 -3 24T18 28Q32 32 45 39T70 58Q83 72 89 90T103 143L194 522Q199 542 202 557T205 588Q205 606 196 615T172 629Q163 632 148 633T121 636L125 657H585L603 456H581Q576 475
569 494T555 531T539 563T524 585Q512 599 494 610T434 622H371Q337 622 323 607T299 552L252 358H295Q316 358 331 359T357 364T378 372T396 383Q420 400 432 419T452 462H472L413 216H393Q394 240 392 260T378 296Q369 308 352 315T289 322H244L198 132Q192 106
192 83T204 48Q215 39 229 37T266 35H341Q381 35 405 45T453 73Q492 101 518 140T562 209H584L521 0H445Q429 -12 412 -24T381 -51T357 -84T348 -126Q348 -155 365 -169T414 -189L412 -207Q379 -211 355 -206T316 -190T294 -163T287 -131Q287 -110 297 -93T324
-61T363 -32T412 0H-33L-28 21Z" />
<glyph unicode="&#x119;" glyph-name="eogonek" horiz-adv-x="355" d="M227 11Q200 -5 178 -19T141 -50T116 -84T107 -125Q107 -154 124 -169T173 -189L171 -207Q138 -211 114 -206T75 -190T53 -163T46 -131Q46 -110 57 -93T86 -60T128 -32T176 -6Q168 -8 160
-9T143 -10Q113 -10 90 1T52 32T29 76T21 130Q21 201 53 262T137 372Q170 404 202 419T261 434Q310 434 329 415T348 365Q348 342 331 319T295 279Q280 267 259 254T213 227T161 203T109 183Q101 140 101 99Q101 26 157 26Q184 26 207 34T249 56T282 87T306 120L325
108Q309 76 286 54T227 11ZM115 211Q157 229 191 247T246 287Q266 307 276 330T286 374Q286 405 261 405Q240 405 219 392T179 353T143 292T115 211Z" />
<glyph unicode="&#x11a;" glyph-name="Ecaron" horiz-adv-x="600" d="M-28 21Q-16 22 -3 24T18 28Q32 32 45 39T70 58Q83 72 89 90T103 143L194 522Q199 542 202 557T205 588Q205 606 196 615T172 629Q163 632 148 633T121 636L125 657H585L603 456H581Q576 475
569 494T555 531T539 563T524 585Q512 599 494 610T434 622H371Q337 622 323 607T299 552L252 358H295Q316 358 331 359T357 364T378 372T396 383Q420 400 432 419T452 462H472L413 216H393Q394 240 392 260T378 296Q369 308 352 315T289 322H244L198 132Q192 106
192 83T204 48Q215 39 229 37T266 35H341Q381 35 405 45T453 73Q492 101 518 140T562 209H584L521 0H-33L-28 21ZM328 846L402 770L542 847L552 832L409 712H364Q357 730 352 742T342 766T329 795T311 837L328 846Z" />
<glyph unicode="&#x11b;" glyph-name="ecaron" horiz-adv-x="355" d="M325 108Q312 83 293 62T250 24T199 -1T143 -10Q113 -10 90 1T52 32T29 76T21 130Q21 201 53 262T137 372Q170 404 202 419T261 434Q310 434 329 415T348 365Q348 342 331 319T295 279Q280
267 259 254T213 227T161 203T109 183Q101 140 101 99Q101 26 157 26Q184 26 207 34T249 56T282 87T306 120L325 108ZM115 211Q157 229 191 247T246 287Q266 307 276 330T286 374Q286 405 261 405Q240 405 219 392T179 353T143 292T115 211ZM203 661L278 565L407
661L419 648Q391 619 372 598T337 561T310 532T285 504H240Q233 522 228 536T217 567T204 603T186 652L203 661Z" />
<glyph unicode="&#x11c;" glyph-name="Gcircumflex" horiz-adv-x="639" d="M452 180Q457 198 458 209T460 228Q460 246 450 255T426 269Q417 272 406 273T383 276L388 297H653L648 276Q631 275 621 273T602 269Q591 265 583 262T566 241Q558 223 551 206T536 154L500
9H486Q484 11 477 15T462 20Q443 20 413 8Q386 -3 353 -8T285 -14Q237 -14 195 2T120 50T69 131T50 243Q50 315 77 391T154 529T273 630T425 670Q494 670 536 649T598 605H602L634 647H656L599 414H577Q582 531 542 583T426 635Q375 635 342 616T279 566Q260 546
237 507T194 418T160 309T146 191Q146 149 156 118T183 67Q203 44 230 33T286 21Q323 21 353 29T401 52Q418 67 425 86T441 135L452 180V180ZM541 703L467 779L327 702L317 717L460 837H505Q512 819 517 807T527 783T540 754T558 712L541 703Z" />
<glyph unicode="&#x11d;" glyph-name="gcircumflex" horiz-adv-x="388" d="M143 -213Q54 -213 3 -181T-48 -92Q-48 -59 -13 -35T75 3V8Q49 19 33 35T16 81Q16 109 41 129T105 161Q80 174 65 197T50 255Q50 291 64 323T102 380T156 419T220 434Q251 434 275 424T314
393H318Q325 416 345 434T391 453Q415 453 431 441T448 408Q448 391 439 382T417 373Q403 373 396 379T382 396Q376 406 372 411T360 417Q349 417 343 402T337 372Q337 368 337 363T339 353Q340 347 341 341T342 326Q342 290 328 258T290 201T235 162T171 147Q163
147 156 148T140 150Q121 150 104 138T87 111Q87 99 93 93T111 82T141 74T185 64Q229 53 262 43T318 19T352 -15T364 -64Q364 -100 348 -127T302 -174T232 -203T143 -213ZM143 -184Q171 -184 200 -180T252 -165T289 -137T304 -94Q304 -81 299 -72T280 -54T243 -38T185
-22L110 -4Q95 -7 79 -14T48 -34T25 -63T16 -103Q16 -126 26 -141T54 -166T94 -180T143 -184ZM220 408Q197 408 177 392T142 347Q128 321 122 293T116 240Q116 209 128 191T171 173Q194 173 214 189T249 234Q263 260 269 288T275 341Q275 372 263 390T220 408ZM339
747L264 843L135 747L123 760Q151 789 170 810T205 847T232 876T257 904H302Q309 886 314 872T325 841T338 805T356 756L339 747Z" />
<glyph unicode="&#x11e;" glyph-name="Gbreve" horiz-adv-x="639" d="M452 180Q457 198 458 209T460 228Q460 246 450 255T426 269Q417 272 406 273T383 276L388 297H653L648 276Q631 275 621 273T602 269Q591 265 583 262T566 241Q558 223 551 206T536 154L500
9H486Q484 11 477 15T462 20Q443 20 413 8Q386 -3 353 -8T285 -14Q237 -14 195 2T120 50T69 131T50 243Q50 315 77 391T154 529T273 630T425 670Q494 670 536 649T598 605H602L634 647H656L599 414H577Q582 531 542 583T426 635Q375 635 342 616T279 566Q260 546
237 507T194 418T160 309T146 191Q146 149 156 118T183 67Q203 44 230 33T286 21Q323 21 353 29T401 52Q418 67 425 86T441 135L452 180V180ZM348 837Q357 797 383 784T444 770Q483 770 511 781T562 835L580 829Q577 805 567 783T539 745T497 719T438 709Q392 709
360 729T327 799Q327 814 330 831L348 837Z" />
<glyph unicode="&#x11f;" glyph-name="gbreve" horiz-adv-x="388" d="M143 -213Q54 -213 3 -181T-48 -92Q-48 -59 -13 -35T75 3V8Q49 19 33 35T16 81Q16 109 41 129T105 161Q80 174 65 197T50 255Q50 291 64 323T102 380T156 419T220 434Q251 434 275 424T314
393H318Q325 416 345 434T391 453Q415 453 431 441T448 408Q448 391 439 382T417 373Q403 373 396 379T382 396Q376 406 372 411T360 417Q349 417 343 402T337 372Q337 368 337 363T339 353Q340 347 341 341T342 326Q342 290 328 258T290 201T235 162T171 147Q163
147 156 148T140 150Q121 150 104 138T87 111Q87 99 93 93T111 82T141 74T185 64Q229 53 262 43T318 19T352 -15T364 -64Q364 -100 348 -127T302 -174T232 -203T143 -213ZM143 -184Q171 -184 200 -180T252 -165T289 -137T304 -94Q304 -81 299 -72T280 -54T243 -38T185
-22L110 -4Q95 -7 79 -14T48 -34T25 -63T16 -103Q16 -126 26 -141T54 -166T94 -180T143 -184ZM220 408Q197 408 177 392T142 347Q128 321 122 293T116 240Q116 209 128 191T171 173Q194 173 214 189T249 234Q263 260 269 288T275 341Q275 372 263 390T220 408ZM173
643Q181 597 206 583T267 568Q306 568 332 586T380 646L398 640Q395 616 386 593T360 551T319 522T261 510Q215 510 184 532T152 605Q152 620 155 637L173 643Z" />
<glyph unicode="&#x120;" glyph-name="Gdotaccent" horiz-adv-x="639" d="M452 180Q457 198 458 209T460 228Q460 246 450 255T426 269Q417 272 406 273T383 276L388 297H653L648 276Q631 275 621 273T602 269Q591 265 583 262T566 241Q558 223 551 206T536 154L500
9H486Q484 11 477 15T462 20Q443 20 413 8Q386 -3 353 -8T285 -14Q237 -14 195 2T120 50T69 131T50 243Q50 315 77 391T154 529T273 630T425 670Q494 670 536 649T598 605H602L634 647H656L599 414H577Q582 531 542 583T426 635Q375 635 342 616T279 566Q260 546
237 507T194 418T160 309T146 191Q146 149 156 118T183 67Q203 44 230 33T286 21Q323 21 353 29T401 52Q418 67 425 86T441 135L452 180V180ZM496 777Q496 754 481 739T442 724Q419 724 404 739T388 777Q388 800 403 815T442 830Q465 830 480 815T496 777Z" />
<glyph unicode="&#x121;" glyph-name="gdotaccent" horiz-adv-x="388" d="M143 -213Q54 -213 3 -181T-48 -92Q-48 -59 -13 -35T75 3V8Q49 19 33 35T16 81Q16 109 41 129T105 161Q80 174 65 197T50 255Q50 291 64 323T102 380T156 419T220 434Q251 434 275 424T314
393H318Q325 416 345 434T391 453Q415 453 431 441T448 408Q448 391 439 382T417 373Q403 373 396 379T382 396Q376 406 372 411T360 417Q349 417 343 402T337 372Q337 368 337 363T339 353Q340 347 341 341T342 326Q342 290 328 258T290 201T235 162T171 147Q163
147 156 148T140 150Q121 150 104 138T87 111Q87 99 93 93T111 82T141 74T185 64Q229 53 262 43T318 19T352 -15T364 -64Q364 -100 348 -127T302 -174T232 -203T143 -213ZM143 -184Q171 -184 200 -180T252 -165T289 -137T304 -94Q304 -81 299 -72T280 -54T243 -38T185
-22L110 -4Q95 -7 79 -14T48 -34T25 -63T16 -103Q16 -126 26 -141T54 -166T94 -180T143 -184ZM220 408Q197 408 177 392T142 347Q128 321 122 293T116 240Q116 209 128 191T171 173Q194 173 214 189T249 234Q263 260 269 288T275 341Q275 372 263 390T220 408ZM557
575Q557 550 540 539T506 527Q489 527 473 539T457 575Q457 598 473 611T506 625Q523 625 540 613T557 575Z" />
<glyph unicode="&#x122;" glyph-name="Gcommaaccent" horiz-adv-x="639" d="M452 180Q457 198 458 209T460 228Q460 246 450 255T426 269Q417 272 406 273T383 276L388 297H653L648 276Q631 275 621 273T602 269Q591 265 583 262T566 241Q558 223 551 206T536
154L500 9H486Q484 11 477 15T462 20Q443 20 413 8Q386 -3 353 -8T285 -14Q237 -14 195 2T120 50T69 131T50 243Q50 315 77 391T154 529T273 630T425 670Q494 670 536 649T598 605H602L634 647H656L599 414H577Q582 531 542 583T426 635Q375 635 342 616T279 566Q260
546 237 507T194 418T160 309T146 191Q146 149 156 118T183 67Q203 44 230 33T286 21Q323 21 353 29T401 52Q418 67 425 86T441 135L452 180V180ZM312 -95Q312 -123 300 -145T269 -183T224 -212T172 -233L164 -213Q177 -208 192 -202T221 -187T242 -170T251 -150Q251
-144 249 -142T239 -137Q205 -122 205 -90Q205 -67 220 -54T260 -40Q280 -40 296 -54T312 -95Z" />
<glyph unicode="&#x123;" glyph-name="gcommaaccent" horiz-adv-x="388" d="M143 -213Q54 -213 3 -181T-48 -92Q-48 -59 -13 -35T75 3V8Q49 19 33 35T16 81Q16 109 41 129T105 161Q80 174 65 197T50 255Q50 291 64 323T102 380T156 419T220 434Q251 434 275 424T314
393H318Q325 416 345 434T391 453Q415 453 431 441T448 408Q448 391 439 382T417 373Q403 373 396 379T382 396Q376 406 372 411T360 417Q349 417 343 402T337 372Q337 368 337 363T339 353Q340 347 341 341T342 326Q342 290 328 258T290 201T235 162T171 147Q163
147 156 148T140 150Q121 150 104 138T87 111Q87 99 93 93T111 82T141 74T185 64Q229 53 262 43T318 19T352 -15T364 -64Q364 -100 348 -127T302 -174T232 -203T143 -213ZM143 -184Q171 -184 200 -180T252 -165T289 -137T304 -94Q304 -81 299 -72T280 -54T243 -38T185
-22L110 -4Q95 -7 79 -14T48 -34T25 -63T16 -103Q16 -126 26 -141T54 -166T94 -180T143 -184ZM220 408Q197 408 177 392T142 347Q128 321 122 293T116 240Q116 209 128 191T171 173Q194 173 214 189T249 234Q263 260 269 288T275 341Q275 372 263 390T220 408ZM189
812Q189 840 200 861T231 897T276 924T329 944L337 924Q324 919 309 913T280 899T259 882T250 863Q250 857 252 855T262 850Q296 835 296 803Q296 780 281 767T241 753Q221 753 205 769T189 812Z" />
<glyph unicode="&#x124;" glyph-name="Hcircumflex" horiz-adv-x="743" d="M259 0H-33L-28 21Q-16 22 -3 24T18 28Q32 32 45 39T70 58Q83 72 89 90T103 143L194 522Q199 542 202 557T205 588Q205 606 196 615T172 629Q163 632 148 633T121 636L126 657H421L416
636Q404 635 394 633T375 629Q361 625 348 618T323 599Q310 585 304 567T290 514L251 352H558L599 522Q604 542 607 557T610 588Q610 606 601 615T577 629Q568 632 555 633T531 636L536 657H831L826 636Q814 635 801 633T780 629Q766 625 753 618T728 599Q715 585
709 567T695 514L604 135Q599 115 596 100T593 69Q593 51 602 42T626 28Q635 25 650 24T677 21L672 0H377L382 21Q394 22 404 24T423 28Q437 32 450 39T475 58Q488 72 494 90T508 143L550 317H243L199 135Q194 115 191 100T188 69Q188 51 197 42T221 28Q230 25
241 24T264 21L259 0ZM586 703L512 779L372 702L362 717L505 837H550Q557 819 562 807T572 783T585 754T603 712L586 703Z" />
<glyph unicode="&#x125;" glyph-name="hcircumflex" horiz-adv-x="471" d="M-8 0Q-1 22 6 45T24 99T48 168T79 262T122 388T177 555Q194 605 194 622Q194 633 193 639T185 651Q180 656 166 658T139 663L146 684H297Q303 684 303 679Q303 675 299 667T290 644Q286
634 283 626T277 608T269 586T260 558L168 297H173Q199 341 225 368T274 409T318 429T352 434Q384 434 399 417T415 370Q415 342 403 304T370 204Q362 181 354 157T339 112T328 76T324 53Q324 35 339 35Q351 35 365 43T394 64T423 95T448 130L466 117Q452 94 434
72T393 31T346 2T296 -10Q270 -10 254 6T238 47Q238 60 243 80T257 125T275 177T294 230Q311 278 324 316T337 371Q337 384 332 388T316 393Q302 393 283 384T241 350T192 282T138 170Q132 154 124 132T106 87T89 41T74 0H-8V0ZM466 703L392 779L252 702L242 717L385
837H430Q437 819 442 807T452 783T465 754T483 712L466 703Z" />
<glyph unicode="&#x126;" glyph-name="Hbar" horiz-adv-x="743" d="M583 457H276L251 352H558L583 457ZM826 636Q814 635 801 633T780 629Q766 625 753 618T728 599Q715 585 707 556T690 492H790L782 457H681L604 135Q599 115 596 100T593 69Q593 51 602 42T626
28Q635 25 650 24T677 21L672 0H377L382 21Q394 22 404 24T423 28Q437 32 450 39T475 58Q488 72 494 90T508 143L550 317H243L199 135Q194 115 191 100T188 69Q188 51 197 42T221 28Q230 25 241 24T264 21L259 0H-33L-28 21Q-16 22 -3 24T18 28Q32 32 45 39T70
58Q83 72 89 90T103 143L178 457H79L87 492H187Q195 522 200 547T205 588Q205 606 196 615T172 629Q163 632 148 633T121 636L126 657H421L416 636Q404 635 394 633T375 629Q361 625 348 618T323 599Q310 585 302 555T285 492H592Q599 519 604 545T610 588Q610
606 601 615T577 629Q568 632 555 633T531 636L536 657H831L826 636Z" />
<glyph unicode="&#x127;" glyph-name="hbar" horiz-adv-x="471" d="M-8 0Q-1 21 6 44T24 96T46 164T76 254T117 375T170 535H84L91 561H179Q187 584 190 598T194 622Q194 633 193 639T185 651Q180 656 166 658T139 663L146 684H297Q303 684 303 679Q303 675 299
667T290 644Q286 634 283 626T277 608T270 588T261 561H389L382 535H252L168 297H173Q199 341 225 368T274 409T318 429T352 434Q384 434 399 417T415 370Q415 342 403 304T370 204Q362 181 354 157T339 112T328 76T324 53Q324 35 339 35Q351 35 365 43T394 64T423
95T448 130L466 117Q452 94 434 72T393 31T346 2T296 -10Q270 -10 254 6T238 47Q238 60 243 80T257 125T275 177T294 230Q311 278 324 316T337 371Q337 384 332 388T316 393Q302 393 283 384T241 350T192 282T138 170Q132 154 124 132T106 87T89 41T74 0H-8V0Z"
/>
<glyph unicode="&#x128;" glyph-name="Itilde" horiz-adv-x="338" d="M199 135Q194 115 191 100T188 69Q188 51 197 42T221 28Q230 25 245 24T272 21L267 0H-33L-28 21Q-16 22 -3 24T18 28Q32 32 45 39T70 58Q83 72 89 90T103 143L194 522Q199 542 202 557T205
588Q205 606 196 615T172 629Q163 632 148 633T121 636L126 657H426L421 636Q409 635 396 633T375 629Q361 625 348 618T323 599Q310 585 304 567T290 514L199 135V135ZM692 815Q677 779 650 750T585 721Q571 721 555 726T521 737T488 747T458 752Q441 752 423
741T388 705L373 712Q393 754 425 781T491 808Q507 808 521 804T549 794T576 783T604 777Q628 777 644 788T676 823L692 815Z" />
<glyph unicode="&#x129;" glyph-name="itilde" horiz-adv-x="267" d="M257 118Q243 95 226 72T188 31T143 2T90 -10Q66 -10 51 6T36 47Q36 60 41 81T55 127T74 179T93 231Q110 281 121 314T133 362Q133 388 115 388Q103 388 82 373T26 306L7 317Q43 377 84 405T163
434Q189 434 202 418T215 373Q215 353 203 313T171 218Q160 189 151 161T135 110T123 72T119 53Q119 35 134 35Q146 35 160 43T187 64T214 95T239 131L257 118V118ZM607 620Q592 584 567 559T505 533Q491 533 475 537T441 548T408 558T378 562Q361 562 345 553T310
522L295 529Q315 571 346 594T411 618Q427 618 441 614T469 605T496 594T524 589Q548 589 562 598T591 628L607 620Z" />
<glyph unicode="&#x12a;" glyph-name="Imacron" horiz-adv-x="338" d="M199 135Q194 115 191 100T188 69Q188 51 197 42T221 28Q230 25 245 24T272 21L267 0H-33L-28 21Q-16 22 -3 24T18 28Q32 32 45 39T70 58Q83 72 89 90T103 143L194 522Q199 542 202 557T205
588Q205 606 196 615T172 629Q163 632 148 633T121 636L126 657H426L421 636Q409 635 396 633T375 629Q361 625 348 618T323 599Q310 585 304 567T290 514L199 135V135ZM402 726L412 767H662L652 726H402Z" />
<glyph unicode="&#x12b;" glyph-name="imacron" horiz-adv-x="267" d="M257 118Q243 95 226 72T188 31T143 2T90 -10Q66 -10 51 6T36 47Q36 60 41 81T55 127T74 179T93 231Q110 281 121 314T133 362Q133 388 115 388Q103 388 82 373T26 306L7 317Q43 377 84 405T163
434Q189 434 202 418T215 373Q215 353 203 313T171 218Q160 189 151 161T135 110T123 72T119 53Q119 35 134 35Q146 35 160 43T187 64T214 95T239 131L257 118V118ZM339 555L349 596H579L569 555H339Z" />
<glyph unicode="&#x12c;" glyph-name="Ibreve" horiz-adv-x="338" d="M199 135Q194 115 191 100T188 69Q188 51 197 42T221 28Q230 25 245 24T272 21L267 0H-33L-28 21Q-16 22 -3 24T18 28Q32 32 45 39T70 58Q83 72 89 90T103 143L194 522Q199 542 202 557T205
588Q205 606 196 615T172 629Q163 632 148 633T121 636L126 657H426L421 636Q409 635 396 633T375 629Q361 625 348 618T323 599Q310 585 304 567T290 514L199 135V135ZM435 837Q444 797 470 784T531 770Q570 770 598 781T649 835L667 829Q664 805 654 783T626
745T584 719T525 709Q479 709 447 729T414 799Q414 814 417 831L435 837Z" />
<glyph unicode="&#x12d;" glyph-name="ibreve" horiz-adv-x="267" d="M257 118Q243 95 226 72T188 31T143 2T90 -10Q66 -10 51 6T36 47Q36 60 41 81T55 127T74 179T93 231Q110 281 121 314T133 362Q133 388 115 388Q103 388 82 373T26 306L7 317Q43 377 84 405T163
434Q189 434 202 418T215 373Q215 353 203 313T171 218Q160 189 151 161T135 110T123 72T119 53Q119 35 134 35Q146 35 160 43T187 64T214 95T239 131L257 118V118ZM364 643Q372 597 397 583T458 568Q497 568 523 586T571 646L589 640Q586 616 577 593T551 551T510
522T452 510Q406 510 375 532T343 605Q343 620 346 637L364 643Z" />
<glyph unicode="&#x12e;" glyph-name="Iogonek" horiz-adv-x="338" d="M199 135Q194 115 191 100T188 69Q188 51 197 42T221 28Q230 25 245 24T272 21L267 0H154Q140 -12 126 -24T99 -51T80 -84T72 -126Q72 -155 89 -169T138 -189L136 -207Q103 -211 79 -206T40
-190T18 -163T11 -131Q11 -110 20 -93T44 -61T80 -32T124 0H-33L-28 21Q-16 22 -3 24T18 28Q32 32 45 39T70 58Q83 72 89 90T103 143L194 522Q199 542 202 557T205 588Q205 606 196 615T172 629Q163 632 148 633T121 636L126 657H426L421 636Q409 635 396 633T375
629Q361 625 348 618T323 599Q310 585 304 567T290 514L199 135Z" />
<glyph unicode="&#x12f;" glyph-name="iogonek" horiz-adv-x="267" d="M-16 -131Q-16 -110 -5 -93T23 -61T64 -33T111 -8Q106 -9 103 -9T94 -10Q70 -10 55 6T40 47Q40 60 45 81T59 127T78 179T97 231Q114 281 125 314T137 362Q137 388 119 388Q107 388 86 373T30
306L11 317Q47 377 88 405T167 434Q193 434 206 418T219 373Q219 353 207 313T175 218Q164 189 155 161T139 110T127 72T123 53Q123 35 138 35Q150 35 164 43T191 64T218 95T243 131L261 118Q244 88 219 59T165 11Q139 -6 117 -20T79 -51T54 -85T45 -125Q45 -154
62 -169T111 -189L109 -207Q76 -211 52 -206T13 -190T-9 -163T-16 -131ZM264 595Q264 570 247 559T213 547Q196 547 180 559T164 595Q164 618 180 631T213 645Q230 645 247 633T264 595Z" />
<glyph unicode="&#x130;" glyph-name="Idotaccent" horiz-adv-x="338" d="M199 135Q194 115 191 100T188 69Q188 51 197 42T221 28Q230 25 245 24T272 21L267 0H-33L-28 21Q-16 22 -3 24T18 28Q32 32 45 39T70 58Q83 72 89 90T103 143L194 522Q199 542 202 557T205
588Q205 606 196 615T172 629Q163 632 148 633T121 636L126 657H426L421 636Q409 635 396 633T375 629Q361 625 348 618T323 599Q310 585 304 567T290 514L199 135V135ZM590 777Q590 754 575 739T536 724Q513 724 498 739T482 777Q482 800 497 815T536 830Q559
830 574 815T590 777Z" />
<glyph unicode="&#x131;" glyph-name="dotlessi" horiz-adv-x="269" d="M257 118Q243 95 226 72T188 31T143 2T90 -10Q66 -10 51 6T36 47Q36 60 41 81T55 127T74 179T93 231Q110 281 121 314T133 362Q133 388 115 388Q103 388 82 373T26 306L7 317Q43 377 84 405T163
434Q189 434 202 418T215 373Q215 353 203 313T171 218Q160 189 151 161T135 110T123 72T119 53Q119 35 134 35Q146 35 160 43T187 64T214 95T239 131L257 118V118Z" />
<glyph unicode="&#x132;" glyph-name="IJ" horiz-adv-x="737" d="M421 636Q409 635 396 633T375 629Q361 625 348 618T323 599Q310 585 304 567T290 514L199 135Q194 115 191 100T188 69Q188 51 197 42T221 28Q230 25 245 24T272 21L267 0H-33L-28 21Q-16 22 -3
24T18 28Q32 32 45 39T70 58Q83 72 89 90T103 143L194 522Q199 542 202 557T205 588Q205 606 196 615T172 629Q163 632 148 633T121 636L126 657H426L421 636ZM819 636Q807 635 794 633T773 629Q759 625 746 618T721 599Q708 585 702 567T688 514L600 147Q591 112
575 83T534 32T476 -2T400 -14Q368 -14 344 -4T304 22T280 58T272 98Q272 131 290 154T339 178Q370 178 383 161T397 123Q397 108 392 96T381 77Q371 66 366 59T360 44Q360 33 373 27T401 21Q421 21 435 28T459 46Q470 59 480 79T501 143L592 522Q597 542 600 557T603
588Q603 606 594 615T570 629Q561 632 547 633T522 636L527 657H824L819 636Z" />
<glyph unicode="&#x133;" glyph-name="ij" horiz-adv-x="476" d="M260 595Q260 570 243 559T209 547Q192 547 176 559T160 595Q160 618 176 631T209 645Q226 645 243 633T260 595ZM133 362Q133 388 115 388Q103 388 82 373T26 306L7 317Q43 377 84 405T163 434Q189
434 202 418T215 373Q215 353 203 313T171 218Q160 189 151 161T135 110T123 72T119 53Q119 35 134 35Q146 35 160 43T187 64T214 95T239 131L257 118Q243 95 226 72T188 31T143 2T90 -10Q66 -10 51 6T36 47Q36 60 41 81T55 127T74 179T93 231Q110 281 121 314T133
362ZM504 595Q504 570 487 559T453 547Q436 547 420 559T404 595Q404 618 420 631T453 645Q470 645 487 633T504 595ZM410 200Q384 123 363 65T323 -36T289 -107T259 -152Q231 -184 204 -198T141 -213Q94 -213 69 -192T44 -135Q44 -115 56 -102T83 -88Q104 -88
115 -100T126 -127Q126 -140 123 -150Q121 -155 120 -159T119 -167Q119 -185 143 -185Q163 -185 177 -178T205 -147Q211 -137 222 -110T246 -45T273 34T299 114T322 184T337 231Q354 281 365 314T377 362Q377 388 359 388Q347 388 326 373T270 306L251 317Q287
377 328 405T407 434Q433 434 446 418T459 373Q459 363 455 345T444 304T428 254T410 200Z" />
<glyph unicode="&#x134;" glyph-name="Jcircumflex" horiz-adv-x="457" d="M313 522Q318 542 321 557T324 588Q324 606 315 615T291 629Q282 632 268 633T243 636L248 657H545L540 636Q528 635 515 633T494 629Q480 625 467 618T442 599Q429 585 423 567T409 514L317
131Q310 103 294 77T251 31T190 -2T110 -14Q46 -14 4 18T-38 108Q-38 141 -20 164T29 188Q60 188 73 171T87 133Q87 118 82 108T71 91Q61 80 56 73T50 57Q50 43 67 32T111 21Q135 21 152 27T183 50Q200 70 207 92T222 143L313 522ZM514 703L440 779L300 702L290
717L433 837H478Q485 819 490 807T500 783T513 754T531 712L514 703Z" />
<glyph unicode="&#x135;" glyph-name="jcircumflex" horiz-adv-x="232" d="M215 373Q215 363 211 345T200 304T184 254T166 200Q140 123 119 65T79 -36T45 -107T15 -152Q-13 -184 -40 -198T-103 -213Q-150 -213 -175 -192T-200 -135Q-200 -115 -188 -102T-161
-88Q-140 -88 -129 -100T-118 -127Q-118 -140 -121 -150Q-123 -155 -124 -159T-125 -167Q-125 -185 -101 -185Q-81 -185 -67 -178T-39 -147Q-33 -137 -22 -110T2 -45T29 34T55 114T78 184T93 231Q110 281 121 314T133 362Q133 388 115 388Q103 388 82 373T26 306L7
317Q43 377 84 405T163 434Q189 434 202 418T215 373ZM543 747L468 843L339 747L327 760Q355 789 374 810T409 847T436 876T461 904H506Q513 886 518 872T529 841T542 805T560 756L543 747Z" />
<glyph unicode="&#x136;" glyph-name="Kcommaaccent" horiz-adv-x="670" d="M525 172Q528 126 531 100T540 60T554 43T576 39Q588 39 598 47T616 66T629 90T638 113L660 105Q653 84 643 63T616 25T579 -2T530 -13Q480 -13 454 21T425 134Q425 159 425 178T424
212T424 239T422 265Q419 310 397 325T345 340Q321 340 291 326T237 294L199 135Q194 115 191 100T188 69Q188 51 197 42T221 28Q230 25 245 24T271 21L266 0H-33L-28 21Q-16 22 -3 24T18 28Q32 32 45 39T70 58Q83 72 89 90T103 143L194 522Q199 542 202 557T205
588Q205 606 196 615T172 629Q163 632 148 633T121 636L126 657H428L423 636Q411 635 397 633T375 629Q361 625 348 618T323 599Q310 585 304 567T290 514L249 343L463 510Q498 537 520 557T543 598Q543 614 535 620T515 630Q508 632 498 633T477 636L482 657H744L739
636Q723 634 701 628T658 610Q645 603 629 593T597 571T564 547T533 522L339 372L338 365Q348 369 356 370T380 372Q416 372 441 362T484 327T511 265T525 172ZM354 -95Q354 -123 342 -145T311 -183T266 -212T214 -233L206 -213Q219 -208 234 -202T263 -187T284
-170T293 -150Q293 -144 291 -142T281 -137Q247 -122 247 -90Q247 -67 262 -54T302 -40Q322 -40 338 -54T354 -95Z" />
<glyph unicode="&#x137;" glyph-name="kcommaaccent" horiz-adv-x="464" d="M298 -10Q272 -10 257 6T242 47Q242 70 247 92T258 133Q260 144 263 159T267 186Q267 216 250 227T195 239H156L76 0H-8L177 555Q185 581 189 597T194 622Q194 633 193 639T185 651Q180
656 166 658T139 663L146 684H297Q303 684 303 679Q303 675 299 667T290 644Q286 634 283 626T277 608T269 586T260 558L164 268H198Q216 268 232 274T261 291T283 313T298 336Q322 383 348 411Q361 424 372 429T400 434Q429 434 445 414T462 369Q462 343 452 330T423
316Q409 316 398 324T386 351Q386 353 387 359T390 372Q392 377 392 381T393 387Q393 396 382 396Q367 396 352 373T319 319Q305 295 287 280T246 257V253Q278 249 297 239T326 217T340 190T343 162Q343 149 341 134T334 100Q329 80 328 69T326 53Q326 35 341 35Q352
35 365 43T391 64T417 95T440 130L458 117Q445 94 428 72T389 31T345 2T298 -10ZM194 -85Q194 -113 182 -135T151 -173T106 -202T54 -223L46 -203Q59 -198 74 -192T103 -177T124 -160T133 -140Q133 -134 131 -132T121 -127Q87 -112 87 -80Q87 -57 102 -44T142 -30Q162
-30 178 -44T194 -85Z" />
<glyph unicode="&#x139;" glyph-name="Lacute" horiz-adv-x="580" d="M198 132Q195 118 193 105T190 80Q190 57 204 48Q215 40 229 38T266 35H321Q361 35 385 45T433 73Q472 101 498 140T542 209H564L501 0H-33L-28 21Q-16 22 -3 24T18 28Q32 32 45 39T70 58Q83
72 89 90T103 143L194 522Q199 542 202 557T205 588Q205 606 196 615T172 629Q163 632 148 633T122 636L127 657H428L423 636Q411 635 397 633T375 629Q361 625 348 618T323 599Q310 585 304 567T290 514L198 132ZM457 728L587 815Q610 830 621 836T647 842Q664
842 672 833T681 809Q681 790 667 779T626 758Q612 753 598 749T564 739T521 727T464 711L457 728Z" />
<glyph unicode="&#x13a;" glyph-name="lacute" horiz-adv-x="257" d="M149 218Q138 189 129 162T113 112T101 75T97 53Q97 35 114 35Q127 35 141 43T170 64T198 95T223 131L241 118Q227 95 210 72T171 31T125 2T72 -10Q46 -10 31 6T15 48Q15 64 20 87T34 138T53
194T73 251L177 555Q194 605 194 622Q194 633 193 639T185 651Q180 656 166 658T139 663L146 684H299Q305 684 305 679Q305 675 301 667T292 644Q288 634 285 626T279 608T271 586T262 558Q228 458 207 393T172 288Q157 242 149 218ZM428 728L558 815Q581 830 592
836T618 842Q635 842 643 833T652 809Q652 790 638 779T597 758Q583 753 569 749T535 739T492 727T435 711L428 728Z" />
<glyph unicode="&#x13b;" glyph-name="Lcommaaccent" horiz-adv-x="580" d="M198 132Q195 118 193 105T190 80Q190 57 204 48Q215 40 229 38T266 35H321Q361 35 385 45T433 73Q472 101 498 140T542 209H564L501 0H-33L-28 21Q-16 22 -3 24T18 28Q32 32 45 39T70
58Q83 72 89 90T103 143L194 522Q199 542 202 557T205 588Q205 606 196 615T172 629Q163 632 148 633T122 636L127 657H428L423 636Q411 635 397 633T375 629Q361 625 348 618T323 599Q310 585 304 567T290 514L198 132ZM304 -95Q304 -123 292 -145T261 -183T216
-212T164 -233L156 -213Q169 -208 184 -202T213 -187T234 -170T243 -150Q243 -144 241 -142T231 -137Q197 -122 197 -90Q197 -67 212 -54T252 -40Q272 -40 288 -54T304 -95Z" />
<glyph unicode="&#x13c;" glyph-name="lcommaaccent" horiz-adv-x="257" d="M149 218Q138 189 129 162T113 112T101 75T97 53Q97 35 114 35Q127 35 141 43T170 64T198 95T223 131L241 118Q227 95 210 72T171 31T125 2T72 -10Q46 -10 31 6T15 48Q15 64 20 87T34
138T53 194T73 251L177 555Q194 605 194 622Q194 633 193 639T185 651Q180 656 166 658T139 663L146 684H299Q305 684 305 679Q305 675 301 667T292 644Q288 634 285 626T279 608T271 586T262 558Q228 458 207 393T172 288Q157 242 149 218ZM382 -85Q382 -113 370
-135T339 -173T294 -202T242 -223L234 -203Q247 -198 262 -192T291 -177T312 -160T321 -140Q321 -134 319 -132T309 -127Q275 -112 275 -80Q275 -57 290 -44T330 -30Q350 -30 366 -44T382 -85Z" />
<glyph unicode="&#x13d;" glyph-name="Lcaron" horiz-adv-x="580" d="M198 132Q195 118 193 105T190 80Q190 57 204 48Q215 40 229 38T266 35H321Q361 35 385 45T433 73Q472 101 498 140T542 209H564L501 0H-33L-28 21Q-16 22 -3 24T18 28Q32 32 45 39T70 58Q83
72 89 90T103 143L194 522Q199 542 202 557T205 588Q205 606 196 615T172 629Q163 632 148 633T122 636L127 657H428L423 636Q411 635 397 633T375 629Q361 625 348 618T323 599Q310 585 304 567T290 514L198 132ZM472 668H536Q525 648 514 628T489 586T461 537T426
478H402L472 668Z" />
<glyph unicode="&#x13e;" glyph-name="lcaron" horiz-adv-x="257" d="M149 218Q138 189 129 162T113 112T101 75T97 53Q97 35 114 35Q127 35 141 43T170 64T198 95T223 131L241 118Q227 95 210 72T171 31T125 2T72 -10Q46 -10 31 6T15 48Q15 64 20 87T34 138T53
194T73 251L177 555Q194 605 194 622Q194 633 193 639T185 651Q180 656 166 658T139 663L146 684H299Q305 684 305 679Q305 675 301 667T292 644Q288 634 285 626T279 608T271 586T262 558Q228 458 207 393T172 288Q157 242 149 218ZM371 684H435Q424 664 413 644T388
602T360 553T325 494H301L371 684Z" />
<glyph unicode="&#x13f;" glyph-name="Ldot" horiz-adv-x="580" d="M525 347Q525 321 507 309T471 297Q454 297 437 310T419 347Q419 371 436 385T471 399Q489 399 507 386T525 347ZM198 132Q195 118 193 105T190 80Q190 57 204 48Q215 40 229 38T266 35H321Q361
35 385 45T433 73Q472 101 498 140T542 209H564L501 0H-33L-28 21Q-16 22 -3 24T18 28Q32 32 45 39T70 58Q83 72 89 90T103 143L194 522Q199 542 202 557T205 588Q205 606 196 615T172 629Q163 632 148 633T122 636L127 657H428L423 636Q411 635 397 633T375 629Q361
625 348 618T323 599Q310 585 304 567T290 514L198 132Z" />
<glyph unicode="&#x140;" glyph-name="ldot" horiz-adv-x="289" d="M149 218Q138 189 129 162T113 112T101 75T97 53Q97 35 114 35Q127 35 141 43T170 64T198 95T223 131L241 118Q227 95 210 72T171 31T125 2T72 -10Q46 -10 31 6T15 48Q15 64 20 87T34 138T53
194T73 251L177 555Q194 605 194 622Q194 633 193 639T185 651Q180 656 166 658T139 663L146 684H299Q305 684 305 679Q305 675 301 667T292 644Q288 634 285 626T279 608T271 586T262 558Q228 458 207 393T172 288Q157 242 149 218ZM334 318Q334 297 319 282T283
267Q262 267 247 282T232 318Q232 339 247 354T283 369Q304 369 319 354T334 318Z" />
<glyph unicode="&#x141;" glyph-name="Lslash" horiz-adv-x="580" d="M198 132Q195 118 193 105T190 80Q190 57 204 48Q215 40 229 38T266 35H321Q361 35 385 45T433 73Q472 101 498 140T542 209H564L501 0H-33L-28 21Q-16 22 -3 24T18 28Q32 32 45 39T70 58Q83
72 89 90T103 143L130 255L12 212L19 249L139 293L194 522Q199 542 202 557T205 588Q205 606 196 615T172 629Q163 632 148 633T122 636L127 657H428L423 636Q411 635 397 633T375 629Q361 625 348 618T323 599Q310 585 304 567T290 514L246 333L471 416L464 379L237
295L198 132Z" />
<glyph unicode="&#x142;" glyph-name="lslash" horiz-adv-x="257" d="M149 218Q138 189 129 162T113 112T101 75T97 53Q97 35 114 35Q127 35 141 43T170 64T198 95T223 131L241 118Q227 95 210 72T171 31T125 2T72 -10Q46 -10 31 6T15 48Q15 64 20 87T34 138T53
194T73 251L98 323L24 288L33 318L108 354L177 555Q194 605 194 622Q194 633 193 639T185 651Q180 656 166 658T139 663L146 684H299Q305 684 305 679Q305 675 301 667T292 644Q288 634 285 626T279 608T271 586T262 558Q231 466 210 403L314 454L306 424L200 373Q183
321 172 288Q157 242 149 218Z" />
<glyph unicode="&#x143;" glyph-name="Nacute" horiz-adv-x="678" d="M471 -8L251 518H244L151 156Q144 129 142 114T140 84Q140 58 153 45T184 27Q192 25 203 24T225 21L220 0H-26L-21 21Q2 22 17 28Q34 34 44 41T67 62Q77 73 87 92T111 158L201 498Q207 521
209 532T211 560Q211 586 198 601T161 627Q152 631 142 633T121 636L126 657H300L503 159H510L594 498Q602 527 604 543T606 573Q606 599 593 612T562 630Q554 632 543 633T521 636L526 657H766L761 636Q749 635 741 634T725 629Q708 623 698 616T675 595Q664 584
655 564T634 497L510 -8H471ZM344 728L474 815Q497 830 508 836T534 842Q551 842 559 833T568 809Q568 790 554 779T513 758Q499 753 485 749T451 739T408 727T351 711L344 728Z" />
<glyph unicode="&#x144;" glyph-name="nacute" horiz-adv-x="498" d="M493 117Q479 94 461 72T420 31T373 2T323 -10Q297 -10 281 6T265 47Q265 60 270 80T284 125T302 177T321 230Q338 278 351 316T365 371Q365 384 360 388T346 393Q333 393 312 379T266 333T212
253T157 136Q144 104 132 70T108 0H26Q36 33 49 72T75 149T99 219T116 269Q129 308 131 327T134 361Q134 388 114 388Q103 388 82 373T26 306L7 317Q43 377 82 405T158 434Q208 434 208 377Q208 365 207 355T204 333T199 308T192 276H198Q243 355 288 394T381 434Q413
434 428 417T443 370Q443 342 431 304T397 204Q389 181 381 157T366 112T355 76T351 53Q351 35 366 35Q378 35 392 43T421 64T450 95T475 130L493 117V117ZM448 625Q448 605 436 595T396 571Q369 558 337 544T251 505L241 520Q263 540 278 554T306 578T328 598T352
620Q375 642 388 649T415 657Q430 657 439 648T448 625Z" />
<glyph unicode="&#x145;" glyph-name="Ncommaaccent" horiz-adv-x="678" d="M471 -8L251 518H244L151 156Q144 129 142 114T140 84Q140 58 153 45T184 27Q192 25 203 24T225 21L220 0H-26L-21 21Q2 22 17 28Q34 34 44 41T67 62Q77 73 87 92T111 158L201 498Q207
521 209 532T211 560Q211 586 198 601T161 627Q152 631 142 633T121 636L126 657H300L503 159H510L594 498Q602 527 604 543T606 573Q606 599 593 612T562 630Q554 632 543 633T521 636L526 657H766L761 636Q749 635 741 634T725 629Q708 623 698 616T675 595Q664
584 655 564T634 497L510 -8H471ZM337 -95Q337 -123 325 -145T294 -183T249 -212T197 -233L189 -213Q202 -208 217 -202T246 -187T267 -170T276 -150Q276 -144 274 -142T264 -137Q230 -122 230 -90Q230 -67 245 -54T285 -40Q305 -40 321 -54T337 -95Z" />
<glyph unicode="&#x146;" glyph-name="ncommaaccent" horiz-adv-x="498" d="M493 117Q479 94 461 72T420 31T373 2T323 -10Q297 -10 281 6T265 47Q265 60 270 80T284 125T302 177T321 230Q338 278 351 316T365 371Q365 384 360 388T346 393Q333 393 312 379T266
333T212 253T157 136Q144 104 132 70T108 0H26Q36 33 49 72T75 149T99 219T116 269Q129 308 131 327T134 361Q134 388 114 388Q103 388 82 373T26 306L7 317Q43 377 82 405T158 434Q208 434 208 377Q208 365 207 355T204 333T199 308T192 276H198Q243 355 288 394T381
434Q413 434 428 417T443 370Q443 342 431 304T397 204Q389 181 381 157T366 112T355 76T351 53Q351 35 366 35Q378 35 392 43T421 64T450 95T475 130L493 117V117ZM259 -85Q259 -113 247 -135T216 -173T171 -202T119 -223L111 -203Q124 -198 139 -192T168 -177T189
-160T198 -140Q198 -134 196 -132T186 -127Q152 -112 152 -80Q152 -57 167 -44T207 -30Q227 -30 243 -44T259 -85Z" />
<glyph unicode="&#x147;" glyph-name="Ncaron" horiz-adv-x="678" d="M471 -8L251 518H244L151 156Q144 129 142 114T140 84Q140 58 153 45T184 27Q192 25 203 24T225 21L220 0H-26L-21 21Q2 22 17 28Q34 34 44 41T67 62Q77 73 87 92T111 158L201 498Q207 521
209 532T211 560Q211 586 198 601T161 627Q152 631 142 633T121 636L126 657H300L503 159H510L594 498Q602 527 604 543T606 573Q606 599 593 612T562 630Q554 632 543 633T521 636L526 657H766L761 636Q749 635 741 634T725 629Q708 623 698 616T675 595Q664 584
655 564T634 497L510 -8H471ZM370 846L444 770L584 847L594 832L451 712H406Q399 730 394 742T384 766T371 795T353 837L370 846Z" />
<glyph unicode="&#x148;" glyph-name="ncaron" horiz-adv-x="498" d="M493 117Q479 94 461 72T420 31T373 2T323 -10Q297 -10 281 6T265 47Q265 60 270 80T284 125T302 177T321 230Q338 278 351 316T365 371Q365 384 360 388T346 393Q333 393 312 379T266 333T212
253T157 136Q144 104 132 70T108 0H26Q36 33 49 72T75 149T99 219T116 269Q129 308 131 327T134 361Q134 388 114 388Q103 388 82 373T26 306L7 317Q43 377 82 405T158 434Q208 434 208 377Q208 365 207 355T204 333T199 308T192 276H198Q243 355 288 394T381 434Q413
434 428 417T443 370Q443 342 431 304T397 204Q389 181 381 157T366 112T355 76T351 53Q351 35 366 35Q378 35 392 43T421 64T450 95T475 130L493 117V117ZM245 661L320 565L449 661L461 648Q433 619 414 598T379 561T352 532T327 504H282Q275 522 270 536T259
567T246 603T228 652L245 661Z" />
<glyph unicode="&#x149;" glyph-name="napostrophe" horiz-adv-x="498" d="M198 621Q198 593 186 571T155 533T110 504T58 483L50 503Q63 508 78 514T107 529T128 546T137 566Q137 572 135 574T125 579Q91 594 91 626Q91 649 106 662T146 676Q166 676 182 662T198
621ZM493 117Q479 94 461 72T420 31T373 2T323 -10Q297 -10 281 6T265 47Q265 60 270 80T284 125T302 177T321 230Q338 278 351 316T365 371Q365 384 360 388T346 393Q333 393 312 379T266 333T212 253T157 136Q144 104 132 70T108 0H26Q36 33 49 72T75 149T99
219T116 269Q129 308 131 327T134 361Q134 388 114 388Q103 388 82 373T26 306L7 317Q43 377 82 405T158 434Q208 434 208 377Q208 365 207 355T204 333T199 308T192 276H198Q243 355 288 394T381 434Q413 434 428 417T443 370Q443 342 431 304T397 204Q389 181
381 157T366 112T355 76T351 53Q351 35 366 35Q378 35 392 43T421 64T450 95T475 130L493 117V117Z" />
<glyph unicode="&#x14a;" glyph-name="Eng" horiz-adv-x="668" d="M584 498Q592 527 594 543T596 573Q596 599 583 612T552 630Q544 632 533 633T511 636L516 657H756L751 636Q739 635 731 634T715 629Q698 623 688 616T665 595Q654 584 645 564T624 497L496 -26Q476
-107 431 -152T314 -198Q257 -198 222 -173T187 -96Q187 -63 204 -46T246 -28Q272 -28 286 -43T300 -80Q300 -95 296 -103T286 -118Q276 -129 272 -135T267 -147Q267 -156 282 -159T315 -163Q346 -163 369 -152T409 -121T437 -76T457 -22L461 -7L241 518H234L141
156Q134 129 132 114T130 84Q130 58 143 45T174 27Q182 25 193 24T215 21L210 0H-36L-31 21Q-8 22 7 28Q24 34 34 41T57 62Q67 73 77 92T101 158L191 498Q197 521 199 532T201 560Q201 586 188 601T151 627Q142 631 132 633T111 636L116 657H290L493 159H500L584
498Z" />
<glyph unicode="&#x14b;" glyph-name="eng" horiz-adv-x="463" d="M325 231Q342 281 353 317T365 371Q365 384 360 388T346 393Q333 393 312 379T266 333T212 253T157 136Q144 104 132 70T108 0H26Q36 33 49 72T75 149T99 219T116 269Q129 308 131 327T134 361Q134
388 114 388Q103 388 82 373T26 306L7 317Q43 377 82 405T158 434Q208 434 208 377Q208 365 207 355T204 333T199 308T192 276H198Q243 355 288 394T381 434Q413 434 428 417T443 370Q443 342 430 302T396 200Q370 123 349 65T309 -36T275 -107T245 -152Q217 -184
190 -198T127 -213Q80 -213 55 -192T30 -135Q30 -115 42 -102T69 -88Q90 -88 101 -100T112 -127Q112 -140 109 -150Q107 -155 106 -159T105 -167Q105 -185 129 -185Q149 -185 163 -178T191 -147Q198 -137 208 -110T232 -45T260 34T286 114T309 184T325 231Z" />
<glyph unicode="&#x14c;" glyph-name="Omacron" horiz-adv-x="658" d="M420 670Q465 670 507 654T581 606T633 526T653 413Q653 370 643 323T614 230T568 144T506 73Q458 31 402 9T283 -14Q238 -14 196 2T122 50T70 130T50 243Q50 286 60 333T90 425T136 512T197
583Q245 624 301 647T420 670ZM420 635Q395 635 374 629T336 612T306 591T282 570Q262 550 239 515T195 430T160 319T146 188Q146 144 157 112T188 60T231 31T283 21Q308 21 329 27T367 43T397 64T421 86Q440 105 464 141T508 226T543 337T557 468Q557 512 546
543T515 595T472 625T420 635ZM308 726L318 767H568L558 726H308Z" />
<glyph unicode="&#x14d;" glyph-name="omacron" horiz-adv-x="409" d="M153 -10Q93 -10 55 29T17 135Q17 199 38 259T101 363Q133 395 170 414T256 434Q285 434 310 424T353 395T381 349T392 289Q392 226 371 165T308 61Q276 29 239 10T153 -10ZM256 405Q227 405
208 392T171 356Q157 338 144 310T119 247T102 173T95 94Q95 59 108 39T153 19Q182 19 201 32T238 68Q252 86 265 114T290 177T307 251T314 330Q314 365 301 385T256 405ZM176 555L186 596H416L406 555H176Z" />
<glyph unicode="&#x14e;" glyph-name="Obreve" horiz-adv-x="658" d="M420 670Q465 670 507 654T581 606T633 526T653 413Q653 370 643 323T614 230T568 144T506 73Q458 31 402 9T283 -14Q238 -14 196 2T122 50T70 130T50 243Q50 286 60 333T90 425T136 512T197
583Q245 624 301 647T420 670ZM420 635Q395 635 374 629T336 612T306 591T282 570Q262 550 239 515T195 430T160 319T146 188Q146 144 157 112T188 60T231 31T283 21Q308 21 329 27T367 43T397 64T421 86Q440 105 464 141T508 226T543 337T557 468Q557 512 546
543T515 595T472 625T420 635ZM343 837Q352 797 378 784T439 770Q478 770 506 781T557 835L575 829Q572 805 562 783T534 745T492 719T433 709Q387 709 355 729T322 799Q322 814 325 831L343 837Z" />
<glyph unicode="&#x14f;" glyph-name="obreve" horiz-adv-x="409" d="M153 -10Q93 -10 55 29T17 135Q17 199 38 259T101 363Q133 395 170 414T256 434Q285 434 310 424T353 395T381 349T392 289Q392 226 371 165T308 61Q276 29 239 10T153 -10ZM256 405Q227 405
208 392T171 356Q157 338 144 310T119 247T102 173T95 94Q95 59 108 39T153 19Q182 19 201 32T238 68Q252 86 265 114T290 177T307 251T314 330Q314 365 301 385T256 405ZM196 643Q204 597 229 583T290 568Q329 568 355 586T403 646L421 640Q418 616 409 593T383
551T342 522T284 510Q238 510 207 532T175 605Q175 620 178 637L196 643Z" />
<glyph unicode="&#x150;" glyph-name="Ohungarumlaut" horiz-adv-x="658" d="M420 670Q465 670 507 654T581 606T633 526T653 413Q653 370 643 323T614 230T568 144T506 73Q458 31 402 9T283 -14Q238 -14 196 2T122 50T70 130T50 243Q50 286 60 333T90 425T136
512T197 583Q245 624 301 647T420 670ZM420 635Q395 635 374 629T336 612T306 591T282 570Q262 550 239 515T195 430T160 319T146 188Q146 144 157 112T188 60T231 31T283 21Q308 21 329 27T367 43T397 64T421 86Q440 105 464 141T508 226T543 337T557 468Q557
512 546 543T515 595T472 625T420 635ZM522 839Q522 819 509 806T474 779Q464 773 456 768T435 755T404 737T358 710H331Q350 732 362 747T384 773T401 795T420 819Q441 845 457 856T489 868Q506 868 514 860T522 839ZM670 839Q670 819 657 806T622 779Q612 773
604 768T583 755T552 737T506 710H479Q498 732 510 747T532 773T549 795T568 819Q589 845 605 856T637 868Q654 868 662 860T670 839Z" />
<glyph unicode="&#x151;" glyph-name="ohungarumlaut" horiz-adv-x="409" d="M153 -10Q93 -10 55 29T17 135Q17 199 38 259T101 363Q133 395 170 414T256 434Q285 434 310 424T353 395T381 349T392 289Q392 226 371 165T308 61Q276 29 239 10T153 -10ZM256 405Q227
405 208 392T171 356Q157 338 144 310T119 247T102 173T95 94Q95 59 108 39T153 19Q182 19 201 32T238 68Q252 86 265 114T290 177T307 251T314 330Q314 365 301 385T256 405ZM332 668Q344 668 352 661T360 639Q360 622 351 612T324 587Q303 570 273 547T189 483L175
495Q196 522 210 540T236 573T256 600T274 624Q291 647 303 657T332 668ZM494 668Q506 668 514 661T522 639Q522 622 513 612T486 587Q465 570 435 547T351 483L337 495Q358 522 372 540T398 573T418 600T436 624Q453 647 465 657T494 668Z" />
<glyph unicode="&#x152;" glyph-name="OE" horiz-adv-x="914" d="M917 456H895Q890 475 883 494T869 531T853 563T838 585Q826 599 808 610T748 622H695Q662 622 648 608Q639 600 634 586T623 552L576 358H609Q630 358 645 359T671 364T692 372T710 383Q734 400
746 419T766 462H786L727 216H707Q708 240 706 260T692 296Q683 308 666 315T603 322H568L522 132Q519 118 517 105T514 80Q514 52 534 44T590 35H655Q695 35 719 45T767 73Q806 101 832 140T876 209H898L835 0H438Q425 0 404 0T359 -2T311 -3T268 -4Q224 -4 185
11T115 56T68 133T50 244Q50 322 76 396T150 529T265 623T416 659Q436 659 462 659T514 658T564 658T602 657H899L917 456ZM477 348Q490 402 498 440T509 505T510 550T499 583Q487 606 467 615T414 625Q369 625 335 609T268 554Q236 516 214 466T177 363T155 263T148
179Q148 137 159 109T189 63T231 38T278 31Q307 31 332 41T375 73Q397 98 421 162T477 348Z" />
<glyph unicode="&#x153;" glyph-name="oe" horiz-adv-x="621" d="M614 365Q614 342 597 319T561 279Q546 267 525 254T479 227T427 203T375 183Q367 140 367 99Q367 26 423 26Q450 26 473 34T515 56T548 87T572 120L591 108Q578 83 559 62T516 24T465 -1T409 -10Q364
-10 339 13T303 73H297Q271 41 235 16T153 -10Q93 -10 59 29T22 135Q20 198 42 259T106 363Q138 395 173 414T256 434Q304 434 331 409T367 337H373Q408 379 450 406T527 434Q576 434 595 415T614 365ZM552 374Q552 405 527 405Q511 405 491 392T450 353T411 292T381
211Q410 224 436 238Q458 249 479 262T512 287Q532 307 542 330T552 374ZM309 330Q309 365 297 385T256 405Q229 405 211 392T176 356Q162 338 149 310T124 247T107 173T100 94Q100 59 112 39T153 19Q180 19 198 32T233 68Q247 86 260 114T285 177T302 251T309
330Z" />
<glyph unicode="&#x154;" glyph-name="Racute" horiz-adv-x="653" d="M513 -13Q463 -13 437 21T408 134Q407 185 406 220T386 281Q379 290 372 297T354 308T328 314T291 316H232L188 132Q183 114 181 101T178 71Q178 53 187 43T211 28Q220 25 235 24T262 21L257
0H-43L-38 21Q-26 22 -13 24T8 28Q22 32 35 39T60 58Q73 72 79 90T93 143L184 522Q189 542 192 557T195 588Q195 606 186 615T162 629Q153 632 137 633T110 636L115 657H410Q461 657 497 647T556 619T591 577T602 523Q602 467 566 425T473 358Q457 351 441 347T394
335V330Q414 325 426 320T453 302Q478 282 491 251T508 172Q511 126 514 100T523 60T537 43T559 39Q571 39 581 47T599 66T612 90T621 113L643 105Q636 84 626 63T599 25T562 -2T513 -13ZM324 622Q314 622 309 617Q304 612 300 596L241 352H307Q365 352 396 358T448
386Q471 409 485 444T500 526Q500 577 473 599T403 622H324ZM312 728L442 815Q465 830 476 836T502 842Q519 842 527 833T536 809Q536 790 522 779T481 758Q467 753 453 749T419 739T376 727T319 711L312 728Z" />
<glyph unicode="&#x155;" glyph-name="racute" horiz-adv-x="389" d="M188 267Q209 316 230 348T271 400T310 426T347 434Q372 434 391 418T411 370Q411 345 399 334T372 322Q356 322 344 331T326 366Q323 378 320 384T308 390Q299 390 284 376T250 331T206 252T157
136Q144 104 132 70T108 0H26Q36 33 49 72T75 149T99 219T116 269Q129 308 131 327T134 361Q134 388 114 388Q103 388 82 373T26 306L7 317Q43 377 81 405T155 434Q183 434 192 418T201 376Q201 353 195 324T181 267H188V267ZM415 625Q415 605 403 595T363 571Q336
558 304 544T218 505L208 520Q230 540 245 554T273 578T295 598T319 620Q342 642 355 649T382 657Q397 657 406 648T415 625Z" />
<glyph unicode="&#x156;" glyph-name="Rcommaaccent" horiz-adv-x="653" d="M513 -13Q463 -13 437 21T408 134Q407 185 406 220T386 281Q379 290 372 297T354 308T328 314T291 316H232L188 132Q183 114 181 101T178 71Q178 53 187 43T211 28Q220 25 235 24T262
21L257 0H-43L-38 21Q-26 22 -13 24T8 28Q22 32 35 39T60 58Q73 72 79 90T93 143L184 522Q189 542 192 557T195 588Q195 606 186 615T162 629Q153 632 137 633T110 636L115 657H410Q461 657 497 647T556 619T591 577T602 523Q602 467 566 425T473 358Q457 351 441
347T394 335V330Q414 325 426 320T453 302Q478 282 491 251T508 172Q511 126 514 100T523 60T537 43T559 39Q571 39 581 47T599 66T612 90T621 113L643 105Q636 84 626 63T599 25T562 -2T513 -13ZM324 622Q314 622 309 617Q304 612 300 596L241 352H307Q365 352
396 358T448 386Q471 409 485 444T500 526Q500 577 473 599T403 622H324ZM345 -95Q345 -123 333 -145T302 -183T257 -212T205 -233L197 -213Q210 -208 225 -202T254 -187T275 -170T284 -150Q284 -144 282 -142T272 -137Q238 -122 238 -90Q238 -67 253 -54T293 -40Q313
-40 329 -54T345 -95Z" />
<glyph unicode="&#x157;" glyph-name="rcommaaccent" horiz-adv-x="389" d="M188 267Q209 316 230 348T271 400T310 426T347 434Q372 434 391 418T411 370Q411 345 399 334T372 322Q356 322 344 331T326 366Q323 378 320 384T308 390Q299 390 284 376T250 331T206
252T157 136Q144 104 132 70T108 0H26Q36 33 49 72T75 149T99 219T116 269Q129 308 131 327T134 361Q134 388 114 388Q103 388 82 373T26 306L7 317Q43 377 81 405T155 434Q183 434 192 418T201 376Q201 353 195 324T181 267H188V267ZM368 -85Q368 -113 356 -135T325
-173T280 -202T228 -223L220 -203Q233 -198 248 -192T277 -177T298 -160T307 -140Q307 -134 305 -132T295 -127Q261 -112 261 -80Q261 -57 276 -44T316 -30Q336 -30 352 -44T368 -85Z" />
<glyph unicode="&#x158;" glyph-name="Rcaron" horiz-adv-x="653" d="M513 -13Q463 -13 437 21T408 134Q407 185 406 220T386 281Q379 290 372 297T354 308T328 314T291 316H232L188 132Q183 114 181 101T178 71Q178 53 187 43T211 28Q220 25 235 24T262 21L257
0H-43L-38 21Q-26 22 -13 24T8 28Q22 32 35 39T60 58Q73 72 79 90T93 143L184 522Q189 542 192 557T195 588Q195 606 186 615T162 629Q153 632 137 633T110 636L115 657H410Q461 657 497 647T556 619T591 577T602 523Q602 467 566 425T473 358Q457 351 441 347T394
335V330Q414 325 426 320T453 302Q478 282 491 251T508 172Q511 126 514 100T523 60T537 43T559 39Q571 39 581 47T599 66T612 90T621 113L643 105Q636 84 626 63T599 25T562 -2T513 -13ZM324 622Q314 622 309 617Q304 612 300 596L241 352H307Q365 352 396 358T448
386Q471 409 485 444T500 526Q500 577 473 599T403 622H324ZM337 846L411 770L551 847L561 832L418 712H373Q366 730 361 742T351 766T338 795T320 837L337 846Z" />
<glyph unicode="&#x159;" glyph-name="rcaron" horiz-adv-x="389" d="M188 267Q209 316 230 348T271 400T310 426T347 434Q372 434 391 418T411 370Q411 345 399 334T372 322Q356 322 344 331T326 366Q323 378 320 384T308 390Q299 390 284 376T250 331T206 252T157
136Q144 104 132 70T108 0H26Q36 33 49 72T75 149T99 219T116 269Q129 308 131 327T134 361Q134 388 114 388Q103 388 82 373T26 306L7 317Q43 377 81 405T155 434Q183 434 192 418T201 376Q201 353 195 324T181 267H188V267ZM202 661L277 565L406 661L418 648Q390
619 371 598T336 561T309 532T284 504H239Q232 522 227 536T216 567T203 603T185 652L202 661Z" />
<glyph unicode="&#x15a;" glyph-name="Sacute" d="M498 444H475Q473 487 466 522T444 581Q431 602 406 618T336 635Q281 635 252 607T223 528Q223 506 229 490T247 460T276 430T315 395Q345 367 371 344T417 296T448 243T460 179Q460 131 442 95T392 35T322 -2T240
-14Q213 -14 188 -8T141 9T101 33T71 59H66L9 -1H-10L47 235H70Q74 181 89 141T126 75T178 35T240 21Q306 21 342 53T378 135Q378 164 369 186T344 226T305 264T258 306Q237 325 216 343T179 383T153 431T143 494Q143 526 155 558T191 615T252 655T336 671Q387
671 427 653T484 610H486L528 660H550L498 444ZM283 728L413 815Q436 830 447 836T473 842Q490 842 498 833T507 809Q507 790 493 779T452 758Q438 753 424 749T390 739T347 727T290 711L283 728Z" />
<glyph unicode="&#x15b;" glyph-name="sacute" horiz-adv-x="329" d="M337 350Q337 332 328 320T301 308Q287 308 278 316T269 339Q269 353 271 358T273 376Q273 387 262 397T230 408Q196 408 183 392T169 349Q169 337 171 327T178 305T191 279T211 246Q227 220
236 201T251 166T259 139T261 113Q261 82 248 59T213 21T166 -2T115 -10Q56 -10 27 18T-2 90Q-2 114 8 129T38 145Q54 145 63 136T72 109Q72 98 70 91T64 78T58 66T55 53Q55 32 74 24T114 16Q148 16 169 33T190 81Q190 94 188 104T179 127T164 156T141 197Q130
217 122 232T109 259T102 285T99 315Q99 340 109 361T138 399T179 424T230 434Q250 434 269 430T304 415T328 389T337 350ZM370 625Q370 605 358 595T318 571Q291 558 259 544T173 505L163 520Q185 540 200 554T228 578T250 598T274 620Q297 642 310 649T337 657Q352
657 361 648T370 625Z" />
<glyph unicode="&#x15c;" glyph-name="Scircumflex" d="M498 444H475Q473 487 466 522T444 581Q431 602 406 618T336 635Q281 635 252 607T223 528Q223 506 229 490T247 460T276 430T315 395Q345 367 371 344T417 296T448 243T460 179Q460 131 442 95T392 35T322
-2T240 -14Q213 -14 188 -8T141 9T101 33T71 59H66L9 -1H-10L47 235H70Q74 181 89 141T126 75T178 35T240 21Q306 21 342 53T378 135Q378 164 369 186T344 226T305 264T258 306Q237 325 216 343T179 383T153 431T143 494Q143 526 155 558T191 615T252 655T336 671Q387
671 427 653T484 610H486L528 660H550L498 444ZM484 703L410 779L270 702L260 717L403 837H448Q455 819 460 807T470 783T483 754T501 712L484 703Z" />
<glyph unicode="&#x15d;" glyph-name="scircumflex" horiz-adv-x="329" d="M337 350Q337 332 328 320T301 308Q287 308 278 316T269 339Q269 353 271 358T273 376Q273 387 262 397T230 408Q196 408 183 392T169 349Q169 337 171 327T178 305T191 279T211 246Q227
220 236 201T251 166T259 139T261 113Q261 82 248 59T213 21T166 -2T115 -10Q56 -10 27 18T-2 90Q-2 114 8 129T38 145Q54 145 63 136T72 109Q72 98 70 91T64 78T58 66T55 53Q55 32 74 24T114 16Q148 16 169 33T190 81Q190 94 188 104T179 127T164 156T141 197Q130
217 122 232T109 259T102 285T99 315Q99 340 109 361T138 399T179 424T230 434Q250 434 269 430T304 415T328 389T337 350ZM347 747L272 843L143 747L131 760Q159 789 178 810T213 847T240 876T265 904H310Q317 886 322 872T333 841T346 805T364 756L347 747Z"
/>
<glyph unicode="&#x15e;" glyph-name="Scedilla" d="M313 -113Q313 -154 279 -177T190 -201Q163 -201 139 -192T101 -171L117 -151Q129 -160 149 -167T193 -175Q224 -175 243 -162T263 -118Q263 -91 251 -83T220 -75Q200 -75 184 -89L162 -77L199 -10Q193 -9 188
-7Q163 -1 141 9T101 33T71 59H66L9 -1H-10L47 235H70Q74 181 89 141T126 75T178 35T240 21Q306 21 342 53T378 135Q378 164 369 186T344 226T305 264T258 306Q237 325 216 343T179 383T153 431T143 494Q143 526 155 558T191 615T252 655T336 671Q387 671 427 653T484
610H486L528 660H550L498 444H475Q473 487 466 522T444 581Q431 602 406 618T336 635Q281 635 252 607T223 528Q223 506 229 490T247 460T276 430T315 395Q345 367 371 344T417 296T448 243T460 179Q460 131 442 95T392 35T322 -2T240 -14H229L204 -61Q214 -55
226 -53T249 -50Q284 -50 298 -68T313 -113Z" />
<glyph unicode="&#x15f;" glyph-name="scedilla" horiz-adv-x="329" d="M189 -103Q189 -144 155 -167T66 -191Q39 -191 15 -182T-23 -161L-7 -141Q5 -150 25 -157T69 -165Q100 -165 119 -152T139 -108Q139 -81 127 -73T96 -65Q76 -65 60 -79L38 -67L72 -5Q44 1
27 18Q-2 47 -2 90Q-2 114 8 129T38 145Q54 145 63 136T72 109Q72 98 70 91T64 78T58 66T55 53Q55 32 74 24T114 16Q148 16 169 33T190 81Q190 94 188 104T179 127T164 156T141 197Q130 217 122 232T109 259T102 285T99 315Q99 340 109 361T138 399T179 424T230
434Q250 434 269 430T304 415T328 389T337 350Q337 332 328 320T301 308Q287 308 278 316T269 339Q269 353 271 358T273 376Q273 387 262 397T230 408Q196 408 183 392T169 349Q169 337 171 327T178 305T191 279T211 246Q227 220 236 201T251 166T259 139T261 113Q261
82 248 59T213 21T166 -2T115 -10Q108 -10 102 -9L80 -51Q90 -45 102 -43T125 -40Q160 -40 174 -58T189 -103Z" />
<glyph unicode="&#x160;" glyph-name="Scaron" d="M498 444H475Q473 487 466 522T444 581Q431 602 406 618T336 635Q281 635 252 607T223 528Q223 506 229 490T247 460T276 430T315 395Q345 367 371 344T417 296T448 243T460 179Q460 131 442 95T392 35T322 -2T240
-14Q213 -14 188 -8T141 9T101 33T71 59H66L9 -1H-10L47 235H70Q74 181 89 141T126 75T178 35T240 21Q306 21 342 53T378 135Q378 164 369 186T344 226T305 264T258 306Q237 325 216 343T179 383T153 431T143 494Q143 526 155 558T191 615T252 655T336 671Q387
671 427 653T484 610H486L528 660H550L498 444ZM308 846L382 770L522 847L532 832L389 712H344Q337 730 332 742T322 766T309 795T291 837L308 846Z" />
<glyph unicode="&#x161;" glyph-name="scaron" horiz-adv-x="329" d="M337 350Q337 332 328 320T301 308Q287 308 278 316T269 339Q269 353 271 358T273 376Q273 387 262 397T230 408Q196 408 183 392T169 349Q169 337 171 327T178 305T191 279T211 246Q227 220
236 201T251 166T259 139T261 113Q261 82 248 59T213 21T166 -2T115 -10Q56 -10 27 18T-2 90Q-2 114 8 129T38 145Q54 145 63 136T72 109Q72 98 70 91T64 78T58 66T55 53Q55 32 74 24T114 16Q148 16 169 33T190 81Q190 94 188 104T179 127T164 156T141 197Q130
217 122 232T109 259T102 285T99 315Q99 340 109 361T138 399T179 424T230 434Q250 434 269 430T304 415T328 389T337 350ZM176 661L251 565L380 661L392 648Q364 619 345 598T310 561T283 532T258 504H213Q206 522 201 536T190 567T177 603T159 652L176 661Z"
/>
<glyph unicode="&#x162;" glyph-name="Tcommaaccent" horiz-adv-x="618" d="M335 135Q330 115 327 100T324 69Q324 51 333 42T357 28Q366 25 380 24T405 21L400 0H103L108 21Q120 22 133 24T154 28Q168 32 181 39T206 58Q219 72 225 90T239 143L355 622H316Q282
622 249 616T194 593Q161 567 134 534T86 471H64L126 657H710L667 471H645Q644 506 639 536T609 592Q590 612 558 617T487 622H452L335 135V135ZM296 161Q296 133 284 111T253 73T208 44T156 23L148 43Q161 48 176 54T205 69T226 86T235 106Q235 112 233 114T223
119Q189 134 189 166Q189 189 204 202T244 216Q264 216 280 202T296 161Z" />
<glyph unicode="&#x163;" glyph-name="tcommaaccent" horiz-adv-x="279" d="M104 55Q104 35 119 35Q131 35 146 43T176 64T205 95T230 131L248 118Q234 95 216 72T176 31T129 2T75 -10Q51 -10 37 6T22 45Q22 58 27 79T39 126T55 178T72 231L122 389H54L63 424H133L180
573H260L213 424H322L313 389H202L147 215Q139 189 131 163T117 116T108 78T104 55ZM361 -85Q361 -113 349 -135T318 -173T273 -202T221 -223L213 -203Q226 -198 241 -192T270 -177T291 -160T300 -140Q300 -134 298 -132T288 -127Q254 -112 254 -80Q254 -57 269
-44T309 -30Q329 -30 345 -44T361 -85Z" />
<glyph unicode="&#x164;" glyph-name="Tcaron" horiz-adv-x="618" d="M335 135Q330 115 327 100T324 69Q324 51 333 42T357 28Q366 25 380 24T405 21L400 0H103L108 21Q120 22 133 24T154 28Q168 32 181 39T206 58Q219 72 225 90T239 143L355 622H316Q282 622
249 616T194 593Q161 567 134 534T86 471H64L126 657H710L667 471H645Q644 506 639 536T609 592Q590 612 558 617T487 622H452L335 135V135ZM369 846L443 770L583 847L593 832L450 712H405Q398 730 393 742T383 766T370 795T352 837L369 846Z" />
<glyph unicode="&#x165;" glyph-name="tcaron" horiz-adv-x="279" d="M104 55Q104 35 119 35Q131 35 146 43T176 64T205 95T230 131L248 118Q234 95 216 72T176 31T129 2T75 -10Q51 -10 37 6T22 45Q22 58 27 79T39 126T55 178T72 231L122 389H54L63 424H133L180
573H260L213 424H322L313 389H202L147 215Q139 189 131 163T117 116T108 78T104 55ZM357 915H421Q410 895 399 875T374 833T346 784T311 725H287L357 915Z" />
<glyph unicode="&#x166;" glyph-name="Tbar" horiz-adv-x="618" d="M667 471H645Q644 506 639 536T609 592Q590 612 558 617T487 622H452L393 379H533L525 344H385L335 135Q330 115 327 100T324 69Q324 51 333 42T357 28Q366 25 380 24T405 21L400 0H103L108 21Q120
22 133 24T154 28Q168 32 181 39T206 58Q219 72 225 90T239 143L287 344H149L157 379H296L355 622H316Q282 622 249 616T194 593Q161 567 134 534T86 471H64L126 657H710L667 471Z" />
<glyph unicode="&#x167;" glyph-name="tbar" horiz-adv-x="279" d="M83 268L122 389H54L63 424H133L180 573H260L213 424H322L313 389H202L163 268H279L272 242H155L147 215Q139 189 131 163T117 116T108 78T104 55Q104 35 119 35Q131 35 146 43T176 64T205 95T230
131L248 118Q234 95 216 72T176 31T129 2T75 -10Q51 -10 37 6T22 45Q22 58 27 79T39 126T55 178T72 231L75 242H10L17 268H83Z" />
<glyph unicode="&#x168;" glyph-name="Utilde" horiz-adv-x="695" d="M585 214Q569 150 546 107T492 36T419 -2T326 -14Q279 -14 239 -3T169 30T122 85T105 164Q105 181 108 208T120 271L180 522Q185 542 188 557T191 588Q191 606 182 615T158 629Q151 631 140
633T121 636L126 657H412L407 636Q395 635 382 633T361 629Q347 625 334 618T309 599Q296 585 290 567T276 514L211 244Q206 222 202 190T197 134Q197 81 229 50T327 18Q382 18 418 31T479 70T518 132T544 214L614 498Q622 527 624 543T626 573Q626 599 613 612T582
630Q574 632 563 633T541 636L546 657H783L778 636Q767 635 760 634T745 629Q728 623 718 616T695 595Q684 584 675 564T654 497L585 214V214ZM635 815Q620 779 593 750T528 721Q514 721 498 726T464 737T431 747T401 752Q384 752 366 741T331 705L316 712Q336
754 368 781T434 808Q450 808 464 804T492 794T519 783T547 777Q571 777 587 788T619 823L635 815Z" />
<glyph unicode="&#x169;" glyph-name="utilde" horiz-adv-x="491" d="M349 59Q349 34 365 34Q377 34 391 42T418 63T445 93T469 128L487 115Q473 92 457 70T423 30T382 1T335 -10Q306 -10 292 8T277 52Q277 76 280 94T291 139H284Q263 97 240 69T192 23T146 -2T104
-10Q78 -10 60 8T42 56Q42 84 54 121T88 220Q104 266 119 305T134 361Q134 388 114 388Q103 388 82 373T26 306L7 317Q43 377 82 405T158 434Q184 434 198 418T213 373Q213 360 209 341T198 300T183 252T166 201Q149 153 137 116T124 61Q124 48 130 41T146 34Q159
34 179 48T223 94T274 173T329 290Q342 322 354 355T379 424H458Q447 391 435 352T409 276T386 208T369 158Q356 119 353 96T349 59ZM457 620Q442 584 417 559T355 533Q341 533 325 537T291 548T258 558T228 562Q211 562 195 553T160 522L145 529Q165 571 196 594T261
618Q277 618 291 614T319 605T346 594T374 589Q398 589 412 598T441 628L457 620Z" />
<glyph unicode="&#x16a;" glyph-name="Umacron" horiz-adv-x="695" d="M585 214Q569 150 546 107T492 36T419 -2T326 -14Q279 -14 239 -3T169 30T122 85T105 164Q105 181 108 208T120 271L180 522Q185 542 188 557T191 588Q191 606 182 615T158 629Q151 631 140
633T121 636L126 657H412L407 636Q395 635 382 633T361 629Q347 625 334 618T309 599Q296 585 290 567T276 514L211 244Q206 222 202 190T197 134Q197 81 229 50T327 18Q382 18 418 31T479 70T518 132T544 214L614 498Q622 527 624 543T626 573Q626 599 613 612T582
630Q574 632 563 633T541 636L546 657H783L778 636Q767 635 760 634T745 629Q728 623 718 616T695 595Q684 584 675 564T654 497L585 214V214ZM345 726L355 767H605L595 726H345Z" />
<glyph unicode="&#x16b;" glyph-name="umacron" horiz-adv-x="491" d="M349 59Q349 34 365 34Q377 34 391 42T418 63T445 93T469 128L487 115Q473 92 457 70T423 30T382 1T335 -10Q306 -10 292 8T277 52Q277 76 280 94T291 139H284Q263 97 240 69T192 23T146 -2T104
-10Q78 -10 60 8T42 56Q42 84 54 121T88 220Q104 266 119 305T134 361Q134 388 114 388Q103 388 82 373T26 306L7 317Q43 377 82 405T158 434Q184 434 198 418T213 373Q213 360 209 341T198 300T183 252T166 201Q149 153 137 116T124 61Q124 48 130 41T146 34Q159
34 179 48T223 94T274 173T329 290Q342 322 354 355T379 424H458Q447 391 435 352T409 276T386 208T369 158Q356 119 353 96T349 59ZM189 555L199 596H429L419 555H189Z" />
<glyph unicode="&#x16c;" glyph-name="Ubreve" horiz-adv-x="695" d="M585 214Q569 150 546 107T492 36T419 -2T326 -14Q279 -14 239 -3T169 30T122 85T105 164Q105 181 108 208T120 271L180 522Q185 542 188 557T191 588Q191 606 182 615T158 629Q151 631 140
633T121 636L126 657H412L407 636Q395 635 382 633T361 629Q347 625 334 618T309 599Q296 585 290 567T276 514L211 244Q206 222 202 190T197 134Q197 81 229 50T327 18Q382 18 418 31T479 70T518 132T544 214L614 498Q622 527 624 543T626 573Q626 599 613 612T582
630Q574 632 563 633T541 636L546 657H783L778 636Q767 635 760 634T745 629Q728 623 718 616T695 595Q684 584 675 564T654 497L585 214V214ZM379 837Q388 797 414 784T475 770Q514 770 542 781T593 835L611 829Q608 805 598 783T570 745T528 719T469 709Q423
709 391 729T358 799Q358 814 361 831L379 837Z" />
<glyph unicode="&#x16d;" glyph-name="ubreve" horiz-adv-x="491" d="M349 59Q349 34 365 34Q377 34 391 42T418 63T445 93T469 128L487 115Q473 92 457 70T423 30T382 1T335 -10Q306 -10 292 8T277 52Q277 76 280 94T291 139H284Q263 97 240 69T192 23T146 -2T104
-10Q78 -10 60 8T42 56Q42 84 54 121T88 220Q104 266 119 305T134 361Q134 388 114 388Q103 388 82 373T26 306L7 317Q43 377 82 405T158 434Q184 434 198 418T213 373Q213 360 209 341T198 300T183 252T166 201Q149 153 137 116T124 61Q124 48 130 41T146 34Q159
34 179 48T223 94T274 173T329 290Q342 322 354 355T379 424H458Q447 391 435 352T409 276T386 208T369 158Q356 119 353 96T349 59ZM214 643Q222 597 247 583T308 568Q347 568 373 586T421 646L439 640Q436 616 427 593T401 551T360 522T302 510Q256 510 225 532T193
605Q193 620 196 637L214 643Z" />
<glyph unicode="&#x16e;" glyph-name="Uring" horiz-adv-x="695" d="M585 214Q569 150 546 107T492 36T419 -2T326 -14Q279 -14 239 -3T169 30T122 85T105 164Q105 181 108 208T120 271L180 522Q185 542 188 557T191 588Q191 606 182 615T158 629Q151 631 140
633T121 636L126 657H412L407 636Q395 635 382 633T361 629Q347 625 334 618T309 599Q296 585 290 567T276 514L211 244Q206 222 202 190T197 134Q197 81 229 50T327 18Q382 18 418 31T479 70T518 132T544 214L614 498Q622 527 624 543T626 573Q626 599 613 612T582
630Q574 632 563 633T541 636L546 657H783L778 636Q767 635 760 634T745 629Q728 623 718 616T695 595Q684 584 675 564T654 497L585 214V214ZM558 784Q558 744 533 723T478 702Q448 702 423 723T398 784Q398 824 423 845T478 866Q508 866 533 845T558 784ZM535
784Q535 814 518 830T478 847Q455 847 438 831T421 784Q421 754 438 738T478 721Q501 721 518 737T535 784Z" />
<glyph unicode="&#x16f;" glyph-name="uring" horiz-adv-x="491" d="M349 59Q349 34 365 34Q377 34 391 42T418 63T445 93T469 128L487 115Q473 92 457 70T423 30T382 1T335 -10Q306 -10 292 8T277 52Q277 76 280 94T291 139H284Q263 97 240 69T192 23T146 -2T104
-10Q78 -10 60 8T42 56Q42 84 54 121T88 220Q104 266 119 305T134 361Q134 388 114 388Q103 388 82 373T26 306L7 317Q43 377 82 405T158 434Q184 434 198 418T213 373Q213 360 209 341T198 300T183 252T166 201Q149 153 137 116T124 61Q124 48 130 41T146 34Q159
34 179 48T223 94T274 173T329 290Q342 322 354 355T379 424H458Q447 391 435 352T409 276T386 208T369 158Q356 119 353 96T349 59ZM374 824Q374 784 349 763T294 742Q264 742 239 763T214 824Q214 864 239 885T294 906Q324 906 349 885T374 824ZM351 824Q351
854 334 870T294 887Q271 887 254 871T237 824Q237 794 254 778T294 761Q317 761 334 777T351 824Z" />
<glyph unicode="&#x170;" glyph-name="Uhungarumlaut" horiz-adv-x="695" d="M585 214Q569 150 546 107T492 36T419 -2T326 -14Q279 -14 239 -3T169 30T122 85T105 164Q105 181 108 208T120 271L180 522Q185 542 188 557T191 588Q191 606 182 615T158 629Q151
631 140 633T121 636L126 657H412L407 636Q395 635 382 633T361 629Q347 625 334 618T309 599Q296 585 290 567T276 514L211 244Q206 222 202 190T197 134Q197 81 229 50T327 18Q382 18 418 31T479 70T518 132T544 214L614 498Q622 527 624 543T626 573Q626 599
613 612T582 630Q574 632 563 633T541 636L546 657H783L778 636Q767 635 760 634T745 629Q728 623 718 616T695 595Q684 584 675 564T654 497L585 214V214ZM558 839Q558 819 545 806T510 779Q500 773 492 768T471 755T440 737T394 710H367Q386 732 398 747T420
773T437 795T456 819Q477 845 493 856T525 868Q542 868 550 860T558 839ZM706 839Q706 819 693 806T658 779Q648 773 640 768T619 755T588 737T542 710H515Q534 732 546 747T568 773T585 795T604 819Q625 845 641 856T673 868Q690 868 698 860T706 839Z" />
<glyph unicode="&#x171;" glyph-name="uhungarumlaut" horiz-adv-x="491" d="M349 59Q349 34 365 34Q377 34 391 42T418 63T445 93T469 128L487 115Q473 92 457 70T423 30T382 1T335 -10Q306 -10 292 8T277 52Q277 76 280 94T291 139H284Q263 97 240 69T192 23T146
-2T104 -10Q78 -10 60 8T42 56Q42 84 54 121T88 220Q104 266 119 305T134 361Q134 388 114 388Q103 388 82 373T26 306L7 317Q43 377 82 405T158 434Q184 434 198 418T213 373Q213 360 209 341T198 300T183 252T166 201Q149 153 137 116T124 61Q124 48 130 41T146
34Q159 34 179 48T223 94T274 173T329 290Q342 322 354 355T379 424H458Q447 391 435 352T409 276T386 208T369 158Q356 119 353 96T349 59ZM345 668Q357 668 365 661T373 639Q373 622 364 612T337 587Q316 570 286 547T202 483L188 495Q209 522 223 540T249 573T269
600T287 624Q304 647 316 657T345 668ZM507 668Q519 668 527 661T535 639Q535 622 526 612T499 587Q478 570 448 547T364 483L350 495Q371 522 385 540T411 573T431 600T449 624Q466 647 478 657T507 668Z" />
<glyph unicode="&#x172;" glyph-name="Uogonek" horiz-adv-x="695" d="M211 244Q206 222 202 190T197 134Q197 81 229 50T327 18Q382 18 418 31T479 70T518 132T544 214L614 498Q622 527 624 543T626 573Q626 599 613 612T582 630Q574 632 563 633T541 636L546
657H783L778 636Q767 635 760 634T745 629Q728 623 718 616T695 595Q684 584 675 564T654 497L585 214Q562 119 523 69T424 -1Q401 -9 385 -13T351 -29Q325 -48 309 -71T293 -126Q293 -155 310 -169T359 -189L357 -207Q324 -211 300 -206T261 -190T239 -163T232
-131Q232 -92 262 -66T339 -14H326Q279 -14 239 -3T169 30T122 85T105 164Q105 181 108 208T120 271L180 522Q185 542 188 557T191 588Q191 606 182 615T158 629Q151 631 140 633T121 636L126 657H412L407 636Q395 635 382 633T361 629Q347 625 334 618T309 599Q296
585 290 567T276 514L211 244Z" />
<glyph unicode="&#x173;" glyph-name="uogonek" horiz-adv-x="491" d="M218 -131Q218 -111 228 -94T256 -63T296 -35T342 -10H335Q306 -10 292 8T277 52Q277 76 280 94T291 139H284Q263 97 240 69T192 23T146 -2T104 -10Q78 -10 60 8T42 56Q42 84 54 121T88 220Q104
266 119 305T134 361Q134 388 114 388Q103 388 82 373T26 306L7 317Q43 377 82 405T158 434Q184 434 198 418T213 373Q213 360 209 341T198 300T183 252T166 201Q149 153 137 116T124 61Q124 48 130 41T146 34Q159 34 179 48T223 94T274 173T329 290Q342 322 354
355T379 424H458Q447 391 435 352T409 276T385 207L369 158Q356 119 353 96T349 59Q349 34 365 34Q377 34 391 42T418 63T445 93T469 128L487 115Q470 85 448 57T399 11Q373 -6 351 -21T313 -51T288 -85T279 -125Q279 -154 296 -169T345 -189L343 -207Q310 -211
286 -206T247 -190T225 -163T218 -131Z" />
<glyph unicode="&#x174;" glyph-name="Wcircumflex" horiz-adv-x="934" d="M858 515Q871 536 879 552T888 583Q888 603 880 611T862 625Q849 631 838 632T810 636L815 657H1061L1056 636Q1046 634 1031 628T1001 614Q992 609 982 603T960 586T934 556T902 510L590
0H534V446H527L256 0H200V522Q202 565 196 590Q189 619 157 629Q149 631 136 633T111 636L116 657H409L404 636Q392 635 381 633T361 629Q347 625 334 620T311 600Q303 587 301 568T298 514V143H305L534 518V522Q536 565 530 590Q523 619 491 629Q483 631 472 633T450
636L455 657H748L743 636Q730 635 718 633T695 629Q681 625 668 620T645 600Q637 587 635 568T632 514V143H639L858 515ZM693 703L619 779L479 702L469 717L612 837H657Q664 819 669 807T679 783T692 754T710 712L693 703Z" />
<glyph unicode="&#x175;" glyph-name="wcircumflex" horiz-adv-x="680" d="M421 -10Q389 -10 359 4T311 53Q275 25 237 8T157 -10Q113 -10 87 15T61 86Q61 119 72 153T99 220T134 280T169 331Q158 336 145 343T110 364Q97 372 81 379T57 387Q48 387 48 378Q48
373 56 357Q61 346 62 340T64 329Q64 313 54 304T33 294Q3 294 3 329Q3 348 15 371T41 407Q56 421 73 427T106 434Q120 434 132 428T157 414Q176 403 186 398T203 393Q211 393 215 397T222 407Q229 423 234 428T247 434Q264 434 264 416Q264 408 256 401T239 388Q230
382 225 377T212 360Q200 340 187 313T164 254T148 192T141 132Q141 87 160 66T208 45Q230 45 253 52T301 76Q293 103 293 135Q293 181 301 220T321 293T347 352T375 395Q392 418 407 426T436 434Q459 434 473 414T487 361Q487 330 478 298T454 234T420 173T378
118Q384 95 393 81T413 59T436 49T460 46Q513 46 553 96Q579 130 596 179T613 283Q613 303 610 323T597 367Q590 383 589 388T587 401Q587 414 596 424T619 434Q639 434 651 414T663 357Q663 328 658 293T642 220T613 144T569 71Q543 36 504 13T421 -10ZM423 386Q395
386 380 347T365 244Q365 222 365 194T370 145Q383 161 397 184T424 234T444 287T452 335Q452 363 445 374T423 386ZM535 491L460 587L331 491L319 504Q347 533 366 554T401 591T428 620T453 648H498Q505 630 510 616T521 585T534 549T552 500L535 491Z" />
<glyph unicode="&#x176;" glyph-name="Ycircumflex" horiz-adv-x="626" d="M351 135Q346 115 343 100T340 69Q340 51 349 42T373 28Q382 25 397 24T423 21L418 0H121L126 21Q138 22 150 24T170 28Q184 32 197 39T222 58Q235 72 241 90T256 143L288 291L207 555Q199
580 190 595T169 618T143 630T111 636L116 657H379L375 636Q367 635 353 633T331 627Q320 622 312 615T304 587Q304 572 308 558T317 521L374 333H379L507 508Q530 540 540 558T550 597Q550 619 527 629Q520 632 512 633T496 636L501 657H724L719 636Q711 635 696
632T670 625Q659 621 649 615T624 597T592 561T545 501L384 283L351 135V135ZM571 703L497 779L357 702L347 717L490 837H535Q542 819 547 807T557 783T570 754T588 712L571 703Z" />
<glyph unicode="&#x177;" glyph-name="ycircumflex" horiz-adv-x="402" d="M84 374Q67 374 54 355T24 306L3 318Q14 341 27 362T56 399T88 424T123 434Q139 434 154 425T185 381Q193 365 202 335T218 261T231 165T239 48H244Q261 79 277 111T305 175T325 237T333
295Q333 315 327 330T315 364Q313 368 310 378T307 397Q307 413 318 423T346 434Q366 434 375 417T385 380Q385 297 358 218T290 68T199 -59T103 -154Q65 -186 34 -199T-30 -213Q-58 -213 -78 -201T-98 -162Q-98 -139 -85 -128T-54 -116Q-40 -116 -28 -124T-5 -142Q3
-150 9 -155T24 -160Q35 -160 51 -151T84 -130Q98 -120 121 -96T169 -43Q167 7 163 57T154 154T141 240T123 310Q103 374 84 374ZM333 747L258 843L129 747L117 760Q145 789 164 810T199 847T226 876T251 904H296Q303 886 308 872T319 841T332 805T350 756L333
747Z" />
<glyph unicode="&#x178;" glyph-name="Ydieresis" horiz-adv-x="626" d="M351 135Q346 115 343 100T340 69Q340 51 349 42T373 28Q382 25 397 24T423 21L418 0H121L126 21Q138 22 150 24T170 28Q184 32 197 39T222 58Q235 72 241 90T256 143L288 291L207 555Q199
580 190 595T169 618T143 630T111 636L116 657H379L375 636Q367 635 353 633T331 627Q320 622 312 615T304 587Q304 572 308 558T317 521L374 333H379L507 508Q530 540 540 558T550 597Q550 619 527 629Q520 632 512 633T496 636L501 657H724L719 636Q711 635 696
632T670 625Q659 621 649 615T624 597T592 561T545 501L384 283L351 135V135ZM363 823Q383 823 397 809T411 774Q411 753 397 739T363 724Q342 724 328 738T314 774Q314 794 328 808T363 823ZM572 823Q592 823 606 809T620 774Q620 753 606 739T572 724Q551 724
537 738T523 774Q523 794 537 808T572 823Z" />
<glyph unicode="&#x179;" glyph-name="Zacute" horiz-adv-x="545" d="M600 632L100 35H186Q220 35 245 36T291 40T329 51T367 70Q395 87 415 103T451 135T480 169T508 205H530L449 0H-28L-20 25L480 622H360Q334 622 315 620T279 614T247 603T215 585Q200 575
188 566T162 547T135 522T102 489H80L168 657H605L600 632ZM291 728L421 815Q444 830 455 836T481 842Q498 842 506 833T515 809Q515 790 501 779T460 758Q446 753 432 749T398 739T355 727T298 711L291 728Z" />
<glyph unicode="&#x17a;" glyph-name="zacute" horiz-adv-x="419" d="M419 407Q419 391 403 369T367 327L110 99L114 100Q120 102 132 102T155 100Q168 98 187 94T216 88Q239 83 258 79T296 74Q313 74 327 78T361 107Q368 115 374 126T388 152L409 142Q399 117
386 91T355 42T314 5T261 -10Q233 -10 212 2T171 35Q157 50 140 65T108 80Q93 80 80 64T61 25Q57 12 48 1T21 -10Q5 -10 -3 1T-12 24Q-12 38 -4 50T16 70Q28 78 41 84T67 94L312 313Q304 310 296 310Q286 310 272 313T243 322T214 334T188 348Q170 359 150 372T112
385Q90 385 78 372T65 334Q65 322 69 314T77 303Q82 316 93 323T115 331Q131 331 142 323T154 292Q154 277 142 265T111 253Q79 253 58 275T37 335Q37 353 44 370T64 402T98 425T143 434Q175 434 195 421T239 390Q249 382 260 373T283 356T304 343T319 338Q332
338 337 345T345 363T348 386T354 407Q360 420 370 427T390 434Q403 434 411 427T419 407ZM404 625Q404 605 392 595T352 571Q325 558 293 544T207 505L197 520Q219 540 234 554T262 578T284 598T308 620Q331 642 344 649T371 657Q386 657 395 648T404 625Z" />
<glyph unicode="&#x17b;" glyph-name="Zdotaccent" horiz-adv-x="545" d="M600 632L100 35H186Q220 35 245 36T291 40T329 51T367 70Q395 87 415 103T451 135T480 169T508 205H530L449 0H-28L-20 25L480 622H360Q334 622 315 620T279 614T247 603T215 585Q200
575 188 566T162 547T135 522T102 489H80L168 657H605L600 632ZM442 777Q442 754 427 739T388 724Q365 724 350 739T334 777Q334 800 349 815T388 830Q411 830 426 815T442 777Z" />
<glyph unicode="&#x17c;" glyph-name="zdotaccent" horiz-adv-x="419" d="M419 407Q419 391 403 369T367 327L110 99L114 100Q120 102 132 102T155 100Q168 98 187 94T216 88Q239 83 258 79T296 74Q313 74 327 78T361 107Q368 115 374 126T388 152L409 142Q399
117 386 91T355 42T314 5T261 -10Q233 -10 212 2T171 35Q157 50 140 65T108 80Q93 80 80 64T61 25Q57 12 48 1T21 -10Q5 -10 -3 1T-12 24Q-12 38 -4 50T16 70Q28 78 41 84T67 94L312 313Q304 310 296 310Q286 310 272 313T243 322T214 334T188 348Q170 359 150
372T112 385Q90 385 78 372T65 334Q65 322 69 314T77 303Q82 316 93 323T115 331Q131 331 142 323T154 292Q154 277 142 265T111 253Q79 253 58 275T37 335Q37 353 44 370T64 402T98 425T143 434Q175 434 195 421T239 390Q249 382 260 373T283 356T304 343T319
338Q332 338 337 345T345 363T348 386T354 407Q360 420 370 427T390 434Q403 434 411 427T419 407ZM333 575Q333 550 316 539T282 527Q265 527 249 539T233 575Q233 598 249 611T282 625Q299 625 316 613T333 575Z" />
<glyph unicode="&#x17d;" glyph-name="Zcaron" horiz-adv-x="545" d="M600 632L100 35H186Q220 35 245 36T291 40T329 51T367 70Q395 87 415 103T451 135T480 169T508 205H530L449 0H-28L-20 25L480 622H360Q334 622 315 620T279 614T247 603T215 585Q200 575
188 566T162 547T135 522T102 489H80L168 657H605L600 632ZM317 846L391 770L531 847L541 832L398 712H353Q346 730 341 742T331 766T318 795T300 837L317 846Z" />
<glyph unicode="&#x17e;" glyph-name="zcaron" horiz-adv-x="419" d="M419 407Q419 391 403 369T367 327L110 99L114 100Q120 102 132 102T155 100Q168 98 187 94T216 88Q239 83 258 79T296 74Q313 74 327 78T361 107Q368 115 374 126T388 152L409 142Q399 117
386 91T355 42T314 5T261 -10Q233 -10 212 2T171 35Q157 50 140 65T108 80Q93 80 80 64T61 25Q57 12 48 1T21 -10Q5 -10 -3 1T-12 24Q-12 38 -4 50T16 70Q28 78 41 84T67 94L312 313Q304 310 296 310Q286 310 272 313T243 322T214 334T188 348Q170 359 150 372T112
385Q90 385 78 372T65 334Q65 322 69 314T77 303Q82 316 93 323T115 331Q131 331 142 323T154 292Q154 277 142 265T111 253Q79 253 58 275T37 335Q37 353 44 370T64 402T98 425T143 434Q175 434 195 421T239 390Q249 382 260 373T283 356T304 343T319 338Q332
338 337 345T345 363T348 386T354 407Q360 420 370 427T390 434Q403 434 411 427T419 407ZM190 661L265 565L394 661L406 648Q378 619 359 598T324 561T297 532T272 504H227Q220 522 215 536T204 567T191 603T173 652L190 661Z" />
<glyph unicode="&#x192;" glyph-name="florin" horiz-adv-x="363" d="M447 597Q447 580 436 569T407 558Q369 558 369 596Q369 603 370 608T371 620Q371 638 353 638Q342 638 333 632T313 610Q306 599 299 584T283 546T266 494T246 424H345L338 394H238Q230 366
218 321T190 224T159 118T127 16Q93 -88 49 -135T-48 -182Q-103 -182 -131 -160T-160 -103Q-160 -78 -147 -68T-118 -58Q-100 -58 -90 -68T-78 -94Q-77 -105 -77 -112T-75 -131Q-73 -142 -65 -147T-48 -152Q-26 -152 -13 -141T13 -91Q57 49 90 166T152 394H64L71
424H160L169 456Q182 503 200 542T240 609T291 654T355 670Q447 670 447 597Z" />
<glyph unicode="&#x1fa;" glyph-name="Aringacute" horiz-adv-x="625" d="M545 784Q545 744 520 723T465 702Q435 702 410 723T385 784Q385 824 410 845T465 866Q495 866 520 845T545 784ZM522 784Q522 814 505 830T465 847Q442 847 425 831T408 784Q408 754 425
738T465 721Q488 721 505 737T522 784ZM399 908L529 995Q552 1010 563 1016T589 1022Q606 1022 614 1013T623 989Q623 970 609 959T568 938Q554 933 540 929T506 919T463 907T406 891L399 908ZM368 57Q376 70 378 89T381 143V244H195L129 142Q115 122 108 106T100
74Q100 54 108 46T126 32Q140 26 152 25T181 21L176 0H-73L-68 21Q-58 23 -44 29T-13 43Q-4 47 5 53T26 71T52 101T85 147L423 657H479V135Q479 115 479 98T483 67Q490 38 522 28Q530 26 544 24T568 21L563 0H270L275 21Q287 22 298 24T318 28Q332 32 345 37T368
57ZM217 279H381V520H374L217 279Z" />
<glyph unicode="&#x1fb;" glyph-name="aringacute" horiz-adv-x="464" d="M323 53Q323 35 338 35Q350 35 363 43T388 64T413 95T437 130L455 117Q441 94 425 72T390 31T348 2T300 -10Q274 -10 262 4T249 43Q249 59 250 70T254 94H248Q242 84 237 77T227 63T217
51T202 35Q182 15 159 3T108 -10Q92 -10 76 -4T47 16T26 52T17 107Q17 152 37 208T92 315T170 400T262 434Q295 434 312 417T334 371H336L362 424H431L365 222Q344 159 334 113T323 53ZM308 337Q308 405 262 405Q236 405 215 388T172 335Q137 279 117 215T97 89Q97
56 107 42T133 27Q152 27 169 40T199 67Q213 83 224 99T248 138Q261 162 272 190T291 245T303 296T308 337ZM397 588Q397 548 372 527T317 506Q287 506 262 527T237 588Q237 628 262 649T317 670Q347 670 372 649T397 588ZM374 588Q374 618 357 634T317 651Q294
651 277 635T260 588Q260 558 277 542T317 525Q340 525 357 541T374 588ZM262 728L392 815Q415 830 426 836T452 842Q469 842 477 833T486 809Q486 790 472 779T431 758Q417 753 403 749T369 739T326 727T269 711L262 728Z" />
<glyph unicode="&#x1fc;" glyph-name="AEacute" horiz-adv-x="852" d="M149 0H-106L-101 21Q-78 24 -61 32Q-43 41 -25 55T10 85T42 117T68 147L450 627Q439 630 418 632T386 636L390 657H837L855 456H833Q828 475 821 494T807 531T791 563T776 585Q764 599 746
610T686 622H643Q606 622 591 603Q580 588 571 552L524 358H547Q568 358 583 359T609 364T630 372T648 383Q672 400 684 419T704 462H724L665 216H645Q646 240 644 260T630 296Q621 308 604 315T541 322H516L470 132Q467 118 465 105T462 80Q462 57 476 48Q487
40 501 38T538 35H593Q633 35 657 45T705 73Q744 101 770 140T814 209H836L773 0H239L244 21Q256 22 269 24T290 28Q304 32 317 39T342 58Q355 72 361 90T375 143L399 244H192L114 142Q95 118 84 103T73 68Q73 52 80 45T99 32Q113 27 125 25T154 21L149 0ZM481
606L219 279H408L487 606H481ZM567 728L697 815Q720 830 731 836T757 842Q774 842 782 833T791 809Q791 790 777 779T736 758Q722 753 708 749T674 739T631 727T574 711L567 728Z" />
<glyph unicode="&#x1fd;" glyph-name="aeacute" horiz-adv-x="611" d="M604 365Q604 342 587 319T551 279Q536 267 515 254T469 227T417 203T365 183Q357 140 357 99Q357 26 417 26Q442 26 464 34T504 56T536 87T559 120L578 108Q565 83 546 62T504 24T454 -1T399
-10Q370 -10 348 0T310 29T286 72T277 124H273Q260 98 243 76T209 37Q189 17 165 4T108 -10Q92 -10 76 -4T47 16T26 52T17 107Q17 152 37 208T92 315T170 400T262 434Q295 434 310 417T330 371H334L360 424H411L394 371H398Q430 400 460 417T517 434Q566 434 585
415T604 365ZM305 335Q305 405 262 405Q236 405 215 388T172 335Q137 279 117 215T97 89Q97 56 107 42T133 27Q152 27 169 40T198 68Q211 84 223 99T248 138Q261 162 271 190T289 244T301 294T305 335ZM542 374Q542 405 517 405Q501 405 481 392T440 353T401 292T371
211Q406 227 443 246T502 287Q522 307 532 330T542 374ZM532 625Q532 605 520 595T480 571Q453 558 421 544T335 505L325 520Q347 540 362 554T390 578T412 598T436 620Q459 642 472 649T499 657Q514 657 523 648T532 625Z" />
<glyph unicode="&#x1fe;" glyph-name="Oslashacute" horiz-adv-x="658" d="M420 670Q467 670 513 651L550 718L573 705L536 639Q587 610 620 554T653 413Q653 370 643 323T613 231T567 144T506 73Q458 31 402 9T283 -14Q232 -14 186 6L150 -59L127 -47L163 18Q113
48 82 103T50 243Q50 286 60 333T90 425T136 512T197 583Q245 625 301 647T420 670ZM557 468Q557 513 545 545T513 597L206 44Q239 21 283 21Q308 21 329 27T367 43T397 64T421 86Q440 105 464 141T508 226T543 337T557 468ZM420 635Q395 635 374 629T336 612T306
591T282 570Q262 550 239 515T195 430T160 319T146 188Q146 143 157 112T187 61L493 614Q460 635 420 635ZM346 728L476 815Q499 830 510 836T536 842Q553 842 561 833T570 809Q570 790 556 779T515 758Q501 753 487 749T453 739T410 727T353 711L346 728Z" />
<glyph unicode="&#x1ff;" glyph-name="oslashacute" horiz-adv-x="409" d="M321 418Q353 401 371 368T392 289Q394 226 372 165T308 61Q276 29 239 10T153 -10Q128 -10 108 -3L77 -65L54 -54L85 7Q54 24 36 56T17 135Q15 198 37 259T101 363Q133 395 170 414T256
434Q278 434 298 428L328 487L351 476L321 418ZM314 330Q314 361 303 381L123 26Q134 19 153 19Q182 19 201 32T238 68Q252 86 265 114T290 177T307 251T314 330ZM95 94Q95 63 104 45L284 399Q272 405 256 405Q227 405 208 392T171 356Q157 338 144 310T119 247T102
173T95 94ZM398 625Q398 605 386 595T346 571Q319 558 287 544T201 505L191 520Q213 540 228 554T256 578T278 598T302 620Q325 642 338 649T365 657Q380 657 389 648T398 625Z" />
<glyph unicode="&#x218;" glyph-name="Scommaaccent" d="M498 444H475Q473 487 466 522T444 581Q431 602 406 618T336 635Q281 635 252 607T223 528Q223 506 229 490T247 460T276 430T315 395Q345 367 371 344T417 296T448 243T460 179Q460 131 442 95T392 35T322
-2T240 -14Q213 -14 188 -8T141 9T101 33T71 59H66L9 -1H-10L47 235H70Q74 181 89 141T126 75T178 35T240 21Q306 21 342 53T378 135Q378 164 369 186T344 226T305 264T258 306Q237 325 216 343T179 383T153 431T143 494Q143 526 155 558T191 615T252 655T336 671Q387
671 427 653T484 610H486L528 660H550L498 444ZM266 161Q266 133 254 111T223 73T178 44T126 23L118 43Q131 48 146 54T175 69T196 86T205 106Q205 112 203 114T193 119Q159 134 159 166Q159 189 174 202T214 216Q234 216 250 202T266 161Z" />
<glyph unicode="&#x219;" glyph-name="scommaaccent" horiz-adv-x="329" d="M337 350Q337 332 328 320T301 308Q287 308 278 316T269 339Q269 353 271 358T273 376Q273 387 262 397T230 408Q196 408 183 392T169 349Q169 337 171 327T178 305T191 279T211 246Q227
220 236 201T251 166T259 139T261 113Q261 82 248 59T213 21T166 -2T115 -10Q56 -10 27 18T-2 90Q-2 114 8 129T38 145Q54 145 63 136T72 109Q72 98 70 91T64 78T58 66T55 53Q55 32 74 24T114 16Q148 16 169 33T190 81Q190 94 188 104T179 127T164 156T141 197Q130
217 122 232T109 259T102 285T99 315Q99 340 109 361T138 399T179 424T230 434Q250 434 269 430T304 415T328 389T337 350ZM416 -85Q416 -113 404 -135T373 -173T328 -202T276 -223L268 -203Q281 -198 296 -192T325 -177T346 -160T355 -140Q355 -134 353 -132T343
-127Q309 -112 309 -80Q309 -57 324 -44T364 -30Q384 -30 400 -44T416 -85Z" />
<glyph unicode="&#x21a;" glyph-name="uni021A" horiz-adv-x="618" d="M335 135Q330 115 327 100T324 69Q324 51 333 42T357 28Q366 25 380 24T405 21L400 0H103L108 21Q120 22 133 24T154 28Q168 32 181 39T206 58Q219 72 225 90T239 143L355 622H316Q282 622
249 616T194 593Q161 567 134 534T86 471H64L126 657H710L667 471H645Q644 506 639 536T609 592Q590 612 558 617T487 622H452L335 135V135ZM296 161Q296 133 284 111T253 73T208 44T156 23L148 43Q161 48 176 54T205 69T226 86T235 106Q235 112 233 114T223 119Q189
134 189 166Q189 189 204 202T244 216Q264 216 280 202T296 161Z" />
<glyph unicode="&#x21b;" glyph-name="uni021B" horiz-adv-x="279" d="M104 55Q104 35 119 35Q131 35 146 43T176 64T205 95T230 131L248 118Q234 95 216 72T176 31T129 2T75 -10Q51 -10 37 6T22 45Q22 58 27 79T39 126T55 178T72 231L122 389H54L63 424H133L180
573H260L213 424H322L313 389H202L147 215Q139 189 131 163T117 116T108 78T104 55ZM361 -85Q361 -113 349 -135T318 -173T273 -202T221 -223L213 -203Q226 -198 241 -192T270 -177T291 -160T300 -140Q300 -134 298 -132T288 -127Q254 -112 254 -80Q254 -57 269
-44T309 -30Q329 -30 345 -44T361 -85Z" />
<glyph unicode="&#x237;" glyph-name="uni0237" horiz-adv-x="232" d="M215 373Q215 363 211 345T200 304T184 254T166 200Q140 123 119 65T79 -36T45 -107T15 -152Q-13 -184 -40 -198T-103 -213Q-150 -213 -175 -192T-200 -135Q-200 -115 -188 -102T-161 -88Q-140
-88 -129 -100T-118 -127Q-118 -140 -121 -150Q-123 -155 -124 -159T-125 -167Q-125 -185 -101 -185Q-81 -185 -67 -178T-39 -147Q-33 -137 -22 -110T2 -45T29 34T55 114T78 184T93 231Q110 281 121 314T133 362Q133 388 115 388Q103 388 82 373T26 306L7 317Q43
377 84 405T163 434Q189 434 202 418T215 373Z" />
<glyph unicode="&#x2c6;" glyph-name="circumflex" horiz-adv-x="400" d="M321 511L246 607L117 511L105 524Q133 553 152 574T187 611T214 640T239 668H284Q291 650 296 636T307 605T320 569T338 520L321 511Z" />
<glyph unicode="&#x2c7;" glyph-name="caron" horiz-adv-x="400" d="M142 661L217 565L346 661L358 648Q330 619 311 598T276 561T249 532T224 504H179Q172 522 167 536T156 567T143 603T125 652L142 661Z" />
<glyph unicode="&#x2d8;" glyph-name="breve" horiz-adv-x="400" d="M154 643Q162 597 187 583T248 568Q287 568 313 586T361 646L379 640Q376 616 367 593T341 551T300 522T242 510Q196 510 165 532T133 605Q133 620 136 637L154 643Z" />
<glyph unicode="&#x2d9;" glyph-name="dotaccent" horiz-adv-x="400" d="M313 575Q313 550 296 539T262 527Q245 527 229 539T213 575Q213 598 229 611T262 625Q279 625 296 613T313 575Z" />
<glyph unicode="&#x2da;" glyph-name="ring" horiz-adv-x="400" d="M310 588Q310 548 285 527T230 506Q200 506 175 527T150 588Q150 628 175 649T230 670Q260 670 285 649T310 588ZM287 588Q287 618 270 634T230 651Q207 651 190 635T173 588Q173 558 190 542T230
525Q253 525 270 541T287 588Z" />
<glyph unicode="&#x2db;" glyph-name="ogonek" horiz-adv-x="400" d="M210 -207Q177 -211 153 -206T114 -190T92 -163T85 -131Q85 -109 96 -90T126 -55T167 -26T213 0H243Q227 -12 210 -24T179 -52T155 -86T146 -129Q146 -155 163 -169T212 -189L210 -207V-207Z" />
<glyph unicode="&#x2dc;" glyph-name="tilde" horiz-adv-x="400" d="M427 620Q412 584 387 559T325 533Q311 533 295 537T261 548T228 558T198 562Q181 562 165 553T130 522L115 529Q135 571 166 594T231 618Q247 618 261 614T289 605T316 594T344 589Q368 589
382 598T411 628L427 620Z" />
<glyph unicode="&#x2dd;" glyph-name="hungarumlaut" horiz-adv-x="400" d="M293 668Q305 668 313 661T321 639Q321 622 312 612T285 587Q264 570 234 547T150 483L136 495Q157 522 171 540T197 573T217 600T235 624Q252 647 264 657T293 668ZM455 668Q467 668
475 661T483 639Q483 622 474 612T447 587Q426 570 396 547T312 483L298 495Q319 522 333 540T359 573T379 600T397 624Q414 647 426 657T455 668Z" />
</font>
</defs>
</svg>
