<?xml version="1.0" standalone="no"?> <!DOCTYPE svg PUBLIC "-//W3C//DTD SVG 1.0//EN" "http://www.w3.org/TR/2001/REC-SVG-20010904/DTD/svg10.dtd" > <svg xmlns="http://www.w3.org/2000/svg" width="100%" height="100%">
<defs >
<font id="The" horiz-adv-x="516" ><font-face
    font-family="The Met Serif Web"
    units-per-em="1000"
    panose-1="0 0 0 0 0 0 0 0 0 0"
    ascent="787"
    descent="-213"
    alphabetic="0" />
<missing-glyph horiz-adv-x="183" />
<glyph unicode=" " glyph-name="space" horiz-adv-x="156" />
<glyph unicode="!" glyph-name="exclam" horiz-adv-x="249" d="M184 47Q184 20 167 4T125 -13Q100 -13 83 4T65 47Q65 73 82 90T125 107Q150 107 167 91T184 47ZM125 670Q151 670 169 652T187 595Q187 559 181 519T166 416Q155 327 149 263T139 167H109Q106 198
101 262T83 416Q74 478 69 518T63 595Q63 633 80 651T125 670Z" />
<glyph unicode="&quot;" glyph-name="quotedbl" horiz-adv-x="325" d="M98 670Q118 670 129 658T141 620Q141 608 137 586T129 539Q124 513 120 485T110 434H86Q81 457 77 485T67 539Q62 564 59 586T55 620Q55 646 66 658T98 670ZM196 539Q192 564 189 586T185
620Q185 670 228 670Q248 670 259 658T270 620Q270 608 267 586T258 539Q253 513 249 485T239 434H216L196 539Z" />
<glyph unicode="#" glyph-name="numbersign" horiz-adv-x="567" d="M223 386H383L410 544H438L411 386H537V361H406L378 192H502V167H373L345 0H316L345 167H185L157 0H128L157 167H30V192H161L190 361H66V386H195L222 544H250L223 386ZM190 192H349L378 361H218L190
192Z" />
<glyph unicode="$" glyph-name="dollar" horiz-adv-x="437" d="M199 -100V-9Q161 -8 130 2T77 27T42 61T29 101Q29 127 43 141T78 156Q127 156 127 101Q127 93 124 83T121 66Q121 47 144 37T199 24V217Q198 217 198 218Q167 231 139 246T89 282T55 331T42 400Q42
430 55 455T89 500T139 530T200 545V634H236V545Q313 542 351 513T389 443Q389 419 376 406T343 392Q321 392 308 405T295 442Q295 450 297 457T300 471Q300 492 281 500T236 511V326Q274 308 304 292T357 255T390 210T402 148Q402 85 359 41T235 -9V-100H199ZM318
104Q318 124 313 138T298 163T272 183T235 201V25Q318 32 318 104ZM119 436Q119 398 140 380T200 343V511Q162 507 141 487T119 436Z" />
<glyph unicode="%" glyph-name="percent" horiz-adv-x="686" d="M122 395Q122 325 135 298T177 270Q205 270 218 297T232 395Q232 466 219 493T177 521Q149 521 136 494T122 395ZM177 546Q202 546 225 536T265 507T293 460T304 395Q304 359 294 331T266 283T225
254T177 244Q152 244 129 254T89 283T61 330T50 395Q50 431 60 459T88 507T129 536T177 546ZM530 542L184 -16L157 0L503 558L530 542ZM509 16Q537 16 550 43T563 141Q563 211 550 238T509 266Q480 266 467 239T454 141Q454 71 467 44T509 16ZM509 -10Q484 -10
461 0T420 29T392 76T381 141Q381 177 391 205T420 253T461 282T509 292Q534 292 557 282T597 253T625 206T636 141Q636 105 626 77T598 29T557 0T509 -10Z" />
<glyph unicode="&amp;" glyph-name="ampersand" horiz-adv-x="680" d="M526 -13Q494 -13 474 -2T436 33L414 59Q382 27 334 7T226 -13Q178 -13 141 0T79 37T40 91T27 158Q27 197 41 228T79 285T130 332T188 370Q178 385 167 402T145 438T129 480T122 526Q122 556
134 582T168 627T220 658T285 670Q357 670 391 640T425 560Q425 534 414 511T385 467T346 430T306 400L365 322Q374 310 386 293T412 256T440 215T467 175Q481 200 490 224T506 274Q515 305 515 345Q515 379 488 395Q480 400 471 402T450 405V427H654V405Q641 403
633 401T615 394Q602 386 595 378T579 358Q573 349 564 328T544 270Q536 244 523 213T491 146Q500 133 508 122T523 102Q540 78 558 64T596 49Q617 49 633 57T659 73L672 55Q666 45 653 33T620 11T577 -6T526 -13ZM276 253Q265 266 247 291T206 345Q168 311 152
277T136 195Q136 153 148 124T181 76T227 49T280 40Q318 40 346 52T396 86Q389 96 382 106T368 126Q344 161 319 196T276 253ZM215 564Q215 532 235 499T286 423Q300 435 313 448T335 477T351 513T357 559Q357 596 341 616T285 636Q255 636 235 617T215 564Z" />
<glyph unicode="&apos;" glyph-name="quotesingle" horiz-adv-x="191" d="M96 670Q116 670 127 658T138 620Q138 608 135 586T126 539Q121 513 117 485T107 434H84L64 539Q60 564 57 586T53 620Q53 670 96 670Z" />
<glyph unicode="(" glyph-name="parenleft" horiz-adv-x="277" d="M240 -102Q207 -65 178 -25T127 63T92 166T79 289Q79 356 92 411T126 513T177 601T240 679L267 664Q241 630 217 591T174 507T144 407T133 289Q133 224 144 170T173 71T216 -14T267 -87L240 -102V-102Z" />
<glyph unicode=")" glyph-name="parenright" horiz-adv-x="277" d="M11 -87Q37 -53 61 -14T103 70T133 170T144 289Q144 353 133 407T104 506T61 591T11 664L38 679Q71 642 100 602T150 514T185 411T198 289Q198 222 185 167T151 64T100 -24T38 -102L11 -87Z" />
<glyph unicode="*" glyph-name="asterisk" horiz-adv-x="411" d="M20 485Q20 498 28 506T48 514Q57 514 72 511T106 504T145 497T187 492Q163 511 141 525T102 552T75 574T64 595Q64 607 74 616T95 625Q107 625 117 614T138 585T163 546T197 503Q196 523 193 543T185
582T178 616T175 641Q175 654 183 662T205 670Q219 670 227 662T235 641Q235 632 232 617T225 583T217 544T212 502Q232 524 246 546T272 585T293 613T315 624Q326 624 336 615T346 595Q346 584 336 574T308 552T269 526T223 492Q244 493 264 496T303 504T336 511T360
514Q373 514 382 506T391 484Q391 472 382 464T361 456Q352 456 337 459T304 465T265 472T223 477Q245 457 267 443T306 417T335 396T346 374Q346 364 337 355T314 345Q303 345 294 355T272 383T246 421T212 466Q213 445 217 425T225 386T232 353T235 329Q235 316
227 308T204 300Q191 300 183 308T175 329Q175 348 184 386T197 466Q178 442 164 420T137 381T115 354T94 344Q83 344 74 353T65 374Q65 386 76 396T104 418T144 443T187 477Q166 476 146 473T106 466T73 459T49 456Q35 456 28 464T20 485Z" />
<glyph unicode="+" glyph-name="plus" horiz-adv-x="425" d="M226 251V97H200V251H45V277H200V432H226V277H380V251H226Z" />
<glyph unicode="," glyph-name="comma" horiz-adv-x="233" d="M175 39Q175 8 165 -19T136 -67T94 -105T41 -132L32 -112Q76 -92 97 -67T119 -22Q119 -5 104 -1Q82 6 66 18T50 58Q50 84 68 98T109 113Q138 113 156 94T175 39Z" />
<glyph unicode="-" glyph-name="hyphen" horiz-adv-x="331" d="M58 230V286H273V230H58Z" />
<glyph unicode="." glyph-name="period" horiz-adv-x="219" d="M53 43Q53 66 69 82T110 99Q134 99 150 83T166 43Q166 20 150 4T110 -13Q85 -13 69 3T53 43Z" />
<glyph unicode="/" glyph-name="slash" horiz-adv-x="383" d="M-3 -99L-28 -87L351 686L376 674L-3 -99Z" />
<glyph unicode="0" glyph-name="zero" horiz-adv-x="534" d="M268 24Q301 24 324 41T363 89T384 166T391 268Q391 324 385 369T363 446T325 495T268 512Q202 512 173 447T144 268Q144 212 151 167T173 90T211 41T268 24ZM34 268Q34 337 54 389T106 476T181 528T268
546Q312 546 354 529T428 476T480 389T500 268Q500 199 481 147T429 60T354 8T268 -10Q223 -10 181 7T107 60T54 147T34 268Z" />
<glyph unicode="1" glyph-name="one" horiz-adv-x="297" d="M28 0V22Q37 24 47 26T64 31Q76 36 82 43T93 64Q96 75 97 85T98 113V398Q98 412 98 425T95 451Q91 477 70 485Q61 489 48 490T19 492V514Q54 519 81 523T139 535Q155 538 171 542T191 547Q202 547 202
537Q202 531 202 514T201 477T201 437T200 409V113Q200 96 201 86T206 64Q213 41 234 31Q240 29 250 27T271 22V0H28Z" />
<glyph unicode="2" glyph-name="two" horiz-adv-x="486" d="M453 166Q450 153 444 133T432 89T419 43T408 0H31V29L111 89Q144 114 182 145T252 216T306 304T328 409Q328 466 305 488T239 510Q212 510 187 498T142 463T111 408T99 337Q99 303 113 289T148 274Q181
274 199 299T232 359L254 350Q238 299 205 265T118 230Q74 230 48 257T21 329Q21 374 41 413T95 482T174 529T268 546Q353 546 396 509T440 411Q440 370 426 336T390 273T343 223T294 182Q267 161 233 138T159 90V85H302Q323 85 337 87T361 93T378 103T394 117Q407
131 414 143T428 166H453V166Z" />
<glyph unicode="3" glyph-name="three" horiz-adv-x="464" d="M428 178Q428 141 412 107T364 47T287 6T183 -10Q144 -10 113 -1T59 23T24 59T12 103Q12 130 26 145T64 161Q79 161 89 155T104 139Q115 122 112 99Q112 91 109 82T106 64Q106 44 127 34T183 24Q255
24 289 62T323 180Q323 225 304 244T257 264Q245 264 232 261T204 248L168 225L153 249L221 293Q242 306 259 319T287 349T304 386T310 434Q310 476 289 495T233 514Q207 514 186 505T148 481T124 445T115 401Q115 375 126 361T159 347Q181 347 197 361T225 398L245
388Q230 356 201 332T127 307Q91 307 72 330T53 389Q53 422 68 450T111 500T173 533T249 546Q282 546 311 540T361 521T395 488T407 438Q407 388 371 356T276 299V296Q348 301 388 270T428 178Z" />
<glyph unicode="4" glyph-name="four" horiz-adv-x="493" d="M356 218Q386 218 399 223T424 240Q435 251 440 264T447 292H469V109H447Q445 125 440 137T424 161Q413 172 400 178T356 184H336V113Q336 96 337 86T342 64Q349 41 371 31Q376 29 386 27T407 22V0H164V22Q174
24 184 26T200 31Q212 36 218 43T229 64Q232 75 233 85T234 113V184H10V213L292 545H334Q337 545 337 541Q337 530 337 513T336 476V218H356ZM59 218H234V421H229L59 218Z" />
<glyph unicode="5" glyph-name="five" horiz-adv-x="454" d="M170 22Q239 22 274 68T309 191Q309 255 286 281T223 307Q185 307 155 286T111 226L76 233L144 536H187Q201 531 211 528T232 522T255 519T286 518Q307 518 326 524T361 541T386 564T401 588L424 583Q415
542 396 514T351 468T297 442T239 434Q219 434 200 436T157 441L126 299L129 298Q148 319 179 332T253 345Q328 345 372 309T417 192Q417 149 398 112T346 48T267 6T171 -10Q92 -10 52 21T12 98Q12 126 28 141T65 157Q97 157 107 132Q115 118 114 96Q113 88 112
78T110 60Q110 40 126 31T170 22Z" />
<glyph unicode="6" glyph-name="six" horiz-adv-x="472" d="M456 453Q456 425 444 409T406 393Q379 393 368 411Q356 425 356 445Q357 454 360 465T364 481Q364 500 351 508T305 516Q271 516 243 498T195 449T161 381T144 303H148Q165 325 195 338T265 351Q302
351 335 339T392 305T431 249T445 174Q445 134 430 100T388 41T324 2T242 -13Q191 -13 152 6T87 57T46 133T32 226Q32 304 58 364T124 466T212 529T305 550Q386 550 421 522T456 453ZM242 311Q224 311 206 305T174 283T150 239T141 168Q141 127 148 100T169 55T201
31T241 24Q287 24 313 55T339 168Q339 209 332 236T312 280T281 304T242 311Z" />
<glyph unicode="7" glyph-name="seven" horiz-adv-x="437" d="M425 510Q408 483 390 450T355 383T324 314T301 250Q291 217 286 191T279 143T275 101T272 58Q269 16 253 2T213 -13Q188 -13 173 2T158 46Q158 65 165 90T184 142T207 194T230 240Q260 298 290 345T352
443V445H139Q127 445 115 443T91 432Q77 423 71 411T60 384H33L74 570H93Q98 558 110 547T151 536H425V510V510Z" />
<glyph unicode="8" glyph-name="eight" horiz-adv-x="455" d="M402 425Q402 380 375 349T307 298Q329 289 350 277T388 249T415 210T426 158Q426 80 372 35T225 -10Q183 -10 147 -2T84 22T42 63T27 122Q27 144 37 163T63 199T99 227T142 248Q92 273 66 307T40
392Q40 426 54 454T94 503T154 535T228 546Q265 546 297 538T352 515T389 477T402 425ZM343 113Q343 137 333 152T303 180T253 203T181 232Q142 215 118 191T93 124Q93 94 104 75T135 44T177 29T225 24Q275 24 309 44T343 113ZM123 433Q123 409 132 393T159 363T204
339T269 313Q298 330 318 355T338 420Q338 472 307 492T228 512Q182 512 153 492T123 433Z" />
<glyph unicode="9" glyph-name="nine" horiz-adv-x="470" d="M17 87Q17 112 32 127T70 142Q104 142 114 114Q119 105 119 88Q118 77 118 69T117 51Q117 34 135 28T172 22Q215 22 243 40T289 89T314 157T328 235H324Q307 213 277 200T206 187Q166 187 133 199T75
233T37 289T23 364Q23 404 38 438T81 497T145 536T226 550Q276 550 315 531T382 480T423 404T438 311Q438 233 416 173T357 71T272 8T172 -13Q130 -13 101 -5T53 16T26 48T17 87ZM222 226Q240 226 258 232T292 254T317 298T327 370Q327 411 319 438T298 483T266
507T227 514Q181 514 155 480T129 370Q129 329 135 301T154 257T184 233T222 226Z" />
<glyph unicode=":" glyph-name="colon" horiz-adv-x="238" d="M174 42Q174 19 158 3T119 -13Q96 -13 80 3T63 42Q63 65 79 81T119 98Q142 98 158 82T174 42ZM174 382Q174 359 158 343T119 327Q96 327 80 343T63 382Q63 405 79 421T119 438Q142 438 158 422T174 382Z" />
<glyph unicode=";" glyph-name="semicolon" horiz-adv-x="238" d="M174 382Q174 359 158 343T119 327Q96 327 80 343T63 382Q63 405 79 421T119 438Q142 438 158 422T174 382ZM181 39Q181 8 171 -19T142 -67T100 -105T47 -132L38 -112Q81 -92 103 -67T125 -22Q125
-5 110 -1Q88 6 72 18T56 58Q56 84 74 98T115 113Q144 113 162 94T181 39Z" />
<glyph unicode="&lt;" glyph-name="less" horiz-adv-x="433" d="M55 249V278L378 439V410L81 264L378 117V89L55 249Z" />
<glyph unicode="=" glyph-name="equal" horiz-adv-x="418" d="M45 335V361H373V335H45ZM45 163V188H373V163H45Z" />
<glyph unicode="&gt;" glyph-name="greater" horiz-adv-x="433" d="M55 117L351 264L55 410V439L378 278V249L55 89V117Z" />
<glyph unicode="?" glyph-name="question" horiz-adv-x="453" d="M184 47Q184 20 167 4T125 -13Q100 -13 83 4T65 47Q65 73 82 90T125 107Q150 107 167 91T184 47ZM412 476Q412 426 393 391T346 334T286 302T228 291Q198 291 175 294T132 305H130V186H100V326L118
340Q142 332 157 328T196 324Q222 324 241 339T272 382T290 445T296 524Q296 578 271 609T203 640Q168 640 158 588Q153 562 140 546T99 529Q76 529 62 542T48 582Q48 598 59 614T89 642T137 662T199 670Q238 670 265 662T317 640Q357 617 384 579T412 476Z" />
<glyph unicode="@" glyph-name="at" horiz-adv-x="797" d="M524 -13Q492 -13 468 4T443 56Q443 65 443 77T448 103H442Q428 81 417 65T391 33Q368 10 343 -1T293 -13Q276 -13 260 -7T231 13T210 50T202 109Q202 154 220 204T271 296T347 367T438 395Q466 395 484
379T505 337H513Q520 352 524 363T536 388H613Q601 351 590 312T559 217Q538 154 529 112T519 55Q519 16 550 16Q583 16 615 35T673 88T715 167T731 263Q731 323 713 371T660 452T571 504T449 523Q379 523 315 496T201 421T123 306T93 158Q93 85 115 28T178 -70T278
-131T412 -153Q455 -153 496 -146T573 -128T639 -101T692 -71L705 -91Q682 -108 651 -123T581 -151T499 -170T407 -177Q324 -177 256 -155T139 -90T64 12T37 150Q37 241 72 315T166 440T297 520T448 548Q524 548 582 528T681 470T741 380T761 263Q761 206 742 156T691
68T616 9T524 -13ZM388 64Q404 84 413 100T436 140Q446 159 453 176T465 210Q483 265 483 307Q483 336 472 353T441 371Q418 371 397 353T354 300Q337 272 326 241T307 179T296 124T293 82Q293 52 302 39T326 25Q342 25 358 36T388 64Z" />
<glyph unicode="A" glyph-name="A" horiz-adv-x="653" d="M384 220H182L160 157Q152 136 148 118T143 82Q143 62 151 49T174 31Q183 27 195 25T221 22V0H0V22Q14 24 24 26T45 35Q65 46 80 73Q95 100 118 162L303 662H353L530 159Q539 133 549 112T569 77Q580 60
592 50T618 34Q636 26 653 22V0H348V22Q365 24 375 26T392 31Q408 36 418 44T428 75Q428 97 420 121T403 168L384 220ZM195 256H372L287 496H280L195 256Z" />
<glyph unicode="B" glyph-name="B" horiz-adv-x="635" d="M330 658Q373 658 415 652T489 628T542 583T562 509Q562 483 556 463T537 428T509 402T474 380Q459 372 444 367T401 357V354Q441 349 477 338T541 306T585 256T601 185Q601 141 583 107T535 49T465 13T381
0H27V22Q49 23 63 28Q80 33 91 42T110 68Q118 85 120 106T122 169V490Q122 532 120 552T110 590Q102 607 91 616T63 630Q49 634 27 636V658H330ZM236 331V145Q236 113 240 91T256 56Q267 45 285 41T327 36H350Q382 36 408 44T452 72Q469 90 475 116T482 185Q482
217 475 248T447 300Q430 318 399 324T330 331H236ZM236 369H327Q400 369 427 403Q443 423 449 452T455 509Q455 574 421 598T332 622H259Q251 622 247 622T240 617Q236 612 236 601V369Z" />
<glyph unicode="C" glyph-name="C" horiz-adv-x="650" d="M366 635Q343 635 321 630T278 612Q257 600 237 579T202 524T177 442T167 328Q167 266 175 223T196 149T227 100T265 68Q290 51 317 44T387 37Q453 37 508 70T595 172L622 155Q605 117 582 86T527 33T454
-2T359 -14Q287 -14 228 11T127 82T61 190T38 328Q38 403 65 466T138 574T243 645T365 670Q440 670 483 652T548 611H552L582 658H604V431H582Q568 479 549 514T511 570Q497 585 484 597T455 617T417 630T366 635Z" />
<glyph unicode="D" glyph-name="D" horiz-adv-x="712" d="M328 658Q388 658 433 647T510 619Q544 601 574 574T626 511T661 430T674 330Q674 221 630 150T516 40Q484 23 443 12T356 0H27V22Q49 23 63 28Q80 33 91 42T110 68Q118 85 120 106T122 169V489Q122 531
120 552T110 590Q102 607 91 616T63 630Q49 634 27 636V658H328ZM344 36Q376 36 410 47T471 85Q489 103 504 125T529 177T546 243T552 328Q552 425 528 485T467 579Q440 603 400 612T324 622H259Q251 622 247 622T240 617Q236 612 236 598V145Q236 113 239 91T255
56Q266 45 284 41T327 36H344Z" />
<glyph unicode="E" glyph-name="E" horiz-adv-x="615" d="M554 0H27V22Q49 23 63 28Q80 33 91 42T110 68Q118 85 120 106T122 169V489Q122 531 120 552T110 590Q102 607 91 616T63 630Q49 634 27 636V658H530L560 486H536Q518 521 500 543T456 587Q440 601 411
611T337 622H288Q276 622 265 620T246 608Q239 598 238 587T236 560V358H287Q322 358 342 364T376 384Q395 403 400 422T408 465H431V214H408Q405 238 399 258T374 298Q360 312 341 317T287 322H236V144Q236 112 239 90T255 56Q266 45 284 41T326 36H347Q396 36
425 50T477 82Q513 111 534 137T573 195H594L554 0Z" />
<glyph unicode="F" glyph-name="F" horiz-adv-x="580" d="M337 0H27V22Q49 23 63 28Q80 33 91 42T110 68Q118 85 120 106T122 169V489Q122 531 120 552T110 590Q102 607 91 616T63 630Q49 634 27 636V658H529L559 468H535Q516 505 495 533T447 583Q431 597 406
609T331 622H288Q276 622 265 620T246 608Q238 598 237 587T236 560V363H267Q302 363 321 369T355 389Q374 408 379 427T388 470H410V219H388Q385 243 379 263T353 303Q339 317 320 322T267 327H236V169Q236 127 238 106T249 68Q257 51 268 42T295 28Q303 26 314
25T337 22V0Z" />
<glyph unicode="G" glyph-name="G" horiz-adv-x="707" d="M493 178Q493 209 491 224T480 257Q472 273 462 280T435 292Q428 294 420 295T400 297V319H700V297Q689 296 681 295T664 292Q648 287 638 279T619 254Q611 237 609 205T606 131V36Q595 30 574 23T525
8Q498 1 454 -6T365 -14Q291 -14 231 11T127 81T61 190T38 328Q38 403 65 466T137 574T240 645T362 670Q401 670 431 665T484 651T522 632T547 611H551L581 656H603V427H581Q568 478 549 513T509 571Q496 586 483 597T453 617T414 630T361 635Q339 635 318 630T275
612Q257 601 238 580T203 525T177 443T167 328Q167 264 173 218T192 138T223 84T264 49Q288 35 312 29T366 22Q416 22 440 30T477 49Q484 57 488 72T493 129V178V178Z" />
<glyph unicode="H" glyph-name="H" horiz-adv-x="756" d="M328 0H27V22Q49 23 63 28Q80 33 91 42T110 68Q118 85 120 106T122 169V489Q122 531 120 552T110 590Q102 607 91 616T63 630Q49 634 27 636V658H328V636Q308 635 294 630Q278 624 268 616T249 590Q241
573 239 553T236 491V352H520V491Q520 532 518 552T507 590Q499 607 489 615T462 630Q448 635 428 636V658H729V636Q708 634 693 630Q677 625 666 616T647 590Q639 573 637 552T634 489V169Q634 127 636 106T647 68Q655 51 666 42T693 28Q708 23 729 22V0H428V22Q448
23 462 28Q479 34 489 42T507 68Q515 85 517 105T520 167V316H236V167Q236 126 238 106T249 68Q257 51 267 43T294 28Q308 23 328 22V0Z" />
<glyph unicode="I" glyph-name="I" horiz-adv-x="359" d="M236 169Q236 127 238 106T249 68Q257 51 268 42T295 28Q310 23 332 22V0H27V22Q49 23 63 28Q80 33 91 42T110 68Q118 85 120 106T122 169V489Q122 531 120 552T110 590Q102 607 91 616T63 630Q49 634
27 636V658H332V636Q310 635 295 630Q279 625 268 616T249 590Q241 573 239 552T236 489V169Z" />
<glyph unicode="J" glyph-name="J" horiz-adv-x="430" d="M211 489Q211 531 209 552T198 590Q190 607 179 616T151 630Q137 634 115 636V658H419V636Q396 634 383 630Q366 625 356 616T337 590Q329 573 327 552T324 489V206Q324 171 319 144T304 96T285 60T264
35Q215 -14 134 -14Q109 -14 82 -7T35 17Q23 28 14 45T4 83Q4 112 20 127T61 143Q80 143 90 136T107 114Q112 105 114 96T119 74Q120 64 120 56T123 43Q132 22 154 22Q169 22 181 27T201 50Q211 71 211 102T211 162V489V489Z" />
<glyph unicode="K" glyph-name="K" horiz-adv-x="672" d="M236 337L397 503Q427 535 445 554T463 594Q463 611 455 617T435 629Q427 632 418 633T397 636V658H641V636Q625 634 603 626T562 606Q551 599 540 592T517 574T490 549T457 516L337 393V386Q392 383 425
370T481 334Q508 306 527 261T553 163Q557 130 562 110T574 76T589 56T605 42Q616 34 634 29T664 22V0H481Q465 16 450 58T429 150Q424 203 417 237T398 292Q384 317 368 332T320 347Q305 347 291 339T264 319Q258 314 250 306T236 290V169Q236 127 238 106T249
68Q257 51 268 42T295 28Q303 26 312 25T333 22V0H27V22Q49 23 63 28Q80 33 91 42T110 68Q118 85 120 106T122 169V489Q122 531 120 552T110 590Q102 607 91 616T63 630Q49 634 27 636V658H333V636Q322 635 313 634T295 630Q279 625 268 616T249 590Q241 573 239
552T236 489V337Z" />
<glyph unicode="L" glyph-name="L" horiz-adv-x="601" d="M27 22Q49 23 63 28Q80 33 91 42T110 68Q118 85 120 106T122 169V489Q122 531 120 552T110 590Q102 607 91 616T63 630Q49 634 27 636V658H332V636Q310 635 295 630Q279 625 268 616T249 590Q241 573 239
552T236 490V144Q236 112 239 90T255 56Q266 45 284 41T326 36H340Q389 36 417 49T469 82Q505 112 523 142T559 210H580L546 0H27V22Z" />
<glyph unicode="M" glyph-name="M" horiz-adv-x="880" d="M853 636Q830 634 817 630Q800 625 789 616T770 590Q762 573 760 552T758 489V169Q758 127 760 106T770 68Q778 51 789 42T817 28Q830 23 853 22V0H545V22Q556 23 566 24T585 28Q601 33 612 42T631 68Q639
85 641 106T644 169V564H637L433 -4H388L179 563H172V151Q172 110 176 91T189 60Q198 47 207 41T230 30Q247 25 270 22V0H27V22Q49 24 65 28Q78 32 87 38T108 58Q118 71 123 90T129 151V489Q129 530 127 551T116 590Q108 607 97 616T70 630Q63 632 51 633T27 636V658H267L444
170H449L629 658H853V636Z" />
<glyph unicode="N" glyph-name="N" horiz-adv-x="720" d="M562 -7L176 541H171V151Q171 110 175 91T188 60Q197 47 206 41T229 30Q239 27 247 26T269 22V0H26V22Q48 24 63 28Q76 32 85 38T106 58Q116 71 121 90T127 151V442Q127 498 122 527T108 577Q92 611 51
629Q43 632 36 633T17 636V658H238L565 188H569V507Q569 549 564 568T548 601Q537 614 528 620T504 630Q496 632 486 633T464 636V658H710V636Q687 633 670 628Q657 624 648 618T629 598Q621 586 617 567T612 507V-7H562Z" />
<glyph unicode="O" glyph-name="O" horiz-adv-x="706" d="M353 670Q419 670 476 645T576 575T643 466T668 328Q668 253 644 190T577 82T477 11T353 -14Q287 -14 230 11T130 81T63 190T38 328Q38 403 62 466T129 574T229 645T353 670ZM353 21Q378 21 400 26T444
46Q463 59 480 79T511 133T531 214T539 328Q539 394 532 442T511 523T481 576T444 610Q423 624 401 629T353 635Q327 635 305 630T261 610Q242 597 225 577T195 523T175 442T167 328Q167 262 174 214T195 133T225 80T261 46Q282 32 304 27T353 21Z" />
<glyph unicode="P" glyph-name="P" horiz-adv-x="589" d="M334 0H28V22Q50 23 64 28Q81 33 91 42T110 68Q118 85 120 106T123 169V490Q123 511 123 526T121 552T117 573T110 590Q102 608 92 617T64 631Q57 633 48 634T27 636V658H340Q447 658 508 616T570 488Q570
434 546 396T487 337Q459 323 414 310T300 297H237V169Q237 127 239 106T250 68Q258 51 269 42T296 28Q311 24 334 22V0ZM237 334H300Q354 334 383 345T428 379Q442 399 447 427T453 485Q453 552 423 587T322 622H262Q245 622 241 616Q237 612 237 597V334Z" />
<glyph unicode="Q" glyph-name="Q" horiz-adv-x="706" d="M353 670Q419 670 476 645T576 575T643 466T668 328Q668 261 649 204T595 102T513 30T410 -9Q390 -14 366 -22T320 -38T278 -54T247 -68V-74Q275 -67 309 -67Q357 -67 396 -79T468 -111Q512 -138 547 -157T618
-176Q638 -176 652 -169T678 -150T696 -127T710 -105L733 -116Q724 -140 710 -169T678 -218Q664 -236 633 -254T557 -273Q512 -273 469 -249T386 -187Q366 -168 348 -151T310 -121T272 -101T230 -93Q211 -93 197 -104T182 -133Q182 -138 184 -144T188 -158Q191
-167 192 -178T191 -203Q188 -226 173 -235T141 -244Q121 -244 107 -230T93 -188Q93 -158 107 -135T141 -93T184 -62T221 -42Q234 -36 254 -27T302 -10Q245 -1 197 27T113 100T58 202T38 328Q38 403 62 466T129 574T229 645T353 670ZM353 21Q378 21 400 26T444
46Q463 59 480 79T511 133T531 214T539 328Q539 394 532 441T511 522T481 576T444 609Q423 623 401 628T353 634Q327 634 305 629T261 609Q242 597 225 576T195 522T175 442T167 328Q167 262 174 214T195 133T225 80T261 46Q282 32 304 27T353 21Z" />
<glyph unicode="R" glyph-name="R" horiz-adv-x="674" d="M259 622Q244 622 240 617Q236 612 236 598V351H312Q364 351 388 360T427 390Q440 410 446 434T453 491Q453 557 425 589T333 622H259ZM331 0H27V22Q49 23 64 28Q80 33 91 42T110 68Q114 77 116 85T120
105T121 131T122 166V492Q122 532 120 552T110 590Q102 607 91 616T64 630Q49 635 27 636V658H353Q402 658 443 648T513 617T559 565T576 494Q576 446 553 416T498 366Q484 358 462 350T404 334V328Q457 322 489 301Q512 287 531 262T560 186Q571 120 584 87T615
40Q636 24 674 21V0H497Q480 19 468 53T450 131Q446 159 443 181T435 222T424 254T407 282Q391 302 368 308T313 314H236V166Q236 146 236 132T238 106T242 86T249 68Q257 51 268 42T295 28Q310 23 331 22V0Z" />
<glyph unicode="S" glyph-name="S" horiz-adv-x="527" d="M270 -14Q216 -14 171 4T100 47H96L68 4H47L39 226H62Q76 183 97 146T144 81T203 38T270 22Q333 22 363 51T394 129Q394 160 384 182T355 221T306 253T239 284Q205 298 172 315T112 355T70 412T53 492Q53
532 68 564T111 620T174 657T251 670Q279 670 300 667T337 659T366 646T391 629H396L418 661H443L460 464H436Q422 502 403 535T363 588Q343 608 319 621T251 634Q232 634 214 628T182 610T159 581T150 543Q150 509 162 487T193 450T238 423T291 398Q330 379 366
361T431 320T476 265T493 185Q493 137 475 100T426 38T355 -1T270 -14Z" />
<glyph unicode="T" glyph-name="T" horiz-adv-x="632" d="M373 166Q373 146 373 132T375 106T379 86T386 68Q394 51 405 42T432 28Q447 23 467 22V0H165V22Q187 24 200 28Q216 33 227 42T247 68Q251 77 253 85T256 105T258 131T259 166V623H234Q201 623 170 615T108
581Q92 568 81 556T61 532T45 506T30 477H7L35 658H598L625 477H603Q587 508 572 531T524 581Q494 607 463 615T398 623H373V166V166Z" />
<glyph unicode="U" glyph-name="U" horiz-adv-x="714" d="M608 222Q608 172 601 137T573 69Q550 33 500 10T366 -13Q326 -13 288 -7T218 14T160 51T122 106Q116 119 113 137T107 174T103 212T102 247V492Q102 532 100 552T89 590Q81 607 70 616T43 630Q29 634
7 636V658H310V636Q288 634 275 630Q259 625 248 616T229 590Q221 573 219 553T216 493V211Q216 187 218 164T229 118Q238 92 253 75T288 47T333 32T383 27Q502 27 540 92Q554 116 559 146T565 216V507Q565 549 561 568T545 601Q534 614 524 620T501 630Q493 632
482 633T460 636V658H706V636Q683 633 666 628Q653 624 644 618T625 598Q617 586 613 567T608 507V222V222Z" />
<glyph unicode="V" glyph-name="V" horiz-adv-x="641" d="M360 152H367L486 501Q494 522 498 540T503 576Q503 596 495 609T472 627Q463 631 450 633T423 636V658H649V636Q635 634 624 632T601 623Q581 612 566 585Q551 558 528 496L349 -5H296L116 500Q99 550
78 582Q66 599 55 608T29 625Q21 628 11 631T-8 636V658H308V636Q274 633 259 628Q245 623 234 615T223 583Q223 561 231 537T247 490L360 152Z" />
<glyph unicode="W" glyph-name="W" horiz-adv-x="975" d="M346 165H353L471 531Q463 552 458 565T444 590Q432 607 422 615T399 628Q390 631 382 633T362 636V658H674V636Q657 634 645 633T625 629Q611 624 601 617T590 587Q590 565 597 540T613 491L711 165H718L821
501Q829 527 833 545T838 580Q838 600 830 611T807 627Q798 631 786 633T759 636V658H984V636Q970 634 958 632T936 623Q920 614 901 586Q887 563 863 496L698 -5H647L492 469L333 -5H282L119 493Q108 528 99 548T78 583Q66 600 56 609T31 625Q23 629 12 631T-8
636V658H306V636Q273 633 258 628Q244 623 234 615T224 587Q224 565 230 544T246 491L346 165Z" />
<glyph unicode="X" glyph-name="X" horiz-adv-x="625" d="M313 658V636Q277 633 256 626T234 597Q234 579 240 567T258 536L348 397L426 509Q441 532 452 550T463 586Q463 603 454 613T431 628Q424 631 413 632T388 636V658H628V636Q620 635 609 631T588 622Q576
616 564 609T540 590Q529 579 514 561T473 506L370 362L499 164Q519 133 536 108T570 65T607 36T653 22V0H333V22Q363 25 385 34T408 68Q408 82 402 97T375 142L288 276L198 149Q184 127 173 109T161 72Q161 55 169 45T192 30Q199 27 211 26T236 22V0H-5V22Q3 23
14 27T36 36Q62 47 84 68Q95 78 110 97T150 152L265 311L145 497Q121 532 104 557T71 598T36 624T-8 636V658H313Z" />
<glyph unicode="Y" glyph-name="Y" horiz-adv-x="605" d="M98 538Q82 566 69 584T44 612T20 628T-8 636V658H286V636Q253 633 238 628Q206 617 209 592T235 525L338 336H343L436 507Q454 540 460 558T467 594Q467 611 461 617T440 629Q432 632 421 633T401 636V658H614V636Q590
633 572 624T539 598T510 558T477 502L357 279V169Q357 127 359 106T369 68Q377 51 388 42T416 28Q429 23 452 22V0H147V22Q169 23 184 28Q200 33 211 42T230 68Q238 85 240 106T243 169V279L98 538Z" />
<glyph unicode="Z" glyph-name="Z" horiz-adv-x="599" d="M558 633L179 36H265Q298 36 323 37T368 43T404 53T436 69Q461 84 479 99T511 132T536 166T561 202H586L527 0H33V25L421 622H316Q264 622 233 615T174 588Q148 569 123 539T73 470H48L92 658H558V633Z" />
<glyph unicode="[" glyph-name="bracketleft" horiz-adv-x="403" d="M138 -64Q150 -54 168 -43T207 -24T251 -10T293 -4Q392 -4 392 -86Q392 -108 382 -123T360 -149H336Q343 -135 343 -118Q343 -93 327 -81T273 -69Q231 -69 184 -79T97 -110V663Q136 646 183
636T273 626Q310 626 326 637T343 675Q343 685 342 691T336 705H360Q372 694 382 679T392 642Q392 603 368 582T293 561Q273 561 251 566T208 580T168 599T138 621V-64Z" />
<glyph unicode="\" glyph-name="backslash" horiz-adv-x="383" d="M32 686L411 -87L386 -99L7 674L32 686Z" />
<glyph unicode="]" glyph-name="bracketright" horiz-adv-x="403" d="M265 621Q254 610 236 600T196 581T152 567T110 561Q61 561 37 582T12 642Q12 664 22 679T43 705H67Q63 697 62 691T60 675Q60 649 76 638T131 626Q172 626 220 636T307 663V-110Q268 -90 220
-80T131 -69Q93 -69 77 -81T60 -118Q60 -135 67 -149H43Q32 -138 22 -123T12 -86Q12 -4 110 -4Q129 -4 151 -9T195 -23T235 -43T265 -64V621V621Z" />
<glyph unicode="^" glyph-name="asciicircum" horiz-adv-x="358" d="M165 657H194L318 409H287L179 631L71 409H41L165 657Z" />
<glyph unicode="_" glyph-name="underscore" horiz-adv-x="298" d="M-5 -168V-131H303V-168H-5Z" />
<glyph unicode="`" glyph-name="grave" horiz-adv-x="400" d="M270 485Q243 503 223 517T186 541T158 560T134 578Q115 592 104 604T93 636Q93 652 104 662T133 672Q153 672 168 653T203 608Q212 595 219 586T236 565T256 538T284 498L270 485Z" />
<glyph unicode="a" glyph-name="a" horiz-adv-x="431" d="M426 8Q418 3 394 -3T338 -10Q318 -10 306 -7T286 1Q277 7 270 19T262 54H256Q251 44 242 33T220 13T187 -3T143 -10Q120 -10 99 -3T61 17T36 51T26 99Q26 120 33 140T58 176Q80 196 104 206T166 227Q208
238 227 248T255 272L256 355Q256 385 243 397T204 409Q190 409 179 405T160 395Q153 390 147 378T137 346Q131 304 91 304Q72 304 60 315T48 345Q48 369 67 390Q84 408 120 423T204 438Q274 438 315 418T356 344Q356 333 356 303T355 237T355 165T354 111Q354
76 356 61T363 39Q371 25 390 25Q398 25 406 26T419 29L426 8ZM255 237Q248 230 233 223T198 206Q180 198 166 190T142 171Q133 160 128 144T122 107Q122 66 139 51T180 36Q206 36 225 49T252 88L255 237Z" />
<glyph unicode="b" glyph-name="b" horiz-adv-x="508" d="M163 684Q170 684 170 677L167 573V372H170Q193 407 225 422T300 438Q332 438 364 427T422 389T464 320T480 214Q480 156 462 114T413 45T346 4T270 -9Q252 -9 234 -5T198 8T167 29T144 56H135L90 -2H65Q67
20 67 45T68 89V579Q68 591 67 605T63 628Q58 644 45 652Q37 657 28 659T5 662V684H163ZM277 399Q254 399 236 393T202 370Q190 358 179 337T167 280V156Q167 118 172 96T191 57Q205 39 226 31T266 22Q321 22 346 72T371 214Q371 266 364 301T345 358T315 389T277
399Z" />
<glyph unicode="c" glyph-name="c" horiz-adv-x="436" d="M246 409Q229 409 213 404T186 388Q162 368 149 326T135 215Q135 147 149 109T189 51Q218 30 253 30Q286 30 308 38T346 59T370 89T386 124L414 113Q397 58 355 24T238 -10Q164 -10 110 32Q72 61 50 106T27
215Q27 268 45 309T95 379T165 423T246 438Q278 438 301 434T340 423T367 408T386 391Q407 369 407 342Q407 316 395 306T363 295Q338 295 327 311T308 355Q300 384 287 396T246 409Z" />
<glyph unicode="d" glyph-name="d" horiz-adv-x="511" d="M356 0Q351 0 349 5Q348 10 348 14T348 25V65H340Q326 30 293 10T213 -10Q177 -10 144 4T84 47T43 118T27 214Q27 271 45 313T92 383T158 424T232 438Q277 438 300 425T335 394H340V579Q340 591 340 605T337
627Q334 635 328 641T316 651Q301 660 273 662V684H434Q441 684 441 677Q440 660 439 636T438 573V111Q438 97 438 85T441 64Q448 40 469 29Q474 27 483 25T501 22V0H356ZM338 299Q338 323 333 341T314 377Q290 404 247 404Q200 404 168 358T135 214Q135 162 144
127T168 71T203 41T245 32Q288 32 313 64T338 145V299Z" />
<glyph unicode="e" glyph-name="e" horiz-adv-x="446" d="M420 117Q400 62 356 26T240 -10Q196 -10 162 3T102 37Q64 69 46 115T27 214Q27 265 45 306T92 376T159 422T237 438Q285 438 319 423T375 384T408 331T419 274Q419 260 418 247T416 225H135V217Q135 165
144 125T178 60Q192 45 211 37T259 28Q289 28 311 37T350 62T377 95T395 129L420 117ZM180 387Q163 370 151 340T136 257H293Q308 257 315 266T322 298Q322 330 317 351T299 386Q281 409 238 409Q224 409 208 404T180 387Z" />
<glyph unicode="f" glyph-name="f" horiz-adv-x="297" d="M27 0V21Q43 22 56 29Q77 39 83 63Q86 72 86 84T87 110V391H23V428H87V511Q87 540 91 561T103 599T120 626T139 647Q156 664 186 676T255 689Q292 689 314 684T350 670Q371 658 381 641T392 604Q392 584
380 571T346 557Q313 557 301 582Q297 589 295 596T291 613Q288 628 285 633T279 644Q274 651 265 655T247 659Q213 659 199 627Q192 613 190 593T187 546V428H292V391H187V110Q187 96 187 84T191 63Q194 50 199 42T217 29Q222 26 234 24T256 21V0H27Z" />
<glyph unicode="g" glyph-name="g" horiz-adv-x="480" d="M121 166Q86 183 65 214T44 292Q44 327 58 354T95 400T148 428T212 438Q300 438 348 375H356Q371 404 392 417T436 430Q464 430 477 416T491 379Q491 358 480 349T453 339Q429 339 419 360Q414 370 410
375T396 381Q388 381 380 374T372 351Q372 342 373 338L376 329L379 319H378Q381 307 381 292Q381 256 367 229T330 183T276 155T212 146H211Q200 146 186 147T163 149Q142 149 122 140T102 107Q102 90 116 81T154 72Q162 72 182 73T226 75T271 77T305 78Q336 78
361 73T405 53T434 16T444 -43Q444 -85 423 -117T367 -170T288 -203T198 -214Q102 -214 54 -186T5 -111Q5 -73 36 -49T121 -13V-7Q86 -2 64 19T41 72Q41 91 48 106T67 132T93 150T121 161V166ZM379 -73Q379 -42 360 -30T304 -16Q276 -15 242 -17T183 -21Q166 -23
149 -27T116 -40T92 -64T82 -104Q82 -149 115 -166T208 -183Q238 -183 268 -177T323 -158T363 -123T379 -73ZM135 292Q135 229 157 202T211 175Q243 175 266 202T290 292Q290 355 267 382T211 410Q179 410 157 383T135 292Z" />
<glyph unicode="h" glyph-name="h" horiz-adv-x="540" d="M460 111Q460 97 460 85T464 64Q470 40 491 29Q497 27 504 25T520 22V0H304V22Q312 23 319 25T331 29Q343 35 348 43T357 65Q359 74 359 85T360 111V325Q360 360 342 377Q328 390 297 390Q271 390 248
378T211 346Q200 331 194 309T188 263V111Q188 97 188 86T191 65Q194 51 199 43T217 29Q222 27 229 25T244 22V0H28V22Q36 23 43 25T56 29Q78 40 84 64Q87 73 87 85T88 111V579Q88 591 88 605T84 627Q80 642 66 651Q50 661 26 662V684H182Q189 684 189 677Q189
659 188 634T187 569V363H194Q211 390 239 409Q280 438 337 438Q363 438 384 431T420 413Q460 382 460 323V111V111Z" />
<glyph unicode="i" glyph-name="i" horiz-adv-x="268" d="M138 536Q112 536 95 552T78 595Q78 620 95 637T138 654Q164 654 181 637T198 595Q198 569 181 553T138 536ZM188 111Q188 97 188 85T191 64Q198 40 219 29Q225 27 232 25T248 22V0H28V22Q36 23 43 25T56
29Q78 40 84 64Q87 73 87 85T88 111V323Q88 335 88 349T84 371Q79 387 66 395Q50 405 26 406V428H183Q190 428 190 421Q189 404 189 383T188 331V111Z" />
<glyph unicode="j" glyph-name="j" horiz-adv-x="255" d="M136 536Q110 536 93 552T76 595Q76 620 93 637T136 654Q162 654 179 637T196 595Q196 569 179 553T136 536ZM86 323Q86 335 85 349T82 371Q76 387 63 395Q48 405 23 406V428H181Q187 428 187 421Q186
404 186 383T185 331V-7Q185 -47 178 -76T160 -125T136 -158T109 -181Q95 -192 70 -202T10 -213Q-38 -213 -69 -191Q-108 -166 -108 -123Q-108 -99 -94 -85T-59 -70Q-31 -70 -20 -85T-8 -118Q-8 -123 -8 -126T-10 -137Q-11 -142 -12 -148T-13 -158Q-13 -170 -5
-177T16 -184Q46 -184 65 -162Q75 -150 80 -131T86 -76V323Z" />
<glyph unicode="k" glyph-name="k" horiz-adv-x="510" d="M272 260Q320 255 357 233T403 173Q411 135 422 102T447 52Q456 42 469 34T509 22V0H354Q347 5 343 14T334 39T325 77T313 129Q308 147 303 164T290 194T270 218T240 233L188 188V111Q188 97 188 85T191
64Q198 40 219 29Q225 27 233 25T249 22V0H28V22Q36 23 43 25T56 29Q78 40 84 64Q87 73 87 85T88 111V579Q88 591 88 605T84 627Q80 642 66 651Q50 661 26 662V684H183Q190 684 190 677Q189 660 189 639T188 588V225L278 303Q301 323 314 338T327 370Q327 382 322
388T307 399Q301 402 291 403T270 406V428H479V406Q453 401 418 380Q410 375 389 358T330 309L272 260Z" />
<glyph unicode="l" glyph-name="l" horiz-adv-x="268" d="M188 111Q188 97 188 85T191 64Q198 40 219 29Q225 27 232 25T248 22V0H28V22Q36 23 43 25T56 29Q78 40 84 64Q87 73 87 85T88 111V579Q88 591 88 605T84 627Q80 642 66 651Q50 661 26 662V684H183Q190
684 190 677Q189 660 189 639T188 588V111Z" />
<glyph unicode="m" glyph-name="m" horiz-adv-x="788" d="M448 111Q448 97 448 86T451 65Q454 51 460 43T479 29Q484 27 490 25T504 22V0H292V22Q300 23 307 25T319 29Q332 35 337 43T345 65Q347 74 347 85T348 111V325Q348 343 345 355T332 377Q324 384 316 387T290
390Q265 390 245 378T211 346Q200 331 194 309T188 263V111Q188 97 188 86T191 65Q194 51 199 43T217 29Q222 27 229 25T244 22V0H28V22Q36 23 43 25T56 29Q78 40 84 64Q87 73 87 85T88 111V323Q88 335 88 349T84 371Q79 387 66 395Q50 405 26 406V428H181Q187
428 187 421Q187 420 187 411T186 390T186 369T185 358H192Q211 389 237 408Q273 438 326 438Q381 438 410 412Q434 390 441 358H448Q467 388 498 410Q535 438 586 438Q615 438 635 432T670 412Q689 396 698 375T708 322V111Q708 80 712 64Q718 40 740 29Q745 27
752 25T768 22V0H552V22Q560 23 567 25T580 29Q592 35 597 43T606 65Q608 74 608 85T609 111V325Q609 343 606 355T592 377Q584 384 576 387T550 390Q525 390 506 378T471 346Q460 331 454 309T448 263V111Z" />
<glyph unicode="n" glyph-name="n" horiz-adv-x="540" d="M460 111Q460 97 460 85T464 64Q470 40 491 29Q497 27 504 25T520 22V0H304V22Q312 23 319 25T331 29Q343 35 348 43T357 65Q359 74 359 85T360 111V325Q360 360 342 377Q328 390 297 390Q271 390 248
378T211 346Q200 331 194 309T188 263V111Q188 97 188 86T191 65Q194 51 199 43T217 29Q222 27 229 25T244 22V0H28V22Q36 23 43 25T56 29Q78 40 84 64Q87 73 87 85T88 111V323Q88 335 88 349T84 371Q79 387 66 395Q50 405 26 406V428H181Q187 428 187 421Q187
420 187 411T186 390T186 369T185 358H192Q211 389 244 410Q286 438 337 438Q363 438 384 431T420 413Q460 382 460 323V111V111Z" />
<glyph unicode="o" glyph-name="o" horiz-adv-x="485" d="M27 215Q27 267 44 308T92 378T161 422T243 438Q286 438 325 423T393 379T440 309T458 215Q458 163 441 122T394 51T325 6T243 -10Q200 -10 161 5T92 50T45 121T27 215ZM350 215Q350 285 338 327T299 390Q288
399 273 403T243 408Q210 408 186 390Q161 370 148 328T135 215Q135 144 148 102T186 40Q211 20 243 20Q276 20 299 40Q325 60 337 102T350 215Z" />
<glyph unicode="p" glyph-name="p" horiz-adv-x="519" d="M382 214Q382 266 375 301T356 357T326 388T287 398Q265 398 248 392T215 369Q203 358 192 336T181 278V158Q181 120 186 97T205 57Q219 40 238 31T277 22Q332 22 357 72T382 214ZM21 -192Q38 -190 49
-184Q71 -174 77 -150Q80 -141 80 -129T81 -103V322Q81 335 81 349T77 371Q75 379 70 385T58 395Q43 404 19 406V428H174Q180 428 180 421Q180 420 180 412T179 394V368H182Q225 438 311 438Q343 438 375 427T433 389T475 320T491 214Q491 156 473 114T426 44T360
3T285 -10Q227 -10 186 25H181V-103Q181 -117 181 -129T185 -150Q191 -174 212 -184Q225 -191 248 -192V-213H21V-192Z" />
<glyph unicode="q" glyph-name="q" horiz-adv-x="515" d="M339 299Q339 323 335 341T316 376Q292 404 249 404Q226 404 206 393T170 359T145 300T136 214Q136 162 145 127T169 71T204 41T246 32Q289 32 314 64T339 145V299ZM376 374L425 435H454Q451 411 449 383T447
327V-103Q447 -117 447 -129T451 -150Q457 -174 479 -184Q490 -190 507 -192V-213H281V-192Q291 -191 300 -190T318 -184Q329 -180 334 -172T344 -150Q348 -134 348 -103V53H340Q325 24 292 7T214 -10Q177 -10 143 4T84 47T43 117T27 212Q27 270 46 312T96 383T165
424T242 438Q287 438 316 422T369 374H376Z" />
<glyph unicode="r" glyph-name="r" horiz-adv-x="390" d="M191 345Q204 374 215 387T240 412Q252 422 271 430T316 438Q331 438 345 434T370 419Q377 412 381 401T386 373Q386 351 375 336T339 321Q317 321 307 332T290 361Q285 373 280 377T263 382Q254 382 242
374T220 351T201 317T190 275Q189 269 189 250T188 212V111Q188 97 188 85T191 64Q195 51 201 43T218 29Q225 26 234 25T253 22V0H28V22Q36 23 43 25T56 29Q78 40 84 64Q87 73 87 85T88 111V324Q88 335 88 348T85 370Q80 388 67 395Q52 404 26 406V428H181Q187
428 187 421Q187 420 187 409T186 385T185 359T184 345H191V345Z" />
<glyph unicode="s" glyph-name="s" horiz-adv-x="377" d="M356 126Q356 92 344 67T311 24T262 -1T201 -10Q166 -10 135 1T81 34H77L59 0H41L35 162H56Q77 101 114 61T203 20Q238 20 257 35T277 80Q277 98 271 110T251 132T218 150T169 171Q143 181 119 192T77
219T49 258T38 317Q38 341 48 362T78 401T125 428T186 438Q223 438 248 428T287 406H290L303 429H321L327 300H306Q288 346 261 377T186 408Q154 408 135 393T116 352Q116 336 120 324T136 302T167 282T215 261Q243 250 268 239T313 213T344 177T356 126Z" />
<glyph unicode="t" glyph-name="t" horiz-adv-x="312" d="M312 42Q289 13 259 2T194 -10Q163 -10 142 -4T103 17Q88 30 83 48T77 94V392Q63 392 42 392T8 394V417Q34 422 54 434T92 466T124 516T151 587H177V428H287V391H177V94Q177 67 188 52T229 37Q249 37 267
42T298 61L312 42Z" />
<glyph unicode="u" glyph-name="u" horiz-adv-x="529" d="M449 111Q449 80 453 64Q459 40 481 29Q486 27 495 25T513 22V0H363Q355 0 355 9Q355 11 355 20T354 41V68H348Q337 49 328 38T305 16Q288 4 266 -3T215 -10Q185 -10 156 -2T107 30Q93 47 86 68T78 125V323Q78
335 78 349T74 371Q69 387 56 395Q40 405 16 406V428H174Q181 428 181 421Q180 404 179 383T178 327V126Q178 103 181 87T196 58Q208 45 221 40T252 35Q268 35 283 41T312 60Q326 71 335 88T346 129Q348 146 349 158T350 192V323Q350 335 349 349T346 371Q340 387
327 395Q311 405 286 406V428H446Q452 428 452 421Q451 404 450 383T449 327V111V111Z" />
<glyph unicode="v" glyph-name="v" horiz-adv-x="460" d="M464 406Q458 405 450 404T434 397Q428 393 423 388T410 373Q403 363 395 344T375 299L255 -4H208L90 281Q78 310 70 329T57 358Q49 375 44 382T30 396Q22 401 12 403T-4 406V428H226V406Q197 404 188
399Q181 395 176 389T171 369Q171 355 177 339T191 299L264 109H269L337 295Q342 309 345 318T351 335T355 350T356 366Q356 380 351 387T338 399Q330 403 321 404T305 406V428H464V406V406Z" />
<glyph unicode="w" glyph-name="w" horiz-adv-x="689" d="M693 406Q687 405 679 403T663 396Q657 392 652 388T640 373Q633 363 626 347T606 299L496 -4H451L345 274L243 -4H198L90 281Q78 310 70 330T57 358Q49 375 44 382T30 396Q22 401 12 403T-4 406V428H223V406Q216
405 206 404T190 399Q183 395 178 388T172 367Q172 353 176 338T189 299L252 115H258L328 319L312 358Q304 375 299 382T285 396Q277 401 270 403T256 406V428H472V406Q461 405 455 404T443 399Q436 395 431 388T425 367Q425 353 429 338T442 299L504 115H510L569
295Q574 309 577 318T582 335T585 350T586 366Q586 380 581 387T567 399Q560 403 555 404T539 406V428H693V406V406Z" />
<glyph unicode="x" glyph-name="x" horiz-adv-x="427" d="M197 171L154 112Q139 89 132 78T125 56Q125 38 142 31Q154 25 174 22V0H5V22Q29 27 45 37Q57 44 66 52T85 70T104 94T126 126L177 200L93 324Q76 350 64 367T40 392Q33 397 23 400T0 406V428H222V406Q213
405 207 404T192 401Q184 399 179 395T174 381Q174 371 179 363T193 342L245 264L280 315Q295 338 302 351T309 375Q309 386 306 391T294 399Q287 402 280 403T262 406V428H427V407Q403 402 387 392Q375 384 366 376T348 357T330 332T308 300L264 235L351 108Q368
82 383 63T409 36Q416 31 426 28T449 22V0H225V22Q235 23 241 24T256 27Q264 29 269 33T274 47Q274 57 269 65T255 87L197 171Z" />
<glyph unicode="y" glyph-name="y" horiz-adv-x="457" d="M227 -55Q215 -84 202 -112T171 -164Q154 -184 130 -198T71 -213Q39 -213 17 -197T-5 -152Q-5 -132 8 -118T39 -104Q58 -104 69 -112T89 -134Q99 -147 104 -151T121 -156Q141 -156 156 -128T191 -55Q196
-41 199 -31T202 -9Q202 8 196 20L90 281Q78 310 70 329T57 358Q49 375 44 382T30 396Q22 401 12 403T-4 406V428H226V406Q218 405 207 404T190 399Q182 395 177 388T172 367Q172 353 177 338T191 299L259 122H264L334 295Q339 309 342 318T348 335T352 350T353
366Q353 380 348 387T334 399Q326 403 318 404T301 406V428H461V406Q455 405 447 404T430 397Q424 393 419 388T406 373Q399 363 391 344T371 299L227 -55V-55Z" />
<glyph unicode="z" glyph-name="z" horiz-adv-x="417" d="M376 0H29V16L265 396V400H179Q158 400 144 393T115 373Q99 358 83 338T50 294H25L68 428H383V409L153 30V27H230Q263 27 283 36T320 63Q340 86 355 107T382 148H405L376 0Z" />
<glyph unicode="{" glyph-name="braceleft" horiz-adv-x="350" d="M340 -141Q294 -140 255 -132T188 -106T143 -57T126 20Q126 34 128 51T133 84T138 115T141 140Q141 185 125 208T78 245Q52 256 17 258V283Q52 285 78 296Q109 310 125 333T141 401Q141 411 139
425T134 456T129 490T126 521Q126 567 142 597T187 646T255 673T340 682V659Q318 657 298 652T263 636T239 604T230 549Q230 537 231 522T234 490T237 457T239 428Q239 357 197 322T81 273V268Q118 261 147 250T197 220T228 175T239 113Q239 100 238 84T235 52T232
20T230 -8Q230 -42 239 -62T263 -94T298 -110T340 -118V-141V-141Z" />
<glyph unicode="|" glyph-name="bar" horiz-adv-x="198" d="M84 -99V687H114V-99H84Z" />
<glyph unicode="}" glyph-name="braceright" horiz-adv-x="350" d="M10 -118Q32 -115 51 -111T86 -95T110 -63T119 -8Q119 4 118 19T115 51T112 84T110 113Q110 149 121 175T152 219T202 249T269 268V273Q195 287 153 322T110 428Q110 441 111 457T114 489T117
521T119 549Q119 583 110 603T86 635T52 652T10 659V682Q56 681 95 673T162 647T207 598T224 521Q224 507 222 490T217 457T212 426T209 401Q209 356 225 333T272 296Q298 285 333 283V258Q298 256 272 245Q241 232 225 209T209 140Q209 130 211 116T216 85T221
51T224 20Q224 -26 208 -56T163 -105T95 -132T10 -141V-118Z" />
<glyph unicode="~" glyph-name="asciitilde" horiz-adv-x="390" d="M251 231Q233 231 217 235T186 244T155 253T123 257Q105 257 90 247T61 212L40 219Q46 238 55 256T76 288T103 312T139 321Q156 321 171 317T201 309T231 300T261 296Q287 296 301 306T329 341L350
334Q344 315 335 297T314 264T287 240T251 231Z" />
<glyph unicode="&#xa0;" glyph-name="uni00A0" horiz-adv-x="150" />
<glyph unicode="&#xa1;" glyph-name="exclamdown" horiz-adv-x="249" d="M65 378Q65 405 82 421T124 438Q149 438 166 421T184 378Q184 352 167 335T124 318Q99 318 82 334T65 378ZM124 -245Q98 -245 80 -227T62 -170Q62 -134 68 -94T83 9Q94 98 100 162T110 258H140Q143
227 148 163T166 9Q175 -53 180 -93T186 -170Q186 -208 169 -226T124 -245Z" />
<glyph unicode="&#xa2;" glyph-name="cent" horiz-adv-x="436" d="M231 -10Q160 -7 110 32Q72 61 50 106T27 215Q27 266 44 306T89 374T154 418T231 437V533H268V437Q320 434 346 420T386 391Q407 369 407 342Q407 316 395 306T364 295Q339 295 328 311T309 355Q303
378 294 390T268 406V31Q296 33 315 41T348 63T371 91T386 124L414 113Q399 63 364 31T268 -8V-96H231V-10ZM189 51Q209 36 231 32V408Q218 406 206 401T186 388Q162 368 149 326T135 215Q135 147 149 109T189 51Z" />
<glyph unicode="&#xa3;" glyph-name="sterling" horiz-adv-x="610" d="M226 260Q226 266 227 269Q233 337 254 391T308 484T380 542T462 563Q534 563 563 535T593 462Q593 438 584 420T560 389T524 370T482 363Q446 363 424 377T388 414L414 432Q424 415 438 405T472
394Q495 394 512 408T529 464Q529 499 509 514T460 529Q420 529 398 505T364 447Q358 430 353 413T345 373T337 325T329 263Q329 262 329 262T328 260H465V228H323Q317 193 307 162T285 105Q319 92 358 79T429 65Q457 65 476 69T509 82T532 106T548 142L572 137Q567
102 556 72T525 20T478 -15T413 -28Q389 -28 366 -22T321 -5T280 18T244 43Q222 20 188 5T112 -11Q55 -11 28 9T0 64Q0 99 34 120T117 141Q143 141 165 138T210 129Q214 151 217 176T223 228H110V260H226ZM112 19Q147 19 167 33T198 80Q181 92 160 99T111 107Q92
107 75 97T57 65Q57 42 72 31T112 19Z" />
<glyph unicode="&#xa5;" glyph-name="yen" horiz-adv-x="507" d="M303 251L294 235V191H434V159H294V113Q294 96 295 86T299 64Q306 41 328 31Q333 29 343 27T364 22V0H121V22Q131 24 141 26T157 31Q179 41 186 64Q189 75 190 85T191 113V159H51V191H191V235L182
251H51V283H163L80 428Q68 452 59 467T39 491T18 506T-10 514V536H247V514Q221 511 210 506Q195 501 189 493T182 473T187 449T200 421L276 280H281L356 408Q368 428 373 443T379 473Q379 487 370 494T347 507Q339 510 331 511T315 514V536H517V514Q474 507 444
472T382 382L322 283H434V251H303Z" />
<glyph unicode="&#xa6;" glyph-name="brokenbar" horiz-adv-x="198" d="M84 247H114V-99H84V247ZM84 341V687H114V341H84Z" />
<glyph unicode="&#xa7;" glyph-name="section" horiz-adv-x="458" d="M82 524Q82 559 94 586T128 632T179 660T241 670Q277 670 302 663T344 643T368 615T376 581Q376 563 365 551T334 538Q314 538 304 547T288 570Q284 580 284 591T280 613Q275 624 266 632T234
640Q207 640 183 622T158 565Q158 538 169 516T199 474T238 438T277 405Q314 370 343 344T391 294T421 245T431 188Q431 143 405 112T341 58Q357 36 366 12T376 -41Q376 -76 363 -103T328 -149T277 -178T214 -188Q178 -188 152 -179T107 -156T80 -123T71 -87Q71
-65 83 -52T116 -39Q139 -39 148 -49T162 -74Q165 -85 164 -102T168 -130Q173 -144 184 -151T217 -158Q249 -158 274 -141T300 -84Q300 -57 286 -33T252 12T209 51T167 86Q141 108 118 129T77 173T49 222T38 281Q38 330 64 361T124 411Q105 434 94 461T82 524ZM234
162Q255 142 278 123T322 82Q337 92 348 106T360 142Q360 165 353 182T328 220T282 265T210 330Q193 344 177 358T145 388Q131 379 120 365T109 330Q109 307 115 290T135 256T174 216T234 162Z" />
<glyph unicode="&#xa8;" glyph-name="dieresis" horiz-adv-x="400" d="M57 592Q57 612 71 626T106 641Q126 641 140 627T155 592Q155 572 141 558T106 543Q85 543 71 557T57 592ZM294 543Q273 543 259 557T245 592Q245 612 259 626T294 641Q314 641 328 627T343
592Q343 572 329 558T294 543Z" />
<glyph unicode="&#xa9;" glyph-name="copyright" horiz-adv-x="930" d="M881 257Q881 171 848 96T759 -35T626 -124T465 -157Q379 -157 304 -124T172 -35T82 96T49 258Q49 343 82 418T171 549T303 638T465 671Q550 671 626 638T758 549T848 418T881 257ZM839 257Q839
337 810 406T731 527T612 607T465 637Q387 637 319 608T200 527T120 407T91 258Q91 178 120 109T200 -12T319 -93T465 -123Q543 -123 611 -94T730 -13T810 107T839 257ZM676 185Q668 151 653 120T613 64T554 26T474 11Q435 11 403 19T342 44Q288 73 256 128T223
260Q223 319 245 365T303 442T385 490T481 507Q538 507 568 493T620 457H627L648 485H664V307H641Q634 335 623 366T594 422T548 464T483 481Q463 481 444 475T408 455Q376 428 357 383T337 261Q337 219 343 189T359 136T380 99T403 75Q423 59 442 53T487 46Q513
46 537 53T583 76T621 121T652 192L676 185Z" />
<glyph unicode="&#xaa;" glyph-name="ordfeminine" horiz-adv-x="375" d="M366 312Q359 307 343 301T297 295Q281 295 271 297T253 305Q245 311 238 321T229 353H224Q211 332 186 314T119 295Q102 295 86 300T58 316T38 346T30 388Q30 408 35 422T51 448Q66 465
87 475T134 495Q154 502 168 508T193 519T210 531T225 545V594Q225 623 215 636T177 649Q153 649 142 639Q137 633 134 623T127 593Q122 574 112 565T82 555Q66 555 56 564T45 591Q45 602 49 612T59 630Q75 649 109 660T177 672Q205 672 229 669T272 656T301 630T312
589V395Q312 362 313 351T321 333Q327 326 340 326Q351 326 360 330L366 312ZM226 511Q214 503 195 493T160 474Q149 468 141 462T127 448Q120 437 118 427T115 396Q115 365 127 351T160 336Q186 336 205 355T226 409V511Z" />
<glyph unicode="&#xab;" glyph-name="guillemotleft" horiz-adv-x="426" d="M206 390L223 373Q221 369 207 350T176 309T145 268T129 246Q131 243 145 224T175 184T206 143T223 120L206 103L52 234V258L206 390ZM369 390L386 373Q383 369 369 350T339 309T308
268T292 246Q294 243 308 224T338 184T369 143T386 120L369 103L215 234V258L369 390Z" />
<glyph unicode="&#xae;" glyph-name="registered" horiz-adv-x="589" d="M355 291Q348 299 342 315T333 350Q330 373 326 386T313 411Q306 419 299 422T274 426H257V362Q257 337 260 327Q262 322 264 318T272 312Q276 310 283 309T294 308V291H159V308Q163 308
170 309T181 312Q187 314 189 318T193 327Q195 332 195 341T195 362V503Q195 515 195 524T193 538Q191 543 189 547T181 553Q177 555 170 556T159 557V574H298Q349 574 372 556T396 505Q396 449 320 438V435Q352 432 369 420T394 366Q399 338 406 330T422 317Q427
314 436 312T451 308V291H355ZM331 502Q331 531 321 542T285 553H257V445H281Q307 445 319 461T331 502ZM37 422Q37 474 57 521T113 603T194 658T294 679Q347 679 394 659T476 603T531 521T552 422Q552 369 532 323T476 241T394 186T294 165Q241 165 195 185T113
241T58 322T37 422ZM518 422Q518 468 501 509T453 582T382 631T294 649Q247 649 206 631T135 582T88 510T70 422Q70 376 87 335T135 262T206 213T294 195Q341 195 382 213T453 262T500 334T518 422Z" />
<glyph unicode="&#xaf;" glyph-name="macron" horiz-adv-x="416" d="M86 551V597H330V551H86Z" />
<glyph unicode="&#xb0;" glyph-name="degree" horiz-adv-x="238" d="M186 525Q186 557 169 577T119 598Q87 598 69 578T51 525Q51 492 69 473T119 453Q151 453 168 472T186 525ZM119 420Q74 420 45 449T15 525Q15 571 44 600T119 630Q164 630 193 601T223 525Q223
478 194 449T119 420Z" />
<glyph unicode="&#xb4;" glyph-name="acute" horiz-adv-x="400" d="M124 498Q141 522 152 537T172 564T189 585T206 608Q224 633 239 652T276 672Q293 672 304 662T315 636Q315 616 305 604T274 578Q262 569 250 561T222 542T186 517T138 485L124 498V498Z" />
<glyph unicode="&#xb6;" glyph-name="paragraph" horiz-adv-x="592" d="M483 624V-150H444V624H348V-150H309V202H291Q228 202 182 221T106 273T62 345T47 428Q47 471 63 512T112 585T192 638T303 658H573V624H483Z" />
<glyph unicode="&#xb7;" glyph-name="periodcentered" horiz-adv-x="252" d="M183 261Q183 238 167 221T126 204Q102 204 86 221T69 261Q69 284 85 301T126 318Q149 318 166 301T183 261Z" />
<glyph unicode="&#xb8;" glyph-name="cedilla" horiz-adv-x="400" d="M307 -113Q307 -136 298 -152T273 -178T237 -192T194 -197Q170 -197 146 -191T106 -173L118 -150Q132 -160 151 -165T189 -170Q215 -170 231 -158T248 -118Q248 -95 235 -85T204 -74Q193 -74
185 -77T169 -86L144 -74L175 10H205L181 -57Q201 -47 226 -47Q264 -47 285 -65T307 -113Z" />
<glyph unicode="&#xba;" glyph-name="ordmasculine" horiz-adv-x="421" d="M210 297Q175 297 142 308T84 343T43 402T28 485Q28 532 43 567T83 625T142 660T210 672Q246 672 279 661T337 626T378 567T393 485Q393 437 378 402T338 344T279 309T210 297ZM210 321Q233
321 252 334Q276 349 287 389T299 484Q299 538 288 579T252 635Q232 647 210 647Q189 647 168 635Q145 620 134 579T122 484Q122 430 133 390T168 334Q188 321 210 321Z" />
<glyph unicode="&#xbb;" glyph-name="guillemotright" horiz-adv-x="426" d="M374 234L220 103L203 120Q205 124 219 143T250 183T281 224T297 246Q295 249 281 268T251 309T220 350T203 373L220 390L374 258V234ZM211 234L57 103L40 120Q43 124 57 143T87 183T118
224T134 246Q132 249 118 268T88 309T57 350T40 373L57 390L211 258V234Z" />
<glyph unicode="&#xbc;" glyph-name="onequarter" horiz-adv-x="747" d="M28 279V301Q54 304 60 308Q71 313 75 318T82 336Q84 343 84 354T85 375V545Q85 556 85 569T83 591Q81 601 77 605T65 612Q58 615 45 616T20 618V641Q49 643 71 646T117 656Q128 659 142
663T163 668Q172 668 172 658Q172 654 172 644T171 619T171 589T170 558V375Q170 364 170 354T173 336Q177 323 181 318T196 308Q202 304 228 301V279H28ZM117 -24L82 -2L618 692L652 668L117 -24ZM700 64Q698 75 695 86T683 106Q676 114 667 118T634 122H626V96Q626
85 627 75T630 57Q633 44 637 39T652 29Q658 25 684 22V0H484V22Q508 25 516 29Q527 34 531 39T538 57Q540 64 540 75T541 95V122H372V147L581 383H622Q627 383 627 377Q627 369 627 354T626 324V150H634Q657 150 666 154T683 167Q691 176 694 187T700 209H722V64H700ZM411
150H541V290H536L411 150Z" />
<glyph unicode="&#xbd;" glyph-name="onehalf" horiz-adv-x="777" d="M28 279V301Q54 304 60 308Q71 313 75 318T82 336Q84 343 84 354T85 375V545Q85 556 85 569T83 591Q81 601 77 605T65 612Q58 615 45 616T20 618V641Q49 643 71 646T117 656Q128 659 142 663T163
668Q172 668 172 658Q172 654 172 644T171 619T171 589T170 558V375Q170 364 170 354T173 336Q177 323 181 318T196 308Q202 304 228 301V279H28ZM117 -24L82 -2L618 692L652 668L117 -24ZM761 125Q758 116 755 101T747 67T738 31T731 0H439V30Q462 44 481 57T505
74Q535 97 563 119T614 167T649 222T662 289Q662 330 644 344T594 358Q575 358 557 350T524 327T501 291T492 243Q492 220 499 208T523 195Q548 195 561 213T584 257L605 249Q594 213 569 186T501 159Q466 159 448 180T430 231Q430 264 444 292T484 342T542 376T615
388Q677 388 715 363T753 292Q753 265 743 242T717 200T681 164T641 134Q623 122 596 107T537 72L539 69H649Q678 69 690 74T714 92Q724 102 729 110T737 125H761V125Z" />
<glyph unicode="&#xbe;" glyph-name="threequarters" horiz-adv-x="793" d="M9 350Q9 370 19 383T49 397Q75 397 83 375Q89 364 87 350Q86 345 85 338T83 325Q83 296 132 296Q185 296 209 322T233 403Q233 433 218 446T181 460Q160 460 140 449L116 433L103 453L153
486Q187 507 204 526T221 585Q221 615 206 627T165 639Q127 639 104 617T80 563Q80 525 109 525Q138 525 155 561L172 553Q161 530 140 513T89 496Q62 496 46 512T30 555Q30 579 42 599T74 635T119 658T172 667Q198 667 221 663T261 649T289 624T300 586Q300 551
275 529T205 487V483Q221 483 235 480Q273 475 296 456T319 402Q319 375 308 351T274 309T217 280T134 269Q77 269 43 292T9 350ZM166 -24L131 -2L667 692L701 668L166 -24ZM749 64Q747 75 744 86T732 106Q725 114 716 118T683 122H675V96Q675 85 676 75T679 57Q682
44 686 39T701 29Q707 25 733 22V0H533V22Q557 25 565 29Q576 34 580 39T587 57Q589 64 589 75T590 95V122H421V147L630 383H671Q676 383 676 377Q676 369 676 354T675 324V150H683Q706 150 715 154T732 167Q740 176 743 187T749 209H771V64H749ZM460 150H590V290H585L460
150Z" />
<glyph unicode="&#xbf;" glyph-name="questiondown" horiz-adv-x="453" d="M269 378Q269 405 286 421T328 438Q353 438 370 421T388 378Q388 352 371 335T328 318Q303 318 286 334T269 378ZM41 -51Q41 -1 60 34T107 91T167 123T225 134Q255 134 278 131T321 120H323V239H353V99L335
85Q311 93 296 97T257 101Q231 101 212 86T181 43T163 -20T157 -99Q157 -153 182 -184T250 -215Q285 -215 295 -163Q300 -137 313 -121T354 -104Q377 -104 391 -117T405 -157Q405 -173 394 -189T364 -217T316 -237T254 -245Q215 -245 188 -237T136 -215Q96 -192
69 -154T41 -51Z" />
<glyph unicode="&#xc0;" glyph-name="Agrave" horiz-adv-x="653" d="M384 220H182L160 157Q152 136 148 118T143 82Q143 62 151 49T174 31Q183 27 195 25T221 22V0H0V22Q14 24 24 26T45 35Q65 46 80 73Q95 100 118 162L303 662H353L530 159Q539 133 549 112T569
77Q580 60 592 50T618 34Q636 26 653 22V0H348V22Q365 24 375 26T392 31Q408 36 418 44T428 75Q428 97 420 121T403 168L384 220ZM195 256H372L287 496H280L195 256ZM417 705Q354 722 316 732T249 752Q224 760 209 772T193 804Q193 821 203 832T232 844Q249 844
260 837T294 815Q320 798 350 778T426 723L417 705Z" />
<glyph unicode="&#xc1;" glyph-name="Aacute" horiz-adv-x="653" d="M384 220H182L160 157Q152 136 148 118T143 82Q143 62 151 49T174 31Q183 27 195 25T221 22V0H0V22Q14 24 24 26T45 35Q65 46 80 73Q95 100 118 162L303 662H353L530 159Q539 133 549 112T569
77Q580 60 592 50T618 34Q636 26 653 22V0H348V22Q365 24 375 26T392 31Q408 36 418 44T428 75Q428 97 420 121T403 168L384 220ZM195 256H372L287 496H280L195 256ZM426 844Q444 844 454 833T465 804Q465 784 449 773T408 752Q379 743 342 734T240 708L232 726L358
813Q380 829 395 836T426 844Z" />
<glyph unicode="&#xc2;" glyph-name="Acircumflex" horiz-adv-x="653" d="M384 220H182L160 157Q152 136 148 118T143 82Q143 62 151 49T174 31Q183 27 195 25T221 22V0H0V22Q14 24 24 26T45 35Q65 46 80 73Q95 100 118 162L303 662H353L530 159Q539 133 549 112T569
77Q580 60 592 50T618 34Q636 26 653 22V0H348V22Q365 24 375 26T392 31Q408 36 418 44T428 75Q428 97 420 121T403 168L384 220ZM195 256H372L287 496H280L195 256ZM188 977Q224 1012 250 1039T299 1093H349Q372 1067 398 1040T460 977L447 964L324 1033L200 964L188
977V977Z" />
<glyph unicode="&#xc3;" glyph-name="Atilde" horiz-adv-x="653" d="M384 220H182L160 157Q152 136 148 118T143 82Q143 62 151 49T174 31Q183 27 195 25T221 22V0H0V22Q14 24 24 26T45 35Q65 46 80 73Q95 100 118 162L303 662H353L530 159Q539 133 549 112T569
77Q580 60 592 50T618 34Q636 26 653 22V0H348V22Q365 24 375 26T392 31Q408 36 418 44T428 75Q428 97 420 121T403 168L384 220ZM195 256H372L287 496H280L195 256ZM480 822Q474 804 466 786T445 752T418 728T382 718Q364 718 347 722T313 730T281 739T251 743Q230
743 215 735T189 703L170 710Q176 728 185 746T206 779T234 803T269 812Q287 812 303 808T336 800T368 791T400 787Q424 787 437 796T462 828L480 822V822Z" />
<glyph unicode="&#xc4;" glyph-name="Adieresis" horiz-adv-x="653" d="M384 220H182L160 157Q152 136 148 118T143 82Q143 62 151 49T174 31Q183 27 195 25T221 22V0H0V22Q14 24 24 26T45 35Q65 46 80 73Q95 100 118 162L303 662H353L530 159Q539 133 549 112T569
77Q580 60 592 50T618 34Q636 26 653 22V0H348V22Q365 24 375 26T392 31Q408 36 418 44T428 75Q428 97 420 121T403 168L384 220ZM195 256H372L287 496H280L195 256ZM271 774Q271 751 256 736T219 720Q196 720 181 735T166 774Q166 796 181 811T219 827Q241 827
256 812T271 774ZM430 827Q452 827 467 812T482 774Q482 751 467 736T430 720Q407 720 392 735T377 774Q377 796 392 811T430 827Z" />
<glyph unicode="&#xc5;" glyph-name="Aring" horiz-adv-x="653" d="M384 220H182L160 157Q152 136 148 118T143 82Q143 62 151 49T174 31Q183 27 195 25T221 22V0H0V22Q14 24 24 26T45 35Q65 46 80 73Q95 100 118 162L303 662H353L530 159Q539 133 549 112T569
77Q580 60 592 50T618 34Q636 26 653 22V0H348V22Q365 24 375 26T392 31Q408 36 418 44T428 75Q428 97 420 121T403 168L384 220ZM195 256H372L287 496H280L195 256ZM324 869Q356 869 381 847T406 785Q406 745 381 724T324 702Q292 702 267 723T242 785Q242 825
267 847T324 869ZM268 785Q268 756 284 740T324 724Q347 724 363 740T380 785Q380 814 364 830T324 847Q301 847 285 831T268 785Z" />
<glyph unicode="&#xc6;" glyph-name="AE" horiz-adv-x="903" d="M174 156Q163 134 154 114T145 77Q145 57 152 47T174 31Q182 27 194 25T220 22V0H-4V22Q10 24 20 28T41 38Q50 44 59 52T78 74Q87 86 101 109T131 162L384 620Q377 625 363 630Q356 632 344 633T321
636V658H818L849 486H825Q806 521 789 543T744 587Q727 601 699 611T624 622H588Q576 622 565 620T547 608Q539 598 538 587T536 560V358H579Q614 358 633 364T667 384Q686 403 691 422T700 465H722V214H700Q697 238 691 258T665 298Q651 312 632 317T579 322H536V144Q536
112 539 90T556 56Q567 45 584 41T627 36H639Q691 36 721 52T772 87Q804 113 823 138T861 195H883L842 0H327V22Q349 23 363 28Q380 33 391 42T410 68Q418 85 420 106T422 169V243H222L174 156ZM422 481Q422 520 420 545T411 587L242 280H422V481Z" />
<glyph unicode="&#xc7;" glyph-name="Ccedilla" horiz-adv-x="650" d="M449 -130Q449 -153 440 -169T415 -195T379 -209T336 -214Q312 -214 288 -208T248 -190L260 -167Q274 -177 293 -182T331 -187Q357 -187 373 -175T390 -135Q390 -112 377 -102T346 -91Q335
-91 327 -94T311 -103L286 -91L315 -11Q268 -6 228 11Q169 37 127 82T61 190T38 328Q38 403 65 466T138 574T243 645T365 670Q440 670 483 652T548 611H552L582 658H604V431H582Q568 479 549 514T511 570Q497 585 484 597T455 617T417 630T366 635Q343 635 321
630T278 612Q257 600 237 579T202 524T177 442T167 328Q167 266 175 223T196 149T227 100T265 68Q290 51 317 44T387 37Q453 37 508 70T595 172L622 155Q605 117 582 86T527 33T454 -2T359 -14H344L323 -74Q343 -64 368 -64Q406 -64 427 -82T449 -130Z" />
<glyph unicode="&#xc8;" glyph-name="Egrave" horiz-adv-x="615" d="M554 0H27V22Q49 23 63 28Q80 33 91 42T110 68Q118 85 120 106T122 169V489Q122 531 120 552T110 590Q102 607 91 616T63 630Q49 634 27 636V658H530L560 486H536Q518 521 500 543T456 587Q440
601 411 611T337 622H288Q276 622 265 620T246 608Q239 598 238 587T236 560V358H287Q322 358 342 364T376 384Q395 403 400 422T408 465H431V214H408Q405 238 399 258T374 298Q360 312 341 317T287 322H236V144Q236 112 239 90T255 56Q266 45 284 41T326 36H347Q396
36 425 50T477 82Q513 111 534 137T573 195H594L554 0ZM381 705Q318 722 280 732T213 752Q188 760 173 772T157 804Q157 821 167 832T196 844Q213 844 224 837T258 815Q284 798 314 778T390 723L381 705Z" />
<glyph unicode="&#xc9;" glyph-name="Eacute" horiz-adv-x="615" d="M554 0H27V22Q49 23 63 28Q80 33 91 42T110 68Q118 85 120 106T122 169V489Q122 531 120 552T110 590Q102 607 91 616T63 630Q49 634 27 636V658H530L560 486H536Q518 521 500 543T456 587Q440
601 411 611T337 622H288Q276 622 265 620T246 608Q239 598 238 587T236 560V358H287Q322 358 342 364T376 384Q395 403 400 422T408 465H431V214H408Q405 238 399 258T374 298Q360 312 341 317T287 322H236V144Q236 112 239 90T255 56Q266 45 284 41T326 36H347Q396
36 425 50T477 82Q513 111 534 137T573 195H594L554 0ZM424 844Q442 844 452 833T463 804Q463 784 447 773T406 752Q377 743 340 734T238 708L230 726L356 813Q378 829 393 836T424 844Z" />
<glyph unicode="&#xca;" glyph-name="Ecircumflex" horiz-adv-x="615" d="M554 0H27V22Q49 23 63 28Q80 33 91 42T110 68Q118 85 120 106T122 169V489Q122 531 120 552T110 590Q102 607 91 616T63 630Q49 634 27 636V658H530L560 486H536Q518 521 500 543T456
587Q440 601 411 611T337 622H288Q276 622 265 620T246 608Q239 598 238 587T236 560V358H287Q322 358 342 364T376 384Q395 403 400 422T408 465H431V214H408Q405 238 399 258T374 298Q360 312 341 317T287 322H236V144Q236 112 239 90T255 56Q266 45 284 41T326
36H347Q396 36 425 50T477 82Q513 111 534 137T573 195H594L554 0ZM169 977Q205 1012 231 1039T280 1093H330Q353 1067 379 1040T441 977L428 964L305 1033L181 964L169 977V977Z" />
<glyph unicode="&#xcb;" glyph-name="Edieresis" horiz-adv-x="615" d="M554 0H27V22Q49 23 63 28Q80 33 91 42T110 68Q118 85 120 106T122 169V489Q122 531 120 552T110 590Q102 607 91 616T63 630Q49 634 27 636V658H530L560 486H536Q518 521 500 543T456 587Q440
601 411 611T337 622H288Q276 622 265 620T246 608Q239 598 238 587T236 560V358H287Q322 358 342 364T376 384Q395 403 400 422T408 465H431V214H408Q405 238 399 258T374 298Q360 312 341 317T287 322H236V144Q236 112 239 90T255 56Q266 45 284 41T326 36H347Q396
36 425 50T477 82Q513 111 534 137T573 195H594L554 0ZM252 774Q252 751 237 736T200 720Q177 720 162 735T147 774Q147 796 162 811T200 827Q222 827 237 812T252 774ZM411 827Q433 827 448 812T463 774Q463 751 448 736T411 720Q388 720 373 735T358 774Q358
796 373 811T411 827Z" />
<glyph unicode="&#xcc;" glyph-name="Igrave" horiz-adv-x="359" d="M236 169Q236 127 238 106T249 68Q257 51 268 42T295 28Q310 23 332 22V0H27V22Q49 23 63 28Q80 33 91 42T110 68Q118 85 120 106T122 169V489Q122 531 120 552T110 590Q102 607 91 616T63 630Q49
634 27 636V658H332V636Q310 635 295 630Q279 625 268 616T249 590Q241 573 239 552T236 489V169ZM530 705Q467 722 429 732T362 752Q337 760 322 772T306 804Q306 821 316 832T345 844Q362 844 373 837T407 815Q433 798 463 778T539 723L530 705Z" />
<glyph unicode="&#xcd;" glyph-name="Iacute" horiz-adv-x="359" d="M236 169Q236 127 238 106T249 68Q257 51 268 42T295 28Q310 23 332 22V0H27V22Q49 23 63 28Q80 33 91 42T110 68Q118 85 120 106T122 169V489Q122 531 120 552T110 590Q102 607 91 616T63 630Q49
634 27 636V658H332V636Q310 635 295 630Q279 625 268 616T249 590Q241 573 239 552T236 489V169ZM525 844Q543 844 553 833T564 804Q564 784 548 773T507 752Q478 743 441 734T339 708L331 726L457 813Q479 829 494 836T525 844Z" />
<glyph unicode="&#xce;" glyph-name="Icircumflex" horiz-adv-x="359" d="M236 169Q236 127 238 106T249 68Q257 51 268 42T295 28Q310 23 332 22V0H27V22Q49 23 63 28Q80 33 91 42T110 68Q118 85 120 106T122 169V489Q122 531 120 552T110 590Q102 607 91 616T63
630Q49 634 27 636V658H332V636Q310 635 295 630Q279 625 268 616T249 590Q241 573 239 552T236 489V169ZM300 977Q336 1012 362 1039T411 1093H461Q484 1067 510 1040T572 977L559 964L436 1033L312 964L300 977V977Z" />
<glyph unicode="&#xcf;" glyph-name="Idieresis" horiz-adv-x="359" d="M236 169Q236 127 238 106T249 68Q257 51 268 42T295 28Q310 23 332 22V0H27V22Q49 23 63 28Q80 33 91 42T110 68Q118 85 120 106T122 169V489Q122 531 120 552T110 590Q102 607 91 616T63
630Q49 634 27 636V658H332V636Q310 635 295 630Q279 625 268 616T249 590Q241 573 239 552T236 489V169ZM382 774Q382 751 367 736T330 720Q307 720 292 735T277 774Q277 796 292 811T330 827Q352 827 367 812T382 774ZM541 827Q563 827 578 812T593 774Q593 751
578 736T541 720Q518 720 503 735T488 774Q488 796 503 811T541 827Z" />
<glyph unicode="&#xd0;" glyph-name="Eth" horiz-adv-x="708" d="M328 658Q388 658 433 647T511 619Q545 601 574 574T624 510T658 429T671 328Q671 274 660 229T628 148T579 85T516 40Q484 23 443 12T356 0H27V22Q49 23 63 28Q80 33 91 42T110 68Q118 85 120
106T122 169V321H27V357H122V489Q122 531 120 552T110 590Q102 607 91 616T63 630Q49 634 27 636V658H328ZM344 36Q376 36 410 47T471 85Q489 103 504 125T529 177T546 243T552 328Q552 425 528 485T467 579Q440 603 400 612T324 622H259Q251 622 247 622T240 617Q236
612 236 598V357H418V321H236V145Q236 113 239 91T255 56Q266 45 284 41T327 36H344Z" />
<glyph unicode="&#xd1;" glyph-name="Ntilde" horiz-adv-x="720" d="M562 -7L176 541H171V151Q171 110 175 91T188 60Q197 47 206 41T229 30Q239 27 247 26T269 22V0H26V22Q48 24 63 28Q76 32 85 38T106 58Q116 71 121 90T127 151V442Q127 498 122 527T108 577Q92
611 51 629Q43 632 36 633T17 636V658H238L565 188H569V507Q569 549 564 568T548 601Q537 614 528 620T504 630Q496 632 486 633T464 636V658H710V636Q687 633 670 628Q657 624 648 618T629 598Q621 586 617 567T612 507V-7H562ZM550 822Q544 804 536 786T515 752T488
728T452 718Q434 718 417 722T383 730T351 739T321 743Q300 743 285 735T259 703L240 710Q246 728 255 746T276 779T304 803T339 812Q357 812 373 808T406 800T438 791T470 787Q494 787 507 796T532 828L550 822V822Z" />
<glyph unicode="&#xd2;" glyph-name="Ograve" horiz-adv-x="706" d="M353 670Q419 670 476 645T576 575T643 466T668 328Q668 253 644 190T577 82T477 11T353 -14Q287 -14 230 11T130 81T63 190T38 328Q38 403 62 466T129 574T229 645T353 670ZM353 21Q378 21
400 26T444 46Q463 59 480 79T511 133T531 214T539 328Q539 394 532 442T511 523T481 576T444 610Q423 624 401 629T353 635Q327 635 305 630T261 610Q242 597 225 577T195 523T175 442T167 328Q167 262 174 214T195 133T225 80T261 46Q282 32 304 27T353 21ZM432
705Q369 722 331 732T264 752Q239 760 224 772T208 804Q208 821 218 832T247 844Q264 844 275 837T309 815Q335 798 365 778T441 723L432 705Z" />
<glyph unicode="&#xd3;" glyph-name="Oacute" horiz-adv-x="706" d="M353 670Q419 670 476 645T576 575T643 466T668 328Q668 253 644 190T577 82T477 11T353 -14Q287 -14 230 11T130 81T63 190T38 328Q38 403 62 466T129 574T229 645T353 670ZM353 21Q378 21
400 26T444 46Q463 59 480 79T511 133T531 214T539 328Q539 394 532 442T511 523T481 576T444 610Q423 624 401 629T353 635Q327 635 305 630T261 610Q242 597 225 577T195 523T175 442T167 328Q167 262 174 214T195 133T225 80T261 46Q282 32 304 27T353 21ZM457
844Q475 844 485 833T496 804Q496 784 480 773T439 752Q410 743 373 734T271 708L263 726L389 813Q411 829 426 836T457 844Z" />
<glyph unicode="&#xd4;" glyph-name="Ocircumflex" horiz-adv-x="706" d="M353 670Q419 670 476 645T576 575T643 466T668 328Q668 253 644 190T577 82T477 11T353 -14Q287 -14 230 11T130 81T63 190T38 328Q38 403 62 466T129 574T229 645T353 670ZM353 21Q378
21 400 26T444 46Q463 59 480 79T511 133T531 214T539 328Q539 394 532 442T511 523T481 576T444 610Q423 624 401 629T353 635Q327 635 305 630T261 610Q242 597 225 577T195 523T175 442T167 328Q167 262 174 214T195 133T225 80T261 46Q282 32 304 27T353 21ZM216
721Q252 756 278 783T327 837H377Q400 811 426 784T488 721L475 708L352 777L228 708L216 721V721Z" />
<glyph unicode="&#xd5;" glyph-name="Otilde" horiz-adv-x="706" d="M353 670Q419 670 476 645T576 575T643 466T668 328Q668 253 644 190T577 82T477 11T353 -14Q287 -14 230 11T130 81T63 190T38 328Q38 403 62 466T129 574T229 645T353 670ZM353 21Q378 21
400 26T444 46Q463 59 480 79T511 133T531 214T539 328Q539 394 532 442T511 523T481 576T444 610Q423 624 401 629T353 635Q327 635 305 630T261 610Q242 597 225 577T195 523T175 442T167 328Q167 262 174 214T195 133T225 80T261 46Q282 32 304 27T353 21ZM507
822Q501 804 493 786T472 752T445 728T409 718Q391 718 374 722T340 730T308 739T278 743Q257 743 242 735T216 703L197 710Q203 728 212 746T233 779T261 803T296 812Q314 812 330 808T363 800T395 791T427 787Q451 787 464 796T489 828L507 822V822Z" />
<glyph unicode="&#xd6;" glyph-name="Odieresis" horiz-adv-x="706" d="M353 670Q419 670 476 645T576 575T643 466T668 328Q668 253 644 190T577 82T477 11T353 -14Q287 -14 230 11T130 81T63 190T38 328Q38 403 62 466T129 574T229 645T353 670ZM353 21Q378
21 400 26T444 46Q463 59 480 79T511 133T531 214T539 328Q539 394 532 442T511 523T481 576T444 610Q423 624 401 629T353 635Q327 635 305 630T261 610Q242 597 225 577T195 523T175 442T167 328Q167 262 174 214T195 133T225 80T261 46Q282 32 304 27T353 21ZM300
774Q300 751 285 736T248 720Q225 720 210 735T195 774Q195 796 210 811T248 827Q270 827 285 812T300 774ZM459 827Q481 827 496 812T511 774Q511 751 496 736T459 720Q436 720 421 735T406 774Q406 796 421 811T459 827Z" />
<glyph unicode="&#xd7;" glyph-name="multiply" horiz-adv-x="425" d="M231 264L350 145L331 126L212 245L94 127L75 146L193 264L76 381L95 400L212 283L331 401L349 382L231 264Z" />
<glyph unicode="&#xd8;" glyph-name="Oslash" horiz-adv-x="706" d="M353 670Q393 670 429 661T498 634L548 718L573 704L523 619Q589 575 628 500T668 328Q668 253 644 190T577 82T477 11T353 -14Q305 -14 262 -1T181 37L124 -59L99 -46L158 54Q102 99 70 169T37
328Q37 403 61 466T128 574T229 645T353 670ZM353 21Q378 21 400 26T444 46Q463 59 480 79T511 133T531 214T539 328Q539 418 526 474T490 563L214 93Q225 77 236 66T261 46Q282 32 304 27T353 21ZM167 328Q167 256 175 206T198 123L471 587Q465 594 458 599T444
610Q423 624 401 629T353 635Q327 635 305 630T261 610Q241 597 224 577T195 523T175 442T167 328Z" />
<glyph unicode="&#xd9;" glyph-name="Ugrave" horiz-adv-x="714" d="M608 222Q608 172 601 137T573 69Q550 33 500 10T366 -13Q326 -13 288 -7T218 14T160 51T122 106Q116 119 113 137T107 174T103 212T102 247V492Q102 532 100 552T89 590Q81 607 70 616T43 630Q29
634 7 636V658H310V636Q288 634 275 630Q259 625 248 616T229 590Q221 573 219 553T216 493V211Q216 187 218 164T229 118Q238 92 253 75T288 47T333 32T383 27Q502 27 540 92Q554 116 559 146T565 216V507Q565 549 561 568T545 601Q534 614 524 620T501 630Q493
632 482 633T460 636V658H706V636Q683 633 666 628Q653 624 644 618T625 598Q617 586 613 567T608 507V222V222ZM457 705Q394 722 356 732T289 752Q264 760 249 772T233 804Q233 821 243 832T272 844Q289 844 300 837T334 815Q360 798 390 778T466 723L457 705Z"
/>
<glyph unicode="&#xda;" glyph-name="Uacute" horiz-adv-x="714" d="M608 222Q608 172 601 137T573 69Q550 33 500 10T366 -13Q326 -13 288 -7T218 14T160 51T122 106Q116 119 113 137T107 174T103 212T102 247V492Q102 532 100 552T89 590Q81 607 70 616T43 630Q29
634 7 636V658H310V636Q288 634 275 630Q259 625 248 616T229 590Q221 573 219 553T216 493V211Q216 187 218 164T229 118Q238 92 253 75T288 47T333 32T383 27Q502 27 540 92Q554 116 559 146T565 216V507Q565 549 561 568T545 601Q534 614 524 620T501 630Q493
632 482 633T460 636V658H706V636Q683 633 666 628Q653 624 644 618T625 598Q617 586 613 567T608 507V222V222ZM501 844Q519 844 529 833T540 804Q540 784 524 773T483 752Q454 743 417 734T315 708L307 726L433 813Q455 829 470 836T501 844Z" />
<glyph unicode="&#xdb;" glyph-name="Ucircumflex" horiz-adv-x="714" d="M608 222Q608 172 601 137T573 69Q550 33 500 10T366 -13Q326 -13 288 -7T218 14T160 51T122 106Q116 119 113 137T107 174T103 212T102 247V492Q102 532 100 552T89 590Q81 607 70 616T43
630Q29 634 7 636V658H310V636Q288 634 275 630Q259 625 248 616T229 590Q221 573 219 553T216 493V211Q216 187 218 164T229 118Q238 92 253 75T288 47T333 32T383 27Q502 27 540 92Q554 116 559 146T565 216V507Q565 549 561 568T545 601Q534 614 524 620T501
630Q493 632 482 633T460 636V658H706V636Q683 633 666 628Q653 624 644 618T625 598Q617 586 613 567T608 507V222V222ZM245 721Q281 756 307 783T356 837H406Q429 811 455 784T517 721L504 708L381 777L257 708L245 721V721Z" />
<glyph unicode="&#xdc;" glyph-name="Udieresis" horiz-adv-x="714" d="M608 222Q608 172 601 137T573 69Q550 33 500 10T366 -13Q326 -13 288 -7T218 14T160 51T122 106Q116 119 113 137T107 174T103 212T102 247V492Q102 532 100 552T89 590Q81 607 70 616T43
630Q29 634 7 636V658H310V636Q288 634 275 630Q259 625 248 616T229 590Q221 573 219 553T216 493V211Q216 187 218 164T229 118Q238 92 253 75T288 47T333 32T383 27Q502 27 540 92Q554 116 559 146T565 216V507Q565 549 561 568T545 601Q534 614 524 620T501
630Q493 632 482 633T460 636V658H706V636Q683 633 666 628Q653 624 644 618T625 598Q617 586 613 567T608 507V222V222ZM328 774Q328 751 313 736T276 720Q253 720 238 735T223 774Q223 796 238 811T276 827Q298 827 313 812T328 774ZM487 827Q509 827 524 812T539
774Q539 751 524 736T487 720Q464 720 449 735T434 774Q434 796 449 811T487 827Z" />
<glyph unicode="&#xdd;" glyph-name="Yacute" horiz-adv-x="605" d="M98 538Q82 566 69 584T44 612T20 628T-8 636V658H286V636Q253 633 238 628Q206 617 209 592T235 525L338 336H343L436 507Q454 540 460 558T467 594Q467 611 461 617T440 629Q432 632 421 633T401
636V658H614V636Q590 633 572 624T539 598T510 558T477 502L357 279V169Q357 127 359 106T369 68Q377 51 388 42T416 28Q429 23 452 22V0H147V22Q169 23 184 28Q200 33 211 42T230 68Q238 85 240 106T243 169V279L98 538ZM460 844Q478 844 488 833T499 804Q499
784 483 773T442 752Q413 743 376 734T274 708L266 726L392 813Q414 829 429 836T460 844Z" />
<glyph unicode="&#xde;" glyph-name="Thorn" horiz-adv-x="574" d="M27 22Q49 23 63 28Q80 33 91 42T110 68Q118 85 120 106T122 169V489Q122 531 120 552T110 590Q102 607 91 616T63 630Q49 634 27 636V658H332V636Q310 635 295 630Q279 625 268 616T249 590Q242
576 240 560T237 515H322Q375 515 418 506T493 477T542 426T560 353Q560 299 540 266T485 211Q459 194 415 184T302 173H236V166Q236 146 236 132T238 106T242 86T249 68Q257 51 268 42T295 28Q310 23 334 22V0H27V22ZM306 210Q344 211 373 219T419 253Q433 270
438 294T444 350Q444 417 414 447T313 478H308Q283 478 270 474T250 464Q245 459 241 452T236 428V210H306Z" />
<glyph unicode="&#xdf;" glyph-name="germandbls" horiz-adv-x="571" d="M411 -7Q377 -7 353 3T310 33H306L291 3H272L267 156H287Q306 94 337 59T411 23Q444 23 461 39T478 84Q478 103 471 115T452 136T422 154T383 176Q360 189 339 203T302 234T276 269T266
313Q266 342 276 362T300 398T332 428T364 461T389 502T399 560Q399 578 396 596T383 628T353 650T300 659Q262 659 241 648T208 620Q198 607 193 584T187 534V110Q187 96 188 82T191 59Q194 46 198 40T211 28Q222 22 235 21V0H27V21Q43 22 56 29Q77 39 83 63Q86
72 86 84T87 110V391H23V428H87V496Q87 526 92 549T106 589T125 619T145 641Q163 658 203 673T300 689Q388 689 435 658T482 575Q482 534 460 506T411 454T362 410T340 360Q340 344 345 333T362 313T389 293T429 269Q453 254 476 240T516 210T543 172T554 120Q554
58 514 26T411 -7Z" />
<glyph unicode="&#xe0;" glyph-name="agrave" horiz-adv-x="431" d="M426 8Q418 3 394 -3T338 -10Q318 -10 306 -7T286 1Q277 7 270 19T262 54H256Q251 44 242 33T220 13T187 -3T143 -10Q120 -10 99 -3T61 17T36 51T26 99Q26 120 33 140T58 176Q80 196 104 206T166
227Q208 238 227 248T255 272L256 355Q256 385 243 397T204 409Q190 409 179 405T160 395Q153 390 147 378T137 346Q131 304 91 304Q72 304 60 315T48 345Q48 369 67 390Q84 408 120 423T204 438Q274 438 315 418T356 344Q356 333 356 303T355 237T355 165T354
111Q354 76 356 61T363 39Q371 25 390 25Q398 25 406 26T419 29L426 8ZM255 237Q248 230 233 223T198 206Q180 198 166 190T142 171Q133 160 128 144T122 107Q122 66 139 51T180 36Q206 36 225 49T252 88L255 237ZM278 485Q251 503 231 517T194 541T166 560T142
578Q123 592 112 604T101 636Q101 652 112 662T141 672Q161 672 176 653T211 608Q220 595 227 586T244 565T264 538T292 498L278 485Z" />
<glyph unicode="&#xe1;" glyph-name="aacute" horiz-adv-x="431" d="M426 8Q418 3 394 -3T338 -10Q318 -10 306 -7T286 1Q277 7 270 19T262 54H256Q251 44 242 33T220 13T187 -3T143 -10Q120 -10 99 -3T61 17T36 51T26 99Q26 120 33 140T58 176Q80 196 104 206T166
227Q208 238 227 248T255 272L256 355Q256 385 243 397T204 409Q190 409 179 405T160 395Q153 390 147 378T137 346Q131 304 91 304Q72 304 60 315T48 345Q48 369 67 390Q84 408 120 423T204 438Q274 438 315 418T356 344Q356 333 356 303T355 237T355 165T354
111Q354 76 356 61T363 39Q371 25 390 25Q398 25 406 26T419 29L426 8ZM255 237Q248 230 233 223T198 206Q180 198 166 190T142 171Q133 160 128 144T122 107Q122 66 139 51T180 36Q206 36 225 49T252 88L255 237ZM151 498Q168 522 179 537T199 564T216 585T233
608Q251 633 266 652T303 672Q320 672 331 662T342 636Q342 616 332 604T301 578Q289 569 277 561T249 542T213 517T165 485L151 498V498Z" />
<glyph unicode="&#xe2;" glyph-name="acircumflex" horiz-adv-x="431" d="M426 8Q418 3 394 -3T338 -10Q318 -10 306 -7T286 1Q277 7 270 19T262 54H256Q251 44 242 33T220 13T187 -3T143 -10Q120 -10 99 -3T61 17T36 51T26 99Q26 120 33 140T58 176Q80 196 104
206T166 227Q208 238 227 248T255 272L256 355Q256 385 243 397T204 409Q190 409 179 405T160 395Q153 390 147 378T137 346Q131 304 91 304Q72 304 60 315T48 345Q48 369 67 390Q84 408 120 423T204 438Q274 438 315 418T356 344Q356 333 356 303T355 237T355
165T354 111Q354 76 356 61T363 39Q371 25 390 25Q398 25 406 26T419 29L426 8ZM255 237Q248 230 233 223T198 206Q180 198 166 190T142 171Q133 160 128 144T122 107Q122 66 139 51T180 36Q206 36 225 49T252 88L255 237ZM233 915Q250 889 277 852T338 769L322
755L209 852L95 755L79 769Q112 814 139 851T184 915H233V915Z" />
<glyph unicode="&#xe3;" glyph-name="atilde" horiz-adv-x="431" d="M426 8Q418 3 394 -3T338 -10Q318 -10 306 -7T286 1Q277 7 270 19T262 54H256Q251 44 242 33T220 13T187 -3T143 -10Q120 -10 99 -3T61 17T36 51T26 99Q26 120 33 140T58 176Q80 196 104 206T166
227Q208 238 227 248T255 272L256 355Q256 385 243 397T204 409Q190 409 179 405T160 395Q153 390 147 378T137 346Q131 304 91 304Q72 304 60 315T48 345Q48 369 67 390Q84 408 120 423T204 438Q274 438 315 418T356 344Q356 333 356 303T355 237T355 165T354
111Q354 76 356 61T363 39Q371 25 390 25Q398 25 406 26T419 29L426 8ZM255 237Q248 230 233 223T198 206Q180 198 166 190T142 171Q133 160 128 144T122 107Q122 66 139 51T180 36Q206 36 225 49T252 88L255 237ZM371 635Q365 617 356 599T335 565T308 541T273
532Q255 532 238 536T206 545T176 555T146 559Q124 559 110 550T84 519L65 526Q71 544 80 562T101 595T128 619T163 628Q181 628 197 624T228 615T258 605T289 601Q313 601 327 610T352 642L371 635Z" />
<glyph unicode="&#xe4;" glyph-name="adieresis" horiz-adv-x="431" d="M426 8Q418 3 394 -3T338 -10Q318 -10 306 -7T286 1Q277 7 270 19T262 54H256Q251 44 242 33T220 13T187 -3T143 -10Q120 -10 99 -3T61 17T36 51T26 99Q26 120 33 140T58 176Q80 196 104
206T166 227Q208 238 227 248T255 272L256 355Q256 385 243 397T204 409Q190 409 179 405T160 395Q153 390 147 378T137 346Q131 304 91 304Q72 304 60 315T48 345Q48 369 67 390Q84 408 120 423T204 438Q274 438 315 418T356 344Q356 333 356 303T355 237T355
165T354 111Q354 76 356 61T363 39Q371 25 390 25Q398 25 406 26T419 29L426 8ZM255 237Q248 230 233 223T198 206Q180 198 166 190T142 171Q133 160 128 144T122 107Q122 66 139 51T180 36Q206 36 225 49T252 88L255 237ZM65 831Q65 851 79 865T114 880Q134 880
148 866T163 831Q163 811 149 797T114 782Q93 782 79 796T65 831ZM302 782Q281 782 267 796T253 831Q253 851 267 865T302 880Q322 880 336 866T351 831Q351 811 337 797T302 782Z" />
<glyph unicode="&#xe5;" glyph-name="aring" horiz-adv-x="431" d="M426 8Q418 3 394 -3T338 -10Q318 -10 306 -7T286 1Q277 7 270 19T262 54H256Q251 44 242 33T220 13T187 -3T143 -10Q120 -10 99 -3T61 17T36 51T26 99Q26 120 33 140T58 176Q80 196 104 206T166
227Q208 238 227 248T255 272L256 355Q256 385 243 397T204 409Q190 409 179 405T160 395Q153 390 147 378T137 346Q131 304 91 304Q72 304 60 315T48 345Q48 369 67 390Q84 408 120 423T204 438Q274 438 315 418T356 344Q356 333 356 303T355 237T355 165T354
111Q354 76 356 61T363 39Q371 25 390 25Q398 25 406 26T419 29L426 8ZM255 237Q248 230 233 223T198 206Q180 198 166 190T142 171Q133 160 128 144T122 107Q122 66 139 51T180 36Q206 36 225 49T252 88L255 237ZM209 505Q177 505 152 526T127 588Q127 629 152
650T209 672Q241 672 266 651T291 588Q291 548 266 527T209 505ZM153 588Q153 559 169 543T209 527Q232 527 248 543T265 588Q265 617 249 633T209 650Q186 650 170 634T153 588Z" />
<glyph unicode="&#xe6;" glyph-name="ae" horiz-adv-x="662" d="M636 117Q616 62 576 26T462 -10Q439 -10 418 -6T379 6T345 22T320 40Q307 51 299 61T282 88H281Q265 34 229 12T147 -10Q123 -10 102 -3T65 17T39 52T29 100Q29 121 36 141T61 177Q83 197 107 207T169
228Q211 239 232 249T262 273Q262 276 262 287T262 312T263 338T263 356Q263 386 251 398T211 410Q182 410 165 396Q148 384 142 347Q134 304 96 304Q77 304 65 315T53 345Q53 358 57 369T70 389Q88 409 126 424T211 438Q249 438 279 427T330 392Q352 412 387 425T457
438Q505 438 538 423T594 384T626 331T636 274Q636 260 635 247T633 225H356V213Q356 164 365 124T398 60Q412 46 431 37T478 28Q508 28 530 37T567 62T593 95T611 129L636 117ZM400 387Q384 371 373 341T357 257H507Q524 257 531 266T539 298Q539 330 534 351T517
386Q507 397 494 403T458 409Q444 409 429 404T400 387ZM261 238Q254 231 238 224T201 207Q182 199 168 191T145 172Q126 148 126 108Q126 67 143 52T183 37Q209 37 230 56T259 100L261 238Z" />
<glyph unicode="&#xe7;" glyph-name="ccedilla" horiz-adv-x="436" d="M320 -113Q320 -136 311 -152T286 -178T250 -192T207 -197Q183 -197 159 -191T119 -173L131 -150Q145 -160 164 -165T202 -170Q228 -170 244 -158T261 -118Q261 -95 248 -85T217 -74Q206 -74
198 -77T182 -86L157 -74L183 -3Q143 6 110 32Q72 61 50 106T27 215Q27 268 45 309T95 379T165 423T246 438Q278 438 301 434T340 423T367 408T386 391Q407 369 407 342Q407 316 395 306T363 295Q338 295 327 311T308 355Q300 384 287 396T246 409Q229 409 213
404T186 388Q162 368 149 326T135 215Q135 147 149 109T189 51Q218 30 253 30Q286 30 308 38T346 59T370 89T386 124L414 113Q397 58 355 24T238 -10Q224 -10 211 -8L194 -57Q214 -47 239 -47Q277 -47 298 -65T320 -113Z" />
<glyph unicode="&#xe8;" glyph-name="egrave" horiz-adv-x="446" d="M420 117Q400 62 356 26T240 -10Q196 -10 162 3T102 37Q64 69 46 115T27 214Q27 265 45 306T92 376T159 422T237 438Q285 438 319 423T375 384T408 331T419 274Q419 260 418 247T416 225H135V217Q135
165 144 125T178 60Q192 45 211 37T259 28Q289 28 311 37T350 62T377 95T395 129L420 117ZM180 387Q163 370 151 340T136 257H293Q308 257 315 266T322 298Q322 330 317 351T299 386Q281 409 238 409Q224 409 208 404T180 387ZM306 485Q279 503 259 517T222 541T194
560T170 578Q151 592 140 604T129 636Q129 652 140 662T169 672Q189 672 204 653T239 608Q248 595 255 586T272 565T292 538T320 498L306 485Z" />
<glyph unicode="&#xe9;" glyph-name="eacute" horiz-adv-x="446" d="M420 117Q400 62 356 26T240 -10Q196 -10 162 3T102 37Q64 69 46 115T27 214Q27 265 45 306T92 376T159 422T237 438Q285 438 319 423T375 384T408 331T419 274Q419 260 418 247T416 225H135V217Q135
165 144 125T178 60Q192 45 211 37T259 28Q289 28 311 37T350 62T377 95T395 129L420 117ZM180 387Q163 370 151 340T136 257H293Q308 257 315 266T322 298Q322 330 317 351T299 386Q281 409 238 409Q224 409 208 404T180 387ZM164 498Q181 522 192 537T212 564T229
585T246 608Q264 633 279 652T316 672Q333 672 344 662T355 636Q355 616 345 604T314 578Q302 569 290 561T262 542T226 517T178 485L164 498V498Z" />
<glyph unicode="&#xea;" glyph-name="ecircumflex" horiz-adv-x="446" d="M420 117Q400 62 356 26T240 -10Q196 -10 162 3T102 37Q64 69 46 115T27 214Q27 265 45 306T92 376T159 422T237 438Q285 438 319 423T375 384T408 331T419 274Q419 260 418 247T416 225H135V217Q135
165 144 125T178 60Q192 45 211 37T259 28Q289 28 311 37T350 62T377 95T395 129L420 117ZM180 387Q163 370 151 340T136 257H293Q308 257 315 266T322 298Q322 330 317 351T299 386Q281 409 238 409Q224 409 208 404T180 387ZM263 915Q280 889 307 852T368 769L352
755L239 852L125 755L109 769Q142 814 169 851T214 915H263V915Z" />
<glyph unicode="&#xeb;" glyph-name="edieresis" horiz-adv-x="446" d="M420 117Q400 62 356 26T240 -10Q196 -10 162 3T102 37Q64 69 46 115T27 214Q27 265 45 306T92 376T159 422T237 438Q285 438 319 423T375 384T408 331T419 274Q419 260 418 247T416 225H135V217Q135
165 144 125T178 60Q192 45 211 37T259 28Q289 28 311 37T350 62T377 95T395 129L420 117ZM180 387Q163 370 151 340T136 257H293Q308 257 315 266T322 298Q322 330 317 351T299 386Q281 409 238 409Q224 409 208 404T180 387ZM94 831Q94 851 108 865T143 880Q163
880 177 866T192 831Q192 811 178 797T143 782Q122 782 108 796T94 831ZM331 782Q310 782 296 796T282 831Q282 851 296 865T331 880Q351 880 365 866T380 831Q380 811 366 797T331 782Z" />
<glyph unicode="&#xec;" glyph-name="igrave" horiz-adv-x="268" d="M188 111Q188 97 188 85T191 64Q198 40 219 29Q225 27 232 25T248 22V0H28V22Q36 23 43 25T56 29Q78 40 84 64Q87 73 87 85T88 111V323Q88 335 88 349T84 371Q79 387 66 395Q50 405 26 406V428H183Q190
428 190 421Q189 404 189 383T188 331V111ZM453 485Q426 503 406 517T369 541T341 560T317 578Q298 592 287 604T276 636Q276 652 287 662T316 672Q336 672 351 653T386 608Q395 595 402 586T419 565T439 538T467 498L453 485Z" />
<glyph unicode="&#xed;" glyph-name="iacute" horiz-adv-x="268" d="M313 498Q330 522 341 537T361 564T378 585T395 608Q413 633 428 652T465 672Q482 672 493 662T504 636Q504 616 494 604T463 578Q451 569 439 561T411 542T375 517T327 485L313 498V498ZM188
111Q188 97 188 85T191 64Q198 40 219 29Q225 27 232 25T248 22V0H28V22Q36 23 43 25T56 29Q78 40 84 64Q87 73 87 85T88 111V323Q88 335 88 349T84 371Q79 387 66 395Q50 405 26 406V428H183Q190 428 190 421Q189 404 189 383T188 331V111Z" />
<glyph unicode="&#xee;" glyph-name="icircumflex" horiz-adv-x="268" d="M409 915Q426 889 453 852T514 769L498 755L385 852L271 755L255 769Q288 814 315 851T360 915H409V915ZM188 111Q188 97 188 85T191 64Q198 40 219 29Q225 27 232 25T248 22V0H28V22Q36
23 43 25T56 29Q78 40 84 64Q87 73 87 85T88 111V323Q88 335 88 349T84 371Q79 387 66 395Q50 405 26 406V428H183Q190 428 190 421Q189 404 189 383T188 331V111Z" />
<glyph unicode="&#xef;" glyph-name="idieresis" horiz-adv-x="268" d="M241 831Q241 851 255 865T290 880Q310 880 324 866T339 831Q339 811 325 797T290 782Q269 782 255 796T241 831ZM478 782Q457 782 443 796T429 831Q429 851 443 865T478 880Q498 880 512
866T527 831Q527 811 513 797T478 782ZM188 111Q188 97 188 85T191 64Q198 40 219 29Q225 27 232 25T248 22V0H28V22Q36 23 43 25T56 29Q78 40 84 64Q87 73 87 85T88 111V323Q88 335 88 349T84 371Q79 387 66 395Q50 405 26 406V428H183Q190 428 190 421Q189 404
189 383T188 331V111Z" />
<glyph unicode="&#xf0;" glyph-name="eth" horiz-adv-x="489" d="M124 514L246 574Q221 601 192 623T128 667L145 684Q177 670 214 648T288 594L395 647L408 624L309 575Q340 546 367 511T414 434T447 344T459 242Q459 177 442 130T396 51T327 5T242 -10Q197 -10
158 5T90 50T44 121T27 215Q27 267 44 308T92 378T160 422T241 438Q265 438 288 432T331 406Q320 452 304 488T264 553L137 491L124 514ZM349 220Q350 282 339 320T308 381Q294 398 276 403T242 408Q226 408 209 402T178 382Q135 338 135 215Q135 153 146 112T177
47Q191 31 208 26T242 20Q258 20 275 25T307 47Q327 70 337 114T349 220Z" />
<glyph unicode="&#xf1;" glyph-name="ntilde" horiz-adv-x="540" d="M460 111Q460 97 460 85T464 64Q470 40 491 29Q497 27 504 25T520 22V0H304V22Q312 23 319 25T331 29Q343 35 348 43T357 65Q359 74 359 85T360 111V325Q360 360 342 377Q328 390 297 390Q271
390 248 378T211 346Q200 331 194 309T188 263V111Q188 97 188 86T191 65Q194 51 199 43T217 29Q222 27 229 25T244 22V0H28V22Q36 23 43 25T56 29Q78 40 84 64Q87 73 87 85T88 111V323Q88 335 88 349T84 371Q79 387 66 395Q50 405 26 406V428H181Q187 428 187
421Q187 420 187 411T186 390T186 369T185 358H192Q211 389 244 410Q286 438 337 438Q363 438 384 431T420 413Q460 382 460 323V111V111ZM429 635Q423 617 414 599T393 565T366 541T331 532Q313 532 296 536T264 545T234 555T204 559Q182 559 168 550T142 519L123
526Q129 544 138 562T159 595T186 619T221 628Q239 628 255 624T286 615T316 605T347 601Q371 601 385 610T410 642L429 635Z" />
<glyph unicode="&#xf2;" glyph-name="ograve" horiz-adv-x="485" d="M27 215Q27 267 44 308T92 378T161 422T243 438Q286 438 325 423T393 379T440 309T458 215Q458 163 441 122T394 51T325 6T243 -10Q200 -10 161 5T92 50T45 121T27 215ZM350 215Q350 285 338
327T299 390Q288 399 273 403T243 408Q210 408 186 390Q161 370 148 328T135 215Q135 144 148 102T186 40Q211 20 243 20Q276 20 299 40Q325 60 337 102T350 215ZM311 485Q284 503 264 517T227 541T199 560T175 578Q156 592 145 604T134 636Q134 652 145 662T174
672Q194 672 209 653T244 608Q253 595 260 586T277 565T297 538T325 498L311 485Z" />
<glyph unicode="&#xf3;" glyph-name="oacute" horiz-adv-x="485" d="M27 215Q27 267 44 308T92 378T161 422T243 438Q286 438 325 423T393 379T440 309T458 215Q458 163 441 122T394 51T325 6T243 -10Q200 -10 161 5T92 50T45 121T27 215ZM350 215Q350 285 338
327T299 390Q288 399 273 403T243 408Q210 408 186 390Q161 370 148 328T135 215Q135 144 148 102T186 40Q211 20 243 20Q276 20 299 40Q325 60 337 102T350 215ZM161 498Q178 522 189 537T209 564T226 585T243 608Q261 633 276 652T313 672Q330 672 341 662T352
636Q352 616 342 604T311 578Q299 569 287 561T259 542T223 517T175 485L161 498V498Z" />
<glyph unicode="&#xf4;" glyph-name="ocircumflex" horiz-adv-x="485" d="M27 215Q27 267 44 308T92 378T161 422T243 438Q286 438 325 423T393 379T440 309T458 215Q458 163 441 122T394 51T325 6T243 -10Q200 -10 161 5T92 50T45 121T27 215ZM350 215Q350 285
338 327T299 390Q288 399 273 403T243 408Q210 408 186 390Q161 370 148 328T135 215Q135 144 148 102T186 40Q211 20 243 20Q276 20 299 40Q325 60 337 102T350 215ZM267 915Q284 889 311 852T372 769L356 755L243 852L129 755L113 769Q146 814 173 851T218 915H267V915Z"
/>
<glyph unicode="&#xf5;" glyph-name="otilde" horiz-adv-x="485" d="M27 215Q27 267 44 308T92 378T161 422T243 438Q286 438 325 423T393 379T440 309T458 215Q458 163 441 122T394 51T325 6T243 -10Q200 -10 161 5T92 50T45 121T27 215ZM350 215Q350 285 338
327T299 390Q288 399 273 403T243 408Q210 408 186 390Q161 370 148 328T135 215Q135 144 148 102T186 40Q211 20 243 20Q276 20 299 40Q325 60 337 102T350 215ZM396 635Q390 617 381 599T360 565T333 541T298 532Q280 532 263 536T231 545T201 555T171 559Q149
559 135 550T109 519L90 526Q96 544 105 562T126 595T153 619T188 628Q206 628 222 624T253 615T283 605T314 601Q338 601 352 610T377 642L396 635Z" />
<glyph unicode="&#xf6;" glyph-name="odieresis" horiz-adv-x="485" d="M27 215Q27 267 44 308T92 378T161 422T243 438Q286 438 325 423T393 379T440 309T458 215Q458 163 441 122T394 51T325 6T243 -10Q200 -10 161 5T92 50T45 121T27 215ZM350 215Q350 285
338 327T299 390Q288 399 273 403T243 408Q210 408 186 390Q161 370 148 328T135 215Q135 144 148 102T186 40Q211 20 243 20Q276 20 299 40Q325 60 337 102T350 215ZM99 831Q99 851 113 865T148 880Q168 880 182 866T197 831Q197 811 183 797T148 782Q127 782
113 796T99 831ZM336 782Q315 782 301 796T287 831Q287 851 301 865T336 880Q356 880 370 866T385 831Q385 811 371 797T336 782Z" />
<glyph unicode="&#xf7;" glyph-name="divide" horiz-adv-x="435" d="M218 449Q241 449 255 434T270 396Q270 374 256 359T218 344Q196 344 181 359T166 396Q166 419 181 434T218 449ZM45 251V277H390V251H45ZM218 192Q241 192 255 177T270 140Q270 118 256 103T218
88Q196 88 181 103T166 140Q166 162 181 177T218 192Z" />
<glyph unicode="&#xf8;" glyph-name="oslash" horiz-adv-x="485" d="M27 215Q27 267 44 308T92 378T161 422T243 438Q290 438 331 420L369 494L394 482L356 407Q401 380 429 331T458 215Q458 163 441 122T394 51T325 6T243 -10Q220 -10 198 -5T155 8L117 -67L91
-56L130 21Q84 48 56 97T27 215ZM135 215Q135 167 141 133T158 76L311 378V379L299 390Q288 399 273 403T243 408Q210 408 186 390Q161 370 148 328T135 215ZM350 215Q350 306 328 351L176 49L186 40Q211 20 243 20Q276 20 299 40Q325 60 337 102T350 215Z" />
<glyph unicode="&#xf9;" glyph-name="ugrave" horiz-adv-x="529" d="M449 111Q449 80 453 64Q459 40 481 29Q486 27 495 25T513 22V0H363Q355 0 355 9Q355 11 355 20T354 41V68H348Q337 49 328 38T305 16Q288 4 266 -3T215 -10Q185 -10 156 -2T107 30Q93 47 86
68T78 125V323Q78 335 78 349T74 371Q69 387 56 395Q40 405 16 406V428H174Q181 428 181 421Q180 404 179 383T178 327V126Q178 103 181 87T196 58Q208 45 221 40T252 35Q268 35 283 41T312 60Q326 71 335 88T346 129Q348 146 349 158T350 192V323Q350 335 349
349T346 371Q340 387 327 395Q311 405 286 406V428H446Q452 428 452 421Q451 404 450 383T449 327V111V111ZM320 485Q293 503 273 517T236 541T208 560T184 578Q165 592 154 604T143 636Q143 652 154 662T183 672Q203 672 218 653T253 608Q262 595 269 586T286
565T306 538T334 498L320 485Z" />
<glyph unicode="&#xfa;" glyph-name="uacute" horiz-adv-x="529" d="M449 111Q449 80 453 64Q459 40 481 29Q486 27 495 25T513 22V0H363Q355 0 355 9Q355 11 355 20T354 41V68H348Q337 49 328 38T305 16Q288 4 266 -3T215 -10Q185 -10 156 -2T107 30Q93 47 86
68T78 125V323Q78 335 78 349T74 371Q69 387 56 395Q40 405 16 406V428H174Q181 428 181 421Q180 404 179 383T178 327V126Q178 103 181 87T196 58Q208 45 221 40T252 35Q268 35 283 41T312 60Q326 71 335 88T346 129Q348 146 349 158T350 192V323Q350 335 349
349T346 371Q340 387 327 395Q311 405 286 406V428H446Q452 428 452 421Q451 404 450 383T449 327V111V111ZM195 498Q212 522 223 537T243 564T260 585T277 608Q295 633 310 652T347 672Q364 672 375 662T386 636Q386 616 376 604T345 578Q333 569 321 561T293
542T257 517T209 485L195 498V498Z" />
<glyph unicode="&#xfb;" glyph-name="ucircumflex" horiz-adv-x="529" d="M449 111Q449 80 453 64Q459 40 481 29Q486 27 495 25T513 22V0H363Q355 0 355 9Q355 11 355 20T354 41V68H348Q337 49 328 38T305 16Q288 4 266 -3T215 -10Q185 -10 156 -2T107 30Q93
47 86 68T78 125V323Q78 335 78 349T74 371Q69 387 56 395Q40 405 16 406V428H174Q181 428 181 421Q180 404 179 383T178 327V126Q178 103 181 87T196 58Q208 45 221 40T252 35Q268 35 283 41T312 60Q326 71 335 88T346 129Q348 146 349 158T350 192V323Q350 335
349 349T346 371Q340 387 327 395Q311 405 286 406V428H446Q452 428 452 421Q451 404 450 383T449 327V111V111ZM277 915Q294 889 321 852T382 769L366 755L253 852L139 755L123 769Q156 814 183 851T228 915H277V915Z" />
<glyph unicode="&#xfc;" glyph-name="udieresis" horiz-adv-x="529" d="M449 111Q449 80 453 64Q459 40 481 29Q486 27 495 25T513 22V0H363Q355 0 355 9Q355 11 355 20T354 41V68H348Q337 49 328 38T305 16Q288 4 266 -3T215 -10Q185 -10 156 -2T107 30Q93 47
86 68T78 125V323Q78 335 78 349T74 371Q69 387 56 395Q40 405 16 406V428H174Q181 428 181 421Q180 404 179 383T178 327V126Q178 103 181 87T196 58Q208 45 221 40T252 35Q268 35 283 41T312 60Q326 71 335 88T346 129Q348 146 349 158T350 192V323Q350 335 349
349T346 371Q340 387 327 395Q311 405 286 406V428H446Q452 428 452 421Q451 404 450 383T449 327V111V111ZM108 831Q108 851 122 865T157 880Q177 880 191 866T206 831Q206 811 192 797T157 782Q136 782 122 796T108 831ZM345 782Q324 782 310 796T296 831Q296
851 310 865T345 880Q365 880 379 866T394 831Q394 811 380 797T345 782Z" />
<glyph unicode="&#xfd;" glyph-name="yacute" horiz-adv-x="457" d="M227 -55Q215 -84 202 -112T171 -164Q154 -184 130 -198T71 -213Q39 -213 17 -197T-5 -152Q-5 -132 8 -118T39 -104Q58 -104 69 -112T89 -134Q99 -147 104 -151T121 -156Q141 -156 156 -128T191
-55Q196 -41 199 -31T202 -9Q202 8 196 20L90 281Q78 310 70 329T57 358Q49 375 44 382T30 396Q22 401 12 403T-4 406V428H226V406Q218 405 207 404T190 399Q182 395 177 388T172 367Q172 353 177 338T191 299L259 122H264L334 295Q339 309 342 318T348 335T352
350T353 366Q353 380 348 387T334 399Q326 403 318 404T301 406V428H461V406Q455 405 447 404T430 397Q424 393 419 388T406 373Q399 363 391 344T371 299L227 -55V-55ZM202 498Q219 522 230 537T250 564T267 585T284 608Q302 633 317 652T354 672Q371 672 382
662T393 636Q393 616 383 604T352 578Q340 569 328 561T300 542T264 517T216 485L202 498V498Z" />
<glyph unicode="&#xfe;" glyph-name="thorn" horiz-adv-x="510" d="M12 -192Q28 -191 41 -184Q62 -174 68 -150Q71 -141 71 -129T72 -103V579Q72 591 72 605T68 627Q64 642 50 651Q34 661 10 662V684H165Q171 684 171 677V368H174Q217 438 302 438Q334 438 366
427T424 389T466 320T482 214Q482 156 464 114T417 44T351 3T276 -10Q248 -10 223 -2T178 24H172V-103Q172 -117 172 -129T176 -150Q182 -174 204 -184Q215 -191 240 -192V-213H12V-192ZM373 214Q373 266 366 301T347 357T317 388T279 398Q256 398 240 392T206
369Q195 358 184 336T172 278V158Q172 120 177 97T196 57Q210 40 229 31T269 22Q323 22 348 72T373 214Z" />
<glyph unicode="&#xff;" glyph-name="ydieresis" horiz-adv-x="457" d="M227 -55Q215 -84 202 -112T171 -164Q154 -184 130 -198T71 -213Q39 -213 17 -197T-5 -152Q-5 -132 8 -118T39 -104Q58 -104 69 -112T89 -134Q99 -147 104 -151T121 -156Q141 -156 156 -128T191
-55Q196 -41 199 -31T202 -9Q202 8 196 20L90 281Q78 310 70 329T57 358Q49 375 44 382T30 396Q22 401 12 403T-4 406V428H226V406Q218 405 207 404T190 399Q182 395 177 388T172 367Q172 353 177 338T191 299L259 122H264L334 295Q339 309 342 318T348 335T352
350T353 366Q353 380 348 387T334 399Q326 403 318 404T301 406V428H461V406Q455 405 447 404T430 397Q424 393 419 388T406 373Q399 363 391 344T371 299L227 -55V-55ZM114 831Q114 851 128 865T163 880Q183 880 197 866T212 831Q212 811 198 797T163 782Q142
782 128 796T114 831ZM351 782Q330 782 316 796T302 831Q302 851 316 865T351 880Q371 880 385 866T400 831Q400 811 386 797T351 782Z" />
<glyph unicode="&#x100;" glyph-name="Amacron" horiz-adv-x="653" d="M384 220H182L160 157Q152 136 148 118T143 82Q143 62 151 49T174 31Q183 27 195 25T221 22V0H0V22Q14 24 24 26T45 35Q65 46 80 73Q95 100 118 162L303 662H353L530 159Q539 133 549 112T569
77Q580 60 592 50T618 34Q636 26 653 22V0H348V22Q365 24 375 26T392 31Q408 36 418 44T428 75Q428 97 420 121T403 168L384 220ZM195 256H372L287 496H280L195 256ZM185 722V768H463V722H185Z" />
<glyph unicode="&#x101;" glyph-name="amacron" horiz-adv-x="431" d="M426 8Q418 3 394 -3T338 -10Q318 -10 306 -7T286 1Q277 7 270 19T262 54H256Q251 44 242 33T220 13T187 -3T143 -10Q120 -10 99 -3T61 17T36 51T26 99Q26 120 33 140T58 176Q80 196 104 206T166
227Q208 238 227 248T255 272L256 355Q256 385 243 397T204 409Q190 409 179 405T160 395Q153 390 147 378T137 346Q131 304 91 304Q72 304 60 315T48 345Q48 369 67 390Q84 408 120 423T204 438Q274 438 315 418T356 344Q356 333 356 303T355 237T355 165T354
111Q354 76 356 61T363 39Q371 25 390 25Q398 25 406 26T419 29L426 8ZM255 237Q248 230 233 223T198 206Q180 198 166 190T142 171Q133 160 128 144T122 107Q122 66 139 51T180 36Q206 36 225 49T252 88L255 237ZM87 551V597H331V551H87Z" />
<glyph unicode="&#x102;" glyph-name="Abreve" horiz-adv-x="653" d="M384 220H182L160 157Q152 136 148 118T143 82Q143 62 151 49T174 31Q183 27 195 25T221 22V0H0V22Q14 24 24 26T45 35Q65 46 80 73Q95 100 118 162L303 662H353L530 159Q539 133 549 112T569
77Q580 60 592 50T618 34Q636 26 653 22V0H348V22Q365 24 375 26T392 31Q408 36 418 44T428 75Q428 97 420 121T403 168L384 220ZM195 256H372L287 496H280L195 256ZM324 707Q270 707 237 736T188 831L209 838Q231 800 260 786T325 772Q359 772 388 786T439 838L460
831Q445 766 412 737T324 707Z" />
<glyph unicode="&#x103;" glyph-name="abreve" horiz-adv-x="431" d="M426 8Q418 3 394 -3T338 -10Q318 -10 306 -7T286 1Q277 7 270 19T262 54H256Q251 44 242 33T220 13T187 -3T143 -10Q120 -10 99 -3T61 17T36 51T26 99Q26 120 33 140T58 176Q80 196 104 206T166
227Q208 238 227 248T255 272L256 355Q256 385 243 397T204 409Q190 409 179 405T160 395Q153 390 147 378T137 346Q131 304 91 304Q72 304 60 315T48 345Q48 369 67 390Q84 408 120 423T204 438Q274 438 315 418T356 344Q356 333 356 303T355 237T355 165T354
111Q354 76 356 61T363 39Q371 25 390 25Q398 25 406 26T419 29L426 8ZM255 237Q248 230 233 223T198 206Q180 198 166 190T142 171Q133 160 128 144T122 107Q122 66 139 51T180 36Q206 36 225 49T252 88L255 237ZM211 510Q154 510 126 546T92 643L112 647Q127
604 149 588T210 571Q250 571 273 587T310 647L330 643Q325 582 297 546T211 510Z" />
<glyph unicode="&#x104;" glyph-name="Aogonek" horiz-adv-x="653" d="M472 0Q427 0 402 -27Q387 -42 379 -64T371 -110Q371 -152 390 -169T443 -189V-209Q404 -211 376 -205T330 -187T304 -157T295 -120Q295 -90 314 -66T362 -22Q393 -2 411 14T429 60Q429 88
421 114T405 160L384 220H182L160 157Q152 136 148 118T143 82Q143 62 151 49T174 31Q183 27 195 25T221 22V0H0V22Q14 24 24 26T45 35Q65 46 80 73Q95 100 118 162L303 662H353L530 159Q539 133 549 112T569 77Q580 60 592 50T618 34Q636 26 653 22V0H472ZM195
256H371L287 496H280L195 256Z" />
<glyph unicode="&#x105;" glyph-name="aogonek" horiz-adv-x="431" d="M405 -1Q323 -29 323 -118Q323 -154 342 -170T395 -189V-209Q356 -211 328 -205T282 -187T256 -157T247 -121Q247 -84 276 -58T354 -9Q351 -10 347 -10H341Q320 -10 308 -7T288 1Q279 7 272
19T265 54H259Q247 27 218 9T146 -10Q122 -10 101 -3T64 17T39 51T29 99Q29 120 36 140T61 176Q82 196 106 206T168 227Q210 238 230 248T258 272V287Q258 299 258 312T259 338V355Q259 385 246 397T206 409Q192 409 181 405T162 395Q155 390 149 378T140 346Q136
325 125 315T93 304Q75 304 63 315T50 344Q50 369 68 389Q86 408 123 423T206 438Q276 438 317 418T358 344Q358 333 358 303T357 237T357 165T356 111Q356 76 358 61T366 38Q372 25 393 25Q400 25 408 26T422 29L428 8L405 -1ZM257 237Q250 230 236 223T201 206Q182
198 168 190T145 171Q136 160 131 144T125 107Q125 66 142 51T182 36Q208 36 227 49T255 88L257 237Z" />
<glyph unicode="&#x106;" glyph-name="Cacute" horiz-adv-x="650" d="M366 635Q343 635 321 630T278 612Q257 600 237 579T202 524T177 442T167 328Q167 266 175 223T196 149T227 100T265 68Q290 51 317 44T387 37Q453 37 508 70T595 172L622 155Q605 117 582
86T527 33T454 -2T359 -14Q287 -14 228 11T127 82T61 190T38 328Q38 403 65 466T138 574T243 645T365 670Q440 670 483 652T548 611H552L582 658H604V431H582Q568 479 549 514T511 570Q497 585 484 597T455 617T417 630T366 635ZM491 844Q509 844 519 833T530 804Q530
784 514 773T473 752Q444 743 407 734T305 708L297 726L423 813Q445 829 460 836T491 844Z" />
<glyph unicode="&#x107;" glyph-name="cacute" horiz-adv-x="436" d="M246 409Q229 409 213 404T186 388Q162 368 149 326T135 215Q135 147 149 109T189 51Q218 30 253 30Q286 30 308 38T346 59T370 89T386 124L414 113Q397 58 355 24T238 -10Q164 -10 110 32Q72
61 50 106T27 215Q27 268 45 309T95 379T165 423T246 438Q278 438 301 434T340 423T367 408T386 391Q407 369 407 342Q407 316 395 306T363 295Q338 295 327 311T308 355Q300 384 287 396T246 409ZM186 498Q203 522 214 537T234 564T251 585T268 608Q286 633 301
652T338 672Q355 672 366 662T377 636Q377 616 367 604T336 578Q324 569 312 561T284 542T248 517T200 485L186 498V498Z" />
<glyph unicode="&#x108;" glyph-name="Ccircumflex" horiz-adv-x="650" d="M366 635Q343 635 321 630T278 612Q257 600 237 579T202 524T177 442T167 328Q167 266 175 223T196 149T227 100T265 68Q290 51 317 44T387 37Q453 37 508 70T595 172L622 155Q605 117
582 86T527 33T454 -2T359 -14Q287 -14 228 11T127 82T61 190T38 328Q38 403 65 466T138 574T243 645T365 670Q440 670 483 652T548 611H552L582 658H604V431H582Q568 479 549 514T511 570Q497 585 484 597T455 617T417 630T366 635ZM236 721Q272 756 298 783T347
837H397Q420 811 446 784T508 721L495 708L372 777L248 708L236 721V721Z" />
<glyph unicode="&#x109;" glyph-name="ccircumflex" horiz-adv-x="436" d="M246 409Q229 409 213 404T186 388Q162 368 149 326T135 215Q135 147 149 109T189 51Q218 30 253 30Q286 30 308 38T346 59T370 89T386 124L414 113Q397 58 355 24T238 -10Q164 -10 110
32Q72 61 50 106T27 215Q27 268 45 309T95 379T165 423T246 438Q278 438 301 434T340 423T367 408T386 391Q407 369 407 342Q407 316 395 306T363 295Q338 295 327 311T308 355Q300 384 287 396T246 409ZM267 915Q284 889 311 852T372 769L356 755L243 852L129
755L113 769Q146 814 173 851T218 915H267V915Z" />
<glyph unicode="&#x10a;" glyph-name="Cdotaccent" horiz-adv-x="650" d="M366 635Q343 635 321 630T278 612Q257 600 237 579T202 524T177 442T167 328Q167 266 175 223T196 149T227 100T265 68Q290 51 317 44T387 37Q453 37 508 70T595 172L622 155Q605 117
582 86T527 33T454 -2T359 -14Q287 -14 228 11T127 82T61 190T38 328Q38 403 65 466T138 574T243 645T365 670Q440 670 483 652T548 611H552L582 658H604V431H582Q568 479 549 514T511 570Q497 585 484 597T455 617T417 630T366 635ZM371 720Q345 720 328 736T311
779Q311 804 328 821T371 838Q397 838 414 821T431 779Q431 753 414 737T371 720Z" />
<glyph unicode="&#x10b;" glyph-name="cdotaccent" horiz-adv-x="436" d="M246 409Q229 409 213 404T186 388Q162 368 149 326T135 215Q135 147 149 109T189 51Q218 30 253 30Q286 30 308 38T346 59T370 89T386 124L414 113Q397 58 355 24T238 -10Q164 -10 110
32Q72 61 50 106T27 215Q27 268 45 309T95 379T165 423T246 438Q278 438 301 434T340 423T367 408T386 391Q407 369 407 342Q407 316 395 306T363 295Q338 295 327 311T308 355Q300 384 287 396T246 409ZM302 560Q302 535 285 518T242 501Q216 501 199 518T182
560Q182 586 199 602T242 619Q268 619 285 603T302 560Z" />
<glyph unicode="&#x10c;" glyph-name="Ccaron" horiz-adv-x="650" d="M366 635Q343 635 321 630T278 612Q257 600 237 579T202 524T177 442T167 328Q167 266 175 223T196 149T227 100T265 68Q290 51 317 44T387 37Q453 37 508 70T595 172L622 155Q605 117 582
86T527 33T454 -2T359 -14Q287 -14 228 11T127 82T61 190T38 328Q38 403 65 466T138 574T243 645T365 670Q440 670 483 652T548 611H552L582 658H604V431H582Q568 479 549 514T511 570Q497 585 484 597T455 617T417 630T366 635ZM507 826Q471 791 445 764T396 710H346Q323
736 297 763T235 826L247 839L371 770L494 839L507 826V826Z" />
<glyph unicode="&#x10d;" glyph-name="ccaron" horiz-adv-x="436" d="M246 409Q229 409 213 404T186 388Q162 368 149 326T135 215Q135 147 149 109T189 51Q218 30 253 30Q286 30 308 38T346 59T370 89T386 124L414 113Q397 58 355 24T238 -10Q164 -10 110 32Q72
61 50 106T27 215Q27 268 45 309T95 379T165 423T246 438Q278 438 301 434T340 423T367 408T386 391Q407 369 407 342Q407 316 395 306T363 295Q338 295 327 311T308 355Q300 384 287 396T246 409ZM372 902Q339 857 312 820T267 756H218Q201 782 174 819T113 902L129
916L243 819L356 916L372 902V902Z" />
<glyph unicode="&#x10e;" glyph-name="Dcaron" horiz-adv-x="712" d="M328 658Q388 658 433 647T510 619Q544 601 574 574T626 511T661 430T674 330Q674 221 630 150T516 40Q484 23 443 12T356 0H27V22Q49 23 63 28Q80 33 91 42T110 68Q118 85 120 106T122 169V489Q122
531 120 552T110 590Q102 607 91 616T63 630Q49 634 27 636V658H328ZM344 36Q376 36 410 47T471 85Q489 103 504 125T529 177T546 243T552 328Q552 425 528 485T467 579Q440 603 400 612T324 622H259Q251 622 247 622T240 617Q236 612 236 598V145Q236 113 239
91T255 56Q266 45 284 41T327 36H344ZM467 826Q431 791 405 764T356 710H306Q283 736 257 763T195 826L207 839L331 770L454 839L467 826V826Z" />
<glyph unicode="&#x10f;" glyph-name="dcaron" horiz-adv-x="511" d="M356 0Q351 0 349 5Q348 10 348 14T348 25V65H340Q326 30 293 10T213 -10Q177 -10 144 4T84 47T43 118T27 214Q27 271 45 313T92 383T158 424T232 438Q277 438 300 425T335 394H340V579Q340
591 340 605T337 627Q334 635 328 641T316 651Q301 660 273 662V684H434Q441 684 441 677Q440 660 439 636T438 573V111Q438 97 438 85T441 64Q448 40 469 29Q474 27 483 25T501 22V0H356ZM338 299Q338 323 333 341T314 377Q290 404 247 404Q200 404 168 358T135
214Q135 162 144 127T168 71T203 41T245 32Q288 32 313 64T338 145V299ZM515 684H589L516 493H493L515 684Z" />
<glyph unicode="&#x110;" glyph-name="Dcroat" horiz-adv-x="712" d="M122 357V489Q122 531 120 552T110 590Q102 607 91 616T63 630Q49 634 27 636V658H328Q388 658 433 647T511 619Q545 601 574 574T624 510T658 429T671 328Q671 274 660 229T628 148T579 85T516
40Q484 23 443 12T356 0H27V22Q49 23 63 28Q80 33 91 42T110 68Q118 85 120 106T122 169V320H27V357H122ZM344 36Q376 36 410 47T471 85Q489 103 504 125T529 177T546 243T552 328Q552 425 528 485T467 579Q440 603 400 612T324 622H259Q251 622 247 622T240 617Q236
612 236 598V357H420V320H236V145Q236 113 239 91T255 56Q266 45 284 41T327 36H344Z" />
<glyph unicode="&#x111;" glyph-name="dcroat" horiz-adv-x="511" d="M195 559H511V530H195V559ZM356 0Q351 0 349 5Q348 10 348 14T348 25V65H340Q326 30 293 10T213 -10Q177 -10 144 4T84 47T43 118T27 214Q27 271 45 313T92 383T158 424T232 438Q277 438 300
425T335 394H340V579Q340 591 340 605T337 627Q334 635 328 641T316 651Q301 660 273 662V684H434Q441 684 441 677Q440 660 439 636T438 573V111Q438 97 438 85T441 64Q448 40 469 29Q474 27 483 25T501 22V0H356ZM338 299Q338 323 333 341T314 377Q290 404 247
404Q200 404 168 358T135 214Q135 162 144 127T168 71T203 41T245 32Q288 32 313 64T338 145V299Z" />
<glyph unicode="&#x112;" glyph-name="Emacron" horiz-adv-x="615" d="M554 0H27V22Q49 23 63 28Q80 33 91 42T110 68Q118 85 120 106T122 169V489Q122 531 120 552T110 590Q102 607 91 616T63 630Q49 634 27 636V658H530L560 486H536Q518 521 500 543T456 587Q440
601 411 611T337 622H288Q276 622 265 620T246 608Q239 598 238 587T236 560V358H287Q322 358 342 364T376 384Q395 403 400 422T408 465H431V214H408Q405 238 399 258T374 298Q360 312 341 317T287 322H236V144Q236 112 239 90T255 56Q266 45 284 41T326 36H347Q396
36 425 50T477 82Q513 111 534 137T573 195H594L554 0ZM166 722V768H444V722H166Z" />
<glyph unicode="&#x113;" glyph-name="emacron" horiz-adv-x="446" d="M420 117Q400 62 356 26T240 -10Q196 -10 162 3T102 37Q64 69 46 115T27 214Q27 265 45 306T92 376T159 422T237 438Q285 438 319 423T375 384T408 331T419 274Q419 260 418 247T416 225H135V217Q135
165 144 125T178 60Q192 45 211 37T259 28Q289 28 311 37T350 62T377 95T395 129L420 117ZM180 387Q163 370 151 340T136 257H293Q308 257 315 266T322 298Q322 330 317 351T299 386Q281 409 238 409Q224 409 208 404T180 387ZM116 551V597H360V551H116Z" />
<glyph unicode="&#x114;" glyph-name="Ebreve" horiz-adv-x="615" d="M554 0H27V22Q49 23 63 28Q80 33 91 42T110 68Q118 85 120 106T122 169V489Q122 531 120 552T110 590Q102 607 91 616T63 630Q49 634 27 636V658H530L560 486H536Q518 521 500 543T456 587Q440
601 411 611T337 622H288Q276 622 265 620T246 608Q239 598 238 587T236 560V358H287Q322 358 342 364T376 384Q395 403 400 422T408 465H431V214H408Q405 238 399 258T374 298Q360 312 341 317T287 322H236V144Q236 112 239 90T255 56Q266 45 284 41T326 36H347Q396
36 425 50T477 82Q513 111 534 137T573 195H594L554 0ZM305 707Q251 707 218 736T169 831L190 838Q212 800 241 786T306 772Q340 772 369 786T420 838L441 831Q426 766 393 737T305 707Z" />
<glyph unicode="&#x115;" glyph-name="ebreve" horiz-adv-x="446" d="M420 117Q400 62 356 26T240 -10Q196 -10 162 3T102 37Q64 69 46 115T27 214Q27 265 45 306T92 376T159 422T237 438Q285 438 319 423T375 384T408 331T419 274Q419 260 418 247T416 225H135V217Q135
165 144 125T178 60Q192 45 211 37T259 28Q289 28 311 37T350 62T377 95T395 129L420 117ZM180 387Q163 370 151 340T136 257H293Q308 257 315 266T322 298Q322 330 317 351T299 386Q281 409 238 409Q224 409 208 404T180 387ZM238 765Q181 765 153 801T119 898L139
902Q154 859 176 843T237 826Q277 826 300 842T337 902L357 898Q352 837 324 801T238 765Z" />
<glyph unicode="&#x116;" glyph-name="Edotaccent" horiz-adv-x="615" d="M554 0H27V22Q49 23 63 28Q80 33 91 42T110 68Q118 85 120 106T122 169V489Q122 531 120 552T110 590Q102 607 91 616T63 630Q49 634 27 636V658H530L560 486H536Q518 521 500 543T456
587Q440 601 411 611T337 622H288Q276 622 265 620T246 608Q239 598 238 587T236 560V358H287Q322 358 342 364T376 384Q395 403 400 422T408 465H431V214H408Q405 238 399 258T374 298Q360 312 341 317T287 322H236V144Q236 112 239 90T255 56Q266 45 284 41T326
36H347Q396 36 425 50T477 82Q513 111 534 137T573 195H594L554 0ZM305 720Q279 720 262 736T245 779Q245 804 262 821T305 838Q331 838 348 821T365 779Q365 753 348 737T305 720Z" />
<glyph unicode="&#x117;" glyph-name="edotaccent" horiz-adv-x="446" d="M420 117Q400 62 356 26T240 -10Q196 -10 162 3T102 37Q64 69 46 115T27 214Q27 265 45 306T92 376T159 422T237 438Q285 438 319 423T375 384T408 331T419 274Q419 260 418 247T416 225H135V217Q135
165 144 125T178 60Q192 45 211 37T259 28Q289 28 311 37T350 62T377 95T395 129L420 117ZM180 387Q163 370 151 340T136 257H293Q308 257 315 266T322 298Q322 330 317 351T299 386Q281 409 238 409Q224 409 208 404T180 387ZM298 560Q298 535 281 518T238 501Q212
501 195 518T178 560Q178 586 195 602T238 619Q264 619 281 603T298 560Z" />
<glyph unicode="&#x118;" glyph-name="Eogonek" horiz-adv-x="615" d="M287 358Q322 358 342 364T376 384Q395 403 400 422T408 465H431V214H408Q405 238 399 258T374 298Q360 312 341 317T287 322H236V144Q236 112 239 90T255 56Q266 45 284 41T326 36H347Q396
36 425 50T477 82Q513 111 534 137T573 195H594L554 0H455Q425 -29 411 -56T397 -120Q397 -155 415 -170T469 -189V-209Q430 -211 402 -205T356 -187T329 -157T320 -121Q320 -82 351 -54T427 0H27V22Q49 23 63 28Q80 33 91 42T110 68Q118 85 120 106T122 169V489Q122
531 120 552T110 590Q102 607 91 616T63 630Q49 634 27 636V658H530L560 486H536Q518 521 500 543T456 587Q440 601 411 611T337 622H288Q276 622 265 620T246 608Q239 598 238 587T236 560V358H287Z" />
<glyph unicode="&#x119;" glyph-name="eogonek" horiz-adv-x="446" d="M416 274Q416 260 416 247T413 225H133V217Q133 165 142 125T176 60Q190 45 209 37T256 28Q286 28 308 37T347 62T374 95T392 129L418 117Q406 83 384 57T330 12Q284 -20 268 -51T252 -120Q252
-155 270 -170T324 -189V-209Q285 -211 257 -205T211 -187T184 -157T175 -121Q175 -84 205 -57T280 -5Q258 -10 238 -10Q194 -10 160 3T100 37Q62 69 44 115T25 214Q25 265 43 306T90 376T157 422T235 438Q283 438 317 423T373 384T405 331T416 274ZM178 387Q161
370 149 340T134 257H291Q306 257 312 266T319 298Q319 330 315 351T297 386Q279 409 236 409Q221 409 206 404T178 387Z" />
<glyph unicode="&#x11a;" glyph-name="Ecaron" horiz-adv-x="615" d="M554 0H27V22Q49 23 63 28Q80 33 91 42T110 68Q118 85 120 106T122 169V489Q122 531 120 552T110 590Q102 607 91 616T63 630Q49 634 27 636V658H530L560 486H536Q518 521 500 543T456 587Q440
601 411 611T337 622H288Q276 622 265 620T246 608Q239 598 238 587T236 560V358H287Q322 358 342 364T376 384Q395 403 400 422T408 465H431V214H408Q405 238 399 258T374 298Q360 312 341 317T287 322H236V144Q236 112 239 90T255 56Q266 45 284 41T326 36H347Q396
36 425 50T477 82Q513 111 534 137T573 195H594L554 0ZM441 826Q405 791 379 764T330 710H280Q257 736 231 763T169 826L181 839L305 770L428 839L441 826V826Z" />
<glyph unicode="&#x11b;" glyph-name="ecaron" horiz-adv-x="446" d="M420 117Q400 62 356 26T240 -10Q196 -10 162 3T102 37Q64 69 46 115T27 214Q27 265 45 306T92 376T159 422T237 438Q285 438 319 423T375 384T408 331T419 274Q419 260 418 247T416 225H135V217Q135
165 144 125T178 60Q192 45 211 37T259 28Q289 28 311 37T350 62T377 95T395 129L420 117ZM180 387Q163 370 151 340T136 257H293Q308 257 315 266T322 298Q322 330 317 351T299 386Q281 409 238 409Q224 409 208 404T180 387ZM368 902Q335 857 308 820T263 756H214Q197
782 170 819T109 902L125 916L239 819L352 916L368 902V902Z" />
<glyph unicode="&#x11c;" glyph-name="Gcircumflex" horiz-adv-x="707" d="M493 178Q493 209 491 224T480 257Q472 273 462 280T435 292Q428 294 420 295T400 297V319H700V297Q689 296 681 295T664 292Q648 287 638 279T619 254Q611 237 609 205T606 131V36Q595
30 574 23T525 8Q498 1 454 -6T365 -14Q291 -14 231 11T127 81T61 190T38 328Q38 403 65 466T137 574T240 645T362 670Q401 670 431 665T484 651T522 632T547 611H551L581 656H603V427H581Q568 478 549 513T509 571Q496 586 483 597T453 617T414 630T361 635Q339
635 318 630T275 612Q257 601 238 580T203 525T177 443T167 328Q167 264 173 218T192 138T223 84T264 49Q288 35 312 29T366 22Q416 22 440 30T477 49Q484 57 488 72T493 129V178V178ZM232 721Q268 756 294 783T343 837H393Q416 811 442 784T504 721L491 708L368
777L244 708L232 721V721Z" />
<glyph unicode="&#x11d;" glyph-name="gcircumflex" horiz-adv-x="480" d="M121 166Q86 183 65 214T44 292Q44 327 58 354T95 400T148 428T212 438Q300 438 348 375H356Q371 404 392 417T436 430Q464 430 477 416T491 379Q491 358 480 349T453 339Q429 339 419
360Q414 370 410 375T396 381Q388 381 380 374T372 351Q372 342 373 338L376 329L379 319H378Q381 307 381 292Q381 256 367 229T330 183T276 155T212 146H211Q200 146 186 147T163 149Q142 149 122 140T102 107Q102 90 116 81T154 72Q162 72 182 73T226 75T271
77T305 78Q336 78 361 73T405 53T434 16T444 -43Q444 -85 423 -117T367 -170T288 -203T198 -214Q102 -214 54 -186T5 -111Q5 -73 36 -49T121 -13V-7Q86 -2 64 19T41 72Q41 91 48 106T67 132T93 150T121 161V166ZM379 -73Q379 -42 360 -30T304 -16Q276 -15 242 -17T183
-21Q166 -23 149 -27T116 -40T92 -64T82 -104Q82 -149 115 -166T208 -183Q238 -183 268 -177T323 -158T363 -123T379 -73ZM135 292Q135 229 157 202T211 175Q243 175 266 202T290 292Q290 355 267 382T211 410Q179 410 157 383T135 292ZM249 915Q266 889 293 852T354
769L338 755L225 852L111 755L95 769Q128 814 155 851T200 915H249V915Z" />
<glyph unicode="&#x11e;" glyph-name="Gbreve" horiz-adv-x="707" d="M493 178Q493 209 491 224T480 257Q472 273 462 280T435 292Q428 294 420 295T400 297V319H700V297Q689 296 681 295T664 292Q648 287 638 279T619 254Q611 237 609 205T606 131V36Q595 30
574 23T525 8Q498 1 454 -6T365 -14Q291 -14 231 11T127 81T61 190T38 328Q38 403 65 466T137 574T240 645T362 670Q401 670 431 665T484 651T522 632T547 611H551L581 656H603V427H581Q568 478 549 513T509 571Q496 586 483 597T453 617T414 630T361 635Q339 635
318 630T275 612Q257 601 238 580T203 525T177 443T167 328Q167 264 173 218T192 138T223 84T264 49Q288 35 312 29T366 22Q416 22 440 30T477 49Q484 57 488 72T493 129V178V178ZM368 707Q314 707 281 736T232 831L253 838Q275 800 304 786T369 772Q403 772 432
786T483 838L504 831Q489 766 456 737T368 707Z" />
<glyph unicode="&#x11f;" glyph-name="gbreve" horiz-adv-x="480" d="M121 166Q86 183 65 214T44 292Q44 327 58 354T95 400T148 428T212 438Q300 438 348 375H356Q371 404 392 417T436 430Q464 430 477 416T491 379Q491 358 480 349T453 339Q429 339 419 360Q414
370 410 375T396 381Q388 381 380 374T372 351Q372 342 373 338L376 329L379 319H378Q381 307 381 292Q381 256 367 229T330 183T276 155T212 146H211Q200 146 186 147T163 149Q142 149 122 140T102 107Q102 90 116 81T154 72Q162 72 182 73T226 75T271 77T305
78Q336 78 361 73T405 53T434 16T444 -43Q444 -85 423 -117T367 -170T288 -203T198 -214Q102 -214 54 -186T5 -111Q5 -73 36 -49T121 -13V-7Q86 -2 64 19T41 72Q41 91 48 106T67 132T93 150T121 161V166ZM379 -73Q379 -42 360 -30T304 -16Q276 -15 242 -17T183
-21Q166 -23 149 -27T116 -40T92 -64T82 -104Q82 -149 115 -166T208 -183Q238 -183 268 -177T323 -158T363 -123T379 -73ZM135 292Q135 229 157 202T211 175Q243 175 266 202T290 292Q290 355 267 382T211 410Q179 410 157 383T135 292ZM224 765Q167 765 139 801T105
898L125 902Q140 859 162 843T223 826Q263 826 286 842T323 902L343 898Q338 837 310 801T224 765Z" />
<glyph unicode="&#x120;" glyph-name="Gdotaccent" horiz-adv-x="707" d="M493 178Q493 209 491 224T480 257Q472 273 462 280T435 292Q428 294 420 295T400 297V319H700V297Q689 296 681 295T664 292Q648 287 638 279T619 254Q611 237 609 205T606 131V36Q595
30 574 23T525 8Q498 1 454 -6T365 -14Q291 -14 231 11T127 81T61 190T38 328Q38 403 65 466T137 574T240 645T362 670Q401 670 431 665T484 651T522 632T547 611H551L581 656H603V427H581Q568 478 549 513T509 571Q496 586 483 597T453 617T414 630T361 635Q339
635 318 630T275 612Q257 601 238 580T203 525T177 443T167 328Q167 264 173 218T192 138T223 84T264 49Q288 35 312 29T366 22Q416 22 440 30T477 49Q484 57 488 72T493 129V178V178ZM368 720Q342 720 325 736T308 779Q308 804 325 821T368 838Q394 838 411 821T428
779Q428 753 411 737T368 720Z" />
<glyph unicode="&#x121;" glyph-name="gdotaccent" horiz-adv-x="480" d="M121 166Q86 183 65 214T44 292Q44 327 58 354T95 400T148 428T212 438Q300 438 348 375H356Q371 404 392 417T436 430Q464 430 477 416T491 379Q491 358 480 349T453 339Q429 339 419
360Q414 370 410 375T396 381Q388 381 380 374T372 351Q372 342 373 338L376 329L379 319H378Q381 307 381 292Q381 256 367 229T330 183T276 155T212 146H211Q200 146 186 147T163 149Q142 149 122 140T102 107Q102 90 116 81T154 72Q162 72 182 73T226 75T271
77T305 78Q336 78 361 73T405 53T434 16T444 -43Q444 -85 423 -117T367 -170T288 -203T198 -214Q102 -214 54 -186T5 -111Q5 -73 36 -49T121 -13V-7Q86 -2 64 19T41 72Q41 91 48 106T67 132T93 150T121 161V166ZM379 -73Q379 -42 360 -30T304 -16Q276 -15 242 -17T183
-21Q166 -23 149 -27T116 -40T92 -64T82 -104Q82 -149 115 -166T208 -183Q238 -183 268 -177T323 -158T363 -123T379 -73ZM135 292Q135 229 157 202T211 175Q243 175 266 202T290 292Q290 355 267 382T211 410Q179 410 157 383T135 292ZM285 560Q285 535 268 518T225
501Q199 501 182 518T165 560Q165 586 182 602T225 619Q251 619 268 603T285 560Z" />
<glyph unicode="&#x122;" glyph-name="Gcommaaccent" horiz-adv-x="707" d="M425 -115Q425 -169 393 -199T309 -250L300 -230Q332 -216 352 -202T372 -167Q372 -159 362 -156Q338 -148 323 -135T308 -98Q308 -77 323 -62T362 -46Q389 -46 407 -63T425 -115ZM493
178Q493 209 491 224T480 257Q472 273 462 280T435 292Q428 294 420 295T400 297V319H700V297Q689 296 681 295T664 292Q648 287 638 279T619 254Q611 237 609 205T606 131V36Q595 30 574 23T525 8Q498 1 454 -6T365 -14Q291 -14 231 11T127 81T61 190T38 328Q38
403 65 466T137 574T240 645T362 670Q401 670 431 665T484 651T522 632T547 611H551L581 656H603V427H581Q568 478 549 513T509 571Q496 586 483 597T453 617T414 630T361 635Q339 635 318 630T275 612Q257 601 238 580T203 525T177 443T167 328Q167 264 173 218T192
138T223 84T264 49Q288 35 312 29T366 22Q416 22 440 30T477 49Q484 57 488 72T493 129V178V178Z" />
<glyph unicode="&#x123;" glyph-name="gcommaaccent" horiz-adv-x="481" d="M121 166Q86 183 65 214T44 292Q44 327 58 354T95 400T148 428T212 438Q300 438 348 375H356Q371 404 392 417T436 430Q464 430 477 416T491 379Q491 358 480 349T453 339Q429 339 419
360Q414 370 410 375T396 381Q388 381 380 374T372 351Q372 342 373 338L376 329L379 319H378Q381 307 381 292Q381 256 367 229T330 183T276 155T212 146H211Q200 146 186 147T163 149Q142 149 122 140T102 107Q102 90 116 81T154 72Q162 72 182 73T226 75T271
77T305 78Q336 78 361 73T405 53T434 16T444 -43Q444 -85 423 -117T367 -170T288 -203T198 -214Q102 -214 54 -186T5 -111Q5 -73 36 -49T121 -13V-7Q86 -2 64 19T41 72Q41 91 48 106T67 132T93 150T121 161V166ZM379 -73Q379 -42 360 -30T304 -16Q276 -15 242 -17T183
-21Q166 -23 149 -27T116 -40T92 -64T82 -104Q82 -149 115 -166T208 -183Q238 -183 268 -177T323 -158T363 -123T379 -73ZM135 292Q135 229 157 202T211 175Q243 175 266 202T290 292Q290 355 267 382T211 410Q179 410 157 383T135 292ZM158 829Q158 876 189 910T274
964L284 944Q250 930 231 915T211 881Q211 873 222 870Q245 862 260 849T275 812Q275 791 261 776T221 760Q194 760 176 777T158 829Z" />
<glyph unicode="&#x124;" glyph-name="Hcircumflex" horiz-adv-x="756" d="M328 0H27V22Q49 23 63 28Q80 33 91 42T110 68Q118 85 120 106T122 169V489Q122 531 120 552T110 590Q102 607 91 616T63 630Q49 634 27 636V658H328V636Q308 635 294 630Q278 624 268
616T249 590Q241 573 239 553T236 491V352H520V491Q520 532 518 552T507 590Q499 607 489 615T462 630Q448 635 428 636V658H729V636Q708 634 693 630Q677 625 666 616T647 590Q639 573 637 552T634 489V169Q634 127 636 106T647 68Q655 51 666 42T693 28Q708 23
729 22V0H428V22Q448 23 462 28Q479 34 489 42T507 68Q515 85 517 105T520 167V316H236V167Q236 126 238 106T249 68Q257 51 267 43T294 28Q308 23 328 22V0ZM242 721Q278 756 304 783T353 837H403Q426 811 452 784T514 721L501 708L378 777L254 708L242 721V721Z"
/>
<glyph unicode="&#x125;" glyph-name="hcircumflex" horiz-adv-x="540" d="M460 111Q460 97 460 85T464 64Q470 40 491 29Q497 27 504 25T520 22V0H304V22Q312 23 319 25T331 29Q343 35 348 43T357 65Q359 74 359 85T360 111V325Q360 360 342 377Q328 390 297
390Q271 390 248 378T211 346Q200 331 194 309T188 263V111Q188 97 188 86T191 65Q194 51 199 43T217 29Q222 27 229 25T244 22V0H28V22Q36 23 43 25T56 29Q78 40 84 64Q87 73 87 85T88 111V579Q88 591 88 605T84 627Q80 642 66 651Q50 661 26 662V684H182Q189
684 189 677Q189 659 188 634T187 569V363H194Q211 390 239 409Q280 438 337 438Q363 438 384 431T420 413Q460 382 460 323V111V111ZM144 723Q180 758 206 785T255 839H305Q328 813 354 786T416 723L403 710L280 779L156 710L144 723V723Z" />
<glyph unicode="&#x126;" glyph-name="Hbar" horiz-adv-x="756" d="M328 0H27V22Q49 23 63 28Q80 33 91 42T110 68Q118 85 120 106T122 169V450H27V486H122V489Q122 531 120 552T110 590Q102 607 91 616T63 630Q49 634 27 636V658H328V636Q308 635 294 630Q278
624 268 616T249 590Q241 573 239 553T236 491V486H520V491Q520 532 518 552T507 590Q499 607 489 615T462 630Q448 635 428 636V658H729V636Q708 634 693 630Q677 625 666 616T647 590Q639 573 637 552T634 489V486H729V450H634V169Q634 127 636 106T647 68Q655
51 666 42T693 28Q708 23 729 22V0H428V22Q448 23 462 28Q479 34 489 42T507 68Q515 85 517 105T520 167V316H236V167Q236 126 238 106T249 68Q257 51 267 43T294 28Q308 23 328 22V0ZM520 352V450H236V352H520Z" />
<glyph unicode="&#x127;" glyph-name="hbar" horiz-adv-x="540" d="M88 559V579Q88 591 88 605T84 627Q80 642 66 651Q50 661 26 662V684H182Q189 684 189 677Q189 659 188 634T187 569V559H331V530H187V363H194Q211 390 239 409Q280 438 337 438Q363 438 384
431T420 413Q460 382 460 323V111Q460 97 460 85T464 64Q470 40 491 29Q497 27 504 25T520 22V0H304V22Q312 23 319 25T331 29Q343 35 348 43T357 65Q359 74 359 85T360 111V325Q360 360 342 377Q328 390 297 390Q271 390 248 378T211 346Q200 331 194 309T188
263V111Q188 97 188 86T191 65Q194 51 199 43T217 29Q222 27 229 25T244 22V0H28V22Q36 23 43 25T56 29Q78 40 84 64Q87 73 87 85T88 111V530H5V559H88Z" />
<glyph unicode="&#x128;" glyph-name="Itilde" horiz-adv-x="359" d="M236 169Q236 127 238 106T249 68Q257 51 268 42T295 28Q310 23 332 22V0H27V22Q49 23 63 28Q80 33 91 42T110 68Q118 85 120 106T122 169V489Q122 531 120 552T110 590Q102 607 91 616T63
630Q49 634 27 636V658H332V636Q310 635 295 630Q279 625 268 616T249 590Q241 573 239 552T236 489V169ZM592 822Q586 804 578 786T557 752T530 728T494 718Q476 718 459 722T425 730T393 739T363 743Q342 743 327 735T301 703L282 710Q288 728 297 746T318 779T346
803T381 812Q399 812 415 808T448 800T480 791T512 787Q536 787 549 796T574 828L592 822V822Z" />
<glyph unicode="&#x129;" glyph-name="itilde" horiz-adv-x="268" d="M188 111Q188 97 188 85T191 64Q198 40 219 29Q225 27 232 25T248 22V0H28V22Q36 23 43 25T56 29Q78 40 84 64Q87 73 87 85T88 111V323Q88 335 88 349T84 371Q79 387 66 395Q50 405 26 406V428H183Q190
428 190 421Q189 404 189 383T188 331V111ZM538 635Q532 617 523 599T502 565T475 541T440 532Q422 532 405 536T373 545T343 555T313 559Q291 559 277 550T251 519L232 526Q238 544 247 562T268 595T295 619T330 628Q348 628 364 624T395 615T425 605T456 601Q480
601 494 610T519 642L538 635Z" />
<glyph unicode="&#x12a;" glyph-name="Imacron" horiz-adv-x="359" d="M236 169Q236 127 238 106T249 68Q257 51 268 42T295 28Q310 23 332 22V0H27V22Q49 23 63 28Q80 33 91 42T110 68Q118 85 120 106T122 169V489Q122 531 120 552T110 590Q102 607 91 616T63
630Q49 634 27 636V658H332V636Q310 635 295 630Q279 625 268 616T249 590Q241 573 239 552T236 489V169ZM297 722V768H575V722H297Z" />
<glyph unicode="&#x12b;" glyph-name="imacron" horiz-adv-x="268" d="M188 111Q188 97 188 85T191 64Q198 40 219 29Q225 27 232 25T248 22V0H28V22Q36 23 43 25T56 29Q78 40 84 64Q87 73 87 85T88 111V323Q88 335 88 349T84 371Q79 387 66 395Q50 405 26 406V428H183Q190
428 190 421Q189 404 189 383T188 331V111ZM253 551V597H497V551H253Z" />
<glyph unicode="&#x12c;" glyph-name="Ibreve" horiz-adv-x="359" d="M236 169Q236 127 238 106T249 68Q257 51 268 42T295 28Q310 23 332 22V0H27V22Q49 23 63 28Q80 33 91 42T110 68Q118 85 120 106T122 169V489Q122 531 120 552T110 590Q102 607 91 616T63
630Q49 634 27 636V658H332V636Q310 635 295 630Q279 625 268 616T249 590Q241 573 239 552T236 489V169ZM436 707Q382 707 349 736T300 831L321 838Q343 800 372 786T437 772Q471 772 500 786T551 838L572 831Q557 766 524 737T436 707Z" />
<glyph unicode="&#x12d;" glyph-name="ibreve" horiz-adv-x="268" d="M188 111Q188 97 188 85T191 64Q198 40 219 29Q225 27 232 25T248 22V0H28V22Q36 23 43 25T56 29Q78 40 84 64Q87 73 87 85T88 111V323Q88 335 88 349T84 371Q79 387 66 395Q50 405 26 406V428H183Q190
428 190 421Q189 404 189 383T188 331V111ZM384 765Q327 765 299 801T265 898L285 902Q300 859 322 843T383 826Q423 826 446 842T483 902L503 898Q498 837 470 801T384 765Z" />
<glyph unicode="&#x12e;" glyph-name="Iogonek" horiz-adv-x="359" d="M236 169Q236 127 238 106T249 68Q257 51 268 42T295 28Q310 23 332 22V0H249Q218 -29 204 -56T190 -120Q190 -155 209 -170T262 -189V-209Q223 -211 195 -205T149 -187T123 -157T114 -121Q114
-82 145 -54T221 0H27V22Q49 23 63 28Q80 33 91 42T110 68Q118 85 120 106T122 169V489Q122 531 120 552T110 590Q102 607 91 616T63 630Q49 634 27 636V658H332V636Q310 635 295 630Q279 625 268 616T249 590Q241 573 239 552T236 489V169Z" />
<glyph unicode="&#x12f;" glyph-name="iogonek" horiz-adv-x="268" d="M188 111Q188 97 188 85T191 64Q198 40 219 29Q225 27 232 25T248 22V0H198Q169 -29 156 -56T143 -120Q143 -155 162 -170T215 -189V-209Q176 -211 148 -205T102 -187T76 -157T67 -121Q67
-82 98 -54T175 0H28V22Q36 23 43 25T56 29Q78 40 84 64Q87 73 87 85T88 111V323Q88 335 88 349T84 371Q79 387 66 395Q50 405 26 406V428H183Q190 428 190 421Q189 404 189 383T188 331V111ZM138 536Q112 536 95 552T78 595Q78 620 95 637T138 654Q164 654 181
637T198 595Q198 569 181 553T138 536Z" />
<glyph unicode="&#x130;" glyph-name="Idotaccent" horiz-adv-x="359" d="M236 169Q236 127 238 106T249 68Q257 51 268 42T295 28Q310 23 332 22V0H27V22Q49 23 63 28Q80 33 91 42T110 68Q118 85 120 106T122 169V489Q122 531 120 552T110 590Q102 607 91 616T63
630Q49 634 27 636V658H332V636Q310 635 295 630Q279 625 268 616T249 590Q241 573 239 552T236 489V169ZM436 720Q410 720 393 736T376 779Q376 804 393 821T436 838Q462 838 479 821T496 779Q496 753 479 737T436 720Z" />
<glyph unicode="&#x131;" glyph-name="dotlessi" horiz-adv-x="268" d="M188 111Q188 97 188 85T191 64Q198 40 219 29Q225 27 232 25T248 22V0H28V22Q36 23 43 25T56 29Q78 40 84 64Q87 73 87 85T88 111V323Q88 335 88 349T84 371Q79 387 66 395Q50 405 26 406V428H183Q190
428 190 421Q189 404 189 383T188 331V111Z" />
<glyph unicode="&#x132;" glyph-name="IJ" horiz-adv-x="741" d="M450 -14Q428 -14 402 -8T355 18Q344 29 334 44T324 82Q324 111 340 127T381 143Q400 143 410 136T427 114Q432 105 434 96T439 74Q440 64 441 56T444 43Q452 22 472 22Q484 22 493 27T511 50Q521
71 521 102T521 162V489Q521 531 519 552T508 590Q500 607 489 616T462 630Q447 634 426 636V658H729V636Q706 634 693 630Q677 625 666 616T647 590Q639 573 637 552T634 489V206Q634 136 616 96T577 35Q530 -14 450 -14ZM236 169Q236 127 238 106T249 68Q257
51 267 42T293 28Q300 26 306 25T323 22V0H27V22Q49 23 63 28Q80 33 91 42T110 68Q118 85 120 106T122 169V489Q122 531 120 552T110 590Q102 607 91 616T63 630Q49 634 27 636V658H332V636Q310 635 295 630Q279 625 268 616T249 590Q241 573 239 552T236 489V169Z"
/>
<glyph unicode="&#x133;" glyph-name="ij" horiz-adv-x="495" d="M138 536Q112 536 95 552T78 595Q78 620 95 637T138 654Q164 654 181 637T198 595Q198 569 181 553T138 536ZM188 111Q188 97 188 85T191 64Q198 40 219 29Q225 27 232 25T248 22V0H28V22Q36 23
43 25T56 29Q78 40 84 64Q87 73 87 85T88 111V323Q88 335 88 349T84 371Q79 387 66 395Q50 405 26 406V428H183Q190 428 190 421Q189 404 189 383T188 331V111ZM377 536Q351 536 334 552T317 595Q317 620 334 637T377 654Q403 654 420 637T437 595Q437 569 420
553T377 536ZM327 323Q327 335 326 349T323 371Q317 387 304 395Q289 405 264 406V428H422Q428 428 428 421Q427 404 427 383T426 331V-7Q426 -47 419 -76T401 -125T377 -158T350 -181Q336 -192 311 -202T251 -213Q203 -213 172 -191Q133 -166 133 -123Q133 -99
147 -85T182 -70Q210 -70 221 -85T233 -118Q233 -123 233 -126T231 -137Q230 -142 229 -148T228 -158Q228 -170 236 -177T257 -184Q287 -184 306 -162Q316 -150 321 -131T327 -76V323Z" />
<glyph unicode="&#x134;" glyph-name="Jcircumflex" horiz-adv-x="430" d="M211 489Q211 531 209 552T198 590Q190 607 179 616T151 630Q137 634 115 636V658H419V636Q396 634 383 630Q366 625 356 616T337 590Q329 573 327 552T324 489V206Q324 171 319 144T304
96T285 60T264 35Q215 -14 134 -14Q109 -14 82 -7T35 17Q23 28 14 45T4 83Q4 112 20 127T61 143Q80 143 90 136T107 114Q112 105 114 96T119 74Q120 64 120 56T123 43Q132 22 154 22Q169 22 181 27T201 50Q211 71 211 102T211 162V489V489ZM131 977Q167 1012 193
1039T242 1093H292Q315 1067 341 1040T403 977L390 964L267 1033L143 964L131 977V977Z" />
<glyph unicode="&#x135;" glyph-name="jcircumflex" horiz-adv-x="255" d="M86 323Q86 335 85 349T82 371Q76 387 63 395Q48 405 23 406V428H181Q187 428 187 421Q186 404 186 383T185 331V-7Q185 -47 178 -76T160 -125T136 -158T109 -181Q95 -192 70 -202T10
-213Q-38 -213 -69 -191Q-108 -166 -108 -123Q-108 -99 -94 -85T-59 -70Q-31 -70 -20 -85T-8 -118Q-8 -123 -8 -126T-10 -137Q-11 -142 -12 -148T-13 -158Q-13 -170 -5 -177T16 -184Q46 -184 65 -162Q75 -150 80 -131T86 -76V323ZM401 915Q418 889 445 852T506
769L490 755L377 852L263 755L247 769Q280 814 307 851T352 915H401V915Z" />
<glyph unicode="&#x136;" glyph-name="Kcommaaccent" horiz-adv-x="673" d="M429 -115Q429 -169 397 -199T313 -250L304 -230Q336 -216 356 -202T376 -167Q376 -159 366 -156Q342 -148 327 -135T312 -98Q312 -77 327 -62T366 -46Q393 -46 411 -63T429 -115ZM236
337L397 503Q427 535 445 554T463 594Q463 611 455 617T435 629Q427 632 418 633T397 636V658H641V636Q625 634 603 626T562 606Q551 599 540 592T517 574T490 549T457 516L337 393V386Q392 383 425 370T481 334Q508 306 527 261T553 163Q557 130 562 110T574 76T589
56T605 42Q616 34 634 29T664 22V0H481Q465 16 450 58T429 150Q424 203 417 237T398 292Q384 317 368 332T320 347Q305 347 291 339T264 319Q258 314 250 306T236 290V169Q236 127 238 106T249 68Q257 51 268 42T295 28Q303 26 312 25T333 22V0H27V22Q49 23 63
28Q80 33 91 42T110 68Q118 85 120 106T122 169V489Q122 531 120 552T110 590Q102 607 91 616T63 630Q49 634 27 636V658H333V636Q322 635 313 634T295 630Q279 625 268 616T249 590Q241 573 239 552T236 489V337Z" />
<glyph unicode="&#x137;" glyph-name="kcommaaccent" horiz-adv-x="511" d="M342 157Q342 103 310 73T226 22L217 42Q249 56 269 70T289 105Q289 113 279 116Q255 124 240 137T225 174Q225 195 240 210T279 226Q306 226 324 209T342 157ZM272 260Q320 255 357
233T403 173Q411 135 422 102T447 52Q456 42 469 34T509 22V0H354Q347 5 343 14T334 39T325 77T313 129Q308 147 303 164T290 194T270 218T240 233L188 188V111Q188 97 188 85T191 64Q198 40 219 29Q225 27 233 25T249 22V0H28V22Q36 23 43 25T56 29Q78 40 84 64Q87
73 87 85T88 111V579Q88 591 88 605T84 627Q80 642 66 651Q50 661 26 662V684H183Q190 684 190 677Q189 660 189 639T188 588V225L278 303Q301 323 314 338T327 370Q327 382 322 388T307 399Q301 402 291 403T270 406V428H479V406Q453 401 418 380Q410 375 389
358T330 309L272 260Z" />
<glyph unicode="&#x139;" glyph-name="Lacute" horiz-adv-x="601" d="M27 22Q49 23 63 28Q80 33 91 42T110 68Q118 85 120 106T122 169V489Q122 531 120 552T110 590Q102 607 91 616T63 630Q49 634 27 636V658H332V636Q310 635 295 630Q279 625 268 616T249 590Q241
573 239 552T236 490V144Q236 112 239 90T255 56Q266 45 284 41T326 36H340Q389 36 417 49T469 82Q505 112 523 142T559 210H580L546 0H27V22ZM558 844Q576 844 586 833T597 804Q597 784 581 773T540 752Q511 743 474 734T372 708L364 726L490 813Q512 829 527
836T558 844Z" />
<glyph unicode="&#x13a;" glyph-name="lacute" horiz-adv-x="268" d="M188 111Q188 97 188 85T191 64Q198 40 219 29Q225 27 232 25T248 22V0H28V22Q36 23 43 25T56 29Q78 40 84 64Q87 73 87 85T88 111V579Q88 591 88 605T84 627Q80 642 66 651Q50 661 26 662V684H183Q190
684 190 677Q189 660 189 639T188 588V111ZM507 857Q525 857 535 846T546 817Q546 797 530 786T489 765Q460 756 423 747T321 721L313 739L439 826Q461 842 476 849T507 857Z" />
<glyph unicode="&#x13b;" glyph-name="Lcommaaccent" horiz-adv-x="601" d="M386 -115Q386 -169 354 -199T270 -250L261 -230Q293 -216 313 -202T333 -167Q333 -159 323 -156Q299 -148 284 -135T269 -98Q269 -77 284 -62T323 -46Q350 -46 368 -63T386 -115ZM27
22Q49 23 63 28Q80 33 91 42T110 68Q118 85 120 106T122 169V489Q122 531 120 552T110 590Q102 607 91 616T63 630Q49 634 27 636V658H332V636Q310 635 295 630Q279 625 268 616T249 590Q241 573 239 552T236 490V144Q236 112 239 90T255 56Q266 45 284 41T326
36H340Q389 36 417 49T469 82Q505 112 523 142T559 210H580L546 0H27V22Z" />
<glyph unicode="&#x13c;" glyph-name="lcommaaccent" horiz-adv-x="268" d="M452 157Q452 103 420 73T336 22L327 42Q359 56 379 70T399 105Q399 113 389 116Q365 124 350 137T335 174Q335 195 350 210T389 226Q416 226 434 209T452 157ZM188 111Q188 97 188 85T191
64Q198 40 219 29Q225 27 232 25T248 22V0H28V22Q36 23 43 25T56 29Q78 40 84 64Q87 73 87 85T88 111V579Q88 591 88 605T84 627Q80 642 66 651Q50 661 26 662V684H183Q190 684 190 677Q189 660 189 639T188 588V111Z" />
<glyph unicode="&#x13d;" glyph-name="Lcaron" horiz-adv-x="601" d="M387 671H478Q455 618 434 572T389 479H366L387 671ZM27 22Q49 23 63 28Q80 33 91 42T110 68Q118 85 120 106T122 169V489Q122 531 120 552T110 590Q102 607 91 616T63 630Q49 634 27 636V658H332V636Q310
635 295 630Q279 625 268 616T249 590Q241 573 239 552T236 490V144Q236 112 239 90T255 56Q266 45 284 41T326 36H340Q389 36 417 49T469 82Q505 112 523 142T559 210H580L546 0H27V22Z" />
<glyph unicode="&#x13e;" glyph-name="lcaron" horiz-adv-x="268" d="M188 111Q188 97 188 85T191 64Q198 40 219 29Q225 27 232 25T248 22V0H28V22Q36 23 43 25T56 29Q78 40 84 64Q87 73 87 85T88 111V579Q88 591 88 605T84 627Q80 642 66 651Q50 661 26 662V684H183Q190
684 190 677Q189 660 189 639T188 588V111ZM269 684H343L270 493H247L269 684Z" />
<glyph unicode="&#x13f;" glyph-name="Ldot" horiz-adv-x="601" d="M488 300Q462 300 445 316T428 358Q428 384 445 400T488 417Q514 417 531 401T548 358Q548 333 531 317T488 300ZM27 22Q49 23 63 28Q80 33 91 42T110 68Q118 85 120 106T122 169V489Q122 531
120 552T110 590Q102 607 91 616T63 630Q49 634 27 636V658H332V636Q310 635 295 630Q279 625 268 616T249 590Q241 573 239 552T236 490V144Q236 112 239 90T255 56Q266 45 284 41T326 36H340Q389 36 418 49T469 82Q487 97 500 111T523 139T541 169T558 203H579L546
0H27V22Z" />
<glyph unicode="&#x140;" glyph-name="ldot" horiz-adv-x="299" d="M346 343Q346 319 330 303T289 287Q264 287 248 303T232 343Q232 368 248 384T289 400Q313 400 329 384T346 343ZM188 111Q188 97 188 85T191 64Q198 40 219 29Q225 27 232 25T248 22V0H28V22Q36
23 43 25T56 29Q78 40 84 64Q87 73 87 85T88 111V579Q88 591 88 605T84 627Q80 642 66 651Q50 661 26 662V684H183Q190 684 190 677Q189 660 189 639T188 588V111Z" />
<glyph unicode="&#x141;" glyph-name="Lslash" horiz-adv-x="601" d="M27 22Q49 23 63 28Q80 33 91 42T110 68Q118 85 120 106T122 169V268L27 229V265L122 304V489Q122 531 120 552T110 590Q102 607 91 616T63 630Q49 634 27 636V658H332V636Q310 635 295 630Q279
625 268 616T249 590Q241 573 239 552T236 490V352L444 438V403L236 316V144Q236 112 239 90T255 56Q266 45 284 41T326 36H340Q389 36 417 49T469 82Q505 112 523 142T559 210H580L546 0H27V22Z" />
<glyph unicode="&#x142;" glyph-name="lslash" horiz-adv-x="268" d="M188 111Q188 97 188 85T191 64Q198 40 219 29Q225 27 232 25T248 22V0H28V22Q36 23 43 25T56 29Q78 40 84 64Q87 73 87 85T88 111V286L16 237V268L88 317V579Q88 591 88 605T84 627Q80 642
66 651Q50 661 26 662V684H183Q190 684 190 677Q189 660 189 639T188 588V386L263 438V407L188 355V111Z" />
<glyph unicode="&#x143;" glyph-name="Nacute" horiz-adv-x="720" d="M562 -7L176 541H171V151Q171 110 175 91T188 60Q197 47 206 41T229 30Q239 27 247 26T269 22V0H26V22Q48 24 63 28Q76 32 85 38T106 58Q116 71 121 90T127 151V442Q127 498 122 527T108 577Q92
611 51 629Q43 632 36 633T17 636V658H238L565 188H569V507Q569 549 564 568T548 601Q537 614 528 620T504 630Q496 632 486 633T464 636V658H710V636Q687 633 670 628Q657 624 648 618T629 598Q621 586 617 567T612 507V-7H562ZM498 844Q516 844 526 833T537 804Q537
784 521 773T480 752Q451 743 414 734T312 708L304 726L430 813Q452 829 467 836T498 844Z" />
<glyph unicode="&#x144;" glyph-name="nacute" horiz-adv-x="540" d="M460 111Q460 97 460 85T464 64Q470 40 491 29Q497 27 504 25T520 22V0H304V22Q312 23 319 25T331 29Q343 35 348 43T357 65Q359 74 359 85T360 111V325Q360 360 342 377Q328 390 297 390Q271
390 248 378T211 346Q200 331 194 309T188 263V111Q188 97 188 86T191 65Q194 51 199 43T217 29Q222 27 229 25T244 22V0H28V22Q36 23 43 25T56 29Q78 40 84 64Q87 73 87 85T88 111V323Q88 335 88 349T84 371Q79 387 66 395Q50 405 26 406V428H181Q187 428 187
421Q187 420 187 411T186 390T186 369T185 358H192Q211 389 244 410Q286 438 337 438Q363 438 384 431T420 413Q460 382 460 323V111V111ZM219 498Q236 522 247 537T267 564T284 585T301 608Q319 633 334 652T371 672Q388 672 399 662T410 636Q410 616 400 604T369
578Q357 569 345 561T317 542T281 517T233 485L219 498V498Z" />
<glyph unicode="&#x145;" glyph-name="Ncommaaccent" horiz-adv-x="719" d="M444 -115Q444 -169 412 -199T328 -250L319 -230Q351 -216 371 -202T391 -167Q391 -159 381 -156Q357 -148 342 -135T327 -98Q327 -77 342 -62T381 -46Q408 -46 426 -63T444 -115ZM562
-7L176 541H171V151Q171 110 175 91T188 60Q197 47 206 41T229 30Q239 27 247 26T269 22V0H26V22Q48 24 63 28Q76 32 85 38T106 58Q116 71 121 90T127 151V442Q127 498 122 527T108 577Q92 611 51 629Q43 632 36 633T17 636V658H238L565 188H569V507Q569 549 564
568T548 601Q537 614 528 620T504 630Q496 632 486 633T464 636V658H710V636Q687 633 670 628Q657 624 648 618T629 598Q621 586 617 567T612 507V-7H562Z" />
<glyph unicode="&#x146;" glyph-name="ncommaaccent" horiz-adv-x="540" d="M341 -98Q341 -152 309 -182T225 -233L216 -213Q248 -199 268 -185T288 -150Q288 -142 278 -139Q254 -131 239 -118T224 -81Q224 -60 239 -45T278 -29Q305 -29 323 -46T341 -98ZM460
111Q460 97 460 85T464 64Q470 40 491 29Q497 27 504 25T520 22V0H304V22Q312 23 319 25T331 29Q343 35 348 43T357 65Q359 74 359 85T360 111V325Q360 360 342 377Q328 390 297 390Q271 390 248 378T211 346Q200 331 194 309T188 263V111Q188 97 188 86T191 65Q194
51 199 43T217 29Q222 27 229 25T244 22V0H28V22Q36 23 43 25T56 29Q78 40 84 64Q87 73 87 85T88 111V323Q88 335 88 349T84 371Q79 387 66 395Q50 405 26 406V428H181Q187 428 187 421Q187 420 187 411T186 390T186 369T185 358H192Q211 389 244 410Q286 438 337
438Q363 438 384 431T420 413Q460 382 460 323V111V111Z" />
<glyph unicode="&#x147;" glyph-name="Ncaron" horiz-adv-x="720" d="M562 -7L176 541H171V151Q171 110 175 91T188 60Q197 47 206 41T229 30Q239 27 247 26T269 22V0H26V22Q48 24 63 28Q76 32 85 38T106 58Q116 71 121 90T127 151V442Q127 498 122 527T108 577Q92
611 51 629Q43 632 36 633T17 636V658H238L565 188H569V507Q569 549 564 568T548 601Q537 614 528 620T504 630Q496 632 486 633T464 636V658H710V636Q687 633 670 628Q657 624 648 618T629 598Q621 586 617 567T612 507V-7H562ZM515 826Q479 791 453 764T404 710H354Q331
736 305 763T243 826L255 839L379 770L502 839L515 826V826Z" />
<glyph unicode="&#x148;" glyph-name="ncaron" horiz-adv-x="540" d="M460 111Q460 97 460 85T464 64Q470 40 491 29Q497 27 504 25T520 22V0H304V22Q312 23 319 25T331 29Q343 35 348 43T357 65Q359 74 359 85T360 111V325Q360 360 342 377Q328 390 297 390Q271
390 248 378T211 346Q200 331 194 309T188 263V111Q188 97 188 86T191 65Q194 51 199 43T217 29Q222 27 229 25T244 22V0H28V22Q36 23 43 25T56 29Q78 40 84 64Q87 73 87 85T88 111V323Q88 335 88 349T84 371Q79 387 66 395Q50 405 26 406V428H181Q187 428 187
421Q187 420 187 411T186 390T186 369T185 358H192Q211 389 244 410Q286 438 337 438Q363 438 384 431T420 413Q460 382 460 323V111V111ZM405 902Q372 857 345 820T300 756H251Q234 782 207 819T146 902L162 916L276 819L389 916L405 902V902Z" />
<glyph unicode="&#x149;" glyph-name="napostrophe" horiz-adv-x="633" d="M553 111Q553 97 553 85T557 64Q563 40 584 29Q590 27 597 25T613 22V0H397V22Q405 23 412 25T424 29Q436 35 441 43T450 65Q452 74 452 85T453 111V325Q453 360 435 377Q421 390 390
390Q364 390 341 378T304 346Q293 331 287 309T281 263V111Q281 97 281 86T284 65Q287 51 292 43T310 29Q315 27 322 25T337 22V0H121V22Q129 23 136 25T149 29Q171 40 177 64Q180 73 180 85T181 111V323Q181 335 181 349T177 371Q172 387 159 395Q143 405 119
406V428H274Q280 428 280 421Q280 420 280 411T279 390T279 369T278 358H285Q304 389 337 410Q379 438 430 438Q456 438 477 431T513 413Q553 382 553 323V111V111ZM404 608Q404 553 372 518T286 461L277 482Q309 497 330 515T351 554Q351 563 340 566Q317 574
302 587T286 624Q286 645 301 660T341 676Q367 676 385 660T404 608Z" />
<glyph unicode="&#x14a;" glyph-name="Eng" horiz-adv-x="719" d="M612 -24Q612 -58 601 -89T572 -142Q556 -161 528 -180T449 -199Q404 -199 375 -188T327 -160Q313 -148 306 -131T298 -93Q298 -64 314 -49T353 -34Q389 -34 402 -64Q406 -72 408 -82T411 -104Q412
-115 412 -124T414 -138Q418 -152 428 -158T458 -164Q487 -164 507 -152T538 -124Q554 -103 561 -77T569 -21V-3L176 541H171V151Q171 110 175 91T188 60Q203 38 229 30Q239 27 247 26T269 22V0H26V22Q48 24 63 28Q76 32 85 38T106 58Q116 71 121 90T127 151V442Q127
498 122 527T108 577Q92 611 51 629Q43 632 36 633T17 636V658H238L565 195H569V507Q569 549 564 568T548 601Q537 615 528 620T504 630Q496 632 485 633T463 636V658H710V636Q696 634 688 633T670 628Q657 624 647 618T629 598Q621 585 617 567T612 507V-24Z"
/>
<glyph unicode="&#x14b;" glyph-name="eng" horiz-adv-x="529" d="M360 325Q360 360 342 377Q328 390 297 390Q271 390 248 378T211 346Q200 331 194 309T188 263V111Q188 97 188 86T191 65Q194 51 199 43T217 29Q222 27 229 25T244 22V0H28V22Q36 23 43 25T56
29Q78 40 84 64Q87 73 87 85T88 111V323Q88 335 88 349T84 371Q79 387 66 395Q50 405 26 406V428H181Q187 428 187 421Q187 420 187 411T186 390T186 369T185 358H192Q211 389 244 410Q286 438 337 438Q363 438 384 431T420 413Q460 382 460 323V20Q460 -21 453
-49T434 -98T410 -132T383 -155Q369 -166 345 -176T285 -186Q236 -186 205 -164Q187 -152 178 -136T168 -97Q168 -72 183 -59T217 -45Q243 -45 255 -59T267 -92Q267 -97 267 -100T265 -110Q263 -115 262 -121T261 -131Q261 -143 269 -150T291 -157Q321 -157 339
-135Q350 -123 355 -104T360 -49V325Z" />
<glyph unicode="&#x14c;" glyph-name="Omacron" horiz-adv-x="706" d="M353 670Q419 670 476 645T576 575T643 466T668 328Q668 253 644 190T577 82T477 11T353 -14Q287 -14 230 11T130 81T63 190T38 328Q38 403 62 466T129 574T229 645T353 670ZM353 21Q378 21
400 26T444 46Q463 59 480 79T511 133T531 214T539 328Q539 394 532 442T511 523T481 576T444 610Q423 624 401 629T353 635Q327 635 305 630T261 610Q242 597 225 577T195 523T175 442T167 328Q167 262 174 214T195 133T225 80T261 46Q282 32 304 27T353 21ZM213
722V768H491V722H213Z" />
<glyph unicode="&#x14d;" glyph-name="omacron" horiz-adv-x="485" d="M27 215Q27 267 44 308T92 378T161 422T243 438Q286 438 325 423T393 379T440 309T458 215Q458 163 441 122T394 51T325 6T243 -10Q200 -10 161 5T92 50T45 121T27 215ZM350 215Q350 285 338
327T299 390Q288 399 273 403T243 408Q210 408 186 390Q161 370 148 328T135 215Q135 144 148 102T186 40Q211 20 243 20Q276 20 299 40Q325 60 337 102T350 215ZM121 551V597H365V551H121Z" />
<glyph unicode="&#x14e;" glyph-name="Obreve" horiz-adv-x="706" d="M353 670Q419 670 476 645T576 575T643 466T668 328Q668 253 644 190T577 82T477 11T353 -14Q287 -14 230 11T130 81T63 190T38 328Q38 403 62 466T129 574T229 645T353 670ZM353 21Q378 21
400 26T444 46Q463 59 480 79T511 133T531 214T539 328Q539 394 532 442T511 523T481 576T444 610Q423 624 401 629T353 635Q327 635 305 630T261 610Q242 597 225 577T195 523T175 442T167 328Q167 262 174 214T195 133T225 80T261 46Q282 32 304 27T353 21ZM351
707Q297 707 264 736T215 831L236 838Q258 800 287 786T352 772Q386 772 415 786T466 838L487 831Q472 766 439 737T351 707Z" />
<glyph unicode="&#x14f;" glyph-name="obreve" horiz-adv-x="485" d="M27 215Q27 267 44 308T92 378T161 422T243 438Q286 438 325 423T393 379T440 309T458 215Q458 163 441 122T394 51T325 6T243 -10Q200 -10 161 5T92 50T45 121T27 215ZM350 215Q350 285 338
327T299 390Q288 399 273 403T243 408Q210 408 186 390Q161 370 148 328T135 215Q135 144 148 102T186 40Q211 20 243 20Q276 20 299 40Q325 60 337 102T350 215ZM242 765Q185 765 157 801T123 898L143 902Q158 859 180 843T241 826Q281 826 304 842T341 902L361
898Q356 837 328 801T242 765Z" />
<glyph unicode="&#x150;" glyph-name="Ohungarumlaut" horiz-adv-x="706" d="M353 670Q419 670 476 645T576 575T643 466T668 328Q668 253 644 190T577 82T477 11T353 -14Q287 -14 230 11T130 81T63 190T38 328Q38 403 62 466T129 574T229 645T353 670ZM353 21Q378
21 400 26T444 46Q463 59 480 79T511 133T531 214T539 328Q539 394 532 442T511 523T481 576T444 610Q423 624 401 629T353 635Q327 635 305 630T261 610Q242 597 225 577T195 523T175 442T167 328Q167 262 174 214T195 133T225 80T261 46Q282 32 304 27T353 21ZM529
870Q546 870 555 861T565 836Q565 816 553 805T524 779Q516 772 509 766T492 753T468 735T433 709H408Q421 731 430 746T446 774T458 797T472 821Q487 847 499 858T529 870ZM374 870Q391 870 400 861T410 836Q410 816 399 805T370 779Q362 772 355 766T337 753T313
735T278 709H253Q266 731 275 746T291 774T304 797T318 821Q333 847 345 858T374 870Z" />
<glyph unicode="&#x151;" glyph-name="ohungarumlaut" horiz-adv-x="485" d="M27 215Q27 267 44 308T92 378T161 422T243 438Q286 438 325 423T393 379T440 309T458 215Q458 163 441 122T394 51T325 6T243 -10Q200 -10 161 5T92 50T45 121T27 215ZM350 215Q350
285 338 327T299 390Q288 399 273 403T243 408Q210 408 186 390Q161 370 148 328T135 215Q135 144 148 102T186 40Q211 20 243 20Q276 20 299 40Q325 60 337 102T350 215ZM246 671Q261 671 271 662T282 637Q282 618 272 606T244 576Q235 567 227 559T207 539T182
514T147 481L131 492Q143 515 152 532T168 564T180 591T192 617Q204 643 215 656T246 671ZM292 492Q304 515 313 532T329 564T342 591T354 617Q366 643 377 656T408 671Q422 671 432 662T443 637Q443 619 433 606T406 576Q397 567 388 559T369 539T344 514T309
481L292 492Z" />
<glyph unicode="&#x152;" glyph-name="OE" horiz-adv-x="975" d="M915 0H355Q285 0 227 23T127 88T62 192T38 329Q38 405 61 466T127 569T227 635T355 658H891L921 486H897Q879 521 862 543T818 586Q801 600 773 611T699 622H657Q645 622 634 620T616 608Q608
598 607 587T606 560V358H648Q683 358 702 364T736 384Q756 403 761 422T769 465H791V214H769Q766 238 760 258T735 298Q721 312 702 317T648 322H606V144Q606 112 609 90T625 56Q636 45 653 41T696 36H709Q734 36 754 40T790 51T819 68T846 88Q873 110 895 137T934
195H955L915 0ZM354 623Q324 623 301 617T255 596Q232 580 216 558T189 504T173 429T167 329Q167 266 172 222T188 148T215 97T255 61Q278 45 302 40T354 35Q395 35 423 47T467 92T491 182T498 329Q498 419 492 476T469 566T424 611T354 623Z" />
<glyph unicode="&#x153;" glyph-name="oe" horiz-adv-x="739" d="M27 215Q27 267 43 308T87 378T153 422T234 438Q283 438 322 419T388 363Q415 398 454 418T538 438Q586 438 619 423T672 384T702 331T712 274Q712 260 712 247T709 225H441V217Q441 165 450 125T484
60Q498 45 515 37T559 28Q589 28 610 37T647 62T671 95T688 129L714 117Q694 62 654 26T541 -10Q497 -10 466 3T411 38Q404 44 398 50T386 64Q332 -10 234 -10Q191 -10 153 5T87 50T43 121T27 215ZM333 215Q333 285 324 327T288 390Q267 408 234 408Q216 408 204
404T179 390Q154 370 145 328T135 215Q135 144 145 101T179 38Q191 27 202 24T234 20Q253 20 265 24T288 38Q313 58 323 101T333 215ZM485 387Q468 370 457 340T442 257H580Q600 257 607 266T615 298Q615 330 612 351T596 386Q586 397 574 403T539 409Q524 409
511 404T485 387Z" />
<glyph unicode="&#x154;" glyph-name="Racute" horiz-adv-x="674" d="M259 622Q244 622 240 617Q236 612 236 598V351H312Q364 351 388 360T427 390Q440 410 446 434T453 491Q453 557 425 589T333 622H259ZM331 0H27V22Q49 23 64 28Q80 33 91 42T110 68Q114 77
116 85T120 105T121 131T122 166V492Q122 532 120 552T110 590Q102 607 91 616T64 630Q49 635 27 636V658H353Q402 658 443 648T513 617T559 565T576 494Q576 446 553 416T498 366Q484 358 462 350T404 334V328Q457 322 489 301Q512 287 531 262T560 186Q571 120
584 87T615 40Q636 24 674 21V0H497Q480 19 468 53T450 131Q446 159 443 181T435 222T424 254T407 282Q391 302 368 308T313 314H236V166Q236 146 236 132T238 106T242 86T249 68Q257 51 268 42T295 28Q310 23 331 22V0ZM426 844Q444 844 454 833T465 804Q465 784
449 773T408 752Q379 743 342 734T240 708L232 726L358 813Q380 829 395 836T426 844Z" />
<glyph unicode="&#x155;" glyph-name="racute" horiz-adv-x="390" d="M191 345Q204 374 215 387T240 412Q252 422 271 430T316 438Q331 438 345 434T370 419Q377 412 381 401T386 373Q386 351 375 336T339 321Q317 321 307 332T290 361Q285 373 280 377T263 382Q254
382 242 374T220 351T201 317T190 275Q189 269 189 250T188 212V111Q188 97 188 85T191 64Q195 51 201 43T218 29Q225 26 234 25T253 22V0H28V22Q36 23 43 25T56 29Q78 40 84 64Q87 73 87 85T88 111V324Q88 335 88 348T85 370Q80 388 67 395Q52 404 26 406V428H181Q187
428 187 421Q187 420 187 409T186 385T185 359T184 345H191V345ZM167 498Q184 522 195 537T215 564T232 585T249 608Q267 633 282 652T319 672Q336 672 347 662T358 636Q358 616 348 604T317 578Q305 569 293 561T265 542T229 517T181 485L167 498V498Z" />
<glyph unicode="&#x156;" glyph-name="Rcommaaccent" horiz-adv-x="675" d="M411 -115Q411 -169 379 -199T295 -250L286 -230Q318 -216 338 -202T358 -167Q358 -159 348 -156Q324 -148 309 -135T294 -98Q294 -77 309 -62T348 -46Q375 -46 393 -63T411 -115ZM259
622Q244 622 240 617Q236 612 236 598V351H312Q364 351 388 360T427 390Q440 410 446 434T453 491Q453 557 425 589T333 622H259ZM331 0H27V22Q49 23 64 28Q80 33 91 42T110 68Q114 77 116 85T120 105T121 131T122 166V492Q122 532 120 552T110 590Q102 607 91
616T64 630Q49 635 27 636V658H353Q402 658 443 648T513 617T559 565T576 494Q576 446 553 416T498 366Q484 358 462 350T404 334V328Q457 322 489 301Q512 287 531 262T560 186Q571 120 584 87T615 40Q636 24 674 21V0H497Q480 19 468 53T450 131Q446 159 443
181T435 222T424 254T407 282Q391 302 368 308T313 314H236V166Q236 146 236 132T238 106T242 86T249 68Q257 51 268 42T295 28Q310 23 331 22V0Z" />
<glyph unicode="&#x157;" glyph-name="rcommaaccent" horiz-adv-x="390" d="M457 157Q457 103 425 73T341 22L332 42Q364 56 384 70T404 105Q404 113 394 116Q370 124 355 137T340 174Q340 195 355 210T394 226Q421 226 439 209T457 157ZM191 345Q204 374 215
387T240 412Q252 422 271 430T316 438Q331 438 345 434T370 419Q377 412 381 401T386 373Q386 351 375 336T339 321Q317 321 307 332T290 361Q285 373 280 377T263 382Q254 382 242 374T220 351T201 317T190 275Q189 269 189 250T188 212V111Q188 97 188 85T191
64Q195 51 201 43T218 29Q225 26 234 25T253 22V0H28V22Q36 23 43 25T56 29Q78 40 84 64Q87 73 87 85T88 111V324Q88 335 88 348T85 370Q80 388 67 395Q52 404 26 406V428H181Q187 428 187 421Q187 420 187 409T186 385T185 359T184 345H191V345Z" />
<glyph unicode="&#x158;" glyph-name="Rcaron" horiz-adv-x="674" d="M259 622Q244 622 240 617Q236 612 236 598V351H312Q364 351 388 360T427 390Q440 410 446 434T453 491Q453 557 425 589T333 622H259ZM331 0H27V22Q49 23 64 28Q80 33 91 42T110 68Q114 77
116 85T120 105T121 131T122 166V492Q122 532 120 552T110 590Q102 607 91 616T64 630Q49 635 27 636V658H353Q402 658 443 648T513 617T559 565T576 494Q576 446 553 416T498 366Q484 358 462 350T404 334V328Q457 322 489 301Q512 287 531 262T560 186Q571 120
584 87T615 40Q636 24 674 21V0H497Q480 19 468 53T450 131Q446 159 443 181T435 222T424 254T407 282Q391 302 368 308T313 314H236V166Q236 146 236 132T238 106T242 86T249 68Q257 51 268 42T295 28Q310 23 331 22V0ZM453 826Q417 791 391 764T342 710H292Q269
736 243 763T181 826L193 839L317 770L440 839L453 826V826Z" />
<glyph unicode="&#x159;" glyph-name="rcaron" horiz-adv-x="390" d="M191 345Q204 374 215 387T240 412Q252 422 271 430T316 438Q331 438 345 434T370 419Q377 412 381 401T386 373Q386 351 375 336T339 321Q317 321 307 332T290 361Q285 373 280 377T263 382Q254
382 242 374T220 351T201 317T190 275Q189 269 189 250T188 212V111Q188 97 188 85T191 64Q195 51 201 43T218 29Q225 26 234 25T253 22V0H28V22Q36 23 43 25T56 29Q78 40 84 64Q87 73 87 85T88 111V324Q88 335 88 348T85 370Q80 388 67 395Q52 404 26 406V428H181Q187
428 187 421Q187 420 187 409T186 385T185 359T184 345H191V345ZM353 902Q320 857 293 820T248 756H199Q182 782 155 819T94 902L110 916L224 819L337 916L353 902V902Z" />
<glyph unicode="&#x15a;" glyph-name="Sacute" horiz-adv-x="527" d="M270 -14Q216 -14 171 4T100 47H96L68 4H47L39 226H62Q76 183 97 146T144 81T203 38T270 22Q333 22 363 51T394 129Q394 160 384 182T355 221T306 253T239 284Q205 298 172 315T112 355T70
412T53 492Q53 532 68 564T111 620T174 657T251 670Q279 670 300 667T337 659T366 646T391 629H396L418 661H443L460 464H436Q422 502 403 535T363 588Q343 608 319 621T251 634Q232 634 214 628T182 610T159 581T150 543Q150 509 162 487T193 450T238 423T291
398Q330 379 366 361T431 320T476 265T493 185Q493 137 475 100T426 38T355 -1T270 -14ZM399 844Q417 844 427 833T438 804Q438 784 422 773T381 752Q352 743 315 734T213 708L205 726L331 813Q353 829 368 836T399 844Z" />
<glyph unicode="&#x15b;" glyph-name="sacute" horiz-adv-x="377" d="M356 126Q356 92 344 67T311 24T262 -1T201 -10Q166 -10 135 1T81 34H77L59 0H41L35 162H56Q77 101 114 61T203 20Q238 20 257 35T277 80Q277 98 271 110T251 132T218 150T169 171Q143 181
119 192T77 219T49 258T38 317Q38 341 48 362T78 401T125 428T186 438Q223 438 248 428T287 406H290L303 429H321L327 300H306Q288 346 261 377T186 408Q154 408 135 393T116 352Q116 336 120 324T136 302T167 282T215 261Q243 250 268 239T313 213T344 177T356
126ZM137 498Q154 522 165 537T185 564T202 585T219 608Q237 633 252 652T289 672Q306 672 317 662T328 636Q328 616 318 604T287 578Q275 569 263 561T235 542T199 517T151 485L137 498V498Z" />
<glyph unicode="&#x15c;" glyph-name="Scircumflex" horiz-adv-x="527" d="M270 -14Q216 -14 171 4T100 47H96L68 4H47L39 226H62Q76 183 97 146T144 81T203 38T270 22Q333 22 363 51T394 129Q394 160 384 182T355 221T306 253T239 284Q205 298 172 315T112 355T70
412T53 492Q53 532 68 564T111 620T174 657T251 670Q279 670 300 667T337 659T366 646T391 629H396L418 661H443L460 464H436Q422 502 403 535T363 588Q343 608 319 621T251 634Q232 634 214 628T182 610T159 581T150 543Q150 509 162 487T193 450T238 423T291
398Q330 379 366 361T431 320T476 265T493 185Q493 137 475 100T426 38T355 -1T270 -14ZM144 977Q180 1012 206 1039T255 1093H305Q328 1067 354 1040T416 977L403 964L280 1033L156 964L144 977V977Z" />
<glyph unicode="&#x15d;" glyph-name="scircumflex" horiz-adv-x="377" d="M356 126Q356 92 344 67T311 24T262 -1T201 -10Q166 -10 135 1T81 34H77L59 0H41L35 162H56Q77 101 114 61T203 20Q238 20 257 35T277 80Q277 98 271 110T251 132T218 150T169 171Q143
181 119 192T77 219T49 258T38 317Q38 341 48 362T78 401T125 428T186 438Q223 438 248 428T287 406H290L303 429H321L327 300H306Q288 346 261 377T186 408Q154 408 135 393T116 352Q116 336 120 324T136 302T167 282T215 261Q243 250 268 239T313 213T344 177T356
126ZM475 915Q492 889 519 852T580 769L564 755L451 852L337 755L321 769Q354 814 381 851T426 915H475V915Z" />
<glyph unicode="&#x15e;" glyph-name="Scedilla" horiz-adv-x="527" d="M348 -130Q348 -153 339 -169T314 -195T278 -209T235 -214Q211 -214 187 -208T147 -190L159 -167Q173 -177 192 -182T230 -187Q256 -187 272 -175T289 -135Q289 -112 276 -102T245 -91Q234
-91 226 -94T210 -103L185 -91L215 -9Q192 -4 171 4Q126 22 100 47H96L68 4H47L39 226H62Q76 183 97 146T144 81T203 38T270 22Q333 22 363 51T394 129Q394 160 384 182T355 221T306 253T239 284Q205 298 172 315T112 355T70 412T53 492Q53 532 68 564T111 620T174
657T251 670Q279 670 300 667T337 659T366 646T391 629H396L418 661H443L460 464H436Q422 502 403 535T363 588Q343 608 319 621T251 634Q232 634 214 628T182 610T159 581T150 543Q150 509 162 487T193 450T238 423T291 398Q330 379 366 361T431 320T476 265T493
185Q493 137 475 100T426 38T355 -1T270 -14Q256 -14 244 -13L222 -74Q242 -64 267 -64Q305 -64 326 -82T348 -130Z" />
<glyph unicode="&#x15f;" glyph-name="scedilla" horiz-adv-x="377" d="M276 -113Q276 -136 267 -152T242 -178T206 -192T163 -197Q139 -197 115 -191T75 -173L87 -150Q101 -160 120 -165T158 -170Q184 -170 200 -158T217 -118Q217 -95 204 -85T173 -74Q162 -74
154 -77T138 -86L113 -74L140 0Q137 0 135 1Q104 12 81 34H77L59 0H41L35 162H56Q77 101 114 61T203 20Q238 20 257 35T277 80Q277 98 271 110T251 132T218 150T169 171Q143 181 119 192T77 219T49 258T38 317Q38 341 48 362T78 401T125 428T186 438Q223 438 248
428T287 406H290L303 429H321L327 300H306Q288 346 261 377T186 408Q154 408 135 393T116 352Q116 336 120 324T136 302T167 282T215 261Q243 250 268 239T313 213T344 177T356 126Q356 92 344 67T311 24T262 -1T201 -10Q184 -10 168 -7L150 -57Q170 -47 195 -47Q233
-47 254 -65T276 -113Z" />
<glyph unicode="&#x160;" glyph-name="Scaron" horiz-adv-x="527" d="M270 -14Q216 -14 171 4T100 47H96L68 4H47L39 226H62Q76 183 97 146T144 81T203 38T270 22Q333 22 363 51T394 129Q394 160 384 182T355 221T306 253T239 284Q205 298 172 315T112 355T70
412T53 492Q53 532 68 564T111 620T174 657T251 670Q279 670 300 667T337 659T366 646T391 629H396L418 661H443L460 464H436Q422 502 403 535T363 588Q343 608 319 621T251 634Q232 634 214 628T182 610T159 581T150 543Q150 509 162 487T193 450T238 423T291
398Q330 379 366 361T431 320T476 265T493 185Q493 137 475 100T426 38T355 -1T270 -14ZM416 826Q380 791 354 764T305 710H255Q232 736 206 763T144 826L156 839L280 770L403 839L416 826V826Z" />
<glyph unicode="&#x161;" glyph-name="scaron" horiz-adv-x="377" d="M356 126Q356 92 344 67T311 24T262 -1T201 -10Q166 -10 135 1T81 34H77L59 0H41L35 162H56Q77 101 114 61T203 20Q238 20 257 35T277 80Q277 98 271 110T251 132T218 150T169 171Q143 181
119 192T77 219T49 258T38 317Q38 341 48 362T78 401T125 428T186 438Q223 438 248 428T287 406H290L303 429H321L327 300H306Q288 346 261 377T186 408Q154 408 135 393T116 352Q116 336 120 324T136 302T167 282T215 261Q243 250 268 239T313 213T344 177T356
126ZM580 902Q547 857 520 820T475 756H426Q409 782 382 819T321 902L337 916L451 819L564 916L580 902V902Z" />
<glyph unicode="&#x162;" glyph-name="Tcommaaccent" horiz-adv-x="632" d="M381 -115Q381 -169 349 -199T265 -250L256 -230Q288 -216 308 -202T328 -167Q328 -159 318 -156Q294 -148 279 -135T264 -98Q264 -77 279 -62T318 -46Q345 -46 363 -63T381 -115ZM373
166Q373 146 373 132T375 106T379 86T386 68Q394 51 405 42T432 28Q447 23 467 22V0H165V22Q187 24 200 28Q216 33 227 42T247 68Q251 77 253 85T256 105T258 131T259 166V623H234Q201 623 170 615T108 581Q92 568 81 556T61 532T45 506T30 477H7L35 658H598L625
477H603Q587 508 572 531T524 581Q494 607 463 615T398 623H373V166V166Z" />
<glyph unicode="&#x163;" glyph-name="tcommaaccent" horiz-adv-x="312" d="M491 157Q491 103 459 73T375 22L366 42Q398 56 418 70T438 105Q438 113 428 116Q404 124 389 137T374 174Q374 195 389 210T428 226Q455 226 473 209T491 157ZM312 42Q289 13 259 2T194
-10Q163 -10 142 -4T103 17Q88 30 83 48T77 94V392Q63 392 42 392T8 394V417Q34 422 54 434T92 466T124 516T151 587H177V428H287V391H177V94Q177 67 188 52T229 37Q249 37 267 42T298 61L312 42Z" />
<glyph unicode="&#x164;" glyph-name="Tcaron" horiz-adv-x="632" d="M373 166Q373 146 373 132T375 106T379 86T386 68Q394 51 405 42T432 28Q447 23 467 22V0H165V22Q187 24 200 28Q216 33 227 42T247 68Q251 77 253 85T256 105T258 131T259 166V623H234Q201
623 170 615T108 581Q92 568 81 556T61 532T45 506T30 477H7L35 658H598L625 477H603Q587 508 572 531T524 581Q494 607 463 615T398 623H373V166V166ZM452 826Q416 791 390 764T341 710H291Q268 736 242 763T180 826L192 839L316 770L439 839L452 826V826Z" />
<glyph unicode="&#x165;" glyph-name="tcaron" horiz-adv-x="312" d="M312 42Q289 13 259 2T194 -10Q163 -10 142 -4T103 17Q88 30 83 48T77 94V392Q63 392 42 392T8 394V417Q34 422 54 434T92 466T124 516T151 587H177V428H287V391H177V94Q177 67 188 52T229
37Q249 37 267 42T298 61L312 42ZM244 684H318L245 493H222L244 684Z" />
<glyph unicode="&#x166;" glyph-name="Tbar" horiz-adv-x="632" d="M373 166Q373 146 373 132T375 106T379 86T386 68Q394 51 405 42T432 28Q447 23 467 22V0H165V22Q187 24 200 28Q216 33 227 42T247 68Q251 77 253 85T256 105T258 131T259 166V337H106V374H259V623H234Q201
623 170 615T108 581Q92 568 81 556T61 532T45 506T30 477H7L35 658H598L625 477H603Q587 508 572 531T524 581Q494 607 463 615T398 623H373V374H528V337H373V166V166Z" />
<glyph unicode="&#x167;" glyph-name="tbar" horiz-adv-x="312" d="M286 262V233H8V262H286ZM312 42Q289 13 259 2T194 -10Q163 -10 142 -4T103 17Q88 30 83 48T77 94V392Q63 392 42 392T8 394V417Q34 422 54 434T92 466T124 516T151 587H177V428H287V391H177V94Q177
67 188 52T229 37Q249 37 267 42T298 61L312 42Z" />
<glyph unicode="&#x168;" glyph-name="Utilde" horiz-adv-x="714" d="M608 222Q608 172 601 137T573 69Q550 33 500 10T366 -13Q326 -13 288 -7T218 14T160 51T122 106Q116 119 113 137T107 174T103 212T102 247V492Q102 532 100 552T89 590Q81 607 70 616T43
630Q29 634 7 636V658H310V636Q288 634 275 630Q259 625 248 616T229 590Q221 573 219 553T216 493V211Q216 187 218 164T229 118Q238 92 253 75T288 47T333 32T383 27Q502 27 540 92Q554 116 559 146T565 216V507Q565 549 561 568T545 601Q534 614 524 620T501
630Q493 632 482 633T460 636V658H706V636Q683 633 666 628Q653 624 644 618T625 598Q617 586 613 567T608 507V222V222ZM537 822Q531 804 523 786T502 752T475 728T439 718Q421 718 404 722T370 730T338 739T308 743Q287 743 272 735T246 703L227 710Q233 728
242 746T263 779T291 803T326 812Q344 812 360 808T393 800T425 791T457 787Q481 787 494 796T519 828L537 822V822Z" />
<glyph unicode="&#x169;" glyph-name="utilde" horiz-adv-x="529" d="M449 111Q449 80 453 64Q459 40 481 29Q486 27 495 25T513 22V0H363Q355 0 355 9Q355 11 355 20T354 41V68H348Q337 49 328 38T305 16Q288 4 266 -3T215 -10Q185 -10 156 -2T107 30Q93 47 86
68T78 125V323Q78 335 78 349T74 371Q69 387 56 395Q40 405 16 406V428H174Q181 428 181 421Q180 404 179 383T178 327V126Q178 103 181 87T196 58Q208 45 221 40T252 35Q268 35 283 41T312 60Q326 71 335 88T346 129Q348 146 349 158T350 192V323Q350 335 349
349T346 371Q340 387 327 395Q311 405 286 406V428H446Q452 428 452 421Q451 404 450 383T449 327V111V111ZM405 635Q399 617 390 599T369 565T342 541T307 532Q289 532 272 536T240 545T210 555T180 559Q158 559 144 550T118 519L99 526Q105 544 114 562T135 595T162
619T197 628Q215 628 231 624T262 615T292 605T323 601Q347 601 361 610T386 642L405 635Z" />
<glyph unicode="&#x16a;" glyph-name="Umacron" horiz-adv-x="714" d="M608 222Q608 172 601 137T573 69Q550 33 500 10T366 -13Q326 -13 288 -7T218 14T160 51T122 106Q116 119 113 137T107 174T103 212T102 247V492Q102 532 100 552T89 590Q81 607 70 616T43
630Q29 634 7 636V658H310V636Q288 634 275 630Q259 625 248 616T229 590Q221 573 219 553T216 493V211Q216 187 218 164T229 118Q238 92 253 75T288 47T333 32T383 27Q502 27 540 92Q554 116 559 146T565 216V507Q565 549 561 568T545 601Q534 614 524 620T501
630Q493 632 482 633T460 636V658H706V636Q683 633 666 628Q653 624 644 618T625 598Q617 586 613 567T608 507V222V222ZM242 722V768H520V722H242Z" />
<glyph unicode="&#x16b;" glyph-name="umacron" horiz-adv-x="529" d="M449 111Q449 80 453 64Q459 40 481 29Q486 27 495 25T513 22V0H363Q355 0 355 9Q355 11 355 20T354 41V68H348Q337 49 328 38T305 16Q288 4 266 -3T215 -10Q185 -10 156 -2T107 30Q93 47
86 68T78 125V323Q78 335 78 349T74 371Q69 387 56 395Q40 405 16 406V428H174Q181 428 181 421Q180 404 179 383T178 327V126Q178 103 181 87T196 58Q208 45 221 40T252 35Q268 35 283 41T312 60Q326 71 335 88T346 129Q348 146 349 158T350 192V323Q350 335 349
349T346 371Q340 387 327 395Q311 405 286 406V428H446Q452 428 452 421Q451 404 450 383T449 327V111V111ZM130 551V597H374V551H130Z" />
<glyph unicode="&#x16c;" glyph-name="Ubreve" horiz-adv-x="714" d="M608 222Q608 172 601 137T573 69Q550 33 500 10T366 -13Q326 -13 288 -7T218 14T160 51T122 106Q116 119 113 137T107 174T103 212T102 247V492Q102 532 100 552T89 590Q81 607 70 616T43
630Q29 634 7 636V658H310V636Q288 634 275 630Q259 625 248 616T229 590Q221 573 219 553T216 493V211Q216 187 218 164T229 118Q238 92 253 75T288 47T333 32T383 27Q502 27 540 92Q554 116 559 146T565 216V507Q565 549 561 568T545 601Q534 614 524 620T501
630Q493 632 482 633T460 636V658H706V636Q683 633 666 628Q653 624 644 618T625 598Q617 586 613 567T608 507V222V222ZM381 707Q327 707 294 736T245 831L266 838Q288 800 317 786T382 772Q416 772 445 786T496 838L517 831Q502 766 469 737T381 707Z" />
<glyph unicode="&#x16d;" glyph-name="ubreve" horiz-adv-x="529" d="M449 111Q449 80 453 64Q459 40 481 29Q486 27 495 25T513 22V0H363Q355 0 355 9Q355 11 355 20T354 41V68H348Q337 49 328 38T305 16Q288 4 266 -3T215 -10Q185 -10 156 -2T107 30Q93 47 86
68T78 125V323Q78 335 78 349T74 371Q69 387 56 395Q40 405 16 406V428H174Q181 428 181 421Q180 404 179 383T178 327V126Q178 103 181 87T196 58Q208 45 221 40T252 35Q268 35 283 41T312 60Q326 71 335 88T346 129Q348 146 349 158T350 192V323Q350 335 349
349T346 371Q340 387 327 395Q311 405 286 406V428H446Q452 428 452 421Q451 404 450 383T449 327V111V111ZM252 765Q195 765 167 801T133 898L153 902Q168 859 190 843T251 826Q291 826 314 842T351 902L371 898Q366 837 338 801T252 765Z" />
<glyph unicode="&#x16e;" glyph-name="Uring" horiz-adv-x="714" d="M608 222Q608 172 601 137T573 69Q550 33 500 10T366 -13Q326 -13 288 -7T218 14T160 51T122 106Q116 119 113 137T107 174T103 212T102 247V492Q102 532 100 552T89 590Q81 607 70 616T43 630Q29
634 7 636V658H310V636Q288 634 275 630Q259 625 248 616T229 590Q221 573 219 553T216 493V211Q216 187 218 164T229 118Q238 92 253 75T288 47T333 32T383 27Q502 27 540 92Q554 116 559 146T565 216V507Q565 549 561 568T545 601Q534 614 524 620T501 630Q493
632 482 633T460 636V658H706V636Q683 633 666 628Q653 624 644 618T625 598Q617 586 613 567T608 507V222V222ZM381 861Q413 861 438 839T463 777Q463 737 438 716T381 694Q349 694 324 715T299 777Q299 817 324 839T381 861ZM325 777Q325 748 341 732T381 716Q404
716 420 732T437 777Q437 806 421 822T381 839Q358 839 342 823T325 777Z" />
<glyph unicode="&#x16f;" glyph-name="uring" horiz-adv-x="529" d="M449 111Q449 80 453 64Q459 40 481 29Q486 27 495 25T513 22V0H363Q355 0 355 9Q355 11 355 20T354 41V68H348Q337 49 328 38T305 16Q288 4 266 -3T215 -10Q185 -10 156 -2T107 30Q93 47 86
68T78 125V323Q78 335 78 349T74 371Q69 387 56 395Q40 405 16 406V428H174Q181 428 181 421Q180 404 179 383T178 327V126Q178 103 181 87T196 58Q208 45 221 40T252 35Q268 35 283 41T312 60Q326 71 335 88T346 129Q348 146 349 158T350 192V323Q350 335 349
349T346 371Q340 387 327 395Q311 405 286 406V428H446Q452 428 452 421Q451 404 450 383T449 327V111V111ZM252 758Q220 758 195 779T170 841Q170 882 195 903T252 925Q284 925 309 904T334 841Q334 801 309 780T252 758ZM196 841Q196 812 212 796T252 780Q275
780 291 796T308 841Q308 870 292 886T252 903Q229 903 213 887T196 841Z" />
<glyph unicode="&#x170;" glyph-name="Uhungarumlaut" horiz-adv-x="714" d="M608 222Q608 172 601 137T573 69Q550 33 500 10T366 -13Q326 -13 288 -7T218 14T160 51T122 106Q116 119 113 137T107 174T103 212T102 247V492Q102 532 100 552T89 590Q81 607 70
616T43 630Q29 634 7 636V658H310V636Q288 634 275 630Q259 625 248 616T229 590Q221 573 219 553T216 493V211Q216 187 218 164T229 118Q238 92 253 75T288 47T333 32T383 27Q502 27 540 92Q554 116 559 146T565 216V507Q565 549 561 568T545 601Q534 614 524
620T501 630Q493 632 482 633T460 636V658H706V636Q683 633 666 628Q653 624 644 618T625 598Q617 586 613 567T608 507V222V222ZM558 870Q575 870 584 861T594 836Q594 816 582 805T553 779Q545 772 538 766T521 753T497 735T462 709H437Q450 731 459 746T475
774T487 797T501 821Q516 847 528 858T558 870ZM403 870Q420 870 429 861T439 836Q439 816 428 805T399 779Q391 772 384 766T366 753T342 735T307 709H282Q295 731 304 746T320 774T333 797T347 821Q362 847 374 858T403 870Z" />
<glyph unicode="&#x171;" glyph-name="uhungarumlaut" horiz-adv-x="529" d="M449 111Q449 80 453 64Q459 40 481 29Q486 27 495 25T513 22V0H363Q355 0 355 9Q355 11 355 20T354 41V68H348Q337 49 328 38T305 16Q288 4 266 -3T215 -10Q185 -10 156 -2T107 30Q93
47 86 68T78 125V323Q78 335 78 349T74 371Q69 387 56 395Q40 405 16 406V428H174Q181 428 181 421Q180 404 179 383T178 327V126Q178 103 181 87T196 58Q208 45 221 40T252 35Q268 35 283 41T312 60Q326 71 335 88T346 129Q348 146 349 158T350 192V323Q350 335
349 349T346 371Q340 387 327 395Q311 405 286 406V428H446Q452 428 452 421Q451 404 450 383T449 327V111V111ZM255 671Q270 671 280 662T291 637Q291 618 281 606T253 576Q244 567 236 559T216 539T191 514T156 481L140 492Q152 515 161 532T177 564T189 591T201
617Q213 643 224 656T255 671ZM301 492Q313 515 322 532T338 564T351 591T363 617Q375 643 386 656T417 671Q431 671 441 662T452 637Q452 619 442 606T415 576Q406 567 397 559T378 539T353 514T318 481L301 492Z" />
<glyph unicode="&#x172;" glyph-name="Uogonek" horiz-adv-x="714" d="M608 222Q608 172 601 137T573 69Q561 50 541 34T485 5Q460 -4 442 -17T411 -47T392 -81T386 -114Q386 -153 404 -169T458 -189V-209Q419 -211 391 -205T345 -187T319 -159T310 -124Q310 -86
343 -59T428 -7Q413 -9 398 -11T365 -13Q326 -13 288 -7T218 14T160 51T122 106Q116 119 113 137T107 174T103 212T102 247V492Q102 532 100 552T89 590Q81 607 70 616T43 630Q28 635 7 636V658H310V636Q288 634 275 630Q258 625 247 616T228 590Q220 573 218 553T216
493V211Q216 187 218 164T229 118Q238 92 253 75T288 47T333 32T383 27Q501 27 540 92Q554 116 559 146T565 216V507Q565 549 560 568T544 601Q533 614 524 620T500 630Q492 632 482 633T460 636V658H706V636Q683 633 666 628Q653 624 644 618T625 598Q616 586
612 567T608 507V222Z" />
<glyph unicode="&#x173;" glyph-name="uogonek" horiz-adv-x="529" d="M448 0Q415 0 393 -10T357 -38T337 -76T331 -120Q331 -155 350 -170T403 -189V-209Q364 -211 336 -205T290 -187T264 -157T255 -121Q255 -103 263 -88T285 -60T317 -34T355 -9V11Q355 13 355
22T354 42V68H348Q338 51 331 41T308 19Q273 -10 215 -10Q185 -10 156 -2T107 30Q93 47 86 68T78 125V323Q78 335 78 349T74 371Q69 387 56 395Q40 405 16 406V428H174Q181 428 181 421Q180 404 179 383T178 327V126Q178 103 181 87T196 58Q208 45 221 40T252 35Q268
35 283 41T312 60Q326 71 335 88T346 129Q348 146 349 158T350 192V323Q350 335 349 349T346 371Q340 387 327 395Q311 405 286 406V428H446Q452 428 452 421Q451 404 450 383T449 327V111Q449 80 453 64Q459 40 481 29Q486 27 495 25T513 22V0H448Z" />
<glyph unicode="&#x174;" glyph-name="Wcircumflex" horiz-adv-x="975" d="M346 165H353L471 531Q463 552 458 565T444 590Q432 607 422 615T399 628Q390 631 382 633T362 636V658H674V636Q657 634 645 633T625 629Q611 624 601 617T590 587Q590 565 597 540T613
491L711 165H718L821 501Q829 527 833 545T838 580Q838 600 830 611T807 627Q798 631 786 633T759 636V658H984V636Q970 634 958 632T936 623Q920 614 901 586Q887 563 863 496L698 -5H647L492 469L333 -5H282L119 493Q108 528 99 548T78 583Q66 600 56 609T31
625Q23 629 12 631T-8 636V658H306V636Q273 633 258 628Q244 623 234 615T224 587Q224 565 230 544T246 491L346 165ZM378 721Q414 756 440 783T489 837H539Q562 811 588 784T650 721L637 708L514 777L390 708L378 721V721Z" />
<glyph unicode="&#x175;" glyph-name="wcircumflex" horiz-adv-x="689" d="M693 406Q687 405 679 403T663 396Q657 392 652 388T640 373Q633 363 626 347T606 299L496 -4H451L345 274L243 -4H198L90 281Q78 310 70 330T57 358Q49 375 44 382T30 396Q22 401 12
403T-4 406V428H223V406Q216 405 206 404T190 399Q183 395 178 388T172 367Q172 353 176 338T189 299L252 115H258L328 319L312 358Q304 375 299 382T285 396Q277 401 270 403T256 406V428H472V406Q461 405 455 404T443 399Q436 395 431 388T425 367Q425 353 429
338T442 299L504 115H510L569 295Q574 309 577 318T582 335T585 350T586 366Q586 380 581 387T567 399Q560 403 555 404T539 406V428H693V406V406ZM380 659Q397 633 424 596T485 513L469 499L356 596L242 499L226 513Q259 558 286 595T331 659H380V659Z" />
<glyph unicode="&#x176;" glyph-name="Ycircumflex" horiz-adv-x="605" d="M98 538Q82 566 69 584T44 612T20 628T-8 636V658H286V636Q253 633 238 628Q206 617 209 592T235 525L338 336H343L436 507Q454 540 460 558T467 594Q467 611 461 617T440 629Q432 632
421 633T401 636V658H614V636Q590 633 572 624T539 598T510 558T477 502L357 279V169Q357 127 359 106T369 68Q377 51 388 42T416 28Q429 23 452 22V0H147V22Q169 23 184 28Q200 33 211 42T230 68Q238 85 240 106T243 169V279L98 538ZM205 721Q241 756 267 783T316
837H366Q389 811 415 784T477 721L464 708L341 777L217 708L205 721V721Z" />
<glyph unicode="&#x177;" glyph-name="ycircumflex" horiz-adv-x="457" d="M227 -55Q215 -84 202 -112T171 -164Q154 -184 130 -198T71 -213Q39 -213 17 -197T-5 -152Q-5 -132 8 -118T39 -104Q58 -104 69 -112T89 -134Q99 -147 104 -151T121 -156Q141 -156 156
-128T191 -55Q196 -41 199 -31T202 -9Q202 8 196 20L90 281Q78 310 70 329T57 358Q49 375 44 382T30 396Q22 401 12 403T-4 406V428H226V406Q218 405 207 404T190 399Q182 395 177 388T172 367Q172 353 177 338T191 299L259 122H264L334 295Q339 309 342 318T348
335T352 350T353 366Q353 380 348 387T334 399Q326 403 318 404T301 406V428H461V406Q455 405 447 404T430 397Q424 393 419 388T406 373Q399 363 391 344T371 299L227 -55V-55ZM283 915Q300 889 327 852T388 769L372 755L259 852L145 755L129 769Q162 814 189
851T234 915H283V915Z" />
<glyph unicode="&#x178;" glyph-name="Ydieresis" horiz-adv-x="605" d="M98 538Q82 566 69 584T44 612T20 628T-8 636V658H286V636Q253 633 238 628Q206 617 209 592T235 525L338 336H343L436 507Q454 540 460 558T467 594Q467 611 461 617T440 629Q432 632 421
633T401 636V658H614V636Q590 633 572 624T539 598T510 558T477 502L357 279V169Q357 127 359 106T369 68Q377 51 388 42T416 28Q429 23 452 22V0H147V22Q169 23 184 28Q200 33 211 42T230 68Q238 85 240 106T243 169V279L98 538ZM287 774Q287 751 272 736T235
720Q212 720 197 735T182 774Q182 796 197 811T235 827Q257 827 272 812T287 774ZM446 827Q468 827 483 812T498 774Q498 751 483 736T446 720Q423 720 408 735T393 774Q393 796 408 811T446 827Z" />
<glyph unicode="&#x179;" glyph-name="Zacute" horiz-adv-x="599" d="M558 633L179 36H265Q298 36 323 37T368 43T404 53T436 69Q461 84 479 99T511 132T536 166T561 202H586L527 0H33V25L421 622H316Q264 622 233 615T174 588Q148 569 123 539T73 470H48L92 658H558V633ZM426
844Q444 844 454 833T465 804Q465 784 449 773T408 752Q379 743 342 734T240 708L232 726L358 813Q380 829 395 836T426 844Z" />
<glyph unicode="&#x17a;" glyph-name="zacute" horiz-adv-x="417" d="M376 0H29V16L265 396V400H179Q158 400 144 393T115 373Q99 358 83 338T50 294H25L68 428H383V409L153 30V27H230Q263 27 283 36T320 63Q340 86 355 107T382 148H405L376 0ZM162 498Q179 522
190 537T210 564T227 585T244 608Q262 633 277 652T314 672Q331 672 342 662T353 636Q353 616 343 604T312 578Q300 569 288 561T260 542T224 517T176 485L162 498V498Z" />
<glyph unicode="&#x17b;" glyph-name="Zdotaccent" horiz-adv-x="599" d="M558 633L179 36H265Q298 36 323 37T368 43T404 53T436 69Q461 84 479 99T511 132T536 166T561 202H586L527 0H33V25L421 622H316Q264 622 233 615T174 588Q148 569 123 539T73 470H48L92
658H558V633ZM308 720Q282 720 265 736T248 779Q248 804 265 821T308 838Q334 838 351 821T368 779Q368 753 351 737T308 720Z" />
<glyph unicode="&#x17c;" glyph-name="zdotaccent" horiz-adv-x="417" d="M376 0H29V16L265 396V400H179Q158 400 144 393T115 373Q99 358 83 338T50 294H25L68 428H383V409L153 30V27H230Q263 27 283 36T320 63Q340 86 355 107T382 148H405L376 0ZM278 560Q278
535 261 518T218 501Q192 501 175 518T158 560Q158 586 175 602T218 619Q244 619 261 603T278 560Z" />
<glyph unicode="&#x17d;" glyph-name="Zcaron" horiz-adv-x="599" d="M558 633L179 36H265Q298 36 323 37T368 43T404 53T436 69Q461 84 479 99T511 132T536 166T561 202H586L527 0H33V25L421 622H316Q264 622 233 615T174 588Q148 569 123 539T73 470H48L92 658H558V633ZM435
834Q399 799 373 772T324 718H274Q251 744 225 771T163 834L175 847L299 778L422 847L435 834V834Z" />
<glyph unicode="&#x17e;" glyph-name="zcaron" horiz-adv-x="417" d="M376 0H29V16L265 396V400H179Q158 400 144 393T115 373Q99 358 83 338T50 294H25L68 428H383V409L153 30V27H230Q263 27 283 36T320 63Q340 86 355 107T382 148H405L376 0ZM348 902Q315 857
288 820T243 756H194Q177 782 150 819T89 902L105 916L219 819L332 916L348 902V902Z" />
<glyph unicode="&#x192;" glyph-name="florin" horiz-adv-x="503" d="M336 391Q328 359 318 316T297 224T272 124T245 24Q186 -182 56 -182Q0 -182 -31 -159T-62 -100Q-62 -74 -47 -63T-15 -51Q5 -51 16 -63T29 -92Q30 -104 30 -111T31 -130Q34 -151 56 -151Q76
-151 89 -140T114 -92Q152 36 178 156T232 391H151L159 424H240L252 463Q282 556 330 613T448 670Q498 670 525 650T552 591Q552 570 540 559T507 547Q484 547 473 559T463 589Q463 598 465 606T467 622Q466 631 460 634T446 638Q435 638 425 632T405 610Q391 586
376 544T343 424H448L440 391H336Z" />
<glyph unicode="&#x1fa;" glyph-name="Aringacute" horiz-adv-x="653" d="M384 220H182L160 157Q152 136 148 118T143 82Q143 62 151 49T174 31Q183 27 195 25T221 22V0H0V22Q14 24 24 26T45 35Q65 46 80 73Q95 100 118 162L303 662H353L530 159Q539 133 549 112T569
77Q580 60 592 50T618 34Q636 26 653 22V0H348V22Q365 24 375 26T392 31Q408 36 418 44T428 75Q428 97 420 121T403 168L384 220ZM195 256H372L287 496H280L195 256ZM425 1020Q443 1020 453 1009T464 980Q464 960 448 949T407 928Q378 919 341 910T239 884L231
902L357 989Q379 1005 394 1012T425 1020ZM323 869Q355 869 380 847T405 785Q405 745 380 724T323 702Q291 702 266 723T241 785Q241 825 266 847T323 869ZM267 785Q267 756 283 740T323 724Q346 724 362 740T379 785Q379 814 363 830T323 847Q300 847 284 831T267
785Z" />
<glyph unicode="&#x1fb;" glyph-name="aringacute" horiz-adv-x="431" d="M426 8Q418 3 394 -3T338 -10Q318 -10 306 -7T286 1Q277 7 270 19T262 54H256Q251 44 242 33T220 13T187 -3T143 -10Q120 -10 99 -3T61 17T36 51T26 99Q26 120 33 140T58 176Q80 196 104
206T166 227Q208 238 227 248T255 272L256 355Q256 385 243 397T204 409Q190 409 179 405T160 395Q153 390 147 378T137 346Q131 304 91 304Q72 304 60 315T48 345Q48 369 67 390Q84 408 120 423T204 438Q274 438 315 418T356 344Q356 333 356 303T355 237T355
165T354 111Q354 76 356 61T363 39Q371 25 390 25Q398 25 406 26T419 29L426 8ZM255 237Q248 230 233 223T198 206Q180 198 166 190T142 171Q133 160 128 144T122 107Q122 66 139 51T180 36Q206 36 225 49T252 88L255 237ZM209 505Q177 505 152 526T127 588Q127
629 152 650T209 672Q241 672 266 651T291 588Q291 548 266 527T209 505ZM153 588Q153 559 169 543T209 527Q232 527 248 543T265 588Q265 617 249 633T209 650Q186 650 170 634T153 588ZM315 845Q333 845 343 834T354 805Q354 785 338 774T297 753Q268 744 231
735T129 709L121 727L247 814Q269 830 284 837T315 845Z" />
<glyph unicode="&#x1fc;" glyph-name="AEacute" horiz-adv-x="903" d="M691 844Q709 844 719 833T730 804Q730 784 714 773T673 752Q644 743 607 734T505 708L497 726L623 813Q645 829 660 836T691 844ZM174 156Q163 134 154 114T145 77Q145 57 152 47T174 31Q182
27 194 25T220 22V0H-4V22Q10 24 20 28T41 38Q50 44 59 52T78 74Q87 86 101 109T131 162L384 620Q377 625 363 630Q356 632 344 633T321 636V658H818L849 486H825Q806 521 789 543T744 587Q727 601 699 611T624 622H588Q576 622 565 620T547 608Q539 598 538 587T536
560V358H579Q614 358 633 364T667 384Q686 403 691 422T700 465H722V214H700Q697 238 691 258T665 298Q651 312 632 317T579 322H536V144Q536 112 539 90T556 56Q567 45 584 41T627 36H639Q691 36 721 52T772 87Q804 113 823 138T861 195H883L842 0H327V22Q349
23 363 28Q380 33 391 42T410 68Q418 85 420 106T422 169V243H222L174 156ZM422 481Q422 520 420 545T411 587L242 280H422V481Z" />
<glyph unicode="&#x1fd;" glyph-name="aeacute" horiz-adv-x="662" d="M306 498Q323 522 334 537T354 564T371 585T388 608Q406 633 421 652T458 672Q475 672 486 662T497 636Q497 616 487 604T456 578Q444 569 432 561T404 542T368 517T320 485L306 498V498ZM636
117Q616 62 576 26T462 -10Q439 -10 418 -6T379 6T345 22T320 40Q307 51 299 61T282 88H281Q265 34 229 12T147 -10Q123 -10 102 -3T65 17T39 52T29 100Q29 121 36 141T61 177Q83 197 107 207T169 228Q211 239 232 249T262 273Q262 276 262 287T262 312T263 338T263
356Q263 386 251 398T211 410Q182 410 165 396Q148 384 142 347Q134 304 96 304Q77 304 65 315T53 345Q53 358 57 369T70 389Q88 409 126 424T211 438Q249 438 279 427T330 392Q352 412 387 425T457 438Q505 438 538 423T594 384T626 331T636 274Q636 260 635 247T633
225H356V213Q356 164 365 124T398 60Q412 46 431 37T478 28Q508 28 530 37T567 62T593 95T611 129L636 117ZM400 387Q384 371 373 341T357 257H507Q524 257 531 266T539 298Q539 330 534 351T517 386Q507 397 494 403T458 409Q444 409 429 404T400 387ZM261 238Q254
231 238 224T201 207Q182 199 168 191T145 172Q126 148 126 108Q126 67 143 52T183 37Q209 37 230 56T259 100L261 238Z" />
<glyph unicode="&#x1fe;" glyph-name="Oslashacute" horiz-adv-x="706" d="M353 670Q393 670 429 661T498 634L548 718L573 704L523 619Q589 575 628 500T668 328Q668 253 644 190T577 82T477 11T353 -14Q305 -14 262 -1T181 37L124 -59L99 -46L158 54Q102 99
70 169T37 328Q37 403 61 466T128 574T229 645T353 670ZM353 21Q378 21 400 26T444 46Q463 59 480 79T511 133T531 214T539 328Q539 418 526 474T490 563L214 93Q225 77 236 66T261 46Q282 32 304 27T353 21ZM167 328Q167 256 175 206T198 123L471 587Q465 594
458 599T444 610Q423 624 401 629T353 635Q327 635 305 630T261 610Q241 597 224 577T195 523T175 442T167 328ZM454 844Q472 844 482 833T493 804Q493 784 477 773T436 752Q407 743 370 734T268 708L260 726L386 813Q408 829 423 836T454 844Z" />
<glyph unicode="&#x1ff;" glyph-name="oslashacute" horiz-adv-x="485" d="M27 215Q27 267 44 308T92 378T161 422T243 438Q290 438 331 420L369 494L394 482L356 407Q401 380 429 331T458 215Q458 163 441 122T394 51T325 6T243 -10Q220 -10 198 -5T155 8L117
-67L91 -56L130 21Q84 48 56 97T27 215ZM135 215Q135 167 141 133T158 76L311 378V379L299 390Q288 399 273 403T243 408Q210 408 186 390Q161 370 148 328T135 215ZM350 215Q350 306 328 351L176 49L186 40Q211 20 243 20Q276 20 299 40Q325 60 337 102T350 215ZM160
498Q177 522 188 537T208 564T225 585T242 608Q260 633 275 652T312 672Q329 672 340 662T351 636Q351 616 341 604T310 578Q298 569 286 561T258 542T222 517T174 485L160 498V498Z" />
<glyph unicode="&#x218;" glyph-name="Scommaaccent" horiz-adv-x="527" d="M332 141Q332 87 300 57T216 6L207 26Q239 40 259 54T279 89Q279 97 269 100Q245 108 230 121T215 158Q215 179 230 194T269 210Q296 210 314 193T332 141ZM270 -14Q216 -14 171 4T100
47H96L68 4H47L39 226H62Q76 183 97 146T144 81T203 38T270 22Q333 22 363 51T394 129Q394 160 384 182T355 221T306 253T239 284Q205 298 172 315T112 355T70 412T53 492Q53 532 68 564T111 620T174 657T251 670Q279 670 300 667T337 659T366 646T391 629H396L418
661H443L460 464H436Q422 502 403 535T363 588Q343 608 319 621T251 634Q232 634 214 628T182 610T159 581T150 543Q150 509 162 487T193 450T238 423T291 398Q330 379 366 361T431 320T476 265T493 185Q493 137 475 100T426 38T355 -1T270 -14Z" />
<glyph unicode="&#x219;" glyph-name="scommaaccent" horiz-adv-x="377" d="M251 157Q251 103 219 73T135 22L126 42Q158 56 178 70T198 105Q198 113 188 116Q164 124 149 137T134 174Q134 195 149 210T188 226Q215 226 233 209T251 157ZM356 126Q356 92 344 67T311
24T262 -1T201 -10Q166 -10 135 1T81 34H77L59 0H41L35 162H56Q77 101 114 61T203 20Q238 20 257 35T277 80Q277 98 271 110T251 132T218 150T169 171Q143 181 119 192T77 219T49 258T38 317Q38 341 48 362T78 401T125 428T186 438Q223 438 248 428T287 406H290L303
429H321L327 300H306Q288 346 261 377T186 408Q154 408 135 393T116 352Q116 336 120 324T136 302T167 282T215 261Q243 250 268 239T313 213T344 177T356 126Z" />
<glyph unicode="&#x21a;" glyph-name="uni021A" horiz-adv-x="632" d="M381 -115Q381 -169 349 -199T265 -250L256 -230Q288 -216 308 -202T328 -167Q328 -159 318 -156Q294 -148 279 -135T264 -98Q264 -77 279 -62T318 -46Q345 -46 363 -63T381 -115ZM373 166Q373
146 373 132T375 106T379 86T386 68Q394 51 405 42T432 28Q447 23 467 22V0H165V22Q187 24 200 28Q216 33 227 42T247 68Q251 77 253 85T256 105T258 131T259 166V623H234Q201 623 170 615T108 581Q92 568 81 556T61 532T45 506T30 477H7L35 658H598L625 477H603Q587
508 572 531T524 581Q494 607 463 615T398 623H373V166V166Z" />
<glyph unicode="&#x21b;" glyph-name="uni021B" horiz-adv-x="312" d="M491 157Q491 103 459 73T375 22L366 42Q398 56 418 70T438 105Q438 113 428 116Q404 124 389 137T374 174Q374 195 389 210T428 226Q455 226 473 209T491 157ZM312 42Q289 13 259 2T194 -10Q163
-10 142 -4T103 17Q88 30 83 48T77 94V392Q63 392 42 392T8 394V417Q34 422 54 434T92 466T124 516T151 587H177V428H287V391H177V94Q177 67 188 52T229 37Q249 37 267 42T298 61L312 42Z" />
<glyph unicode="&#x237;" glyph-name="uni0237" horiz-adv-x="255" d="M86 323Q86 335 85 349T82 371Q76 387 63 395Q48 405 23 406V428H181Q187 428 187 421Q186 404 186 383T185 331V-7Q185 -47 178 -76T160 -125T136 -158T109 -181Q95 -192 70 -202T10 -213Q-38
-213 -69 -191Q-108 -166 -108 -123Q-108 -99 -94 -85T-59 -70Q-31 -70 -20 -85T-8 -118Q-8 -123 -8 -126T-10 -137Q-11 -142 -12 -148T-13 -158Q-13 -170 -5 -177T16 -184Q46 -184 65 -162Q75 -150 80 -131T86 -76V323Z" />
<glyph unicode="&#x2c6;" glyph-name="circumflex" horiz-adv-x="400" d="M224 668Q241 642 268 605T329 522L313 508L200 605L86 508L70 522Q103 567 130 604T175 668H224V668Z" />
<glyph unicode="&#x2c7;" glyph-name="caron" horiz-adv-x="400" d="M329 655Q296 610 269 573T224 509H175Q158 535 131 572T70 655L86 669L200 572L313 669L329 655V655Z" />
<glyph unicode="&#x2d8;" glyph-name="breve" horiz-adv-x="400" d="M200 510Q143 510 115 546T81 643L101 647Q116 604 138 588T199 571Q239 571 262 587T299 647L319 643Q314 582 286 546T200 510Z" />
<glyph unicode="&#x2d9;" glyph-name="dotaccent" horiz-adv-x="400" d="M260 560Q260 535 243 518T200 501Q174 501 157 518T140 560Q140 586 157 602T200 619Q226 619 243 603T260 560Z" />
<glyph unicode="&#x2da;" glyph-name="ring" horiz-adv-x="400" d="M200 505Q168 505 143 526T118 588Q118 629 143 650T200 672Q232 672 257 651T282 588Q282 548 257 527T200 505ZM144 588Q144 559 160 543T200 527Q223 527 239 543T256 588Q256 617 240 633T200
650Q177 650 161 634T144 588Z" />
<glyph unicode="&#x2db;" glyph-name="ogonek" horiz-adv-x="400" d="M268 -209Q229 -211 201 -205T155 -187T129 -157T120 -121Q120 -82 151 -54T227 0H255Q225 -29 211 -56T196 -120Q196 -155 215 -170T268 -189V-209V-209Z" />
<glyph unicode="&#x2dc;" glyph-name="tilde" horiz-adv-x="400" d="M353 635Q347 617 338 599T317 565T290 541T255 532Q237 532 220 536T188 545T158 555T128 559Q106 559 92 550T66 519L47 526Q53 544 62 562T83 595T110 619T145 628Q163 628 179 624T210 615T240
605T271 601Q295 601 309 610T334 642L353 635Z" />
<glyph unicode="&#x2dd;" glyph-name="hungarumlaut" horiz-adv-x="400" d="M159 671Q174 671 184 662T195 637Q195 618 185 606T157 576Q148 567 140 559T120 539T95 514T60 481L44 492Q56 515 65 532T81 564T93 591T105 617Q117 643 128 656T159 671ZM205 492Q217
515 226 532T242 564T255 591T267 617Q279 643 290 656T321 671Q335 671 345 662T356 637Q356 619 346 606T319 576Q310 567 301 559T282 539T257 514T222 481L205 492Z" />
</font>
</defs>
</svg>
