<svg xmlns="http://www.w3.org/2000/svg" viewBox="0 0 48 48">
  <path d="M 24 4 C 12.972292 4 4 12.972292 4 24 C 4 35.027708 12.972292 44 24 44 C 35.027708 44 44 35.027708 44 24 C 44 23.829342 43.998541 23.658332 43.994141 23.488281 A 1.5004834 1.5004834 0 0 0 40.994141 23.564453 C 40.997849 23.708404 41 23.854658 41 24 C 41 33.406292 33.406292 41 24 41 C 14.593708 41 7 33.406292 7 24 C 7 14.593708 14.593708 7 24 7 C 29.380908 7 34.158525 9.4960454 37.271484 13.384766 L 35.964844 13.154297 A 1.5003693 1.5003693 0 0 0 35.443359 16.109375 L 40.367188 16.976562 A 1.50015 1.50015 0 0 0 42.105469 15.759766 L 42.972656 10.835938 A 1.50015 1.50015 0 0 0 41.439453 9.0566406 A 1.50015 1.50015 0 0 0 40.019531 10.316406 L 39.771484 11.720703 C 36.109299 7.0253275 30.404348 4 24 4 z M 27.5 17 C 25.019 17 23 19.019 23 21.5 L 23 26.5 C 23 28.981 25.019 31 27.5 31 C 29.981 31 32 28.981 32 26.5 L 32 21.5 C 32 19.019 29.981 17 27.5 17 z M 19.595703 17.001953 C 19.49775 17.010188 19.399938 17.0305 19.304688 17.0625 L 16.304688 18.0625 C 15.649688 18.2815 15.295672 18.989531 15.513672 19.644531 C 15.732672 20.298531 16.439703 20.651547 17.095703 20.435547 L 18.449219 19.984375 L 18.449219 29.75 C 18.449219 30.44 19.009219 31 19.699219 31 C 20.390219 31 20.949219 30.440047 20.949219 29.748047 L 20.949219 18.248047 C 20.949219 17.846047 20.757641 17.469375 20.431641 17.234375 C 20.187141 17.058125 19.889563 16.97725 19.595703 17.001953 z M 27.5 19.5 C 28.603 19.5 29.5 20.397 29.5 21.5 L 29.5 26.5 C 29.5 27.603 28.603 28.5 27.5 28.5 C 26.397 28.5 25.5 27.603 25.5 26.5 L 25.5 21.5 C 25.5 20.398 26.397 19.5 27.5 19.5 z"></path>
</svg>