<?xml version="1.0" standalone="no"?><!DOCTYPE svg PUBLIC "-//W3C//DTD SVG 1.1//EN" "http://www.w3.org/Graphics/SVG/1.1/DTD/svg11.dtd" ><svg version="1.1" xmlns="http://www.w3.org/2000/svg"><defs><font horiz-adv-x="0" id="font"><font-face ascent="850" bbox="-120 -234 1414 923" cap-height="614" descent="-350" font-family="The Met Sans" font-stretch="normal" font-style="normal" font-weight="600" units-per-em="1000" x-height="444" /><missing-glyph d="M682 614V0H68V614ZM160 92H590V522H160ZM256 482 375 364 494 482 550 426 432 307 550 188 494 132 375 250 256 132 200 188 318 307 200 426Z" horiz-adv-x="750" /><glyph glyph-name=".null" horiz-adv-x="0" /><glyph d="M405 614 639 0H476L432 119H209L166 0H7L241 614ZM258 251H384L321 424Z" glyph-name="A" horiz-adv-x="646" unicode="A" /><glyph d="M864 614V476H603V380H840V245H603V139H864V0H445V119H243L177 0H7L352 614ZM316 251H445V484Z" glyph-name="AE" horiz-adv-x="898" unicode="&#198;" /><glyph d="M864 614V476H603V380H840V245H603V139H864V0H445V119H243L177 0H7L352 614ZM517 666 599 796H759L671 666ZM316 251H445V484Z" glyph-name="AEacute" horiz-adv-x="898" unicode="&#508;" /><glyph d="M405 614 639 0H476L432 119H209L166 0H7L241 614ZM242 666 324 796H485L396 666ZM258 251H384L321 424Z" glyph-name="Aacute" horiz-adv-x="646" unicode="&#193;" /><glyph d="M405 614 639 0H476L432 119H209L166 0H7L241 614ZM323 658Q260 658 219.5 695Q179 732 179 804H287Q287 783 296.5 772.5Q306 762 323 762Q360 762 360 804H468Q468 732 427 695Q386 658 323 658ZM258 251H384L321 424Z" glyph-name="Abreve" horiz-adv-x="646" unicode="&#258;" /><glyph d="M405 614 639 0H476L432 119H209L166 0H7L241 614ZM492 666H365L323 711L282 666H155L263 798H383ZM258 251H384L321 424Z" glyph-name="Acircumflex" horiz-adv-x="646" unicode="&#194;" /><glyph d="M405 614 639 0H476L432 119H209L166 0H7L241 614ZM336 734Q336 768 358 789.5Q380 811 415 811Q450 811 471.5 789.5Q493 768 493 734Q493 699 471.5 678Q450 657 415 657Q380 657 358 678Q336 699 336 734ZM154 734Q154 768 175.5 789.5Q197 811 232 811Q267 811 288.5 789.5Q310 768 310 734Q310 699 288.5 678Q267 657 232 657Q197 657 175.5 678Q154 699 154 734ZM258 251H384L321 424Z" glyph-name="Adieresis" horiz-adv-x="646" unicode="&#196;" /><glyph d="M405 614 639 0H476L432 119H209L166 0H7L241 614ZM252 666 163 796H324L406 666ZM258 251H384L321 424Z" glyph-name="Agrave" horiz-adv-x="646" unicode="&#192;" /><glyph d="M405 614 639 0H476L432 119H209L166 0H7L241 614ZM191 774H456V666H191ZM258 251H384L321 424Z" glyph-name="Amacron" horiz-adv-x="646" unicode="&#256;" /><glyph d="M405 614 639 0Q611 -19 600 -34Q589 -49 589 -63Q589 -89 618 -89Q629 -89 638.5 -86Q648 -83 652 -80L669 -157Q661 -164 641.5 -172Q622 -180 590 -180Q543 -180 515 -159.5Q487 -139 487 -100Q487 -73 500.5 -46.5Q514 -20 540 0H476L432 119H209L166 0H7L241 614ZM258 251H384L321 424Z" glyph-name="Aogonek" horiz-adv-x="646" unicode="&#260;" /><glyph d="M405 614 639 0H476L432 119H209L166 0H7L241 614ZM431 747Q431 725 422.5 706Q414 687 399.5 672.5Q385 658 365.5 650Q346 642 323 642Q300 642 280.5 650Q261 658 246.5 672.5Q232 687 223.5 706Q215 725 215 747Q215 769 223.5 788.5Q232 808 246.5 822Q261 836 280.5 844.5Q300 853 323 853Q346 853 365.5 844.5Q385 836 399.5 822Q414 808 422.5 788.5Q431 769 431 747ZM258 251H384L321 424ZM359 747Q359 762 349 772.5Q339 783 323 783Q308 783 297.5 772.5Q287 762 287 747Q287 732 297.5 721.5Q308 711 323 711Q339 711 349 721.5Q359 732 359 747Z" glyph-name="Aring" horiz-adv-x="646" unicode="&#197;" /><glyph d="M405 614 639 0H476L432 119H209L166 0H7L241 614ZM427 717Q427 699 419 683.5Q411 668 396.5 656.5Q382 645 362.5 638Q343 631 321 631Q298 631 279 638Q260 645 245.5 656.5Q231 668 223 683.5Q215 699 215 717Q215 753 245.5 778Q276 803 321 803Q366 803 396.5 778Q427 753 427 717ZM471 923 402 821H248L311 923ZM258 251H384L321 424ZM321 688Q337 688 347 696.5Q357 705 357 717Q357 730 347 738Q337 746 321 746Q305 746 295 738Q285 730 285 717Q285 705 295 696.5Q305 688 321 688Z" glyph-name="Aringacute" horiz-adv-x="646" unicode="&#506;" /><glyph d="M405 614 639 0H476L432 119H209L166 0H7L241 614ZM480 809Q480 779 475.5 752Q471 725 460.5 704Q450 683 433.5 671Q417 659 392 659Q374 659 359 664.5Q344 670 330 676.5Q316 683 303 688.5Q290 694 277 694Q252 694 252 663H166Q166 693 170.5 720Q175 747 185.5 768Q196 789 212.5 801Q229 813 254 813Q272 813 287.5 807.5Q303 802 317 795.5Q331 789 343.5 783.5Q356 778 369 778Q393 778 395 809ZM258 251H384L321 424Z" glyph-name="Atilde" horiz-adv-x="646" unicode="&#195;" /><glyph d="M432 317Q476 303 504 263.5Q532 224 532 172Q532 88 478.5 44Q425 0 328 0H46V614H310Q407 614 460.5 572Q514 530 514 447Q514 397 490 363Q466 329 432 317ZM292 371Q363 371 363 427Q363 482 292 482H199V371ZM199 132H307Q341 132 359 148.5Q377 165 377 191Q377 219 359 235Q341 251 307 251H199Z" glyph-name="B" horiz-adv-x="557" unicode="B" /><glyph d="M432 317Q476 303 504 263.5Q532 224 532 172Q532 88 478.5 44Q425 0 328 0H46V614H310Q407 614 460.5 572Q514 530 514 447Q514 397 490 363Q466 329 432 317ZM292 371Q363 371 363 427Q363 482 292 482H199V371ZM199 132H307Q341 132 359 148.5Q377 165 377 191Q377 219 359 235Q341 251 307 251H199ZM194 734Q194 768 215.5 789.5Q237 811 272 811Q307 811 328.5 789.5Q350 768 350 734Q350 699 328.5 678Q307 657 272 657Q237 657 215.5 678Q194 699 194 734Z" glyph-name="Bdotaccent" horiz-adv-x="557" unicode="&#7682;" /><glyph d="M184 307Q184 269 193 237Q202 205 219 181.5Q236 158 261.5 145Q287 132 319 132Q362 132 389 152.5Q416 173 423 208L577 181Q561 93 498 41.5Q435 -10 311 -10Q246 -10 193 13.5Q140 37 102 79Q64 121 43 179Q22 237 22 307Q22 377 43 435Q64 493 102 535Q140 577 193 600.5Q246 624 311 624Q435 624 498 572.5Q561 521 577 433L423 406Q416 441 389 462Q362 483 319 483Q287 483 261.5 469.5Q236 456 219 432.5Q202 409 193 377Q184 345 184 307Z" glyph-name="C" horiz-adv-x="603" unicode="C" /><glyph d="M184 307Q184 269 193 237Q202 205 219 181.5Q236 158 261.5 145Q287 132 319 132Q362 132 389 152.5Q416 173 423 208L577 181Q561 93 498 41.5Q435 -10 311 -10Q246 -10 193 13.5Q140 37 102 79Q64 121 43 179Q22 237 22 307Q22 377 43 435Q64 493 102 535Q140 577 193 600.5Q246 624 311 624Q435 624 498 572.5Q561 521 577 433L423 406Q416 441 389 462Q362 483 319 483Q287 483 261.5 469.5Q236 456 219 432.5Q202 409 193 377Q184 345 184 307ZM244 666 326 796H487L398 666Z" glyph-name="Cacute" horiz-adv-x="603" unicode="&#262;" /><glyph d="M154 796H281L322 750L364 796H491L382 663H262ZM184 307Q184 269 193 237Q202 205 219 181.5Q236 158 261.5 145Q287 132 319 132Q362 132 389 152.5Q416 173 423 208L577 181Q561 93 498 41.5Q435 -10 311 -10Q246 -10 193 13.5Q140 37 102 79Q64 121 43 179Q22 237 22 307Q22 377 43 435Q64 493 102 535Q140 577 193 600.5Q246 624 311 624Q435 624 498 572.5Q561 521 577 433L423 406Q416 441 389 462Q362 483 319 483Q287 483 261.5 469.5Q236 456 219 432.5Q202 409 193 377Q184 345 184 307Z" glyph-name="Ccaron" horiz-adv-x="603" unicode="&#268;" /><glyph d="M184 307Q184 269 193 237Q202 205 219 181.5Q236 158 261.5 145Q287 132 319 132Q362 132 389 152.5Q416 173 423 208L577 181Q562 98 505.5 47.5Q449 -3 340 -9L338 -21Q371 -30 393 -50Q415 -70 415 -105Q415 -140 388 -160.5Q361 -181 312 -181Q282 -181 261 -174.5Q240 -168 226 -159L241 -96Q249 -101 265 -105.5Q281 -110 298 -110Q313 -110 322.5 -105.5Q332 -101 332 -92Q332 -81 319 -74Q306 -67 277 -65H274L284 -9Q225 -5 177 20.5Q129 46 94.5 87.5Q60 129 41 185Q22 241 22 307Q22 377 43 435Q64 493 102 535Q140 577 193 600.5Q246 624 311 624Q435 624 498 572.5Q561 521 577 433L423 406Q416 441 389 462Q362 483 319 483Q287 483 261.5 469.5Q236 456 219 432.5Q202 409 193 377Q184 345 184 307Z" glyph-name="Ccedilla" horiz-adv-x="603" unicode="&#199;" /><glyph d="M184 307Q184 269 193 237Q202 205 219 181.5Q236 158 261.5 145Q287 132 319 132Q362 132 389 152.5Q416 173 423 208L577 181Q561 93 498 41.5Q435 -10 311 -10Q246 -10 193 13.5Q140 37 102 79Q64 121 43 179Q22 237 22 307Q22 377 43 435Q64 493 102 535Q140 577 193 600.5Q246 624 311 624Q435 624 498 572.5Q561 521 577 433L423 406Q416 441 389 462Q362 483 319 483Q287 483 261.5 469.5Q236 456 219 432.5Q202 409 193 377Q184 345 184 307ZM492 666H365L323 711L282 666H155L263 798H383Z" glyph-name="Ccircumflex" horiz-adv-x="603" unicode="&#264;" /><glyph d="M243 734Q243 768 264.5 789.5Q286 811 321 811Q356 811 378 789.5Q400 768 400 734Q400 699 378 678Q356 657 321 657Q286 657 264.5 678Q243 699 243 734ZM184 307Q184 269 193 237Q202 205 219 181.5Q236 158 261.5 145Q287 132 319 132Q362 132 389 152.5Q416 173 423 208L577 181Q561 93 498 41.5Q435 -10 311 -10Q246 -10 193 13.5Q140 37 102 79Q64 121 43 179Q22 237 22 307Q22 377 43 435Q64 493 102 535Q140 577 193 600.5Q246 624 311 624Q435 624 498 572.5Q561 521 577 433L423 406Q416 441 389 462Q362 483 319 483Q287 483 261.5 469.5Q236 456 219 432.5Q202 409 193 377Q184 345 184 307Z" glyph-name="Cdotaccent" horiz-adv-x="603" unicode="&#266;" /><glyph d="M270 139Q347 139 387.5 184.5Q428 230 428 307Q428 385 387.5 430.5Q347 476 270 476H204V139ZM46 614H278Q350 614 407.5 592.5Q465 571 505 531Q545 491 566.5 434Q588 377 588 307Q588 237 566.5 180Q545 123 505 83Q465 43 407.5 21.5Q350 0 278 0H46Z" glyph-name="D" horiz-adv-x="609" unicode="D" /><glyph d="M103 796H230L272 750L313 796H440L332 663H212ZM270 139Q347 139 387.5 184.5Q428 230 428 307Q428 385 387.5 430.5Q347 476 270 476H204V139ZM46 614H278Q350 614 407.5 592.5Q465 571 505 531Q545 491 566.5 434Q588 377 588 307Q588 237 566.5 180Q545 123 505 83Q465 43 407.5 21.5Q350 0 278 0H46Z" glyph-name="Dcaron" horiz-adv-x="609" unicode="&#270;" /><glyph d="M17 375H63V614H295Q367 614 424.5 592.5Q482 571 522 531Q562 491 583.5 434Q605 377 605 307Q605 237 583.5 180Q562 123 522 83Q482 43 424.5 21.5Q367 0 295 0H63V251H17ZM287 139Q364 139 404.5 184.5Q445 230 445 307Q445 385 404.5 430.5Q364 476 287 476H221V375H308V251H221V139Z" glyph-name="Dcroat" horiz-adv-x="626" unicode="&#272;" /><glyph d="M270 139Q347 139 387.5 184.5Q428 230 428 307Q428 385 387.5 430.5Q347 476 270 476H204V139ZM46 614H278Q350 614 407.5 592.5Q465 571 505 531Q545 491 566.5 434Q588 377 588 307Q588 237 566.5 180Q545 123 505 83Q465 43 407.5 21.5Q350 0 278 0H46ZM200 734Q200 768 221.5 789.5Q243 811 278 811Q313 811 335 789.5Q357 768 357 734Q357 699 335 678Q313 657 278 657Q243 657 221.5 678Q200 699 200 734Z" glyph-name="Ddotaccent" horiz-adv-x="609" unicode="&#7690;" /><glyph d="M485 614V476H204V380H461V245H204V139H485V0H46V614Z" glyph-name="E" horiz-adv-x="519" unicode="E" /><glyph d="M190 666 272 796H432L344 666ZM485 614V476H204V380H461V245H204V139H485V0H46V614Z" glyph-name="Eacute" horiz-adv-x="519" unicode="&#201;" /><glyph d="M271 658Q208 658 167.5 695Q127 732 127 804H235Q235 783 244.5 772.5Q254 762 271 762Q307 762 307 804H415Q415 732 374.5 695Q334 658 271 658ZM485 614V476H204V380H461V245H204V139H485V0H46V614Z" glyph-name="Ebreve" horiz-adv-x="519" unicode="&#276;" /><glyph d="M104 796H231L273 750L314 796H441L333 663H213ZM485 614V476H204V380H461V245H204V139H485V0H46V614Z" glyph-name="Ecaron" horiz-adv-x="519" unicode="&#282;" /><glyph d="M485 614V476H204V380H461V245H204V139H485V0H46V614ZM439 666H312L271 711L229 666H102L211 798H331Z" glyph-name="Ecircumflex" horiz-adv-x="519" unicode="&#202;" /><glyph d="M101 734Q101 768 123 789.5Q145 811 180 811Q215 811 236.5 789.5Q258 768 258 734Q258 699 236.5 678Q215 657 180 657Q145 657 123 678Q101 699 101 734ZM284 734Q284 768 305.5 789.5Q327 811 362 811Q397 811 419 789.5Q441 768 441 734Q441 699 419 678Q397 657 362 657Q327 657 305.5 678Q284 699 284 734ZM485 614V476H204V380H461V245H204V139H485V0H46V614Z" glyph-name="Edieresis" horiz-adv-x="519" unicode="&#203;" /><glyph d="M192 734Q192 768 214 789.5Q236 811 271 811Q306 811 327.5 789.5Q349 768 349 734Q349 699 327.5 678Q306 657 271 657Q236 657 214 678Q192 699 192 734ZM485 614V476H204V380H461V245H204V139H485V0H46V614Z" glyph-name="Edotaccent" horiz-adv-x="519" unicode="&#278;" /><glyph d="M200 666 111 796H271L354 666ZM485 614V476H204V380H461V245H204V139H485V0H46V614Z" glyph-name="Egrave" horiz-adv-x="519" unicode="&#200;" /><glyph d="M138 774H404V666H138ZM485 614V476H204V380H461V245H204V139H485V0H46V614Z" glyph-name="Emacron" horiz-adv-x="519" unicode="&#274;" /><glyph d="M588 6Q588 -79 545 -129.5Q502 -180 418 -180Q400 -180 382.5 -177.5Q365 -175 350 -168L372 -46Q378 -48 385 -48Q408 -48 419.5 -37Q431 -26 431 2V37L201 358V0H46V614H196L433 277V614H588Z" glyph-name="Eng" horiz-adv-x="634" unicode="&#330;" /><glyph d="M485 614V476H204V380H461V245H204V139H485V0Q457 -19 446 -34Q435 -49 435 -63Q435 -89 464 -89Q476 -89 485.5 -86Q495 -83 499 -80L516 -157Q508 -164 488.5 -172Q469 -180 437 -180Q390 -180 361.5 -159.5Q333 -139 333 -100Q333 -73 346.5 -46.5Q360 -20 387 0H46V614Z" glyph-name="Eogonek" horiz-adv-x="519" unicode="&#280;" /><glyph d="M17 375H63V614H295Q367 614 424.5 592.5Q482 571 522 531Q562 491 583.5 434Q605 377 605 307Q605 237 583.5 180Q562 123 522 83Q482 43 424.5 21.5Q367 0 295 0H63V251H17ZM287 139Q364 139 404.5 184.5Q445 230 445 307Q445 385 404.5 430.5Q364 476 287 476H221V375H308V251H221V139Z" glyph-name="Eth" horiz-adv-x="626" unicode="&#208;" /><glyph d="M23 400H75Q85 454 107 496Q129 538 161 566.5Q193 595 234 609.5Q275 624 322 624Q414 624 472.5 579Q531 534 547 452L410 428Q404 457 382 472Q360 487 326 487Q284 487 261 465.5Q238 444 227 400H416L383 328H219V286H366L333 214H227Q238 169 261 148Q284 127 326 127Q360 127 382 142Q404 157 410 186L547 162Q531 80 472.5 35Q414 -10 322 -10Q275 -10 234 4.5Q193 19 161 47.5Q129 76 107 118Q85 160 75 214H23V286H67V328H23Z" glyph-name="Euro" horiz-adv-x="569" unicode="&#8364;" /><glyph d="M21 400H64Q82 509 142.5 566.5Q203 624 295 624Q386 624 437 579.5Q488 535 501 450L369 427Q364 454 346.5 469.5Q329 485 298 485Q261 485 241.5 463.5Q222 442 214 400H390L357 328H208V286H341L308 214H214Q222 172 241.5 150.5Q261 129 298 129Q329 129 346.5 144.5Q364 160 369 187L501 164Q488 79 437 34.5Q386 -10 295 -10Q203 -10 142.5 47.5Q82 105 64 214H21V286H57V328H21Z" glyph-name="Euro.lt" horiz-adv-x="520" /><glyph d="M46 0V614H478V475H205V353H456V217H205V0Z" glyph-name="F" horiz-adv-x="508" unicode="F" /><glyph d="M46 0V614H478V475H205V353H456V217H205V0ZM185 734Q185 768 207 789.5Q229 811 264 811Q299 811 320.5 789.5Q342 768 342 734Q342 699 320.5 678Q299 657 264 657Q229 657 207 678Q185 699 185 734Z" glyph-name="Fdotaccent" horiz-adv-x="508" unicode="&#7710;" /><glyph d="M347 208V328H601V267Q601 203 581.5 151.5Q562 100 526 64Q490 28 439 9Q388 -10 325 -10Q257 -10 201.5 13Q146 36 106 78Q66 120 44 178.5Q22 237 22 307Q22 377 43.5 435.5Q65 494 104.5 536Q144 578 199.5 601Q255 624 324 624Q439 624 507 572Q575 520 589 434L432 406Q422 443 396 463Q370 483 324 483Q289 483 263 470Q237 457 219.5 433.5Q202 410 193 377.5Q184 345 184 307Q184 228 221.5 180Q259 132 328 132Q421 132 442 208Z" glyph-name="G" horiz-adv-x="623" unicode="G" /><glyph d="M327 658Q264 658 223.5 695Q183 732 183 804H291Q291 783 300.5 772.5Q310 762 327 762Q363 762 363 804H471Q471 732 430.5 695Q390 658 327 658ZM347 208V328H601V267Q601 203 581.5 151.5Q562 100 526 64Q490 28 439 9Q388 -10 325 -10Q257 -10 201.5 13Q146 36 106 78Q66 120 44 178.5Q22 237 22 307Q22 377 43.5 435.5Q65 494 104.5 536Q144 578 199.5 601Q255 624 324 624Q439 624 507 572Q575 520 589 434L432 406Q422 443 396 463Q370 483 324 483Q289 483 263 470Q237 457 219.5 433.5Q202 410 193 377.5Q184 345 184 307Q184 228 221.5 180Q259 132 328 132Q421 132 442 208Z" glyph-name="Gbreve" horiz-adv-x="623" unicode="&#286;" /><glyph d="M494 666H367L326 711L284 666H157L266 798H386ZM347 208V328H601V267Q601 203 581.5 151.5Q562 100 526 64Q490 28 439 9Q388 -10 325 -10Q257 -10 201.5 13Q146 36 106 78Q66 120 44 178.5Q22 237 22 307Q22 377 43.5 435.5Q65 494 104.5 536Q144 578 199.5 601Q255 624 324 624Q439 624 507 572Q575 520 589 434L432 406Q422 443 396 463Q370 483 324 483Q289 483 263 470Q237 457 219.5 433.5Q202 410 193 377.5Q184 345 184 307Q184 228 221.5 180Q259 132 328 132Q421 132 442 208Z" glyph-name="Gcircumflex" horiz-adv-x="623" unicode="&#284;" /><glyph d="M347 208V328H601V267Q601 203 581.5 151.5Q562 100 526 64Q490 28 439 9Q388 -10 325 -10Q257 -10 201.5 13Q146 36 106 78Q66 120 44 178.5Q22 237 22 307Q22 377 43.5 435.5Q65 494 104.5 536Q144 578 199.5 601Q255 624 324 624Q439 624 507 572Q575 520 589 434L432 406Q422 443 396 463Q370 483 324 483Q289 483 263 470Q237 457 219.5 433.5Q202 410 193 377.5Q184 345 184 307Q184 228 221.5 180Q259 132 328 132Q421 132 442 208ZM275 -154Q294 -150 306 -144.5Q318 -139 325 -129H320Q295 -129 279 -116Q263 -103 263 -77Q263 -51 281.5 -37.5Q300 -24 324 -24Q360 -24 376 -45.5Q392 -67 392 -95Q392 -134 364.5 -161Q337 -188 285 -196Z" glyph-name="Gcommaaccent" horiz-adv-x="623" unicode="&#290;" /><glyph d="M249 734Q249 768 270.5 789.5Q292 811 327 811Q362 811 383.5 789.5Q405 768 405 734Q405 699 383.5 678Q362 657 327 657Q292 657 270.5 678Q249 699 249 734ZM347 208V328H601V267Q601 203 581.5 151.5Q562 100 526 64Q490 28 439 9Q388 -10 325 -10Q257 -10 201.5 13Q146 36 106 78Q66 120 44 178.5Q22 237 22 307Q22 377 43.5 435.5Q65 494 104.5 536Q144 578 199.5 601Q255 624 324 624Q439 624 507 572Q575 520 589 434L432 406Q422 443 396 463Q370 483 324 483Q289 483 263 470Q237 457 219.5 433.5Q202 410 193 377.5Q184 345 184 307Q184 228 221.5 180Q259 132 328 132Q421 132 442 208Z" glyph-name="Gdotaccent" horiz-adv-x="623" unicode="&#288;" /><glyph d="M605 614V0H444V243H207V0H46V614H207V381H444V614Z" glyph-name="H" horiz-adv-x="650" unicode="H" /><glyph d="M17 534H62V614H223V534H460V614H621V534H666V411H621V0H460V198H223V0H62V411H17ZM460 321V411H223V321Z" glyph-name="Hbar" horiz-adv-x="683" unicode="&#294;" /><glyph d="M605 614V0H444V243H207V0H46V614H207V381H444V614ZM493 666H366L325 711L283 666H156L265 798H385Z" glyph-name="Hcircumflex" horiz-adv-x="650" unicode="&#292;" /><glyph d="M207 0H46V614H207Z" glyph-name="I" horiz-adv-x="253" unicode="I" /><glyph d="M207 0H46V614H207ZM329 -10Q303 -10 277 -4.5Q251 1 240 9L265 144Q271 139 282.5 135Q294 131 308 131Q351 131 351 180V614H512V173Q512 85 466 37.5Q420 -10 329 -10Z" glyph-name="IJ" horiz-adv-x="554" unicode="&#306;" /><glyph d="M207 0H46V614H207ZM46 666 128 796H288L199 666Z" glyph-name="Iacute" horiz-adv-x="253" unicode="&#205;" /><glyph d="M207 0H46V614H207ZM126 658Q63 658 22.5 695Q-18 732 -18 804H91Q91 762 126 762Q163 762 163 804H271Q271 732 230.5 695Q190 658 126 658Z" glyph-name="Ibreve" horiz-adv-x="253" unicode="&#300;" /><glyph d="M207 0H46V614H207ZM295 666H168L126 711L85 666H-42L66 798H186Z" glyph-name="Icircumflex" horiz-adv-x="253" unicode="&#206;" /><glyph d="M207 0H46V614H207ZM-43 734Q-43 768 -21.5 789.5Q0 811 35 811Q70 811 91.5 789.5Q113 768 113 734Q113 699 91.5 678Q70 657 35 657Q0 657 -21.5 678Q-43 699 -43 734ZM140 734Q140 768 161.5 789.5Q183 811 218 811Q253 811 274.5 789.5Q296 768 296 734Q296 699 274.5 678Q253 657 218 657Q183 657 161.5 678Q140 699 140 734Z" glyph-name="Idieresis" horiz-adv-x="253" unicode="&#207;" /><glyph d="M207 0H46V614H207ZM48 734Q48 768 69.5 789.5Q91 811 126 811Q161 811 183 789.5Q205 768 205 734Q205 699 183 678Q161 657 126 657Q91 657 69.5 678Q48 699 48 734Z" glyph-name="Idotaccent" horiz-adv-x="253" unicode="&#304;" /><glyph d="M207 0H46V614H207ZM55 666 -33 796H127L209 666Z" glyph-name="Igrave" horiz-adv-x="253" unicode="&#204;" /><glyph d="M207 0H46V614H207ZM-6 774H260V666H-6Z" glyph-name="Imacron" horiz-adv-x="253" unicode="&#298;" /><glyph d="M207 0Q178 -19 167.5 -34Q157 -49 157 -63Q157 -89 186 -89Q197 -89 206.5 -86Q216 -83 220 -80L237 -157Q229 -164 209.5 -172Q190 -180 158 -180Q111 -180 83 -159.5Q55 -139 55 -100Q55 -73 68.5 -46.5Q82 -20 108 0H46V614H207Z" glyph-name="Iogonek" horiz-adv-x="253" unicode="&#302;" /><glyph d="M207 0H46V614H207ZM283 809Q283 779 278.5 752Q274 725 264 704Q254 683 237 671Q220 659 195 659Q177 659 162 664.5Q147 670 133 676.5Q119 683 106 688.5Q93 694 80 694Q55 694 55 663H-31Q-31 693 -26.5 720Q-22 747 -11.5 768Q-1 789 15.5 801Q32 813 57 813Q75 813 90.5 807.5Q106 802 120 795.5Q134 789 146.5 783.5Q159 778 172 778Q198 778 198 809Z" glyph-name="Itilde" horiz-adv-x="253" unicode="&#296;" /><glyph d="M167 194Q170 167 180.5 150.5Q191 134 215 134Q242 134 254 150Q266 166 266 198V614H427V201Q427 147 412 107.5Q397 68 369.5 41.5Q342 15 303.5 2.5Q265 -10 217 -10Q166 -10 129 3Q92 16 68 40Q44 64 31 97Q18 130 14 169Z" glyph-name="J" horiz-adv-x="465" unicode="J" /><glyph d="M515 666H388L347 711L305 666H178L287 798H406ZM167 194Q170 167 180.5 150.5Q191 134 215 134Q242 134 254 150Q266 166 266 198V614H427V201Q427 147 412 107.5Q397 68 369.5 41.5Q342 15 303.5 2.5Q265 -10 217 -10Q166 -10 129 3Q92 16 68 40Q44 64 31 97Q18 130 14 169Z" glyph-name="Jcircumflex" horiz-adv-x="465" unicode="&#308;" /><glyph d="M207 362 405 614H593L378 345L602 0H413L258 236L207 171V0H46V614H207Z" glyph-name="K" horiz-adv-x="608" unicode="K" /><glyph d="M207 362 405 614H593L378 345L602 0H413L258 236L207 171V0H46V614H207ZM246 -154Q264 -150 276 -144.5Q288 -139 296 -129H290Q265 -129 249 -116Q233 -103 233 -77Q233 -51 251.5 -37.5Q270 -24 295 -24Q331 -24 346.5 -45.5Q362 -67 362 -95Q362 -134 335 -161Q308 -188 255 -196Z" glyph-name="Kcommaaccent" horiz-adv-x="608" unicode="&#310;" /><glyph d="M46 614H207V139H482V0H46Z" glyph-name="L" horiz-adv-x="510" unicode="L" /><glyph d="M56 666 138 796H298L210 666ZM46 614H207V139H482V0H46Z" glyph-name="Lacute" horiz-adv-x="510" unicode="&#313;" /><glyph d="M276 447 309 614H406L372 447ZM46 614H207V139H482V0H46Z" glyph-name="Lcaron" horiz-adv-x="510" unicode="&#317;" /><glyph d="M46 614H207V139H482V0H46ZM214 -154Q233 -150 245 -144.5Q257 -139 264 -129H259Q234 -129 218 -116Q202 -103 202 -77Q202 -51 220.5 -37.5Q239 -24 263 -24Q299 -24 315 -45.5Q331 -67 331 -95Q331 -134 303.5 -161Q276 -188 224 -196Z" glyph-name="Lcommaaccent" horiz-adv-x="510" unicode="&#315;" /><glyph d="M46 614H207V139H482V0H46ZM296 341Q296 375 317.5 396.5Q339 418 374 418Q409 418 430.5 396.5Q452 375 452 341Q452 306 430.5 285Q409 264 374 264Q339 264 317.5 285Q296 306 296 341Z" glyph-name="Ldot" horiz-adv-x="510" unicode="&#319;" /><glyph d="M11 318 60 339V614H221V397L342 446V321L221 273V139H496V0H60V213L11 194Z" glyph-name="Lslash" horiz-adv-x="524" unicode="&#321;" /><glyph d="M324 0 196 365V0H46V614H242L377 233L511 614H706V0H555V365L428 0Z" glyph-name="M" horiz-adv-x="752" unicode="M" /><glyph d="M324 0 196 365V0H46V614H242L377 233L511 614H706V0H555V365L428 0ZM298 734Q298 768 320 789.5Q342 811 377 811Q412 811 433.5 789.5Q455 768 455 734Q455 699 433.5 678Q412 657 377 657Q342 657 320 678Q298 699 298 734Z" glyph-name="Mdotaccent" horiz-adv-x="752" unicode="&#7744;" /><glyph d="M588 0H458L201 358V0H46V614H196L433 277V614H588Z" glyph-name="N" horiz-adv-x="634" unicode="N" /><glyph d="M236 666 318 796H479L390 666ZM588 0H458L201 358V0H46V614H196L433 277V614H588Z" glyph-name="Nacute" horiz-adv-x="634" unicode="&#323;" /><glyph d="M148 796H275L317 750L358 796H485L377 663H257ZM588 0H458L201 358V0H46V614H196L433 277V614H588Z" glyph-name="Ncaron" horiz-adv-x="634" unicode="&#327;" /><glyph d="M588 0H458L201 358V0H46V614H196L433 277V614H588ZM267 -154Q285 -150 297 -144.5Q309 -139 317 -129H311Q286 -129 270 -116Q254 -103 254 -77Q254 -51 272.5 -37.5Q291 -24 316 -24Q352 -24 367.5 -45.5Q383 -67 383 -95Q383 -134 356 -161Q329 -188 276 -196Z" glyph-name="Ncommaaccent" horiz-adv-x="634" unicode="&#325;" /><glyph d="M474 809Q474 779 469.5 752Q465 725 454.5 704Q444 683 427.5 671Q411 659 386 659Q368 659 352.5 664.5Q337 670 323 676.5Q309 683 296.5 688.5Q284 694 271 694Q247 694 245 663H160Q160 693 164.5 720Q169 747 179.5 768Q190 789 206.5 801Q223 813 248 813Q266 813 281 807.5Q296 802 310 795.5Q324 789 337 783.5Q350 778 363 778Q387 778 389 809ZM588 0H458L201 358V0H46V614H196L433 277V614H588Z" glyph-name="Ntilde" horiz-adv-x="634" unicode="&#209;" /><glyph d="M622 307Q622 238 600 180Q578 122 538 80Q498 38 443 14Q388 -10 321 -10Q255 -10 200 14Q145 38 105.5 80Q66 122 44 180Q22 238 22 307Q22 376 44 434Q66 492 105.5 534.5Q145 577 200 600.5Q255 624 321 624Q388 624 443 600.5Q498 577 538 534.5Q578 492 600 434Q622 376 622 307ZM460 307Q460 387 422 435Q384 483 321 483Q259 483 221.5 435Q184 387 184 307Q184 227 221.5 179Q259 131 321 131Q384 131 422 179Q460 227 460 307Z" glyph-name="O" horiz-adv-x="643" unicode="O" /><glyph d="M813 476H551V380H788V245H551V139H813V0H331Q259 0 201.5 21.5Q144 43 104.5 83Q65 123 43.5 180Q22 237 22 307Q22 377 43.5 434Q65 491 104.5 531Q144 571 201.5 592.5Q259 614 331 614H813ZM393 139V476H339Q262 476 221.5 430.5Q181 385 181 307Q181 230 221.5 184.5Q262 139 339 139Z" glyph-name="OE" horiz-adv-x="846" unicode="&#338;" /><glyph d="M240 666 323 796H483L394 666ZM622 307Q622 238 600 180Q578 122 538 80Q498 38 443 14Q388 -10 321 -10Q255 -10 200 14Q145 38 105.5 80Q66 122 44 180Q22 238 22 307Q22 376 44 434Q66 492 105.5 534.5Q145 577 200 600.5Q255 624 321 624Q388 624 443 600.5Q498 577 538 534.5Q578 492 600 434Q622 376 622 307ZM460 307Q460 387 422 435Q384 483 321 483Q259 483 221.5 435Q184 387 184 307Q184 227 221.5 179Q259 131 321 131Q384 131 422 179Q460 227 460 307Z" glyph-name="Oacute" horiz-adv-x="643" unicode="&#211;" /><glyph d="M321 658Q258 658 217.5 695Q177 732 177 804H286Q286 762 321 762Q358 762 358 804H466Q466 732 425.5 695Q385 658 321 658ZM622 307Q622 238 600 180Q578 122 538 80Q498 38 443 14Q388 -10 321 -10Q255 -10 200 14Q145 38 105.5 80Q66 122 44 180Q22 238 22 307Q22 376 44 434Q66 492 105.5 534.5Q145 577 200 600.5Q255 624 321 624Q388 624 443 600.5Q498 577 538 534.5Q578 492 600 434Q622 376 622 307ZM460 307Q460 387 422 435Q384 483 321 483Q259 483 221.5 435Q184 387 184 307Q184 227 221.5 179Q259 131 321 131Q384 131 422 179Q460 227 460 307Z" glyph-name="Obreve" horiz-adv-x="643" unicode="&#334;" /><glyph d="M622 307Q622 238 600 180Q578 122 538 80Q498 38 443 14Q388 -10 321 -10Q255 -10 200 14Q145 38 105.5 80Q66 122 44 180Q22 238 22 307Q22 376 44 434Q66 492 105.5 534.5Q145 577 200 600.5Q255 624 321 624Q388 624 443 600.5Q498 577 538 534.5Q578 492 600 434Q622 376 622 307ZM460 307Q460 387 422 435Q384 483 321 483Q259 483 221.5 435Q184 387 184 307Q184 227 221.5 179Q259 131 321 131Q384 131 422 179Q460 227 460 307ZM490 666H363L321 711L280 666H153L261 798H381Z" glyph-name="Ocircumflex" horiz-adv-x="643" unicode="&#212;" /><glyph d="M308 734Q308 699 286.5 678Q265 657 230 657Q195 657 173.5 678Q152 699 152 734Q152 768 173.5 789.5Q195 811 230 811Q265 811 286.5 789.5Q308 768 308 734ZM334 734Q334 768 356 789.5Q378 811 413 811Q448 811 469.5 789.5Q491 768 491 734Q491 699 469.5 678Q448 657 413 657Q378 657 356 678Q334 699 334 734ZM184 307Q184 227 221.5 179Q259 131 321 131Q384 131 422 179Q460 227 460 307Q460 387 422 435Q384 483 321 483Q259 483 221.5 435Q184 387 184 307ZM622 307Q622 238 600 180Q578 122 538 80Q498 38 443 14Q388 -10 321 -10Q255 -10 200 14Q145 38 105.5 80Q66 122 44 180Q22 238 22 307Q22 376 44 434Q66 492 105.5 534.5Q145 577 200 600.5Q255 624 321 624Q388 624 443 600.5Q498 577 538 534.5Q578 492 600 434Q622 376 622 307Z" glyph-name="Odieresis" horiz-adv-x="643" unicode="&#214;" /><glyph d="M460 307Q460 387 422 435Q384 483 321 483Q259 483 221.5 435Q184 387 184 307Q184 227 221.5 179Q259 131 321 131Q384 131 422 179Q460 227 460 307ZM22 307Q22 376 44 434Q66 492 105.5 534.5Q145 577 200 600.5Q255 624 321 624Q388 624 443 600.5Q498 577 538 534.5Q578 492 600 434Q622 376 622 307Q622 238 600 180Q578 122 538 80Q498 38 443 14Q388 -10 321 -10Q255 -10 200 14Q145 38 105.5 80Q66 122 44 180Q22 238 22 307ZM404 666H250L162 796H322Z" glyph-name="Ograve" horiz-adv-x="643" unicode="&#210;" /><glyph d="M622 307Q622 238 600 180Q578 122 538 80Q498 38 443 14Q388 -10 321 -10Q255 -10 200 14Q145 38 105.5 80Q66 122 44 180Q22 238 22 307Q22 376 44 434Q66 492 105.5 534.5Q145 577 200 600.5Q255 624 321 624Q388 624 443 600.5Q498 577 538 534.5Q578 492 600 434Q622 376 622 307ZM460 307Q460 387 422 435Q384 483 321 483Q259 483 221.5 435Q184 387 184 307Q184 227 221.5 179Q259 131 321 131Q384 131 422 179Q460 227 460 307ZM175 666 250 796H380L304 666ZM341 666 417 796H547L470 666Z" glyph-name="Ohungarumlaut" horiz-adv-x="643" unicode="&#336;" /><glyph d="M321 131Q384 131 422 179Q460 227 460 307Q460 387 422 435Q384 483 321 483Q259 483 221.5 435Q184 387 184 307Q184 227 221.5 179Q259 131 321 131ZM622 307Q622 238 600 180Q578 122 538 80Q498 38 443 14Q388 -10 321 -10Q255 -10 200 14Q145 38 105.5 80Q66 122 44 180Q22 238 22 307Q22 376 44 434Q66 492 105.5 534.5Q145 577 200 600.5Q255 624 321 624Q388 624 443 600.5Q498 577 538 534.5Q578 492 600 434Q622 376 622 307ZM454 666H189V774H454Z" glyph-name="Omacron" horiz-adv-x="643" unicode="&#332;" /><glyph d="M88 100Q56 142 39 194Q22 246 22 307Q22 376 44 434Q66 492 105.5 534.5Q145 577 200 600.5Q255 624 321 624Q375 624 421 608.5Q467 593 504 565L558 625L615 578L556 513Q588 472 605 420Q622 368 622 307Q622 238 600 180Q578 122 538 80Q498 38 443 14Q388 -10 321 -10Q267 -10 221.5 5Q176 20 139 49L86 -11L30 36ZM460 307Q460 353 446 390L239 160Q273 131 321 131Q384 131 422 179Q460 227 460 307ZM184 307Q184 258 197 223L404 453Q368 483 321 483Q259 483 221.5 435Q184 387 184 307Z" glyph-name="Oslash" horiz-adv-x="643" unicode="&#216;" /><glyph d="M90 100Q58 142 41 194Q24 246 24 307Q24 376 46 434Q68 492 107.5 534.5Q147 577 202 600.5Q257 624 324 624Q378 624 424 608.5Q470 593 507 565L561 625L617 578L558 513Q590 472 607 420Q624 368 624 307Q624 238 602 180Q580 122 540.5 80Q501 38 445.5 14Q390 -10 324 -10Q270 -10 224.5 5Q179 20 142 48L89 -11L32 36ZM186 307Q186 261 200 222L406 453Q371 483 324 483Q261 483 223.5 435Q186 387 186 307ZM462 307Q462 353 448 390L242 160Q276 131 324 131Q386 131 424 179Q462 227 462 307ZM244 666 326 796H487L398 666Z" glyph-name="Oslashacute" horiz-adv-x="648" unicode="&#510;" /><glyph d="M478 809Q478 779 473.5 752Q469 725 458.5 704Q448 683 431.5 671Q415 659 390 659Q372 659 357 664.5Q342 670 328 676.5Q314 683 301 688.5Q288 694 275 694Q250 694 250 663H164Q164 693 168.5 720Q173 747 183.5 768Q194 789 210.5 801Q227 813 252 813Q270 813 285.5 807.5Q301 802 315 795.5Q329 789 341.5 783.5Q354 778 367 778Q391 778 393 809ZM622 307Q622 238 600 180Q578 122 538 80Q498 38 443 14Q388 -10 321 -10Q255 -10 200 14Q145 38 105.5 80Q66 122 44 180Q22 238 22 307Q22 376 44 434Q66 492 105.5 534.5Q145 577 200 600.5Q255 624 321 624Q388 624 443 600.5Q498 577 538 534.5Q578 492 600 434Q622 376 622 307ZM460 307Q460 387 422 435Q384 483 321 483Q259 483 221.5 435Q184 387 184 307Q184 227 221.5 179Q259 131 321 131Q384 131 422 179Q460 227 460 307Z" glyph-name="Otilde" horiz-adv-x="643" unicode="&#213;" /><glyph d="M205 190V0H46V614H315Q365 614 406 600Q447 586 476.5 559Q506 532 522 492.5Q538 453 538 402Q538 351 522 311.5Q506 272 476.5 245Q447 218 406 204Q365 190 315 190ZM382 402Q382 437 362 458Q342 479 298 479H205V325H298Q342 325 362 346Q382 367 382 402Z" glyph-name="P" horiz-adv-x="561" unicode="P" /><glyph d="M205 190V0H46V614H315Q365 614 406 600Q447 586 476.5 559Q506 532 522 492.5Q538 453 538 402Q538 351 522 311.5Q506 272 476.5 245Q447 218 406 204Q365 190 315 190ZM382 402Q382 437 362 458Q342 479 298 479H205V325H298Q342 325 362 346Q382 367 382 402ZM189 734Q189 768 211 789.5Q233 811 268 811Q303 811 324.5 789.5Q346 768 346 734Q346 699 324.5 678Q303 657 268 657Q233 657 211 678Q189 699 189 734Z" glyph-name="Pdotaccent" horiz-adv-x="561" unicode="&#7766;" /><glyph d="M441 15Q383 -10 321 -10Q255 -10 200 14Q145 38 105.5 80Q66 122 44 180Q22 238 22 307Q22 376 44 434Q66 492 105.5 534.5Q145 577 200 600.5Q255 624 321 624Q388 624 443 600.5Q498 577 538 534.5Q578 492 600 434Q622 376 622 307Q622 241 600.5 185.5Q579 130 541 88L586 33L489 -45ZM460 307Q460 387 422 435Q384 483 321 483Q259 483 221.5 435Q184 387 184 307Q184 267 194 233.5Q204 200 222 175.5Q240 151 265 137.5Q290 124 321 124Q336 124 350 127L301 188L398 264L444 208Q452 228 456 252.5Q460 277 460 307Z" glyph-name="Q" horiz-adv-x="643" unicode="Q" /><glyph d="M205 203V0H46V614H322Q371 614 412.5 600Q454 586 483 559.5Q512 533 528.5 494Q545 455 545 405Q545 335 512.5 288Q480 241 423 220L567 0H389L261 203ZM205 331H305Q348 331 368 351Q388 371 388 405Q388 439 368 459Q348 479 305 479H205Z" glyph-name="R" horiz-adv-x="574" unicode="R" /><glyph d="M205 203V0H46V614H322Q371 614 412.5 600Q454 586 483 559.5Q512 533 528.5 494Q545 455 545 405Q545 335 512.5 288Q480 241 423 220L567 0H389L261 203ZM205 331H305Q348 331 368 351Q388 371 388 405Q388 439 368 459Q348 479 305 479H205ZM203 666 285 796H445L356 666Z" glyph-name="Racute" horiz-adv-x="574" unicode="&#340;" /><glyph d="M205 203V0H46V614H322Q371 614 412.5 600Q454 586 483 559.5Q512 533 528.5 494Q545 455 545 405Q545 335 512.5 288Q480 241 423 220L567 0H389L261 203ZM115 796H242L283 750L325 796H452L343 663H223ZM205 331H305Q348 331 368 351Q388 371 388 405Q388 439 368 459Q348 479 305 479H205Z" glyph-name="Rcaron" horiz-adv-x="574" unicode="&#344;" /><glyph d="M205 203V0H46V614H322Q371 614 412.5 600Q454 586 483 559.5Q512 533 528.5 494Q545 455 545 405Q545 335 512.5 288Q480 241 423 220L567 0H389L261 203ZM205 331H305Q348 331 368 351Q388 371 388 405Q388 439 368 459Q348 479 305 479H205ZM233 -154Q251 -150 263.5 -144.5Q276 -139 283 -129H278Q253 -129 237 -116Q221 -103 221 -77Q221 -51 239.5 -37.5Q258 -24 282 -24Q318 -24 334 -45.5Q350 -67 350 -95Q350 -134 322.5 -161Q295 -188 242 -196Z" glyph-name="Rcommaaccent" horiz-adv-x="574" unicode="&#342;" /><glyph d="M178 186Q190 119 273 119Q313 119 337 134Q361 149 361 176Q361 199 347 211Q333 223 303 229L185 255Q153 262 124 275Q95 288 73 309Q51 330 38 359Q25 388 25 427Q25 472 43.5 508.5Q62 545 94 570.5Q126 596 170.5 610Q215 624 267 624Q331 624 375 608.5Q419 593 447 569Q475 545 489 515Q503 485 508 457L360 431Q353 460 332.5 477.5Q312 495 267 495Q227 495 206.5 481Q186 467 186 443Q186 423 200 410.5Q214 398 238 393L359 365Q437 346 479 302Q521 258 521 186Q521 140 503 104Q485 68 452 42.5Q419 17 372.5 3.5Q326 -10 269 -10Q154 -10 94 32.5Q34 75 18 160Z" glyph-name="S" horiz-adv-x="544" unicode="S" /><glyph d="M178 186Q190 119 273 119Q313 119 337 134Q361 149 361 176Q361 199 347 211Q333 223 303 229L185 255Q153 262 124 275Q95 288 73 309Q51 330 38 359Q25 388 25 427Q25 472 43.5 508.5Q62 545 94 570.5Q126 596 170.5 610Q215 624 267 624Q331 624 375 608.5Q419 593 447 569Q475 545 489 515Q503 485 508 457L360 431Q353 460 332.5 477.5Q312 495 267 495Q227 495 206.5 481Q186 467 186 443Q186 423 200 410.5Q214 398 238 393L359 365Q437 346 479 302Q521 258 521 186Q521 140 503 104Q485 68 452 42.5Q419 17 372.5 3.5Q326 -10 269 -10Q154 -10 94 32.5Q34 75 18 160ZM189 666 271 796H432L343 666Z" glyph-name="Sacute" horiz-adv-x="544" unicode="&#346;" /><glyph d="M104 796H231L272 750L314 796H441L332 663H212ZM178 186Q190 119 273 119Q313 119 337 134Q361 149 361 176Q361 199 347 211Q333 223 303 229L185 255Q153 262 124 275Q95 288 73 309Q51 330 38 359Q25 388 25 427Q25 472 43.5 508.5Q62 545 94 570.5Q126 596 170.5 610Q215 624 267 624Q331 624 375 608.5Q419 593 447 569Q475 545 489 515Q503 485 508 457L360 431Q353 460 332.5 477.5Q312 495 267 495Q227 495 206.5 481Q186 467 186 443Q186 423 200 410.5Q214 398 238 393L359 365Q437 346 479 302Q521 258 521 186Q521 140 503 104Q485 68 452 42.5Q419 17 372.5 3.5Q326 -10 269 -10Q154 -10 94 32.5Q34 75 18 160Z" glyph-name="Scaron" horiz-adv-x="544" unicode="&#352;" /><glyph d="M243 -9Q140 -4 86.5 38Q33 80 18 160L178 186Q190 119 273 119Q313 119 337 134Q361 149 361 176Q361 199 347 211Q333 223 303 229L185 255Q153 262 124 275Q95 288 73 309Q51 330 38 359Q25 388 25 427Q25 472 43.5 508.5Q62 545 94 570.5Q126 596 170.5 610Q215 624 267 624Q331 624 375 608.5Q419 593 447 569Q475 545 489 515Q503 485 508 457L360 431Q353 460 332.5 477.5Q312 495 267 495Q227 495 206.5 481Q186 467 186 443Q186 423 200 410.5Q214 398 238 393L359 365Q437 346 479 302Q521 258 521 186Q521 143 505 108.5Q489 74 460 49Q431 24 390 9Q349 -6 299 -9L296 -21Q329 -30 351.5 -50Q374 -70 374 -105Q374 -140 347 -160Q320 -180 271 -180Q241 -180 220 -173.5Q199 -167 185 -158L200 -95Q208 -100 224 -105Q240 -110 257 -110Q272 -110 281.5 -105.5Q291 -101 291 -92Q291 -80 278 -73Q265 -66 233 -64Z" glyph-name="Scedilla" horiz-adv-x="544" unicode="&#350;" /><glyph d="M22 363H447Q436 417 401 450Q366 483 311 483Q263 483 233.5 463Q204 443 195 406L38 434Q52 520 122.5 572Q193 624 310 624Q379 624 435.5 601Q492 578 531.5 536Q571 494 593 435.5Q615 377 615 307Q615 237 593 178.5Q571 120 531 78Q491 36 435 13Q379 -10 312 -10Q249 -10 196 12Q143 34 104 76Q65 118 43.5 177.5Q22 237 22 312ZM309 132Q363 132 397 161.5Q431 191 445 242H187Q198 190 229.5 161Q261 132 309 132Z" glyph-name="Schwa" horiz-adv-x="637" unicode="&#399;" /><glyph d="M178 186Q190 119 273 119Q313 119 337 134Q361 149 361 176Q361 199 347 211Q333 223 303 229L185 255Q153 262 124 275Q95 288 73 309Q51 330 38 359Q25 388 25 427Q25 472 43.5 508.5Q62 545 94 570.5Q126 596 170.5 610Q215 624 267 624Q331 624 375 608.5Q419 593 447 569Q475 545 489 515Q503 485 508 457L360 431Q353 460 332.5 477.5Q312 495 267 495Q227 495 206.5 481Q186 467 186 443Q186 423 200 410.5Q214 398 238 393L359 365Q437 346 479 302Q521 258 521 186Q521 140 503 104Q485 68 452 42.5Q419 17 372.5 3.5Q326 -10 269 -10Q154 -10 94 32.5Q34 75 18 160ZM443 666H316L274 711L233 666H106L214 798H334Z" glyph-name="Scircumflex" horiz-adv-x="544" unicode="&#348;" /><glyph d="M178 186Q190 119 273 119Q313 119 337 134Q361 149 361 176Q361 199 347 211Q333 223 303 229L185 255Q153 262 124 275Q95 288 73 309Q51 330 38 359Q25 388 25 427Q25 472 43.5 508.5Q62 545 94 570.5Q126 596 170.5 610Q215 624 267 624Q331 624 375 608.5Q419 593 447 569Q475 545 489 515Q503 485 508 457L360 431Q353 460 332.5 477.5Q312 495 267 495Q227 495 206.5 481Q186 467 186 443Q186 423 200 410.5Q214 398 238 393L359 365Q437 346 479 302Q521 258 521 186Q521 140 503 104Q485 68 452 42.5Q419 17 372.5 3.5Q326 -10 269 -10Q154 -10 94 32.5Q34 75 18 160ZM220 -154Q238 -150 250.5 -144.5Q263 -139 270 -129H264Q240 -129 223.5 -116Q207 -103 207 -77Q207 -51 225.5 -37.5Q244 -24 269 -24Q305 -24 320.5 -45.5Q336 -67 336 -95Q336 -134 309 -161Q282 -188 229 -196Z" glyph-name="Scommaaccent" horiz-adv-x="544" unicode="&#536;" /><glyph d="M20 614H560V476H370V0H209V476H20Z" glyph-name="T" horiz-adv-x="580" unicode="T" /><glyph d="M20 614H560V476H370V363H461V232H370V0H209V232H118V363H209V476H20Z" glyph-name="Tbar" horiz-adv-x="580" unicode="&#358;" /><glyph d="M121 796H248L290 750L331 796H458L350 663H230ZM20 614H560V476H370V0H209V476H20Z" glyph-name="Tcaron" horiz-adv-x="580" unicode="&#356;" /><glyph d="M20 614H560V476H370V0H209V476H20ZM239 -154Q258 -150 270 -144.5Q282 -139 290 -129H284Q259 -129 243 -116Q227 -103 227 -77Q227 -51 245.5 -37.5Q264 -24 289 -24Q325 -24 340.5 -45.5Q356 -67 356 -95Q356 -134 329 -161Q302 -188 249 -196Z" glyph-name="Tcommaaccent" horiz-adv-x="580" unicode="&#354;" /><glyph d="M20 614H560V476H370V0H209V476H20ZM212 734Q212 768 233.5 789.5Q255 811 290 811Q325 811 346.5 789.5Q368 768 368 734Q368 699 346.5 678Q325 657 290 657Q255 657 233.5 678Q212 699 212 734Z" glyph-name="Tdotaccent" horiz-adv-x="580" unicode="&#7786;" /><glyph d="M205 101V0H46V614H205V525H315Q365 525 406 511Q447 497 476.5 470Q506 443 522 403.5Q538 364 538 313Q538 262 522 222.5Q506 183 476.5 156Q447 129 406 115Q365 101 315 101ZM382 313Q382 348 362 369Q342 390 298 390H205V236H298Q342 236 362 257Q382 278 382 313Z" glyph-name="Thorn" horiz-adv-x="561" unicode="&#222;" /><glyph d="M307 -10Q246 -10 196.5 7Q147 24 112 57Q77 90 58 139Q39 188 39 251V614H199V266Q199 200 227.5 167Q256 134 307 134Q357 134 385.5 167Q414 200 414 266V614H574V250Q574 187 555 138.5Q536 90 501 57Q466 24 417 7Q368 -10 307 -10Z" glyph-name="U" horiz-adv-x="613" unicode="U" /><glyph d="M226 666 308 796H468L380 666ZM307 -10Q246 -10 196.5 7Q147 24 112 57Q77 90 58 139Q39 188 39 251V614H199V266Q199 200 227.5 167Q256 134 307 134Q357 134 385.5 167Q414 200 414 266V614H574V250Q574 187 555 138.5Q536 90 501 57Q466 24 417 7Q368 -10 307 -10Z" glyph-name="Uacute" horiz-adv-x="613" unicode="&#218;" /><glyph d="M307 658Q244 658 203 695Q162 732 162 804H271Q271 783 280.5 772.5Q290 762 307 762Q324 762 333.5 772.5Q343 783 343 804H451Q451 732 410.5 695Q370 658 307 658ZM307 -10Q246 -10 196.5 7Q147 24 112 57Q77 90 58 139Q39 188 39 251V614H199V266Q199 200 227.5 167Q256 134 307 134Q357 134 385.5 167Q414 200 414 266V614H574V250Q574 187 555 138.5Q536 90 501 57Q466 24 417 7Q368 -10 307 -10Z" glyph-name="Ubreve" horiz-adv-x="613" unicode="&#364;" /><glyph d="M307 -10Q246 -10 196.5 7Q147 24 112 57Q77 90 58 139Q39 188 39 251V614H199V266Q199 200 227.5 167Q256 134 307 134Q357 134 385.5 167Q414 200 414 266V614H574V250Q574 187 555 138.5Q536 90 501 57Q466 24 417 7Q368 -10 307 -10ZM475 666H348L307 711L265 666H138L247 798H366Z" glyph-name="Ucircumflex" horiz-adv-x="613" unicode="&#219;" /><glyph d="M137 734Q137 768 158.5 789.5Q180 811 215 811Q250 811 272 789.5Q294 768 294 734Q294 699 272 678Q250 657 215 657Q180 657 158.5 678Q137 699 137 734ZM320 734Q320 768 341.5 789.5Q363 811 398 811Q433 811 454.5 789.5Q476 768 476 734Q476 699 454.5 678Q433 657 398 657Q363 657 341.5 678Q320 699 320 734ZM307 -10Q246 -10 196.5 7Q147 24 112 57Q77 90 58 139Q39 188 39 251V614H199V266Q199 200 227.5 167Q256 134 307 134Q357 134 385.5 167Q414 200 414 266V614H574V250Q574 187 555 138.5Q536 90 501 57Q466 24 417 7Q368 -10 307 -10Z" glyph-name="Udieresis" horiz-adv-x="613" unicode="&#220;" /><glyph d="M236 666 147 796H307L389 666ZM307 -10Q246 -10 196.5 7Q147 24 112 57Q77 90 58 139Q39 188 39 251V614H199V266Q199 200 227.5 167Q256 134 307 134Q357 134 385.5 167Q414 200 414 266V614H574V250Q574 187 555 138.5Q536 90 501 57Q466 24 417 7Q368 -10 307 -10Z" glyph-name="Ugrave" horiz-adv-x="613" unicode="&#217;" /><glyph d="M307 -10Q246 -10 196.5 7Q147 24 112 57Q77 90 58 139Q39 188 39 251V614H199V266Q199 200 227.5 167Q256 134 307 134Q357 134 385.5 167Q414 200 414 266V614H574V250Q574 187 555 138.5Q536 90 501 57Q466 24 417 7Q368 -10 307 -10ZM160 666 236 796H366L289 666ZM327 666 402 796H532L456 666Z" glyph-name="Uhungarumlaut" horiz-adv-x="613" unicode="&#368;" /><glyph d="M174 774H440V666H174ZM307 -10Q246 -10 196.5 7Q147 24 112 57Q77 90 58 139Q39 188 39 251V614H199V266Q199 200 227.5 167Q256 134 307 134Q357 134 385.5 167Q414 200 414 266V614H574V250Q574 187 555 138.5Q536 90 501 57Q466 24 417 7Q368 -10 307 -10Z" glyph-name="Umacron" horiz-adv-x="613" unicode="&#362;" /><glyph d="M574 250Q574 147 526 84Q478 21 393 0Q365 -19 354 -34Q343 -49 343 -63Q343 -89 372 -89Q384 -89 393.5 -86Q403 -83 407 -80L424 -157Q416 -164 396 -172Q376 -180 344 -180Q298 -180 269.5 -159.5Q241 -139 241 -100Q241 -76 251.5 -52.5Q262 -29 284 -9Q228 -6 183 12.5Q138 31 106 64Q74 97 56.5 144Q39 191 39 251V614H199V266Q199 200 227.5 167Q256 134 307 134Q357 134 385.5 167Q414 200 414 266V614H574V250Z" glyph-name="Uogonek" horiz-adv-x="613" unicode="&#370;" /><glyph d="M307 -10Q246 -10 196.5 7Q147 24 112 57Q77 90 58 139Q39 188 39 251V614H199V266Q199 200 227.5 167Q256 134 307 134Q357 134 385.5 167Q414 200 414 266V614H574V250Q574 187 555 138.5Q536 90 501 57Q466 24 417 7Q368 -10 307 -10ZM415 747Q415 725 406.5 706Q398 687 383.5 672.5Q369 658 349 650Q329 642 307 642Q284 642 264 650Q244 658 229.5 672.5Q215 687 206.5 706Q198 725 198 747Q198 769 206.5 788.5Q215 808 229.5 822Q244 836 264 844.5Q284 853 307 853Q329 853 349 844.5Q369 836 383.5 822Q398 808 406.5 788.5Q415 769 415 747ZM343 747Q343 762 333 772.5Q323 783 307 783Q291 783 281 772.5Q271 762 271 747Q271 732 281 721.5Q291 711 307 711Q323 711 333 721.5Q343 732 343 747Z" glyph-name="Uring" horiz-adv-x="613" unicode="&#366;" /><glyph d="M463 809Q463 779 458.5 752Q454 725 444 704Q434 683 417 671Q400 659 375 659Q357 659 342 664.5Q327 670 313 676.5Q299 683 286.5 688.5Q274 694 261 694Q235 694 235 663H150Q150 693 154.5 720Q159 747 169 768Q179 789 196 801Q213 813 238 813Q256 813 271 807.5Q286 802 300 795.5Q314 789 326.5 783.5Q339 778 352 778Q378 778 378 809ZM307 -10Q246 -10 196.5 7Q147 24 112 57Q77 90 58 139Q39 188 39 251V614H199V266Q199 200 227.5 167Q256 134 307 134Q357 134 385.5 167Q414 200 414 266V614H574V250Q574 187 555 138.5Q536 90 501 57Q466 24 417 7Q368 -10 307 -10Z" glyph-name="Utilde" horiz-adv-x="613" unicode="&#360;" /><glyph d="M236 0 7 614H179L318 217L457 614H622L393 0Z" glyph-name="V" horiz-adv-x="630" unicode="V" /><glyph d="M473 614 567 253 652 614H814L652 0H505L410 360L314 0H167L6 614H170L257 253L351 614Z" glyph-name="W" horiz-adv-x="820" unicode="W" /><glyph d="M332 666 414 796H574L485 666ZM473 614 567 253 652 614H814L652 0H505L410 360L314 0H167L6 614H170L257 253L351 614Z" glyph-name="Wacute" horiz-adv-x="820" unicode="&#7810;" /><glyph d="M473 614 567 253 652 614H814L652 0H505L410 360L314 0H167L6 614H170L257 253L351 614ZM578 666H451L410 711L368 666H241L350 798H470Z" glyph-name="Wcircumflex" horiz-adv-x="820" unicode="&#372;" /><glyph d="M240 734Q240 768 262 789.5Q284 811 319 811Q354 811 375.5 789.5Q397 768 397 734Q397 699 375.5 678Q354 657 319 657Q284 657 262 678Q240 699 240 734ZM423 734Q423 768 444.5 789.5Q466 811 501 811Q536 811 558 789.5Q580 768 580 734Q580 699 558 678Q536 657 501 657Q466 657 444.5 678Q423 699 423 734ZM473 614 567 253 652 614H814L652 0H505L410 360L314 0H167L6 614H170L257 253L351 614Z" glyph-name="Wdieresis" horiz-adv-x="820" unicode="&#7812;" /><glyph d="M337 666 249 796H409L491 666ZM473 614 567 253 652 614H814L652 0H505L410 360L314 0H167L6 614H170L257 253L351 614Z" glyph-name="Wgrave" horiz-adv-x="820" unicode="&#7808;" /><glyph d="M394 314 601 0H422L300 189L178 0H3L210 314L13 614H192L303 439L417 614H591Z" glyph-name="X" horiz-adv-x="604" unicode="X" /><glyph d="M438 614H607L386 218V0H224V218L6 614H180L309 374Z" glyph-name="Y" horiz-adv-x="612" unicode="Y" /><glyph d="M438 614H607L386 218V0H224V218L6 614H180L309 374ZM225 666 307 796H468L379 666Z" glyph-name="Yacute" horiz-adv-x="612" unicode="&#221;" /><glyph d="M438 614H607L386 218V0H224V218L6 614H180L309 374ZM475 666H348L306 711L265 666H138L246 798H366Z" glyph-name="Ycircumflex" horiz-adv-x="612" unicode="&#374;" /><glyph d="M438 614H607L386 218V0H224V218L6 614H180L309 374ZM137 734Q137 768 158.5 789.5Q180 811 215 811Q250 811 271.5 789.5Q293 768 293 734Q293 699 271.5 678Q250 657 215 657Q180 657 158.5 678Q137 699 137 734ZM319 734Q319 768 341 789.5Q363 811 398 811Q433 811 454.5 789.5Q476 768 476 734Q476 699 454.5 678Q433 657 398 657Q363 657 341 678Q319 699 319 734Z" glyph-name="Ydieresis" horiz-adv-x="612" unicode="&#376;" /><glyph d="M438 614H607L386 218V0H224V218L6 614H180L309 374ZM235 666 146 796H307L389 666Z" glyph-name="Ygrave" horiz-adv-x="612" unicode="&#7922;" /><glyph d="M438 614H607L386 218V0H224V218L6 614H180L309 374ZM174 774H439V666H174Z" glyph-name="Ymacron" horiz-adv-x="612" unicode="&#562;" /><glyph d="M527 0H34V119L319 476H37V614H524V496L243 139H527Z" glyph-name="Z" horiz-adv-x="561" unicode="Z" /><glyph d="M527 0H34V119L319 476H37V614H524V496L243 139H527ZM205 666 287 796H447L359 666Z" glyph-name="Zacute" horiz-adv-x="561" unicode="&#377;" /><glyph d="M117 796H244L286 750L327 796H454L346 663H226ZM527 0H34V119L319 476H37V614H524V496L243 139H527Z" glyph-name="Zcaron" horiz-adv-x="561" unicode="&#142;" /><glyph d="M208 734Q208 768 229.5 789.5Q251 811 286 811Q321 811 342.5 789.5Q364 768 364 734Q364 699 342.5 678Q321 657 286 657Q251 657 229.5 678Q208 699 208 734ZM527 0H34V119L319 476H37V614H524V496L243 139H527Z" glyph-name="Zdotaccent" horiz-adv-x="561" unicode="&#379;" /><glyph d="M292 152Q284 166 265.5 174.5Q247 183 223 183Q201 183 182.5 173Q164 163 164 140Q164 117 182 106.5Q200 96 221 96Q247 96 265.5 105Q284 114 292 126ZM292 0V36Q279 16 248.5 3Q218 -10 176 -10Q145 -10 117 -0.5Q89 9 67.5 28Q46 47 33 74Q20 101 20 137Q20 170 33 196.5Q46 223 69 241.5Q92 260 123 270.5Q154 281 189 281Q219 281 248.5 272.5Q278 264 292 253V287Q292 309 278.5 323.5Q265 338 234 338Q208 338 196 328.5Q184 319 179 304L36 328Q50 386 100 423.5Q150 461 239 461Q336 461 389.5 412.5Q443 364 443 276V0Z" glyph-name="a" horiz-adv-x="478" unicode="a" /><glyph d="M292 152Q284 166 265.5 174.5Q247 183 223 183Q201 183 182.5 173Q164 163 164 140Q164 117 182 106.5Q200 96 221 96Q247 96 265.5 105Q284 114 292 126ZM292 0V36Q279 16 248.5 3Q218 -10 176 -10Q145 -10 117 -0.5Q89 9 67.5 28Q46 47 33 74Q20 101 20 137Q20 170 33 196.5Q46 223 69 241.5Q92 260 123 270.5Q154 281 189 281Q219 281 248.5 272.5Q278 264 292 253V287Q292 309 278.5 323.5Q265 338 234 338Q208 338 196 328.5Q184 319 179 304L36 328Q50 386 100 423.5Q150 461 239 461Q336 461 389.5 412.5Q443 364 443 276V0ZM171 498 253 650H402L315 498Z" glyph-name="aacute" horiz-adv-x="478" unicode="&#225;" /><glyph d="M292 152Q284 166 265.5 174.5Q247 183 223 183Q201 183 182.5 173Q164 163 164 140Q164 117 182 106.5Q200 96 221 96Q247 96 265.5 105Q284 114 292 126ZM292 0V36Q279 16 248.5 3Q218 -10 176 -10Q145 -10 117 -0.5Q89 9 67.5 28Q46 47 33 74Q20 101 20 137Q20 170 33 196.5Q46 223 69 241.5Q92 260 123 270.5Q154 281 189 281Q219 281 248.5 272.5Q278 264 292 253V287Q292 309 278.5 323.5Q265 338 234 338Q208 338 196 328.5Q184 319 179 304L36 328Q50 386 100 423.5Q150 461 239 461Q336 461 389.5 412.5Q443 364 443 276V0ZM244 488Q181 488 139 526.5Q97 565 95 646H205Q206 594 244 594Q283 594 284 646H393Q391 565 349 526.5Q307 488 244 488Z" glyph-name="abreve" horiz-adv-x="478" unicode="&#259;" /><glyph d="M397 498H283L242 553L200 498H86L180 650H303ZM292 152Q284 166 265.5 174.5Q247 183 223 183Q201 183 182.5 173Q164 163 164 140Q164 117 182 106.5Q200 96 221 96Q247 96 265.5 105Q284 114 292 126ZM292 0V36Q279 16 248.5 3Q218 -10 176 -10Q145 -10 117 -0.5Q89 9 67.5 28Q46 47 33 74Q20 101 20 137Q20 170 33 196.5Q46 223 69 241.5Q92 260 123 270.5Q154 281 189 281Q219 281 248.5 272.5Q278 264 292 253V287Q292 309 278.5 323.5Q265 338 234 338Q208 338 196 328.5Q184 319 179 304L36 328Q50 386 100 423.5Q150 461 239 461Q336 461 389.5 412.5Q443 364 443 276V0Z" glyph-name="acircumflex" horiz-adv-x="478" unicode="&#226;" /><glyph d="M151 498 233 650H382L295 498Z" glyph-name="acute" horiz-adv-x="500" unicode="&#180;" /><glyph d="M128 666 210 796H371L282 666Z" glyph-name="acute.cap" horiz-adv-x="500" unicode="&#58402;" /><glyph d="M75 573Q75 607 96.5 628.5Q118 650 153 650Q188 650 210 628.5Q232 607 232 573Q232 539 210 517.5Q188 496 153 496Q118 496 96.5 517.5Q75 539 75 573ZM258 573Q258 607 279.5 628.5Q301 650 336 650Q371 650 392.5 628.5Q414 607 414 573Q414 539 392.5 517.5Q371 496 336 496Q301 496 279.5 517.5Q258 539 258 573ZM292 152Q284 166 265.5 174.5Q247 183 223 183Q201 183 182.5 173Q164 163 164 140Q164 117 182 106.5Q200 96 221 96Q247 96 265.5 105Q284 114 292 126ZM292 0V36Q279 16 248.5 3Q218 -10 176 -10Q145 -10 117 -0.5Q89 9 67.5 28Q46 47 33 74Q20 101 20 137Q20 170 33 196.5Q46 223 69 241.5Q92 260 123 270.5Q154 281 189 281Q219 281 248.5 272.5Q278 264 292 253V287Q292 309 278.5 323.5Q265 338 234 338Q208 338 196 328.5Q184 319 179 304L36 328Q50 386 100 423.5Q150 461 239 461Q336 461 389.5 412.5Q443 364 443 276V0Z" glyph-name="adieresis" horiz-adv-x="478" unicode="&#228;" /><glyph d="M711 129Q695 63 639 26.5Q583 -10 502 -10Q453 -10 413.5 6Q374 22 346 46Q319 23 278.5 6.5Q238 -10 183 -10Q150 -10 120 -0.5Q90 9 67.5 27.5Q45 46 32 72Q19 98 19 131Q19 166 34 192.5Q49 219 74.5 237Q100 255 135 264Q170 273 209 273H288V286Q288 309 273.5 325Q259 341 227 341Q204 341 190.5 331Q177 321 172 305L32 328Q47 387 96.5 424Q146 461 231 461Q276 461 310 447.5Q344 434 367 411Q393 433 425.5 446.5Q458 460 500 460Q550 460 590 443.5Q630 427 657.5 397Q685 367 699.5 325.5Q714 284 714 234V190H423Q427 150 447.5 131Q468 112 502 112Q526 112 545.5 122.5Q565 133 570 154ZM220 101Q243 101 262 110.5Q281 120 291 135Q289 138 288.5 147Q288 156 288 165V189H224Q199 189 180.5 178.5Q162 168 162 145Q162 122 180 111.5Q198 101 220 101ZM498 338Q470 338 452 321Q434 304 426 273H562Q560 301 543.5 319.5Q527 338 498 338Z" glyph-name="ae" horiz-adv-x="732" unicode="&#230;" /><glyph d="M318 498 400 650H549L462 498ZM711 129Q695 63 639 26.5Q583 -10 502 -10Q453 -10 413.5 6Q374 22 346 46Q319 23 278.5 6.5Q238 -10 183 -10Q150 -10 120 -0.5Q90 9 67.5 27.5Q45 46 32 72Q19 98 19 131Q19 166 34 192.5Q49 219 74.5 237Q100 255 135 264Q170 273 209 273H288V286Q288 309 273.5 325Q259 341 227 341Q204 341 190.5 331Q177 321 172 305L32 328Q47 387 96.5 424Q146 461 231 461Q276 461 310 447.5Q344 434 367 411Q393 433 425.5 446.5Q458 460 500 460Q550 460 590 443.5Q630 427 657.5 397Q685 367 699.5 325.5Q714 284 714 234V190H423Q427 150 447.5 131Q468 112 502 112Q526 112 545.5 122.5Q565 133 570 154ZM220 101Q243 101 262 110.5Q281 120 291 135Q289 138 288.5 147Q288 156 288 165V189H224Q199 189 180.5 178.5Q162 168 162 145Q162 122 180 111.5Q198 101 220 101ZM498 338Q470 338 452 321Q434 304 426 273H562Q560 301 543.5 319.5Q527 338 498 338Z" glyph-name="aeacute" horiz-adv-x="732" unicode="&#509;" /><glyph d="M292 152Q284 166 265.5 174.5Q247 183 223 183Q201 183 182.5 173Q164 163 164 140Q164 117 182 106.5Q200 96 221 96Q247 96 265.5 105Q284 114 292 126ZM292 0V36Q279 16 248.5 3Q218 -10 176 -10Q145 -10 117 -0.5Q89 9 67.5 28Q46 47 33 74Q20 101 20 137Q20 170 33 196.5Q46 223 69 241.5Q92 260 123 270.5Q154 281 189 281Q219 281 248.5 272.5Q278 264 292 253V287Q292 309 278.5 323.5Q265 338 234 338Q208 338 196 328.5Q184 319 179 304L36 328Q50 386 100 423.5Q150 461 239 461Q336 461 389.5 412.5Q443 364 443 276V0ZM173 498 86 650H235L317 498Z" glyph-name="agrave" horiz-adv-x="478" unicode="&#224;" /><glyph d="M292 152Q284 166 265.5 174.5Q247 183 223 183Q201 183 182.5 173Q164 163 164 140Q164 117 182 106.5Q200 96 221 96Q247 96 265.5 105Q284 114 292 126ZM292 0V36Q279 16 248.5 3Q218 -10 176 -10Q145 -10 117 -0.5Q89 9 67.5 28Q46 47 33 74Q20 101 20 137Q20 170 33 196.5Q46 223 69 241.5Q92 260 123 270.5Q154 281 189 281Q219 281 248.5 272.5Q278 264 292 253V287Q292 309 278.5 323.5Q265 338 234 338Q208 338 196 328.5Q184 319 179 304L36 328Q50 386 100 423.5Q150 461 239 461Q336 461 389.5 412.5Q443 364 443 276V0ZM119 617H372V507H119Z" glyph-name="amacron" horiz-adv-x="478" unicode="&#257;" /><glyph d="M27 171Q27 225 48.5 263Q70 301 127 337Q106 366 92 398.5Q78 431 78 469Q78 496 87.5 524Q97 552 118 574Q139 596 172 610Q205 624 252 624Q299 624 332.5 610Q366 596 387 574Q408 552 417.5 524Q427 496 427 469Q427 445 421.5 425.5Q416 406 403 388.5Q390 371 369 354.5Q348 338 318 319L405 223Q430 276 430 346L568 322Q568 263 549 212Q530 161 498 119L606 0H431L400 34Q363 13 321.5 1.5Q280 -10 236 -10Q189 -10 150.5 4Q112 18 84.5 42.5Q57 67 42 100Q27 133 27 171ZM247 111Q283 111 316 126L204 250Q188 236 179.5 220.5Q171 205 171 183Q171 151 190.5 131Q210 111 247 111ZM213 461Q213 447 221.5 433Q230 419 244 402Q292 430 292 461Q292 475 283.5 488Q275 501 252 501Q230 501 221.5 488Q213 475 213 461Z" glyph-name="ampersand" horiz-adv-x="609" unicode="&amp;" /><glyph d="M346 451Q344 470 332.5 485.5Q321 501 295 501Q271 501 256 486.5Q241 472 241 449Q241 427 255 408.5Q269 390 286 370L402 235Q410 258 414 284.5Q418 311 419 343L557 318Q556 263 540 214.5Q524 166 496 126L605 0H429L398 34Q363 13 324.5 1.5Q286 -10 245 -10Q196 -10 155.5 3.5Q115 17 86.5 42Q58 67 42.5 103.5Q27 140 27 185Q27 236 53.5 277.5Q80 319 123 344Q90 393 90 449Q90 489 105 521.5Q120 554 147.5 576.5Q175 599 212.5 611.5Q250 624 295 624Q380 624 430.5 584Q481 544 494 477ZM247 111Q283 111 314 127L203 250Q189 240 180 223Q171 206 171 185Q171 153 190.5 132Q210 111 247 111Z" glyph-name="ampersand.alt" horiz-adv-x="609" unicode="&#60321;" /><glyph d="M443 0Q415 -19 404 -34Q393 -49 393 -63Q393 -89 422 -89Q434 -89 443 -86Q452 -83 456 -80L473 -157Q465 -164 445.5 -172Q426 -180 394 -180Q348 -180 319.5 -159.5Q291 -139 291 -100Q291 -73 304.5 -46.5Q318 -20 345 0H292V36Q279 16 248.5 3Q218 -10 176 -10Q145 -10 117 -0.5Q89 9 67.5 28Q46 47 33 74Q20 101 20 137Q20 170 33 196.5Q46 223 69 241.5Q92 260 123 270.5Q154 281 189 281Q219 281 248.5 272.5Q278 264 292 253V287Q292 309 278.5 323.5Q265 338 234 338Q208 338 196 328.5Q184 319 179 304L36 328Q50 386 100 423.5Q150 461 239 461Q336 461 389.5 412.5Q443 364 443 276ZM292 152Q284 166 265.5 174.5Q247 183 223 183Q201 183 182.5 173Q164 163 164 140Q164 117 182 106.5Q200 96 221 96Q247 96 265.5 105Q284 114 292 126Z" glyph-name="aogonek" horiz-adv-x="478" unicode="&#261;" /><glyph d="M60 420Q93 441 123.5 450.5Q154 460 182 460Q211 460 236 454Q261 448 285 440.5Q309 433 334 427Q359 421 388 421Q417 421 448 430Q479 439 513 462V353Q479 331 448 321.5Q417 312 388 312Q359 312 334 318Q309 324 285 331.5Q261 339 236 345.5Q211 352 182 352Q154 352 123.5 342.5Q93 333 60 311ZM60 246Q93 269 123.5 278.5Q154 288 182 288Q211 288 236 281.5Q261 275 285 267.5Q309 260 334 253.5Q359 247 388 247Q417 247 448 256.5Q479 266 513 289V180Q479 158 448 149Q417 140 388 140Q359 140 334 146Q309 152 285 159.5Q261 167 236 173Q211 179 182 179Q154 179 123.5 169.5Q93 160 60 139Z" glyph-name="approxequal" horiz-adv-x="574" unicode="&#8776;" /><glyph d="M33 420Q66 441 96.5 450.5Q127 460 155 460Q183 460 208 454Q233 448 257.5 440.5Q282 433 307 427Q332 421 361 421Q389 421 420 430Q451 439 486 462V353Q451 331 420 321.5Q389 312 361 312Q332 312 307 318Q282 324 257.5 331.5Q233 339 208 345.5Q183 352 155 352Q127 352 96.5 342.5Q66 333 33 311ZM33 246Q66 269 96.5 278.5Q127 288 155 288Q183 288 208 281.5Q233 275 257.5 267.5Q282 260 307 253.5Q332 247 361 247Q389 247 420 256.5Q451 266 486 289V180Q451 158 420 149Q389 140 361 140Q332 140 307 146Q282 152 257.5 159.5Q233 167 208 173Q183 179 155 179Q127 179 96.5 169.5Q66 160 33 139Z" glyph-name="approxequal.lt" horiz-adv-x="520" /><glyph d="M292 152Q284 166 265.5 174.5Q247 183 223 183Q201 183 182.5 173Q164 163 164 140Q164 117 182 106.5Q200 96 221 96Q247 96 265.5 105Q284 114 292 126ZM292 0V36Q279 16 248.5 3Q218 -10 176 -10Q145 -10 117 -0.5Q89 9 67.5 28Q46 47 33 74Q20 101 20 137Q20 170 33 196.5Q46 223 69 241.5Q92 260 123 270.5Q154 281 189 281Q219 281 248.5 272.5Q278 264 292 253V287Q292 309 278.5 323.5Q265 338 234 338Q208 338 196 328.5Q184 319 179 304L36 328Q50 386 100 423.5Q150 461 239 461Q336 461 389.5 412.5Q443 364 443 276V0ZM353 589Q353 567 344.5 548Q336 529 321.5 514.5Q307 500 287 492Q267 484 245 484Q222 484 202 492Q182 500 167.5 514.5Q153 529 144.5 548Q136 567 136 589Q136 611 144.5 630Q153 649 167.5 663.5Q182 678 202 686Q222 694 245 694Q267 694 287 686Q307 678 321.5 663.5Q336 649 344.5 630Q353 611 353 589ZM281 589Q281 604 271 614.5Q261 625 245 625Q229 625 219 614.5Q209 604 209 589Q209 574 219 563.5Q229 553 245 553Q261 553 271 563.5Q281 574 281 589Z" glyph-name="aring" horiz-adv-x="478" unicode="&#229;" /><glyph d="M351 563Q351 545 343 529.5Q335 514 320.5 502.5Q306 491 286.5 484Q267 477 245 477Q222 477 202.5 484Q183 491 169 502.5Q155 514 146.5 529.5Q138 545 138 563Q138 581 146.5 597Q155 613 169 624.5Q183 636 202.5 643Q222 650 245 650Q290 650 320.5 624.5Q351 599 351 563ZM395 769 325 667H172L235 769ZM245 534Q261 534 271 542.5Q281 551 281 563Q281 576 271 584.5Q261 593 245 593Q229 593 218.5 584.5Q208 576 208 563Q208 551 218.5 542.5Q229 534 245 534ZM292 152Q284 166 265.5 174.5Q247 183 223 183Q201 183 182.5 173Q164 163 164 140Q164 117 182 106.5Q200 96 221 96Q247 96 265.5 105Q284 114 292 126ZM292 0V36Q279 16 248.5 3Q218 -10 176 -10Q145 -10 117 -0.5Q89 9 67.5 28Q46 47 33 74Q20 101 20 137Q20 170 33 196.5Q46 223 69 241.5Q92 260 123 270.5Q154 281 189 281Q219 281 248.5 272.5Q278 264 292 253V287Q292 309 278.5 323.5Q265 338 234 338Q208 338 196 328.5Q184 319 179 304L36 328Q50 386 100 423.5Q150 461 239 461Q336 461 389.5 412.5Q443 364 443 276V0Z" glyph-name="aringacute" horiz-adv-x="478" unicode="&#507;" /><glyph d="M281 614 422 376H288L216 501L145 376H10L152 614Z" glyph-name="asciicircum" horiz-adv-x="432" unicode="^" /><glyph d="M396 355Q396 277 367.5 234.5Q339 192 286 192Q263 192 246 200.5Q229 209 215.5 219.5Q202 230 189.5 239Q177 248 164 248Q129 248 129 197H31Q31 274 59 317Q87 360 141 360Q164 360 181 351.5Q198 343 211.5 332.5Q225 322 237 313.5Q249 305 263 305Q280 305 289 316.5Q298 328 298 355Z" glyph-name="asciitilde" horiz-adv-x="426" unicode="~" /><glyph d="M24 543 61 607 135 564V650H210V564L283 607L321 543L246 500L321 457L283 393L210 436V350H135V436L61 393L24 457L98 500Z" glyph-name="asterisk" horiz-adv-x="344" unicode="*" /><glyph d="M538 148Q534 127 540 117Q546 107 564 107Q608 107 634.5 150Q661 193 661 274Q661 327 641.5 368Q622 409 587.5 437.5Q553 466 505.5 481Q458 496 403 496Q336 496 281 474Q226 452 186.5 411.5Q147 371 125 314.5Q103 258 103 190Q103 111 131 59Q159 7 202.5 -24Q246 -55 299 -67.5Q352 -80 403 -80Q491 -80 554.5 -62Q618 -44 653 -27L667 -100Q651 -108 624 -117.5Q597 -127 562 -135Q527 -143 486 -148.5Q445 -154 403 -154Q329 -154 260 -134Q191 -114 138 -72Q85 -30 52.5 35Q20 100 20 190Q20 269 47.5 338Q75 407 125.5 459Q176 511 246.5 541Q317 571 403 571Q478 571 539.5 548.5Q601 526 645.5 486Q690 446 714.5 391.5Q739 337 739 274Q739 212 722.5 166.5Q706 121 677.5 90Q649 59 611 44Q573 29 530 29Q495 29 464 41.5Q433 54 414 79Q398 55 370.5 43Q343 31 315 31Q282 31 256.5 43Q231 55 213.5 75.5Q196 96 187 124Q178 152 178 185Q178 227 191.5 266Q205 305 229 334.5Q253 364 287.5 381.5Q322 399 364 399Q392 399 415.5 388.5Q439 378 449 363L455 391H580ZM430 259Q426 273 413 281.5Q400 290 382 290Q350 290 329 262.5Q308 235 308 196Q308 171 320.5 155.5Q333 140 359 140Q379 140 392.5 149.5Q406 159 414 173Z" glyph-name="at" horiz-adv-x="759" unicode="@" /><glyph d="M538 240Q534 219 540 209Q546 199 564 199Q608 199 634.5 242Q661 285 661 366Q661 419 641.5 460Q622 501 587.5 529.5Q553 558 505.5 573Q458 588 403 588Q336 588 281 566Q226 544 186.5 503.5Q147 463 125 406.5Q103 350 103 282Q103 203 131 151Q159 99 202.5 68Q246 37 299 24.5Q352 12 403 12Q491 12 554.5 30Q618 48 653 65L667 -8Q651 -16 624 -25.5Q597 -35 562 -43Q527 -51 486 -56.5Q445 -62 403 -62Q329 -62 260 -42Q191 -22 138 20Q85 62 52.5 127Q20 192 20 282Q20 361 47.5 430Q75 499 125.5 551Q176 603 246.5 633Q317 663 403 663Q478 663 539.5 640.5Q601 618 645.5 578Q690 538 714.5 483.5Q739 429 739 366Q739 304 722.5 258.5Q706 213 677.5 182Q649 151 611 136Q573 121 530 121Q495 121 464 133.5Q433 146 414 171Q398 147 370.5 135Q343 123 315 123Q282 123 256.5 135Q231 147 213.5 167.5Q196 188 187 216Q178 244 178 277Q178 319 191.5 358Q205 397 229 426.5Q253 456 287.5 473.5Q322 491 364 491Q392 491 415.5 480.5Q439 470 449 455L455 483H580ZM430 351Q426 365 413 373.5Q400 382 382 382Q350 382 329 354.5Q308 327 308 288Q308 263 320.5 247.5Q333 232 359 232Q379 232 392.5 241.5Q406 251 414 265Z" glyph-name="at.cap" horiz-adv-x="759" unicode="&#58643;" /><glyph d="M292 152Q284 166 265.5 174.5Q247 183 223 183Q201 183 182.5 173Q164 163 164 140Q164 117 182 106.5Q200 96 221 96Q247 96 265.5 105Q284 114 292 126ZM292 0V36Q279 16 248.5 3Q218 -10 176 -10Q145 -10 117 -0.5Q89 9 67.5 28Q46 47 33 74Q20 101 20 137Q20 170 33 196.5Q46 223 69 241.5Q92 260 123 270.5Q154 281 189 281Q219 281 248.5 272.5Q278 264 292 253V287Q292 309 278.5 323.5Q265 338 234 338Q208 338 196 328.5Q184 319 179 304L36 328Q50 386 100 423.5Q150 461 239 461Q336 461 389.5 412.5Q443 364 443 276V0ZM403 645Q403 582 380 539.5Q357 497 310 497Q291 497 277 502Q263 507 251.5 513.5Q240 520 229 525Q218 530 206 530Q195 530 188.5 523.5Q182 517 181 503H91Q91 566 114 608.5Q137 651 184 651Q203 651 217 645.5Q231 640 242.5 634Q254 628 265 622.5Q276 617 288 617Q299 617 305.5 624Q312 631 312 645Z" glyph-name="atilde" horiz-adv-x="478" unicode="&#227;" /><glyph d="M199 0H42V650H199V414Q215 432 245 446Q275 460 310 460Q359 460 396.5 441.5Q434 423 459.5 391Q485 359 498 316.5Q511 274 511 225Q511 176 498 133.5Q485 91 459.5 59Q434 27 396.5 8.5Q359 -10 310 -10Q275 -10 245 4Q215 18 199 36ZM199 166Q208 147 226.5 135.5Q245 124 268 124Q309 124 331.5 152.5Q354 181 354 225Q354 269 331.5 297.5Q309 326 268 326Q245 326 226.5 314.5Q208 303 199 284Z" glyph-name="b" horiz-adv-x="529" unicode="b" /><glyph d="M389 -84H253L5 650H141Z" glyph-name="backslash" horiz-adv-x="394" unicode="\" /><glyph d="M389 -64H253L5 670H141Z" glyph-name="backslash.cap" horiz-adv-x="394" unicode="&#58466;" /><glyph d="M46 650H177V-84H46Z" glyph-name="bar" horiz-adv-x="223" unicode="|" /><glyph d="M46 670H177V-64H46Z" glyph-name="bar.cap" horiz-adv-x="223" unicode="&#58467;" /><glyph d="M199 0H42V650H199V414Q215 432 245 446Q275 460 310 460Q359 460 396.5 441.5Q434 423 459.5 391Q485 359 498 316.5Q511 274 511 225Q511 176 498 133.5Q485 91 459.5 59Q434 27 396.5 8.5Q359 -10 310 -10Q275 -10 245 4Q215 18 199 36ZM199 166Q208 147 226.5 135.5Q245 124 268 124Q309 124 331.5 152.5Q354 181 354 225Q354 269 331.5 297.5Q309 326 268 326Q245 326 226.5 314.5Q208 303 199 284ZM43 746Q43 781 65 802Q87 823 122 823Q157 823 178.5 802Q200 781 200 746Q200 712 178.5 690.5Q157 669 122 669Q87 669 65 690.5Q43 712 43 746Z" glyph-name="bdotaccent" horiz-adv-x="529" unicode="&#7683;" /><glyph d="M250 23Q250 -6 279 -6H344V-133H236Q178 -133 143 -98Q108 -63 108 -5V191Q108 220 79 220H19V346H79Q108 346 108 375V571Q108 629 143 664Q178 699 236 699H344V572H279Q250 572 250 543V366Q250 333 236.5 313.5Q223 294 202 283Q223 272 236.5 252.5Q250 233 250 200Z" glyph-name="braceleft" horiz-adv-x="365" unicode="{" /><glyph d="M250 43Q250 14 279 14H344V-113H236Q178 -113 143 -78Q108 -43 108 15V211Q108 240 79 240H19V366H79Q108 366 108 395V591Q108 649 143 684Q178 719 236 719H344V592H279Q250 592 250 563V386Q250 353 236.5 333.5Q223 314 202 303Q223 292 236.5 272.5Q250 253 250 220Z" glyph-name="braceleft.cap" horiz-adv-x="365" unicode="&#58517;" /><glyph d="M115 200Q115 233 128.5 252.5Q142 272 163 283Q142 294 128.5 313.5Q115 333 115 366V543Q115 572 86 572H21V699H129Q187 699 221.5 664Q256 629 256 571V375Q256 346 285 346H345V220H285Q256 220 256 191V-5Q256 -63 221.5 -98Q187 -133 129 -133H21V-6H86Q115 -6 115 23Z" glyph-name="braceright" horiz-adv-x="365" unicode="}" /><glyph d="M115 220Q115 253 128.5 272.5Q142 292 163 303Q142 314 128.5 333.5Q115 353 115 386V563Q115 592 86 592H21V719H129Q187 719 221.5 684Q256 649 256 591V395Q256 366 285 366H345V240H285Q256 240 256 211V15Q256 -43 221.5 -78Q187 -113 129 -113H21V14H86Q115 14 115 43Z" glyph-name="braceright.cap" horiz-adv-x="365" unicode="&#58518;" /><glyph d="M192 -6H306V-133H46V699H306V572H192Z" glyph-name="bracketleft" horiz-adv-x="333" unicode="[" /><glyph d="M192 14H306V-113H46V719H306V592H192Z" glyph-name="bracketleft.cap" horiz-adv-x="333" unicode="&#58515;" /><glyph d="M141 572H27V699H287V-133H27V-6H141Z" glyph-name="bracketright" horiz-adv-x="333" unicode="]" /><glyph d="M141 592H27V719H287V-113H27V14H141Z" glyph-name="bracketright.cap" horiz-adv-x="333" unicode="&#58516;" /><glyph d="M250 488Q187 488 145 526.5Q103 565 101 646H211Q212 594 250 594Q289 594 290 646H399Q397 565 355 526.5Q313 488 250 488Z" glyph-name="breve" horiz-adv-x="500" unicode="&#728;" /><glyph d="M250 658Q187 658 146.5 695Q106 732 106 804H214Q214 783 223.5 772.5Q233 762 250 762Q286 762 286 804H394Q394 732 353.5 695Q313 658 250 658Z" glyph-name="breve.cap" horiz-adv-x="500" unicode="&#58406;" /><glyph d="M357 261Q357 225 344 195Q331 165 308.5 143Q286 121 255.5 109Q225 97 191 97Q156 97 126 109Q96 121 73 143Q50 165 37 195Q24 225 24 261Q24 298 37 329Q50 360 73 382Q96 404 126 416Q156 428 191 428Q225 428 255.5 416Q286 404 308.5 382Q331 360 344 329Q357 298 357 261Z" glyph-name="bullet" horiz-adv-x="381" unicode="&#8226;" /><glyph d="M357 295Q357 259 344 228.5Q331 198 308.5 176.5Q286 155 255.5 143Q225 131 191 131Q156 131 126 143Q96 155 73 176.5Q50 198 37 228.5Q24 259 24 295Q24 332 37 363Q50 394 73 416Q96 438 126 450Q156 462 191 462Q225 462 255.5 450Q286 438 308.5 416Q331 394 344 363Q357 332 357 295Z" glyph-name="bullet.cap" horiz-adv-x="381" unicode="&#58470;" /><glyph d="M18 225Q18 277 34 320.5Q50 364 80 395Q110 426 152.5 443Q195 460 247 460Q337 460 389 418.5Q441 377 452 308L305 283Q301 304 287.5 317Q274 330 248 330Q212 330 192.5 301.5Q173 273 173 225Q173 177 192.5 149Q212 121 248 121Q274 121 287.5 134Q301 147 305 168L452 142Q441 73 389 31.5Q337 -10 247 -10Q195 -10 152.5 7Q110 24 80 55Q50 86 34 129.5Q18 173 18 225Z" glyph-name="c" horiz-adv-x="471" unicode="c" /><glyph d="M172 498 254 650H403L316 498ZM18 225Q18 277 34 320.5Q50 364 80 395Q110 426 152.5 443Q195 460 247 460Q337 460 389 418.5Q441 377 452 308L305 283Q301 304 287.5 317Q274 330 248 330Q212 330 192.5 301.5Q173 273 173 225Q173 177 192.5 149Q212 121 248 121Q274 121 287.5 134Q301 147 305 168L452 142Q441 73 389 31.5Q337 -10 247 -10Q195 -10 152.5 7Q110 24 80 55Q50 86 34 129.5Q18 173 18 225Z" glyph-name="cacute" horiz-adv-x="471" unicode="&#263;" /><glyph d="M311 498H189L94 650H209L250 595L291 650H406Z" glyph-name="caron" horiz-adv-x="500" unicode="&#711;" /><glyph d="M161 483 194 650H291L256 483Z" glyph-name="caron.Slovak" horiz-adv-x="500" /><glyph d="M82 796H209L250 750L292 796H419L310 663H190Z" glyph-name="caron.cap" horiz-adv-x="500" unicode="&#58413;" /><glyph d="M308 498H185L91 650H205L247 595L288 650H403ZM18 225Q18 277 34 320.5Q50 364 80 395Q110 426 152.5 443Q195 460 247 460Q337 460 389 418.5Q441 377 452 308L305 283Q301 304 287.5 317Q274 330 248 330Q212 330 192.5 301.5Q173 273 173 225Q173 177 192.5 149Q212 121 248 121Q274 121 287.5 134Q301 147 305 168L452 142Q441 73 389 31.5Q337 -10 247 -10Q195 -10 152.5 7Q110 24 80 55Q50 86 34 129.5Q18 173 18 225Z" glyph-name="ccaron" horiz-adv-x="471" unicode="&#269;" /><glyph d="M213 -8Q122 3 70 65.5Q18 128 18 225Q18 277 34 320.5Q50 364 80 395Q110 426 152.5 443Q195 460 247 460Q337 460 389 418.5Q441 377 452 308L305 283Q301 304 287.5 317Q274 330 248 330Q212 330 192.5 301.5Q173 273 173 225Q173 177 192.5 149Q212 121 248 121Q274 121 287.5 134Q301 147 305 168L452 142Q442 78 395.5 37Q349 -4 269 -9L266 -21Q299 -30 321.5 -50Q344 -70 344 -105Q344 -140 317.5 -160Q291 -180 242 -180Q212 -180 190.5 -173.5Q169 -167 155 -158L170 -95Q179 -100 194.5 -105Q210 -110 228 -110Q242 -110 251.5 -105.5Q261 -101 261 -92Q261 -80 248 -73Q235 -66 203 -64Z" glyph-name="ccedilla" horiz-adv-x="471" unicode="&#231;" /><glyph d="M403 498H288L247 553L205 498H91L185 650H308ZM18 225Q18 277 34 320.5Q50 364 80 395Q110 426 152.5 443Q195 460 247 460Q337 460 389 418.5Q441 377 452 308L305 283Q301 304 287.5 317Q274 330 248 330Q212 330 192.5 301.5Q173 273 173 225Q173 177 192.5 149Q212 121 248 121Q274 121 287.5 134Q301 147 305 168L452 142Q441 73 389 31.5Q337 -10 247 -10Q195 -10 152.5 7Q110 24 80 55Q50 86 34 129.5Q18 173 18 225Z" glyph-name="ccircumflex" horiz-adv-x="471" unicode="&#265;" /><glyph d="M18 225Q18 277 34 320.5Q50 364 80 395Q110 426 152.5 443Q195 460 247 460Q337 460 389 418.5Q441 377 452 308L305 283Q301 304 287.5 317Q274 330 248 330Q212 330 192.5 301.5Q173 273 173 225Q173 177 192.5 149Q212 121 248 121Q274 121 287.5 134Q301 147 305 168L452 142Q441 73 389 31.5Q337 -10 247 -10Q195 -10 152.5 7Q110 24 80 55Q50 86 34 129.5Q18 173 18 225ZM169 573Q169 607 190.5 628.5Q212 650 247 650Q282 650 303.5 628.5Q325 607 325 573Q325 539 303.5 517.5Q282 496 247 496Q212 496 190.5 517.5Q169 539 169 573Z" glyph-name="cdotaccent" horiz-adv-x="471" unicode="&#267;" /><glyph d="M277 11 271 -21Q304 -30 326 -50Q348 -70 348 -105Q348 -140 321 -160Q294 -180 246 -180Q216 -180 194.5 -173.5Q173 -167 159 -158L174 -95Q182 -100 198 -105Q214 -110 232 -110Q246 -110 255.5 -105.5Q265 -101 265 -92Q265 -80 252 -73Q239 -66 210 -64H207L221 11Z" glyph-name="cedilla" horiz-adv-x="500" unicode="&#184;" /><glyph d="M227 -12Q252 -14 274 -20.5Q296 -27 312.5 -38Q329 -49 338.5 -66Q348 -83 348 -105Q348 -140 321 -160Q294 -180 246 -180Q216 -180 194.5 -173.5Q173 -167 159 -158L174 -95Q182 -100 198 -105Q214 -110 232 -110Q246 -110 255.5 -105.5Q265 -101 265 -92Q265 -80 252 -73Q239 -66 207 -64Z" glyph-name="cedilla.alt" horiz-adv-x="500" /><glyph d="M18 235Q18 323 61.5 382.5Q105 442 182 462V558H310V463Q371 449 407 411Q443 373 452 318L305 293Q301 314 287.5 327Q274 340 248 340Q212 340 192.5 311.5Q173 283 173 235Q173 187 192.5 159Q212 131 248 131Q274 131 287.5 144Q301 157 305 178L452 152Q443 96 407 58Q371 20 310 6V-85H182V8Q105 27 61.5 87Q18 147 18 235Z" glyph-name="cent" horiz-adv-x="471" unicode="&#162;" /><glyph d="M42 235Q42 323 85.5 382.5Q129 442 206 462V558H334V463Q396 449 431.5 411Q467 373 476 318L329 293Q326 314 312.5 327Q299 340 273 340Q236 340 217 311.5Q198 283 198 235Q198 187 217 159Q236 131 273 131Q299 131 312.5 144Q326 157 329 178L476 152Q467 96 431.5 58Q396 20 334 6V-85H206V8Q129 27 85.5 87Q42 147 42 235Z" glyph-name="cent.lt" horiz-adv-x="520" /><glyph d="M406 498H291L250 553L209 498H94L189 650H311Z" glyph-name="circumflex" horiz-adv-x="500" unicode="&#710;" /><glyph d="M419 666H292L250 711L209 666H82L190 798H310Z" glyph-name="circumflex.cap" horiz-adv-x="500" unicode="&#58403;" /><glyph d="M199 81Q199 43 174.5 18.5Q150 -6 111 -6Q73 -6 48.5 18.5Q24 43 24 81Q24 119 48.5 143.5Q73 168 111 168Q150 168 174.5 143.5Q199 119 199 81ZM199 346Q199 308 174.5 283.5Q150 259 111 259Q73 259 48.5 283.5Q24 308 24 346Q24 385 48.5 409.5Q73 434 111 434Q150 434 174.5 409.5Q199 385 199 346Z" glyph-name="colon" horiz-adv-x="223" unicode=":" /><glyph d="M217 81Q217 43 192 18.5Q167 -6 129 -6Q91 -6 66.5 18.5Q42 43 42 81Q42 119 66.5 143.5Q91 168 129 168Q167 168 192 143.5Q217 119 217 81ZM217 346Q217 308 192 283.5Q167 259 129 259Q91 259 66.5 283.5Q42 308 42 346Q42 385 66.5 409.5Q91 434 129 434Q167 434 192 409.5Q217 385 217 346Z" glyph-name="colon.tab" horiz-adv-x="260" /><glyph d="M35 -62Q95 -50 118 -5Q116 -6 111 -6Q73 -6 48.5 18.5Q24 43 24 81Q24 119 48.5 143.5Q73 168 112 168Q162 168 185.5 137Q209 106 209 59Q209 25 198.5 -5.5Q188 -36 167 -60.5Q146 -85 116 -102.5Q86 -120 47 -127Z" glyph-name="comma" horiz-adv-x="223" unicode="," /><glyph d="M51 -62Q111 -50 134 -5Q133 -6 128 -6Q90 -6 65.5 18.5Q41 43 41 81Q41 119 65.5 143.5Q90 168 129 168Q179 168 202 137Q225 106 225 59Q225 25 214.5 -5.5Q204 -36 183.5 -60.5Q163 -85 133 -102.5Q103 -120 64 -127Z" glyph-name="comma.tab" horiz-adv-x="260" /><glyph d="M203 -154Q221 -150 233.5 -144.5Q246 -139 253 -129H247Q223 -129 206.5 -116Q190 -103 190 -77Q190 -51 208.5 -37.5Q227 -24 252 -24Q288 -24 304 -45.5Q320 -67 320 -95Q320 -134 292.5 -161Q265 -188 212 -196Z" glyph-name="commaaccent" horiz-adv-x="500" unicode="&#58388;" /><glyph d="M303 639Q262 631 246 605H250Q276 603 293 586Q310 569 310 542Q310 515 291.5 497.5Q273 480 246 480Q210 480 191.5 502.5Q173 525 173 565Q173 610 203.5 644.5Q234 679 290 690Z" glyph-name="commaturn" horiz-adv-x="500" /><glyph d="M669 307Q669 238 644 180Q619 122 576 79.5Q533 37 475 13.5Q417 -10 352 -10Q287 -10 229 13.5Q171 37 128 79.5Q85 122 60 180Q35 238 35 307Q35 376 60 434Q85 492 128 534.5Q171 577 229 600.5Q287 624 352 624Q417 624 475 600.5Q533 577 576 534.5Q619 492 644 434Q669 376 669 307ZM622 307Q622 366 600.5 415.5Q579 465 542.5 501Q506 537 456.5 557.5Q407 578 352 578Q296 578 247 557.5Q198 537 161.5 501Q125 465 103.5 415.5Q82 366 82 307Q82 248 103.5 198.5Q125 149 161.5 113Q198 77 247 56.5Q296 36 352 36Q407 36 456.5 56.5Q506 77 542.5 113Q579 149 600.5 198.5Q622 248 622 307ZM277 308Q277 264 297 236Q317 208 355 208Q402 208 412 251L521 232Q513 176 469 142Q425 108 353 108Q311 108 276 122.5Q241 137 216 163.5Q191 190 177.5 227Q164 264 164 308Q164 352 177.5 388.5Q191 425 216 451.5Q241 478 276 492.5Q311 507 353 507Q425 507 469 473.5Q513 440 521 383L412 364Q407 384 392.5 396Q378 408 355 408Q317 408 297 379.5Q277 351 277 308Z" glyph-name="copyright" horiz-adv-x="704" unicode="&#169;" /><glyph d="M330 36Q314 18 284 4Q254 -10 219 -10Q170 -10 132.5 8.5Q95 27 69.5 59Q44 91 31 133.5Q18 176 18 225Q18 274 31 316.5Q44 359 69.5 391Q95 423 132.5 441.5Q170 460 219 460Q254 460 284 446Q314 432 330 414V650H487V0H330ZM330 284Q321 303 302.5 314.5Q284 326 261 326Q220 326 197.5 297.5Q175 269 175 225Q175 181 197.5 152.5Q220 124 261 124Q284 124 302.5 135.5Q321 147 330 166Z" glyph-name="d" horiz-adv-x="529" unicode="d" /><glyph d="M24 558H123V650H222V558H321V461H222V276H123V461H24Z" glyph-name="dagger" horiz-adv-x="345" unicode="&#8224;" /><glyph d="M26 583H127V650H222V583H324V496H222V429H324V343H222V276H127V343H26V429H127V496H26Z" glyph-name="daggerdbl" horiz-adv-x="349" unicode="&#8225;" /><glyph d="M517 483 550 650H647L613 483ZM330 0V36Q314 18 284 4Q254 -10 219 -10Q170 -10 132.5 8.5Q95 27 69.5 59Q44 91 31 133.5Q18 176 18 225Q18 274 31 316.5Q44 359 69.5 391Q95 423 132.5 441.5Q170 460 219 460Q254 460 284 446Q314 432 330 414V650H487V0ZM330 284Q321 303 302.5 314.5Q284 326 261 326Q220 326 197.5 297.5Q175 269 175 225Q175 181 197.5 152.5Q220 124 261 124Q284 124 302.5 135.5Q321 147 330 166Z" glyph-name="dcaron" horiz-adv-x="529" unicode="&#271;" /><glyph d="M248 592H330V650H487V592H534V490H487V0H330V36Q314 18 284 4Q254 -10 219 -10Q170 -10 132.5 8.5Q95 27 69.5 59Q44 91 31 133.5Q18 176 18 225Q18 274 31 316.5Q44 359 69.5 391Q95 423 132.5 441.5Q170 460 219 460Q254 460 284 446Q314 432 330 414V490H248ZM330 284Q321 303 302.5 314.5Q284 326 261 326Q220 326 197.5 297.5Q175 269 175 225Q175 181 197.5 152.5Q220 124 261 124Q284 124 302.5 135.5Q321 147 330 166Z" glyph-name="dcroat" horiz-adv-x="529" unicode="&#273;" /><glyph d="M330 36Q314 18 284 4Q254 -10 219 -10Q170 -10 132.5 8.5Q95 27 69.5 59Q44 91 31 133.5Q18 176 18 225Q18 274 31 316.5Q44 359 69.5 391Q95 423 132.5 441.5Q170 460 219 460Q254 460 284 446Q314 432 330 414V650H487V0H330ZM330 284Q321 303 302.5 314.5Q284 326 261 326Q220 326 197.5 297.5Q175 269 175 225Q175 181 197.5 152.5Q220 124 261 124Q284 124 302.5 135.5Q321 147 330 166ZM332 746Q332 781 353.5 802Q375 823 410 823Q445 823 467 802Q489 781 489 746Q489 712 467 690.5Q445 669 410 669Q375 669 353.5 690.5Q332 712 332 746Z" glyph-name="ddotaccent" horiz-adv-x="529" unicode="&#7691;" /><glyph d="M125 483Q125 458 141.5 441Q158 424 181 424Q204 424 220.5 441Q237 458 237 483Q237 507 220.5 524Q204 541 181 541Q158 541 141.5 524Q125 507 125 483ZM320 483Q320 453 309 427.5Q298 402 279 383Q260 364 234.5 353Q209 342 181 342Q152 342 127 353Q102 364 83 383Q64 402 53 427.5Q42 453 42 483Q42 512 53 538Q64 564 83 583Q102 602 127 613Q152 624 181 624Q209 624 234.5 613Q260 602 279 583Q298 564 309 538Q320 512 320 483Z" glyph-name="degree" horiz-adv-x="362" unicode="&#176;" /><glyph d="M80 573Q80 607 101.5 628.5Q123 650 158 650Q193 650 215 628.5Q237 607 237 573Q237 539 215 517.5Q193 496 158 496Q123 496 101.5 517.5Q80 539 80 573ZM263 573Q263 607 284.5 628.5Q306 650 341 650Q376 650 397.5 628.5Q419 607 419 573Q419 539 397.5 517.5Q376 496 341 496Q306 496 284.5 517.5Q263 539 263 573Z" glyph-name="dieresis" horiz-adv-x="500" unicode="&#168;" /><glyph d="M80 734Q80 768 101.5 789.5Q123 811 158 811Q193 811 215 789.5Q237 768 237 734Q237 699 215 678Q193 657 158 657Q123 657 101.5 678Q80 699 80 734ZM263 734Q263 768 284.5 789.5Q306 811 341 811Q376 811 397.5 789.5Q419 768 419 734Q419 699 397.5 678Q376 657 341 657Q306 657 284.5 678Q263 699 263 734Z" glyph-name="dieresis.cap" horiz-adv-x="500" unicode="&#58409;" /><glyph d="M51 357H505V241H51ZM197 479Q197 512 221 535Q245 558 278 558Q312 558 335.5 535Q359 512 359 479Q359 446 335.5 423Q312 400 278 400Q245 400 221 423Q197 446 197 479ZM197 119Q197 152 221 175Q245 198 278 198Q312 198 335.5 175Q359 152 359 119Q359 86 335.5 63Q312 40 278 40Q245 40 221 63Q197 86 197 119Z" glyph-name="divide" horiz-adv-x="556" unicode="&#247;" /><glyph d="M33 357H486V241H33ZM179 479Q179 512 203 535Q227 558 260 558Q294 558 317.5 535Q341 512 341 479Q341 446 317.5 423Q294 400 260 400Q227 400 203 423Q179 446 179 479ZM179 119Q179 152 203 175Q227 198 260 198Q294 198 317.5 175Q341 152 341 119Q341 86 317.5 63Q294 40 260 40Q227 40 203 63Q179 86 179 119Z" glyph-name="divide.lt" horiz-adv-x="520" /><glyph d="M199 8Q127 19 80 58Q33 97 19 166L170 192Q175 156 202.5 141.5Q230 127 262 127Q295 127 316.5 141Q338 155 338 180Q338 203 323.5 214Q309 225 278 232L179 256Q148 263 121 275.5Q94 288 74 308Q54 328 42.5 356Q31 384 31 423Q31 497 77.5 544Q124 591 199 605V696H327V603Q390 589 431 551Q472 513 486 451L343 427Q335 454 315.5 470.5Q296 487 258 487Q224 487 204 473Q184 459 184 437Q184 417 196.5 406Q209 395 232 390L341 362Q415 344 453.5 301.5Q492 259 492 190Q492 115 446 68.5Q400 22 327 8V-86H199Z" glyph-name="dollar" horiz-adv-x="517" unicode="$" /><glyph d="M203 8Q131 20 84 58.5Q37 97 23 166L174 192Q180 156 207 141.5Q234 127 266 127Q300 127 321.5 141Q343 155 343 180Q343 203 328 214Q313 225 282 232L184 256Q153 263 126 275.5Q99 288 78.5 308Q58 328 46.5 356Q35 384 35 423Q35 497 81.5 544Q128 591 203 605V696H331V603Q394 590 435.5 552Q477 514 491 451L347 427Q340 454 320 470.5Q300 487 263 487Q228 487 208 473Q188 459 188 437Q188 417 200.5 406Q213 395 236 390L345 362Q419 344 458 301.5Q497 259 497 190Q497 115 450.5 68.5Q404 22 331 8V-86H203Z" glyph-name="dollar.lt" horiz-adv-x="520" /><glyph d="M172 573Q172 607 193.5 628.5Q215 650 250 650Q285 650 306.5 628.5Q328 607 328 573Q328 539 306.5 517.5Q285 496 250 496Q215 496 193.5 517.5Q172 539 172 573Z" glyph-name="dotaccent" horiz-adv-x="500" unicode="&#729;" /><glyph d="M172 734Q172 768 193.5 789.5Q215 811 250 811Q285 811 306.5 789.5Q328 768 328 734Q328 699 306.5 678Q285 657 250 657Q215 657 193.5 678Q172 699 172 734Z" glyph-name="dotaccent.cap" horiz-adv-x="500" unicode="&#58408;" /><glyph d="M172 -105Q172 -70 193.5 -49Q215 -28 250 -28Q285 -28 306.5 -49Q328 -70 328 -105Q328 -139 306.5 -160.5Q285 -182 250 -182Q215 -182 193.5 -160.5Q172 -139 172 -105Z" glyph-name="dotbelow" horiz-adv-x="500" unicode="&#58389;" /><glyph d="M199 0H42V450H199Z" glyph-name="dotlessi" horiz-adv-x="242" unicode="&#305;" /><glyph d="M199 11Q199 -75 156 -122Q113 -169 30 -169Q11 -169 -4.5 -167.5Q-20 -166 -31 -161L-25 -43Q-16 -46 -4 -46Q19 -46 30.5 -35.5Q42 -25 42 4V450H199Z" glyph-name="dotlessj" horiz-adv-x="242" unicode="&#567;" /><glyph d="M458 132Q441 64 385 27Q329 -10 248 -10Q196 -10 153.5 7Q111 24 81 55Q51 86 34.5 129Q18 172 18 225Q18 277 35 320.5Q52 364 82 395Q112 426 153.5 443Q195 460 244 460Q296 460 336 443.5Q376 427 403.5 397Q431 367 445.5 325.5Q460 284 460 234V195H169Q171 154 192.5 133Q214 112 248 112Q272 112 291.5 123Q311 134 317 157ZM244 338Q216 338 198 321Q180 304 173 273H308Q306 301 289.5 319.5Q273 338 244 338Z" glyph-name="e" horiz-adv-x="478" unicode="e" /><glyph d="M174 498 256 650H406L318 498ZM458 132Q441 64 385 27Q329 -10 248 -10Q196 -10 153.5 7Q111 24 81 55Q51 86 34.5 129Q18 172 18 225Q18 277 35 320.5Q52 364 82 395Q112 426 153.5 443Q195 460 244 460Q296 460 336 443.5Q376 427 403.5 397Q431 367 445.5 325.5Q460 284 460 234V195H169Q171 154 192.5 133Q214 112 248 112Q272 112 291.5 123Q311 134 317 157ZM244 338Q216 338 198 321Q180 304 173 273H308Q306 301 289.5 319.5Q273 338 244 338Z" glyph-name="eacute" horiz-adv-x="478" unicode="&#233;" /><glyph d="M458 132Q441 64 385 27Q329 -10 248 -10Q196 -10 153.5 7Q111 24 81 55Q51 86 34.5 129Q18 172 18 225Q18 277 35 320.5Q52 364 82 395Q112 426 153.5 443Q195 460 244 460Q296 460 336 443.5Q376 427 403.5 397Q431 367 445.5 325.5Q460 284 460 234V195H169Q171 154 192.5 133Q214 112 248 112Q272 112 291.5 123Q311 134 317 157ZM244 338Q216 338 198 321Q180 304 173 273H308Q306 301 289.5 319.5Q273 338 244 338ZM249 488Q186 488 144 526.5Q102 565 100 646H210Q211 594 249 594Q288 594 289 646H398Q396 565 354 526.5Q312 488 249 488Z" glyph-name="ebreve" horiz-adv-x="478" unicode="&#277;" /><glyph d="M315 551H257L163 597H212L198 624L246 650L354 621ZM458 132Q441 64 385 27Q329 -10 248 -10Q196 -10 153.5 7Q111 24 81 55Q51 86 34.5 129Q18 172 18 225Q18 277 35 320.5Q52 364 82 395Q112 426 153.5 443Q195 460 244 460Q296 460 336 443.5Q376 427 403.5 397Q431 367 445.5 325.5Q460 284 460 234V195H169Q171 154 192.5 133Q214 112 248 112Q272 112 291.5 123Q311 134 317 157ZM244 338Q216 338 198 321Q180 304 173 273H308Q306 301 289.5 319.5Q273 338 244 338Z" glyph-name="ecaron" horiz-adv-x="478" unicode="&#283;" /><glyph d="M405 498H290L249 553L207 498H93L187 650H310ZM458 132Q441 64 385 27Q329 -10 248 -10Q196 -10 153.5 7Q111 24 81 55Q51 86 34.5 129Q18 172 18 225Q18 277 35 320.5Q52 364 82 395Q112 426 153.5 443Q195 460 244 460Q296 460 336 443.5Q376 427 403.5 397Q431 367 445.5 325.5Q460 284 460 234V195H169Q171 154 192.5 133Q214 112 248 112Q272 112 291.5 123Q311 134 317 157ZM244 338Q216 338 198 321Q180 304 173 273H308Q306 301 289.5 319.5Q273 338 244 338Z" glyph-name="ecircumflex" horiz-adv-x="478" unicode="&#234;" /><glyph d="M80 573Q80 607 102 628.5Q124 650 159 650Q194 650 215.5 628.5Q237 607 237 573Q237 539 215.5 517.5Q194 496 159 496Q124 496 102 517.5Q80 539 80 573ZM263 573Q263 607 284.5 628.5Q306 650 341 650Q376 650 398 628.5Q420 607 420 573Q420 539 398 517.5Q376 496 341 496Q306 496 284.5 517.5Q263 539 263 573ZM458 132Q441 64 385 27Q329 -10 248 -10Q196 -10 153.5 7Q111 24 81 55Q51 86 34.5 129Q18 172 18 225Q18 277 35 320.5Q52 364 82 395Q112 426 153.5 443Q195 460 244 460Q296 460 336 443.5Q376 427 403.5 397Q431 367 445.5 325.5Q460 284 460 234V195H169Q171 154 192.5 133Q214 112 248 112Q272 112 291.5 123Q311 134 317 157ZM244 338Q216 338 198 321Q180 304 173 273H308Q306 301 289.5 319.5Q273 338 244 338Z" glyph-name="edieresis" horiz-adv-x="478" unicode="&#235;" /><glyph d="M458 132Q441 64 385 27Q329 -10 248 -10Q196 -10 153.5 7Q111 24 81 55Q51 86 34.5 129Q18 172 18 225Q18 277 35 320.5Q52 364 82 395Q112 426 153.5 443Q195 460 244 460Q296 460 336 443.5Q376 427 403.5 397Q431 367 445.5 325.5Q460 284 460 234V195H169Q171 154 192.5 133Q214 112 248 112Q272 112 291.5 123Q311 134 317 157ZM244 338Q216 338 198 321Q180 304 173 273H308Q306 301 289.5 319.5Q273 338 244 338ZM171 573Q171 607 192.5 628.5Q214 650 249 650Q284 650 305.5 628.5Q327 607 327 573Q327 539 305.5 517.5Q284 496 249 496Q214 496 192.5 517.5Q171 539 171 573Z" glyph-name="edotaccent" horiz-adv-x="478" unicode="&#279;" /><glyph d="M458 132Q441 64 385 27Q329 -10 248 -10Q196 -10 153.5 7Q111 24 81 55Q51 86 34.5 129Q18 172 18 225Q18 277 35 320.5Q52 364 82 395Q112 426 153.5 443Q195 460 244 460Q296 460 336 443.5Q376 427 403.5 397Q431 367 445.5 325.5Q460 284 460 234V195H169Q171 154 192.5 133Q214 112 248 112Q272 112 291.5 123Q311 134 317 157ZM244 338Q216 338 198 321Q180 304 173 273H308Q306 301 289.5 319.5Q273 338 244 338ZM175 498 88 650H237L320 498Z" glyph-name="egrave" horiz-adv-x="478" unicode="&#232;" /><glyph d="M254 114Q288 114 309.5 132.5Q331 151 331 182Q331 214 309.5 232Q288 250 254 250Q221 250 199 232Q177 214 177 182Q177 151 199 132.5Q221 114 254 114ZM254 378Q283 378 303 395Q323 412 323 440Q323 469 303 486.5Q283 504 254 504Q225 504 205.5 486.5Q186 469 186 440Q186 412 205.5 395Q225 378 254 378ZM254 -10Q206 -10 164 2Q122 14 90.5 37.5Q59 61 41 94.5Q23 128 23 170Q23 224 51.5 261Q80 298 122 312Q84 330 63 365Q42 400 42 445Q42 488 59.5 521.5Q77 555 106 578Q135 601 173.5 612.5Q212 624 254 624Q296 624 334.5 612.5Q373 601 402.5 578Q432 555 449 521.5Q466 488 466 445Q466 400 445 365Q424 330 387 312Q429 298 457.5 261Q486 224 486 170Q486 128 467.5 94.5Q449 61 417.5 37.5Q386 14 344 2Q302 -10 254 -10Z" glyph-name="eight" horiz-adv-x="508" unicode="8" /><glyph d="M155 -96Q171 -96 181 -87.5Q191 -79 191 -65Q191 -51 181 -42Q171 -33 155 -33Q139 -33 128.5 -42Q118 -51 118 -65Q118 -79 128.5 -87.5Q139 -96 155 -96ZM155 47Q170 47 179 55.5Q188 64 188 77Q188 90 179 98.5Q170 107 155 107Q140 107 131 98.5Q122 90 122 77Q122 64 131 55.5Q140 47 155 47ZM155 -176Q127 -176 102 -169Q77 -162 58.5 -149Q40 -136 29 -116.5Q18 -97 18 -73Q18 -44 32.5 -23.5Q47 -3 70 5Q50 16 39.5 36Q29 56 29 79Q29 104 39.5 124Q50 144 67.5 157Q85 170 107.5 177Q130 184 155 184Q180 184 202.5 177Q225 170 242 157Q259 144 269.5 124Q280 104 280 79Q280 56 270 36Q260 16 240 5Q263 -3 277.5 -23.5Q292 -44 292 -73Q292 -97 281.5 -116.5Q271 -136 252 -149Q233 -162 208 -169Q183 -176 155 -176Z" glyph-name="eight.inf" horiz-adv-x="311" unicode="&#58745;" /><glyph d="M261 114Q294 114 316.5 132.5Q339 151 339 182Q339 214 316.5 232Q294 250 261 250Q227 250 204.5 232Q182 214 182 182Q182 151 204.5 132.5Q227 114 261 114ZM261 378Q290 378 310.5 395Q331 412 331 440Q331 469 310.5 486.5Q290 504 261 504Q232 504 211.5 486.5Q191 469 191 440Q191 412 211.5 395Q232 378 261 378ZM261 -10Q213 -10 170.5 2Q128 14 96.5 37.5Q65 61 46.5 94.5Q28 128 28 170Q28 224 57 261Q86 298 128 312Q90 330 69 365Q48 400 48 445Q48 488 65.5 521.5Q83 555 112 578Q141 601 180 612.5Q219 624 261 624Q303 624 342 612.5Q381 601 410 578Q439 555 456.5 521.5Q474 488 474 445Q474 400 453 365Q432 330 394 312Q436 298 464.5 261Q493 224 493 170Q493 128 475 94.5Q457 61 425.5 37.5Q394 14 351.5 2Q309 -10 261 -10Z" glyph-name="eight.lt" horiz-adv-x="520" /><glyph d="M198 266H95V498L13 459V563L123 614H198ZM434 266H331V498L249 459V563L359 614H434ZM438 0H351L720 614H807ZM885 0H782V232L700 193V296L811 348H885ZM1090 354Q1145 354 1176 329.5Q1207 305 1215 261L1121 244Q1118 255 1110.5 261.5Q1103 268 1089 268Q1064 268 1053 252Q1042 236 1042 213V211Q1049 219 1064 225Q1079 231 1100 231Q1154 231 1185.5 199Q1217 167 1217 119Q1217 65 1180.5 29.5Q1144 -6 1084 -6Q1049 -6 1021.5 8.5Q994 23 977 49Q943 95 943 166Q943 207 952.5 241.5Q962 276 981 301Q1000 326 1027.5 340Q1055 354 1090 354ZM1045 115Q1045 98 1056 87.5Q1067 77 1085 77Q1102 77 1113 87.5Q1124 98 1124 115Q1124 133 1113 143.5Q1102 154 1085 154Q1067 154 1056 143.5Q1045 133 1045 115Z" glyph-name="elevensixteenths" horiz-adv-x="1238" unicode="&#61984;" /><glyph d="M198 266H95V498L13 459V563L123 614H198ZM434 266H331V498L249 459V563L359 614H434ZM438 0H351L720 614H807ZM805 211H828Q843 211 853.5 217.5Q864 224 864 241Q864 252 857 260Q850 268 836 268Q820 268 811.5 258Q803 248 802 235L706 251Q714 296 746 324.5Q778 353 834 353Q894 353 928.5 322.5Q963 292 963 244Q963 222 953 202.5Q943 183 929 174Q947 165 957 146.5Q967 128 967 105Q967 57 931.5 25.5Q896 -6 835 -6Q779 -6 744 21.5Q709 49 701 98L804 115Q806 101 813.5 91Q821 81 838 81Q851 81 859.5 89.5Q868 98 868 111Q868 126 857.5 132.5Q847 139 831 139H805ZM1163 235Q1163 246 1156 253Q1149 260 1137 260Q1124 260 1117.5 252.5Q1111 245 1109 234L1004 252Q1014 301 1046.5 327Q1079 353 1135 353Q1197 353 1232.5 322.5Q1268 292 1268 242Q1268 207 1248.5 182.5Q1229 158 1203 135L1155 90H1266V0H1003V67L1132 186Q1146 200 1154.5 210.5Q1163 221 1163 235Z" glyph-name="eleventhirtyseconds" horiz-adv-x="1289" /><glyph d="M33 84Q33 123 58.5 148Q84 173 122 173Q160 173 185.5 148Q211 123 211 84Q211 65 204 48.5Q197 32 185 20Q173 8 157 1Q141 -6 122 -6Q103 -6 87 1Q71 8 59 20Q47 32 40 48.5Q33 65 33 84ZM296 84Q296 123 321 148Q346 173 384 173Q422 173 447.5 148Q473 123 473 84Q473 46 447.5 20Q422 -6 384 -6Q346 -6 321 20Q296 46 296 84ZM558 84Q558 123 583.5 148Q609 173 647 173Q685 173 710.5 148Q736 123 736 84Q736 65 729 48.5Q722 32 710 20Q698 8 682 1Q666 -6 647 -6Q628 -6 612 1Q596 8 584 20Q572 32 565 48.5Q558 65 558 84Z" glyph-name="ellipsis" horiz-adv-x="769" unicode="&#8230;" /><glyph d="M123 617H376V507H123ZM458 132Q441 64 385 27Q329 -10 248 -10Q196 -10 153.5 7Q111 24 81 55Q51 86 34.5 129Q18 172 18 225Q18 277 35 320.5Q52 364 82 395Q112 426 153.5 443Q195 460 244 460Q296 460 336 443.5Q376 427 403.5 397Q431 367 445.5 325.5Q460 284 460 234V195H169Q171 154 192.5 133Q214 112 248 112Q272 112 291.5 123Q311 134 317 157ZM244 338Q216 338 198 321Q180 304 173 273H308Q306 301 289.5 319.5Q273 338 244 338Z" glyph-name="emacron" horiz-adv-x="478" unicode="&#275;" /><glyph d="M36 315H802V208H36Z" glyph-name="emdash" horiz-adv-x="837" unicode="&#8212;" /><glyph d="M36 348H802V242H36Z" glyph-name="emdash.cap" horiz-adv-x="837" unicode="&#58502;" /><glyph d="M36 315H431V208H36Z" glyph-name="endash" horiz-adv-x="466" unicode="&#8211;" /><glyph d="M36 348H431V242H36Z" glyph-name="endash.cap" horiz-adv-x="466" unicode="&#58500;" /><glyph d="M480 6Q480 -79 436.5 -129.5Q393 -180 310 -180Q292 -180 274.5 -177.5Q257 -175 242 -168L264 -46Q266 -47 270 -47.5Q274 -48 276 -48Q299 -48 311 -37Q323 -26 323 2V257Q323 285 308.5 303Q294 321 264 321Q241 321 223 308.5Q205 296 199 273V0H42V450H199V413Q218 434 250 447Q282 460 320 460Q395 460 437.5 415Q480 370 480 295Z" glyph-name="eng" horiz-adv-x="519" unicode="&#331;" /><glyph d="M458 132Q445 81 410.5 47.5Q376 14 325 0Q296 -19 285 -34Q274 -49 274 -63Q274 -89 303 -89Q315 -89 324.5 -86Q334 -83 338 -80L355 -157Q347 -164 327 -172Q307 -180 275 -180Q229 -180 200.5 -159.5Q172 -139 172 -100Q172 -75 183 -51.5Q194 -28 216 -8Q171 -3 134.5 16Q98 35 72 65Q46 95 32 136Q18 177 18 225Q18 277 35 320.5Q52 364 82 395Q112 426 153.5 443Q195 460 244 460Q296 460 336 443.5Q376 427 403.5 397Q431 367 445.5 325.5Q460 284 460 234V195H169Q171 154 192.5 133Q214 112 248 112Q272 112 291.5 123Q311 134 317 157ZM244 338Q216 338 198 321Q180 304 173 273H308Q306 301 289.5 319.5Q273 338 244 338Z" glyph-name="eogonek" horiz-adv-x="478" unicode="&#281;" /><glyph d="M60 261H513V158H60ZM60 445H513V340H60Z" glyph-name="equal" horiz-adv-x="574" unicode="=" /><glyph d="M40 -15H304V-93H40ZM40 94H304V17H40Z" glyph-name="equal.inf" horiz-adv-x="344" unicode="&#58749;" /><glyph d="M33 261H486V158H33ZM33 445H486V340H33Z" glyph-name="equal.lt" horiz-adv-x="520" /><glyph d="M108 542 169 561Q143 582 115.5 603.5Q88 625 59 646V650H251Q266 639 279.5 627.5Q293 616 307 604L386 629L411 563L361 547Q478 410 478 242Q478 183 461.5 136.5Q445 90 414.5 57.5Q384 25 341.5 7.5Q299 -10 248 -10Q197 -10 154.5 7Q112 24 82 55Q52 86 35 129Q18 172 18 224Q18 276 35 318.5Q52 361 81.5 391Q111 421 151.5 437.5Q192 454 239 454Q253 454 265 450Q277 446 285 440H287Q270 467 230 506L133 476ZM324 223Q324 270 304.5 298.5Q285 327 248 327Q212 327 192.5 298.5Q173 270 173 223Q173 177 192.5 148.5Q212 120 248 120Q285 120 304.5 148.5Q324 177 324 223Z" glyph-name="eth" horiz-adv-x="497" unicode="&#240;" /><glyph d="M25 614H214L178 206H61ZM207 81Q207 43 182.5 18.5Q158 -6 120 -6Q82 -6 57.5 18.5Q33 43 33 81Q33 119 57.5 143.5Q82 168 120 168Q158 168 182.5 143.5Q207 119 207 81Z" glyph-name="exclam" horiz-adv-x="239" unicode="!" /><glyph d="M61 312H178L214 -96H25ZM207 437Q207 399 182.5 374.5Q158 350 120 350Q82 350 57.5 374.5Q33 399 33 437Q33 475 57.5 499.5Q82 524 120 524Q158 524 182.5 499.5Q207 475 207 437Z" glyph-name="exclamdown" horiz-adv-x="243" unicode="&#161;" /><glyph d="M61 408H178L214 0H25ZM207 533Q207 495 182.5 470.5Q158 446 120 446Q82 446 57.5 470.5Q33 495 33 533Q33 571 57.5 595.5Q82 620 120 620Q158 620 182.5 595.5Q207 571 207 533Z" glyph-name="exclamdown.cap" horiz-adv-x="239" unicode="&#58433;" /><glyph d="M319 519Q308 528 287 528Q267 528 251 515.5Q235 503 235 474V450H322V327H235V0H80V327H13V450H80V483Q80 564 124 611.5Q168 659 252 659Q282 659 305.5 653Q329 647 341 639Z" glyph-name="f" horiz-adv-x="339" unicode="f" /><glyph d="M620 519Q609 528 588 528Q568 528 552.5 515.5Q537 503 537 474V450H623V327H537V0H381V327H235V0H80V327H13V450H80V483Q80 564 124 611.5Q168 659 252 659Q282 659 305.5 653Q329 647 341 639L319 519Q308 528 287 528Q267 528 251 515.5Q235 503 235 474V450H381V483Q381 564 425 611.5Q469 659 553 659Q583 659 606.5 653Q630 647 642 639Z" glyph-name="f_f" horiz-adv-x="640" unicode="&#64256;" /><glyph d="M319 519Q308 528 287 528Q267 528 251 515.5Q235 503 235 474V450H322V327H235V0H80V327H13V450H80V483Q80 564 124 611.5Q168 659 252 659Q282 659 305.5 653Q329 647 341 639ZM117 746Q117 781 138.5 802Q160 823 195 823Q230 823 251.5 802Q273 781 273 746Q273 712 251.5 690.5Q230 669 195 669Q160 669 138.5 690.5Q117 712 117 746Z" glyph-name="fdotaccent" horiz-adv-x="339" unicode="&#7711;" /><glyph d="M319 519Q308 528 287 528Q267 528 251 515.5Q235 503 235 474V450H322V327H235V0H80V327H13V450H80V483Q80 564 124 611.5Q168 659 252 659Q282 659 305.5 653Q329 647 341 639ZM538 0H381V450H538ZM545 572Q545 534 521.5 511Q498 488 460 488Q422 488 398.5 511Q375 534 375 572Q375 610 398.5 633Q422 656 460 656Q498 656 521.5 633Q545 610 545 572Z" glyph-name="fi" horiz-adv-x="581" unicode="&#64257;" /><glyph d="M198 266H95V498L13 459V563L123 614H198ZM391 417Q370 417 359 404H271V614H496V529H355V485Q363 490 377.5 493Q392 496 405 496Q461 496 492.5 464.5Q524 433 524 382Q524 327 488.5 294Q453 261 393 261Q330 261 296 287.5Q262 314 255 362L356 380Q358 363 368 355Q378 347 392 347Q407 347 416 356.5Q425 366 425 382Q425 396 416.5 406.5Q408 417 391 417ZM508 0H421L790 614H877ZM955 0H852V232L770 193V296L881 348H955ZM1160 354Q1215 354 1246 329.5Q1277 305 1285 261L1191 244Q1188 255 1180.5 261.5Q1173 268 1159 268Q1134 268 1123 252Q1112 236 1112 213V211Q1119 219 1134 225Q1149 231 1170 231Q1224 231 1255.5 199Q1287 167 1287 119Q1287 65 1250.5 29.5Q1214 -6 1154 -6Q1119 -6 1091.5 8.5Q1064 23 1047 49Q1013 95 1013 166Q1013 207 1022.5 241.5Q1032 276 1051 301Q1070 326 1097.5 340Q1125 354 1160 354ZM1115 115Q1115 98 1126 87.5Q1137 77 1155 77Q1172 77 1183 87.5Q1194 98 1194 115Q1194 133 1183 143.5Q1172 154 1155 154Q1137 154 1126 143.5Q1115 133 1115 115Z" glyph-name="fifteensixteenths" horiz-adv-x="1308" unicode="&#61986;" /><glyph d="M198 266H95V498L13 459V563L123 614H198ZM391 417Q370 417 359 404H271V614H496V529H355V485Q363 490 377.5 493Q392 496 405 496Q461 496 492.5 464.5Q524 433 524 382Q524 327 488.5 294Q453 261 393 261Q330 261 296 287.5Q262 314 255 362L356 380Q358 363 368 355Q378 347 392 347Q407 347 416 356.5Q425 366 425 382Q425 396 416.5 406.5Q408 417 391 417ZM508 0H421L790 614H877ZM875 211H898Q913 211 923.5 217.5Q934 224 934 241Q934 252 927 260Q920 268 906 268Q890 268 881.5 258Q873 248 872 235L776 251Q784 296 816 324.5Q848 353 904 353Q964 353 998.5 322.5Q1033 292 1033 244Q1033 222 1023 202.5Q1013 183 999 174Q1017 165 1027 146.5Q1037 128 1037 105Q1037 57 1001.5 25.5Q966 -6 905 -6Q849 -6 814 21.5Q779 49 771 98L874 115Q876 101 883.5 91Q891 81 908 81Q921 81 929.5 89.5Q938 98 938 111Q938 126 927.5 132.5Q917 139 901 139H875ZM1233 235Q1233 246 1226 253Q1219 260 1207 260Q1194 260 1187.5 252.5Q1181 245 1179 234L1074 252Q1084 301 1116.5 327Q1149 353 1205 353Q1267 353 1302.5 322.5Q1338 292 1338 242Q1338 207 1318.5 182.5Q1299 158 1273 135L1225 90H1336V0H1073V67L1202 186Q1216 200 1224.5 210.5Q1233 221 1233 235Z" glyph-name="fifteenthirtyseconds" horiz-adv-x="1359" /><glyph d="M252 279Q229 279 212 270Q195 261 182 247H52V614H430V477H181V385Q195 393 220 400Q245 407 274 407Q320 407 357.5 392Q395 377 421 350Q447 323 461 285Q475 247 475 202Q475 154 459 115Q443 76 413.5 48.5Q384 21 343 5.5Q302 -10 252 -10Q148 -10 90 38.5Q32 87 21 172L175 199Q178 166 198.5 145.5Q219 125 254 125Q288 125 307 146Q326 167 326 202Q326 234 306.5 256.5Q287 279 252 279Z" glyph-name="five" horiz-adv-x="497" unicode="5" /><glyph d="M155 -19Q135 -19 123 -33H35V178H261V92H120V49Q128 54 142 57Q156 60 170 60Q225 60 256.5 28.5Q288 -3 288 -54Q288 -109 252.5 -142.5Q217 -176 157 -176Q95 -176 61 -149.5Q27 -123 19 -74L120 -56Q122 -73 132 -81Q142 -89 156 -89Q172 -89 181 -79.5Q190 -70 190 -54Q190 -40 181 -29.5Q172 -19 155 -19Z" glyph-name="five.inf" horiz-adv-x="306" unicode="&#58742;" /><glyph d="M266 278Q243 278 223.5 269Q204 260 193 247H59V614H444V477H190V385Q204 393 229.5 400Q255 407 281 407Q330 407 368.5 392Q407 377 434 350Q461 323 475 285Q489 247 489 202Q489 154 473 115Q457 76 428 48Q399 20 357.5 5Q316 -10 265 -10Q166 -10 104.5 38.5Q43 87 32 170L186 197Q191 166 212 146Q233 126 268 126Q300 126 320 147Q340 168 340 202Q340 234 320.5 256Q301 278 266 278Z" glyph-name="five.lt" horiz-adv-x="520" /><glyph d="M155 417Q134 417 123 404H35V614H261V529H120V485Q128 490 142 493Q156 496 170 496Q225 496 256.5 464.5Q288 433 288 382Q288 327 252.5 294Q217 261 157 261Q95 261 61 287.5Q27 314 19 362L120 380Q122 363 132 355Q142 347 156 347Q172 347 181 356.5Q190 366 190 382Q190 396 181 406.5Q172 417 155 417ZM273 0H186L555 614H642ZM720 0H617V232L535 193V296L645 348H720ZM924 354Q979 354 1010 329.5Q1041 305 1049 261L955 244Q952 255 945 261.5Q938 268 923 268Q898 268 887 252Q876 236 876 213V211Q884 219 899 225Q914 231 935 231Q989 231 1020.5 199Q1052 167 1052 119Q1052 65 1015.5 29.5Q979 -6 918 -6Q883 -6 856 8.5Q829 23 811 49Q777 95 777 166Q777 207 786.5 241.5Q796 276 815 301Q834 326 861.5 340Q889 354 924 354ZM879 115Q879 98 890.5 87.5Q902 77 919 77Q936 77 947 87.5Q958 98 958 115Q958 133 947 143.5Q936 154 919 154Q902 154 890.5 143.5Q879 133 879 115Z" glyph-name="fivesixteenths" horiz-adv-x="1073" unicode="&#61975;" /><glyph d="M155 417Q134 417 123 404H35V614H261V529H120V485Q128 490 142 493Q156 496 170 496Q225 496 256.5 464.5Q288 433 288 382Q288 327 252.5 294Q217 261 157 261Q95 261 61 287.5Q27 314 19 362L120 380Q122 363 132 355Q142 347 156 347Q172 347 181 356.5Q190 366 190 382Q190 396 181 406.5Q172 417 155 417ZM273 0H186L555 614H642ZM640 211H662Q677 211 688 217.5Q699 224 699 241Q699 252 692 260Q685 268 670 268Q654 268 646 258Q638 248 636 235L540 251Q548 296 580 324.5Q612 353 669 353Q729 353 763 322.5Q797 292 797 244Q797 222 787 202.5Q777 183 763 174Q781 165 791 146.5Q801 128 801 105Q801 57 765.5 25.5Q730 -6 669 -6Q613 -6 578 21.5Q543 49 536 98L639 115Q640 101 648 91Q656 81 672 81Q686 81 694 89.5Q702 98 702 111Q702 126 692 132.5Q682 139 666 139H640ZM997 235Q997 246 990.5 253Q984 260 971 260Q958 260 951.5 252.5Q945 245 944 234L838 252Q848 301 881 327Q914 353 970 353Q1031 353 1066.5 322.5Q1102 292 1102 242Q1102 207 1083 182.5Q1064 158 1038 135L989 90H1101V0H837V67L966 186Q980 200 988.5 210.5Q997 221 997 235Z" glyph-name="fivethirtyseconds" horiz-adv-x="1123" /><glyph d="M319 519Q308 528 287 528Q267 528 251 515.5Q235 503 235 474V450H322V327H235V0H80V327H13V450H80V483Q80 564 124 611.5Q168 659 252 659Q282 659 305.5 653Q329 647 341 639ZM538 0H381V650H538Z" glyph-name="fl" horiz-adv-x="581" unicode="&#64258;" /><glyph d="M47 356H127L143 449Q173 624 331 624Q353 624 371.5 620.5Q390 617 404 612V484Q386 493 362 493Q311 493 302 440L287 356H365V234H266L227 13Q220 -28 207 -60.5Q194 -93 173 -116Q152 -139 121.5 -151Q91 -163 48 -163Q25 -163 5.5 -159.5Q-14 -156 -28 -151V-37Q-19 -42 -8 -44Q3 -46 14 -46Q39 -46 50 -32.5Q61 -19 66 8L105 234H47Z" glyph-name="florin" horiz-adv-x="420" unicode="&#402;" /><glyph d="M118 356H198L215 449Q245 624 403 624Q424 624 442.5 620.5Q461 617 475 612V484Q457 493 433 493Q382 493 373 440L358 356H436V234H337L298 13Q291 -28 278.5 -60.5Q266 -93 245 -116Q224 -139 193.5 -151Q163 -163 120 -163Q97 -163 77.5 -159.5Q58 -156 44 -151V-37Q53 -42 64 -44Q75 -46 86 -46Q110 -46 121 -32.5Q132 -19 137 8L177 234H118Z" glyph-name="florin.lt" horiz-adv-x="520" /><glyph d="M188 244H285V348H423V244H507V114H423V0H285V114H18V232L204 614H357Z" glyph-name="four" horiz-adv-x="524" unicode="4" /><glyph d="M125 -27H169V24H260V-27H303V-113H260V-170H169V-113H14V-33L117 178H218Z" glyph-name="four.inf" horiz-adv-x="318" unicode="&#58741;" /><glyph d="M183 244H280V348H421V244H501V114H421V0H283V114H16V232L202 614H352Z" glyph-name="four.lt" horiz-adv-x="520" /><glyph d="M-33 0H-120L249 614H336Z" glyph-name="fraction" horiz-adv-x="216" unicode="&#8260;" /><glyph d="M323 64Q309 47 282 33Q255 19 217 19Q170 19 133 36Q96 53 70.5 83Q45 113 31.5 153Q18 193 18 240Q18 286 31.5 326Q45 366 70.5 396Q96 426 133 443Q170 460 217 460Q255 460 282 446.5Q309 433 323 416V450H479V51Q479 -62 416 -121Q353 -180 244 -180Q148 -180 92.5 -142Q37 -104 23 -35L168 -10Q173 -36 193 -47.5Q213 -59 244 -59Q279 -59 301 -39Q323 -19 323 19ZM323 297Q315 313 297 324.5Q279 336 256 336Q217 336 195.5 309Q174 282 174 240Q174 198 195.5 171Q217 144 256 144Q279 144 297 155.5Q315 167 323 182Z" glyph-name="g" horiz-adv-x="522" unicode="g" /><glyph d="M323 64Q309 47 282 33Q255 19 217 19Q170 19 133 36Q96 53 70.5 83Q45 113 31.5 153Q18 193 18 240Q18 286 31.5 326Q45 366 70.5 396Q96 426 133 443Q170 460 217 460Q255 460 282 446.5Q309 433 323 416V450H479V51Q479 -62 416 -121Q353 -180 244 -180Q148 -180 92.5 -142Q37 -104 23 -35L168 -10Q173 -36 193 -47.5Q213 -59 244 -59Q279 -59 301 -39Q323 -19 323 19ZM323 297Q315 313 297 324.5Q279 336 256 336Q217 336 195.5 309Q174 282 174 240Q174 198 195.5 171Q217 144 256 144Q279 144 297 155.5Q315 167 323 182ZM271 488Q208 488 166 526.5Q124 565 123 646H233Q233 594 271 594Q310 594 311 646H420Q418 565 376 526.5Q334 488 271 488Z" glyph-name="gbreve" horiz-adv-x="522" unicode="&#287;" /><glyph d="M427 498H313L271 553L230 498H116L210 650H333ZM323 64Q309 47 282 33Q255 19 217 19Q170 19 133 36Q96 53 70.5 83Q45 113 31.5 153Q18 193 18 240Q18 286 31.5 326Q45 366 70.5 396Q96 426 133 443Q170 460 217 460Q255 460 282 446.5Q309 433 323 416V450H479V51Q479 -62 416 -121Q353 -180 244 -180Q148 -180 92.5 -142Q37 -104 23 -35L168 -10Q173 -36 193 -47.5Q213 -59 244 -59Q279 -59 301 -39Q323 -19 323 19ZM323 297Q315 313 297 324.5Q279 336 256 336Q217 336 195.5 309Q174 282 174 240Q174 198 195.5 171Q217 144 256 144Q279 144 297 155.5Q315 167 323 182Z" glyph-name="gcircumflex" horiz-adv-x="521" unicode="&#285;" /><glyph d="M323 64Q309 47 282 33Q255 19 217 19Q170 19 133 36Q96 53 70.5 83Q45 113 31.5 153Q18 193 18 240Q18 286 31.5 326Q45 366 70.5 396Q96 426 133 443Q170 460 217 460Q255 460 282 446.5Q309 433 323 416V450H479V51Q479 -62 416 -121Q353 -180 244 -180Q148 -180 92.5 -142Q37 -104 23 -35L168 -10Q173 -36 193 -47.5Q213 -59 244 -59Q279 -59 301 -39Q323 -19 323 19ZM323 297Q315 313 297 324.5Q279 336 256 336Q217 336 195.5 309Q174 282 174 240Q174 198 195.5 171Q217 144 256 144Q279 144 297 155.5Q315 167 323 182ZM325 639Q284 631 268 605H272Q298 603 315 586Q332 569 332 542Q332 515 314 497.5Q296 480 268 480Q232 480 213.5 502.5Q195 525 195 565Q195 610 225.5 644.5Q256 679 313 690Z" glyph-name="gcommaaccent" horiz-adv-x="521" unicode="&#291;" /><glyph d="M193 573Q193 607 214.5 628.5Q236 650 271 650Q306 650 328 628.5Q350 607 350 573Q350 539 328 517.5Q306 496 271 496Q236 496 214.5 517.5Q193 539 193 573ZM323 64Q309 47 282 33Q255 19 217 19Q170 19 133 36Q96 53 70.5 83Q45 113 31.5 153Q18 193 18 240Q18 286 31.5 326Q45 366 70.5 396Q96 426 133 443Q170 460 217 460Q255 460 282 446.5Q309 433 323 416V450H479V51Q479 -62 416 -121Q353 -180 244 -180Q148 -180 92.5 -142Q37 -104 23 -35L168 -10Q173 -36 193 -47.5Q213 -59 244 -59Q279 -59 301 -39Q323 -19 323 19ZM323 297Q315 313 297 324.5Q279 336 256 336Q217 336 195.5 309Q174 282 174 240Q174 198 195.5 171Q217 144 256 144Q279 144 297 155.5Q315 167 323 182Z" glyph-name="gdotaccent" horiz-adv-x="521" unicode="&#289;" /><glyph d="M414 355Q461 338 492.5 295Q524 252 524 188Q524 141 509.5 104.5Q495 68 469.5 43Q444 18 409 4.5Q374 -9 333 -9Q298 -9 272 -2.5Q246 4 232 13L253 133Q258 130 272 126.5Q286 123 301 123Q335 123 355 143Q375 163 375 201Q375 240 349.5 260Q324 280 280 280H251V402H268Q297 402 314.5 417.5Q332 433 332 465Q332 492 315.5 509Q299 526 268 526Q233 526 215.5 502Q198 478 198 442V0H42V432Q42 484 57.5 526.5Q73 569 102.5 598Q132 627 173.5 643Q215 659 267 659Q319 659 358.5 645.5Q398 632 425 609Q452 586 465.5 553.5Q479 521 479 484Q479 436 459.5 402.5Q440 369 414 355Z" glyph-name="germandbls" horiz-adv-x="543" unicode="&#223;" /><glyph d="M205 498 118 650H267L349 498Z" glyph-name="grave" horiz-adv-x="500" unicode="`" /><glyph d="M217 666 128 796H289L371 666Z" glyph-name="grave.cap" horiz-adv-x="500" unicode="&#58401;" /><glyph d="M392 225 47 72V202L283 297L47 393V522L392 369Z" glyph-name="greater" horiz-adv-x="433" unicode="&gt;" /><glyph d="M433 225 87 72V202L323 297L87 393V522L433 369Z" glyph-name="greater.lt" horiz-adv-x="520" /><glyph d="M394 298 48 177V299L281 368L48 436V559L394 437ZM394 42H48V154H394Z" glyph-name="greaterequal" horiz-adv-x="442" unicode="&#8805;" /><glyph d="M433 298 87 177V299L320 368L87 436V559L433 437ZM433 42H87V154H433Z" glyph-name="greaterequal.lt" horiz-adv-x="520" /><glyph d="M117 58 25 222 117 386H245L153 222L245 58ZM298 58 206 222 298 386H426L334 222L426 58Z" glyph-name="guillemotleft" horiz-adv-x="451" unicode="&#171;" /><glyph d="M117 138 25 302 117 466H245L153 302L245 138ZM298 138 206 302 298 466H426L334 302L426 138Z" glyph-name="guillemotleft.cap" horiz-adv-x="451" unicode="&#58451;" /><glyph d="M206 58 298 222 206 386H334L426 222L334 58ZM25 58 117 222 25 386H153L245 222L153 58Z" glyph-name="guillemotright" horiz-adv-x="451" unicode="&#187;" /><glyph d="M206 138 298 302 206 466H334L426 302L334 138ZM25 138 117 302 25 466H153L245 302L153 138Z" glyph-name="guillemotright.cap" horiz-adv-x="451" unicode="&#58452;" /><glyph d="M117 58 25 222 117 386H253L161 222L253 58Z" glyph-name="guilsinglleft" horiz-adv-x="278" unicode="&#8249;" /><glyph d="M117 138 25 302 117 466H253L161 302L253 138Z" glyph-name="guilsinglleft.cap" horiz-adv-x="278" unicode="&#58449;" /><glyph d="M25 58 117 222 25 386H161L253 222L161 58Z" glyph-name="guilsinglright" horiz-adv-x="278" unicode="&#8250;" /><glyph d="M25 138 117 302 25 466H161L253 302L161 138Z" glyph-name="guilsinglright.cap" horiz-adv-x="278" unicode="&#58450;" /><glyph d="M42 650H199V413Q218 434 250 447Q282 460 320 460Q395 460 437.5 415Q480 370 480 295V0H323V257Q323 285 308.5 303Q294 321 264 321Q241 321 223 308.5Q205 296 199 273V0H42Z" glyph-name="h" horiz-adv-x="519" unicode="h" /><glyph d="M-5 592H42V650H199V592H281V490H199V413Q218 434 250 447Q282 460 320 460Q395 460 437.5 415Q480 370 480 295V0H323V257Q323 285 308.5 303Q294 321 264 321Q241 321 223 308.5Q205 296 199 273V0H42V490H-5Z" glyph-name="hbar" horiz-adv-x="519" unicode="&#295;" /><glyph d="M42 650H199V413Q218 434 250 447Q282 460 320 460Q395 460 437.5 415Q480 370 480 295V0H323V257Q323 285 308.5 303Q294 321 264 321Q241 321 223 308.5Q205 296 199 273V0H42ZM425 680H298L257 725L215 680H88L197 812H317Z" glyph-name="hcircumflex" horiz-adv-x="519" unicode="&#293;" /><glyph d="M80 498 159 650H289L206 498ZM240 498 318 650H448L365 498Z" glyph-name="hungarumlaut" horiz-adv-x="500" unicode="&#733;" /><glyph d="M64 666 139 796H269L193 666ZM230 666 306 796H436L359 666Z" glyph-name="hungarumlaut.cap" horiz-adv-x="500" unicode="&#58411;" /><glyph d="M36 328H277V196H36Z" glyph-name="hyphen" horiz-adv-x="312" unicode="-" /><glyph d="M36 361H277V230H36Z" glyph-name="hyphen.cap" horiz-adv-x="312" unicode="&#58498;" /><glyph d="M199 0H42V450H199ZM206 572Q206 534 182.5 511Q159 488 121 488Q83 488 59.5 511Q36 534 36 572Q36 610 59.5 633Q83 656 121 656Q159 656 182.5 633Q206 610 206 572Z" glyph-name="i" horiz-adv-x="242" unicode="i" /><glyph d="M48 498 130 650H279L192 498ZM199 0H42V450H199Z" glyph-name="iacute" horiz-adv-x="242" unicode="&#237;" /><glyph d="M120 488Q64 488 28.5 525.5Q-7 563 -7 638H91Q91 591 121 591Q138 591 144 603Q150 615 150 638H249Q249 563 213 525.5Q177 488 120 488ZM199 0H42V450H199Z" glyph-name="ibreve" horiz-adv-x="242" unicode="&#301;" /><glyph d="M260 498H148L121 558L94 498H-18L61 649H181ZM199 0H42V450H199Z" glyph-name="icircumflex" horiz-adv-x="242" unicode="&#238;" /><glyph d="M199 0H42V450H199ZM-49 573Q-49 607 -27 628.5Q-5 650 30 650Q65 650 86.5 628.5Q108 607 108 573Q108 539 86.5 517.5Q65 496 30 496Q-5 496 -27 517.5Q-49 539 -49 573ZM134 573Q134 607 155.5 628.5Q177 650 212 650Q247 650 269 628.5Q291 607 291 573Q291 539 269 517.5Q247 496 212 496Q177 496 155.5 517.5Q134 539 134 573Z" glyph-name="idieresis" horiz-adv-x="242" unicode="&#239;" /><glyph d="M199 0H42V450H199ZM43 573Q43 607 64.5 628.5Q86 650 121 650Q156 650 177.5 628.5Q199 607 199 573Q199 539 177.5 517.5Q156 496 121 496Q86 496 64.5 517.5Q43 539 43 573Z" glyph-name="idotaccent" horiz-adv-x="242" unicode="&#59269;" /><glyph d="M199 0H42V450H199ZM36 498 -51 650H98L180 498Z" glyph-name="igrave" horiz-adv-x="242" unicode="&#236;" /><glyph d="M206 572Q206 534 182.5 511Q159 488 121 488Q83 488 59.5 511Q36 534 36 572Q36 610 59.5 633Q83 656 121 656Q159 656 182.5 633Q206 610 206 572ZM199 0H42V450H199ZM396 6Q396 -79 353 -129.5Q310 -180 226 -180Q208 -180 190.5 -177.5Q173 -175 158 -168L180 -46Q186 -48 193 -48Q216 -48 227.5 -37Q239 -26 239 2V450H396ZM403 572Q403 534 379.5 511Q356 488 318 488Q279 488 255.5 511Q232 534 232 572Q232 610 255.5 633Q279 656 318 656Q356 656 379.5 633Q403 610 403 572Z" glyph-name="ij" horiz-adv-x="438" unicode="&#307;" /><glyph d="M199 0H42V450H199ZM10 617H232V507H10Z" glyph-name="imacron" horiz-adv-x="242" unicode="&#299;" /><glyph d="M206 572Q206 534 182.5 511Q159 488 121 488Q83 488 59.5 511Q36 534 36 572Q36 610 59.5 633Q83 656 121 656Q159 656 182.5 633Q206 610 206 572ZM199 0Q170 -19 159.5 -34Q149 -49 149 -63Q149 -89 178 -89Q189 -89 198.5 -86Q208 -83 212 -80L229 -157Q221 -164 201.5 -172Q182 -180 150 -180Q103 -180 75 -159.5Q47 -139 47 -100Q47 -73 60.5 -46.5Q74 -20 100 0H42V450H199Z" glyph-name="iogonek" horiz-adv-x="242" unicode="&#303;" /><glyph d="M250 647Q250 617 246 589.5Q242 562 233 541.5Q224 521 209.5 509Q195 497 173 497Q158 497 147.5 502.5Q137 508 128 514.5Q119 521 111 526.5Q103 532 93 532Q73 532 71 500H-9Q-9 530 -5 557.5Q-1 585 8 605.5Q17 626 31.5 638Q46 650 68 650Q83 650 93.5 644.5Q104 639 113 632.5Q122 626 130 620.5Q138 615 148 615Q168 615 170 647ZM199 0H42V450H199Z" glyph-name="itilde" horiz-adv-x="242" unicode="&#297;" /><glyph d="M199 6Q199 -79 156 -129.5Q113 -180 30 -180Q12 -180 -6 -177.5Q-24 -175 -38 -168L-16 -46Q-14 -47 -10 -47.5Q-6 -48 -4 -48Q19 -48 30.5 -37Q42 -26 42 2V450H199ZM206 572Q206 534 182.5 511Q159 488 121 488Q83 488 59.5 511Q36 534 36 572Q36 610 59.5 633Q83 656 121 656Q159 656 182.5 633Q206 610 206 572Z" glyph-name="j" horiz-adv-x="242" unicode="j" /><glyph d="M260 498H148L121 558L94 498H-18L61 649H181ZM199 11Q199 -75 156 -122Q113 -169 30 -169Q11 -169 -4.5 -167.5Q-20 -166 -31 -161L-25 -43Q-16 -46 -4 -46Q19 -46 30.5 -35.5Q42 -25 42 4V450H199Z" glyph-name="jcircumflex" horiz-adv-x="242" unicode="&#309;" /><glyph d="M229 167 199 132V0H42V650H199V306L325 450H514L343 263L519 0H339Z" glyph-name="k" horiz-adv-x="523" unicode="k" /><glyph d="M229 167 199 132V0H42V650H199V306L325 450H514L343 263L519 0H339ZM205 -154Q224 -150 236 -144.5Q248 -139 255 -129H250Q225 -129 209 -116Q193 -103 193 -77Q193 -51 211.5 -37.5Q230 -24 254 -24Q291 -24 306.5 -45.5Q322 -67 322 -95Q322 -134 294.5 -161Q267 -188 215 -196Z" glyph-name="kcommaaccent" horiz-adv-x="523" unicode="&#311;" /><glyph d="M229 167 199 132V0H42V450H199V306L325 450H514L343 263L519 0H339Z" glyph-name="kgreenlandic" horiz-adv-x="523" unicode="&#312;" /><glyph d="M199 0H42V650H199Z" glyph-name="l" horiz-adv-x="242" unicode="l" /><glyph d="M42 685 124 814H285L196 685ZM199 0H42V650H199Z" glyph-name="lacute" horiz-adv-x="242" unicode="&#314;" /><glyph d="M230 483 263 650H360L325 483ZM199 0H42V650H199Z" glyph-name="lcaron" horiz-adv-x="242" unicode="&#318;" /><glyph d="M199 0H42V650H199ZM71 -154Q89 -150 101 -144.5Q113 -139 121 -129H115Q90 -129 74 -116Q58 -103 58 -77Q58 -51 76.5 -37.5Q95 -24 120 -24Q156 -24 171.5 -45.5Q187 -67 187 -95Q187 -134 160 -161Q133 -188 80 -196Z" glyph-name="lcommaaccent" horiz-adv-x="242" unicode="&#316;" /><glyph d="M199 0H42V650H199ZM255 326Q255 360 276.5 381.5Q298 403 333 403Q368 403 389.5 381.5Q411 360 411 326Q411 291 389.5 270Q368 249 333 249Q298 249 276.5 270Q255 291 255 326Z" glyph-name="ldot" horiz-adv-x="242" unicode="&#320;" /><glyph d="M42 369 387 522V393L151 297L387 202V72L42 225Z" glyph-name="less" horiz-adv-x="433" unicode="&lt;" /><glyph d="M87 369 433 522V393L197 297L433 202V72L87 225Z" glyph-name="less.lt" horiz-adv-x="520" /><glyph d="M48 437 394 559V436L161 368L394 299V177L48 298ZM48 154H394V42H48Z" glyph-name="lessequal" horiz-adv-x="442" unicode="&#8804;" /><glyph d="M87 437 433 559V436L199 368L433 299V177L87 298ZM87 154H433V42H87Z" glyph-name="lessequal.lt" horiz-adv-x="520" /><glyph d="M224 428 276 459V344L224 313V0H67V235L17 206V321L67 350V650H224Z" glyph-name="lslash" horiz-adv-x="292" unicode="&#322;" /><glyph d="M439 406Q460 426 494 443Q528 460 578 460Q649 460 689.5 415.5Q730 371 730 295V0H573V257Q573 285 560.5 303.5Q548 322 522 322Q502 322 486 309Q470 296 465 273V0H308V257Q308 285 295.5 303.5Q283 322 257 322Q237 322 220.5 309Q204 296 199 273V0H42V450H199V413Q216 434 246.5 447Q277 460 315 460Q359 460 389 444.5Q419 429 439 406Z" glyph-name="m" horiz-adv-x="770" unicode="m" /><glyph d="M123 617H376V507H123Z" glyph-name="macron" horiz-adv-x="500" unicode="&#175;" /><glyph d="M117 774H382V666H117Z" glyph-name="macron.cap" horiz-adv-x="500" unicode="&#58405;" /><glyph d="M439 406Q460 426 494 443Q528 460 578 460Q649 460 689.5 415.5Q730 371 730 295V0H573V257Q573 285 560.5 303.5Q548 322 522 322Q502 322 486 309Q470 296 465 273V0H308V257Q308 285 295.5 303.5Q283 322 257 322Q237 322 220.5 309Q204 296 199 273V0H42V450H199V413Q216 434 246.5 447Q277 460 315 460Q359 460 389 444.5Q419 429 439 406ZM307 573Q307 607 329 628.5Q351 650 386 650Q421 650 442.5 628.5Q464 607 464 573Q464 539 442.5 517.5Q421 496 386 496Q351 496 329 517.5Q307 539 307 573Z" glyph-name="mdotaccent" horiz-adv-x="770" unicode="&#7745;" /><glyph d="M51 357H505V241H51Z" glyph-name="minus" horiz-adv-x="556" unicode="&#8722;" /><glyph d="M35 42H299V-43H35Z" glyph-name="minus.inf" horiz-adv-x="333" unicode="&#58748;" /><glyph d="M33 357H486V241H33Z" glyph-name="minus.lt" horiz-adv-x="520" /><glyph d="M45 418 127 500 247 380 367 500 449 418 329 298 449 178 367 97 247 217 127 97 45 178 166 298Z" glyph-name="multiply" horiz-adv-x="494" unicode="&#215;" /><glyph d="M58 418 139 500 260 380 380 500 461 418 341 298 461 178 380 97 260 217 139 97 58 178 179 298Z" glyph-name="multiply.lt" horiz-adv-x="520" /><glyph d="M42 450H199V413Q218 434 250 447Q282 460 320 460Q395 460 437.5 415Q480 370 480 295V0H323V257Q323 285 308.5 303Q294 321 264 321Q241 321 223 308.5Q205 296 199 273V0H42Z" glyph-name="n" horiz-adv-x="519" unicode="n" /><glyph d="M204 498 286 650H436L348 498ZM42 450H199V413Q218 434 250 447Q282 460 320 460Q395 460 437.5 415Q480 370 480 295V0H323V257Q323 285 308.5 303Q294 321 264 321Q241 321 223 308.5Q205 296 199 273V0H42Z" glyph-name="nacute" horiz-adv-x="519" unicode="&#324;" /><glyph d="M329 498H207L112 650H227L268 595L309 650H424ZM42 450H199V413Q218 434 250 447Q282 460 320 460Q395 460 437.5 415Q480 370 480 295V0H323V257Q323 285 308.5 303Q294 321 264 321Q241 321 223 308.5Q205 296 199 273V0H42Z" glyph-name="ncaron" horiz-adv-x="519" unicode="&#328;" /><glyph d="M42 450H199V413Q218 434 250 447Q282 460 320 460Q395 460 437.5 415Q480 370 480 295V0H323V257Q323 285 308.5 303Q294 321 264 321Q241 321 223 308.5Q205 296 199 273V0H42ZM212 -154Q231 -150 243 -144.5Q255 -139 263 -129H257Q232 -129 216 -116Q200 -103 200 -77Q200 -51 218.5 -37.5Q237 -24 262 -24Q298 -24 313.5 -45.5Q329 -67 329 -95Q329 -134 302 -161Q275 -188 222 -196Z" glyph-name="ncommaaccent" horiz-adv-x="519" unicode="&#326;" /><glyph d="M242 -10Q155 -10 101.5 30.5Q48 71 35 144L179 169Q185 146 200.5 133.5Q216 121 244 121Q268 121 286.5 131.5Q305 142 317 160Q329 178 335 201Q341 224 341 250V255Q327 235 298 222Q269 209 228 209Q181 209 144 224.5Q107 240 80.5 267Q54 294 40 330.5Q26 367 26 408Q26 454 42 493.5Q58 533 87 562Q116 591 158 607.5Q200 624 253 624Q313 624 361.5 597.5Q410 571 441 522Q469 481 480.5 431.5Q492 382 492 321Q492 247 476 186.5Q460 126 428.5 82Q397 38 350 14Q303 -10 242 -10ZM336 412Q336 449 312.5 472Q289 495 252 495Q217 495 193 472Q169 449 169 412Q169 374 193 351Q217 328 252 328Q289 328 312.5 351Q336 374 336 412Z" glyph-name="nine" horiz-adv-x="518" unicode="9" /><glyph d="M149 -176Q94 -176 63 -151.5Q32 -127 24 -83L118 -67Q121 -78 128 -84Q135 -90 150 -90Q175 -90 186 -74Q197 -58 197 -35V-34Q190 -42 174.5 -47.5Q159 -53 138 -53Q84 -53 53 -21Q22 11 22 59Q22 86 31.5 108.5Q41 131 58 148Q75 165 100 174.5Q125 184 155 184Q190 184 217.5 169Q245 154 262 129Q296 83 296 12Q296 -29 286 -63.5Q276 -98 257.5 -123Q239 -148 211.5 -162Q184 -176 149 -176ZM194 62Q194 79 183 90Q172 101 154 101Q137 101 126 90Q115 79 115 62Q115 45 126 34Q137 23 154 23Q172 23 183 34Q194 45 194 62Z" glyph-name="nine.inf" horiz-adv-x="316" unicode="&#58746;" /><glyph d="M241 -10Q154 -10 100.5 30.5Q47 71 34 144L178 169Q184 146 199.5 133.5Q215 121 243 121Q267 121 285.5 131.5Q304 142 316 160Q328 178 334 201Q340 224 340 250V255Q326 235 297 222Q268 209 227 209Q180 209 142.5 224.5Q105 240 79 267Q53 294 38.5 330.5Q24 367 24 408Q24 454 40 493.5Q56 533 85.5 562Q115 591 157 607.5Q199 624 252 624Q312 624 360.5 597.5Q409 571 440 522Q467 481 479 431.5Q491 382 491 321Q491 247 475 186.5Q459 126 427.5 82Q396 38 349 14Q302 -10 241 -10ZM335 412Q335 449 311.5 472Q288 495 251 495Q215 495 191.5 472Q168 449 168 412Q168 374 191.5 351Q215 328 251 328Q288 328 311.5 351Q335 374 335 412Z" glyph-name="nine.lt" horiz-adv-x="520" /><glyph d="M149 261Q94 261 63 285Q32 309 24 353L118 370Q121 359 128 352.5Q135 346 150 346Q175 346 186 362Q197 378 197 401V403Q190 395 174.5 389Q159 383 138 383Q84 383 53 415.5Q22 448 22 496Q22 550 58 585Q94 620 155 620Q190 620 217.5 605.5Q245 591 262 565Q296 519 296 449Q296 407 286 372.5Q276 338 257.5 313.5Q239 289 211.5 275Q184 261 149 261ZM194 499Q194 516 183 526.5Q172 537 154 537Q137 537 126 526.5Q115 516 115 499Q115 481 126 470Q137 459 154 459Q172 459 183 470Q194 481 194 499ZM283 0H196L565 614H652ZM730 0H627V232L545 193V296L655 348H730ZM934 354Q989 354 1020.5 329.5Q1052 305 1059 261L965 244Q963 255 955.5 261.5Q948 268 933 268Q908 268 897 252Q886 236 886 213V211Q894 219 909 225Q924 231 945 231Q999 231 1030.5 199Q1062 167 1062 119Q1062 65 1025.5 29.5Q989 -6 928 -6Q894 -6 866.5 8.5Q839 23 821 49Q787 97 787 166Q787 207 796.5 241.5Q806 276 825 301Q844 326 871.5 340Q899 354 934 354ZM890 115Q890 98 901 87.5Q912 77 929 77Q946 77 957 87.5Q968 98 968 115Q968 133 957 143.5Q946 154 929 154Q912 154 901 143.5Q890 133 890 115Z" glyph-name="ninesixteenths" horiz-adv-x="1083" unicode="&#61977;" /><glyph d="M198 266H95V498L13 459V563L123 614H198ZM384 261Q330 261 298.5 285Q267 309 260 353L354 370Q356 359 363.5 352.5Q371 346 386 346Q411 346 421.5 362Q432 378 432 401V403Q425 395 410 389Q395 383 374 383Q320 383 288.5 415.5Q257 448 257 496Q257 523 266.5 545.5Q276 568 293.5 584.5Q311 601 335.5 610.5Q360 620 390 620Q425 620 452.5 605.5Q480 591 498 565Q531 518 531 449Q531 407 521.5 372.5Q512 338 493 313.5Q474 289 447 275Q420 261 384 261ZM429 499Q429 516 418 526.5Q407 537 390 537Q373 537 361.5 526.5Q350 516 350 499Q350 481 361.5 470Q373 459 390 459Q407 459 418 470Q429 481 429 499ZM518 0H431L800 614H887ZM886 211H908Q923 211 933.5 217.5Q944 224 944 241Q944 252 937 260Q930 268 916 268Q900 268 892 258Q884 248 882 235L786 251Q794 296 826 324.5Q858 353 914 353Q974 353 1008.5 322.5Q1043 292 1043 244Q1043 222 1033 202.5Q1023 183 1009 174Q1027 165 1037 146.5Q1047 128 1047 105Q1047 57 1011.5 25.5Q976 -6 915 -6Q859 -6 824 21.5Q789 49 782 98L884 115Q886 101 894 91Q902 81 918 81Q931 81 939.5 89.5Q948 98 948 111Q948 126 937.5 132.5Q927 139 912 139H886ZM1243 235Q1243 246 1236 253Q1229 260 1217 260Q1204 260 1197.5 252.5Q1191 245 1189 234L1084 252Q1094 301 1126.5 327Q1159 353 1215 353Q1277 353 1312.5 322.5Q1348 292 1348 242Q1348 207 1328.5 182.5Q1309 158 1283 135L1235 90H1347V0H1083V67L1212 186Q1226 200 1234.5 210.5Q1243 221 1243 235Z" glyph-name="nineteenthirtyseconds" horiz-adv-x="1369" /><glyph d="M149 261Q94 261 63 285Q32 309 24 353L118 370Q121 359 128 352.5Q135 346 150 346Q175 346 186 362Q197 378 197 401V403Q190 395 174.5 389Q159 383 138 383Q84 383 53 415.5Q22 448 22 496Q22 550 58 585Q94 620 155 620Q190 620 217.5 605.5Q245 591 262 565Q296 519 296 449Q296 407 286 372.5Q276 338 257.5 313.5Q239 289 211.5 275Q184 261 149 261ZM194 499Q194 516 183 526.5Q172 537 154 537Q137 537 126 526.5Q115 516 115 499Q115 481 126 470Q137 459 154 459Q172 459 183 470Q194 481 194 499ZM283 0H196L565 614H652ZM650 211H672Q687 211 698 217.5Q709 224 709 241Q709 252 702 260Q695 268 680 268Q664 268 656 258Q648 248 646 235L550 251Q558 296 590 324.5Q622 353 679 353Q739 353 773 322.5Q807 292 807 244Q807 222 797 202.5Q787 183 773 174Q791 165 801 146.5Q811 128 811 105Q811 57 775.5 25.5Q740 -6 679 -6Q623 -6 588.5 21.5Q554 49 546 98L649 115Q650 101 658 91Q666 81 682 81Q696 81 704 89.5Q712 98 712 111Q712 126 702 132.5Q692 139 676 139H650ZM1007 235Q1007 246 1000.5 253Q994 260 981 260Q968 260 961.5 252.5Q955 245 954 234L848 252Q858 301 891 327Q924 353 980 353Q1041 353 1076.5 322.5Q1112 292 1112 242Q1112 207 1093 182.5Q1074 158 1048 135L999 90H1111V0H847V67L976 186Q990 200 998.5 210.5Q1007 221 1007 235Z" glyph-name="ninethirtyseconds" horiz-adv-x="1133" /><glyph d="M60 444H330L390 537H486L426 444H513V340H360L309 261H513V158H244L184 65H88L148 158H60V261H213L264 340H60Z" glyph-name="notequal" horiz-adv-x="574" unicode="&#8800;" /><glyph d="M33 444H302L362 537H458L398 444H486V340H332L281 261H486V158H216L156 65H60L120 158H33V261H185L236 340H33Z" glyph-name="notequal.lt" horiz-adv-x="520" /><glyph d="M42 450H199V413Q218 434 250 447Q282 460 320 460Q395 460 437.5 415Q480 370 480 295V0H323V257Q323 285 308.5 303Q294 321 264 321Q241 321 223 308.5Q205 296 199 273V0H42ZM424 645Q424 582 401 539.5Q378 497 332 497Q313 497 299 502Q285 507 273 513.5Q261 520 250.5 525Q240 530 227 530Q216 530 209.5 523.5Q203 517 203 503H113Q113 566 135.5 608.5Q158 651 205 651Q224 651 238 645.5Q252 640 263.5 634Q275 628 286 622.5Q297 617 309 617Q334 617 334 645Z" glyph-name="ntilde" horiz-adv-x="519" unicode="&#241;" /><glyph d="M548 156H446L409 0H296L333 156H229L192 0H80L117 156H20L43 255H140L165 359H65L87 458H189L226 614H339L301 458H405L443 614H555L518 458H615L592 359H494L469 255H570ZM253 255H357L382 359H278Z" glyph-name="numbersign" horiz-adv-x="635" unicode="#" /><glyph d="M478 225Q478 173 461.5 129.5Q445 86 414.5 55Q384 24 341.5 7Q299 -10 248 -10Q197 -10 154.5 7Q112 24 82 55Q52 86 35 129.5Q18 173 18 225Q18 277 35 320.5Q52 364 82 395Q112 426 154.5 443Q197 460 248 460Q299 460 341.5 443Q384 426 414.5 395Q445 364 461.5 320.5Q478 277 478 225ZM324 225Q324 272 304.5 301.5Q285 331 248 331Q212 331 192.5 301.5Q173 272 173 225Q173 178 192.5 149Q212 120 248 120Q285 120 304.5 149Q324 178 324 225Z" glyph-name="o" horiz-adv-x="497" unicode="o" /><glyph d="M248 120Q285 120 304.5 149Q324 178 324 225Q324 272 304.5 301.5Q285 331 248 331Q212 331 192.5 301.5Q173 272 173 225Q173 178 192.5 149Q212 120 248 120ZM318 498H174L256 650H406ZM478 225Q478 173 461.5 129.5Q445 86 414.5 55Q384 24 341.5 7Q299 -10 248 -10Q197 -10 154.5 7Q112 24 82 55Q52 86 35 129.5Q18 173 18 225Q18 277 35 320.5Q52 364 82 395Q112 426 154.5 443Q197 460 248 460Q299 460 341.5 443Q384 426 414.5 395Q445 364 461.5 320.5Q478 277 478 225Z" glyph-name="oacute" horiz-adv-x="497" unicode="&#243;" /><glyph d="M478 225Q478 173 461.5 129.5Q445 86 414.5 55Q384 24 341.5 7Q299 -10 248 -10Q197 -10 154.5 7Q112 24 82 55Q52 86 35 129.5Q18 173 18 225Q18 277 35 320.5Q52 364 82 395Q112 426 154.5 443Q197 460 248 460Q299 460 341.5 443Q384 426 414.5 395Q445 364 461.5 320.5Q478 277 478 225ZM324 225Q324 272 304.5 301.5Q285 331 248 331Q212 331 192.5 301.5Q173 272 173 225Q173 178 192.5 149Q212 120 248 120Q285 120 304.5 149Q324 178 324 225ZM248 488Q185 488 143 526.5Q101 565 99 646H209Q210 594 248 594Q287 594 288 646H397Q395 565 353 526.5Q311 488 248 488Z" glyph-name="obreve" horiz-adv-x="497" unicode="&#335;" /><glyph d="M404 498H290L248 553L207 498H93L187 650H310ZM478 225Q478 173 461.5 129.5Q445 86 414.5 55Q384 24 341.5 7Q299 -10 248 -10Q197 -10 154.5 7Q112 24 82 55Q52 86 35 129.5Q18 173 18 225Q18 277 35 320.5Q52 364 82 395Q112 426 154.5 443Q197 460 248 460Q299 460 341.5 443Q384 426 414.5 395Q445 364 461.5 320.5Q478 277 478 225ZM324 225Q324 272 304.5 301.5Q285 331 248 331Q212 331 192.5 301.5Q173 272 173 225Q173 178 192.5 149Q212 120 248 120Q285 120 304.5 149Q324 178 324 225Z" glyph-name="ocircumflex" horiz-adv-x="497" unicode="&#244;" /><glyph d="M80 573Q80 607 101.5 628.5Q123 650 158 650Q193 650 214.5 628.5Q236 607 236 573Q236 539 214.5 517.5Q193 496 158 496Q123 496 101.5 517.5Q80 539 80 573ZM262 573Q262 607 284 628.5Q306 650 341 650Q376 650 397.5 628.5Q419 607 419 573Q419 539 397.5 517.5Q376 496 341 496Q306 496 284 517.5Q262 539 262 573ZM478 225Q478 173 461.5 129.5Q445 86 414.5 55Q384 24 341.5 7Q299 -10 248 -10Q197 -10 154.5 7Q112 24 82 55Q52 86 35 129.5Q18 173 18 225Q18 277 35 320.5Q52 364 82 395Q112 426 154.5 443Q197 460 248 460Q299 460 341.5 443Q384 426 414.5 395Q445 364 461.5 320.5Q478 277 478 225ZM324 225Q324 272 304.5 301.5Q285 331 248 331Q212 331 192.5 301.5Q173 272 173 225Q173 178 192.5 149Q212 120 248 120Q285 120 304.5 149Q324 178 324 225Z" glyph-name="odieresis" horiz-adv-x="497" unicode="&#246;" /><glyph d="M324 225Q324 272 304.5 301.5Q285 331 248 331Q212 331 192.5 301.5Q173 272 173 225Q173 178 192.5 149Q212 120 248 120Q285 120 304.5 149Q324 178 324 225ZM540 338Q512 338 494 321Q476 304 468 273H604Q602 301 585.5 319.5Q569 338 540 338ZM544 -10Q498 -10 460.5 4.5Q423 19 395 45Q366 19 329.5 4.5Q293 -10 248 -10Q197 -10 154.5 7Q112 24 82 55Q52 86 35 129.5Q18 173 18 225Q18 277 35 320.5Q52 364 82 395Q112 426 154.5 443Q197 460 248 460Q293 460 330 445.5Q367 431 396 405Q424 431 459.5 445.5Q495 460 540 460Q592 460 632 443.5Q672 427 699.5 397Q727 367 741.5 325.5Q756 284 756 234V195H465Q467 154 488.5 133Q510 112 544 112Q568 112 587.5 123Q607 134 613 157L754 132Q737 64 681 27Q625 -10 544 -10Z" glyph-name="oe" horiz-adv-x="774" unicode="&#339;" /><glyph d="M320 0Q292 -19 281 -34Q270 -49 270 -63Q270 -89 299 -89Q311 -89 320 -86Q329 -83 333 -80L350 -157Q342 -164 322.5 -172Q303 -180 271 -180Q225 -180 196.5 -159.5Q168 -139 168 -100Q168 -66 189 -34.5Q210 -3 251 18Z" glyph-name="ogonek" horiz-adv-x="500" unicode="&#731;" /><glyph d="M478 225Q478 173 461.5 129.5Q445 86 414.5 55Q384 24 341.5 7Q299 -10 248 -10Q197 -10 154.5 7Q112 24 82 55Q52 86 35 129.5Q18 173 18 225Q18 277 35 320.5Q52 364 82 395Q112 426 154.5 443Q197 460 248 460Q299 460 341.5 443Q384 426 414.5 395Q445 364 461.5 320.5Q478 277 478 225ZM324 225Q324 272 304.5 301.5Q285 331 248 331Q212 331 192.5 301.5Q173 272 173 225Q173 178 192.5 149Q212 120 248 120Q285 120 304.5 149Q324 178 324 225ZM179 498 92 650H242L324 498Z" glyph-name="ograve" horiz-adv-x="497" unicode="&#242;" /><glyph d="M248 120Q285 120 304.5 149Q324 178 324 225Q324 272 304.5 301.5Q285 331 248 331Q212 331 192.5 301.5Q173 272 173 225Q173 178 192.5 149Q212 120 248 120ZM266 498 345 650H475L392 498ZM478 225Q478 173 461.5 129.5Q445 86 414.5 55Q384 24 341.5 7Q299 -10 248 -10Q197 -10 154.5 7Q112 24 82 55Q52 86 35 129.5Q18 173 18 225Q18 277 35 320.5Q52 364 82 395Q112 426 154.5 443Q197 460 248 460Q299 460 341.5 443Q384 426 414.5 395Q445 364 461.5 320.5Q478 277 478 225ZM232 498H107L186 650H316Z" glyph-name="ohungarumlaut" horiz-adv-x="497" unicode="&#337;" /><glyph d="M248 120Q285 120 304.5 149Q324 178 324 225Q324 272 304.5 301.5Q285 331 248 331Q212 331 192.5 301.5Q173 272 173 225Q173 178 192.5 149Q212 120 248 120ZM478 225Q478 173 461.5 129.5Q445 86 414.5 55Q384 24 341.5 7Q299 -10 248 -10Q197 -10 154.5 7Q112 24 82 55Q52 86 35 129.5Q18 173 18 225Q18 277 35 320.5Q52 364 82 395Q112 426 154.5 443Q197 460 248 460Q299 460 341.5 443Q384 426 414.5 395Q445 364 461.5 320.5Q478 277 478 225ZM375 507H122V617H375Z" glyph-name="omacron" horiz-adv-x="497" unicode="&#333;" /><glyph d="M312 0H156V440L13 370V523L204 614H312Z" glyph-name="one" horiz-adv-x="368" unicode="1" /><glyph d="M198 -170H95V62L13 23V126L123 178H198Z" glyph-name="one.inf" horiz-adv-x="236" unicode="&#58738;" /><glyph d="M60 139H209V440L65 369V522L257 614H365V139H490V0H60Z" glyph-name="one.lt" horiz-adv-x="520" /><glyph d="M198 266H95V498L13 459V563L123 614H198ZM203 0H116L485 614H572ZM627 235Q627 246 620.5 253Q614 260 601 260Q588 260 581.5 252.5Q575 245 574 234L468 252Q478 301 511 327Q544 353 600 353Q661 353 696.5 322.5Q732 292 732 242Q732 207 713 182.5Q694 158 668 135L619 90H731V0H467V67L596 186Q610 200 618.5 210.5Q627 221 627 235Z" glyph-name="onehalf" horiz-adv-x="753" unicode="&#189;" /><glyph d="M198 266H95V498L13 459V563L123 614H198ZM203 0H116L485 614H572ZM577 143H621V194H712V143H755V57H712V0H621V57H465V137L569 348H670Z" glyph-name="onequarter" horiz-adv-x="770" unicode="&#188;" /><glyph d="M198 266H95V498L13 459V563L123 614H198ZM203 0H116L485 614H572ZM650 0H547V232L465 193V296L575 348H650ZM854 354Q909 354 940 329.5Q971 305 979 261L885 244Q882 255 875 261.5Q868 268 853 268Q828 268 817 252Q806 236 806 213V211Q814 219 829 225Q844 231 865 231Q919 231 950.5 199Q982 167 982 119Q982 65 945.5 29.5Q909 -6 848 -6Q813 -6 786 8.5Q759 23 741 49Q707 95 707 166Q707 207 716.5 241.5Q726 276 745 301Q764 326 791.5 340Q819 354 854 354ZM809 115Q809 98 820.5 87.5Q832 77 849 77Q866 77 877 87.5Q888 98 888 115Q888 133 877 143.5Q866 154 849 154Q832 154 820.5 143.5Q809 133 809 115Z" glyph-name="onesixteenth" horiz-adv-x="1003" unicode="&#61973;" /><glyph d="M198 266H95V498L13 459V563L123 614H198Z" glyph-name="onesuperior" horiz-adv-x="236" unicode="&#185;" /><glyph d="M198 266H95V498L13 459V563L123 614H198ZM203 0H116L485 614H572ZM570 211H592Q607 211 618 217.5Q629 224 629 241Q629 252 622 260Q615 268 600 268Q584 268 576 258Q568 248 566 235L470 251Q478 296 510 324.5Q542 353 599 353Q659 353 693 322.5Q727 292 727 244Q727 222 717 202.5Q707 183 693 174Q711 165 721 146.5Q731 128 731 105Q731 57 695.5 25.5Q660 -6 599 -6Q543 -6 508 21.5Q473 49 466 98L569 115Q570 101 578 91Q586 81 602 81Q616 81 624 89.5Q632 98 632 111Q632 126 622 132.5Q612 139 596 139H570ZM927 235Q927 246 920.5 253Q914 260 901 260Q888 260 881.5 252.5Q875 245 874 234L768 252Q778 301 811 327Q844 353 900 353Q961 353 996.5 322.5Q1032 292 1032 242Q1032 207 1013 182.5Q994 158 968 135L919 90H1031V0H767V67L896 186Q910 200 918.5 210.5Q927 221 927 235Z" glyph-name="onethirtysecond" horiz-adv-x="1053" /><glyph d="M193 311V334Q185 322 164.5 313.5Q144 305 118 305Q96 305 76 311.5Q56 318 41 330.5Q26 343 17 361.5Q8 380 8 404Q8 449 42 475Q76 501 126 501Q145 501 164.5 496Q184 491 193 484V505Q193 519 185 527.5Q177 536 159 536Q130 536 125 514L24 532Q34 574 66 599Q98 624 161 624Q228 624 265.5 591Q303 558 303 497V311ZM193 414Q188 422 177 427Q166 432 153 432Q139 432 128 425.5Q117 419 117 406Q117 392 128 386Q139 380 153 380Q166 380 177 385Q188 390 193 399Z" glyph-name="ordfeminine" horiz-adv-x="320" unicode="&#170;" /><glyph d="M328 464Q328 392 284 348Q240 304 168 304Q96 304 52 348Q8 392 8 464Q8 536 52 580Q96 624 168 624Q240 624 284 580Q328 536 328 464ZM212 464Q212 492 200.5 510Q189 528 168 528Q147 528 135.5 510Q124 492 124 464Q124 436 135.5 418.5Q147 401 168 401Q189 401 200.5 418.5Q212 436 212 464Z" glyph-name="ordmasculine" horiz-adv-x="335" unicode="&#186;" /><glyph d="M22 225Q22 277 38.5 320.5Q55 364 85.5 395Q116 426 158.5 443Q201 460 252 460Q330 460 386 421L428 468L473 431L429 382Q455 351 468.5 312Q482 273 482 225Q482 173 465.5 129.5Q449 86 418.5 55Q388 24 345.5 7Q303 -10 252 -10Q212 -10 178 0Q144 10 116 29L74 -19L28 18L73 69Q22 131 22 225ZM330 225Q330 244 325 264L208 132Q226 117 252 117Q288 117 309 147.5Q330 178 330 225ZM174 225Q174 202 178 187L295 318Q276 334 252 334Q216 334 195 303Q174 272 174 225Z" glyph-name="oslash" horiz-adv-x="503" unicode="&#248;" /><glyph d="M22 225Q22 277 38.5 320.5Q55 364 85.5 395Q116 426 158.5 443Q201 460 252 460Q330 460 386 421L428 468L473 431L429 382Q455 351 468.5 312Q482 273 482 225Q482 173 465.5 129.5Q449 86 418.5 55Q388 24 345.5 7Q303 -10 252 -10Q212 -10 178 0Q144 10 116 29L74 -19L28 18L73 69Q22 131 22 225ZM410 650 322 498H178L260 650ZM252 117Q288 117 309 147.5Q330 178 330 225Q330 244 325 264L208 132Q226 117 252 117ZM174 225Q174 202 178 187L295 318Q276 334 252 334Q216 334 195 303Q174 272 174 225Z" glyph-name="oslashacute" horiz-adv-x="503" unicode="&#511;" /><glyph d="M478 225Q478 173 461.5 129.5Q445 86 414.5 55Q384 24 341.5 7Q299 -10 248 -10Q197 -10 154.5 7Q112 24 82 55Q52 86 35 129.5Q18 173 18 225Q18 277 35 320.5Q52 364 82 395Q112 426 154.5 443Q197 460 248 460Q299 460 341.5 443Q384 426 414.5 395Q445 364 461.5 320.5Q478 277 478 225ZM324 225Q324 272 304.5 301.5Q285 331 248 331Q212 331 192.5 301.5Q173 272 173 225Q173 178 192.5 149Q212 120 248 120Q285 120 304.5 149Q324 178 324 225ZM404 645Q404 582 381 539.5Q358 497 312 497Q293 497 279 502Q265 507 253 513.5Q241 520 230.5 525Q220 530 207 530Q196 530 189.5 523.5Q183 517 183 503H93Q93 566 115.5 608.5Q138 651 185 651Q204 651 218 645.5Q232 640 243.5 634Q255 628 266 622.5Q277 617 289 617Q314 617 314 645Z" glyph-name="otilde" horiz-adv-x="497" unicode="&#245;" /><glyph d="M199 -170H42V450H199V414Q215 432 245 446Q275 460 310 460Q359 460 396.5 441.5Q434 423 459.5 391Q485 359 498 316Q511 273 511 225Q511 177 498 134.5Q485 92 459.5 59.5Q434 27 396.5 8.5Q359 -10 310 -10Q275 -10 245 4Q215 18 199 36ZM199 166Q208 147 226.5 135.5Q245 124 268 124Q309 124 331.5 152.5Q354 181 354 225Q354 269 331.5 297.5Q309 326 268 326Q245 326 226.5 314.5Q208 303 199 284Z" glyph-name="p" horiz-adv-x="529" unicode="p" /><glyph d="M400 614H505V-90H400ZM242 247Q201 247 160 257.5Q119 268 86.5 290.5Q54 313 34 348Q14 383 14 431Q14 479 34 514Q54 549 86.5 571Q119 593 160 603.5Q201 614 242 614H347V-90H242Z" glyph-name="paragraph" horiz-adv-x="551" unicode="&#182;" /><glyph d="M167 283Q167 218 180 169Q193 120 214 85.5Q235 51 261 30Q287 9 313 -1L289 -133Q234 -115 186 -79.5Q138 -44 103 7.5Q68 59 47.5 128Q27 197 27 283Q27 369 47.5 438Q68 507 103 558.5Q138 610 186 645.5Q234 681 289 699L313 567Q287 557 261 536Q235 515 214 480.5Q193 446 180 397Q167 348 167 283Z" glyph-name="parenleft" horiz-adv-x="335" unicode="(" /><glyph d="M167 303Q167 238 180 189Q193 140 214 105.5Q235 71 261 50Q287 29 313 19L289 -113Q234 -95 186 -59.5Q138 -24 103 27.5Q68 79 47.5 148Q27 217 27 303Q27 389 47.5 458Q68 527 103 578.5Q138 630 186 665.5Q234 701 289 719L313 587Q287 577 261 556Q235 535 214 500.5Q193 466 180 417Q167 368 167 303Z" glyph-name="parenleft.cap" horiz-adv-x="335" unicode="&#58513;" /><glyph d="M18 4Q18 53 31 93Q44 133 66 163Q88 193 116.5 212.5Q145 232 177 242L193 151Q180 146 167 136Q154 126 143.5 108.5Q133 91 126 65.5Q119 40 119 4Q119 -32 126 -57.5Q133 -83 143.5 -100.5Q154 -118 167 -128Q180 -138 193 -143L177 -234Q145 -224 116.5 -204Q88 -184 66 -154Q44 -124 31 -84.5Q18 -45 18 4Z" glyph-name="parenleft.inf" horiz-adv-x="213" unicode="&#58750;" /><glyph d="M168 283Q168 348 155 397Q142 446 121 480.5Q100 515 74 536Q48 557 22 567L45 699Q100 681 148 645.5Q196 610 231.5 558.5Q267 507 287.5 438Q308 369 308 283Q308 197 287.5 128Q267 59 231.5 7.5Q196 -44 148 -79.5Q100 -115 45 -133L22 -1Q48 9 74 30Q100 51 121 85.5Q142 120 155 169Q168 218 168 283Z" glyph-name="parenright" horiz-adv-x="335" unicode=")" /><glyph d="M168 303Q168 368 155 417Q142 466 121 500.5Q100 535 74 556Q48 577 22 587L45 719Q100 701 148 665.5Q196 630 231.5 578.5Q267 527 287.5 458Q308 389 308 303Q308 217 287.5 148Q267 79 231.5 27.5Q196 -24 148 -59.5Q100 -95 45 -113L22 19Q48 29 74 50Q100 71 121 105.5Q142 140 155 189Q168 238 168 303Z" glyph-name="parenright.cap" horiz-adv-x="335" unicode="&#58514;" /><glyph d="M194 4Q194 -45 181 -84.5Q168 -124 146 -154Q124 -184 95.5 -204Q67 -224 36 -234L20 -143Q33 -138 46 -128Q59 -118 69.5 -100.5Q80 -83 86.5 -57.5Q93 -32 93 4Q93 40 86.5 65.5Q80 91 69.5 108.5Q59 126 46 136Q33 146 20 151L36 242Q67 232 95.5 212.5Q124 193 146 163Q168 133 181 93Q194 53 194 4Z" glyph-name="parenright.inf" horiz-adv-x="213" unicode="&#58751;" /><glyph d="M199 -170H42V450H199V414Q215 432 245 446Q275 460 310 460Q359 460 396.5 441.5Q434 423 459.5 391Q485 359 498 316Q511 273 511 225Q511 177 498 134.5Q485 92 459.5 59.5Q434 27 396.5 8.5Q359 -10 310 -10Q275 -10 245 4Q215 18 199 36ZM199 166Q208 147 226.5 135.5Q245 124 268 124Q309 124 331.5 152.5Q354 181 354 225Q354 269 331.5 297.5Q309 326 268 326Q245 326 226.5 314.5Q208 303 199 284ZM190 573Q190 607 211.5 628.5Q233 650 268 650Q303 650 324.5 628.5Q346 607 346 573Q346 539 324.5 517.5Q303 496 268 496Q233 496 211.5 517.5Q190 539 190 573Z" glyph-name="pdotaccent" horiz-adv-x="529" unicode="&#7767;" /><glyph d="M492 614H582L188 0H98ZM117 476Q117 454 132.5 439Q148 424 169 424Q192 424 208 439Q224 454 224 476Q224 499 208 515Q192 531 169 531Q148 531 132.5 515Q117 499 117 476ZM657 138Q657 107 645.5 80Q634 53 614.5 33Q595 13 568 1.5Q541 -10 511 -10Q480 -10 453 1.5Q426 13 406 33Q386 53 374.5 80Q363 107 363 138Q363 168 374.5 194.5Q386 221 406 240.5Q426 260 453 271.5Q480 283 511 283Q541 283 568 271.5Q595 260 614.5 240.5Q634 221 645.5 194.5Q657 168 657 138ZM317 476Q317 446 305.5 419.5Q294 393 274 373.5Q254 354 227 342.5Q200 331 169 331Q139 331 112.5 342.5Q86 354 66.5 373.5Q47 393 35.5 419.5Q24 446 24 476Q24 507 35.5 534Q47 561 66.5 581Q86 601 112.5 612.5Q139 624 169 624Q200 624 227 612.5Q254 601 274 581Q294 561 305.5 534Q317 507 317 476ZM563 138Q563 160 548 175Q533 190 511 190Q488 190 472.5 175Q457 160 457 138Q457 115 472.5 99Q488 83 511 83Q533 83 548 99Q563 115 563 138Z" glyph-name="percent" horiz-adv-x="680" unicode="%" /><glyph d="M19 500Q19 526 28.5 548.5Q38 571 55 588Q72 605 94 614.5Q116 624 142 624Q167 624 190 614.5Q213 605 229.5 588Q246 571 256 548.5Q266 526 266 500Q266 474 256 452Q246 430 229.5 413.5Q213 397 190 387.5Q167 378 142 378Q116 378 94 387.5Q72 397 55 413.5Q38 430 28.5 452Q19 474 19 500ZM97 500Q97 481 110 468.5Q123 456 142 456Q161 456 174.5 468.5Q188 481 188 500Q188 519 174.5 532.5Q161 546 142 546Q123 546 110 532.5Q97 519 97 500ZM501 114Q501 88 491.5 65.5Q482 43 465 26Q448 9 425.5 -0.5Q403 -10 378 -10Q352 -10 329.5 -0.5Q307 9 290.5 26Q274 43 264 65.5Q254 88 254 114Q254 139 264 161.5Q274 184 290.5 200.5Q307 217 329.5 226.5Q352 236 378 236Q403 236 425.5 226.5Q448 217 465 200.5Q482 184 491.5 161.5Q501 139 501 114ZM423 114Q423 133 410 145.5Q397 158 378 158Q359 158 346 145.5Q333 133 333 114Q333 95 346 81.5Q359 68 378 68Q397 68 410 81.5Q423 95 423 114ZM407 614H495L113 0H25Z" glyph-name="percent.lt" horiz-adv-x="520" /><glyph d="M199 81Q199 43 174.5 18.5Q150 -6 111 -6Q73 -6 48.5 18.5Q24 43 24 81Q24 119 48.5 143.5Q73 168 111 168Q150 168 174.5 143.5Q199 119 199 81Z" glyph-name="period" horiz-adv-x="223" unicode="." /><glyph d="M41 84Q41 123 66.5 148Q92 173 129 173Q167 173 192.5 148Q218 123 218 84Q218 46 192.5 20Q167 -6 129 -6Q111 -6 95 1Q79 8 67 20Q55 32 48 48.5Q41 65 41 84Z" glyph-name="period.tab" horiz-adv-x="260" /><glyph d="M204 256Q204 218 179.5 193.5Q155 169 116 169Q78 169 53.5 193.5Q29 218 29 256Q29 294 53.5 318.5Q78 343 116 343Q155 343 179.5 318.5Q204 294 204 256Z" glyph-name="periodcentered" horiz-adv-x="234" unicode="&#183;" /><glyph d="M204 289Q204 251 179.5 226.5Q155 202 116 202Q78 202 53.5 226.5Q29 251 29 289Q29 327 53.5 351.5Q78 376 116 376Q155 376 179.5 351.5Q204 327 204 289Z" glyph-name="periodcentered.cap" horiz-adv-x="234" unicode="&#58497;" /><glyph d="M492 614H582L188 0H98ZM24 476Q24 507 35.5 534Q47 561 66.5 581Q86 601 112.5 612.5Q139 624 169 624Q200 624 227 612.5Q254 601 274 581Q294 561 305.5 534Q317 507 317 476Q317 446 305.5 419.5Q294 393 274 373.5Q254 354 227 342.5Q200 331 169 331Q139 331 112.5 342.5Q86 354 66.5 373.5Q47 393 35.5 419.5Q24 446 24 476ZM657 138Q657 107 645.5 80Q634 53 614.5 33Q595 13 568 1.5Q541 -10 511 -10Q480 -10 453 1.5Q426 13 406 33Q386 53 374.5 80Q363 107 363 138Q363 168 374.5 194.5Q386 221 406 240.5Q426 260 453 271.5Q480 283 511 283Q541 283 568 271.5Q595 260 614.5 240.5Q634 221 645.5 194.5Q657 168 657 138ZM563 138Q563 160 548 175Q533 190 511 190Q488 190 472.5 175Q457 160 457 138Q457 115 472.5 99Q488 83 511 83Q533 83 548 99Q563 115 563 138ZM977 138Q977 107 965.5 80Q954 53 934.5 33Q915 13 888.5 1.5Q862 -10 832 -10Q801 -10 774 1.5Q747 13 727 33Q707 53 695.5 80Q684 107 684 138Q684 168 695.5 194.5Q707 221 727 240.5Q747 260 774 271.5Q801 283 832 283Q862 283 888.5 271.5Q915 260 934.5 240.5Q954 221 965.5 194.5Q977 168 977 138ZM884 138Q884 160 869 175Q854 190 832 190Q809 190 793 175Q777 160 777 138Q777 115 793 99Q809 83 832 83Q854 83 869 99Q884 115 884 138ZM117 476Q117 454 132.5 439Q148 424 169 424Q192 424 208 439Q224 454 224 476Q224 499 208 515Q192 531 169 531Q148 531 132.5 515Q117 499 117 476Z" glyph-name="perthousand" horiz-adv-x="1001" unicode="&#8240;" /><glyph d="M433 614H521L114 0H26ZM111 500Q111 481 124 468.5Q137 456 155 456Q175 456 188 468.5Q201 481 201 500Q201 519 188 532.5Q175 546 155 546Q137 546 124 532.5Q111 519 111 500ZM514 114Q514 88 504.5 65.5Q495 43 478.5 26Q462 9 439.5 -0.5Q417 -10 392 -10Q366 -10 343.5 -0.5Q321 9 304 26Q287 43 277.5 65.5Q268 88 268 114Q268 139 277.5 161.5Q287 184 304 200.5Q321 217 343.5 226.5Q366 236 392 236Q417 236 439.5 226.5Q462 217 478.5 200.5Q495 184 504.5 161.5Q514 139 514 114ZM436 114Q436 133 423.5 145.5Q411 158 392 158Q373 158 359.5 145.5Q346 133 346 114Q346 95 359.5 81.5Q373 68 392 68Q411 68 423.5 81.5Q436 95 436 114ZM33 500Q33 526 42.5 548.5Q52 571 68.5 588Q85 605 107.5 614.5Q130 624 155 624Q181 624 203.5 614.5Q226 605 243 588Q260 571 269.5 548.5Q279 526 279 500Q279 474 269.5 452Q260 430 243 413.5Q226 397 203.5 387.5Q181 378 155 378Q130 378 107.5 387.5Q85 397 68.5 413.5Q52 430 42.5 452Q33 474 33 500ZM779 114Q779 88 769.5 65.5Q760 43 743.5 26Q727 9 704.5 -0.5Q682 -10 657 -10Q631 -10 608.5 -0.5Q586 9 569 26Q552 43 542.5 65.5Q533 88 533 114Q533 139 542.5 161.5Q552 184 569 200.5Q586 217 608.5 226.5Q631 236 657 236Q682 236 704.5 226.5Q727 217 743.5 200.5Q760 184 769.5 161.5Q779 139 779 114ZM701 114Q701 133 688 145.5Q675 158 657 158Q638 158 624.5 145.5Q611 133 611 114Q611 95 624.5 81.5Q638 68 657 68Q675 68 688 81.5Q701 95 701 114Z" glyph-name="perthousand.lt" horiz-adv-x="800" /><glyph d="M336 526V357H505V241H336V73H220V241H51V357H220V526Z" glyph-name="plus" horiz-adv-x="556" unicode="+" /><glyph d="M207 131V41H296V-43H207V-133H122V-43H33V41H122V131Z" glyph-name="plus.inf" horiz-adv-x="329" unicode="&#58747;" /><glyph d="M318 526V357H486V241H318V73H202V241H33V357H202V526Z" glyph-name="plus.lt" horiz-adv-x="520" /><glyph d="M336 561V434H502V329H336V201H231V329H66V434H231V561ZM66 153H502V48H66Z" glyph-name="plusminus" horiz-adv-x="567" unicode="&#177;" /><glyph d="M312 561V434H478V329H312V201H207V329H42V434H207V561ZM42 153H478V48H42Z" glyph-name="plusminus.lt" horiz-adv-x="520" /><glyph d="M669 307Q669 238 644 180Q619 122 576 79.5Q533 37 475 13.5Q417 -10 352 -10Q287 -10 229 13.5Q171 37 128 79.5Q85 122 60 180Q35 238 35 307Q35 376 60 434Q85 492 128 534.5Q171 577 229 600.5Q287 624 352 624Q417 624 475 600.5Q533 577 576 534.5Q619 492 644 434Q669 376 669 307ZM622 307Q622 366 600.5 415.5Q579 465 542.5 501Q506 537 456.5 557.5Q407 578 352 578Q296 578 247 557.5Q198 537 161.5 501Q125 465 103.5 415.5Q82 366 82 307Q82 248 103.5 198.5Q125 149 161.5 113Q198 77 247 56.5Q296 36 352 36Q407 36 456.5 56.5Q506 77 542.5 113Q579 149 600.5 198.5Q622 248 622 307ZM327 230V124H221V493H391Q452 493 490 459Q528 425 528 362Q528 297 490 263.5Q452 230 391 230ZM424 362Q424 380 413 391.5Q402 403 379 403H327V320H379Q402 320 413 331.5Q424 343 424 362Z" glyph-name="published" horiz-adv-x="704" unicode="&#8471;" /><glyph d="M330 36Q314 18 284 4Q254 -10 219 -10Q170 -10 132.5 8.5Q95 27 69.5 59.5Q44 92 31 134.5Q18 177 18 225Q18 273 31 316Q44 359 69.5 391Q95 423 132.5 441.5Q170 460 219 460Q254 460 284 446Q314 432 330 414V450H487V-170H330ZM330 284Q321 303 302.5 314.5Q284 326 261 326Q220 326 197.5 297.5Q175 269 175 225Q175 181 197.5 152.5Q220 124 261 124Q284 124 302.5 135.5Q321 147 330 166Z" glyph-name="q" horiz-adv-x="529" unicode="q" /><glyph d="M454 439Q454 410 444.5 386.5Q435 363 420.5 342Q406 321 388.5 302.5Q371 284 355 266Q337 247 331 234Q325 221 323 206H175Q174 234 182 257.5Q190 281 222 314Q251 347 271 370Q291 393 291 424Q291 448 276 463.5Q261 479 235 479Q206 479 191.5 462.5Q177 446 175 420L18 446Q31 528 84.5 576Q138 624 240 624Q288 624 327 611Q366 598 394.5 574Q423 550 438.5 516Q454 482 454 439ZM335 81Q335 43 310.5 18.5Q286 -6 247 -6Q209 -6 184.5 18.5Q160 43 160 81Q160 119 184.5 143.5Q209 168 247 168Q286 168 310.5 143.5Q335 119 335 81Z" glyph-name="question" horiz-adv-x="475" unicode="?" /><glyph d="M21 79Q21 107 30.5 131Q40 155 54.5 176Q69 197 86.5 215.5Q104 234 120 252Q138 271 144 284Q150 297 152 312H300Q301 298 299.5 285.5Q298 273 293.5 260.5Q289 248 279.5 234Q270 220 254 204Q224 171 204.5 148Q185 125 185 94Q185 70 199.5 54.5Q214 39 240 39Q269 39 283.5 55.5Q298 72 300 98L457 72Q444 -10 390.5 -58Q337 -106 235 -106Q187 -106 148 -93Q109 -80 80.5 -56Q52 -32 36.5 2Q21 36 21 79ZM141 437Q141 475 165.5 499.5Q190 524 228 524Q266 524 290.5 499.5Q315 475 315 437Q315 399 290.5 374.5Q266 350 228 350Q190 350 165.5 374.5Q141 399 141 437Z" glyph-name="questiondown" horiz-adv-x="475" unicode="&#191;" /><glyph d="M21 175Q21 203 30.5 226.5Q40 250 54.5 271Q69 292 86.5 311Q104 330 120 348Q138 367 144 380Q150 393 152 408H300Q301 394 299.5 381.5Q298 369 293.5 356Q289 343 279.5 329.5Q270 316 254 299Q239 283 226.5 269.5Q214 256 204.5 243.5Q195 231 190 218Q185 205 185 190Q185 165 199.5 149.5Q214 134 240 134Q269 134 283.5 150.5Q298 167 300 193L457 168Q444 86 390.5 38Q337 -10 235 -10Q187 -10 148 3Q109 16 80.5 40Q52 64 36.5 98Q21 132 21 175ZM141 532Q141 571 165.5 595.5Q190 620 228 620Q266 620 290.5 595.5Q315 571 315 532Q315 494 290.5 469.5Q266 445 228 445Q190 445 165.5 469.5Q141 494 141 532Z" glyph-name="questiondown.cap" horiz-adv-x="475" unicode="&#58436;" /><glyph d="M36 614H157V355H36ZM200 614H321V355H200Z" glyph-name="quotedbl" horiz-adv-x="356" unicode="&quot;" /><glyph d="M35 -62Q95 -50 118 -5Q116 -6 111 -6Q73 -6 48.5 18.5Q24 43 24 81Q24 119 48.5 143.5Q73 168 112 168Q162 168 185.5 137Q209 106 209 59Q209 25 198.5 -5.5Q188 -36 167 -60.5Q146 -85 116 -102.5Q86 -120 47 -127ZM240 -62Q300 -50 323 -5Q321 -6 317 -6Q279 -6 254.5 18.5Q230 43 230 81Q230 119 254.5 143.5Q279 168 317 168Q368 168 391 137Q414 106 414 59Q414 25 403.5 -5.5Q393 -36 372.5 -60.5Q352 -85 321.5 -102.5Q291 -120 252 -127Z" glyph-name="quotedblbase" horiz-adv-x="430" unicode="&#8222;" /><glyph d="M191 573Q161 567 140 552Q119 537 108 516Q110 516 111 516.5Q112 517 114 517Q152 517 176.5 492.5Q201 468 201 430Q201 391 176.5 366.5Q152 342 113 342Q63 342 40 373.5Q17 405 17 452Q17 486 27.5 516.5Q38 547 58.5 571.5Q79 596 109 613.5Q139 631 178 638ZM396 573Q366 567 345 552Q324 537 313 516Q315 516 316 516.5Q317 517 319 517Q357 517 381.5 492.5Q406 468 406 430Q406 391 381.5 366.5Q357 342 319 342Q269 342 245.5 373.5Q222 405 222 452Q222 486 232.5 516.5Q243 547 263.5 571.5Q284 596 314.5 613.5Q345 631 384 638Z" glyph-name="quotedblleft" horiz-adv-x="430" unicode="&#8220;" /><glyph d="M239 393Q299 406 322 450H316Q278 450 253.5 474.5Q229 499 229 537Q229 575 253.5 599.5Q278 624 317 624Q367 624 390 592.5Q413 561 413 514Q413 481 402.5 450.5Q392 420 371.5 395Q351 370 321 352.5Q291 335 252 328ZM34 393Q94 406 117 450H111Q73 450 48.5 474.5Q24 499 24 537Q24 575 48.5 599.5Q73 624 111 624Q136 624 154.5 615.5Q173 607 185 592Q197 577 202.5 557Q208 537 208 514Q208 481 197.5 450.5Q187 420 166.5 395Q146 370 116 352.5Q86 335 47 328Z" glyph-name="quotedblright" horiz-adv-x="430" unicode="&#8221;" /><glyph d="M191 573Q161 567 140 552Q119 537 108 516Q110 516 111 516.5Q112 517 114 517Q152 517 176.5 492.5Q201 468 201 430Q201 391 176.5 366.5Q152 342 113 342Q63 342 40 373.5Q17 405 17 452Q17 486 27.5 516.5Q38 547 58.5 571.5Q79 596 109 613.5Q139 631 178 638Z" glyph-name="quoteleft" horiz-adv-x="225" unicode="&#8216;" /><glyph d="M34 393Q94 406 117 450H111Q73 450 48.5 474.5Q24 499 24 537Q24 575 48.5 599.5Q73 624 111 624Q136 624 154.5 615.5Q173 607 185 592Q197 577 202.5 557Q208 537 208 514Q208 481 197.5 450.5Q187 420 166.5 395Q146 370 116 352.5Q86 335 47 328Z" glyph-name="quoteright" horiz-adv-x="225" unicode="&#8217;" /><glyph d="M35 -62Q95 -50 118 -5Q116 -6 111 -6Q73 -6 48.5 18.5Q24 43 24 81Q24 119 48.5 143.5Q73 168 112 168Q162 168 185.5 137Q209 106 209 59Q209 25 198.5 -5.5Q188 -36 167 -60.5Q146 -85 116 -102.5Q86 -120 47 -127Z" glyph-name="quotesinglbase" horiz-adv-x="225" unicode="&#8218;" /><glyph d="M36 614H164V355H36Z" glyph-name="quotesingle" horiz-adv-x="200" unicode="&apos;" /><glyph d="M325 308Q315 312 303 313.5Q291 315 280 315Q248 315 226.5 301.5Q205 288 199 264V0H42V450H199V410Q216 433 242 446.5Q268 460 303 460Q335 460 350 450Z" glyph-name="r" horiz-adv-x="365" unicode="r" /><glyph d="M123 498 206 650H355L268 498ZM325 308Q315 312 303 313.5Q291 315 280 315Q248 315 226.5 301.5Q205 288 199 264V0H42V450H199V410Q216 433 242 446.5Q268 460 303 460Q335 460 350 450Z" glyph-name="racute" horiz-adv-x="365" unicode="&#341;" /><glyph d="M258 498H135L41 650H155L197 595L238 650H353ZM325 308Q315 312 303 313.5Q291 315 280 315Q248 315 226.5 301.5Q205 288 199 264V0H42V450H199V410Q216 433 242 446.5Q268 460 303 460Q335 460 350 450Z" glyph-name="rcaron" horiz-adv-x="365" unicode="&#345;" /><glyph d="M325 308Q315 312 303 313.5Q291 315 280 315Q248 315 226.5 301.5Q205 288 199 264V0H42V450H199V410Q216 433 242 446.5Q268 460 303 460Q335 460 350 450ZM69 -154Q87 -150 99 -144.5Q111 -139 119 -129H113Q88 -129 72 -116Q56 -103 56 -77Q56 -51 74.5 -37.5Q93 -24 118 -24Q154 -24 169.5 -45.5Q185 -67 185 -95Q185 -134 158 -161Q131 -188 78 -196Z" glyph-name="rcommaaccent" horiz-adv-x="365" unicode="&#343;" /><glyph d="M384 441Q384 401 369.5 367.5Q355 334 330.5 309.5Q306 285 273 271.5Q240 258 203 258Q166 258 133 271.5Q100 285 75.5 309.5Q51 334 36.5 367.5Q22 401 22 441Q22 481 36.5 514.5Q51 548 75.5 572.5Q100 597 133 610.5Q166 624 203 624Q240 624 273 610.5Q306 597 330.5 572.5Q355 548 369.5 514.5Q384 481 384 441ZM351 441Q351 474 339.5 502Q328 530 308 550.5Q288 571 261 582Q234 593 203 593Q172 593 145 582Q118 571 98 550.5Q78 530 66.5 502Q55 474 55 441Q55 408 66.5 380Q78 352 98 331.5Q118 311 145 300Q172 289 203 289Q234 289 261 300Q288 311 308 331.5Q328 352 339.5 380Q351 408 351 441ZM185 404V346H126V538H219Q251 538 271 520Q291 502 291 469Q291 448 281.5 433.5Q272 419 255 411L297 346H232L197 404ZM233 469Q233 489 210 489H185V451H210Q233 451 233 469Z" glyph-name="registered" horiz-adv-x="407" unicode="&#174;" /><glyph d="M358 589Q358 567 349.5 548Q341 529 326.5 514.5Q312 500 292.5 492Q273 484 250 484Q227 484 207.5 492Q188 500 173.5 514.5Q159 529 150.5 548Q142 567 142 589Q142 611 150.5 630Q159 649 173.5 663.5Q188 678 207.5 686Q227 694 250 694Q273 694 292.5 686Q312 678 326.5 663.5Q341 649 349.5 630Q358 611 358 589ZM286 589Q286 604 276 614.5Q266 625 250 625Q235 625 224.5 614.5Q214 604 214 589Q214 574 224.5 563.5Q235 553 250 553Q266 553 276 563.5Q286 574 286 589Z" glyph-name="ring" horiz-adv-x="500" unicode="&#730;" /><glyph d="M358 747Q358 725 349.5 706Q341 687 326.5 672.5Q312 658 292.5 650Q273 642 250 642Q227 642 207.5 650Q188 658 173.5 672.5Q159 687 150.5 706Q142 725 142 747Q142 769 150.5 788.5Q159 808 173.5 822Q188 836 207.5 844.5Q227 853 250 853Q273 853 292.5 844.5Q312 836 326.5 822Q341 808 349.5 788.5Q358 769 358 747ZM286 747Q286 762 276 772.5Q266 783 250 783Q235 783 224.5 772.5Q214 762 214 747Q214 732 224.5 721.5Q235 711 250 711Q266 711 276 721.5Q286 732 286 747Z" glyph-name="ring.cap" horiz-adv-x="500" unicode="&#58410;" /><glyph d="M220 -10Q128 -10 77.5 22.5Q27 55 16 117L162 142Q166 122 182 111.5Q198 101 220 101Q240 101 256 108Q272 115 272 131Q272 144 263 149.5Q254 155 237 159L149 177Q92 189 58.5 219Q25 249 25 308Q25 344 39.5 372.5Q54 401 80 420.5Q106 440 142 450Q178 460 222 460Q315 460 360.5 427Q406 394 420 334L280 310Q278 327 265 338.5Q252 350 224 350Q206 350 192 342.5Q178 335 178 322Q178 310 186 304Q194 298 210 295L299 274Q361 260 393 227Q425 194 425 139Q425 103 410 75Q395 47 368 28.5Q341 10 303 0Q265 -10 220 -10Z" glyph-name="s" horiz-adv-x="448" unicode="s" /><glyph d="M153 498 235 650H384L297 498ZM220 -10Q128 -10 77.5 22.5Q27 55 16 117L162 142Q166 122 182 111.5Q198 101 220 101Q240 101 256 108Q272 115 272 131Q272 144 263 149.5Q254 155 237 159L149 177Q92 189 58.5 219Q25 249 25 308Q25 344 39.5 372.5Q54 401 80 420.5Q106 440 142 450Q178 460 222 460Q315 460 360.5 427Q406 394 420 334L280 310Q278 327 265 338.5Q252 350 224 350Q206 350 192 342.5Q178 335 178 322Q178 310 186 304Q194 298 210 295L299 274Q361 260 393 227Q425 194 425 139Q425 103 410 75Q395 47 368 28.5Q341 10 303 0Q265 -10 220 -10Z" glyph-name="sacute" horiz-adv-x="448" unicode="&#347;" /><glyph d="M285 498H162L68 650H182L224 595L265 650H379ZM220 -10Q128 -10 77.5 22.5Q27 55 16 117L162 142Q166 122 182 111.5Q198 101 220 101Q240 101 256 108Q272 115 272 131Q272 144 263 149.5Q254 155 237 159L149 177Q92 189 58.5 219Q25 249 25 308Q25 344 39.5 372.5Q54 401 80 420.5Q106 440 142 450Q178 460 222 460Q315 460 360.5 427Q406 394 420 334L280 310Q278 327 265 338.5Q252 350 224 350Q206 350 192 342.5Q178 335 178 322Q178 310 186 304Q194 298 210 295L299 274Q361 260 393 227Q425 194 425 139Q425 103 410 75Q395 47 368 28.5Q341 10 303 0Q265 -10 220 -10Z" glyph-name="scaron" horiz-adv-x="448" unicode="&#353;" /><glyph d="M425 139Q425 73 376.5 35Q328 -3 249 -9L247 -21Q280 -30 302 -50Q324 -70 324 -105Q324 -140 297 -160Q270 -180 221 -180Q191 -180 170 -173.5Q149 -167 135 -158L150 -95Q158 -100 174 -105Q190 -110 207 -110Q222 -110 231.5 -105.5Q241 -101 241 -92Q241 -80 228 -73Q215 -66 186 -64H183L193 -9Q114 -4 70 28Q26 60 16 117L162 142Q166 122 182 111.5Q198 101 220 101Q240 101 256 108Q272 115 272 131Q272 144 263 149.5Q254 155 237 159L149 177Q92 189 58.5 219Q25 249 25 308Q25 344 39.5 372.5Q54 401 80 420.5Q106 440 142 450Q178 460 222 460Q315 460 360.5 427Q406 394 420 334L280 310Q278 327 265 338.5Q252 350 224 350Q206 350 192 342.5Q178 335 178 322Q178 310 186 304Q194 298 210 295L299 274Q361 260 393 227Q425 194 425 139Z" glyph-name="scedilla" horiz-adv-x="448" unicode="&#351;" /><glyph d="M20 318Q37 386 93 423Q149 460 230 460Q282 460 324.5 443Q367 426 397 395Q427 364 443.5 321Q460 278 460 226Q460 173 443 130Q426 87 396 55.5Q366 24 324.5 7Q283 -10 234 -10Q182 -10 141.5 6.5Q101 23 73.5 53Q46 83 32 124.5Q18 166 18 216V256H309Q307 296 285.5 317Q264 338 230 338Q206 338 186 327Q166 316 161 293ZM233 112Q262 112 280 129Q298 146 305 178H170Q172 150 188 131Q204 112 233 112Z" glyph-name="schwa" horiz-adv-x="478" unicode="&#601;" /><glyph d="M379 498H265L224 553L182 498H68L162 650H285ZM220 -10Q128 -10 77.5 22.5Q27 55 16 117L162 142Q166 122 182 111.5Q198 101 220 101Q240 101 256 108Q272 115 272 131Q272 144 263 149.5Q254 155 237 159L149 177Q92 189 58.5 219Q25 249 25 308Q25 344 39.5 372.5Q54 401 80 420.5Q106 440 142 450Q178 460 222 460Q315 460 360.5 427Q406 394 420 334L280 310Q278 327 265 338.5Q252 350 224 350Q206 350 192 342.5Q178 335 178 322Q178 310 186 304Q194 298 210 295L299 274Q361 260 393 227Q425 194 425 139Q425 103 410 75Q395 47 368 28.5Q341 10 303 0Q265 -10 220 -10Z" glyph-name="scircumflex" horiz-adv-x="448" unicode="&#349;" /><glyph d="M220 -10Q128 -10 77.5 22.5Q27 55 16 117L162 142Q166 122 182 111.5Q198 101 220 101Q240 101 256 108Q272 115 272 131Q272 144 263 149.5Q254 155 237 159L149 177Q92 189 58.5 219Q25 249 25 308Q25 344 39.5 372.5Q54 401 80 420.5Q106 440 142 450Q178 460 222 460Q315 460 360.5 427Q406 394 420 334L280 310Q278 327 265 338.5Q252 350 224 350Q206 350 192 342.5Q178 335 178 322Q178 310 186 304Q194 298 210 295L299 274Q361 260 393 227Q425 194 425 139Q425 103 410 75Q395 47 368 28.5Q341 10 303 0Q265 -10 220 -10ZM170 -154Q188 -150 200 -144.5Q212 -139 220 -129H214Q189 -129 173 -116Q157 -103 157 -77Q157 -51 175.5 -37.5Q194 -24 219 -24Q255 -24 270.5 -45.5Q286 -67 286 -95Q286 -134 259 -161Q232 -188 179 -196Z" glyph-name="scommaaccent" horiz-adv-x="448" unicode="&#537;" /><glyph d="M293 191Q307 195 313 204.5Q319 214 319 225Q319 239 309 250Q299 261 282 272L185 333Q171 328 165.5 319Q160 310 160 299Q160 284 169.5 273Q179 262 196 252ZM272 43Q272 58 262.5 67Q253 76 239 84L125 147Q76 173 48 206.5Q20 240 20 288Q20 325 38 354.5Q56 384 89 402Q75 417 67 436Q59 455 59 480Q59 513 73 540Q87 567 111.5 585.5Q136 604 169.5 614Q203 624 242 624Q333 624 377.5 592.5Q422 561 436 501L300 478Q297 495 284.5 506Q272 517 249 517Q232 517 219 508Q206 499 206 481Q206 466 216 457Q226 448 240 440L353 377Q402 351 430 317.5Q458 284 458 236Q458 198 439.5 168.5Q421 139 388 122Q402 106 410.5 87Q419 68 419 44Q419 11 405.5 -16Q392 -43 367.5 -61.5Q343 -80 309.5 -90Q276 -100 236 -100Q146 -100 101 -68Q56 -36 43 23L178 46Q181 29 193.5 18Q206 7 229 7Q246 7 259 16Q272 25 272 43Z" glyph-name="section" horiz-adv-x="478" unicode="&#167;" /><glyph d="M35 -62Q95 -50 118 -5Q116 -6 111 -6Q73 -6 48.5 18.5Q24 43 24 81Q24 119 48.5 143.5Q73 168 112 168Q162 168 185.5 137Q209 106 209 59Q209 25 198.5 -5.5Q188 -36 167 -60.5Q146 -85 116 -102.5Q86 -120 47 -127ZM111 259Q73 259 48.5 283.5Q24 308 24 346Q24 385 48.5 409.5Q73 434 111 434Q150 434 174.5 409.5Q199 385 199 346Q199 308 174.5 283.5Q150 259 111 259Z" glyph-name="semicolon" horiz-adv-x="223" unicode=";" /><glyph d="M53 -62Q113 -50 136 -5Q134 -6 129 -6Q91 -6 66.5 18.5Q42 43 42 81Q42 119 66.5 143.5Q91 168 130 168Q180 168 203.5 137Q227 106 227 59Q227 25 216.5 -5.5Q206 -36 185 -60.5Q164 -85 134 -102.5Q104 -120 65 -127ZM129 259Q91 259 66.5 283.5Q42 308 42 346Q42 385 66.5 409.5Q91 434 129 434Q167 434 192 409.5Q217 385 217 346Q217 308 192 283.5Q167 259 129 259Z" glyph-name="semicolon.tab" horiz-adv-x="260" /><glyph d="M257 0H95L274 476H13V614H444V506Z" glyph-name="seven" horiz-adv-x="466" unicode="7" /><glyph d="M156 -170H48L152 88H16V178H268V108Z" glyph-name="seven.inf" horiz-adv-x="287" unicode="&#58744;" /><glyph d="M295 0H133L315 476H34V614H485V506Z" glyph-name="seven.lt" horiz-adv-x="520" /><glyph d="M156 266H48L152 524H16V614H268V544ZM254 0H167L536 614H623ZM701 0H598V232L516 193V296L626 348H701ZM906 354Q961 354 992 329.5Q1023 305 1031 261L937 244Q934 255 926.5 261.5Q919 268 905 268Q880 268 869 252Q858 236 858 213V211Q865 219 880 225Q895 231 916 231Q970 231 1001.5 199Q1033 167 1033 119Q1033 65 996.5 29.5Q960 -6 900 -6Q865 -6 837.5 8.5Q810 23 793 49Q759 95 759 166Q759 207 768.5 241.5Q778 276 797 301Q816 326 843 340Q870 354 906 354ZM861 115Q861 98 872 87.5Q883 77 901 77Q918 77 929 87.5Q940 98 940 115Q940 133 929 143.5Q918 154 901 154Q883 154 872 143.5Q861 133 861 115Z" glyph-name="sevensixteenths" horiz-adv-x="1054" unicode="&#61976;" /><glyph d="M198 266H95V498L13 459V563L123 614H198ZM392 266H284L388 524H251V614H503V544ZM490 0H403L772 614H859ZM857 211H879Q894 211 905 217.5Q916 224 916 241Q916 252 909 260Q902 268 887 268Q871 268 863 258Q855 248 853 235L757 251Q765 296 797 324.5Q829 353 886 353Q946 353 980 322.5Q1014 292 1014 244Q1014 222 1004 202.5Q994 183 980 174Q998 165 1008 146.5Q1018 128 1018 105Q1018 57 982.5 25.5Q947 -6 886 -6Q830 -6 795 21.5Q760 49 753 98L856 115Q857 101 865 91Q873 81 889 81Q903 81 911 89.5Q919 98 919 111Q919 126 909 132.5Q899 139 883 139H857ZM1214 235Q1214 246 1207.5 253Q1201 260 1188 260Q1175 260 1168.5 252.5Q1162 245 1161 234L1055 252Q1065 301 1098 327Q1131 353 1187 353Q1248 353 1283.5 322.5Q1319 292 1319 242Q1319 207 1300 182.5Q1281 158 1255 135L1206 90H1318V0H1054V67L1183 186Q1197 200 1205.5 210.5Q1214 221 1214 235Z" glyph-name="seventeenthirtyseconds" horiz-adv-x="1340" /><glyph d="M156 266H48L152 524H16V614H268V544ZM254 0H167L536 614H623ZM621 211H644Q659 211 669.5 217.5Q680 224 680 241Q680 252 673 260Q666 268 652 268Q636 268 627.5 258Q619 248 618 235L521 251Q530 296 561.5 324.5Q593 353 650 353Q710 353 744.5 322.5Q779 292 779 244Q779 222 769 202.5Q759 183 745 174Q762 165 772 146.5Q782 128 782 105Q782 57 747 25.5Q712 -6 651 -6Q594 -6 559.5 21.5Q525 49 517 98L620 115Q622 101 629.5 91Q637 81 654 81Q667 81 675.5 89.5Q684 98 684 111Q684 126 673.5 132.5Q663 139 647 139H621ZM979 235Q979 246 972 253Q965 260 953 260Q940 260 933.5 252.5Q927 245 925 234L820 252Q830 301 862.5 327Q895 353 951 353Q1013 353 1048.5 322.5Q1084 292 1084 242Q1084 207 1064.5 182.5Q1045 158 1019 135L970 90H1082V0H819V67L948 186Q962 200 970.5 210.5Q979 221 979 235Z" glyph-name="seventhirtyseconds" horiz-adv-x="1105" /><glyph d="M275 624Q362 624 415.5 583.5Q469 543 483 470L338 445Q333 468 317.5 480.5Q302 493 273 493Q249 493 231 482.5Q213 472 200.5 454Q188 436 182 412.5Q176 389 176 364V359Q190 379 219.5 392Q249 405 289 405Q336 405 373.5 389.5Q411 374 437.5 347Q464 320 478 284Q492 248 492 206Q492 160 476 120.5Q460 81 430.5 52Q401 23 359 6.5Q317 -10 264 -10Q204 -10 155.5 16.5Q107 43 76 92Q49 133 37 182.5Q25 232 25 293Q25 366 41 427Q57 488 88.5 532Q120 576 167 600Q214 624 275 624ZM182 202Q182 165 205 142Q228 119 265 119Q301 119 324.5 142Q348 165 348 202Q348 240 324.5 263Q301 286 265 286Q228 286 205 263Q182 240 182 202Z" glyph-name="six" horiz-adv-x="518" unicode="6" /><glyph d="M167 184Q222 184 253 159.5Q284 135 292 91L198 74Q195 85 188 91.5Q181 98 166 98Q141 98 130 82Q119 66 119 43V41Q127 49 142 55Q157 61 178 61Q232 61 263 28.5Q294 -4 294 -52Q294 -106 258 -141Q222 -176 161 -176Q126 -176 98.5 -161.5Q71 -147 54 -121Q20 -75 20 -4Q20 37 29.5 71.5Q39 106 58 131Q77 156 104.5 170Q132 184 167 184ZM122 -55Q122 -72 133.5 -82.5Q145 -93 162 -93Q179 -93 190 -82.5Q201 -72 201 -55Q201 -37 190 -26.5Q179 -16 162 -16Q145 -16 133.5 -26.5Q122 -37 122 -55Z" glyph-name="six.inf" horiz-adv-x="316" unicode="&#58743;" /><glyph d="M279 624Q366 624 419.5 583.5Q473 543 486 470L342 445Q336 468 320.5 480.5Q305 493 277 493Q253 493 234.5 482.5Q216 472 204 454Q192 436 186 412.5Q180 389 180 364V359Q194 379 223 392Q252 405 293 405Q339 405 377 389.5Q415 374 441 347Q467 320 481.5 284Q496 248 496 206Q496 160 480 120.5Q464 81 434.5 52Q405 23 362.5 6.5Q320 -10 268 -10Q208 -10 159.5 16.5Q111 43 80 92Q53 133 41 182.5Q29 232 29 293Q29 366 45 427Q61 488 92.5 532Q124 576 171 600Q218 624 279 624ZM185 202Q185 165 208.5 142Q232 119 269 119Q305 119 328.5 142Q352 165 352 202Q352 240 328.5 263Q305 286 269 286Q232 286 208.5 263Q185 240 185 202Z" glyph-name="six.lt" horiz-adv-x="520" /><glyph d="M253 650H389L141 -84H5Z" glyph-name="slash" horiz-adv-x="394" unicode="/" /><glyph d="M253 670H389L141 -64H5Z" glyph-name="slash.cap" horiz-adv-x="394" unicode="&#58465;" /><glyph glyph-name="space" horiz-adv-x="177" unicode=" " /><glyph glyph-name="space.tab" horiz-adv-x="260" /><glyph d="M237 363H350V244H237V222Q237 196 232 171Q227 146 216 131H479V0H24V131H68Q78 148 83 168.5Q88 189 88 222V244H24V363H88V417Q88 462 101.5 499.5Q115 537 141 565Q167 593 204 608.5Q241 624 288 624Q375 624 421 582.5Q467 541 481 466L343 442Q335 494 292 494Q263 494 250 474Q237 454 237 422Z" glyph-name="sterling" horiz-adv-x="503" unicode="&#163;" /><glyph d="M244 363H357V244H244V222Q244 196 239 171Q234 146 223 131H487V0H31V131H75Q85 148 90 168.5Q95 189 95 222V244H31V363H95V417Q95 462 108.5 499.5Q122 537 148 565Q174 593 211 608.5Q248 624 295 624Q382 624 428 582.5Q474 541 488 466L350 442Q342 494 300 494Q271 494 257.5 474Q244 454 244 422Z" glyph-name="sterling.lt" horiz-adv-x="520" /><glyph d="M75 327H9V450H75V574H230V450H324V327H230V177Q230 151 242 139.5Q254 128 276 128Q286 128 296.5 130.5Q307 133 313 136L335 11Q323 3 295.5 -3.5Q268 -10 232 -10Q157 -10 116 29Q75 68 75 154Z" glyph-name="t" horiz-adv-x="358" unicode="t" /><glyph d="M27 294H77V346H12V450H77V574H232V450H326V346H232V294H298V198H232V177Q232 151 244.5 139.5Q257 128 278 128Q289 128 299 130.5Q309 133 315 136L337 11Q325 3 297.5 -3.5Q270 -10 234 -10Q160 -10 118.5 29Q77 68 77 154V198H27Z" glyph-name="tbar" horiz-adv-x="360" unicode="&#359;" /><glyph d="M264 487 297 654H394L360 487ZM75 327H9V450H75V574H230V450H324V327H230V177Q230 151 242 139.5Q254 128 276 128Q286 128 296.5 130.5Q307 133 313 136L335 11Q323 3 295.5 -3.5Q268 -10 232 -10Q157 -10 116 29Q75 68 75 154Z" glyph-name="tcaron" horiz-adv-x="358" unicode="&#357;" /><glyph d="M75 327H9V450H75V574H230V450H324V327H230V177Q230 151 242 139.5Q254 128 276 128Q286 128 296.5 130.5Q307 133 313 136L335 11Q323 3 295.5 -3.5Q268 -10 232 -10Q157 -10 116 29Q75 68 75 154ZM146 -154Q165 -150 177 -144.5Q189 -139 197 -129H191Q166 -129 150 -116Q134 -103 134 -77Q134 -51 152.5 -37.5Q171 -24 195 -24Q232 -24 247.5 -45.5Q263 -67 263 -95Q263 -134 236 -161Q209 -188 156 -196Z" glyph-name="tcommaaccent" horiz-adv-x="358" unicode="&#355;" /><glyph d="M75 327H9V450H75V574H230V450H324V327H230V177Q230 151 242 139.5Q254 128 276 128Q286 128 296.5 130.5Q307 133 313 136L335 11Q323 3 295.5 -3.5Q268 -10 232 -10Q157 -10 116 29Q75 68 75 154ZM75 683Q75 718 97 739Q119 760 154 760Q189 760 210.5 739Q232 718 232 683Q232 649 210.5 627.5Q189 606 154 606Q119 606 97 627.5Q75 649 75 683Z" glyph-name="tdotaccent" horiz-adv-x="358" unicode="&#7787;" /><glyph d="M198 266H95V498L13 459V563L123 614H198ZM354 477H376Q391 477 402 483.5Q413 490 413 507Q413 518 406 526.5Q399 535 384 535Q368 535 360 524.5Q352 514 350 501L254 518Q262 562 294 590.5Q326 619 383 619Q443 619 477 589Q511 559 511 510Q511 489 501 469Q491 449 477 441Q495 432 505 413Q515 394 515 371Q515 323 479.5 292Q444 261 383 261Q327 261 292 288Q257 315 250 364L353 382Q354 367 362 357.5Q370 348 386 348Q400 348 408 356Q416 364 416 377Q416 392 406 399Q396 406 380 406H354ZM502 0H415L784 614H871ZM950 0H847V232L765 193V296L875 348H950ZM1154 354Q1209 354 1240 329.5Q1271 305 1279 261L1185 244Q1182 255 1175 261.5Q1168 268 1153 268Q1128 268 1117 252Q1106 236 1106 213V211Q1114 219 1129 225Q1144 231 1165 231Q1219 231 1250 199Q1281 167 1281 119Q1281 65 1245 29.5Q1209 -6 1148 -6Q1113 -6 1085.5 8.5Q1058 23 1041 49Q1007 95 1007 166Q1007 207 1016.5 241.5Q1026 276 1045 301Q1064 326 1091.5 340Q1119 354 1154 354ZM1109 115Q1109 98 1120.5 87.5Q1132 77 1149 77Q1166 77 1177 87.5Q1188 98 1188 115Q1188 133 1177 143.5Q1166 154 1149 154Q1132 154 1120.5 143.5Q1109 133 1109 115Z" glyph-name="thirteensixteenths" horiz-adv-x="1303" unicode="&#61985;" /><glyph d="M198 266H95V498L13 459V563L123 614H198ZM354 477H376Q391 477 402 483.5Q413 490 413 507Q413 518 406 526.5Q399 535 384 535Q368 535 360 524.5Q352 514 350 501L254 518Q262 562 294 590.5Q326 619 383 619Q443 619 477 589Q511 559 511 510Q511 489 501 469Q491 449 477 441Q495 432 505 413Q515 394 515 371Q515 323 479.5 292Q444 261 383 261Q327 261 292 288Q257 315 250 364L353 382Q354 367 362 357.5Q370 348 386 348Q400 348 408 356Q416 364 416 377Q416 392 406 399Q396 406 380 406H354ZM502 0H415L784 614H871ZM870 211H892Q907 211 918 217.5Q929 224 929 241Q929 252 921.5 260Q914 268 900 268Q884 268 876 258Q868 248 866 235L770 251Q778 296 810 324.5Q842 353 899 353Q959 353 993 322.5Q1027 292 1027 244Q1027 222 1017 202.5Q1007 183 993 174Q1011 165 1021 146.5Q1031 128 1031 105Q1031 57 995.5 25.5Q960 -6 899 -6Q843 -6 808 21.5Q773 49 766 98L869 115Q870 101 878 91Q886 81 902 81Q915 81 923.5 89.5Q932 98 932 111Q932 126 922 132.5Q912 139 896 139H870ZM1227 235Q1227 246 1220.5 253Q1214 260 1201 260Q1188 260 1181.5 252.5Q1175 245 1174 234L1068 252Q1078 301 1111 327Q1144 353 1199 353Q1261 353 1296.5 322.5Q1332 292 1332 242Q1332 207 1313 182.5Q1294 158 1268 135L1219 90H1331V0H1067V67L1196 186Q1210 200 1218.5 210.5Q1227 221 1227 235Z" glyph-name="thirteenthirtyseconds" horiz-adv-x="1353" /><glyph d="M118 477H141Q156 477 166.5 483.5Q177 490 177 507Q177 518 170 526.5Q163 535 149 535Q133 535 124.5 524.5Q116 514 115 501L18 518Q27 562 58.5 590.5Q90 619 147 619Q207 619 241.5 589Q276 559 276 510Q276 489 266 469Q256 449 242 441Q259 432 269 413Q279 394 279 371Q279 323 244 292Q209 261 148 261Q91 261 56.5 288Q22 315 14 364L117 382Q119 367 126.5 357.5Q134 348 151 348Q164 348 172.5 356Q181 364 181 377Q181 392 170.5 399Q160 406 144 406H118ZM498 266H395V498L313 459V563L423 614H498ZM502 0H415L784 614H871ZM870 211H892Q907 211 918 217.5Q929 224 929 241Q929 252 921.5 260Q914 268 900 268Q884 268 876 258Q868 248 866 235L770 251Q778 296 810 324.5Q842 353 899 353Q959 353 993 322.5Q1027 292 1027 244Q1027 222 1017 202.5Q1007 183 993 174Q1011 165 1021 146.5Q1031 128 1031 105Q1031 57 995.5 25.5Q960 -6 899 -6Q843 -6 808 21.5Q773 49 766 98L869 115Q870 101 878 91Q886 81 902 81Q915 81 923.5 89.5Q932 98 932 111Q932 126 922 132.5Q912 139 896 139H870ZM1227 235Q1227 246 1220.5 253Q1214 260 1201 260Q1188 260 1181.5 252.5Q1175 245 1174 234L1068 252Q1078 301 1111 327Q1144 353 1199 353Q1261 353 1296.5 322.5Q1332 292 1332 242Q1332 207 1313 182.5Q1294 158 1268 135L1219 90H1331V0H1067V67L1196 186Q1210 200 1218.5 210.5Q1227 221 1227 235Z" glyph-name="thirtyonethirtyseconds" horiz-adv-x="1353" /><glyph d="M199 -170H42V650H199V414Q215 432 245 446Q275 460 310 460Q359 460 396.5 441.5Q434 423 459.5 391Q485 359 498 316Q511 273 511 225Q511 177 498 134.5Q485 92 459.5 59.5Q434 27 396.5 8.5Q359 -10 310 -10Q275 -10 245 4Q215 18 199 36ZM199 166Q208 147 226.5 135.5Q245 124 268 124Q309 124 331.5 152.5Q354 181 354 225Q354 269 331.5 297.5Q309 326 268 326Q245 326 226.5 314.5Q208 303 199 284Z" glyph-name="thorn" horiz-adv-x="529" unicode="&#254;" /><glyph d="M193 368H226Q259 368 281.5 383Q304 398 304 430Q304 456 287 473Q270 490 241 490Q209 490 189.5 470Q170 450 168 422L19 448Q25 486 41.5 518.5Q58 551 86 574.5Q114 598 153.5 611Q193 624 243 624Q291 624 330.5 610Q370 596 398 571.5Q426 547 441 512.5Q456 478 456 436Q456 396 437 361Q418 326 390 310Q427 293 445.5 258Q464 223 464 181Q464 140 448 105Q432 70 403 44.5Q374 19 333 4.5Q292 -10 241 -10Q143 -10 81.5 37.5Q20 85 9 170L166 197Q169 165 187.5 145Q206 125 241 125Q271 125 291 142.5Q311 160 311 189Q311 221 288.5 237Q266 253 231 253H193Z" glyph-name="three" horiz-adv-x="487" unicode="3" /><glyph d="M118 41H141Q156 41 166.5 47.5Q177 54 177 71Q177 82 170 90Q163 98 149 98Q133 98 124.5 88Q116 78 115 65L18 81Q27 126 58.5 154.5Q90 183 147 183Q207 183 241.5 152.5Q276 122 276 74Q276 52 266 32.5Q256 13 242 4Q259 -5 269 -23.5Q279 -42 279 -65Q279 -113 244 -144.5Q209 -176 148 -176Q91 -176 56.5 -148.5Q22 -121 14 -72L117 -55Q119 -69 126.5 -79Q134 -89 151 -89Q164 -89 172.5 -80.5Q181 -72 181 -59Q181 -44 170.5 -37.5Q160 -31 144 -31H118Z" glyph-name="three.inf" horiz-adv-x="300" unicode="&#58740;" /><glyph d="M214 368H247Q280 368 302.5 383Q325 398 325 430Q325 456 308 473Q291 490 261 490Q229 490 210 470Q191 450 189 422L40 448Q45 486 62 518.5Q79 551 107 574.5Q135 598 174.5 611Q214 624 264 624Q312 624 351.5 610Q391 596 419 571.5Q447 547 462 512.5Q477 478 477 436Q477 396 458 361Q439 326 410 310Q447 293 466 258Q485 223 485 181Q485 140 469 105Q453 70 424 44.5Q395 19 354 4.5Q313 -10 262 -10Q164 -10 102.5 37.5Q41 85 30 170L187 197Q189 165 208 145Q227 125 262 125Q292 125 312 142.5Q332 160 332 189Q332 221 309.5 237Q287 253 252 253H214Z" glyph-name="three.lt" horiz-adv-x="520" /><glyph d="M118 477H141Q156 477 166.5 483.5Q177 490 177 507Q177 518 170 526.5Q163 535 149 535Q133 535 124.5 524.5Q116 514 115 501L18 518Q27 562 58.5 590.5Q90 619 147 619Q207 619 241.5 589Q276 559 276 510Q276 489 266 469Q256 449 242 441Q259 432 269 413Q279 394 279 371Q279 323 244 292Q209 261 148 261Q91 261 56.5 288Q22 315 14 364L117 382Q119 367 126.5 357.5Q134 348 151 348Q164 348 172.5 356Q181 364 181 377Q181 392 170.5 399Q160 406 144 406H118ZM267 0H180L549 614H636ZM641 143H685V194H776V143H819V57H776V0H685V57H530V137L633 348H734Z" glyph-name="threequarters" horiz-adv-x="834" unicode="&#190;" /><glyph d="M118 477H141Q156 477 166.5 483.5Q177 490 177 507Q177 518 170 526.5Q163 535 149 535Q133 535 124.5 524.5Q116 514 115 501L18 518Q27 562 58.5 590.5Q90 619 147 619Q207 619 241.5 589Q276 559 276 510Q276 489 266 469Q256 449 242 441Q259 432 269 413Q279 394 279 371Q279 323 244 292Q209 261 148 261Q91 261 56.5 288Q22 315 14 364L117 382Q119 367 126.5 357.5Q134 348 151 348Q164 348 172.5 356Q181 364 181 377Q181 392 170.5 399Q160 406 144 406H118ZM267 0H180L549 614H636ZM714 0H611V232L529 193V296L639 348H714ZM919 354Q974 354 1005 329.5Q1036 305 1043 261L950 244Q947 255 939.5 261.5Q932 268 918 268Q893 268 881.5 252Q870 236 870 213V211Q878 219 893 225Q908 231 929 231Q983 231 1014.5 199Q1046 167 1046 119Q1046 65 1009.5 29.5Q973 -6 913 -6Q878 -6 850.5 8.5Q823 23 806 49Q772 95 772 166Q772 207 781.5 241.5Q791 276 810 301Q829 326 856 340Q883 354 919 354ZM874 115Q874 98 885 87.5Q896 77 914 77Q931 77 942 87.5Q953 98 953 115Q953 133 942 143.5Q931 154 914 154Q896 154 885 143.5Q874 133 874 115Z" glyph-name="threesixteenths" horiz-adv-x="1067" unicode="&#61974;" /><glyph d="M118 477H141Q156 477 166.5 483.5Q177 490 177 507Q177 518 170 526.5Q163 535 149 535Q133 535 124.5 524.5Q116 514 115 501L18 518Q27 562 58.5 590.5Q90 619 147 619Q207 619 241.5 589Q276 559 276 510Q276 489 266 469Q256 449 242 441Q259 432 269 413Q279 394 279 371Q279 323 244 292Q209 261 148 261Q91 261 56.5 288Q22 315 14 364L117 382Q119 367 126.5 357.5Q134 348 151 348Q164 348 172.5 356Q181 364 181 377Q181 392 170.5 399Q160 406 144 406H118Z" glyph-name="threesuperior" horiz-adv-x="300" unicode="&#179;" /><glyph d="M118 477H141Q156 477 166.5 483.5Q177 490 177 507Q177 518 170 526.5Q163 535 149 535Q133 535 124.5 524.5Q116 514 115 501L18 518Q27 562 58.5 590.5Q90 619 147 619Q207 619 241.5 589Q276 559 276 510Q276 489 266 469Q256 449 242 441Q259 432 269 413Q279 394 279 371Q279 323 244 292Q209 261 148 261Q91 261 56.5 288Q22 315 14 364L117 382Q119 367 126.5 357.5Q134 348 151 348Q164 348 172.5 356Q181 364 181 377Q181 392 170.5 399Q160 406 144 406H118ZM267 0H180L549 614H636ZM634 211H656Q672 211 682.5 217.5Q693 224 693 241Q693 252 686 260Q679 268 665 268Q648 268 640 258Q632 248 631 235L534 251Q543 296 574.5 324.5Q606 353 663 353Q723 353 757.5 322.5Q792 292 792 244Q792 222 782 202.5Q772 183 758 174Q775 165 785 146.5Q795 128 795 105Q795 57 760 25.5Q725 -6 663 -6Q607 -6 572.5 21.5Q538 49 530 98L633 115Q634 101 642 91Q650 81 667 81Q680 81 688 89.5Q696 98 696 111Q696 126 686 132.5Q676 139 660 139H634ZM992 235Q992 246 985 253Q978 260 965 260Q952 260 946 252.5Q940 245 938 234L833 252Q842 301 875 327Q908 353 964 353Q1026 353 1061 322.5Q1096 292 1096 242Q1096 207 1077 182.5Q1058 158 1032 135L983 90H1095V0H832V67L960 186Q974 200 983 210.5Q992 221 992 235Z" glyph-name="threethirtyseconds" horiz-adv-x="1118" /><glyph d="M406 645Q406 582 383 539.5Q360 497 313 497Q294 497 280 502Q266 507 254.5 513.5Q243 520 232 525Q221 530 209 530Q198 530 191.5 523.5Q185 517 184 503H94Q94 566 117 608.5Q140 651 187 651Q206 651 220 645.5Q234 640 245.5 634Q257 628 268 622.5Q279 617 291 617Q314 617 316 645Z" glyph-name="tilde" horiz-adv-x="500" unicode="&#732;" /><glyph d="M407 809Q407 779 402.5 752Q398 725 387.5 704Q377 683 360.5 671Q344 659 319 659Q301 659 286 664.5Q271 670 257 676.5Q243 683 230 688.5Q217 694 204 694Q180 694 178 663H93Q93 693 97.5 720Q102 747 112.5 768Q123 789 139.5 801Q156 813 181 813Q199 813 214.5 807.5Q230 802 244 795.5Q258 789 270.5 783.5Q283 778 296 778Q320 778 322 809Z" glyph-name="tilde.cap" horiz-adv-x="500" unicode="&#58404;" /><glyph d="M20 614H255V541H178V360H96V541H20ZM407 360 360 501V360H288V614H384L432 470L480 614H576V360H503V501L456 360Z" glyph-name="trademark" horiz-adv-x="610" unicode="&#8482;" /><glyph d="M176 501Q176 512 169 519.5Q162 527 150 527Q137 527 130.5 519Q124 511 122 500L17 519Q27 567 59.5 593Q92 619 148 619Q210 619 245.5 588.5Q281 558 281 508Q281 473 261.5 449Q242 425 216 401L168 356H279V266H16V334L145 453Q159 467 167.5 477.5Q176 488 176 501ZM457 417Q436 417 425 404H337V614H563V529H422V485Q430 490 444 493Q458 496 471 496Q527 496 558.5 464.5Q590 433 590 382Q590 327 554.5 294Q519 261 459 261Q396 261 362.5 287.5Q329 314 321 362L422 380Q424 363 434 355Q444 347 458 347Q474 347 483 356.5Q492 366 492 382Q492 396 483 406.5Q474 417 457 417ZM574 0H487L856 614H943ZM942 211H964Q979 211 990 217.5Q1001 224 1001 241Q1001 252 993.5 260Q986 268 972 268Q956 268 948 258Q940 248 938 235L842 251Q850 296 882 324.5Q914 353 971 353Q1031 353 1065 322.5Q1099 292 1099 244Q1099 222 1089 202.5Q1079 183 1065 174Q1083 165 1093 146.5Q1103 128 1103 105Q1103 57 1067.5 25.5Q1032 -6 971 -6Q915 -6 880 21.5Q845 49 838 98L941 115Q942 101 950 91Q958 81 974 81Q987 81 995.5 89.5Q1004 98 1004 111Q1004 126 994 132.5Q984 139 968 139H942ZM1299 235Q1299 246 1292.5 253Q1286 260 1273 260Q1260 260 1253.5 252.5Q1247 245 1246 234L1140 252Q1150 301 1183 327Q1216 353 1271 353Q1333 353 1368.5 322.5Q1404 292 1404 242Q1404 207 1385 182.5Q1366 158 1340 135L1291 90H1403V0H1139V67L1268 186Q1282 200 1290.5 210.5Q1299 221 1299 235Z" glyph-name="twentyfivethirtyseconds" horiz-adv-x="1425" /><glyph d="M176 501Q176 512 169 519.5Q162 527 150 527Q137 527 130.5 519Q124 511 122 500L17 519Q27 567 59.5 593Q92 619 148 619Q210 619 245.5 588.5Q281 558 281 508Q281 473 261.5 449Q242 425 216 401L168 356H279V266H16V334L145 453Q159 467 167.5 477.5Q176 488 176 501ZM451 261Q396 261 365 285Q334 309 326 353L420 370Q422 359 429.5 352.5Q437 346 452 346Q477 346 488 362Q499 378 499 401V403Q491 395 476 389Q461 383 440 383Q386 383 355 415.5Q324 448 324 496Q324 550 360 585Q396 620 457 620Q492 620 519.5 605.5Q547 591 564 565Q598 519 598 449Q598 407 588 372.5Q578 338 559.5 313.5Q541 289 513.5 275Q486 261 451 261ZM496 499Q496 516 485 526.5Q474 537 456 537Q439 537 428 526.5Q417 516 417 499Q417 481 428 470Q439 459 456 459Q474 459 485 470Q496 481 496 499ZM585 0H498L867 614H954ZM952 211H974Q989 211 1000 217.5Q1011 224 1011 241Q1011 252 1004 260Q997 268 982 268Q966 268 958 258Q950 248 948 235L852 251Q860 296 892 324.5Q924 353 981 353Q1041 353 1075 322.5Q1109 292 1109 244Q1109 222 1099 202.5Q1089 183 1075 174Q1093 165 1103 146.5Q1113 128 1113 105Q1113 57 1077.5 25.5Q1042 -6 981 -6Q925 -6 890 21.5Q855 49 848 98L951 115Q952 101 960 91Q968 81 984 81Q998 81 1006 89.5Q1014 98 1014 111Q1014 126 1004 132.5Q994 139 978 139H952ZM1309 235Q1309 246 1302.5 253Q1296 260 1283 260Q1270 260 1263.5 252.5Q1257 245 1256 234L1150 252Q1160 301 1193 327Q1226 353 1282 353Q1343 353 1378.5 322.5Q1414 292 1414 242Q1414 207 1395 182.5Q1376 158 1350 135L1301 90H1413V0H1149V67L1278 186Q1292 200 1300.5 210.5Q1309 221 1309 235Z" glyph-name="twentyninethirtyseconds" horiz-adv-x="1435" /><glyph d="M176 501Q176 512 169 519.5Q162 527 150 527Q137 527 130.5 519Q124 511 122 500L17 519Q27 567 59.5 593Q92 619 148 619Q210 619 245.5 588.5Q281 558 281 508Q281 473 261.5 449Q242 425 216 401L168 356H279V266H16V334L145 453Q159 467 167.5 477.5Q176 488 176 501ZM500 266H397V498L315 459V563L425 614H500ZM504 0H417L786 614H873ZM872 211H894Q909 211 920 217.5Q931 224 931 241Q931 252 923.5 260Q916 268 902 268Q886 268 878 258Q870 248 868 235L772 251Q780 296 812 324.5Q844 353 901 353Q961 353 995 322.5Q1029 292 1029 244Q1029 222 1019 202.5Q1009 183 995 174Q1013 165 1023 146.5Q1033 128 1033 105Q1033 57 997.5 25.5Q962 -6 901 -6Q845 -6 810 21.5Q775 49 768 98L871 115Q872 101 880 91Q888 81 904 81Q917 81 925.5 89.5Q934 98 934 111Q934 126 924 132.5Q914 139 898 139H872ZM1229 235Q1229 246 1222.5 253Q1216 260 1203 260Q1190 260 1183.5 252.5Q1177 245 1176 234L1070 252Q1080 301 1113 327Q1146 353 1201 353Q1263 353 1298.5 322.5Q1334 292 1334 242Q1334 207 1315 182.5Q1296 158 1270 135L1221 90H1333V0H1069V67L1198 186Q1212 200 1220.5 210.5Q1229 221 1229 235Z" glyph-name="twentyonethirtyseconds" horiz-adv-x="1355" /><glyph d="M176 501Q176 512 169 519.5Q162 527 150 527Q137 527 130.5 519Q124 511 122 500L17 519Q27 567 59.5 593Q92 619 148 619Q210 619 245.5 588.5Q281 558 281 508Q281 473 261.5 449Q242 425 216 401L168 356H279V266H16V334L145 453Q159 467 167.5 477.5Q176 488 176 501ZM458 266H350L454 524H318V614H569V544ZM556 0H469L838 614H925ZM923 211H945Q961 211 971.5 217.5Q982 224 982 241Q982 252 975 260Q968 268 954 268Q937 268 929 258Q921 248 920 235L823 251Q832 296 863.5 324.5Q895 353 952 353Q1012 353 1046.5 322.5Q1081 292 1081 244Q1081 222 1071 202.5Q1061 183 1047 174Q1064 165 1074 146.5Q1084 128 1084 105Q1084 57 1049 25.5Q1014 -6 952 -6Q896 -6 861.5 21.5Q827 49 819 98L922 115Q923 101 931 91Q939 81 956 81Q969 81 977 89.5Q985 98 985 111Q985 126 975 132.5Q965 139 949 139H923ZM1281 235Q1281 246 1274 253Q1267 260 1254 260Q1241 260 1235 252.5Q1229 245 1227 234L1122 252Q1131 301 1164 327Q1197 353 1253 353Q1315 353 1350 322.5Q1385 292 1385 242Q1385 207 1366 182.5Q1347 158 1321 135L1272 90H1384V0H1121V67L1249 186Q1263 200 1272 210.5Q1281 221 1281 235Z" glyph-name="twentyseventhirtyseconds" horiz-adv-x="1407" /><glyph d="M176 501Q176 512 169 519.5Q162 527 150 527Q137 527 130.5 519Q124 511 122 500L17 519Q27 567 59.5 593Q92 619 148 619Q210 619 245.5 588.5Q281 558 281 508Q281 473 261.5 449Q242 425 216 401L168 356H279V266H16V334L145 453Q159 467 167.5 477.5Q176 488 176 501ZM420 477H442Q458 477 468.5 483.5Q479 490 479 507Q479 518 472 526.5Q465 535 451 535Q434 535 426 524.5Q418 514 417 501L320 518Q329 562 360.5 590.5Q392 619 449 619Q509 619 543.5 589Q578 559 578 510Q578 489 568 469Q558 449 544 441Q561 432 571 413Q581 394 581 371Q581 323 546 292Q511 261 449 261Q393 261 358.5 288Q324 315 316 364L419 382Q420 367 428 357.5Q436 348 453 348Q466 348 474 356Q482 364 482 377Q482 392 472 399Q462 406 446 406H420ZM569 0H482L851 614H938ZM936 211H958Q974 211 984.5 217.5Q995 224 995 241Q995 252 988 260Q981 268 967 268Q950 268 942 258Q934 248 933 235L836 251Q844 296 876 324.5Q908 353 965 353Q1025 353 1059.5 322.5Q1094 292 1094 244Q1094 222 1083.5 202.5Q1073 183 1059 174Q1077 165 1087 146.5Q1097 128 1097 105Q1097 57 1061.5 25.5Q1026 -6 965 -6Q909 -6 874.5 21.5Q840 49 832 98L935 115Q936 101 944 91Q952 81 968 81Q982 81 990 89.5Q998 98 998 111Q998 126 988 132.5Q978 139 962 139H936ZM1294 235Q1294 246 1287 253Q1280 260 1267 260Q1254 260 1248 252.5Q1242 245 1240 234L1135 252Q1144 301 1177 327Q1210 353 1266 353Q1328 353 1363 322.5Q1398 292 1398 242Q1398 207 1379 182.5Q1360 158 1334 135L1285 90H1397V0H1134V67L1262 186Q1276 200 1285 210.5Q1294 221 1294 235Z" glyph-name="twentythreethirtyseconds" horiz-adv-x="1420" /><glyph d="M299 423Q299 448 282.5 464Q266 480 240 480Q209 480 194 462Q179 444 176 419L17 446Q30 528 85 576Q140 624 240 624Q295 624 336 610Q377 596 405 570.5Q433 545 447 510Q461 475 461 433Q461 403 451.5 377.5Q442 352 425.5 328Q409 304 388 282Q367 260 344 238L243 139H463V0H18V103L229 313Q261 345 280 370.5Q299 396 299 423Z" glyph-name="two" horiz-adv-x="491" unicode="2" /><glyph d="M176 65Q176 76 169 83Q162 90 150 90Q137 90 130.5 82.5Q124 75 122 64L17 82Q27 131 59.5 157Q92 183 148 183Q210 183 245.5 152.5Q281 122 281 72Q281 37 261.5 12.5Q242 -12 216 -35L168 -80H279V-170H16V-103L145 16Q159 30 167.5 40.5Q176 51 176 65Z" glyph-name="two.inf" horiz-adv-x="302" unicode="&#58739;" /><glyph d="M315 423Q315 448 298.5 464Q282 480 256 480Q225 480 210 462Q195 444 192 419L33 446Q46 528 101 576Q156 624 256 624Q311 624 352 610Q393 596 421 570.5Q449 545 463 510Q477 475 477 433Q477 403 467.5 377.5Q458 352 441.5 328Q425 304 403.5 282Q382 260 359 238L259 139H479V0H34V103L245 313Q277 345 296 370.5Q315 396 315 423Z" glyph-name="two.lt" horiz-adv-x="520" /><glyph d="M176 501Q176 512 169 519.5Q162 527 150 527Q137 527 130.5 519Q124 511 122 500L17 519Q27 567 59.5 593Q92 619 148 619Q210 619 245.5 588.5Q281 558 281 508Q281 473 261.5 449Q242 425 216 401L168 356H279V266H16V334L145 453Q159 467 167.5 477.5Q176 488 176 501Z" glyph-name="twosuperior" horiz-adv-x="302" unicode="&#178;" /><glyph d="M475 0H318V38Q300 17 268 3.5Q236 -10 198 -10Q123 -10 81.5 35Q40 80 40 155V450H197V192Q197 163 210.5 145Q224 127 254 127Q276 127 294 140Q312 153 318 176V450H475Z" glyph-name="u" horiz-adv-x="517" unicode="u" /><glyph d="M184 498 266 650H415L328 498ZM475 0H318V38Q300 17 268 3.5Q236 -10 198 -10Q123 -10 81.5 35Q40 80 40 155V450H197V192Q197 163 210.5 145Q224 127 254 127Q276 127 294 140Q312 153 318 176V450H475Z" glyph-name="uacute" horiz-adv-x="517" unicode="&#250;" /><glyph d="M475 0H318V38Q300 17 268 3.5Q236 -10 198 -10Q123 -10 81.5 35Q40 80 40 155V450H197V192Q197 163 210.5 145Q224 127 254 127Q276 127 294 140Q312 153 318 176V450H475ZM258 488Q195 488 153 526.5Q111 565 110 646H219Q220 594 258 594Q297 594 298 646H407Q405 565 363 526.5Q321 488 258 488Z" glyph-name="ubreve" horiz-adv-x="517" unicode="&#365;" /><glyph d="M414 498H300L258 553L217 498H103L197 650H320ZM475 0H318V38Q300 17 268 3.5Q236 -10 198 -10Q123 -10 81.5 35Q40 80 40 155V450H197V192Q197 163 210.5 145Q224 127 254 127Q276 127 294 140Q312 153 318 176V450H475Z" glyph-name="ucircumflex" horiz-adv-x="517" unicode="&#251;" /><glyph d="M90 573Q90 607 111.5 628.5Q133 650 168 650Q203 650 224.5 628.5Q246 607 246 573Q246 539 224.5 517.5Q203 496 168 496Q133 496 111.5 517.5Q90 539 90 573ZM272 573Q272 607 294 628.5Q316 650 351 650Q386 650 407.5 628.5Q429 607 429 573Q429 539 407.5 517.5Q386 496 351 496Q316 496 294 517.5Q272 539 272 573ZM475 0H318V38Q300 17 268 3.5Q236 -10 198 -10Q123 -10 81.5 35Q40 80 40 155V450H197V192Q197 163 210.5 145Q224 127 254 127Q276 127 294 140Q312 153 318 176V450H475Z" glyph-name="udieresis" horiz-adv-x="517" unicode="&#252;" /><glyph d="M475 0H318V38Q300 17 268 3.5Q236 -10 198 -10Q123 -10 81.5 35Q40 80 40 155V450H197V192Q197 163 210.5 145Q224 127 254 127Q276 127 294 140Q312 153 318 176V450H475ZM188 498 101 650H250L333 498Z" glyph-name="ugrave" horiz-adv-x="517" unicode="&#249;" /><glyph d="M475 0H318V38Q300 17 268 3.5Q236 -10 198 -10Q123 -10 81.5 35Q40 80 40 155V450H197V192Q197 163 210.5 145Q224 127 254 127Q276 127 294 140Q312 153 318 176V450H475ZM117 498 195 650H326L242 498ZM276 498 355 650H485L401 498Z" glyph-name="uhungarumlaut" horiz-adv-x="517" unicode="&#369;" /><glyph d="M475 0H318V38Q300 17 268 3.5Q236 -10 198 -10Q123 -10 81.5 35Q40 80 40 155V450H197V192Q197 163 210.5 145Q224 127 254 127Q276 127 294 140Q312 153 318 176V450H475ZM132 617H385V507H132Z" glyph-name="umacron" horiz-adv-x="517" unicode="&#363;" /><glyph d="M20 -42H361V-161H20Z" glyph-name="underscore" horiz-adv-x="381" unicode="_" /><glyph glyph-name="uni00A0" horiz-adv-x="199" unicode="&#160;" /><glyph d="M170 354Q197 354 207.5 380Q218 406 218 440Q218 475 207.5 500.5Q197 526 170 526Q144 526 133.5 500.5Q123 475 123 441Q123 406 133.5 380Q144 354 170 354ZM170 261Q137 261 109.5 274Q82 287 62.5 311Q43 335 32 368Q21 401 21 441Q21 480 32 513Q43 546 62.5 570Q82 594 109.5 607Q137 620 170 620Q203 620 230.5 607Q258 594 277.5 570Q297 546 308 513Q319 480 319 440Q319 400 308 367Q297 334 277.5 310.5Q258 287 230.5 274Q203 261 170 261Z" glyph-name="uni2070" horiz-adv-x="340" unicode="&#8304;" /><glyph d="M125 410H169V460H260V410H303V323H260V266H169V323H14V403L117 614H218Z" glyph-name="uni2074" horiz-adv-x="318" unicode="&#8308;" /><glyph d="M155 417Q134 417 123 404H35V614H261V529H120V485Q128 490 142 493Q156 496 170 496Q225 496 256.5 464.5Q288 433 288 382Q288 327 252.5 294Q217 261 157 261Q95 261 61 287.5Q27 314 19 362L120 380Q122 363 132 355Q142 347 156 347Q172 347 181 356.5Q190 366 190 382Q190 396 181 406.5Q172 417 155 417Z" glyph-name="uni2075" horiz-adv-x="306" unicode="&#8309;" /><glyph d="M167 620Q222 620 253 595.5Q284 571 292 527L198 511Q195 522 188 528Q181 534 166 534Q141 534 130 518.5Q119 503 119 480V478Q127 486 142 491.5Q157 497 178 497Q232 497 263 465Q294 433 294 385Q294 331 258 296Q222 261 161 261Q126 261 98.5 275.5Q71 290 54 315Q20 361 20 432Q20 473 29.5 507.5Q39 542 58 567Q77 592 104.5 606Q132 620 167 620ZM122 382Q122 365 133.5 354.5Q145 344 162 344Q179 344 190 354.5Q201 365 201 382Q201 399 190 410Q179 421 162 421Q145 421 133.5 410Q122 399 122 382Z" glyph-name="uni2076" horiz-adv-x="316" unicode="&#8310;" /><glyph d="M156 266H48L152 524H16V614H268V544Z" glyph-name="uni2077" horiz-adv-x="287" unicode="&#8311;" /><glyph d="M155 340Q171 340 181 348.5Q191 357 191 371Q191 385 181 394Q171 403 155 403Q139 403 128.5 394Q118 385 118 371Q118 357 128.5 348.5Q139 340 155 340ZM155 483Q170 483 179 491.5Q188 500 188 513Q188 526 179 534.5Q170 543 155 543Q140 543 131 534.5Q122 526 122 513Q122 500 131 491.5Q140 483 155 483ZM155 261Q127 261 102 268Q77 275 58.5 288Q40 301 29 320Q18 339 18 363Q18 392 32.5 412.5Q47 433 70 442Q50 453 39.5 472.5Q29 492 29 516Q29 541 39.5 560.5Q50 580 67.5 593Q85 606 107.5 613Q130 620 155 620Q180 620 202.5 613Q225 606 242 593Q259 580 269.5 560.5Q280 541 280 516Q280 492 270 472.5Q260 453 240 442Q263 433 277.5 412.5Q292 392 292 363Q292 339 281.5 320Q271 301 252 288Q233 275 208 268Q183 261 155 261Z" glyph-name="uni2078" horiz-adv-x="311" unicode="&#8312;" /><glyph d="M149 261Q94 261 63 285Q32 309 24 353L118 370Q121 359 128 352.5Q135 346 150 346Q175 346 186 362Q197 378 197 401V403Q190 395 174.5 389Q159 383 138 383Q84 383 53 415.5Q22 448 22 496Q22 550 58 585Q94 620 155 620Q190 620 217.5 605.5Q245 591 262 565Q296 519 296 449Q296 407 286 372.5Q276 338 257.5 313.5Q239 289 211.5 275Q184 261 149 261ZM194 499Q194 516 183 526.5Q172 537 154 537Q137 537 126 526.5Q115 516 115 499Q115 481 126 470Q137 459 154 459Q172 459 183 470Q194 481 194 499Z" glyph-name="uni2079" horiz-adv-x="316" unicode="&#8313;" /><glyph d="M207 567V478H296V393H207V304H122V393H33V478H122V567Z" glyph-name="uni207A" horiz-adv-x="329" unicode="&#8314;" /><glyph d="M35 479H299V393H35Z" glyph-name="uni207B" horiz-adv-x="333" unicode="&#8315;" /><glyph d="M40 421H304V344H40ZM40 531H304V453H40Z" glyph-name="uni207C" horiz-adv-x="344" unicode="&#8316;" /><glyph d="M18 441Q18 490 31 529.5Q44 569 66 599Q88 629 116.5 649Q145 669 177 679L193 587Q180 582 167 572Q154 562 143.5 544.5Q133 527 126 501.5Q119 476 119 441Q119 405 126 379.5Q133 354 143.5 336.5Q154 319 167 308.5Q180 298 193 293L177 203Q145 212 116.5 232Q88 252 66 282Q44 312 31 351.5Q18 391 18 441Z" glyph-name="uni207D" horiz-adv-x="213" unicode="&#8317;" /><glyph d="M194 441Q194 391 181 351.5Q168 312 146 282Q124 252 95.5 232Q67 212 36 203L20 293Q33 298 46 308.5Q59 319 69.5 336.5Q80 354 86.5 379.5Q93 405 93 441Q93 476 86.5 501.5Q80 527 69.5 544.5Q59 562 46 572Q33 582 20 587L36 679Q67 669 95.5 649Q124 629 146 599Q168 569 181 529.5Q194 490 194 441Z" glyph-name="uni207E" horiz-adv-x="213" unicode="&#8318;" /><glyph d="M170 88Q197 88 207.5 113.5Q218 139 218 174Q218 208 207.5 234Q197 260 170 260Q144 260 133.5 234Q123 208 123 174Q123 139 133.5 113.5Q144 88 170 88ZM170 -6Q137 -6 109.5 7Q82 20 62.5 44Q43 68 32 101Q21 134 21 174Q21 214 32 247Q43 280 62.5 304Q82 328 109.5 341Q137 354 170 354Q203 354 230.5 341Q258 328 277.5 304Q297 280 308 247Q319 214 319 174Q319 134 308 101Q297 68 277.5 44Q258 20 230.5 7Q203 -6 170 -6Z" glyph-name="uni2080" horiz-adv-x="340" unicode="&#8320;" /><glyph d="M198 0H95V232L13 193V296L123 348H198Z" glyph-name="uni2081" horiz-adv-x="236" unicode="&#8321;" /><glyph d="M176 235Q176 246 169 253Q162 260 150 260Q137 260 130.5 252.5Q124 245 122 234L17 252Q27 301 59.5 327Q92 353 148 353Q210 353 245.5 322.5Q281 292 281 242Q281 207 261.5 182.5Q242 158 216 135L168 90H279V0H16V67L145 186Q159 200 167.5 210.5Q176 221 176 235Z" glyph-name="uni2082" horiz-adv-x="302" unicode="&#8322;" /><glyph d="M118 211H141Q156 211 166.5 217.5Q177 224 177 241Q177 252 170 260Q163 268 149 268Q133 268 124.5 258Q116 248 115 235L18 251Q27 296 58.5 324.5Q90 353 147 353Q207 353 241.5 322.5Q276 292 276 244Q276 222 266 202.5Q256 183 242 174Q259 165 269 146.5Q279 128 279 105Q279 57 244 25.5Q209 -6 148 -6Q91 -6 56.5 21.5Q22 49 14 98L117 115Q119 101 126.5 91Q134 81 151 81Q164 81 172.5 89.5Q181 98 181 111Q181 126 170.5 132.5Q160 139 144 139H118Z" glyph-name="uni2083" horiz-adv-x="300" unicode="&#8323;" /><glyph d="M125 143H169V194H260V143H303V57H260V0H169V57H14V137L117 348H218Z" glyph-name="uni2084" horiz-adv-x="318" unicode="&#8324;" /><glyph d="M155 151Q135 151 123 137H35V348H261V262H120V219Q128 224 142 227Q156 230 170 230Q225 230 256.5 198.5Q288 167 288 116Q288 61 252.5 27.5Q217 -6 157 -6Q95 -6 61 20.5Q27 47 19 96L120 114Q122 97 132 89Q142 81 156 81Q172 81 181 90.5Q190 100 190 116Q190 130 181 140.5Q172 151 155 151Z" glyph-name="uni2085" horiz-adv-x="306" unicode="&#8325;" /><glyph d="M167 354Q222 354 253 329.5Q284 305 292 261L198 244Q195 255 188 261.5Q181 268 166 268Q141 268 130 252Q119 236 119 213V211Q127 219 142 225Q157 231 178 231Q232 231 263 199Q294 167 294 119Q294 65 258 29.5Q222 -6 161 -6Q126 -6 98.5 8.5Q71 23 54 49Q20 95 20 166Q20 207 29.5 241.5Q39 276 58 301Q77 326 104.5 340Q132 354 167 354ZM122 115Q122 98 133.5 87.5Q145 77 162 77Q179 77 190 87.5Q201 98 201 115Q201 133 190 143.5Q179 154 162 154Q145 154 133.5 143.5Q122 133 122 115Z" glyph-name="uni2086" horiz-adv-x="316" unicode="&#8326;" /><glyph d="M156 0H48L152 258H16V348H268V278Z" glyph-name="uni2087" horiz-adv-x="287" unicode="&#8327;" /><glyph d="M155 74Q171 74 181 82.5Q191 91 191 105Q191 119 181 128Q171 137 155 137Q139 137 128.5 128Q118 119 118 105Q118 91 128.5 82.5Q139 74 155 74ZM155 217Q170 217 179 225.5Q188 234 188 247Q188 260 179 268.5Q170 277 155 277Q140 277 131 268.5Q122 260 122 247Q122 234 131 225.5Q140 217 155 217ZM155 -6Q127 -6 102 1Q77 8 58.5 21Q40 34 29 53.5Q18 73 18 97Q18 126 32.5 146.5Q47 167 70 175Q50 186 39.5 206Q29 226 29 249Q29 274 39.5 294Q50 314 67.5 327Q85 340 107.5 347Q130 354 155 354Q180 354 202.5 347Q225 340 242 327Q259 314 269.5 294Q280 274 280 249Q280 226 270 206Q260 186 240 175Q263 167 277.5 146.5Q292 126 292 97Q292 73 281.5 53.5Q271 34 252 21Q233 8 208 1Q183 -6 155 -6Z" glyph-name="uni2088" horiz-adv-x="311" unicode="&#8328;" /><glyph d="M149 -6Q94 -6 63 18.5Q32 43 24 87L118 103Q121 92 128 86Q135 80 150 80Q175 80 186 96Q197 112 197 135V136Q190 128 174.5 122.5Q159 117 138 117Q84 117 53 149Q22 181 22 229Q22 256 31.5 278.5Q41 301 58 318Q75 335 100 344.5Q125 354 155 354Q190 354 217.5 339Q245 324 262 299Q296 253 296 182Q296 141 286 106.5Q276 72 257.5 47Q239 22 211.5 8Q184 -6 149 -6ZM194 232Q194 249 183 260Q172 271 154 271Q137 271 126 260Q115 249 115 232Q115 215 126 204Q137 193 154 193Q172 193 183 204Q194 215 194 232Z" glyph-name="uni2089" horiz-adv-x="316" unicode="&#8329;" /><glyph d="M207 301V211H296V127H207V37H122V127H33V211H122V301Z" glyph-name="uni208A" horiz-adv-x="329" unicode="&#8330;" /><glyph d="M35 212H299V127H35Z" glyph-name="uni208B" horiz-adv-x="333" unicode="&#8331;" /><glyph d="M40 155H304V78H40ZM40 264H304V187H40Z" glyph-name="uni208C" horiz-adv-x="344" unicode="&#8332;" /><glyph d="M18 174Q18 223 31 263Q44 303 66 333Q88 363 116.5 382.5Q145 402 177 412L193 321Q180 316 167 306Q154 296 143.5 278.5Q133 261 126 235.5Q119 210 119 174Q119 139 126 113.5Q133 88 143.5 70.5Q154 53 167 42.5Q180 32 193 27L177 -64Q145 -54 116.5 -34Q88 -14 66 16Q44 46 31 85.5Q18 125 18 174Z" glyph-name="uni208D" horiz-adv-x="213" unicode="&#8333;" /><glyph d="M194 174Q194 125 181 85.5Q168 46 146 16Q124 -14 95.5 -34Q67 -54 36 -64L20 27Q33 32 46 42.5Q59 53 69.5 70.5Q80 88 86.5 113.5Q93 139 93 174Q93 210 86.5 235.5Q80 261 69.5 278.5Q59 296 46 306Q33 316 20 321L36 412Q67 402 95.5 382.5Q124 363 146 333Q168 303 181 263Q194 223 194 174Z" glyph-name="uni208E" horiz-adv-x="213" unicode="&#8334;" /><glyph d="M198 266H95V498L13 459V563L123 614H198ZM203 0H116L485 614H572ZM570 211H592Q607 211 618 217.5Q629 224 629 241Q629 252 622 260Q615 268 600 268Q584 268 576 258Q568 248 566 235L470 251Q478 296 510 324.5Q542 353 599 353Q659 353 693 322.5Q727 292 727 244Q727 222 717 202.5Q707 183 693 174Q711 165 721 146.5Q731 128 731 105Q731 57 695.5 25.5Q660 -6 599 -6Q543 -6 508 21.5Q473 49 466 98L569 115Q570 101 578 91Q586 81 602 81Q616 81 624 89.5Q632 98 632 111Q632 126 622 132.5Q612 139 596 139H570Z" glyph-name="uni2153" horiz-adv-x="751" unicode="&#8531;" /><glyph d="M176 501Q176 512 169 519.5Q162 527 150 527Q137 527 130.5 519Q124 511 122 500L17 519Q27 567 59.5 593Q92 619 148 619Q210 619 245.5 588.5Q281 558 281 508Q281 473 261.5 449Q242 425 216 401L168 356H279V266H16V334L145 453Q159 467 167.5 477.5Q176 488 176 501ZM269 0H182L551 614H638ZM636 211H658Q674 211 684.5 217.5Q695 224 695 241Q695 252 688 260Q681 268 667 268Q650 268 642 258Q634 248 633 235L536 251Q545 296 576.5 324.5Q608 353 665 353Q725 353 759.5 322.5Q794 292 794 244Q794 222 784 202.5Q774 183 760 174Q777 165 787 146.5Q797 128 797 105Q797 57 762 25.5Q727 -6 665 -6Q609 -6 574.5 21.5Q540 49 532 98L635 115Q636 101 644 91Q652 81 669 81Q682 81 690 89.5Q698 98 698 111Q698 126 688 132.5Q678 139 662 139H636Z" glyph-name="uni2154" horiz-adv-x="818" unicode="&#8532;" /><glyph d="M198 266H95V498L13 459V563L123 614H198ZM203 0H116L485 614H572ZM607 151Q587 151 575 137H487V348H712V262H571V219Q579 224 593.5 227Q608 230 621 230Q677 230 708.5 198.5Q740 167 740 116Q740 61 704.5 27.5Q669 -6 609 -6Q546 -6 512 20.5Q478 47 471 96L572 114Q574 97 584 89Q594 81 608 81Q623 81 632 90.5Q641 100 641 116Q641 130 632.5 140.5Q624 151 607 151Z" glyph-name="uni2155" horiz-adv-x="757" unicode="&#8533;" /><glyph d="M176 501Q176 512 169 519.5Q162 527 150 527Q137 527 130.5 519Q124 511 122 500L17 519Q27 567 59.5 593Q92 619 148 619Q210 619 245.5 588.5Q281 558 281 508Q281 473 261.5 449Q242 425 216 401L168 356H279V266H16V334L145 453Q159 467 167.5 477.5Q176 488 176 501ZM269 0H182L551 614H638ZM673 151Q653 151 641 137H553V348H779V262H638V219Q646 224 660 227Q674 230 687 230Q743 230 774.5 198.5Q806 167 806 116Q806 61 770.5 27.5Q735 -6 675 -6Q612 -6 578.5 20.5Q545 47 537 96L638 114Q640 97 650 89Q660 81 674 81Q690 81 699 90.5Q708 100 708 116Q708 130 699 140.5Q690 151 673 151Z" glyph-name="uni2156" horiz-adv-x="823" unicode="&#8534;" /><glyph d="M118 477H141Q156 477 166.5 483.5Q177 490 177 507Q177 518 170 526.5Q163 535 149 535Q133 535 124.5 524.5Q116 514 115 501L18 518Q27 562 58.5 590.5Q90 619 147 619Q207 619 241.5 589Q276 559 276 510Q276 489 266 469Q256 449 242 441Q259 432 269 413Q279 394 279 371Q279 323 244 292Q209 261 148 261Q91 261 56.5 288Q22 315 14 364L117 382Q119 367 126.5 357.5Q134 348 151 348Q164 348 172.5 356Q181 364 181 377Q181 392 170.5 399Q160 406 144 406H118ZM267 0H180L549 614H636ZM671 151Q651 151 639 137H551V348H777V262H636V219Q644 224 658 227Q672 230 685 230Q741 230 772.5 198.5Q804 167 804 116Q804 61 768.5 27.5Q733 -6 673 -6Q610 -6 576.5 20.5Q543 47 535 96L636 114Q638 97 648 89Q658 81 672 81Q688 81 697 90.5Q706 100 706 116Q706 130 697 140.5Q688 151 671 151Z" glyph-name="uni2157" horiz-adv-x="821" unicode="&#8535;" /><glyph d="M125 410H169V460H260V410H303V323H260V266H169V323H14V403L117 614H218ZM285 0H198L567 614H654ZM689 151Q669 151 657 137H569V348H795V262H654V219Q662 224 676 227Q690 230 704 230Q759 230 790.5 198.5Q822 167 822 116Q822 61 786.5 27.5Q751 -6 691 -6Q629 -6 595 20.5Q561 47 553 96L654 114Q656 97 666 89Q676 81 690 81Q706 81 715 90.5Q724 100 724 116Q724 130 715 140.5Q706 151 689 151Z" glyph-name="uni2158" horiz-adv-x="840" unicode="&#8536;" /><glyph d="M198 266H95V498L13 459V563L123 614H198ZM203 0H116L485 614H572ZM619 354Q674 354 705 329.5Q736 305 744 261L650 244Q647 255 639.5 261.5Q632 268 618 268Q593 268 582 252Q571 236 571 213V211Q578 219 593 225Q608 231 629 231Q683 231 714.5 199Q746 167 746 119Q746 65 709.5 29.5Q673 -6 613 -6Q578 -6 550.5 8.5Q523 23 506 49Q472 95 472 166Q472 207 481.5 241.5Q491 276 510 301Q529 326 556 340Q583 354 619 354ZM574 115Q574 98 585 87.5Q596 77 614 77Q631 77 642 87.5Q653 98 653 115Q653 133 642 143.5Q631 154 614 154Q596 154 585 143.5Q574 133 574 115Z" glyph-name="uni2159" horiz-adv-x="767" unicode="&#8537;" /><glyph d="M155 417Q134 417 123 404H35V614H261V529H120V485Q128 490 142 493Q156 496 170 496Q225 496 256.5 464.5Q288 433 288 382Q288 327 252.5 294Q217 261 157 261Q95 261 61 287.5Q27 314 19 362L120 380Q122 363 132 355Q142 347 156 347Q172 347 181 356.5Q190 366 190 382Q190 396 181 406.5Q172 417 155 417ZM273 0H186L555 614H642ZM689 354Q744 354 775 329.5Q806 305 814 261L720 244Q717 255 709.5 261.5Q702 268 688 268Q663 268 652 252Q641 236 641 213V211Q648 219 663 225Q678 231 699 231Q753 231 784.5 199Q816 167 816 119Q816 65 779.5 29.5Q743 -6 683 -6Q648 -6 620.5 8.5Q593 23 576 49Q542 95 542 166Q542 207 551.5 241.5Q561 276 580 301Q599 326 626 340Q653 354 689 354ZM644 115Q644 98 655 87.5Q666 77 684 77Q701 77 712 87.5Q723 98 723 115Q723 133 712 143.5Q701 154 684 154Q666 154 655 143.5Q644 133 644 115Z" glyph-name="uni215A" horiz-adv-x="837" unicode="&#8538;" /></font>
</defs>
</svg>
