<?xml version="1.0" standalone="no"?><!DOCTYPE svg PUBLIC "-//W3C//DTD SVG 1.1//EN" "http://www.w3.org/Graphics/SVG/1.1/DTD/svg11.dtd" ><svg version="1.1" xmlns="http://www.w3.org/2000/svg"><defs><font horiz-adv-x="0" id="font"><font-face ascent="850" bbox="-120 -225 1264 893" cap-height="614" descent="-350" font-family="The Met Sans" font-stretch="condensed" font-style="normal" font-weight="600" units-per-em="1000" x-height="444" /><missing-glyph d="M682 614V0H68V614ZM160 92H590V522H160ZM256 482 375 364 494 482 550 426 432 307 550 188 494 132 375 250 256 132 200 188 318 307 200 426Z" horiz-adv-x="750" /><glyph glyph-name=".null" horiz-adv-x="0" /><glyph d="M314 614 557 0H505L425 201H153L75 0H23L266 614ZM172 249H406L289 547Z" glyph-name="A" horiz-adv-x="580" unicode="A" /><glyph d="M802 614V566H485V340H771V293H485V48H802V0H434V201H203L77 0H23L405 614ZM233 249H434V569Z" glyph-name="AE" horiz-adv-x="858" unicode="&#198;" /><glyph d="M802 614V566H485V340H771V293H485V48H802V0H434V201H203L77 0H23L405 614ZM233 249H434V569ZM568 665 650 782H707L619 665Z" glyph-name="AEacute" horiz-adv-x="858" unicode="&#508;" /><glyph d="M314 614 557 0H505L425 201H153L75 0H23L266 614ZM172 249H406L289 547ZM264 665 347 782H404L316 665Z" glyph-name="Aacute" horiz-adv-x="580" unicode="&#193;" /><glyph d="M314 614 557 0H505L425 201H153L75 0H23L266 614ZM172 249H406L289 547ZM290 664Q245 664 216 694Q187 724 187 781H227Q227 743 244.5 723Q262 703 290 703Q317 703 334.5 723Q352 743 352 781H393Q393 724 364 694Q335 664 290 664Z" glyph-name="Abreve" horiz-adv-x="580" unicode="&#258;" /><glyph d="M314 614 557 0H505L425 201H153L75 0H23L266 614ZM172 249H406L289 547ZM404 667H356L290 750L223 667H175L267 786H312Z" glyph-name="Acircumflex" horiz-adv-x="580" unicode="&#194;" /><glyph d="M314 614 557 0H505L425 201H153L75 0H23L266 614ZM172 249H406L289 547ZM194 715Q194 730 203 739Q212 748 227 748Q242 748 251 739Q260 730 260 715Q260 700 251 691Q242 682 227 682Q212 682 203 691Q194 700 194 715ZM319 715Q319 730 328.5 739Q338 748 352 748Q367 748 376 739Q385 730 385 715Q385 700 376 691Q367 682 352 682Q338 682 328.5 691Q319 700 319 715Z" glyph-name="Adieresis" horiz-adv-x="580" unicode="&#196;" /><glyph d="M314 614 557 0H505L425 201H153L75 0H23L266 614ZM172 249H406L289 547ZM262 665 175 782H231L314 665Z" glyph-name="Agrave" horiz-adv-x="580" unicode="&#192;" /><glyph d="M314 614 557 0H505L425 201H153L75 0H23L266 614ZM172 249H406L289 547ZM189 712H391V670H189Z" glyph-name="Amacron" horiz-adv-x="580" unicode="&#256;" /><glyph d="M314 614 557 0Q527 -14 505 -37Q483 -60 483 -92Q483 -116 498.5 -129Q514 -142 540 -142Q557 -142 570.5 -138Q584 -134 590 -130L598 -162Q591 -167 573.5 -173Q556 -179 533 -179Q487 -179 465 -156Q443 -133 443 -98Q443 -64 460.5 -39Q478 -14 504 2L425 201H153L75 0H23L266 614ZM172 249H406L289 547Z" glyph-name="Aogonek" horiz-adv-x="580" unicode="&#260;" /><glyph d="M314 614 557 0H505L425 201H153L75 0H23L266 614ZM172 249H406L289 547ZM371 729Q371 694 347.5 671Q324 648 290 648Q255 648 231.5 671Q208 694 208 729Q208 763 231.5 786.5Q255 810 290 810Q324 810 347.5 786.5Q371 763 371 729ZM339 729Q339 749 324.5 763.5Q310 778 290 778Q269 778 254.5 763.5Q240 749 240 729Q240 708 254.5 693.5Q269 679 290 679Q310 679 324.5 693.5Q339 708 339 729Z" glyph-name="Aring" horiz-adv-x="580" unicode="&#197;" /><glyph d="M314 614 557 0H505L425 201H153L75 0H23L266 614ZM172 249H406L289 547ZM374 711Q374 682 349 661.5Q324 641 289 641Q254 641 230 661.5Q206 682 206 711Q206 742 230 762.5Q254 783 289 783Q324 783 349 762.5Q374 742 374 711ZM289 671Q311 671 326 682.5Q341 694 341 711Q341 730 326 741.5Q311 753 289 753Q268 753 253.5 741.5Q239 730 239 711Q239 694 253.5 682.5Q268 671 289 671ZM378 893 315 810H267L325 893Z" glyph-name="Aringacute" horiz-adv-x="580" unicode="&#506;" /><glyph d="M314 614 557 0H505L425 201H153L75 0H23L266 614ZM172 249H406L289 547ZM415 770Q415 722 398 693.5Q381 665 347 665Q327 665 312.5 675Q298 685 285.5 696.5Q273 708 261.5 718Q250 728 236 728Q219 728 209.5 712Q200 696 200 668H164Q164 716 181.5 744.5Q199 773 233 773Q252 773 266.5 763Q281 753 293.5 741Q306 729 317.5 719Q329 709 343 709Q361 709 370 725Q379 741 380 770Z" glyph-name="Atilde" horiz-adv-x="580" unicode="&#195;" /><glyph d="M363 318Q420 308 453 266.5Q486 225 486 169Q486 88 433 44Q380 0 286 0H79V614H267Q362 614 413 573Q464 532 464 455Q464 425 455.5 402Q447 379 433 362.5Q419 346 400.5 335Q382 324 363 318ZM267 338Q338 338 375.5 366.5Q413 395 413 452Q413 511 375.5 539Q338 567 267 567H130V338ZM130 47H290Q362 47 398.5 80.5Q435 114 435 170Q435 227 398.5 260.5Q362 294 290 294H130Z" glyph-name="B" horiz-adv-x="524" unicode="B" /><glyph d="M363 318Q420 308 453 266.5Q486 225 486 169Q486 88 433 44Q380 0 286 0H79V614H267Q362 614 413 573Q464 532 464 455Q464 425 455.5 402Q447 379 433 362.5Q419 346 400.5 335Q382 324 363 318ZM267 338Q338 338 375.5 366.5Q413 395 413 452Q413 511 375.5 539Q338 567 267 567H130V338ZM130 47H290Q362 47 398.5 80.5Q435 114 435 170Q435 227 398.5 260.5Q362 294 290 294H130ZM228 715Q228 730 237.5 739Q247 748 261 748Q276 748 285 739Q294 730 294 715Q294 700 285 691Q276 682 261 682Q247 682 237.5 691Q228 700 228 715Z" glyph-name="Bdotaccent" horiz-adv-x="524" unicode="&#7682;" /><glyph d="M91 307Q91 245 107.5 196Q124 147 154 112Q184 77 224.5 58.5Q265 40 313 40Q384 40 430 74.5Q476 109 490 167L539 159Q522 82 462.5 36.5Q403 -9 311 -9Q254 -9 204.5 13Q155 35 118 76Q81 117 60 175.5Q39 234 39 307Q39 380 60 438.5Q81 497 118 538Q155 579 204.5 601Q254 623 311 623Q403 623 462.5 577.5Q522 532 539 455L490 447Q476 505 430 539.5Q384 574 313 574Q265 574 224.5 555.5Q184 537 154 502Q124 467 107.5 417.5Q91 368 91 307Z" glyph-name="C" horiz-adv-x="575" unicode="C" /><glyph d="M91 307Q91 245 107.5 196Q124 147 154 112Q184 77 224.5 58.5Q265 40 313 40Q384 40 430 74.5Q476 109 490 167L539 159Q522 82 462.5 36.5Q403 -9 311 -9Q254 -9 204.5 13Q155 35 118 76Q81 117 60 175.5Q39 234 39 307Q39 380 60 438.5Q81 497 118 538Q155 579 204.5 601Q254 623 311 623Q403 623 462.5 577.5Q522 532 539 455L490 447Q476 505 430 539.5Q384 574 313 574Q265 574 224.5 555.5Q184 537 154 502Q124 467 107.5 417.5Q91 368 91 307ZM283 665 366 782H422L334 665Z" glyph-name="Cacute" horiz-adv-x="575" unicode="&#262;" /><glyph d="M198 779H246L313 696L379 779H427L335 660H290ZM91 307Q91 245 107.5 196Q124 147 154 112Q184 77 224.5 58.5Q265 40 313 40Q384 40 430 74.5Q476 109 490 167L539 159Q522 82 462.5 36.5Q403 -9 311 -9Q254 -9 204.5 13Q155 35 118 76Q81 117 60 175.5Q39 234 39 307Q39 380 60 438.5Q81 497 118 538Q155 579 204.5 601Q254 623 311 623Q403 623 462.5 577.5Q522 532 539 455L490 447Q476 505 430 539.5Q384 574 313 574Q265 574 224.5 555.5Q184 537 154 502Q124 467 107.5 417.5Q91 368 91 307Z" glyph-name="Ccaron" horiz-adv-x="575" unicode="&#268;" /><glyph d="M294 -8Q240 -5 193.5 18Q147 41 112.5 82Q78 123 58.5 179.5Q39 236 39 307Q39 380 60 438.5Q81 497 118 538Q155 579 204.5 601Q254 623 311 623Q403 623 462.5 577.5Q522 532 539 455L490 447Q476 505 430 539.5Q384 574 313 574Q265 574 224.5 555.5Q184 537 154 502Q124 467 107.5 417.5Q91 368 91 307Q91 245 107.5 196Q124 147 154 112Q184 77 224.5 58.5Q265 40 313 40Q384 40 430 74.5Q476 109 490 167L539 159Q523 85 467.5 40.5Q412 -4 327 -8L320 -41Q353 -49 373.5 -67.5Q394 -86 394 -114Q394 -142 375 -160.5Q356 -179 311 -179Q285 -179 267.5 -173Q250 -167 239 -160L247 -129Q257 -135 271.5 -140Q286 -145 308 -145Q358 -145 358 -113Q358 -91 336 -78.5Q314 -66 284 -64Z" glyph-name="Ccedilla" horiz-adv-x="575" unicode="&#199;" /><glyph d="M91 307Q91 245 107.5 196Q124 147 154 112Q184 77 224.5 58.5Q265 40 313 40Q384 40 430 74.5Q476 109 490 167L539 159Q522 82 462.5 36.5Q403 -9 311 -9Q254 -9 204.5 13Q155 35 118 76Q81 117 60 175.5Q39 234 39 307Q39 380 60 438.5Q81 497 118 538Q155 579 204.5 601Q254 623 311 623Q403 623 462.5 577.5Q522 532 539 455L490 447Q476 505 430 539.5Q384 574 313 574Q265 574 224.5 555.5Q184 537 154 502Q124 467 107.5 417.5Q91 368 91 307ZM428 667H381L314 750L247 667H200L292 786H337Z" glyph-name="Ccircumflex" horiz-adv-x="575" unicode="&#264;" /><glyph d="M280 715Q280 730 289 739Q298 748 313 748Q327 748 336.5 739Q346 730 346 715Q346 700 336.5 691Q327 682 313 682Q298 682 289 691Q280 700 280 715ZM91 307Q91 245 107.5 196Q124 147 154 112Q184 77 224.5 58.5Q265 40 313 40Q384 40 430 74.5Q476 109 490 167L539 159Q522 82 462.5 36.5Q403 -9 311 -9Q254 -9 204.5 13Q155 35 118 76Q81 117 60 175.5Q39 234 39 307Q39 380 60 438.5Q81 497 118 538Q155 579 204.5 601Q254 623 311 623Q403 623 462.5 577.5Q522 532 539 455L490 447Q476 505 430 539.5Q384 574 313 574Q265 574 224.5 555.5Q184 537 154 502Q124 467 107.5 417.5Q91 368 91 307Z" glyph-name="Cdotaccent" horiz-adv-x="575" unicode="&#266;" /><glyph d="M266 48Q322 48 367.5 66.5Q413 85 445 118.5Q477 152 494 200Q511 248 511 307Q511 366 494 414Q477 462 445 495.5Q413 529 367.5 547.5Q322 566 266 566H131V48ZM79 614H266Q333 614 388 592.5Q443 571 482 531Q521 491 542.5 434Q564 377 564 307Q564 237 542.5 180Q521 123 482 83Q443 43 388 21.5Q333 0 266 0H79Z" glyph-name="D" horiz-adv-x="602" unicode="D" /><glyph d="M163 779H210L277 696L344 779H391L299 660H255ZM266 48Q322 48 367.5 66.5Q413 85 445 118.5Q477 152 494 200Q511 248 511 307Q511 366 494 414Q477 462 445 495.5Q413 529 367.5 547.5Q322 566 266 566H131V48ZM79 614H266Q333 614 388 592.5Q443 571 482 531Q521 491 542.5 434Q564 377 564 307Q564 237 542.5 180Q521 123 482 83Q443 43 388 21.5Q333 0 266 0H79Z" glyph-name="Dcaron" horiz-adv-x="602" unicode="&#270;" /><glyph d="M34 340H92V614H279Q346 614 401 592.5Q456 571 495 531Q534 491 555.5 434Q577 377 577 307Q577 237 555.5 180Q534 123 495 83Q456 43 401 21.5Q346 0 279 0H92V295H34ZM279 48Q336 48 381.5 66.5Q427 85 459 118.5Q491 152 508 200Q525 248 525 307Q525 366 508 414Q491 462 459 495.5Q427 529 381.5 547.5Q336 566 279 566H144V340H274V295H144V48Z" glyph-name="Dcroat" horiz-adv-x="616" unicode="&#272;" /><glyph d="M266 48Q322 48 367.5 66.5Q413 85 445 118.5Q477 152 494 200Q511 248 511 307Q511 366 494 414Q477 462 445 495.5Q413 529 367.5 547.5Q322 566 266 566H131V48ZM79 614H266Q333 614 388 592.5Q443 571 482 531Q521 491 542.5 434Q564 377 564 307Q564 237 542.5 180Q521 123 482 83Q443 43 388 21.5Q333 0 266 0H79ZM255 715Q255 730 264.5 739Q274 748 288 748Q303 748 312 739Q321 730 321 715Q321 700 312 691Q303 682 288 682Q274 682 264.5 691Q255 700 255 715Z" glyph-name="Ddotaccent" horiz-adv-x="602" unicode="&#7690;" /><glyph d="M460 614V566H130V340H429V293H130V48H460V0H79V614Z" glyph-name="E" horiz-adv-x="515" unicode="E" /><glyph d="M243 665 326 782H383L295 665ZM460 614V566H130V340H429V293H130V48H460V0H79V614Z" glyph-name="Eacute" horiz-adv-x="515" unicode="&#201;" /><glyph d="M274 664Q229 664 200 694Q171 724 171 781H212Q212 743 229.5 723Q247 703 274 703Q302 703 319.5 723Q337 743 337 781H377Q377 724 348 694Q319 664 274 664ZM460 614V566H130V340H429V293H130V48H460V0H79V614Z" glyph-name="Ebreve" horiz-adv-x="515" unicode="&#276;" /><glyph d="M162 779H209L276 696L343 779H390L298 660H253ZM460 614V566H130V340H429V293H130V48H460V0H79V614Z" glyph-name="Ecaron" horiz-adv-x="515" unicode="&#282;" /><glyph d="M460 614V566H130V340H429V293H130V48H460V0H79V614ZM388 667H341L274 750L207 667H160L252 786H297Z" glyph-name="Ecircumflex" horiz-adv-x="515" unicode="&#202;" /><glyph d="M179 715Q179 730 188 739Q197 748 212 748Q226 748 235.5 739Q245 730 245 715Q245 700 235.5 691Q226 682 212 682Q197 682 188 691Q179 700 179 715ZM304 715Q304 730 313 739Q322 748 337 748Q352 748 361 739Q370 730 370 715Q370 700 361 691Q352 682 337 682Q322 682 313 691Q304 700 304 715ZM460 614V566H130V340H429V293H130V48H460V0H79V614Z" glyph-name="Edieresis" horiz-adv-x="515" unicode="&#203;" /><glyph d="M241 715Q241 730 250 739Q259 748 274 748Q289 748 298 739Q307 730 307 715Q307 700 298 691Q289 682 274 682Q259 682 250 691Q241 700 241 715ZM460 614V566H130V340H429V293H130V48H460V0H79V614Z" glyph-name="Edotaccent" horiz-adv-x="515" unicode="&#278;" /><glyph d="M250 665 162 782H219L301 665ZM460 614V566H130V340H429V293H130V48H460V0H79V614Z" glyph-name="Egrave" horiz-adv-x="515" unicode="&#200;" /><glyph d="M174 712H376V670H174ZM460 614V566H130V340H429V293H130V48H460V0H79V614Z" glyph-name="Emacron" horiz-adv-x="515" unicode="&#274;" /><glyph d="M538 -64Q538 -122 509 -150.5Q480 -179 433 -179Q409 -179 397 -173L405 -131Q409 -132 414.5 -133Q420 -134 428 -134Q455 -134 471.5 -119Q488 -104 488 -60V21L129 531V0H79V614H128L488 104V614H538Z" glyph-name="Eng" horiz-adv-x="616" unicode="&#330;" /><glyph d="M460 614V566H130V340H429V293H130V48H460V0Q430 -14 408 -37Q386 -60 386 -92Q386 -116 401 -129Q416 -142 442 -142Q459 -142 472.5 -138Q486 -134 493 -130L501 -162Q494 -167 476.5 -173Q459 -179 435 -179Q390 -179 368 -156Q346 -133 346 -98Q346 -65 363 -40.5Q380 -16 404 0H79V614Z" glyph-name="Eogonek" horiz-adv-x="515" unicode="&#280;" /><glyph d="M34 340H92V614H279Q346 614 401 592.5Q456 571 495 531Q534 491 555.5 434Q577 377 577 307Q577 237 555.5 180Q534 123 495 83Q456 43 401 21.5Q346 0 279 0H92V295H34ZM279 48Q336 48 381.5 66.5Q427 85 459 118.5Q491 152 508 200Q525 248 525 307Q525 366 508 414Q491 462 459 495.5Q427 529 381.5 547.5Q336 566 279 566H144V340H274V295H144V48Z" glyph-name="Eth" horiz-adv-x="616" unicode="&#208;" /><glyph d="M29 388H90Q107 500 165.5 561.5Q224 623 313 623Q388 623 439 580.5Q490 538 507 464L460 456Q445 513 408.5 544.5Q372 576 312 576Q240 576 197.5 527Q155 478 141 388H383L365 347H137Q136 337 136 327.5Q136 318 136 307Q136 296 136 286.5Q136 277 137 267H331L312 226H141Q155 136 197.5 87Q240 38 312 38Q372 38 408.5 69.5Q445 101 460 158L507 150Q490 76 439 33.5Q388 -9 313 -9Q224 -9 165.5 52.5Q107 114 90 226H29V267H86Q85 277 85 286.5Q85 296 85 307Q85 318 85 327.5Q85 337 86 347H29Z" glyph-name="Euro" horiz-adv-x="539" unicode="&#8364;" /><glyph d="M28 388H88Q103 500 159.5 561.5Q216 623 305 623Q380 623 428 580.5Q476 538 493 464L446 456Q431 513 398 544.5Q365 576 305 576Q233 576 192.5 527Q152 478 140 388H376L358 347H136Q135 337 135 327.5Q135 318 135 307Q135 296 135 286.5Q135 277 136 267H324L305 226H140Q152 136 192.5 87Q233 38 305 38Q365 38 398 69.5Q431 101 446 158L493 150Q476 76 428 33.5Q380 -9 305 -9Q216 -9 159.5 52.5Q103 114 88 226H28V267H84Q83 277 83 286.5Q83 296 83 307Q83 318 83 327.5Q83 337 84 347H28Z" glyph-name="Euro.lt" horiz-adv-x="520" /><glyph d="M79 0V614H435V566H131V333H419V286H131V0Z" glyph-name="F" horiz-adv-x="474" unicode="F" /><glyph d="M79 0V614H435V566H131V333H419V286H131V0ZM236 715Q236 730 245.5 739Q255 748 269 748Q284 748 293 739Q302 730 302 715Q302 700 293 691Q284 682 269 682Q255 682 245.5 691Q236 700 236 715Z" glyph-name="Fdotaccent" horiz-adv-x="474" unicode="&#7710;" /><glyph d="M351 243V288H560V253Q560 193 543 145Q526 97 494 62.5Q462 28 416 9.5Q370 -9 313 -9Q255 -9 205 13Q155 35 118 76Q81 117 60 175.5Q39 234 39 307Q39 380 60.5 438.5Q82 497 119 538Q156 579 206.5 601Q257 623 315 623Q360 623 398.5 611Q437 599 466.5 576.5Q496 554 516 523Q536 492 544 455L494 447Q481 504 435 539Q389 574 314 574Q266 574 225 555.5Q184 537 154 502Q124 467 107.5 417.5Q91 368 91 307Q91 245 107.5 195.5Q124 146 153.5 111.5Q183 77 224 58.5Q265 40 315 40Q407 40 457.5 92Q508 144 510 243Z" glyph-name="G" horiz-adv-x="599" unicode="G" /><glyph d="M317 664Q272 664 243 694Q214 724 214 781H254Q254 743 271.5 723Q289 703 317 703Q344 703 362 723Q380 743 380 781H420Q420 724 391 694Q362 664 317 664ZM351 243V288H560V253Q560 193 543 145Q526 97 494 62.5Q462 28 416 9.5Q370 -9 313 -9Q255 -9 205 13Q155 35 118 76Q81 117 60 175.5Q39 234 39 307Q39 380 60.5 438.5Q82 497 119 538Q156 579 206.5 601Q257 623 315 623Q360 623 398.5 611Q437 599 466.5 576.5Q496 554 516 523Q536 492 544 455L494 447Q481 504 435 539Q389 574 314 574Q266 574 225 555.5Q184 537 154 502Q124 467 107.5 417.5Q91 368 91 307Q91 245 107.5 195.5Q124 146 153.5 111.5Q183 77 224 58.5Q265 40 315 40Q407 40 457.5 92Q508 144 510 243Z" glyph-name="Gbreve" horiz-adv-x="599" unicode="&#286;" /><glyph d="M430 667H383L316 750L249 667H202L294 786H339ZM351 243V288H560V253Q560 193 543 145Q526 97 494 62.5Q462 28 416 9.5Q370 -9 313 -9Q255 -9 205 13Q155 35 118 76Q81 117 60 175.5Q39 234 39 307Q39 380 60.5 438.5Q82 497 119 538Q156 579 206.5 601Q257 623 315 623Q360 623 398.5 611Q437 599 466.5 576.5Q496 554 516 523Q536 492 544 455L494 447Q481 504 435 539Q389 574 314 574Q266 574 225 555.5Q184 537 154 502Q124 467 107.5 417.5Q91 368 91 307Q91 245 107.5 195.5Q124 146 153.5 111.5Q183 77 224 58.5Q265 40 315 40Q407 40 457.5 92Q508 144 510 243Z" glyph-name="Gcircumflex" horiz-adv-x="599" unicode="&#284;" /><glyph d="M268 -157Q290 -152 303 -141.5Q316 -131 318 -110Q316 -111 313 -111Q310 -111 309 -111Q295 -111 286.5 -102.5Q278 -94 278 -80Q278 -66 286.5 -58Q295 -50 309 -50H311Q347 -52 347 -93Q347 -128 327.5 -149.5Q308 -171 273 -179ZM351 243V288H560V253Q560 193 543 145Q526 97 494 62.5Q462 28 416 9.5Q370 -9 313 -9Q255 -9 205 13Q155 35 118 76Q81 117 60 175.5Q39 234 39 307Q39 380 60.5 438.5Q82 497 119 538Q156 579 206.5 601Q257 623 315 623Q360 623 398.5 611Q437 599 466.5 576.5Q496 554 516 523Q536 492 544 455L494 447Q481 504 435 539Q389 574 314 574Q266 574 225 555.5Q184 537 154 502Q124 467 107.5 417.5Q91 368 91 307Q91 245 107.5 195.5Q124 146 153.5 111.5Q183 77 224 58.5Q265 40 315 40Q407 40 457.5 92Q508 144 510 243Z" glyph-name="Gcommaaccent" horiz-adv-x="599" unicode="&#290;" /><glyph d="M284 715Q284 730 293 739Q302 748 317 748Q332 748 341 739Q350 730 350 715Q350 700 341 691Q332 682 317 682Q302 682 293 691Q284 700 284 715ZM351 243V288H560V253Q560 193 543 145Q526 97 494 62.5Q462 28 416 9.5Q370 -9 313 -9Q255 -9 205 13Q155 35 118 76Q81 117 60 175.5Q39 234 39 307Q39 380 60.5 438.5Q82 497 119 538Q156 579 206.5 601Q257 623 315 623Q360 623 398.5 611Q437 599 466.5 576.5Q496 554 516 523Q536 492 544 455L494 447Q481 504 435 539Q389 574 314 574Q266 574 225 555.5Q184 537 154 502Q124 467 107.5 417.5Q91 368 91 307Q91 245 107.5 195.5Q124 146 153.5 111.5Q183 77 224 58.5Q265 40 315 40Q407 40 457.5 92Q508 144 510 243Z" glyph-name="Gdotaccent" horiz-adv-x="599" unicode="&#288;" /><glyph d="M571 614V0H519V293H131V0H79V614H131V340H519V614Z" glyph-name="H" horiz-adv-x="649" unicode="H" /><glyph d="M34 483H92V614H143V483H532V614H584V483H642V438H584V0H532V260H143V0H92V438H34ZM532 304V438H143V304Z" glyph-name="Hbar" horiz-adv-x="675" unicode="&#294;" /><glyph d="M571 614V0H519V293H131V0H79V614H131V340H519V614ZM439 667H391L325 750L258 667H210L302 786H347Z" glyph-name="Hcircumflex" horiz-adv-x="649" unicode="&#292;" /><glyph d="M131 0H79V614H131Z" glyph-name="I" horiz-adv-x="209" unicode="I" /><glyph d="M131 0H79V614H131ZM250 -9Q232 -9 215 -5Q198 -1 193 3L201 47Q206 45 218 41Q230 37 246 37Q278 37 294.5 55Q311 73 311 115V614H363V110Q363 50 333 20.5Q303 -9 250 -9Z" glyph-name="IJ" horiz-adv-x="438" unicode="&#306;" /><glyph d="M131 0H79V614H131ZM79 665 162 782H218L131 665Z" glyph-name="Iacute" horiz-adv-x="209" unicode="&#205;" /><glyph d="M131 0H79V614H131ZM104 664Q59 664 30.5 694Q2 724 2 781H42Q42 743 59.5 723Q77 703 104 703Q132 703 149.5 723Q167 743 167 781H207Q207 724 178 694Q149 664 104 664Z" glyph-name="Ibreve" horiz-adv-x="209" unicode="&#300;" /><glyph d="M131 0H79V614H131ZM219 667H171L104 750L38 667H-10L82 786H127Z" glyph-name="Icircumflex" horiz-adv-x="209" unicode="&#206;" /><glyph d="M131 0H79V614H131ZM9 715Q9 730 18 739Q27 748 42 748Q57 748 66 739Q75 730 75 715Q75 700 66 691Q57 682 42 682Q27 682 18 691Q9 700 9 715ZM134 715Q134 730 143 739Q152 748 167 748Q182 748 191 739Q200 730 200 715Q200 700 191 691Q182 682 167 682Q152 682 143 691Q134 700 134 715Z" glyph-name="Idieresis" horiz-adv-x="209" unicode="&#207;" /><glyph d="M131 0H79V614H131ZM71 715Q71 730 80.5 739Q90 748 104 748Q119 748 128 739Q137 730 137 715Q137 700 128 691Q119 682 104 682Q90 682 80.5 691Q71 700 71 715Z" glyph-name="Idotaccent" horiz-adv-x="209" unicode="&#304;" /><glyph d="M131 0H79V614H131ZM78 665 -10 782H47L129 665Z" glyph-name="Igrave" horiz-adv-x="209" unicode="&#204;" /><glyph d="M131 0H79V614H131ZM4 712H206V670H4Z" glyph-name="Imacron" horiz-adv-x="209" unicode="&#298;" /><glyph d="M131 0Q100 -14 80.5 -37Q61 -60 61 -92Q61 -142 114 -142Q131 -142 144.5 -138Q158 -134 164 -130L172 -162Q165 -167 147.5 -173Q130 -179 107 -179Q62 -179 41.5 -156Q21 -133 21 -98Q21 -63 37 -38.5Q53 -14 79 2V614H131Z" glyph-name="Iogonek" horiz-adv-x="209" unicode="&#302;" /><glyph d="M131 0H79V614H131ZM230 770Q230 722 212.5 693.5Q195 665 161 665Q142 665 127.5 675Q113 685 100.5 696.5Q88 708 76.5 718Q65 728 51 728Q33 728 24 712Q15 696 15 668H-21Q-21 716 -3.5 744.5Q14 773 48 773Q67 773 81.5 763Q96 753 108.5 741Q121 729 132.5 719Q144 709 158 709Q176 709 185 725Q194 741 194 770Z" glyph-name="Itilde" horiz-adv-x="209" unicode="&#296;" /><glyph d="M72 142Q77 94 104 67Q131 40 178 40Q202 40 222.5 46.5Q243 53 258 68Q273 83 282 106Q291 129 291 162V614H343V162Q343 118 330.5 86Q318 54 295.5 33Q273 12 243 1.5Q213 -9 178 -9Q140 -9 112 2.5Q84 14 65 33.5Q46 53 35.5 78.5Q25 104 22 133Z" glyph-name="J" horiz-adv-x="411" unicode="J" /><glyph d="M432 667H385L318 750L251 667H204L296 786H340ZM72 142Q77 94 104 67Q131 40 178 40Q202 40 222.5 46.5Q243 53 258 68Q273 83 282 106Q291 129 291 162V614H343V162Q343 118 330.5 86Q318 54 295.5 33Q273 12 243 1.5Q213 -9 178 -9Q140 -9 112 2.5Q84 14 65 33.5Q46 53 35.5 78.5Q25 104 22 133Z" glyph-name="Jcircumflex" horiz-adv-x="411" unicode="&#308;" /><glyph d="M131 293 450 614H517L237 334L526 0H462L200 298L131 228V0H79V614H131Z" glyph-name="K" horiz-adv-x="545" unicode="K" /><glyph d="M225 -157Q247 -152 260 -141.5Q273 -131 275 -110Q273 -111 270 -111Q267 -111 266 -111Q235 -111 235 -80Q235 -66 243.5 -58Q252 -50 266 -50H268Q303 -52 303 -93Q303 -162 230 -179ZM131 293 450 614H517L237 334L526 0H462L200 298L131 228V0H79V614H131Z" glyph-name="Kcommaaccent" horiz-adv-x="545" unicode="&#310;" /><glyph d="M79 614H131V48H463V0H79Z" glyph-name="L" horiz-adv-x="503" unicode="L" /><glyph d="M85 665 168 782H224L137 665ZM79 614H131V48H463V0H79Z" glyph-name="Lacute" horiz-adv-x="503" unicode="&#313;" /><glyph d="M270 454 300 614H341L311 454ZM79 614H131V48H463V0H79Z" glyph-name="Lcaron" horiz-adv-x="503" unicode="&#317;" /><glyph d="M231 -157Q252 -152 265.5 -141.5Q279 -131 281 -110Q279 -111 276 -111Q273 -111 271 -111Q257 -111 249 -102.5Q241 -94 241 -80Q241 -66 249.5 -58Q258 -50 272 -50H273Q309 -52 309 -93Q309 -162 235 -179ZM79 614H131V48H463V0H79Z" glyph-name="Lcommaaccent" horiz-adv-x="503" unicode="&#315;" /><glyph d="M79 614H131V48H463V0H79ZM327 306Q327 321 336 330Q345 339 360 339Q375 339 384 330Q393 321 393 306Q393 292 384 282.5Q375 273 360 273Q345 273 336 282.5Q327 292 327 306Z" glyph-name="Ldot" horiz-adv-x="503" unicode="&#319;" /><glyph d="M30 295 91 320V614H143V339L300 402V353L143 290V48H476V0H91V270L30 246Z" glyph-name="Lslash" horiz-adv-x="515" unicode="&#321;" /><glyph d="M349 0 128 511V0H79V614H136L366 76L596 614H651V0H601V511L381 0Z" glyph-name="M" horiz-adv-x="729" unicode="M" /><glyph d="M349 0 128 511V0H79V614H136L366 76L596 614H651V0H601V511L381 0ZM334 715Q334 730 343 739Q352 748 367 748Q382 748 391 739Q400 730 400 715Q400 700 391 691Q382 682 367 682Q352 682 343 691Q334 700 334 715Z" glyph-name="Mdotaccent" horiz-adv-x="729" unicode="&#7744;" /><glyph d="M538 0H503L129 531V0H79V614H128L488 104V614H538Z" glyph-name="N" horiz-adv-x="616" unicode="N" /><glyph d="M277 665 360 782H416L328 665ZM538 0H503L129 531V0H79V614H128L488 104V614H538Z" glyph-name="Nacute" horiz-adv-x="616" unicode="&#323;" /><glyph d="M194 779H241L308 696L375 779H422L330 660H285ZM538 0H503L129 531V0H79V614H128L488 104V614H538Z" glyph-name="Ncaron" horiz-adv-x="616" unicode="&#327;" /><glyph d="M265 -157Q287 -152 300 -141.5Q313 -131 315 -110Q313 -111 310 -111Q307 -111 306 -111Q292 -111 283.5 -102.5Q275 -94 275 -80Q275 -66 283.5 -58Q292 -50 306 -50H308Q344 -52 344 -93Q344 -128 324.5 -149.5Q305 -171 270 -179ZM538 0H503L129 531V0H79V614H128L488 104V614H538Z" glyph-name="Ncommaaccent" horiz-adv-x="616" unicode="&#325;" /><glyph d="M434 770Q434 722 416.5 693.5Q399 665 365 665Q345 665 330.5 675Q316 685 304 696.5Q292 708 280 718Q268 728 255 728Q237 728 228 712Q219 696 218 668H183Q183 716 200 744.5Q217 773 251 773Q270 773 284.5 763Q299 753 311.5 741Q324 729 336 719Q348 709 362 709Q379 709 388.5 725Q398 741 398 770ZM538 0H503L129 531V0H79V614H128L488 104V614H538Z" glyph-name="Ntilde" horiz-adv-x="616" unicode="&#209;" /><glyph d="M582 307Q582 236 561.5 178Q541 120 505 78.5Q469 37 419 14Q369 -9 310 -9Q251 -9 201.5 14Q152 37 116 78.5Q80 120 59.5 178Q39 236 39 307Q39 377 59.5 435.5Q80 494 116 535.5Q152 577 201.5 600Q251 623 310 623Q369 623 419 600Q469 577 505 535.5Q541 494 561.5 435.5Q582 377 582 307ZM529 307Q529 366 513 415.5Q497 465 468 500.5Q439 536 399 555.5Q359 575 310 575Q262 575 221.5 555.5Q181 536 152 500.5Q123 465 107 415.5Q91 366 91 307Q91 248 107 198.5Q123 149 152 113.5Q181 78 221.5 58.5Q262 39 310 39Q359 39 399 58.5Q439 78 468 113.5Q497 149 513 198.5Q529 248 529 307Z" glyph-name="O" horiz-adv-x="621" unicode="O" /><glyph d="M784 566H467V340H753V293H467V48H784V0H337Q270 0 215 21.5Q160 43 121 83Q82 123 60.5 180Q39 237 39 307Q39 377 60.5 434Q82 491 121 531Q160 571 215 592.5Q270 614 337 614H784ZM416 48V566H336Q280 566 234.5 547.5Q189 529 157 495.5Q125 462 108 414Q91 366 91 307Q91 248 108 200Q125 152 157 118.5Q189 85 234.5 66.5Q280 48 336 48Z" glyph-name="OE" horiz-adv-x="840" unicode="&#338;" /><glyph d="M286 665 369 782H426L338 665ZM582 307Q582 236 561.5 178Q541 120 505 78.5Q469 37 419 14Q369 -9 310 -9Q251 -9 201.5 14Q152 37 116 78.5Q80 120 59.5 178Q39 236 39 307Q39 377 59.5 435.5Q80 494 116 535.5Q152 577 201.5 600Q251 623 310 623Q369 623 419 600Q469 577 505 535.5Q541 494 561.5 435.5Q582 377 582 307ZM529 307Q529 366 513 415.5Q497 465 468 500.5Q439 536 399 555.5Q359 575 310 575Q262 575 221.5 555.5Q181 536 152 500.5Q123 465 107 415.5Q91 366 91 307Q91 248 107 198.5Q123 149 152 113.5Q181 78 221.5 58.5Q262 39 310 39Q359 39 399 58.5Q439 78 468 113.5Q497 149 513 198.5Q529 248 529 307Z" glyph-name="Oacute" horiz-adv-x="621" unicode="&#211;" /><glyph d="M310 664Q265 664 236 694Q207 724 207 781H248Q248 743 265.5 723Q283 703 310 703Q338 703 355.5 723Q373 743 373 781H413Q413 724 384 694Q355 664 310 664ZM582 307Q582 236 561.5 178Q541 120 505 78.5Q469 37 419 14Q369 -9 310 -9Q251 -9 201.5 14Q152 37 116 78.5Q80 120 59.5 178Q39 236 39 307Q39 377 59.5 435.5Q80 494 116 535.5Q152 577 201.5 600Q251 623 310 623Q369 623 419 600Q469 577 505 535.5Q541 494 561.5 435.5Q582 377 582 307ZM529 307Q529 366 513 415.5Q497 465 468 500.5Q439 536 399 555.5Q359 575 310 575Q262 575 221.5 555.5Q181 536 152 500.5Q123 465 107 415.5Q91 366 91 307Q91 248 107 198.5Q123 149 152 113.5Q181 78 221.5 58.5Q262 39 310 39Q359 39 399 58.5Q439 78 468 113.5Q497 149 513 198.5Q529 248 529 307Z" glyph-name="Obreve" horiz-adv-x="621" unicode="&#334;" /><glyph d="M582 307Q582 236 561.5 178Q541 120 505 78.5Q469 37 419 14Q369 -9 310 -9Q251 -9 201.5 14Q152 37 116 78.5Q80 120 59.5 178Q39 236 39 307Q39 377 59.5 435.5Q80 494 116 535.5Q152 577 201.5 600Q251 623 310 623Q369 623 419 600Q469 577 505 535.5Q541 494 561.5 435.5Q582 377 582 307ZM529 307Q529 366 513 415.5Q497 465 468 500.5Q439 536 399 555.5Q359 575 310 575Q262 575 221.5 555.5Q181 536 152 500.5Q123 465 107 415.5Q91 366 91 307Q91 248 107 198.5Q123 149 152 113.5Q181 78 221.5 58.5Q262 39 310 39Q359 39 399 58.5Q439 78 468 113.5Q497 149 513 198.5Q529 248 529 307ZM424 667H377L310 750L243 667H196L288 786H333Z" glyph-name="Ocircumflex" horiz-adv-x="621" unicode="&#212;" /><glyph d="M281 715Q281 700 271.5 691Q262 682 248 682Q233 682 224 691Q215 700 215 715Q215 730 224 739Q233 748 248 748Q262 748 271.5 739Q281 730 281 715ZM340 715Q340 730 349 739Q358 748 373 748Q388 748 397 739Q406 730 406 715Q406 700 397 691Q388 682 373 682Q358 682 349 691Q340 700 340 715ZM91 307Q91 248 107 198.5Q123 149 152 113.5Q181 78 221.5 58.5Q262 39 310 39Q359 39 399 58.5Q439 78 468 113.5Q497 149 513 198.5Q529 248 529 307Q529 366 513 415.5Q497 465 468 500.5Q439 536 399 555.5Q359 575 310 575Q262 575 221.5 555.5Q181 536 152 500.5Q123 465 107 415.5Q91 366 91 307ZM582 307Q582 236 561.5 178Q541 120 505 78.5Q469 37 419 14Q369 -9 310 -9Q251 -9 201.5 14Q152 37 116 78.5Q80 120 59.5 178Q39 236 39 307Q39 377 59.5 435.5Q80 494 116 535.5Q152 577 201.5 600Q251 623 310 623Q369 623 419 600Q469 577 505 535.5Q541 494 561.5 435.5Q582 377 582 307Z" glyph-name="Odieresis" horiz-adv-x="621" unicode="&#214;" /><glyph d="M529 307Q529 366 513 415.5Q497 465 468 500.5Q439 536 399 555.5Q359 575 310 575Q262 575 221.5 555.5Q181 536 152 500.5Q123 465 107 415.5Q91 366 91 307Q91 248 107 198.5Q123 149 152 113.5Q181 78 221.5 58.5Q262 39 310 39Q359 39 399 58.5Q439 78 468 113.5Q497 149 513 198.5Q529 248 529 307ZM39 307Q39 377 59.5 435.5Q80 494 116 535.5Q152 577 201.5 600Q251 623 310 623Q369 623 419 600Q469 577 505 535.5Q541 494 561.5 435.5Q582 377 582 307Q582 236 561.5 178Q541 120 505 78.5Q469 37 419 14Q369 -9 310 -9Q251 -9 201.5 14Q152 37 116 78.5Q80 120 59.5 178Q39 236 39 307ZM337 665H286L198 782H255Z" glyph-name="Ograve" horiz-adv-x="621" unicode="&#210;" /><glyph d="M582 307Q582 236 561.5 178Q541 120 505 78.5Q469 37 419 14Q369 -9 310 -9Q251 -9 201.5 14Q152 37 116 78.5Q80 120 59.5 178Q39 236 39 307Q39 377 59.5 435.5Q80 494 116 535.5Q152 577 201.5 600Q251 623 310 623Q369 623 419 600Q469 577 505 535.5Q541 494 561.5 435.5Q582 377 582 307ZM529 307Q529 366 513 415.5Q497 465 468 500.5Q439 536 399 555.5Q359 575 310 575Q262 575 221.5 555.5Q181 536 152 500.5Q123 465 107 415.5Q91 366 91 307Q91 248 107 198.5Q123 149 152 113.5Q181 78 221.5 58.5Q262 39 310 39Q359 39 399 58.5Q439 78 468 113.5Q497 149 513 198.5Q529 248 529 307ZM234 665 308 782H354L280 665ZM346 665 419 782H466L392 665Z" glyph-name="Ohungarumlaut" horiz-adv-x="621" unicode="&#336;" /><glyph d="M310 39Q359 39 399 58.5Q439 78 468 113.5Q497 149 513 198.5Q529 248 529 307Q529 366 513 415.5Q497 465 468 500.5Q439 536 399 555.5Q359 575 310 575Q262 575 221.5 555.5Q181 536 152 500.5Q123 465 107 415.5Q91 366 91 307Q91 248 107 198.5Q123 149 152 113.5Q181 78 221.5 58.5Q262 39 310 39ZM582 307Q582 236 561.5 178Q541 120 505 78.5Q469 37 419 14Q369 -9 310 -9Q251 -9 201.5 14Q152 37 116 78.5Q80 120 59.5 178Q39 236 39 307Q39 377 59.5 435.5Q80 494 116 535.5Q152 577 201.5 600Q251 623 310 623Q369 623 419 600Q469 577 505 535.5Q541 494 561.5 435.5Q582 377 582 307ZM412 670H210V712H412Z" glyph-name="Omacron" horiz-adv-x="621" unicode="&#332;" /><glyph d="M109 87Q76 129 57.5 184Q39 239 39 307Q39 377 59.5 435.5Q80 494 116 535.5Q152 577 201.5 600Q251 623 310 623Q362 623 407 605Q452 587 487 554L539 618L572 593L515 523Q547 481 564.5 427Q582 373 582 307Q582 236 561.5 178Q541 120 505 78.5Q469 37 419 14Q369 -9 310 -9Q208 -9 137 56L78 -17L45 8ZM91 307Q91 253 104 207.5Q117 162 141 127L455 515Q427 544 390.5 559.5Q354 575 310 575Q262 575 221.5 555.5Q181 536 152 500.5Q123 465 107 415.5Q91 366 91 307ZM529 307Q529 359 517 403Q505 447 482 482L168 95Q196 68 232 53.5Q268 39 310 39Q359 39 399 58.5Q439 78 468 113.5Q497 149 513 198.5Q529 248 529 307Z" glyph-name="Oslash" horiz-adv-x="621" unicode="&#216;" /><glyph d="M109 87Q76 129 57.5 184Q39 239 39 307Q39 377 59.5 435.5Q80 494 116 535.5Q152 577 201.5 600Q251 623 310 623Q362 623 407 605Q452 587 487 554L539 618L572 593L515 523Q547 481 564.5 427Q582 373 582 307Q582 236 561.5 178Q541 120 505 78.5Q469 37 419 14Q369 -9 310 -9Q208 -9 137 56L78 -17L45 8ZM91 307Q91 253 104 207.5Q117 162 141 127L455 515Q427 544 390.5 559.5Q354 575 310 575Q262 575 221.5 555.5Q181 536 152 500.5Q123 465 107 415.5Q91 366 91 307ZM529 307Q529 359 517 403Q505 447 482 482L168 95Q196 68 232 53.5Q268 39 310 39Q359 39 399 58.5Q439 78 468 113.5Q497 149 513 198.5Q529 248 529 307ZM284 665 367 782H424L336 665Z" glyph-name="Oslashacute" horiz-adv-x="621" unicode="&#510;" /><glyph d="M436 770Q436 722 418.5 693.5Q401 665 367 665Q348 665 333.5 675Q319 685 306.5 696.5Q294 708 282.5 718Q271 728 257 728Q239 728 230 712Q221 696 221 668H185Q185 716 202.5 744.5Q220 773 254 773Q273 773 287.5 763Q302 753 314.5 741Q327 729 338.5 719Q350 709 364 709Q382 709 391 725Q400 741 400 770ZM582 307Q582 236 561.5 178Q541 120 505 78.5Q469 37 419 14Q369 -9 310 -9Q251 -9 201.5 14Q152 37 116 78.5Q80 120 59.5 178Q39 236 39 307Q39 377 59.5 435.5Q80 494 116 535.5Q152 577 201.5 600Q251 623 310 623Q369 623 419 600Q469 577 505 535.5Q541 494 561.5 435.5Q582 377 582 307ZM529 307Q529 366 513 415.5Q497 465 468 500.5Q439 536 399 555.5Q359 575 310 575Q262 575 221.5 555.5Q181 536 152 500.5Q123 465 107 415.5Q91 366 91 307Q91 248 107 198.5Q123 149 152 113.5Q181 78 221.5 58.5Q262 39 310 39Q359 39 399 58.5Q439 78 468 113.5Q497 149 513 198.5Q529 248 529 307Z" glyph-name="Otilde" horiz-adv-x="621" unicode="&#213;" /><glyph d="M131 265V0H79V614H301Q392 614 443.5 570Q495 526 495 440Q495 353 443.5 309Q392 265 301 265ZM443 440Q443 500 407 533.5Q371 567 299 567H131V312H299Q371 312 407 345.5Q443 379 443 440Z" glyph-name="P" horiz-adv-x="529" unicode="P" /><glyph d="M131 265V0H79V614H301Q392 614 443.5 570Q495 526 495 440Q495 353 443.5 309Q392 265 301 265ZM443 440Q443 500 407 533.5Q371 567 299 567H131V312H299Q371 312 407 345.5Q443 379 443 440ZM231 715Q231 730 240 739Q249 748 264 748Q279 748 288 739Q297 730 297 715Q297 700 288 691Q279 682 264 682Q249 682 240 691Q231 700 231 715Z" glyph-name="Pdotaccent" horiz-adv-x="529" unicode="&#7766;" /><glyph d="M453 32Q391 -9 310 -9Q251 -9 201.5 14Q152 37 116 78.5Q80 120 59.5 178Q39 236 39 307Q39 377 59.5 435.5Q80 494 116 535.5Q152 577 201.5 600Q251 623 310 623Q369 623 419 600Q469 577 505 535.5Q541 494 561.5 435.5Q582 377 582 307Q582 229 557.5 166Q533 103 489 61L539 -3L503 -32ZM529 307Q529 366 513 415.5Q497 465 468 500.5Q439 536 399 555.5Q359 575 310 575Q262 575 221.5 555.5Q181 536 152 500.5Q123 465 107 415.5Q91 366 91 307Q91 248 107 198.5Q123 149 152 113.5Q181 78 221.5 58.5Q262 39 310 39Q374 39 423 71L371 139L407 166L458 100Q492 135 510.5 187.5Q529 240 529 307Z" glyph-name="Q" horiz-adv-x="620" unicode="Q" /><glyph d="M131 271V0H79V614H296Q387 614 438.5 570.5Q490 527 490 442Q490 367 448.5 324.5Q407 282 333 273L518 0H458L275 271ZM131 317H294Q365 317 401.5 349.5Q438 382 438 442Q438 502 401.5 534.5Q365 567 294 567H131Z" glyph-name="R" horiz-adv-x="549" unicode="R" /><glyph d="M131 271V0H79V614H296Q387 614 438.5 570.5Q490 527 490 442Q490 367 448.5 324.5Q407 282 333 273L518 0H458L275 271ZM131 317H294Q365 317 401.5 349.5Q438 382 438 442Q438 502 401.5 534.5Q365 567 294 567H131ZM233 665 316 782H373L285 665Z" glyph-name="Racute" horiz-adv-x="549" unicode="&#340;" /><glyph d="M131 271V0H79V614H296Q387 614 438.5 570.5Q490 527 490 442Q490 367 448.5 324.5Q407 282 333 273L518 0H458L275 271ZM131 317H294Q365 317 401.5 349.5Q438 382 438 442Q438 502 401.5 534.5Q365 567 294 567H131ZM150 779H197L264 696L331 779H378L287 660H242Z" glyph-name="Rcaron" horiz-adv-x="549" unicode="&#344;" /><glyph d="M131 271V0H79V614H296Q387 614 438.5 570.5Q490 527 490 442Q490 367 448.5 324.5Q407 282 333 273L518 0H458L275 271ZM131 317H294Q365 317 401.5 349.5Q438 382 438 442Q438 502 401.5 534.5Q365 567 294 567H131ZM231 -157Q253 -152 266 -141.5Q279 -131 281 -110Q279 -111 276 -111Q273 -111 271 -111Q257 -111 249 -102.5Q241 -94 241 -80Q241 -66 249.5 -58Q258 -50 272 -50H273Q309 -52 309 -93Q309 -162 235 -179Z" glyph-name="Rcommaaccent" horiz-adv-x="549" unicode="&#342;" /><glyph d="M75 149Q84 95 125.5 66Q167 37 243 37Q276 37 306 44.5Q336 52 358 67Q380 82 393 104.5Q406 127 406 157Q406 200 382 229Q358 258 300 274L183 307Q151 316 125 328.5Q99 341 81 359.5Q63 378 53 403Q43 428 43 462Q43 500 58.5 530Q74 560 101.5 580.5Q129 601 166.5 612Q204 623 247 623Q293 623 328 612.5Q363 602 388.5 582.5Q414 563 430 536Q446 509 453 477L404 468Q393 518 357.5 547.5Q322 577 247 577Q214 577 186 569.5Q158 562 137.5 547.5Q117 533 105 512.5Q93 492 93 466Q93 440 100.5 421.5Q108 403 122.5 390.5Q137 378 158.5 368.5Q180 359 208 351L311 322Q387 300 422 260.5Q457 221 457 159Q457 118 440 87Q423 56 394 34.5Q365 13 326 2Q287 -9 243 -9Q153 -9 94 28.5Q35 66 24 141Z" glyph-name="S" horiz-adv-x="498" unicode="S" /><glyph d="M75 149Q84 95 125.5 66Q167 37 243 37Q276 37 306 44.5Q336 52 358 67Q380 82 393 104.5Q406 127 406 157Q406 200 382 229Q358 258 300 274L183 307Q151 316 125 328.5Q99 341 81 359.5Q63 378 53 403Q43 428 43 462Q43 500 58.5 530Q74 560 101.5 580.5Q129 601 166.5 612Q204 623 247 623Q293 623 328 612.5Q363 602 388.5 582.5Q414 563 430 536Q446 509 453 477L404 468Q393 518 357.5 547.5Q322 577 247 577Q214 577 186 569.5Q158 562 137.5 547.5Q117 533 105 512.5Q93 492 93 466Q93 440 100.5 421.5Q108 403 122.5 390.5Q137 378 158.5 368.5Q180 359 208 351L311 322Q387 300 422 260.5Q457 221 457 159Q457 118 440 87Q423 56 394 34.5Q365 13 326 2Q287 -9 243 -9Q153 -9 94 28.5Q35 66 24 141ZM224 665 307 782H364L276 665Z" glyph-name="Sacute" horiz-adv-x="498" unicode="&#346;" /><glyph d="M135 779H183L250 696L316 779H364L272 660H227ZM75 149Q84 95 125.5 66Q167 37 243 37Q276 37 306 44.5Q336 52 358 67Q380 82 393 104.5Q406 127 406 157Q406 200 382 229Q358 258 300 274L183 307Q151 316 125 328.5Q99 341 81 359.5Q63 378 53 403Q43 428 43 462Q43 500 58.5 530Q74 560 101.5 580.5Q129 601 166.5 612Q204 623 247 623Q293 623 328 612.5Q363 602 388.5 582.5Q414 563 430 536Q446 509 453 477L404 468Q393 518 357.5 547.5Q322 577 247 577Q214 577 186 569.5Q158 562 137.5 547.5Q117 533 105 512.5Q93 492 93 466Q93 440 100.5 421.5Q108 403 122.5 390.5Q137 378 158.5 368.5Q180 359 208 351L311 322Q387 300 422 260.5Q457 221 457 159Q457 118 440 87Q423 56 394 34.5Q365 13 326 2Q287 -9 243 -9Q153 -9 94 28.5Q35 66 24 141Z" glyph-name="Scaron" horiz-adv-x="498" unicode="&#352;" /><glyph d="M222 -8Q140 -4 87.5 33Q35 70 24 141L75 149Q84 95 125.5 66Q167 37 243 37Q276 37 306 44.5Q336 52 358 67Q380 82 393 104.5Q406 127 406 157Q406 200 382 229Q358 258 300 274L183 307Q151 316 125 328.5Q99 341 81 359.5Q63 378 53 403Q43 428 43 462Q43 500 58.5 530Q74 560 101.5 580.5Q129 601 166.5 612Q204 623 247 623Q293 623 328 612.5Q363 602 388.5 582.5Q414 563 430 536Q446 509 453 477L404 468Q393 518 357.5 547.5Q322 577 247 577Q214 577 186 569.5Q158 562 137.5 547.5Q117 533 105 512.5Q93 492 93 466Q93 440 100.5 421.5Q108 403 122.5 390.5Q137 378 158.5 368.5Q180 359 208 351L311 322Q387 300 422 260.5Q457 221 457 159Q457 120 441 89Q425 58 397.5 37Q370 16 333.5 4Q297 -8 255 -9L248 -41Q281 -49 301.5 -67.5Q322 -86 322 -114Q322 -142 303 -160.5Q284 -179 239 -179Q213 -179 195.5 -173Q178 -167 167 -160L175 -129Q185 -135 199.5 -140Q214 -145 235 -145Q285 -145 285 -113Q285 -91 263.5 -78.5Q242 -66 211 -64Z" glyph-name="Scedilla" horiz-adv-x="498" unicode="&#350;" /><glyph d="M39 321H528Q526 379 508.5 426Q491 473 461.5 506Q432 539 392 556.5Q352 574 305 574Q230 574 178.5 539Q127 504 113 447L64 455Q72 492 93.5 523Q115 554 146.5 576.5Q178 599 218 611Q258 623 304 623Q362 623 412.5 601Q463 579 500.5 538Q538 497 559.5 438.5Q581 380 581 307Q581 234 560 175.5Q539 117 502 76Q465 35 414.5 13Q364 -9 306 -9Q246 -9 197 15Q148 39 112.5 80.5Q77 122 58 178Q39 234 39 299ZM304 40Q350 40 389 56Q428 72 457 102Q486 132 504 175.5Q522 219 527 274H92Q93 227 109 185Q125 143 152.5 110.5Q180 78 218.5 59Q257 40 304 40Z" glyph-name="Schwa" horiz-adv-x="619" unicode="&#399;" /><glyph d="M75 149Q84 95 125.5 66Q167 37 243 37Q276 37 306 44.5Q336 52 358 67Q380 82 393 104.5Q406 127 406 157Q406 200 382 229Q358 258 300 274L183 307Q151 316 125 328.5Q99 341 81 359.5Q63 378 53 403Q43 428 43 462Q43 500 58.5 530Q74 560 101.5 580.5Q129 601 166.5 612Q204 623 247 623Q293 623 328 612.5Q363 602 388.5 582.5Q414 563 430 536Q446 509 453 477L404 468Q393 518 357.5 547.5Q322 577 247 577Q214 577 186 569.5Q158 562 137.5 547.5Q117 533 105 512.5Q93 492 93 466Q93 440 100.5 421.5Q108 403 122.5 390.5Q137 378 158.5 368.5Q180 359 208 351L311 322Q387 300 422 260.5Q457 221 457 159Q457 118 440 87Q423 56 394 34.5Q365 13 326 2Q287 -9 243 -9Q153 -9 94 28.5Q35 66 24 141ZM364 667H316L250 750L183 667H135L227 786H272Z" glyph-name="Scircumflex" horiz-adv-x="498" unicode="&#348;" /><glyph d="M197 -157Q219 -152 232 -141.5Q245 -131 247 -110Q245 -111 242 -111Q239 -111 237 -111Q223 -111 215 -102.5Q207 -94 207 -80Q207 -66 215.5 -58Q224 -50 238 -50H239Q275 -52 275 -93Q275 -162 201 -179ZM75 149Q84 95 125.5 66Q167 37 243 37Q276 37 306 44.5Q336 52 358 67Q380 82 393 104.5Q406 127 406 157Q406 200 382 229Q358 258 300 274L183 307Q151 316 125 328.5Q99 341 81 359.5Q63 378 53 403Q43 428 43 462Q43 500 58.5 530Q74 560 101.5 580.5Q129 601 166.5 612Q204 623 247 623Q293 623 328 612.5Q363 602 388.5 582.5Q414 563 430 536Q446 509 453 477L404 468Q393 518 357.5 547.5Q322 577 247 577Q214 577 186 569.5Q158 562 137.5 547.5Q117 533 105 512.5Q93 492 93 466Q93 440 100.5 421.5Q108 403 122.5 390.5Q137 378 158.5 368.5Q180 359 208 351L311 322Q387 300 422 260.5Q457 221 457 159Q457 118 440 87Q423 56 394 34.5Q365 13 326 2Q287 -9 243 -9Q153 -9 94 28.5Q35 66 24 141Z" glyph-name="Scommaaccent" horiz-adv-x="498" unicode="&#536;" /><glyph d="M31 614H531V566H307V0H255V566H31Z" glyph-name="T" horiz-adv-x="562" unicode="T" /><glyph d="M31 614H531V566H307V340H424V295H307V0H255V295H138V340H255V566H31Z" glyph-name="Tbar" horiz-adv-x="562" unicode="&#358;" /><glyph d="M167 779H214L281 696L348 779H395L303 660H259ZM31 614H531V566H307V0H255V566H31Z" glyph-name="Tcaron" horiz-adv-x="562" unicode="&#356;" /><glyph d="M240 -157Q262 -152 275 -141.5Q288 -131 290 -110Q288 -111 285 -111Q282 -111 280 -111Q266 -111 258 -102.5Q250 -94 250 -80Q250 -66 258.5 -58Q267 -50 281 -50H282Q318 -52 318 -93Q318 -162 244 -179ZM31 614H531V566H307V0H255V566H31Z" glyph-name="Tcommaaccent" horiz-adv-x="562" unicode="&#354;" /><glyph d="M31 614H531V566H307V0H255V566H31ZM248 715Q248 730 257 739Q266 748 281 748Q296 748 305 739Q314 730 314 715Q314 700 305 691Q296 682 281 682Q266 682 257 691Q248 700 248 715Z" glyph-name="Tdotaccent" horiz-adv-x="562" unicode="&#7786;" /><glyph d="M131 140V0H79V614H131V489H301Q392 489 443.5 445Q495 401 495 315Q495 228 443.5 184Q392 140 301 140ZM443 315Q443 375 407 408.5Q371 442 299 442H131V187H299Q371 187 407 221Q443 255 443 315Z" glyph-name="Thorn" horiz-adv-x="529" unicode="&#222;" /><glyph d="M302 -9Q252 -9 209.5 6.5Q167 22 135 53Q103 84 85 131.5Q67 179 67 242V614H119V249Q119 195 132.5 155.5Q146 116 170.5 90Q195 64 228.5 51.5Q262 39 302 39Q341 39 375 51.5Q409 64 433.5 90Q458 116 472 155.5Q486 195 486 249V614H538V242Q538 179 519.5 131.5Q501 84 469.5 53Q438 22 394.5 6.5Q351 -9 302 -9Z" glyph-name="U" horiz-adv-x="605" unicode="U" /><glyph d="M272 665 354 782H411L323 665ZM302 -9Q252 -9 209.5 6.5Q167 22 135 53Q103 84 85 131.5Q67 179 67 242V614H119V249Q119 195 132.5 155.5Q146 116 170.5 90Q195 64 228.5 51.5Q262 39 302 39Q341 39 375 51.5Q409 64 433.5 90Q458 116 472 155.5Q486 195 486 249V614H538V242Q538 179 519.5 131.5Q501 84 469.5 53Q438 22 394.5 6.5Q351 -9 302 -9Z" glyph-name="Uacute" horiz-adv-x="605" unicode="&#218;" /><glyph d="M303 664Q258 664 229 694Q200 724 200 781H240Q240 743 257.5 723Q275 703 303 703Q330 703 347.5 723Q365 743 365 781H406Q406 724 377 694Q348 664 303 664ZM302 -9Q252 -9 209.5 6.5Q167 22 135 53Q103 84 85 131.5Q67 179 67 242V614H119V249Q119 195 132.5 155.5Q146 116 170.5 90Q195 64 228.5 51.5Q262 39 302 39Q341 39 375 51.5Q409 64 433.5 90Q458 116 472 155.5Q486 195 486 249V614H538V242Q538 179 519.5 131.5Q501 84 469.5 53Q438 22 394.5 6.5Q351 -9 302 -9Z" glyph-name="Ubreve" horiz-adv-x="605" unicode="&#364;" /><glyph d="M302 -9Q252 -9 209.5 6.5Q167 22 135 53Q103 84 85 131.5Q67 179 67 242V614H119V249Q119 195 132.5 155.5Q146 116 170.5 90Q195 64 228.5 51.5Q262 39 302 39Q341 39 375 51.5Q409 64 433.5 90Q458 116 472 155.5Q486 195 486 249V614H538V242Q538 179 519.5 131.5Q501 84 469.5 53Q438 22 394.5 6.5Q351 -9 302 -9ZM417 667H369L303 750L236 667H188L280 786H325Z" glyph-name="Ucircumflex" horiz-adv-x="605" unicode="&#219;" /><glyph d="M207 715Q207 730 216 739Q225 748 240 748Q255 748 264 739Q273 730 273 715Q273 700 264 691Q255 682 240 682Q225 682 216 691Q207 700 207 715ZM332 715Q332 730 341.5 739Q351 748 365 748Q380 748 389 739Q398 730 398 715Q398 700 389 691Q380 682 365 682Q351 682 341.5 691Q332 700 332 715ZM302 -9Q252 -9 209.5 6.5Q167 22 135 53Q103 84 85 131.5Q67 179 67 242V614H119V249Q119 195 132.5 155.5Q146 116 170.5 90Q195 64 228.5 51.5Q262 39 302 39Q341 39 375 51.5Q409 64 433.5 90Q458 116 472 155.5Q486 195 486 249V614H538V242Q538 179 519.5 131.5Q501 84 469.5 53Q438 22 394.5 6.5Q351 -9 302 -9Z" glyph-name="Udieresis" horiz-adv-x="605" unicode="&#220;" /><glyph d="M278 665 190 782H247L330 665ZM302 -9Q252 -9 209.5 6.5Q167 22 135 53Q103 84 85 131.5Q67 179 67 242V614H119V249Q119 195 132.5 155.5Q146 116 170.5 90Q195 64 228.5 51.5Q262 39 302 39Q341 39 375 51.5Q409 64 433.5 90Q458 116 472 155.5Q486 195 486 249V614H538V242Q538 179 519.5 131.5Q501 84 469.5 53Q438 22 394.5 6.5Q351 -9 302 -9Z" glyph-name="Ugrave" horiz-adv-x="605" unicode="&#217;" /><glyph d="M302 -9Q252 -9 209.5 6.5Q167 22 135 53Q103 84 85 131.5Q67 179 67 242V614H119V249Q119 195 132.5 155.5Q146 116 170.5 90Q195 64 228.5 51.5Q262 39 302 39Q341 39 375 51.5Q409 64 433.5 90Q458 116 472 155.5Q486 195 486 249V614H538V242Q538 179 519.5 131.5Q501 84 469.5 53Q438 22 394.5 6.5Q351 -9 302 -9ZM227 665 300 782H347L272 665ZM338 665 412 782H458L384 665Z" glyph-name="Uhungarumlaut" horiz-adv-x="605" unicode="&#368;" /><glyph d="M202 712H404V670H202ZM302 -9Q252 -9 209.5 6.5Q167 22 135 53Q103 84 85 131.5Q67 179 67 242V614H119V249Q119 195 132.5 155.5Q146 116 170.5 90Q195 64 228.5 51.5Q262 39 302 39Q341 39 375 51.5Q409 64 433.5 90Q458 116 472 155.5Q486 195 486 249V614H538V242Q538 179 519.5 131.5Q501 84 469.5 53Q438 22 394.5 6.5Q351 -9 302 -9Z" glyph-name="Umacron" horiz-adv-x="605" unicode="&#362;" /><glyph d="M302 -9Q252 -9 209.5 6.5Q167 22 135 53Q103 84 85 131.5Q67 179 67 242V614H119V249Q119 195 132.5 155.5Q146 116 170.5 90Q195 64 228.5 51.5Q262 39 302 39Q341 39 375 51.5Q409 64 433.5 90Q458 116 472 155.5Q486 195 486 249V614H538V242Q538 190 525.5 149Q513 108 490.5 77.5Q468 47 437 27.5Q406 8 369 -1Q340 -15 319 -38Q298 -61 298 -92Q298 -116 313.5 -129Q329 -142 355 -142Q372 -142 385.5 -138Q399 -134 405 -130L413 -162Q406 -167 388.5 -173Q371 -179 348 -179Q303 -179 281 -156Q259 -133 259 -98Q259 -69 271.5 -47Q284 -25 304 -9Z" glyph-name="Uogonek" horiz-adv-x="605" unicode="&#370;" /><glyph d="M302 -9Q252 -9 209.5 6.5Q167 22 135 53Q103 84 85 131.5Q67 179 67 242V614H119V249Q119 195 132.5 155.5Q146 116 170.5 90Q195 64 228.5 51.5Q262 39 302 39Q341 39 375 51.5Q409 64 433.5 90Q458 116 472 155.5Q486 195 486 249V614H538V242Q538 179 519.5 131.5Q501 84 469.5 53Q438 22 394.5 6.5Q351 -9 302 -9ZM384 729Q384 694 360.5 671Q337 648 303 648Q268 648 244.5 671Q221 694 221 729Q221 763 244.5 786.5Q268 810 303 810Q337 810 360.5 786.5Q384 763 384 729ZM352 729Q352 749 337.5 763.5Q323 778 303 778Q282 778 267.5 763.5Q253 749 253 729Q253 708 267.5 693.5Q282 679 303 679Q323 679 337.5 693.5Q352 708 352 729Z" glyph-name="Uring" horiz-adv-x="605" unicode="&#366;" /><glyph d="M428 770Q428 722 411 693.5Q394 665 360 665Q340 665 325.5 675Q311 685 298.5 696.5Q286 708 274.5 718Q263 728 249 728Q232 728 222.5 712Q213 696 213 668H177Q177 716 194.5 744.5Q212 773 246 773Q265 773 279.5 763Q294 753 306.5 741Q319 729 330.5 719Q342 709 356 709Q374 709 383 725Q392 741 393 770ZM302 -9Q252 -9 209.5 6.5Q167 22 135 53Q103 84 85 131.5Q67 179 67 242V614H119V249Q119 195 132.5 155.5Q146 116 170.5 90Q195 64 228.5 51.5Q262 39 302 39Q341 39 375 51.5Q409 64 433.5 90Q458 116 472 155.5Q486 195 486 249V614H538V242Q538 179 519.5 131.5Q501 84 469.5 53Q438 22 394.5 6.5Q351 -9 302 -9Z" glyph-name="Utilde" horiz-adv-x="605" unicode="&#360;" /><glyph d="M265 0 23 614H77L289 71L501 614H554L312 0Z" glyph-name="V" horiz-adv-x="577" unicode="V" /><glyph d="M401 614 545 87 687 614H737L570 0H523L379 522L236 0H189L22 614H73L215 87L358 614Z" glyph-name="W" horiz-adv-x="759" unicode="W" /><glyph d="M357 665 440 782H497L409 665ZM401 614 545 87 687 614H737L570 0H523L379 522L236 0H189L22 614H73L215 87L358 614Z" glyph-name="Wacute" horiz-adv-x="759" unicode="&#7810;" /><glyph d="M401 614 545 87 687 614H737L570 0H523L379 522L236 0H189L22 614H73L215 87L358 614ZM493 667H446L379 750L312 667H265L357 786H402Z" glyph-name="Wcircumflex" horiz-adv-x="759" unicode="&#372;" /><glyph d="M284 715Q284 730 293 739Q302 748 317 748Q331 748 340.5 739Q350 730 350 715Q350 700 340.5 691Q331 682 317 682Q302 682 293 691Q284 700 284 715ZM409 715Q409 730 418 739Q427 748 442 748Q457 748 466 739Q475 730 475 715Q475 700 466 691Q457 682 442 682Q427 682 418 691Q409 700 409 715ZM401 614 545 87 687 614H737L570 0H523L379 522L236 0H189L22 614H73L215 87L358 614Z" glyph-name="Wdieresis" horiz-adv-x="759" unicode="&#7812;" /><glyph d="M348 665 260 782H317L400 665ZM401 614 545 87 687 614H737L570 0H523L379 522L236 0H189L22 614H73L215 87L358 614Z" glyph-name="Wgrave" horiz-adv-x="759" unicode="&#7808;" /><glyph d="M299 312 517 0H458L269 270L81 0H24L241 311L30 614H89L271 353L453 614H510Z" glyph-name="X" horiz-adv-x="541" unicode="X" /><glyph d="M462 614H517L294 261V0H242V261L19 614H76L269 309Z" glyph-name="Y" horiz-adv-x="536" unicode="Y" /><glyph d="M462 614H517L294 261V0H242V261L19 614H76L269 309ZM239 665 321 782H378L290 665Z" glyph-name="Yacute" horiz-adv-x="536" unicode="&#221;" /><glyph d="M462 614H517L294 261V0H242V261L19 614H76L269 309ZM382 667H334L268 750L201 667H153L245 786H290Z" glyph-name="Ycircumflex" horiz-adv-x="536" unicode="&#374;" /><glyph d="M462 614H517L294 261V0H242V261L19 614H76L269 309ZM172 715Q172 730 181 739Q190 748 205 748Q220 748 229 739Q238 730 238 715Q238 700 229 691Q220 682 205 682Q190 682 181 691Q172 700 172 715ZM297 715Q297 730 306.5 739Q316 748 330 748Q345 748 354 739Q363 730 363 715Q363 700 354 691Q345 682 330 682Q316 682 306.5 691Q297 700 297 715Z" glyph-name="Ydieresis" horiz-adv-x="536" unicode="&#376;" /><glyph d="M462 614H517L294 261V0H242V261L19 614H76L269 309ZM241 665 153 782H210L293 665Z" glyph-name="Ygrave" horiz-adv-x="536" unicode="&#7922;" /><glyph d="M462 614H517L294 261V0H242V261L19 614H76L269 309ZM167 712H369V670H167Z" glyph-name="Ymacron" horiz-adv-x="536" unicode="&#562;" /><glyph d="M480 0H37V39L411 566H42V614H475V575L102 48H480Z" glyph-name="Z" horiz-adv-x="519" unicode="Z" /><glyph d="M480 0H37V39L411 566H42V614H475V575L102 48H480ZM220 665 303 782H360L272 665Z" glyph-name="Zacute" horiz-adv-x="519" unicode="&#377;" /><glyph d="M137 779H185L251 696L318 779H366L274 660H229ZM480 0H37V39L411 566H42V614H475V575L102 48H480Z" glyph-name="Zcaron" horiz-adv-x="519" unicode="&#142;" /><glyph d="M218 715Q218 730 227.5 739Q237 748 251 748Q266 748 275 739Q284 730 284 715Q284 700 275 691Q266 682 251 682Q237 682 227.5 691Q218 700 218 715ZM480 0H37V39L411 566H42V614H475V575L102 48H480Z" glyph-name="Zdotaccent" horiz-adv-x="519" unicode="&#379;" /><glyph d="M325 158Q314 187 280 205.5Q246 224 201 224Q179 224 158 218.5Q137 213 121 201.5Q105 190 95.5 172Q86 154 86 130Q86 106 95.5 88Q105 70 121 58.5Q137 47 157.5 41.5Q178 36 200 36Q247 36 280.5 55Q314 74 325 102ZM325 0V47Q309 26 274.5 9Q240 -8 191 -8Q160 -8 132.5 1.5Q105 11 84 28.5Q63 46 50.5 71.5Q38 97 38 130Q38 162 50.5 187.5Q63 213 84 230.5Q105 248 133.5 257.5Q162 267 194 267Q240 267 274.5 251Q309 235 325 216V298Q325 347 296 377.5Q267 408 212 408Q119 408 103 332L56 341Q66 392 106.5 422.5Q147 453 213 453Q287 453 330 411.5Q373 370 373 300V0Z" glyph-name="a" horiz-adv-x="439" unicode="a" /><glyph d="M325 158Q314 187 280 205.5Q246 224 201 224Q179 224 158 218.5Q137 213 121 201.5Q105 190 95.5 172Q86 154 86 130Q86 106 95.5 88Q105 70 121 58.5Q137 47 157.5 41.5Q178 36 200 36Q247 36 280.5 55Q314 74 325 102ZM325 0V47Q309 26 274.5 9Q240 -8 191 -8Q160 -8 132.5 1.5Q105 11 84 28.5Q63 46 50.5 71.5Q38 97 38 130Q38 162 50.5 187.5Q63 213 84 230.5Q105 248 133.5 257.5Q162 267 194 267Q240 267 274.5 251Q309 235 325 216V298Q325 347 296 377.5Q267 408 212 408Q119 408 103 332L56 341Q66 392 106.5 422.5Q147 453 213 453Q287 453 330 411.5Q373 370 373 300V0ZM192 518 275 650H328L241 518Z" glyph-name="aacute" horiz-adv-x="439" unicode="&#225;" /><glyph d="M325 158Q314 187 280 205.5Q246 224 201 224Q179 224 158 218.5Q137 213 121 201.5Q105 190 95.5 172Q86 154 86 130Q86 106 95.5 88Q105 70 121 58.5Q137 47 157.5 41.5Q178 36 200 36Q247 36 280.5 55Q314 74 325 102ZM325 0V47Q309 26 274.5 9Q240 -8 191 -8Q160 -8 132.5 1.5Q105 11 84 28.5Q63 46 50.5 71.5Q38 97 38 130Q38 162 50.5 187.5Q63 213 84 230.5Q105 248 133.5 257.5Q162 267 194 267Q240 267 274.5 251Q309 235 325 216V298Q325 347 296 377.5Q267 408 212 408Q119 408 103 332L56 341Q66 392 106.5 422.5Q147 453 213 453Q287 453 330 411.5Q373 370 373 300V0ZM218 506Q173 506 143 537Q113 568 112 631H153Q154 589 171.5 567.5Q189 546 218 546Q247 546 265 567.5Q283 589 284 631H325Q323 568 293 537Q263 506 218 506Z" glyph-name="abreve" horiz-adv-x="439" unicode="&#259;" /><glyph d="M333 513H288L219 610L149 513H104L195 645H242ZM325 158Q314 187 280 205.5Q246 224 201 224Q179 224 158 218.5Q137 213 121 201.5Q105 190 95.5 172Q86 154 86 130Q86 106 95.5 88Q105 70 121 58.5Q137 47 157.5 41.5Q178 36 200 36Q247 36 280.5 55Q314 74 325 102ZM325 0V47Q309 26 274.5 9Q240 -8 191 -8Q160 -8 132.5 1.5Q105 11 84 28.5Q63 46 50.5 71.5Q38 97 38 130Q38 162 50.5 187.5Q63 213 84 230.5Q105 248 133.5 257.5Q162 267 194 267Q240 267 274.5 251Q309 235 325 216V298Q325 347 296 377.5Q267 408 212 408Q119 408 103 332L56 341Q66 392 106.5 422.5Q147 453 213 453Q287 453 330 411.5Q373 370 373 300V0Z" glyph-name="acircumflex" horiz-adv-x="439" unicode="&#226;" /><glyph d="M195 518 278 650H331L244 518Z" glyph-name="acute" horiz-adv-x="500" unicode="&#180;" /><glyph d="M180 665 263 782H320L232 665Z" glyph-name="acute.cap" horiz-adv-x="500" unicode="&#58402;" /><glyph d="M123 572Q123 587 132.5 596Q142 605 156 605Q171 605 180 596Q189 587 189 572Q189 558 180 548.5Q171 539 156 539Q142 539 132.5 548.5Q123 558 123 572ZM249 572Q249 587 258 596Q267 605 282 605Q296 605 305.5 596Q315 587 315 572Q315 558 305.5 548.5Q296 539 282 539Q267 539 258 548.5Q249 558 249 572ZM325 158Q314 187 280 205.5Q246 224 201 224Q179 224 158 218.5Q137 213 121 201.5Q105 190 95.5 172Q86 154 86 130Q86 106 95.5 88Q105 70 121 58.5Q137 47 157.5 41.5Q178 36 200 36Q247 36 280.5 55Q314 74 325 102ZM325 0V47Q309 26 274.5 9Q240 -8 191 -8Q160 -8 132.5 1.5Q105 11 84 28.5Q63 46 50.5 71.5Q38 97 38 130Q38 162 50.5 187.5Q63 213 84 230.5Q105 248 133.5 257.5Q162 267 194 267Q240 267 274.5 251Q309 235 325 216V298Q325 347 296 377.5Q267 408 212 408Q119 408 103 332L56 341Q66 392 106.5 422.5Q147 453 213 453Q287 453 330 411.5Q373 370 373 300V0Z" glyph-name="adieresis" horiz-adv-x="439" unicode="&#228;" /><glyph d="M690 121Q685 93 669.5 69Q654 45 631.5 28Q609 11 580.5 1Q552 -9 519 -9Q460 -9 416.5 19Q373 47 348 95Q337 75 322 56.5Q307 38 286.5 24Q266 10 241 1Q216 -8 185 -8Q152 -8 124.5 1.5Q97 11 76.5 28Q56 45 45 70Q34 95 34 125Q34 156 47 180.5Q60 205 83 222.5Q106 240 136 249Q166 258 201 258H322V298Q322 347 293.5 377.5Q265 408 210 408Q117 408 101 332L54 341Q64 392 104 422.5Q144 453 210 453Q267 453 305 426Q343 399 356 354Q380 398 419.5 425.5Q459 453 513 453Q558 453 591.5 437Q625 421 648 392Q671 363 682.5 323Q694 283 694 236V218H367Q367 175 378.5 141Q390 107 410.5 83.5Q431 60 458 47.5Q485 35 517 35Q565 35 600 60Q635 85 642 129ZM188 35Q240 35 275 65.5Q310 96 324 136Q323 138 322.5 151.5Q322 165 322 179V217H203Q179 217 157.5 211.5Q136 206 119 194.5Q102 183 92 166Q82 149 82 126Q82 81 113 58Q144 35 188 35ZM513 409Q453 409 414.5 368Q376 327 369 258H643Q642 287 634 314Q626 341 610 362Q594 383 570 396Q546 409 513 409Z" glyph-name="ae" horiz-adv-x="731" unicode="&#230;" /><glyph d="M364 518 447 650H500L413 518ZM690 121Q685 93 669.5 69Q654 45 631.5 28Q609 11 580.5 1Q552 -9 519 -9Q460 -9 416.5 19Q373 47 348 95Q337 75 322 56.5Q307 38 286.5 24Q266 10 241 1Q216 -8 185 -8Q152 -8 124.5 1.5Q97 11 76.5 28Q56 45 45 70Q34 95 34 125Q34 156 47 180.5Q60 205 83 222.5Q106 240 136 249Q166 258 201 258H322V298Q322 347 293.5 377.5Q265 408 210 408Q117 408 101 332L54 341Q64 392 104 422.5Q144 453 210 453Q267 453 305 426Q343 399 356 354Q380 398 419.5 425.5Q459 453 513 453Q558 453 591.5 437Q625 421 648 392Q671 363 682.5 323Q694 283 694 236V218H367Q367 175 378.5 141Q390 107 410.5 83.5Q431 60 458 47.5Q485 35 517 35Q565 35 600 60Q635 85 642 129ZM188 35Q240 35 275 65.5Q310 96 324 136Q323 138 322.5 151.5Q322 165 322 179V217H203Q179 217 157.5 211.5Q136 206 119 194.5Q102 183 92 166Q82 149 82 126Q82 81 113 58Q144 35 188 35ZM513 409Q453 409 414.5 368Q376 327 369 258H643Q642 287 634 314Q626 341 610 362Q594 383 570 396Q546 409 513 409Z" glyph-name="aeacute" horiz-adv-x="731" unicode="&#509;" /><glyph d="M325 158Q314 187 280 205.5Q246 224 201 224Q179 224 158 218.5Q137 213 121 201.5Q105 190 95.5 172Q86 154 86 130Q86 106 95.5 88Q105 70 121 58.5Q137 47 157.5 41.5Q178 36 200 36Q247 36 280.5 55Q314 74 325 102ZM325 0V47Q309 26 274.5 9Q240 -8 191 -8Q160 -8 132.5 1.5Q105 11 84 28.5Q63 46 50.5 71.5Q38 97 38 130Q38 162 50.5 187.5Q63 213 84 230.5Q105 248 133.5 257.5Q162 267 194 267Q240 267 274.5 251Q309 235 325 216V298Q325 347 296 377.5Q267 408 212 408Q119 408 103 332L56 341Q66 392 106.5 422.5Q147 453 213 453Q287 453 330 411.5Q373 370 373 300V0ZM197 518 110 650H163L246 518Z" glyph-name="agrave" horiz-adv-x="439" unicode="&#224;" /><glyph d="M325 158Q314 187 280 205.5Q246 224 201 224Q179 224 158 218.5Q137 213 121 201.5Q105 190 95.5 172Q86 154 86 130Q86 106 95.5 88Q105 70 121 58.5Q137 47 157.5 41.5Q178 36 200 36Q247 36 280.5 55Q314 74 325 102ZM325 0V47Q309 26 274.5 9Q240 -8 191 -8Q160 -8 132.5 1.5Q105 11 84 28.5Q63 46 50.5 71.5Q38 97 38 130Q38 162 50.5 187.5Q63 213 84 230.5Q105 248 133.5 257.5Q162 267 194 267Q240 267 274.5 251Q309 235 325 216V298Q325 347 296 377.5Q267 408 212 408Q119 408 103 332L56 341Q66 392 106.5 422.5Q147 453 213 453Q287 453 330 411.5Q373 370 373 300V0ZM119 582H322V539H119Z" glyph-name="amacron" horiz-adv-x="439" unicode="&#257;" /><glyph d="M38 169Q38 205 48 232Q58 259 75 280.5Q92 302 116 319.5Q140 337 167 352Q139 384 117 419Q95 454 95 494Q95 552 131.5 587.5Q168 623 228 623Q288 623 324.5 587.5Q361 552 361 494Q361 446 331 411.5Q301 377 239 343L420 143Q442 178 452.5 222Q463 266 465 314L512 306Q510 252 495 201.5Q480 151 451 109L550 0H486L421 71Q386 34 338 12.5Q290 -9 231 -9Q188 -9 152.5 3Q117 15 91.5 38Q66 61 52 94Q38 127 38 169ZM231 35Q282 35 322 53.5Q362 72 391 104L199 318Q198 319 197.5 319Q197 319 196 320Q173 307 153 293Q133 279 118 261Q103 243 94.5 220.5Q86 198 86 169Q86 104 126 69.5Q166 35 231 35ZM144 495Q144 460 165 430Q186 400 209 375Q237 390 256.5 403Q276 416 288.5 429.5Q301 443 307 459Q313 475 313 495Q313 537 289.5 559Q266 581 228 581Q191 581 167.5 559Q144 537 144 495Z" glyph-name="ampersand" horiz-adv-x="562" unicode="&amp;" /><glyph d="M375 474Q370 523 341 552Q312 581 263 581Q215 581 183.5 552.5Q152 524 152 472Q152 434 174 405Q196 376 226 344L415 143Q435 178 445 220.5Q455 263 457 311L504 303Q502 250 487.5 201Q473 152 446 110L550 0H486L417 73Q382 35 336 13Q290 -9 231 -9Q189 -9 153.5 5Q118 19 92.5 44Q67 69 52.5 103.5Q38 138 38 178Q38 236 71.5 282Q105 328 157 349Q133 378 118.5 406Q104 434 104 472Q104 506 116 534Q128 562 149.5 582Q171 602 200 612.5Q229 623 263 623Q335 623 375 582.5Q415 542 423 482ZM231 35Q281 35 320 53.5Q359 72 388 104L187 317Q143 303 114.5 264.5Q86 226 86 178Q86 147 97 121Q108 95 127 76Q146 57 172.5 46Q199 35 231 35Z" glyph-name="ampersand.alt" horiz-adv-x="562" unicode="&#60321;" /><glyph d="M373 0Q343 -14 321 -37Q299 -60 299 -92Q299 -116 314.5 -129Q330 -142 356 -142Q373 -142 386.5 -138Q400 -134 406 -130L414 -162Q407 -167 389.5 -173Q372 -179 349 -179Q304 -179 282 -156Q260 -133 260 -98Q260 -63 279.5 -37Q299 -11 325 4V47Q309 26 274.5 9Q240 -8 191 -8Q160 -8 132.5 1.5Q105 11 84 28.5Q63 46 50.5 71.5Q38 97 38 130Q38 162 50.5 187.5Q63 213 84 230.5Q105 248 133.5 257.5Q162 267 194 267Q240 267 274.5 251Q309 235 325 216V298Q325 347 296 377.5Q267 408 212 408Q119 408 103 332L56 341Q66 392 106.5 422.5Q147 453 213 453Q287 453 330 411.5Q373 370 373 300ZM325 158Q314 187 280 205.5Q246 224 201 224Q179 224 158 218.5Q137 213 121 201.5Q105 190 95.5 172Q86 154 86 130Q86 106 95.5 88Q105 70 121 58.5Q137 47 157.5 41.5Q178 36 200 36Q247 36 280.5 55Q314 74 325 102Z" glyph-name="aogonek" horiz-adv-x="439" unicode="&#261;" /><glyph d="M75 350Q102 375 127 385Q152 395 175 395Q199 395 220 387.5Q241 380 261 371.5Q281 363 301.5 355.5Q322 348 345 348Q368 348 394 359Q420 370 448 396V350Q420 325 394 315Q368 305 345 305Q321 305 300 312.5Q279 320 259 328.5Q239 337 218.5 344.5Q198 352 175 352Q127 352 75 304ZM75 240Q102 265 127 275.5Q152 286 175 286Q199 286 220 278.5Q241 271 261 262.5Q281 254 301.5 246.5Q322 239 345 239Q368 239 394 250Q420 261 448 287V241Q420 215 394 205.5Q368 196 345 196Q321 196 300 203Q279 210 259 219Q239 228 218.5 235Q198 242 175 242Q128 242 75 195Z" glyph-name="approxequal" horiz-adv-x="522" unicode="&#8776;" /><glyph d="M73 350Q100 375 125 385Q150 395 173 395Q197 395 218 387.5Q239 380 259.5 371.5Q280 363 300 355.5Q320 348 343 348Q366 348 392 359Q418 370 446 396V350Q418 325 392 315Q366 305 343 305Q319 305 298.5 312.5Q278 320 257.5 328.5Q237 337 216.5 344.5Q196 352 173 352Q150 352 125 340.5Q100 329 73 304ZM73 240Q100 265 125 275.5Q150 286 173 286Q197 286 218 278.5Q239 271 259.5 262.5Q280 254 300 246.5Q320 239 343 239Q366 239 392 250Q418 261 446 287V241Q418 215 392 205.5Q366 196 343 196Q319 196 298.5 203Q278 210 257.5 219Q237 228 216.5 235Q196 242 173 242Q126 242 73 195Z" glyph-name="approxequal.lt" horiz-adv-x="520" /><glyph d="M325 158Q314 187 280 205.5Q246 224 201 224Q179 224 158 218.5Q137 213 121 201.5Q105 190 95.5 172Q86 154 86 130Q86 106 95.5 88Q105 70 121 58.5Q137 47 157.5 41.5Q178 36 200 36Q247 36 280.5 55Q314 74 325 102ZM325 0V47Q309 26 274.5 9Q240 -8 191 -8Q160 -8 132.5 1.5Q105 11 84 28.5Q63 46 50.5 71.5Q38 97 38 130Q38 162 50.5 187.5Q63 213 84 230.5Q105 248 133.5 257.5Q162 267 194 267Q240 267 274.5 251Q309 235 325 216V298Q325 347 296 377.5Q267 408 212 408Q119 408 103 332L56 341Q66 392 106.5 422.5Q147 453 213 453Q287 453 330 411.5Q373 370 373 300V0ZM300 579Q300 545 276.5 521.5Q253 498 219 498Q184 498 160.5 521.5Q137 545 137 579Q137 614 160.5 637Q184 660 219 660Q253 660 276.5 637Q300 614 300 579ZM268 579Q268 600 253.5 614.5Q239 629 219 629Q198 629 184 614.5Q170 600 170 579Q170 559 184 544.5Q198 530 219 530Q239 530 253.5 544.5Q268 559 268 579Z" glyph-name="aring" horiz-adv-x="439" unicode="&#229;" /><glyph d="M304 550Q304 521 279.5 500Q255 479 220 479Q185 479 160.5 500Q136 521 136 550Q136 580 160.5 600.5Q185 621 220 621Q255 621 279.5 600.5Q304 580 304 550ZM309 732 246 648H197L255 732ZM220 509Q241 509 256 520.5Q271 532 271 550Q271 568 256 579.5Q241 591 220 591Q199 591 184 579.5Q169 568 169 550Q169 532 184 520.5Q199 509 220 509ZM325 158Q314 187 280 205.5Q246 224 201 224Q179 224 158 218.5Q137 213 121 201.5Q105 190 95.5 172Q86 154 86 130Q86 106 95.5 88Q105 70 121 58.5Q137 47 157.5 41.5Q178 36 200 36Q247 36 280.5 55Q314 74 325 102ZM325 0V47Q309 26 274.5 9Q240 -8 191 -8Q160 -8 132.5 1.5Q105 11 84 28.5Q63 46 50.5 71.5Q38 97 38 130Q38 162 50.5 187.5Q63 213 84 230.5Q105 248 133.5 257.5Q162 267 194 267Q240 267 274.5 251Q309 235 325 216V298Q325 347 296 377.5Q267 408 212 408Q119 408 103 332L56 341Q66 392 106.5 422.5Q147 453 213 453Q287 453 330 411.5Q373 370 373 300V0Z" glyph-name="aringacute" horiz-adv-x="439" unicode="&#507;" /><glyph d="M183 614 297 433H244L161 562L78 433H24L139 614Z" glyph-name="asciicircum" horiz-adv-x="322" unicode="^" /><glyph d="M366 329Q366 276 343 245.5Q320 215 277 215Q253 215 234 226Q215 237 199 250.5Q183 264 167.5 275Q152 286 135 286Q111 286 98.5 268Q86 250 86 219H40Q40 271 63.5 302Q87 333 130 333Q154 333 172.5 321.5Q191 310 207 296.5Q223 283 238.5 272Q254 261 272 261Q296 261 308 279Q320 297 320 329Z" glyph-name="asciitilde" horiz-adv-x="406" unicode="~" /><glyph d="M31 567 48 595 141 541V649H174V541L267 595L284 567L190 513L284 459L267 431L174 485V377H141V485L48 431L31 459L125 513Z" glyph-name="asterisk" horiz-adv-x="315" unicode="*" /><glyph d="M504 125Q497 90 511 77.5Q525 65 551 65Q581 65 607 78.5Q633 92 652.5 117.5Q672 143 683.5 181Q695 219 695 268Q695 323 674 369.5Q653 416 615.5 450Q578 484 525.5 502.5Q473 521 410 521Q336 521 275.5 495Q215 469 171.5 423.5Q128 378 104 317Q80 256 80 186Q80 105 108.5 48Q137 -9 184 -45Q231 -81 290 -97.5Q349 -114 411 -114Q483 -114 549.5 -97.5Q616 -81 662 -58L669 -96Q624 -119 554.5 -136.5Q485 -154 411 -154Q339 -154 272 -134.5Q205 -115 152.5 -73.5Q100 -32 68.5 32.5Q37 97 37 186Q37 264 64 332.5Q91 401 140 452Q189 503 257.5 532.5Q326 562 410 562Q483 562 543.5 539.5Q604 517 647 477.5Q690 438 713.5 384.5Q737 331 737 268Q737 207 721 162Q705 117 678.5 87Q652 57 617.5 42Q583 27 546 27Q511 27 486 43Q461 59 455 88Q438 65 408.5 47Q379 29 347 29Q315 29 291 40.5Q267 52 250.5 71.5Q234 91 225.5 117.5Q217 144 217 175Q217 215 230 253.5Q243 292 266.5 322Q290 352 323.5 370Q357 388 398 388Q435 388 459.5 370Q484 352 495 331L504 380H549ZM485 279Q474 308 452.5 327Q431 346 400 346Q368 346 343 331Q318 316 300.5 291.5Q283 267 273.5 236.5Q264 206 264 176Q264 127 288 99Q312 71 353 71Q388 71 414 91.5Q440 112 460 141Z" glyph-name="at" horiz-adv-x="774" unicode="@" /><glyph d="M504 217Q497 182 511 169.5Q525 157 551 157Q581 157 607 170.5Q633 184 652.5 209.5Q672 235 683.5 273Q695 311 695 360Q695 415 674 461.5Q653 508 615.5 542Q578 576 525.5 594.5Q473 613 410 613Q336 613 275.5 587Q215 561 171.5 515.5Q128 470 104 409Q80 348 80 278Q80 197 108.5 140Q137 83 184 47Q231 11 290 -5.5Q349 -22 411 -22Q483 -22 549.5 -5.5Q616 11 662 34L669 -4Q624 -27 554.5 -44.5Q485 -62 411 -62Q339 -62 272 -42.5Q205 -23 152.5 18.5Q100 60 68.5 124.5Q37 189 37 278Q37 356 64 424.5Q91 493 140 544Q189 595 257.5 624.5Q326 654 410 654Q483 654 543.5 631.5Q604 609 647 569.5Q690 530 713.5 476.5Q737 423 737 360Q737 299 721 254Q705 209 678.5 179Q652 149 617.5 134Q583 119 546 119Q511 119 486 135Q461 151 455 180Q438 157 408.5 139Q379 121 347 121Q315 121 291 132.5Q267 144 250.5 163.5Q234 183 225.5 209.5Q217 236 217 267Q217 307 230 345.5Q243 384 266.5 414Q290 444 323.5 462Q357 480 398 480Q435 480 459.5 462Q484 444 495 423L504 472H549ZM485 371Q474 400 452.5 419Q431 438 400 438Q368 438 343 423Q318 408 300.5 383.5Q283 359 273.5 328.5Q264 298 264 268Q264 219 288 191Q312 163 353 163Q388 163 414 183.5Q440 204 460 233Z" glyph-name="at.cap" horiz-adv-x="774" unicode="&#58643;" /><glyph d="M325 158Q314 187 280 205.5Q246 224 201 224Q179 224 158 218.5Q137 213 121 201.5Q105 190 95.5 172Q86 154 86 130Q86 106 95.5 88Q105 70 121 58.5Q137 47 157.5 41.5Q178 36 200 36Q247 36 280.5 55Q314 74 325 102ZM325 0V47Q309 26 274.5 9Q240 -8 191 -8Q160 -8 132.5 1.5Q105 11 84 28.5Q63 46 50.5 71.5Q38 97 38 130Q38 162 50.5 187.5Q63 213 84 230.5Q105 248 133.5 257.5Q162 267 194 267Q240 267 274.5 251Q309 235 325 216V298Q325 347 296 377.5Q267 408 212 408Q119 408 103 332L56 341Q66 392 106.5 422.5Q147 453 213 453Q287 453 330 411.5Q373 370 373 300V0ZM350 624Q350 574 330 547Q310 520 278 520Q258 520 243 530Q228 540 215.5 551.5Q203 563 191 573Q179 583 166 583Q149 583 140 567.5Q131 552 131 525H91Q91 575 111 602Q131 629 163 629Q183 629 198 619Q213 609 225.5 597.5Q238 586 249.5 576Q261 566 275 566Q292 566 301.5 581.5Q311 597 311 624Z" glyph-name="atilde" horiz-adv-x="439" unicode="&#227;" /><glyph d="M121 0H71V650H121V378Q140 407 176.5 430Q213 453 259 453Q308 453 344.5 434Q381 415 405 383.5Q429 352 441 310Q453 268 453 222Q453 176 441 134Q429 92 405 60.5Q381 29 344.5 10Q308 -9 259 -9Q213 -9 176.5 14Q140 37 121 66ZM121 125Q144 83 179 60.5Q214 38 254 38Q289 38 316.5 51.5Q344 65 363 89.5Q382 114 392 148Q402 182 402 222Q402 262 392 296Q382 330 363 354.5Q344 379 316.5 392.5Q289 406 254 406Q214 406 179 383.5Q144 361 121 319Z" glyph-name="b" horiz-adv-x="492" unicode="b" /><glyph d="M302 -84H253L5 650H54Z" glyph-name="backslash" horiz-adv-x="307" unicode="\" /><glyph d="M302 -64H253L5 670H54Z" glyph-name="backslash.cap" horiz-adv-x="307" unicode="&#58466;" /><glyph d="M79 650H127V-84H79Z" glyph-name="bar" horiz-adv-x="206" unicode="|" /><glyph d="M79 670H127V-64H79Z" glyph-name="bar.cap" horiz-adv-x="206" unicode="&#58467;" /><glyph d="M121 0H71V650H121V378Q140 407 176.5 430Q213 453 259 453Q308 453 344.5 434Q381 415 405 383.5Q429 352 441 310Q453 268 453 222Q453 176 441 134Q429 92 405 60.5Q381 29 344.5 10Q308 -9 259 -9Q213 -9 176.5 14Q140 37 121 66ZM121 125Q144 83 179 60.5Q214 38 254 38Q289 38 316.5 51.5Q344 65 363 89.5Q382 114 392 148Q402 182 402 222Q402 262 392 296Q382 330 363 354.5Q344 379 316.5 392.5Q289 406 254 406Q214 406 179 383.5Q144 361 121 319ZM63 715Q63 730 72.5 739Q82 748 96 748Q111 748 120 739Q129 730 129 715Q129 700 120 691Q111 682 96 682Q82 682 72.5 691Q63 700 63 715Z" glyph-name="bdotaccent" horiz-adv-x="492" unicode="&#7683;" /><glyph d="M185 -38Q185 -82 227 -82H312V-126H227Q187 -126 162 -101Q137 -76 137 -34V217Q137 261 96 261H27V305H96Q137 305 137 349V600Q137 642 162 667Q187 692 227 692H312V648H227Q185 648 185 604V353Q185 328 174 310.5Q163 293 145 283Q163 273 174 255.5Q185 238 185 213Z" glyph-name="braceleft" horiz-adv-x="333" unicode="{" /><glyph d="M185 -18Q185 -62 227 -62H312V-106H227Q187 -106 162 -81Q137 -56 137 -14V237Q137 281 96 281H27V325H96Q137 325 137 369V620Q137 662 162 687Q187 712 227 712H312V668H227Q185 668 185 624V373Q185 348 174 330.5Q163 313 145 303Q163 293 174 275.5Q185 258 185 233Z" glyph-name="braceleft.cap" horiz-adv-x="333" unicode="&#58517;" /><glyph d="M148 213Q148 238 159 255.5Q170 273 188 283Q170 293 159 310.5Q148 328 148 353V604Q148 648 106 648H21V692H106Q146 692 170.5 667Q195 642 195 600V349Q195 305 237 305H306V261H237Q195 261 195 217V-34Q195 -76 170.5 -101Q146 -126 106 -126H21V-82H106Q148 -82 148 -38Z" glyph-name="braceright" horiz-adv-x="333" unicode="}" /><glyph d="M148 233Q148 258 159 275.5Q170 293 188 303Q170 313 159 330.5Q148 348 148 373V624Q148 668 106 668H21V712H106Q146 712 170.5 687Q195 662 195 620V369Q195 325 237 325H306V281H237Q195 281 195 237V-14Q195 -56 170.5 -81Q146 -106 106 -106H21V-62H106Q148 -62 148 -18Z" glyph-name="braceright.cap" horiz-adv-x="333" unicode="&#58518;" /><glyph d="M133 -82H273V-126H86V692H273V648H133Z" glyph-name="bracketleft" horiz-adv-x="313" unicode="[" /><glyph d="M133 -62H273V-105H86V712H273V669H133Z" glyph-name="bracketleft.cap" horiz-adv-x="313" unicode="&#58515;" /><glyph d="M179 648H40V692H227V-126H40V-82H179Z" glyph-name="bracketright" horiz-adv-x="313" unicode="]" /><glyph d="M179 669H40V712H227V-105H40V-62H179Z" glyph-name="bracketright.cap" horiz-adv-x="313" unicode="&#58516;" /><glyph d="M250 506Q205 506 175 537Q145 568 144 631H185Q185 589 203 567.5Q221 546 250 546Q279 546 297 567.5Q315 589 315 631H356Q355 568 325 537Q295 506 250 506Z" glyph-name="breve" horiz-adv-x="500" unicode="&#728;" /><glyph d="M250 664Q205 664 176 694Q147 724 147 781H187Q187 743 204.5 723Q222 703 250 703Q277 703 295 723Q313 743 313 781H353Q353 724 324 694Q295 664 250 664Z" glyph-name="breve.cap" horiz-adv-x="500" unicode="&#58406;" /><glyph d="M295 260Q295 232 285 208.5Q275 185 257.5 168Q240 151 216.5 141.5Q193 132 166 132Q139 132 116 141.5Q93 151 75.5 168Q58 185 48 208.5Q38 232 38 260Q38 288 48 311.5Q58 335 75.5 352Q93 369 116 378.5Q139 388 166 388Q193 388 216.5 378.5Q240 369 257.5 352Q275 335 285 311.5Q295 288 295 260Z" glyph-name="bullet" horiz-adv-x="333" unicode="&#8226;" /><glyph d="M295 300Q295 272 285 248.5Q275 225 257.5 208Q240 191 216.5 181.5Q193 172 166 172Q139 172 116 181.5Q93 191 75.5 208Q58 225 48 248.5Q38 272 38 300Q38 328 48 351.5Q58 375 75.5 392Q93 409 116 418.5Q139 428 166 428Q193 428 216.5 418.5Q240 409 257.5 392Q275 375 285 351.5Q295 328 295 300Z" glyph-name="bullet.cap" horiz-adv-x="333" unicode="&#58470;" /><glyph d="M39 222Q39 274 53 316.5Q67 359 93 389.5Q119 420 156 436.5Q193 453 240 453Q309 453 353 416.5Q397 380 405 323L356 315Q349 358 317 383Q285 408 240 408Q205 408 177 394.5Q149 381 129.5 356.5Q110 332 100 298Q90 264 90 222Q90 180 100 146Q110 112 129.5 87.5Q149 63 177 49.5Q205 36 240 36Q285 36 317 61Q349 86 356 129L405 121Q397 64 353 27.5Q309 -9 240 -9Q193 -9 156 7.5Q119 24 93 54.5Q67 85 53 127.5Q39 170 39 222Z" glyph-name="c" horiz-adv-x="442" unicode="c" /><glyph d="M217 518 300 650H353L266 518ZM39 222Q39 274 53 316.5Q67 359 93 389.5Q119 420 156 436.5Q193 453 240 453Q309 453 353 416.5Q397 380 405 323L356 315Q349 358 317 383Q285 408 240 408Q205 408 177 394.5Q149 381 129.5 356.5Q110 332 100 298Q90 264 90 222Q90 180 100 146Q110 112 129.5 87.5Q149 63 177 49.5Q205 36 240 36Q285 36 317 61Q349 86 356 129L405 121Q397 64 353 27.5Q309 -9 240 -9Q193 -9 156 7.5Q119 24 93 54.5Q67 85 53 127.5Q39 170 39 222Z" glyph-name="cacute" horiz-adv-x="442" unicode="&#263;" /><glyph d="M274 515H226L136 646H180L250 551L320 646H364Z" glyph-name="caron" horiz-adv-x="500" unicode="&#711;" /><glyph d="M211 490 241 650H282L252 490Z" glyph-name="caron.Slovak" horiz-adv-x="500" /><glyph d="M136 779H183L250 696L317 779H364L272 660H228Z" glyph-name="caron.cap" horiz-adv-x="500" unicode="&#58413;" /><glyph d="M265 515H218L127 646H172L242 551L311 646H356ZM39 222Q39 274 53 316.5Q67 359 93 389.5Q119 420 156 436.5Q193 453 240 453Q309 453 353 416.5Q397 380 405 323L356 315Q349 358 317 383Q285 408 240 408Q205 408 177 394.5Q149 381 129.5 356.5Q110 332 100 298Q90 264 90 222Q90 180 100 146Q110 112 129.5 87.5Q149 63 177 49.5Q205 36 240 36Q285 36 317 61Q349 86 356 129L405 121Q397 64 353 27.5Q309 -9 240 -9Q193 -9 156 7.5Q119 24 93 54.5Q67 85 53 127.5Q39 170 39 222Z" glyph-name="ccaron" horiz-adv-x="442" unicode="&#269;" /><glyph d="M216 -8Q175 -4 142 14.5Q109 33 86 63Q63 93 51 133.5Q39 174 39 222Q39 274 53 316.5Q67 359 93 389.5Q119 420 156 436.5Q193 453 240 453Q309 453 353 416.5Q397 380 405 323L356 315Q349 358 317 383Q285 408 240 408Q205 408 177 394.5Q149 381 129.5 356.5Q110 332 100 298Q90 264 90 222Q90 180 100 146Q110 112 129.5 87.5Q149 63 177 49.5Q205 36 240 36Q285 36 317 61Q349 86 356 129L405 121Q397 66 355.5 30Q314 -6 249 -9L242 -41Q276 -49 296.5 -67.5Q317 -86 317 -114Q317 -142 297.5 -160.5Q278 -179 233 -179Q207 -179 189.5 -173Q172 -167 161 -160L169 -129Q179 -135 193.5 -140Q208 -145 230 -145Q280 -145 280 -113Q280 -91 258 -78.5Q236 -66 206 -64Z" glyph-name="ccedilla" horiz-adv-x="442" unicode="&#231;" /><glyph d="M352 513H308L238 610L168 513H124L214 645H262ZM39 222Q39 274 53 316.5Q67 359 93 389.5Q119 420 156 436.5Q193 453 240 453Q309 453 353 416.5Q397 380 405 323L356 315Q349 358 317 383Q285 408 240 408Q205 408 177 394.5Q149 381 129.5 356.5Q110 332 100 298Q90 264 90 222Q90 180 100 146Q110 112 129.5 87.5Q149 63 177 49.5Q205 36 240 36Q285 36 317 61Q349 86 356 129L405 121Q397 64 353 27.5Q309 -9 240 -9Q193 -9 156 7.5Q119 24 93 54.5Q67 85 53 127.5Q39 170 39 222Z" glyph-name="ccircumflex" horiz-adv-x="442" unicode="&#265;" /><glyph d="M39 222Q39 274 53 316.5Q67 359 93 389.5Q119 420 156 436.5Q193 453 240 453Q309 453 353 416.5Q397 380 405 323L356 315Q349 358 317 383Q285 408 240 408Q205 408 177 394.5Q149 381 129.5 356.5Q110 332 100 298Q90 264 90 222Q90 180 100 146Q110 112 129.5 87.5Q149 63 177 49.5Q205 36 240 36Q285 36 317 61Q349 86 356 129L405 121Q397 64 353 27.5Q309 -9 240 -9Q193 -9 156 7.5Q119 24 93 54.5Q67 85 53 127.5Q39 170 39 222ZM206 578Q206 593 215.5 602Q225 611 239 611Q254 611 263 602Q272 593 272 578Q272 563 263 554Q254 545 239 545Q225 545 215.5 554Q206 563 206 578Z" glyph-name="cdotaccent" horiz-adv-x="442" unicode="&#267;" /><glyph d="M232 11H264L253 -41Q287 -48 307.5 -66.5Q328 -85 328 -114Q328 -142 308.5 -160.5Q289 -179 244 -179Q218 -179 200.5 -173Q183 -167 172 -160L180 -129Q191 -135 205 -140Q219 -145 241 -145Q291 -145 291 -113Q291 -91 269.5 -78.5Q248 -66 217 -64Z" glyph-name="cedilla" horiz-adv-x="500" unicode="&#184;" /><glyph d="M228 -36Q273 -41 300.5 -61.5Q328 -82 328 -114Q328 -142 308.5 -160.5Q289 -179 244 -179Q218 -179 200.5 -173Q183 -167 172 -160L180 -129Q191 -135 205 -140Q219 -145 241 -145Q291 -145 291 -113Q291 -91 269.5 -78.5Q248 -66 217 -64Z" glyph-name="cedilla.alt" horiz-adv-x="500" /><glyph d="M39 232Q39 280 51 320.5Q63 361 86 391Q109 421 142 439.5Q175 458 217 462V548H263V462Q322 455 360 419.5Q398 384 405 333L356 325Q349 368 317 393Q285 418 240 418Q205 418 177 404.5Q149 391 129.5 366.5Q110 342 100 308Q90 274 90 232Q90 190 100 156Q110 122 129.5 97.5Q149 73 177 59.5Q205 46 240 46Q285 46 317 71Q349 96 356 139L405 131Q398 79 360 43.5Q322 8 263 2V-84H217V2Q175 6 142 24.5Q109 43 86 73Q63 103 51 143.5Q39 184 39 232Z" glyph-name="cent" horiz-adv-x="442" unicode="&#162;" /><glyph d="M74 232Q74 280 86 320.5Q98 361 121 391Q144 421 177 439.5Q210 458 252 462V548H298V462Q357 455 395 419.5Q433 384 441 333L391 325Q384 368 352 393Q320 418 275 418Q240 418 212.5 404.5Q185 391 165.5 366.5Q146 342 135.5 308Q125 274 125 232Q125 190 135.5 156Q146 122 165.5 97.5Q185 73 212.5 59.5Q240 46 275 46Q320 46 352 71Q384 96 391 139L441 131Q433 79 395 43.5Q357 8 298 2V-84H252V2Q210 6 177 24.5Q144 43 121 73Q98 103 86 143.5Q74 184 74 232Z" glyph-name="cent.lt" horiz-adv-x="520" /><glyph d="M364 513H320L250 610L180 513H136L226 645H274Z" glyph-name="circumflex" horiz-adv-x="500" unicode="&#710;" /><glyph d="M364 667H317L250 750L183 667H136L228 786H272Z" glyph-name="circumflex.cap" horiz-adv-x="500" unicode="&#58403;" /><glyph d="M104 30Q104 16 94.5 6.5Q85 -3 71 -3Q56 -3 47 6.5Q38 16 38 30Q38 45 47 54Q56 63 71 63Q85 63 94.5 54Q104 45 104 30ZM104 359Q104 344 94.5 335Q85 326 71 326Q56 326 47 335Q38 344 38 359Q38 374 47 383Q56 392 71 392Q85 392 94.5 383Q104 374 104 359Z" glyph-name="colon" horiz-adv-x="141" unicode=":" /><glyph d="M163 30Q163 16 154 6.5Q145 -3 130 -3Q115 -3 106 6.5Q97 16 97 30Q97 45 106 54Q115 63 130 63Q145 63 154 54Q163 45 163 30ZM163 359Q163 344 154 335Q145 326 130 326Q115 326 106 335Q97 344 97 359Q97 374 106 383Q115 392 130 392Q145 392 154 383Q163 374 163 359Z" glyph-name="colon.tab" horiz-adv-x="260" /><glyph d="M24 -65Q50 -58 65 -43.5Q80 -29 82 -1Q74 -3 71 -3Q56 -3 47 6.5Q38 16 38 30Q38 45 47 54Q56 63 71 63H72Q92 63 101.5 50.5Q111 38 111 15Q111 -25 90 -52Q69 -79 28 -88Z" glyph-name="comma" horiz-adv-x="141" unicode="," /><glyph d="M83 -65Q110 -58 124.5 -43.5Q139 -29 141 -1Q135 -3 130 -3Q115 -3 106 6.5Q97 16 97 30Q97 45 106 54Q115 63 130 63H131Q151 63 160.5 50.5Q170 38 170 15Q170 -25 149 -52Q128 -79 87 -88Z" glyph-name="comma.tab" horiz-adv-x="260" /><glyph d="M209 -157Q231 -152 244 -141.5Q257 -131 259 -110Q257 -111 254 -111Q251 -111 249 -111Q235 -111 227 -102.5Q219 -94 219 -80Q219 -66 227.5 -58Q236 -50 250 -50H251Q287 -52 287 -93Q287 -162 213 -179Z" glyph-name="commaaccent" horiz-adv-x="500" unicode="&#58388;" /><glyph d="M288 624Q266 619 252.5 608.5Q239 598 237 575Q240 576 247 576Q261 576 269.5 568Q278 560 278 546Q278 532 269 523.5Q260 515 246 515H245Q209 516 209 559Q209 594 228.5 616Q248 638 283 646Z" glyph-name="commaturn" horiz-adv-x="500" /><glyph d="M670 307Q670 238 645 180Q620 122 577 80Q534 38 476.5 14.5Q419 -9 354 -9Q289 -9 231.5 14.5Q174 38 131.5 80Q89 122 64 180Q39 238 39 307Q39 376 64 434Q89 492 131.5 534Q174 576 231.5 599.5Q289 623 354 623Q419 623 476.5 599.5Q534 576 577 534Q620 492 645 434Q670 376 670 307ZM638 307Q638 369 615.5 421Q593 473 554.5 511Q516 549 464 570Q412 591 354 591Q295 591 243.5 570Q192 549 154 511Q116 473 93.5 421Q71 369 71 307Q71 245 93.5 193Q116 141 154 103Q192 65 243.5 44Q295 23 354 23Q412 23 464 44Q516 65 554.5 103Q593 141 615.5 193Q638 245 638 307ZM228 308Q228 238 263 197Q298 156 355 156Q393 156 418.5 174.5Q444 193 455 228L503 220Q491 169 452.5 139Q414 109 354 109Q316 109 284 123Q252 137 228.5 163Q205 189 191.5 226Q178 263 178 308Q178 354 191.5 390.5Q205 427 228.5 453Q252 479 284 493Q316 507 354 507Q414 507 452.5 477.5Q491 448 503 397L455 388Q433 461 355 461Q298 461 263 419.5Q228 378 228 308Z" glyph-name="copyright" horiz-adv-x="708" unicode="&#169;" /><glyph d="M371 66Q352 37 315.5 14Q279 -9 233 -9Q184 -9 147.5 10Q111 29 87 60.5Q63 92 51 134Q39 176 39 222Q39 268 51 310Q63 352 87 383.5Q111 415 147.5 434Q184 453 233 453Q279 453 315.5 430Q352 407 371 378V650H421V0H371ZM371 319Q348 361 313 383.5Q278 406 238 406Q203 406 175.5 392.5Q148 379 129 354.5Q110 330 100 296Q90 262 90 222Q90 182 100 148Q110 114 129 89.5Q148 65 175.5 51.5Q203 38 238 38Q278 38 313 60.5Q348 83 371 125Z" glyph-name="d" horiz-adv-x="492" unicode="d" /><glyph d="M31 558H130V650H171V558H270V519H171V315H130V519H31Z" glyph-name="dagger" horiz-adv-x="301" unicode="&#8224;" /><glyph d="M32 560H131V650H173V560H272V522H173V442H272V405H173V315H131V405H32V442H131V522H32Z" glyph-name="daggerdbl" horiz-adv-x="304" unicode="&#8225;" /><glyph d="M478 490 508 650H548L519 490ZM371 0V66Q352 37 315.5 14Q279 -9 233 -9Q184 -9 147.5 10Q111 29 87 60.5Q63 92 51 134Q39 176 39 222Q39 268 51 310Q63 352 87 383.5Q111 415 147.5 434Q184 453 233 453Q279 453 315.5 430Q352 407 371 378V650H421V0ZM371 319Q348 361 313 383.5Q278 406 238 406Q203 406 175.5 392.5Q148 379 129 354.5Q110 330 100 296Q90 262 90 222Q90 182 100 148Q110 114 129 89.5Q148 65 175.5 51.5Q203 38 238 38Q278 38 313 60.5Q348 83 371 125Z" glyph-name="dcaron" horiz-adv-x="492" unicode="&#271;" /><glyph d="M255 558H371V650H421V558H474V520H421V0H371V66Q352 37 315.5 14Q279 -9 233 -9Q184 -9 147.5 10Q111 29 87 60.5Q63 92 51 134Q39 176 39 222Q39 268 51 310Q63 352 87 383.5Q111 415 147.5 434Q184 453 233 453Q279 453 315.5 430Q352 407 371 378V520H255ZM371 319Q348 361 313 383.5Q278 406 238 406Q203 406 175.5 392.5Q148 379 129 354.5Q110 330 100 296Q90 262 90 222Q90 182 100 148Q110 114 129 89.5Q148 65 175.5 51.5Q203 38 238 38Q278 38 313 60.5Q348 83 371 125Z" glyph-name="dcroat" horiz-adv-x="492" unicode="&#273;" /><glyph d="M371 66Q352 37 315.5 14Q279 -9 233 -9Q184 -9 147.5 10Q111 29 87 60.5Q63 92 51 134Q39 176 39 222Q39 268 51 310Q63 352 87 383.5Q111 415 147.5 434Q184 453 233 453Q279 453 315.5 430Q352 407 371 378V650H421V0H371ZM371 319Q348 361 313 383.5Q278 406 238 406Q203 406 175.5 392.5Q148 379 129 354.5Q110 330 100 296Q90 262 90 222Q90 182 100 148Q110 114 129 89.5Q148 65 175.5 51.5Q203 38 238 38Q278 38 313 60.5Q348 83 371 125ZM363 715Q363 730 372.5 739Q382 748 396 748Q411 748 420 739Q429 730 429 715Q429 700 420 691Q411 682 396 682Q382 682 372.5 691Q363 700 363 715Z" glyph-name="ddotaccent" horiz-adv-x="492" unicode="&#7691;" /><glyph d="M85 508Q85 477 106.5 455.5Q128 434 158 434Q189 434 210.5 455.5Q232 477 232 508Q232 540 210.5 561.5Q189 583 158 583Q128 583 106.5 561.5Q85 540 85 508ZM272 508Q272 484 263 463Q254 442 238.5 427Q223 412 202.5 403Q182 394 158 394Q134 394 113.5 403Q93 412 78 427Q63 442 54 463Q45 484 45 508Q45 532 54 553Q63 574 78 589.5Q93 605 113.5 614Q134 623 158 623Q182 623 202.5 614Q223 605 238.5 589.5Q254 574 263 553Q272 532 272 508Z" glyph-name="degree" horiz-adv-x="317" unicode="&#176;" /><glyph d="M154 572Q154 587 163.5 596Q173 605 187 605Q202 605 211 596Q220 587 220 572Q220 558 211 548.5Q202 539 187 539Q173 539 163.5 548.5Q154 558 154 572ZM279 572Q279 587 288.5 596Q298 605 312 605Q327 605 336 596Q345 587 345 572Q345 558 336 548.5Q327 539 312 539Q298 539 288.5 548.5Q279 558 279 572Z" glyph-name="dieresis" horiz-adv-x="500" unicode="&#168;" /><glyph d="M154 715Q154 730 163.5 739Q173 748 187 748Q202 748 211 739Q220 730 220 715Q220 700 211 691Q202 682 187 682Q173 682 163.5 691Q154 700 154 715ZM279 715Q279 730 288.5 739Q298 748 312 748Q327 748 336 739Q345 730 345 715Q345 700 336 691Q327 682 312 682Q298 682 288.5 691Q279 700 279 715Z" glyph-name="dieresis.cap" horiz-adv-x="500" unicode="&#58409;" /><glyph d="M71 316H444V273H71ZM220 448Q220 463 231 474Q242 485 257 485Q272 485 283 474Q294 463 294 448Q294 432 283 421Q272 410 257 410Q242 410 231 421Q220 432 220 448ZM220 142Q220 157 231 168Q242 179 257 179Q272 179 283 168Q294 157 294 142Q294 126 283 115Q272 104 257 104Q242 104 231 115Q220 126 220 142Z" glyph-name="divide" horiz-adv-x="515" unicode="&#247;" /><glyph d="M73 316H446V273H73ZM223 448Q223 463 233.5 474Q244 485 259 485Q274 485 285 474Q296 463 296 448Q296 432 285 421Q274 410 259 410Q244 410 233.5 421Q223 432 223 448ZM223 142Q223 157 233.5 168Q244 179 259 179Q274 179 285 168Q296 157 296 142Q296 126 285 115Q274 104 259 104Q244 104 233.5 115Q223 126 223 142Z" glyph-name="divide.lt" horiz-adv-x="520" /><glyph d="M212 14Q144 19 94.5 52.5Q45 86 32 146L80 155Q90 105 132.5 81Q175 57 234 57Q297 57 338.5 86Q380 115 380 170Q380 208 357.5 234.5Q335 261 281 276L174 306Q144 314 120 325.5Q96 337 78.5 354Q61 371 51.5 393.5Q42 416 42 447Q42 482 55.5 509.5Q69 537 92 556.5Q115 576 146 587Q177 598 212 600V690H258V599Q322 593 364 559Q406 525 421 467L375 458Q364 504 329 530.5Q294 557 231 557Q168 557 128.5 529.5Q89 502 89 449Q89 404 118.5 382.5Q148 361 199 347L293 320Q363 300 395.5 264Q428 228 428 171Q428 136 415 108Q402 80 379 60Q356 40 325 28.5Q294 17 258 14V-85H212Z" glyph-name="dollar" horiz-adv-x="464" unicode="$" /><glyph d="M243 14Q175 19 125.5 52.5Q76 86 63 146L111 155Q121 105 163.5 81Q206 57 265 57Q328 57 369.5 86Q411 115 411 170Q411 208 388.5 234.5Q366 261 312 276L205 306Q175 314 151 325.5Q127 337 109.5 354Q92 371 82.5 393.5Q73 416 73 447Q73 482 86.5 509.5Q100 537 123 556.5Q146 576 177 587Q208 598 243 600V690H289V599Q353 593 395 559Q437 525 452 467L406 458Q395 504 360 530.5Q325 557 262 557Q199 557 159.5 529.5Q120 502 120 449Q120 404 149.5 382.5Q179 361 230 347L324 320Q394 300 426.5 264Q459 228 459 171Q459 136 446 108Q433 80 410 60Q387 40 356 28.5Q325 17 289 14V-85H243Z" glyph-name="dollar.lt" horiz-adv-x="520" /><glyph d="M217 578Q217 593 226 602Q235 611 250 611Q265 611 274 602Q283 593 283 578Q283 563 274 554Q265 545 250 545Q235 545 226 554Q217 563 217 578Z" glyph-name="dotaccent" horiz-adv-x="500" unicode="&#729;" /><glyph d="M217 715Q217 730 226 739Q235 748 250 748Q265 748 274 739Q283 730 283 715Q283 700 274 691Q265 682 250 682Q235 682 226 691Q217 700 217 715Z" glyph-name="dotaccent.cap" horiz-adv-x="500" unicode="&#58408;" /><glyph d="M217 -109Q217 -94 226 -85Q235 -76 250 -76Q265 -76 274 -85Q283 -94 283 -109Q283 -123 274 -132.5Q265 -142 250 -142Q235 -142 226 -132.5Q217 -123 217 -109Z" glyph-name="dotbelow" horiz-adv-x="500" unicode="&#58389;" /><glyph d="M121 0H71V444H121Z" glyph-name="dotlessi" horiz-adv-x="193" unicode="&#305;" /><glyph d="M121 -64Q121 -122 92.5 -150.5Q64 -179 16 -179Q-9 -179 -19 -173L-11 -131Q-7 -132 -1.5 -133Q4 -134 12 -134Q38 -134 54.5 -119Q71 -104 71 -60V444H121Z" glyph-name="dotlessj" horiz-adv-x="193" unicode="&#567;" /><glyph d="M411 121Q406 93 391 69Q376 45 353.5 28Q331 11 302 1Q273 -9 240 -9Q194 -9 157 7.5Q120 24 93.5 54.5Q67 85 53 127.5Q39 170 39 222Q39 271 52.5 313.5Q66 356 91.5 387Q117 418 153.5 435.5Q190 453 235 453Q279 453 313 437Q347 421 370 392Q393 363 404.5 323Q416 283 416 236V218H89Q90 133 131 84Q172 35 239 35Q286 35 321.5 60Q357 85 364 129ZM235 409Q175 409 136.5 368Q98 327 91 258H364Q363 287 355 314Q347 341 331.5 362Q316 383 292 396Q268 409 235 409Z" glyph-name="e" horiz-adv-x="453" unicode="e" /><glyph d="M210 518 292 650H345L259 518ZM411 121Q406 93 391 69Q376 45 353.5 28Q331 11 302 1Q273 -9 240 -9Q194 -9 157 7.5Q120 24 93.5 54.5Q67 85 53 127.5Q39 170 39 222Q39 271 52.5 313.5Q66 356 91.5 387Q117 418 153.5 435.5Q190 453 235 453Q279 453 313 437Q347 421 370 392Q393 363 404.5 323Q416 283 416 236V218H89Q90 133 131 84Q172 35 239 35Q286 35 321.5 60Q357 85 364 129ZM235 409Q175 409 136.5 368Q98 327 91 258H364Q363 287 355 314Q347 341 331.5 362Q316 383 292 396Q268 409 235 409Z" glyph-name="eacute" horiz-adv-x="453" unicode="&#233;" /><glyph d="M411 121Q406 93 391 69Q376 45 353.5 28Q331 11 302 1Q273 -9 240 -9Q194 -9 157 7.5Q120 24 93.5 54.5Q67 85 53 127.5Q39 170 39 222Q39 271 52.5 313.5Q66 356 91.5 387Q117 418 153.5 435.5Q190 453 235 453Q279 453 313 437Q347 421 370 392Q393 363 404.5 323Q416 283 416 236V218H89Q90 133 131 84Q172 35 239 35Q286 35 321.5 60Q357 85 364 129ZM235 409Q175 409 136.5 368Q98 327 91 258H364Q363 287 355 314Q347 341 331.5 362Q316 383 292 396Q268 409 235 409ZM238 506Q193 506 163 537Q133 568 131 631H172Q173 589 191 567.5Q209 546 238 546Q267 546 284.5 567.5Q302 589 303 631H344Q343 568 313 537Q283 506 238 506Z" glyph-name="ebreve" horiz-adv-x="453" unicode="&#277;" /><glyph d="M411 121Q406 93 391 69Q376 45 353.5 28Q331 11 302 1Q273 -9 240 -9Q194 -9 157 7.5Q120 24 93.5 54.5Q67 85 53 127.5Q39 170 39 222Q39 271 52.5 313.5Q66 356 91.5 387Q117 418 153.5 435.5Q190 453 235 453Q279 453 313 437Q347 421 370 392Q393 363 404.5 323Q416 283 416 236V218H89Q90 133 131 84Q172 35 239 35Q286 35 321.5 60Q357 85 364 129ZM235 409Q175 409 136.5 368Q98 327 91 258H364Q363 287 355 314Q347 341 331.5 362Q316 383 292 396Q268 409 235 409ZM211 587 272 646 312 624 265 557 268 556H264L265 557ZM171 605H178L211 587L198 574Z" glyph-name="ecaron" horiz-adv-x="453" unicode="&#283;" /><glyph d="M352 513H307L237 610L168 513H123L214 645H261ZM411 121Q406 93 391 69Q376 45 353.5 28Q331 11 302 1Q273 -9 240 -9Q194 -9 157 7.5Q120 24 93.5 54.5Q67 85 53 127.5Q39 170 39 222Q39 271 52.5 313.5Q66 356 91.5 387Q117 418 153.5 435.5Q190 453 235 453Q279 453 313 437Q347 421 370 392Q393 363 404.5 323Q416 283 416 236V218H89Q90 133 131 84Q172 35 239 35Q286 35 321.5 60Q357 85 364 129ZM235 409Q175 409 136.5 368Q98 327 91 258H364Q363 287 355 314Q347 341 331.5 362Q316 383 292 396Q268 409 235 409Z" glyph-name="ecircumflex" horiz-adv-x="453" unicode="&#234;" /><glyph d="M142 572Q142 587 151 596Q160 605 175 605Q190 605 199 596Q208 587 208 572Q208 558 199 548.5Q190 539 175 539Q160 539 151 548.5Q142 558 142 572ZM267 572Q267 587 276.5 596Q286 605 300 605Q315 605 324 596Q333 587 333 572Q333 558 324 548.5Q315 539 300 539Q286 539 276.5 548.5Q267 558 267 572ZM411 121Q406 93 391 69Q376 45 353.5 28Q331 11 302 1Q273 -9 240 -9Q194 -9 157 7.5Q120 24 93.5 54.5Q67 85 53 127.5Q39 170 39 222Q39 271 52.5 313.5Q66 356 91.5 387Q117 418 153.5 435.5Q190 453 235 453Q279 453 313 437Q347 421 370 392Q393 363 404.5 323Q416 283 416 236V218H89Q90 133 131 84Q172 35 239 35Q286 35 321.5 60Q357 85 364 129ZM235 409Q175 409 136.5 368Q98 327 91 258H364Q363 287 355 314Q347 341 331.5 362Q316 383 292 396Q268 409 235 409Z" glyph-name="edieresis" horiz-adv-x="453" unicode="&#235;" /><glyph d="M411 121Q406 93 391 69Q376 45 353.5 28Q331 11 302 1Q273 -9 240 -9Q194 -9 157 7.5Q120 24 93.5 54.5Q67 85 53 127.5Q39 170 39 222Q39 271 52.5 313.5Q66 356 91.5 387Q117 418 153.5 435.5Q190 453 235 453Q279 453 313 437Q347 421 370 392Q393 363 404.5 323Q416 283 416 236V218H89Q90 133 131 84Q172 35 239 35Q286 35 321.5 60Q357 85 364 129ZM235 409Q175 409 136.5 368Q98 327 91 258H364Q363 287 355 314Q347 341 331.5 362Q316 383 292 396Q268 409 235 409ZM205 578Q205 593 214 602Q223 611 238 611Q252 611 261.5 602Q271 593 271 578Q271 563 261.5 554Q252 545 238 545Q223 545 214 554Q205 563 205 578Z" glyph-name="edotaccent" horiz-adv-x="453" unicode="&#279;" /><glyph d="M411 121Q406 93 391 69Q376 45 353.5 28Q331 11 302 1Q273 -9 240 -9Q194 -9 157 7.5Q120 24 93.5 54.5Q67 85 53 127.5Q39 170 39 222Q39 271 52.5 313.5Q66 356 91.5 387Q117 418 153.5 435.5Q190 453 235 453Q279 453 313 437Q347 421 370 392Q393 363 404.5 323Q416 283 416 236V218H89Q90 133 131 84Q172 35 239 35Q286 35 321.5 60Q357 85 364 129ZM235 409Q175 409 136.5 368Q98 327 91 258H364Q363 287 355 314Q347 341 331.5 362Q316 383 292 396Q268 409 235 409ZM211 518 124 650H177L260 518Z" glyph-name="egrave" horiz-adv-x="453" unicode="&#232;" /><glyph d="M240 35Q274 35 303 45.5Q332 56 353 74Q374 92 385.5 116.5Q397 141 397 170Q397 198 385.5 223Q374 248 353 266Q332 284 303 294.5Q274 305 240 305Q205 305 176.5 294.5Q148 284 127.5 266Q107 248 95.5 223Q84 198 84 170Q84 141 95.5 116.5Q107 92 127.5 74Q148 56 176.5 45.5Q205 35 240 35ZM240 349Q270 349 294 358Q318 367 335.5 382.5Q353 398 362.5 419Q372 440 372 464Q372 488 362.5 509Q353 530 335.5 545.5Q318 561 294 570Q270 579 240 579Q211 579 186.5 570Q162 561 144.5 545.5Q127 530 117.5 509Q108 488 108 464Q108 440 117.5 419Q127 398 144.5 382.5Q162 367 186.5 358Q211 349 240 349ZM240 -9Q195 -9 157.5 4.5Q120 18 92.5 41.5Q65 65 49.5 97.5Q34 130 34 168Q34 226 69 269Q104 312 161 327Q114 344 86.5 380.5Q59 417 59 465Q59 499 72.5 528Q86 557 110 578Q134 599 167.5 611Q201 623 240 623Q280 623 313.5 611Q347 599 371 578Q395 557 408.5 528Q422 499 422 465Q422 417 394 380.5Q366 344 320 327Q377 312 412 269Q447 226 447 168Q447 130 431.5 97.5Q416 65 388.5 41.5Q361 18 323 4.5Q285 -9 240 -9Z" glyph-name="eight" horiz-adv-x="481" unicode="8" /><glyph d="M140 -140Q172 -140 192.5 -122Q213 -104 213 -78Q213 -50 192.5 -32.5Q172 -15 140 -15Q108 -15 88 -32.5Q68 -50 68 -78Q68 -104 88 -122Q108 -140 140 -140ZM140 21Q168 21 185 36.5Q202 52 202 75Q202 98 185 113.5Q168 129 140 129Q114 129 96.5 113.5Q79 98 79 75Q79 52 96.5 36.5Q114 21 140 21ZM140 -175Q92 -175 59.5 -148.5Q27 -122 27 -80Q27 -49 44.5 -27Q62 -5 91 3Q67 12 53 31Q39 50 39 76Q39 115 68 139Q97 163 140 163Q184 163 213 139Q242 115 242 76Q242 50 227.5 31Q213 12 190 3Q218 -5 236 -27Q254 -49 254 -80Q254 -122 222 -148.5Q190 -175 140 -175Z" glyph-name="eight.inf" horiz-adv-x="281" unicode="&#58745;" /><glyph d="M260 35Q295 35 325 45.5Q355 56 376.5 74Q398 92 410 116.5Q422 141 422 170Q422 198 410 223Q398 248 376.5 266Q355 284 325 294.5Q295 305 260 305Q225 305 195.5 294.5Q166 284 145 266Q124 248 112 223Q100 198 100 170Q100 141 112 116.5Q124 92 145 74Q166 56 195.5 45.5Q225 35 260 35ZM260 349Q290 349 315 358Q340 367 358 382.5Q376 398 386 419Q396 440 396 464Q396 488 386 509Q376 530 358 545.5Q340 561 315 570Q290 579 260 579Q230 579 205.5 570Q181 561 163 545.5Q145 530 135 509Q125 488 125 464Q125 440 135 419Q145 398 163 382.5Q181 367 205.5 358Q230 349 260 349ZM260 -9Q215 -9 176.5 4.5Q138 18 110 41.5Q82 65 66 97.5Q50 130 50 168Q50 226 86 269Q122 312 179 327Q131 344 103.5 380.5Q76 417 76 465Q76 499 89.5 528Q103 557 127.5 578Q152 599 186 611Q220 623 260 623Q300 623 334 611Q368 599 393 578Q418 557 431.5 528Q445 499 445 465Q445 417 417 380.5Q389 344 342 327Q399 312 435 269Q471 226 471 168Q471 130 455 97.5Q439 65 411 41.5Q383 18 344.5 4.5Q306 -9 260 -9Z" glyph-name="eight.lt" horiz-adv-x="520" /><glyph d="M149 286H108V566L24 523V566L122 615H149ZM351 286H309V566L226 523V566L324 615H351ZM330 0H284L681 614H728ZM757 0H715V280L632 237V280L729 329H757ZM966 333Q1009 333 1033 312Q1057 291 1063 256L1023 250Q1020 271 1005.5 284Q991 297 964 297Q926 297 902.5 263.5Q879 230 879 174Q879 170 879 165Q879 160 880 156Q888 182 911 198.5Q934 215 963 215Q1011 215 1040.5 183.5Q1070 152 1070 106Q1070 59 1039.5 27Q1009 -5 959 -5Q927 -5 902.5 10Q878 25 863 51Q850 74 844.5 101.5Q839 129 839 159Q839 245 875 289Q911 333 966 333ZM887 106Q887 74 907 53Q927 32 959 32Q990 32 1010 53Q1030 74 1030 106Q1030 138 1010 159Q990 180 959 180Q928 180 907.5 159Q887 138 887 106Z" glyph-name="elevensixteenths" horiz-adv-x="1098" unicode="&#61984;" /><glyph d="M149 286H108V566L24 523V566L122 615H149ZM351 286H309V566L226 523V566L324 615H351ZM330 0H284L681 614H728ZM716 185H739Q765 185 782.5 199.5Q800 214 800 240Q800 264 783.5 280Q767 296 740 296Q712 296 694.5 280Q677 264 674 238L634 246Q639 283 666 308Q693 333 739 333Q787 333 814.5 307.5Q842 282 842 242Q842 215 826.5 194.5Q811 174 789 168Q815 162 832 142Q849 122 849 92Q849 51 819.5 23Q790 -5 739 -5Q691 -5 662 19Q633 43 628 85L670 93Q674 65 691 48.5Q708 32 739 32Q769 32 787.5 49Q806 66 806 93Q806 121 787 136Q768 151 741 151H716ZM1066 238Q1066 264 1050 279.5Q1034 295 1007 295Q975 295 959.5 276.5Q944 258 942 230L899 237Q904 281 931 307Q958 333 1007 333Q1056 333 1082.5 307Q1109 281 1109 239Q1109 207 1089 181.5Q1069 156 1044 130L958 38H1115V0H898V28L1012 150Q1036 176 1051 195.5Q1066 215 1066 238Z" glyph-name="eleventhirtyseconds" horiz-adv-x="1140" /><glyph d="M46 30Q46 45 55 54Q64 63 79 63Q93 63 102.5 54Q112 45 112 30Q112 16 102.5 6.5Q93 -3 79 -3Q64 -3 55 6.5Q46 16 46 30ZM222 30Q222 45 231 54Q240 63 255 63Q270 63 279 54Q288 45 288 30Q288 16 279 6.5Q270 -3 255 -3Q240 -3 231 6.5Q222 16 222 30ZM398 30Q398 45 407.5 54Q417 63 431 63Q446 63 455 54Q464 45 464 30Q464 16 455 6.5Q446 -3 431 -3Q417 -3 407.5 6.5Q398 16 398 30Z" glyph-name="ellipsis" horiz-adv-x="510" unicode="&#8230;" /><glyph d="M137 582H339V539H137ZM411 121Q406 93 391 69Q376 45 353.5 28Q331 11 302 1Q273 -9 240 -9Q194 -9 157 7.5Q120 24 93.5 54.5Q67 85 53 127.5Q39 170 39 222Q39 271 52.5 313.5Q66 356 91.5 387Q117 418 153.5 435.5Q190 453 235 453Q279 453 313 437Q347 421 370 392Q393 363 404.5 323Q416 283 416 236V218H89Q90 133 131 84Q172 35 239 35Q286 35 321.5 60Q357 85 364 129ZM235 409Q175 409 136.5 368Q98 327 91 258H364Q363 287 355 314Q347 341 331.5 362Q316 383 292 396Q268 409 235 409Z" glyph-name="emacron" horiz-adv-x="453" unicode="&#275;" /><glyph d="M40 281H806V239H40Z" glyph-name="emdash" horiz-adv-x="846" unicode="&#8212;" /><glyph d="M40 321H806V279H40Z" glyph-name="emdash.cap" horiz-adv-x="846" unicode="&#58502;" /><glyph d="M40 281H435V239H40Z" glyph-name="endash" horiz-adv-x="475" unicode="&#8211;" /><glyph d="M40 321H435V279H40Z" glyph-name="endash.cap" horiz-adv-x="475" unicode="&#58500;" /><glyph d="M418 -64Q418 -122 389 -150.5Q360 -179 313 -179Q289 -179 277 -173L285 -131Q289 -132 294.5 -133Q300 -134 308 -134Q335 -134 351.5 -119Q368 -104 368 -60V286Q368 339 341 372.5Q314 406 254 406Q208 406 173 378.5Q138 351 121 311V0H71V444H121V374Q141 406 178.5 429.5Q216 453 263 453Q339 453 378.5 409Q418 365 418 294Z" glyph-name="eng" horiz-adv-x="484" unicode="&#331;" /><glyph d="M411 121Q403 77 372 45Q341 13 296 -1Q267 -15 245.5 -37.5Q224 -60 224 -92Q224 -116 239.5 -129Q255 -142 281 -142Q298 -142 311.5 -138Q325 -134 331 -130L339 -162Q332 -167 314.5 -173Q297 -179 274 -179Q229 -179 207 -156Q185 -133 185 -98Q185 -69 198 -47Q211 -25 231 -9Q187 -7 151.5 10.5Q116 28 91 58Q66 88 52.5 129.5Q39 171 39 222Q39 271 52.5 313.5Q66 356 91.5 387Q117 418 153.5 435.5Q190 453 235 453Q279 453 313 437Q347 421 370 392Q393 363 404.5 323Q416 283 416 236V218H89Q90 133 131 84Q172 35 239 35Q286 35 321.5 60Q357 85 364 129ZM235 409Q175 409 136.5 368Q98 327 91 258H364Q363 287 355 314Q347 341 331.5 362Q316 383 292 396Q268 409 235 409Z" glyph-name="eogonek" horiz-adv-x="453" unicode="&#281;" /><glyph d="M75 252H448V210H75ZM75 381H448V338H75Z" glyph-name="equal" horiz-adv-x="522" unicode="=" /><glyph d="M48 -34H259V-65H48ZM48 43H259V11H48Z" glyph-name="equal.inf" horiz-adv-x="307" unicode="&#58749;" /><glyph d="M73 252H446V210H73ZM73 381H446V338H73Z" glyph-name="equal.lt" horiz-adv-x="520" /><glyph d="M125 535 222 567Q179 609 125 646V650H188Q232 620 270 583L351 610L363 576L298 554Q359 486 395.5 402Q432 318 432 224Q432 172 418 129Q404 86 378 55.5Q352 25 316 8Q280 -9 236 -9Q192 -9 155.5 8Q119 25 93 55Q67 85 53 127.5Q39 170 39 221Q39 272 53 314.5Q67 357 92.5 387.5Q118 418 153.5 434.5Q189 451 232 451Q272 451 301 435Q330 419 351 393H354Q340 424 314 461.5Q288 499 251 538L138 501ZM382 221Q382 263 371.5 297Q361 331 342 355.5Q323 380 296 393.5Q269 407 236 407Q203 407 176 393.5Q149 380 130 355.5Q111 331 100.5 297Q90 263 90 221Q90 179 100.5 145Q111 111 130 87Q149 63 176 49.5Q203 36 236 36Q269 36 296 49.5Q323 63 342 87Q361 111 371.5 145Q382 179 382 221Z" glyph-name="eth" horiz-adv-x="471" unicode="&#240;" /><glyph d="M75 614H131L120 192H86ZM136 30Q136 16 127 6.5Q118 -3 103 -3Q88 -3 79 6.5Q70 16 70 30Q70 45 79 54Q88 63 103 63Q118 63 127 54Q136 45 136 30Z" glyph-name="exclam" horiz-adv-x="206" unicode="!" /><glyph d="M86 326H120L131 -96H75ZM136 488Q136 473 127 464Q118 455 103 455Q88 455 79 464Q70 473 70 488Q70 502 79 511.5Q88 521 103 521Q118 521 127 511.5Q136 502 136 488Z" glyph-name="exclamdown" horiz-adv-x="209" unicode="&#161;" /><glyph d="M86 422H120L131 0H75ZM136 584Q136 569 127 560Q118 551 103 551Q88 551 79 560Q70 569 70 584Q70 598 79 607.5Q88 617 103 617Q118 617 127 607.5Q136 598 136 584Z" glyph-name="exclamdown.cap" horiz-adv-x="206" unicode="&#58433;" /><glyph d="M268 604Q261 608 249.5 611Q238 614 224 614Q189 614 166.5 593.5Q144 573 144 526V444H248V400H144V0H94V400H22V444H94V531Q94 592 129.5 625.5Q165 659 220 659Q237 659 252.5 655.5Q268 652 276 647Z" glyph-name="f" horiz-adv-x="259" unicode="f" /><glyph d="M504 604Q497 608 486 611Q475 614 461 614Q425 614 402.5 593.5Q380 573 380 526V444H484V400H380V0H330V400H144V0H94V400H22V444H94V531Q94 592 129.5 625.5Q165 659 220 659Q237 659 252.5 655.5Q268 652 276 647L268 604Q261 608 249.5 611Q238 614 224 614Q189 614 166.5 593.5Q144 573 144 526V444H330V531Q330 592 365.5 625.5Q401 659 456 659Q473 659 488.5 655.5Q504 652 512 647Z" glyph-name="f_f" horiz-adv-x="495" unicode="&#64256;" /><glyph d="M268 604Q261 608 249.5 611Q238 614 224 614Q189 614 166.5 593.5Q144 573 144 526V444H248V400H144V0H94V400H22V444H94V531Q94 592 129.5 625.5Q165 659 220 659Q237 659 252.5 655.5Q268 652 276 647ZM136 715Q136 730 145.5 739Q155 748 169 748Q184 748 193 739Q202 730 202 715Q202 700 193 691Q184 682 169 682Q155 682 145.5 691Q136 700 136 715Z" glyph-name="fdotaccent" horiz-adv-x="259" unicode="&#7711;" /><glyph d="M268 604Q261 608 249.5 611Q238 614 224 614Q189 614 166.5 593.5Q144 573 144 526V444H248V400H144V0H94V400H22V444H94V531Q94 592 129.5 625.5Q165 659 220 659Q237 659 252.5 655.5Q268 652 276 647ZM380 0H330V444H380ZM388 578Q388 563 379 554Q370 545 355 545Q341 545 331.5 554Q322 563 322 578Q322 593 331.5 602Q341 611 355 611Q370 611 379 602Q388 593 388 578Z" glyph-name="fi" horiz-adv-x="452" unicode="&#64257;" /><glyph d="M1035 333Q1078 333 1102 312Q1126 291 1133 256L1092 250Q1089 271 1074.5 284Q1060 297 1033 297Q995 297 972 263.5Q949 230 949 174V156Q957 182 980 198.5Q1003 215 1032 215Q1080 215 1109.5 183.5Q1139 152 1139 106Q1139 59 1108.5 27Q1078 -5 1028 -5Q996 -5 971.5 10Q947 25 933 51Q919 74 913.5 101.5Q908 129 908 159Q908 245 944 289Q980 333 1035 333ZM339 461Q320 461 305.5 453Q291 445 282 434H246V614H428V576H282V476Q291 484 307 491Q323 498 343 498Q389 498 418 467Q447 436 447 390Q447 367 438.5 347Q430 327 415.5 312.5Q401 298 380.5 289.5Q360 281 336 281Q288 281 259 305.5Q230 330 225 373L266 380Q270 351 288.5 334.5Q307 318 336 318Q368 318 387 338.5Q406 359 406 390Q406 420 387.5 440.5Q369 461 339 461ZM399 0H353L751 614H797ZM826 0H784V280L701 237V280L799 329H826ZM149 286H108V566L24 523V566L122 615H149ZM956 106Q956 74 976.5 53Q997 32 1029 32Q1059 32 1079 53Q1099 74 1099 106Q1099 138 1079 159Q1059 180 1029 180Q997 180 976.5 159Q956 138 956 106Z" glyph-name="fifteensixteenths" horiz-adv-x="1167" unicode="&#61986;" /><glyph d="M149 286H108V566L24 523V566L122 615H149ZM339 461Q320 461 305.5 453Q291 445 282 434H246V614H428V576H282V476Q291 484 307 491Q323 498 343 498Q389 498 418 467Q447 436 447 390Q447 367 438.5 347Q430 327 415.5 312.5Q401 298 380.5 289.5Q360 281 336 281Q288 281 259 305.5Q230 330 225 373L266 380Q270 351 288.5 334.5Q307 318 336 318Q368 318 387 338.5Q406 359 406 390Q406 420 387.5 440.5Q369 461 339 461ZM399 0H353L751 614H797ZM785 185H809Q835 185 852 199.5Q869 214 869 240Q869 264 853 280Q837 296 809 296Q781 296 764 280Q747 264 743 238L703 246Q708 283 735.5 308Q763 333 809 333Q857 333 884 307.5Q911 282 911 242Q911 215 896 194.5Q881 174 858 168Q884 162 901 142Q918 122 918 92Q918 51 888.5 23Q859 -5 808 -5Q760 -5 731.5 19Q703 43 698 85L740 93Q743 65 760 48.5Q777 32 808 32Q838 32 857 49Q876 66 876 93Q876 121 856.5 136Q837 151 810 151H785ZM1136 238Q1136 264 1119.5 279.5Q1103 295 1076 295Q1045 295 1029.5 276.5Q1014 258 1011 230L969 237Q974 281 1000.5 307Q1027 333 1077 333Q1125 333 1151.5 307Q1178 281 1178 239Q1178 207 1158 181.5Q1138 156 1113 130L1027 38H1185V0H968V28L1081 150Q1105 176 1120.5 195.5Q1136 215 1136 238Z" glyph-name="fifteenthirtyseconds" horiz-adv-x="1209" /><glyph d="M232 344Q192 344 162 327Q132 310 112 286H68V614H394V566H114V344Q131 361 162.5 375.5Q194 390 235 390Q277 390 312 374.5Q347 359 372.5 332Q398 305 412 268.5Q426 232 426 190Q426 149 411 112.5Q396 76 369 49Q342 22 305 6.5Q268 -9 224 -9Q141 -9 88 35.5Q35 80 26 158L75 168Q82 107 122 72.5Q162 38 225 38Q258 38 286 50Q314 62 333.5 82.5Q353 103 364 130.5Q375 158 375 190Q375 222 364.5 250Q354 278 335 299Q316 320 289.5 332Q263 344 232 344Z" glyph-name="five" horiz-adv-x="460" unicode="5" /><glyph d="M137 5Q118 5 103.5 -3Q89 -11 80 -22H44V158H226V120H80V20Q89 28 105 35Q121 42 141 42Q187 42 216 11Q245 -20 245 -66Q245 -89 236.5 -109Q228 -129 213.5 -143.5Q199 -158 178.5 -166.5Q158 -175 134 -175Q86 -175 57 -150.5Q28 -126 23 -83L64 -76Q68 -105 86.5 -121.5Q105 -138 134 -138Q166 -138 185 -117.5Q204 -97 204 -66Q204 -36 185.5 -15.5Q167 5 137 5Z" glyph-name="five.inf" horiz-adv-x="271" unicode="&#58742;" /><glyph d="M260 344Q218 344 186.5 327Q155 310 135 286H91V614H428V566H137V343Q155 360 187.5 375Q220 390 262 390Q305 390 341.5 374.5Q378 359 404.5 332Q431 305 446 268.5Q461 232 461 190Q461 148 446 112Q431 76 404 49Q377 22 340 6.5Q303 -9 260 -9Q172 -9 119 33.5Q66 76 49 158L98 168Q112 101 152.5 69.5Q193 38 260 38Q293 38 320.5 50Q348 62 368 82.5Q388 103 399 130.5Q410 158 410 190Q410 222 399 250Q388 278 368 299Q348 320 320.5 332Q293 344 260 344Z" glyph-name="five.lt" horiz-adv-x="520" /><glyph d="M137 461Q118 461 103.5 453Q89 445 80 434H44V614H226V576H80V476Q89 484 105 491Q121 498 141 498Q187 498 216 467Q245 436 245 390Q245 367 236.5 347Q228 327 213.5 312.5Q199 298 178.5 289.5Q158 281 134 281Q86 281 57 305.5Q28 330 23 373L64 380Q68 351 86.5 334.5Q105 318 134 318Q166 318 185 338.5Q204 359 204 390Q204 420 185.5 440.5Q167 461 137 461ZM197 0H151L549 614H595ZM624 0H583V280L499 237V280L597 329H624ZM833 333Q877 333 900.5 312Q924 291 931 256L891 250Q887 271 872.5 284Q858 297 831 297Q793 297 770 263.5Q747 230 747 174Q747 170 747 165Q747 160 748 156Q756 182 779 198.5Q802 215 831 215Q878 215 907.5 183.5Q937 152 937 106Q937 59 906.5 27Q876 -5 826 -5Q794 -5 770 10Q746 25 731 51Q717 74 712 101.5Q707 129 707 159Q707 245 742.5 289Q778 333 833 333ZM754 106Q754 74 774.5 53Q795 32 827 32Q857 32 877 53Q897 74 897 106Q897 138 877 159Q857 180 827 180Q795 180 774.5 159Q754 138 754 106Z" glyph-name="fivesixteenths" horiz-adv-x="965" unicode="&#61975;" /><glyph d="M137 461Q118 461 103.5 453Q89 445 80 434H44V614H226V576H80V476Q89 484 105 491Q121 498 141 498Q187 498 216 467Q245 436 245 390Q245 367 236.5 347Q228 327 213.5 312.5Q199 298 178.5 289.5Q158 281 134 281Q86 281 57 305.5Q28 330 23 373L64 380Q68 351 86.5 334.5Q105 318 134 318Q166 318 185 338.5Q204 359 204 390Q204 420 185.5 440.5Q167 461 137 461ZM197 0H151L549 614H595ZM583 185H607Q633 185 650.5 199.5Q668 214 668 240Q668 264 651.5 280Q635 296 607 296Q579 296 562 280Q545 264 541 238L501 246Q506 283 533.5 308Q561 333 607 333Q655 333 682.5 307.5Q710 282 710 242Q710 215 694.5 194.5Q679 174 656 168Q682 162 699 142Q716 122 716 92Q716 51 686.5 23Q657 -5 607 -5Q559 -5 530 19Q501 43 496 85L538 93Q541 65 558 48.5Q575 32 607 32Q636 32 655 49Q674 66 674 93Q674 121 654.5 136Q635 151 608 151H583ZM934 238Q934 264 918 279.5Q902 295 875 295Q843 295 827.5 276.5Q812 258 809 230L767 237Q772 281 798.5 307Q825 333 875 333Q923 333 950 307Q977 281 977 239Q977 207 956.5 181.5Q936 156 911 130L825 38H983V0H766V28L880 150Q903 176 918.5 195.5Q934 215 934 238Z" glyph-name="fivethirtyseconds" horiz-adv-x="1007" /><glyph d="M268 604Q261 608 249.5 611Q238 614 224 614Q189 614 166.5 593.5Q144 573 144 526V444H248V400H144V0H94V400H22V444H94V531Q94 592 129.5 625.5Q165 659 220 659Q237 659 252.5 655.5Q268 652 276 647ZM380 0H330V650H380Z" glyph-name="fl" horiz-adv-x="452" unicode="&#64258;" /><glyph d="M66 337H145L172 488Q183 548 217.5 585.5Q252 623 309 623Q325 623 340 619.5Q355 616 368 611V564Q354 571 340 574.5Q326 578 309 578Q274 578 251.5 553Q229 528 221 483L195 337H298V295H187L128 -44Q118 -101 90 -137Q62 -173 5 -173Q-27 -173 -52 -161V-114Q-26 -128 5 -128Q40 -128 56 -104Q72 -80 79 -40L138 295H66Z" glyph-name="florin" horiz-adv-x="385" unicode="&#402;" /><glyph d="M168 337H247L274 488Q285 548 319 585.5Q353 623 410 623Q427 623 441.5 619.5Q456 616 469 611V564Q443 578 411 578Q376 578 353.5 553Q331 528 323 483L297 337H400V295H289L230 -44Q220 -101 192 -137Q164 -173 107 -173Q75 -173 50 -161V-114Q76 -128 107 -128Q142 -128 157.5 -104Q173 -80 181 -40L240 295H168Z" glyph-name="florin.lt" horiz-adv-x="520" /><glyph d="M80 196H309V348H358V196H473V150H358V0H309V150H21V190L262 614H316Z" glyph-name="four" horiz-adv-x="501" unicode="4" /><glyph d="M68 -58H172V16H211V-58H268V-95H211V-170H172V-95H21V-63L142 158H185Z" glyph-name="four.inf" horiz-adv-x="291" unicode="&#58741;" /><glyph d="M92 196H322V348H371V196H486V150H371V0H322V150H34V190L275 614H329Z" glyph-name="four.lt" horiz-adv-x="520" /><glyph d="M-74 0H-120L278 614H324Z" glyph-name="fraction" horiz-adv-x="204" unicode="&#8260;" /><glyph d="M367 76Q348 48 312 25.5Q276 3 231 3Q182 3 146 21.5Q110 40 86 71Q62 102 50.5 142.5Q39 183 39 228Q39 272 50.5 313Q62 354 86 385Q110 416 146 434.5Q182 453 231 453Q276 453 312 430Q348 407 367 379V444H417V21Q417 -30 403 -67.5Q389 -105 364 -129.5Q339 -154 304 -166.5Q269 -179 228 -179Q147 -179 101 -144Q55 -109 45 -50L94 -42Q102 -89 136.5 -112.5Q171 -136 227 -136Q293 -136 330 -97Q367 -58 367 19ZM367 320Q345 362 310.5 384.5Q276 407 235 407Q200 407 173.5 393.5Q147 380 128 356.5Q109 333 99.5 300Q90 267 90 228Q90 189 99.5 156Q109 123 128 99Q147 75 173.5 61.5Q200 48 235 48Q276 48 310.5 71Q345 94 367 135Z" glyph-name="g" horiz-adv-x="488" unicode="g" /><glyph d="M367 76Q348 48 312 25.5Q276 3 231 3Q182 3 146 21.5Q110 40 86 71Q62 102 50.5 142.5Q39 183 39 228Q39 272 50.5 313Q62 354 86 385Q110 416 146 434.5Q182 453 231 453Q276 453 312 430Q348 407 367 379V444H417V21Q417 -30 403 -67.5Q389 -105 364 -129.5Q339 -154 304 -166.5Q269 -179 228 -179Q147 -179 101 -144Q55 -109 45 -50L94 -42Q102 -89 136.5 -112.5Q171 -136 227 -136Q293 -136 330 -97Q367 -58 367 19ZM367 320Q345 362 310.5 384.5Q276 407 235 407Q200 407 173.5 393.5Q147 380 128 356.5Q109 333 99.5 300Q90 267 90 228Q90 189 99.5 156Q109 123 128 99Q147 75 173.5 61.5Q200 48 235 48Q276 48 310.5 71Q345 94 367 135ZM237 506Q192 506 162 537Q132 568 131 631H172Q173 589 190.5 567.5Q208 546 237 546Q266 546 284 567.5Q302 589 302 631H344Q342 568 312 537Q282 506 237 506Z" glyph-name="gbreve" horiz-adv-x="488" unicode="&#287;" /><glyph d="M352 513H307L237 610L168 513H123L214 645H261ZM367 76Q348 48 312 25.5Q276 3 231 3Q182 3 146 21.5Q110 40 86 71Q62 102 50.5 142.5Q39 183 39 228Q39 272 50.5 313Q62 354 86 385Q110 416 146 434.5Q182 453 231 453Q276 453 312 430Q348 407 367 379V444H417V21Q417 -30 403 -67.5Q389 -105 364 -129.5Q339 -154 304 -166.5Q269 -179 228 -179Q147 -179 101 -144Q55 -109 45 -50L94 -42Q102 -89 136.5 -112.5Q171 -136 227 -136Q293 -136 330 -97Q367 -58 367 19ZM367 320Q345 362 310.5 384.5Q276 407 235 407Q200 407 173.5 393.5Q147 380 128 356.5Q109 333 99.5 300Q90 267 90 228Q90 189 99.5 156Q109 123 128 99Q147 75 173.5 61.5Q200 48 235 48Q276 48 310.5 71Q345 94 367 135Z" glyph-name="gcircumflex" horiz-adv-x="488" unicode="&#285;" /><glyph d="M276 624Q254 619 240.5 608.5Q227 598 225 575Q228 576 235 576Q249 576 257.5 568Q266 560 266 546Q266 532 257 523.5Q248 515 234 515H233Q197 516 197 559Q197 594 216.5 616Q236 638 271 646ZM367 76Q348 48 312 25.5Q276 3 231 3Q182 3 146 21.5Q110 40 86 71Q62 102 50.5 142.5Q39 183 39 228Q39 272 50.5 313Q62 354 86 385Q110 416 146 434.5Q182 453 231 453Q276 453 312 430Q348 407 367 379V444H417V21Q417 -30 403 -67.5Q389 -105 364 -129.5Q339 -154 304 -166.5Q269 -179 228 -179Q147 -179 101 -144Q55 -109 45 -50L94 -42Q102 -89 136.5 -112.5Q171 -136 227 -136Q293 -136 330 -97Q367 -58 367 19ZM367 320Q345 362 310.5 384.5Q276 407 235 407Q200 407 173.5 393.5Q147 380 128 356.5Q109 333 99.5 300Q90 267 90 228Q90 189 99.5 156Q109 123 128 99Q147 75 173.5 61.5Q200 48 235 48Q276 48 310.5 71Q345 94 367 135Z" glyph-name="gcommaaccent" horiz-adv-x="488" unicode="&#291;" /><glyph d="M204 578Q204 593 213.5 602Q223 611 237 611Q252 611 261 602Q270 593 270 578Q270 563 261 554Q252 545 237 545Q223 545 213.5 554Q204 563 204 578ZM367 76Q348 48 312 25.5Q276 3 231 3Q182 3 146 21.5Q110 40 86 71Q62 102 50.5 142.5Q39 183 39 228Q39 272 50.5 313Q62 354 86 385Q110 416 146 434.5Q182 453 231 453Q276 453 312 430Q348 407 367 379V444H417V21Q417 -30 403 -67.5Q389 -105 364 -129.5Q339 -154 304 -166.5Q269 -179 228 -179Q147 -179 101 -144Q55 -109 45 -50L94 -42Q102 -89 136.5 -112.5Q171 -136 227 -136Q293 -136 330 -97Q367 -58 367 19ZM367 320Q345 362 310.5 384.5Q276 407 235 407Q200 407 173.5 393.5Q147 380 128 356.5Q109 333 99.5 300Q90 267 90 228Q90 189 99.5 156Q109 123 128 99Q147 75 173.5 61.5Q200 48 235 48Q276 48 310.5 71Q345 94 367 135Z" glyph-name="gdotaccent" horiz-adv-x="488" unicode="&#289;" /><glyph d="M311 370Q339 366 366 352Q393 338 414 315Q435 292 448 260Q461 228 461 187Q461 141 447.5 105Q434 69 409 43.5Q384 18 350 4.5Q316 -9 275 -9Q246 -9 222 -3Q198 3 178 13L186 57Q206 46 226 41.5Q246 37 272 37Q337 37 374.5 77.5Q412 118 412 190Q412 264 364 304.5Q316 345 240 345H197V389H240Q293 389 326 422Q359 455 359 506Q359 552 330 583Q301 614 247 614Q184 614 152.5 573Q121 532 121 466V0H71V467Q71 508 82.5 543Q94 578 116.5 604Q139 630 171.5 644.5Q204 659 247 659Q285 659 315 647Q345 635 365.5 614.5Q386 594 397 566.5Q408 539 408 508Q408 452 379 418Q350 384 311 370Z" glyph-name="germandbls" horiz-adv-x="501" unicode="&#223;" /><glyph d="M256 518 169 650H222L305 518Z" glyph-name="grave" horiz-adv-x="500" unicode="`" /><glyph d="M268 665 180 782H237L320 665Z" glyph-name="grave.cap" horiz-adv-x="500" unicode="&#58401;" /><glyph d="M341 269 65 119V168L297 293L65 417V467L341 317Z" glyph-name="greater" horiz-adv-x="398" unicode="&gt;" /><glyph d="M397 269 122 119V168L354 293L122 417V467L397 317Z" glyph-name="greater.lt" horiz-adv-x="520" /><glyph d="M342 308 67 193V239L291 332L67 423V470L342 354ZM342 111H67V154H342Z" glyph-name="greaterequal" horiz-adv-x="400" unicode="&#8805;" /><glyph d="M397 308 122 193V239L346 332L122 423V470L397 354ZM397 111H122V154H397Z" glyph-name="greaterequal.lt" horiz-adv-x="520" /><glyph d="M117 85 25 222 117 359H166L74 222L166 85ZM241 85 149 222 241 359H290L198 222L290 85Z" glyph-name="guillemotleft" horiz-adv-x="315" unicode="&#171;" /><glyph d="M117 173 25 309 117 446H166L74 309L166 173ZM241 173 149 309 241 446H290L198 309L290 173Z" glyph-name="guillemotleft.cap" horiz-adv-x="315" unicode="&#58451;" /><glyph d="M149 85 241 222 149 359H198L290 222L198 85ZM25 85 117 222 25 359H74L166 222L74 85Z" glyph-name="guillemotright" horiz-adv-x="315" unicode="&#187;" /><glyph d="M149 173 241 309 149 446H198L290 309L198 173ZM25 173 117 309 25 446H74L166 309L74 173Z" glyph-name="guillemotright.cap" horiz-adv-x="315" unicode="&#58452;" /><glyph d="M117 85 25 222 117 359H167L75 222L167 85Z" glyph-name="guilsinglleft" horiz-adv-x="192" unicode="&#8249;" /><glyph d="M117 173 25 309 117 446H167L75 309L167 173Z" glyph-name="guilsinglleft.cap" horiz-adv-x="192" unicode="&#58449;" /><glyph d="M25 85 117 222 25 359H75L167 222L75 85Z" glyph-name="guilsinglright" horiz-adv-x="192" unicode="&#8250;" /><glyph d="M25 173 117 309 25 446H75L167 309L75 173Z" glyph-name="guilsinglright.cap" horiz-adv-x="192" unicode="&#58450;" /><glyph d="M71 650H121V374Q141 406 178.5 429.5Q216 453 263 453Q339 453 378.5 409Q418 365 418 294V0H368V286Q368 339 341 372.5Q314 406 254 406Q208 406 173 378.5Q138 351 121 311V0H71Z" glyph-name="h" horiz-adv-x="484" unicode="h" /><glyph d="M18 558H71V650H121V558H237V520H121V374Q141 406 178.5 429.5Q216 453 263 453Q339 453 378.5 409Q418 365 418 294V0H368V286Q368 339 341 372.5Q314 406 254 406Q208 406 173 378.5Q138 351 121 311V0H71V520H18Z" glyph-name="hbar" horiz-adv-x="484" unicode="&#295;" /><glyph d="M71 650H121V374Q141 406 178.5 429.5Q216 453 263 453Q339 453 378.5 409Q418 365 418 294V0H368V286Q368 339 341 372.5Q314 406 254 406Q208 406 173 378.5Q138 351 121 311V0H71ZM359 673H311L244 756L178 673H130L222 792H267Z" glyph-name="hcircumflex" horiz-adv-x="484" unicode="&#293;" /><glyph d="M142 518 218 650H269L190 518ZM253 518 328 650H380L300 518Z" glyph-name="hungarumlaut" horiz-adv-x="500" unicode="&#733;" /><glyph d="M134 665 207 782H254L180 665ZM245 665 319 782H365L291 665Z" glyph-name="hungarumlaut.cap" horiz-adv-x="500" unicode="&#58411;" /><glyph d="M40 283H281V236H40Z" glyph-name="hyphen" horiz-adv-x="321" unicode="-" /><glyph d="M40 323H281V276H40Z" glyph-name="hyphen.cap" horiz-adv-x="321" unicode="&#58498;" /><glyph d="M121 0H71V444H121ZM129 578Q129 563 120 554Q111 545 96 545Q82 545 72.5 554Q63 563 63 578Q63 593 72.5 602Q82 611 96 611Q111 611 120 602Q129 593 129 578Z" glyph-name="i" horiz-adv-x="193" unicode="i" /><glyph d="M76 518 158 650H211L125 518ZM121 0H71V444H121Z" glyph-name="iacute" horiz-adv-x="193" unicode="&#237;" /><glyph d="M97 506Q57 506 31.5 536.5Q6 567 6 626H45Q45 587 58.5 565.5Q72 544 97 544Q122 544 135.5 565.5Q149 587 149 626H188Q188 567 162.5 536.5Q137 506 97 506ZM121 0H71V444H121Z" glyph-name="ibreve" horiz-adv-x="193" unicode="&#301;" /><glyph d="M191 513H146L96 606L46 513H1L74 644H119ZM121 0H71V444H121Z" glyph-name="icircumflex" horiz-adv-x="193" unicode="&#238;" /><glyph d="M121 0H71V444H121ZM1 572Q1 587 10 596Q19 605 34 605Q49 605 58 596Q67 587 67 572Q67 558 58 548.5Q49 539 34 539Q19 539 10 548.5Q1 558 1 572ZM126 572Q126 587 135 596Q144 605 159 605Q174 605 183 596Q192 587 192 572Q192 558 183 548.5Q174 539 159 539Q144 539 135 548.5Q126 558 126 572Z" glyph-name="idieresis" horiz-adv-x="193" unicode="&#239;" /><glyph d="M121 0H71V444H121ZM63 578Q63 593 72.5 602Q82 611 96 611Q111 611 120 602Q129 593 129 578Q129 563 120 554Q111 545 96 545Q82 545 72.5 554Q63 563 63 578Z" glyph-name="idotaccent" horiz-adv-x="193" unicode="&#59269;" /><glyph d="M121 0H71V444H121ZM59 518 -28 650H25L108 518Z" glyph-name="igrave" horiz-adv-x="193" unicode="&#236;" /><glyph d="M129 572Q129 558 120 548.5Q111 539 96 539Q82 539 72.5 548.5Q63 558 63 572Q63 587 72.5 596Q82 605 96 605Q111 605 120 596Q129 587 129 572ZM121 0H71V444H121ZM246 -64Q246 -122 217.5 -150.5Q189 -179 141 -179Q116 -179 106 -173L114 -131Q118 -132 123.5 -133Q129 -134 137 -134Q164 -134 180 -119Q196 -104 196 -60V444H246ZM254 572Q254 558 245 548.5Q236 539 221 539Q207 539 197.5 548.5Q188 558 188 572Q188 587 197.5 596Q207 605 221 605Q236 605 245 596Q254 587 254 572Z" glyph-name="ij" horiz-adv-x="318" unicode="&#307;" /><glyph d="M121 0H71V444H121ZM18 582H177V539H18Z" glyph-name="imacron" horiz-adv-x="193" unicode="&#299;" /><glyph d="M121 0H122Q91 -14 71.5 -37Q52 -60 52 -92Q52 -142 105 -142Q122 -142 135.5 -138Q149 -134 155 -130L163 -162Q156 -167 138.5 -173Q121 -179 98 -179Q52 -179 32 -156Q12 -133 12 -98Q12 -63 28.5 -38Q45 -13 71 3V444H121ZM129 578Q129 563 120 554Q111 545 96 545Q82 545 72.5 554Q63 563 63 578Q63 593 72.5 602Q82 611 96 611Q111 611 120 602Q129 593 129 578Z" glyph-name="iogonek" horiz-adv-x="193" unicode="&#303;" /><glyph d="M195 625Q195 577 180.5 548.5Q166 520 140 520Q125 520 113.5 530Q102 540 92.5 552Q83 564 74 574Q65 584 56 584Q42 584 36 567.5Q30 551 30 523H-3Q-3 571 11.5 599.5Q26 628 52 628Q67 628 78.5 618Q90 608 99.5 596Q109 584 118 574Q127 564 136 564Q150 564 156 580.5Q162 597 162 625ZM121 0H71V444H121Z" glyph-name="itilde" horiz-adv-x="193" unicode="&#297;" /><glyph d="M121 -64Q121 -122 92.5 -150.5Q64 -179 16 -179Q-9 -179 -19 -173L-11 -131Q-7 -132 -1.5 -133Q4 -134 12 -134Q38 -134 54.5 -119Q71 -104 71 -60V444H121ZM129 578Q129 563 120 554Q111 545 96 545Q82 545 72.5 554Q63 563 63 578Q63 593 72.5 602Q82 611 96 611Q111 611 120 602Q129 593 129 578Z" glyph-name="j" horiz-adv-x="193" unicode="j" /><glyph d="M191 513H146L96 606L46 513H1L74 644H119ZM121 -64Q121 -122 92.5 -150.5Q64 -179 16 -179Q-9 -179 -19 -173L-11 -131Q-7 -132 -1.5 -133Q4 -134 12 -134Q38 -134 54.5 -119Q71 -104 71 -60V444H121Z" glyph-name="jcircumflex" horiz-adv-x="193" unicode="&#309;" /><glyph d="M176 221 121 172V0H71V650H121V231L355 444H423L212 253L430 0H368Z" glyph-name="k" horiz-adv-x="447" unicode="k" /><glyph d="M187 -157Q209 -152 222 -141.5Q235 -131 237 -110Q235 -111 232 -111Q229 -111 227 -111Q213 -111 205 -102.5Q197 -94 197 -80Q197 -66 205.5 -58Q214 -50 228 -50H229Q265 -52 265 -93Q265 -162 191 -179ZM176 221 121 172V0H71V650H121V231L355 444H423L212 253L430 0H368Z" glyph-name="kcommaaccent" horiz-adv-x="447" unicode="&#311;" /><glyph d="M176 221 121 172V0H71V444H121V231L355 444H423L212 253L430 0H368Z" glyph-name="kgreenlandic" horiz-adv-x="447" unicode="&#312;" /><glyph d="M121 0H71V650H121Z" glyph-name="l" horiz-adv-x="193" unicode="l" /><glyph d="M71 688 154 805H211L123 688ZM121 0H71V650H121Z" glyph-name="lacute" horiz-adv-x="193" unicode="&#314;" /><glyph d="M179 490 209 650H250L220 490ZM121 0H71V650H121Z" glyph-name="lcaron" horiz-adv-x="193" unicode="&#318;" /><glyph d="M51 -157Q73 -152 86 -141.5Q99 -131 101 -110Q99 -111 96 -111Q93 -111 91 -111Q77 -111 69 -102.5Q61 -94 61 -80Q61 -66 69.5 -58Q78 -50 92 -50H93Q129 -52 129 -93Q129 -162 55 -179ZM121 0H71V650H121Z" glyph-name="lcommaaccent" horiz-adv-x="193" unicode="&#316;" /><glyph d="M121 0H71V650H121ZM212 324Q212 339 221 348Q230 357 245 357Q260 357 269 348Q278 339 278 324Q278 310 269 300.5Q260 291 245 291Q230 291 221 300.5Q212 310 212 324Z" glyph-name="ldot" horiz-adv-x="193" unicode="&#320;" /><glyph d="M58 317 333 467V417L101 293L333 168V119L58 269Z" glyph-name="less" horiz-adv-x="398" unicode="&lt;" /><glyph d="M122 317 397 467V417L165 293L397 168V119L122 269Z" glyph-name="less.lt" horiz-adv-x="520" /><glyph d="M58 354 334 470V423L109 332L334 239V193L58 308ZM58 154H334V111H58Z" glyph-name="lessequal" horiz-adv-x="400" unicode="&#8804;" /><glyph d="M122 354 397 470V423L173 332L397 239V193L122 308ZM122 154H397V111H122Z" glyph-name="lessequal.lt" horiz-adv-x="520" /><glyph d="M141 407 206 453V404L141 359V0H91V331L30 289V338L91 380V650H141Z" glyph-name="lslash" horiz-adv-x="231" unicode="&#322;" /><glyph d="M373 368Q392 401 427.5 427Q463 453 511 453Q579 453 613 410Q647 367 647 300V0H597V292Q597 344 573.5 375Q550 406 502 406Q460 406 429 379.5Q398 353 384 313V0H334V292Q334 344 311 375Q288 406 239 406Q197 406 166 379.5Q135 353 121 313V0H71V444H121V376Q138 407 171 430Q204 453 249 453Q298 453 329 429.5Q360 406 373 368Z" glyph-name="m" horiz-adv-x="713" unicode="m" /><glyph d="M148 582H351V539H148Z" glyph-name="macron" horiz-adv-x="500" unicode="&#175;" /><glyph d="M148 712H351V670H148Z" glyph-name="macron.cap" horiz-adv-x="500" unicode="&#58405;" /><glyph d="M373 368Q392 401 427.5 427Q463 453 511 453Q579 453 613 410Q647 367 647 300V0H597V292Q597 344 573.5 375Q550 406 502 406Q460 406 429 379.5Q398 353 384 313V0H334V292Q334 344 311 375Q288 406 239 406Q197 406 166 379.5Q135 353 121 313V0H71V444H121V376Q138 407 171 430Q204 453 249 453Q298 453 329 429.5Q360 406 373 368ZM326 578Q326 593 335 602Q344 611 359 611Q374 611 383 602Q392 593 392 578Q392 563 383 554Q374 545 359 545Q344 545 335 554Q326 563 326 578Z" glyph-name="mdotaccent" horiz-adv-x="713" unicode="&#7745;" /><glyph d="M71 316H444V273H71Z" glyph-name="minus" horiz-adv-x="515" unicode="&#8722;" /><glyph d="M45 5H257V-29H45Z" glyph-name="minus.inf" horiz-adv-x="302" unicode="&#58748;" /><glyph d="M73 316H446V273H73Z" glyph-name="minus.lt" horiz-adv-x="520" /><glyph d="M71 414 101 443 221 321 342 443 372 414 251 292 372 170 342 141 221 262 101 141 71 170 193 292Z" glyph-name="multiply" horiz-adv-x="443" unicode="&#215;" /><glyph d="M109 414 139 443 260 321 380 443 410 414 290 292 410 170 380 141 260 262 139 141 109 170 231 292Z" glyph-name="multiply.lt" horiz-adv-x="520" /><glyph d="M71 444H121V374Q141 406 178.5 429.5Q216 453 263 453Q339 453 378.5 409Q418 365 418 294V0H368V286Q368 339 341 372.5Q314 406 254 406Q208 406 173 378.5Q138 351 121 311V0H71Z" glyph-name="n" horiz-adv-x="484" unicode="n" /><glyph d="M241 518 324 650H377L290 518ZM71 444H121V374Q141 406 178.5 429.5Q216 453 263 453Q339 453 378.5 409Q418 365 418 294V0H368V286Q368 339 341 372.5Q314 406 254 406Q208 406 173 378.5Q138 351 121 311V0H71Z" glyph-name="nacute" horiz-adv-x="484" unicode="&#324;" /><glyph d="M277 515H230L139 646H184L253 551L323 646H367ZM71 444H121V374Q141 406 178.5 429.5Q216 453 263 453Q339 453 378.5 409Q418 365 418 294V0H368V286Q368 339 341 372.5Q314 406 254 406Q208 406 173 378.5Q138 351 121 311V0H71Z" glyph-name="ncaron" horiz-adv-x="484" unicode="&#328;" /><glyph d="M204 -157Q226 -152 239 -141.5Q252 -131 254 -110Q252 -111 249 -111Q246 -111 245 -111Q231 -111 222.5 -102.5Q214 -94 214 -80Q214 -66 223 -58Q232 -50 246 -50H247Q283 -52 283 -93Q283 -128 263.5 -149.5Q244 -171 209 -179ZM71 444H121V374Q141 406 178.5 429.5Q216 453 263 453Q339 453 378.5 409Q418 365 418 294V0H368V286Q368 339 341 372.5Q314 406 254 406Q208 406 173 378.5Q138 351 121 311V0H71Z" glyph-name="ncommaaccent" horiz-adv-x="484" unicode="&#326;" /><glyph d="M223 -9Q144 -9 102 30.5Q60 70 49 131L98 140Q105 93 135.5 64.5Q166 36 225 36Q264 36 297.5 54.5Q331 73 355 107.5Q379 142 392.5 192Q406 242 406 304Q406 312 405.5 324Q405 336 404 347Q397 318 380.5 293.5Q364 269 341.5 251.5Q319 234 291 224Q263 214 233 214Q191 214 154.5 230Q118 246 92 273.5Q66 301 51 338Q36 375 36 417Q36 460 51 497.5Q66 535 92.5 563Q119 591 155.5 607Q192 623 236 623Q298 623 341.5 595Q385 567 411 517Q434 473 443.5 421.5Q453 370 453 315Q453 232 435 171.5Q417 111 385.5 70.5Q354 30 312.5 10.5Q271 -9 223 -9ZM388 418Q388 452 376.5 481Q365 510 345 531.5Q325 553 297 565Q269 577 236 577Q204 577 176 565Q148 553 128 532Q108 511 96.5 481.5Q85 452 85 418Q85 383 96.5 354Q108 325 128 304Q148 283 176 271Q204 259 236 259Q269 259 296.5 271Q324 283 344.5 304Q365 325 376.5 354Q388 383 388 418Z" glyph-name="nine" horiz-adv-x="495" unicode="9" /><glyph d="M132 -175Q88 -175 64.5 -154Q41 -133 34 -98L74 -91Q77 -113 92 -126Q107 -139 133 -139Q171 -139 194.5 -105.5Q218 -72 218 -15Q218 -12 218 -7Q218 -2 217 3Q209 -23 186 -40Q163 -57 134 -57Q111 -57 91.5 -48.5Q72 -40 58 -25Q44 -10 36 9.5Q28 29 28 52Q28 100 58.5 131.5Q89 163 138 163Q203 163 234 107Q247 84 252 57Q257 30 257 0Q257 -87 222 -131Q187 -175 132 -175ZM211 53Q211 85 190.5 106Q170 127 138 127Q108 127 87.5 106Q67 85 67 53Q67 20 87.5 -1Q108 -22 138 -22Q170 -22 190.5 -1Q211 20 211 53Z" glyph-name="nine.inf" horiz-adv-x="288" unicode="&#58746;" /><glyph d="M235 -9Q159 -9 113 30.5Q67 70 56 130L104 139Q115 93 146 64.5Q177 36 236 36Q275 36 308.5 54.5Q342 73 367 108Q392 143 406 192.5Q420 242 420 304Q420 312 419.5 324Q419 336 418 347Q410 317 393.5 292.5Q377 268 354 250.5Q331 233 302 223.5Q273 214 242 214Q198 214 161 230Q124 246 97 273.5Q70 301 55 338Q40 375 40 417Q40 460 55.5 497.5Q71 535 98 563Q125 591 162.5 607Q200 623 245 623Q311 623 357.5 591.5Q404 560 430 506Q451 464 459 415Q467 366 467 315Q467 237 449.5 176.5Q432 116 400.5 74.5Q369 33 326.5 12Q284 -9 235 -9ZM402 418Q402 452 390 481Q378 510 357 531.5Q336 553 307.5 565Q279 577 245 577Q212 577 183.5 565Q155 553 133.5 532Q112 511 100 481.5Q88 452 88 418Q88 383 100 354Q112 325 133.5 304Q155 283 183.5 271Q212 259 245 259Q278 259 307 271Q336 283 357 304Q378 325 390 354Q402 383 402 418Z" glyph-name="nine.lt" horiz-adv-x="520" /><glyph d="M132 281Q88 281 64.5 302Q41 323 34 358L74 365Q77 343 92 330Q107 317 133 317Q171 317 194.5 350.5Q218 384 218 441Q218 444 218 449Q218 454 217 459Q209 433 186 416Q163 399 134 399Q111 399 91.5 407.5Q72 416 58 431Q44 446 36 465.5Q28 485 28 508Q28 556 58.5 587.5Q89 619 138 619Q203 619 234 563Q247 540 252 513Q257 486 257 456Q257 369 222 325Q187 281 132 281ZM211 509Q211 541 190.5 562Q170 583 138 583Q108 583 87.5 562Q67 541 67 509Q67 476 87.5 455Q108 434 138 434Q170 434 190.5 455Q211 476 211 509ZM214 0H168L566 614H612ZM641 0H600V280L516 237V280L614 329H641ZM850 333Q894 333 917.5 312Q941 291 948 256L908 250Q904 271 889.5 284Q875 297 848 297Q810 297 787 263.5Q764 230 764 174Q764 170 764 165Q764 160 765 156Q773 182 796 198.5Q819 215 848 215Q895 215 924.5 183.5Q954 152 954 106Q954 59 923.5 27Q893 -5 843 -5Q811 -5 787 10Q763 25 748 51Q734 74 729 101.5Q724 129 724 159Q724 245 759.5 289Q795 333 850 333ZM771 106Q771 74 791.5 53Q812 32 844 32Q874 32 894 53Q914 74 914 106Q914 138 894 159Q874 180 844 180Q812 180 791.5 159Q771 138 771 106Z" glyph-name="ninesixteenths" horiz-adv-x="982" unicode="&#61977;" /><glyph d="M149 286H108V566L24 523V566L122 615H149ZM333 281Q290 281 266 302Q242 323 236 358L276 365Q279 343 293.5 330Q308 317 335 317Q373 317 396.5 350.5Q420 384 420 441Q420 444 420 449Q420 454 419 459Q411 433 388 416Q365 399 336 399Q313 399 293.5 407.5Q274 416 260 431Q246 446 238 465.5Q230 485 230 508Q230 556 260.5 587.5Q291 619 340 619Q405 619 436 563Q449 540 454 513Q459 486 459 456Q459 369 424 325Q389 281 333 281ZM412 509Q412 541 392 562Q372 583 340 583Q310 583 289.5 562Q269 541 269 509Q269 476 289.5 455Q310 434 340 434Q372 434 392 455Q412 476 412 509ZM416 0H370L768 614H814ZM802 185H826Q852 185 869 199.5Q886 214 886 240Q886 264 870 280Q854 296 826 296Q798 296 781 280Q764 264 760 238L720 246Q725 283 752.5 308Q780 333 826 333Q874 333 901 307.5Q928 282 928 242Q928 215 913 194.5Q898 174 875 168Q901 162 918 142Q935 122 935 92Q935 51 905.5 23Q876 -5 825 -5Q777 -5 748.5 19Q720 43 715 85L757 93Q760 65 777 48.5Q794 32 825 32Q855 32 874 49Q893 66 893 93Q893 121 873.5 136Q854 151 827 151H802ZM1153 238Q1153 264 1136.5 279.5Q1120 295 1093 295Q1062 295 1046.5 276.5Q1031 258 1028 230L986 237Q991 281 1017.5 307Q1044 333 1094 333Q1142 333 1168.5 307Q1195 281 1195 239Q1195 207 1175 181.5Q1155 156 1130 130L1044 38H1202V0H985V28L1098 150Q1122 176 1137.5 195.5Q1153 215 1153 238Z" glyph-name="nineteenthirtyseconds" horiz-adv-x="1226" /><glyph d="M132 281Q88 281 64.5 302Q41 323 34 358L74 365Q77 343 92 330Q107 317 133 317Q171 317 194.5 350.5Q218 384 218 441Q218 444 218 449Q218 454 217 459Q209 433 186 416Q163 399 134 399Q111 399 91.5 407.5Q72 416 58 431Q44 446 36 465.5Q28 485 28 508Q28 556 58.5 587.5Q89 619 138 619Q203 619 234 563Q247 540 252 513Q257 486 257 456Q257 369 222 325Q187 281 132 281ZM211 509Q211 541 190.5 562Q170 583 138 583Q108 583 87.5 562Q67 541 67 509Q67 476 87.5 455Q108 434 138 434Q170 434 190.5 455Q211 476 211 509ZM214 0H168L566 614H612ZM600 185H624Q650 185 667.5 199.5Q685 214 685 240Q685 264 668.5 280Q652 296 624 296Q596 296 579 280Q562 264 558 238L518 246Q523 283 550.5 308Q578 333 624 333Q672 333 699.5 307.5Q727 282 727 242Q727 215 711.5 194.5Q696 174 673 168Q699 162 716 142Q733 122 733 92Q733 51 703.5 23Q674 -5 624 -5Q576 -5 547 19Q518 43 513 85L555 93Q558 65 575 48.5Q592 32 624 32Q653 32 672 49Q691 66 691 93Q691 121 671.5 136Q652 151 625 151H600ZM951 238Q951 264 935 279.5Q919 295 892 295Q860 295 844.5 276.5Q829 258 826 230L784 237Q789 281 815.5 307Q842 333 892 333Q940 333 967 307Q994 281 994 239Q994 207 973.5 181.5Q953 156 928 130L842 38H1000V0H783V28L897 150Q920 176 935.5 195.5Q951 215 951 238Z" glyph-name="ninethirtyseconds" horiz-adv-x="1024" /><glyph d="M75 379H303L372 469H418L348 379H448V338H318L250 252H448V211H219L150 121H104L174 211H75V252H205L273 338H75Z" glyph-name="notequal" horiz-adv-x="522" unicode="&#8800;" /><glyph d="M73 379H301L371 469H417L347 379H446V338H317L249 252H446V211H218L148 121H103L172 211H73V252H203L271 338H73Z" glyph-name="notequal.lt" horiz-adv-x="520" /><glyph d="M71 444H121V374Q141 406 178.5 429.5Q216 453 263 453Q339 453 378.5 409Q418 365 418 294V0H368V286Q368 339 341 372.5Q314 406 254 406Q208 406 173 378.5Q138 351 121 311V0H71ZM381 624Q381 574 361 547Q341 520 309 520Q289 520 274 530Q259 540 246.5 551.5Q234 563 222 573Q210 583 197 583Q180 583 171 567.5Q162 552 162 525H122Q122 575 142 602Q162 629 194 629Q214 629 229 619Q244 609 256.5 597.5Q269 586 280.5 576Q292 566 306 566Q323 566 332 581.5Q341 597 342 624Z" glyph-name="ntilde" horiz-adv-x="484" unicode="&#241;" /><glyph d="M474 191H370L325 0H280L325 191H169L123 0H79L124 191H27L36 231H134L170 383H67L75 423H179L225 614H270L224 423H381L427 614H471L425 423H522L514 383H416L380 231H482ZM178 231H335L371 383H215Z" glyph-name="numbersign" horiz-adv-x="550" unicode="#" /><glyph d="M432 222Q432 171 418 128.5Q404 86 378 55.5Q352 25 316 8Q280 -9 236 -9Q192 -9 155.5 8Q119 25 93 55.5Q67 86 53 128.5Q39 171 39 222Q39 273 53 315.5Q67 358 93 388.5Q119 419 155.5 436Q192 453 236 453Q280 453 316 436Q352 419 378 388.5Q404 358 418 315.5Q432 273 432 222ZM382 222Q382 264 371.5 298Q361 332 342 356.5Q323 381 296 394.5Q269 408 236 408Q203 408 176 394.5Q149 381 130 356.5Q111 332 100.5 298Q90 264 90 222Q90 180 100.5 146Q111 112 130 87.5Q149 63 176 49.5Q203 36 236 36Q269 36 296 49.5Q323 63 342 87.5Q361 112 371.5 146Q382 180 382 222Z" glyph-name="o" horiz-adv-x="471" unicode="o" /><glyph d="M236 36Q269 36 296 49.5Q323 63 342 87.5Q361 112 371.5 146Q382 180 382 222Q382 264 371.5 298Q361 332 342 356.5Q323 381 296 394.5Q269 408 236 408Q203 408 176 394.5Q149 381 130 356.5Q111 332 100.5 298Q90 264 90 222Q90 180 100.5 146Q111 112 130 87.5Q149 63 176 49.5Q203 36 236 36ZM262 518H213L296 650H349ZM432 222Q432 171 418 128.5Q404 86 378 55.5Q352 25 316 8Q280 -9 236 -9Q192 -9 155.5 8Q119 25 93 55.5Q67 86 53 128.5Q39 171 39 222Q39 273 53 315.5Q67 358 93 388.5Q119 419 155.5 436Q192 453 236 453Q280 453 316 436Q352 419 378 388.5Q404 358 418 315.5Q432 273 432 222Z" glyph-name="oacute" horiz-adv-x="471" unicode="&#243;" /><glyph d="M432 222Q432 171 418 128.5Q404 86 378 55.5Q352 25 316 8Q280 -9 236 -9Q192 -9 155.5 8Q119 25 93 55.5Q67 86 53 128.5Q39 171 39 222Q39 273 53 315.5Q67 358 93 388.5Q119 419 155.5 436Q192 453 236 453Q280 453 316 436Q352 419 378 388.5Q404 358 418 315.5Q432 273 432 222ZM382 222Q382 264 371.5 298Q361 332 342 356.5Q323 381 296 394.5Q269 408 236 408Q203 408 176 394.5Q149 381 130 356.5Q111 332 100.5 298Q90 264 90 222Q90 180 100.5 146Q111 112 130 87.5Q149 63 176 49.5Q203 36 236 36Q269 36 296 49.5Q323 63 342 87.5Q361 112 371.5 146Q382 180 382 222ZM236 506Q191 506 161 537Q131 568 129 631H170Q171 589 189 567.5Q207 546 236 546Q265 546 282.5 567.5Q300 589 301 631H342Q341 568 311 537Q281 506 236 506Z" glyph-name="obreve" horiz-adv-x="471" unicode="&#335;" /><glyph d="M350 513H305L236 610L166 513H121L212 645H259ZM432 222Q432 171 418 128.5Q404 86 378 55.5Q352 25 316 8Q280 -9 236 -9Q192 -9 155.5 8Q119 25 93 55.5Q67 86 53 128.5Q39 171 39 222Q39 273 53 315.5Q67 358 93 388.5Q119 419 155.5 436Q192 453 236 453Q280 453 316 436Q352 419 378 388.5Q404 358 418 315.5Q432 273 432 222ZM382 222Q382 264 371.5 298Q361 332 342 356.5Q323 381 296 394.5Q269 408 236 408Q203 408 176 394.5Q149 381 130 356.5Q111 332 100.5 298Q90 264 90 222Q90 180 100.5 146Q111 112 130 87.5Q149 63 176 49.5Q203 36 236 36Q269 36 296 49.5Q323 63 342 87.5Q361 112 371.5 146Q382 180 382 222Z" glyph-name="ocircumflex" horiz-adv-x="471" unicode="&#244;" /><glyph d="M140 572Q140 587 149 596Q158 605 173 605Q188 605 197 596Q206 587 206 572Q206 558 197 548.5Q188 539 173 539Q158 539 149 548.5Q140 558 140 572ZM265 572Q265 587 274.5 596Q284 605 298 605Q313 605 322 596Q331 587 331 572Q331 558 322 548.5Q313 539 298 539Q284 539 274.5 548.5Q265 558 265 572ZM432 222Q432 171 418 128.5Q404 86 378 55.5Q352 25 316 8Q280 -9 236 -9Q192 -9 155.5 8Q119 25 93 55.5Q67 86 53 128.5Q39 171 39 222Q39 273 53 315.5Q67 358 93 388.5Q119 419 155.5 436Q192 453 236 453Q280 453 316 436Q352 419 378 388.5Q404 358 418 315.5Q432 273 432 222ZM382 222Q382 264 371.5 298Q361 332 342 356.5Q323 381 296 394.5Q269 408 236 408Q203 408 176 394.5Q149 381 130 356.5Q111 332 100.5 298Q90 264 90 222Q90 180 100.5 146Q111 112 130 87.5Q149 63 176 49.5Q203 36 236 36Q269 36 296 49.5Q323 63 342 87.5Q361 112 371.5 146Q382 180 382 222Z" glyph-name="odieresis" horiz-adv-x="471" unicode="&#246;" /><glyph d="M382 222Q382 264 371.5 298Q361 332 342 356.5Q323 381 296 394.5Q269 408 236 408Q203 408 176 394.5Q149 381 130 356.5Q111 332 100.5 298Q90 264 90 222Q90 180 100.5 146Q111 112 130 87.5Q149 63 176 49.5Q203 36 236 36Q269 36 296 49.5Q323 63 342 87.5Q361 112 371.5 146Q382 180 382 222ZM575 409Q515 409 476.5 368Q438 327 431 258H704Q703 287 695 314Q687 341 671.5 362Q656 383 632 396Q608 409 575 409ZM580 -9Q522 -9 475.5 20.5Q429 50 405 104Q382 52 338 21.5Q294 -9 236 -9Q192 -9 155.5 8Q119 25 93 55.5Q67 86 53 128.5Q39 171 39 222Q39 273 53 315.5Q67 358 93 388.5Q119 419 155.5 436Q192 453 236 453Q295 453 338.5 421.5Q382 390 405 337Q428 389 471 421Q514 453 575 453Q619 453 653 437Q687 421 710 392Q733 363 744.5 323Q756 283 756 236V218H429Q430 131 472 83Q514 35 579 35Q627 35 662 60Q697 85 704 129L751 121Q746 93 731 69Q716 45 693.5 28Q671 11 642 1Q613 -9 580 -9Z" glyph-name="oe" horiz-adv-x="793" unicode="&#339;" /><glyph d="M308 0Q278 -14 256 -37Q234 -60 234 -92Q234 -116 249.5 -129Q265 -142 291 -142Q308 -142 321.5 -138Q335 -134 341 -130L349 -162Q342 -167 324.5 -173Q307 -179 284 -179Q239 -179 217 -156Q195 -133 195 -98Q195 -58 218.5 -30.5Q242 -3 274 12Z" glyph-name="ogonek" horiz-adv-x="500" unicode="&#731;" /><glyph d="M432 222Q432 171 418 128.5Q404 86 378 55.5Q352 25 316 8Q280 -9 236 -9Q192 -9 155.5 8Q119 25 93 55.5Q67 86 53 128.5Q39 171 39 222Q39 273 53 315.5Q67 358 93 388.5Q119 419 155.5 436Q192 453 236 453Q280 453 316 436Q352 419 378 388.5Q404 358 418 315.5Q432 273 432 222ZM382 222Q382 264 371.5 298Q361 332 342 356.5Q323 381 296 394.5Q269 408 236 408Q203 408 176 394.5Q149 381 130 356.5Q111 332 100.5 298Q90 264 90 222Q90 180 100.5 146Q111 112 130 87.5Q149 63 176 49.5Q203 36 236 36Q269 36 296 49.5Q323 63 342 87.5Q361 112 371.5 146Q382 180 382 222ZM212 518 126 650H179L261 518Z" glyph-name="ograve" horiz-adv-x="471" unicode="&#242;" /><glyph d="M236 36Q269 36 296 49.5Q323 63 342 87.5Q361 112 371.5 146Q382 180 382 222Q382 264 371.5 298Q361 332 342 356.5Q323 381 296 394.5Q269 408 236 408Q203 408 176 394.5Q149 381 130 356.5Q111 332 100.5 298Q90 264 90 222Q90 180 100.5 146Q111 112 130 87.5Q149 63 176 49.5Q203 36 236 36ZM270 518 346 650H398L318 518ZM432 222Q432 171 418 128.5Q404 86 378 55.5Q352 25 316 8Q280 -9 236 -9Q192 -9 155.5 8Q119 25 93 55.5Q67 86 53 128.5Q39 171 39 222Q39 273 53 315.5Q67 358 93 388.5Q119 419 155.5 436Q192 453 236 453Q280 453 316 436Q352 419 378 388.5Q404 358 418 315.5Q432 273 432 222ZM207 518H160L235 650H287Z" glyph-name="ohungarumlaut" horiz-adv-x="471" unicode="&#337;" /><glyph d="M236 36Q269 36 296 49.5Q323 63 342 87.5Q361 112 371.5 146Q382 180 382 222Q382 264 371.5 298Q361 332 342 356.5Q323 381 296 394.5Q269 408 236 408Q203 408 176 394.5Q149 381 130 356.5Q111 332 100.5 298Q90 264 90 222Q90 180 100.5 146Q111 112 130 87.5Q149 63 176 49.5Q203 36 236 36ZM432 222Q432 171 418 128.5Q404 86 378 55.5Q352 25 316 8Q280 -9 236 -9Q192 -9 155.5 8Q119 25 93 55.5Q67 86 53 128.5Q39 171 39 222Q39 273 53 315.5Q67 358 93 388.5Q119 419 155.5 436Q192 453 236 453Q280 453 316 436Q352 419 378 388.5Q404 358 418 315.5Q432 273 432 222ZM337 539H135V582H337Z" glyph-name="omacron" horiz-adv-x="471" unicode="&#333;" /><glyph d="M243 0H192V553L31 470V524L211 615H243Z" glyph-name="one" horiz-adv-x="330" unicode="1" /><glyph d="M149 -170H108V110L24 67V110L122 159H149Z" glyph-name="one.inf" horiz-adv-x="202" unicode="&#58738;" /><glyph d="M73 47H260V553L79 459V512L280 615H311V47H474V0H73Z" glyph-name="one.lt" horiz-adv-x="520" /><glyph d="M149 286H108V566L24 523V566L122 615H149ZM128 0H82L479 614H526ZM597 238Q597 264 581 279.5Q565 295 538 295Q506 295 490.5 276.5Q475 258 472 230L430 237Q435 281 461.5 307Q488 333 538 333Q587 333 613.5 307Q640 281 640 239Q640 207 620 181.5Q600 156 575 130L488 38H646V0H429V28L543 150Q566 176 581.5 195.5Q597 215 597 238Z" glyph-name="onehalf" horiz-adv-x="670" unicode="&#189;" /><glyph d="M149 286H108V566L24 523V566L122 615H149ZM128 0H82L479 614H526ZM474 112H577V186H617V112H674V75H617V0H577V75H426V107L548 328H591Z" glyph-name="onequarter" horiz-adv-x="697" unicode="&#188;" /><glyph d="M764 333Q807 333 831 312Q855 291 861 256L821 250Q818 271 803.5 284Q789 297 762 297Q724 297 701 263.5Q678 230 678 174V156Q686 182 709 198.5Q732 215 761 215Q809 215 838.5 183.5Q868 152 868 106Q868 59 837.5 27Q807 -5 757 -5Q725 -5 700.5 10Q676 25 661 51Q648 74 642.5 101.5Q637 129 637 159Q637 245 673 289Q709 333 764 333ZM128 0H82L479 614H526ZM555 0H513V280L430 237V280L528 329H555ZM149 286H108V566L24 523V566L122 615H149ZM685 106Q685 74 705 53Q725 32 757 32Q788 32 808 53Q828 74 828 106Q828 138 808 159Q788 180 757 180Q726 180 705.5 159Q685 138 685 106Z" glyph-name="onesixteenth" horiz-adv-x="896" unicode="&#61973;" /><glyph d="M149 286H108V566L24 523V566L122 615H149Z" glyph-name="onesuperior" horiz-adv-x="202" unicode="&#185;" /><glyph d="M149 286H108V566L24 523V566L122 615H149ZM128 0H82L479 614H526ZM514 185H537Q563 185 580.5 199.5Q598 214 598 240Q598 264 582 280Q566 296 538 296Q510 296 493 280Q476 264 472 238L432 246Q437 283 464.5 308Q492 333 538 333Q586 333 613 307.5Q640 282 640 242Q640 215 624.5 194.5Q609 174 587 168Q613 162 630 142Q647 122 647 92Q647 51 617.5 23Q588 -5 537 -5Q489 -5 460 19Q431 43 426 85L469 93Q472 65 489 48.5Q506 32 537 32Q567 32 585.5 49Q604 66 604 93Q604 121 585 136Q566 151 539 151H514ZM865 238Q865 264 848.5 279.5Q832 295 805 295Q773 295 757.5 276.5Q742 258 740 230L698 237Q703 281 729.5 307Q756 333 806 333Q854 333 880.5 307Q907 281 907 239Q907 207 887 181.5Q867 156 842 130L756 38H914V0H696V28L810 150Q834 176 849.5 195.5Q865 215 865 238Z" glyph-name="onethirtysecond" horiz-adv-x="938" /><glyph d="M206 321V348Q197 337 174.5 326.5Q152 316 123 316Q78 316 47.5 340.5Q17 365 17 408Q17 450 48 475Q79 500 126 500Q152 500 173.5 490.5Q195 481 206 471V517Q206 546 188.5 564.5Q171 583 138 583Q110 583 94 570.5Q78 558 73 537L30 545Q37 582 65.5 602Q94 622 139 622Q191 622 220.5 594Q250 566 250 518V321ZM206 425Q198 442 177.5 453Q157 464 133 464Q104 464 82.5 450.5Q61 437 61 409Q61 380 82.5 366.5Q104 353 133 353Q157 353 177.5 364Q198 375 206 392Z" glyph-name="ordfeminine" horiz-adv-x="284" unicode="&#170;" /><glyph d="M286 469Q286 400 249.5 357.5Q213 315 152 315Q122 315 97 326.5Q72 338 54 358Q36 378 26.5 406.5Q17 435 17 469Q17 538 54 580Q91 622 152 622Q213 622 249.5 580Q286 538 286 469ZM240 469Q240 520 216.5 551Q193 582 152 582Q112 582 88 551Q64 520 64 469Q64 418 88 387Q112 356 152 356Q193 356 216.5 387Q240 418 240 469Z" glyph-name="ordmasculine" horiz-adv-x="304" unicode="&#186;" /><glyph d="M39 222Q39 273 53 315.5Q67 358 93 388.5Q119 419 155.5 436Q192 453 236 453Q307 453 358 408L400 462L429 441L383 382Q406 352 419 311.5Q432 271 432 222Q432 171 418 128.5Q404 86 378 55.5Q352 25 316 8Q280 -9 236 -9Q163 -9 113 35L68 -22L38 -1L87 62Q39 124 39 222ZM382 222Q382 258 374 288.5Q366 319 352 342L142 73Q179 36 236 36Q269 36 296 49.5Q323 63 342 87.5Q361 112 371.5 146Q382 180 382 222ZM90 222Q90 151 119 102L329 371Q292 408 236 408Q203 408 176 394.5Q149 381 130 356.5Q111 332 100.5 298Q90 264 90 222Z" glyph-name="oslash" horiz-adv-x="471" unicode="&#248;" /><glyph d="M39 222Q39 273 53 315.5Q67 358 93 388.5Q119 419 155.5 436Q192 453 236 453Q307 453 358 408L400 462L429 441L383 382Q406 352 419 311.5Q432 271 432 222Q432 171 418 128.5Q404 86 378 55.5Q352 25 316 8Q280 -9 236 -9Q163 -9 113 35L68 -22L38 -1L87 62Q39 124 39 222ZM236 36Q269 36 296 49.5Q323 63 342 87.5Q361 112 371.5 146Q382 180 382 222Q382 258 374 288.5Q366 319 352 342L142 73Q179 36 236 36ZM90 222Q90 151 119 102L329 371Q292 408 236 408Q203 408 176 394.5Q149 381 130 356.5Q111 332 100.5 298Q90 264 90 222ZM346 650 259 518H210L293 650Z" glyph-name="oslashacute" horiz-adv-x="471" unicode="&#511;" /><glyph d="M432 222Q432 171 418 128.5Q404 86 378 55.5Q352 25 316 8Q280 -9 236 -9Q192 -9 155.5 8Q119 25 93 55.5Q67 86 53 128.5Q39 171 39 222Q39 273 53 315.5Q67 358 93 388.5Q119 419 155.5 436Q192 453 236 453Q280 453 316 436Q352 419 378 388.5Q404 358 418 315.5Q432 273 432 222ZM382 222Q382 264 371.5 298Q361 332 342 356.5Q323 381 296 394.5Q269 408 236 408Q203 408 176 394.5Q149 381 130 356.5Q111 332 100.5 298Q90 264 90 222Q90 180 100.5 146Q111 112 130 87.5Q149 63 176 49.5Q203 36 236 36Q269 36 296 49.5Q323 63 342 87.5Q361 112 371.5 146Q382 180 382 222ZM365 624Q365 574 345 547Q325 520 293 520Q273 520 258 530Q243 540 230.5 551.5Q218 563 206 573Q194 583 181 583Q164 583 155 567.5Q146 552 146 525H106Q106 575 126.5 602Q147 629 179 629Q199 629 213.5 619Q228 609 241 597.5Q254 586 265.5 576Q277 566 291 566Q308 566 317 581.5Q326 597 326 624Z" glyph-name="otilde" horiz-adv-x="471" unicode="&#245;" /><glyph d="M121 -170H71V444H121V378Q140 407 176.5 430Q213 453 259 453Q308 453 344.5 434Q381 415 405 383Q429 351 441 309.5Q453 268 453 222Q453 176 441 134.5Q429 93 405 61Q381 29 344.5 10Q308 -9 259 -9Q213 -9 176.5 14Q140 37 121 66ZM121 125Q144 83 179 60.5Q214 38 254 38Q289 38 316.5 51.5Q344 65 363 89.5Q382 114 392 148Q402 182 402 222Q402 262 392 296Q382 330 363 354.5Q344 379 316.5 392.5Q289 406 254 406Q214 406 179 383.5Q144 361 121 319Z" glyph-name="p" horiz-adv-x="492" unicode="p" /><glyph d="M325 614H369V-90H325ZM213 338Q178 338 143 346Q108 354 80.5 370.5Q53 387 35.5 413.5Q18 440 18 476Q18 512 35.5 538.5Q53 565 80.5 581.5Q108 598 143 606Q178 614 213 614H257V-90H213Z" glyph-name="paragraph" horiz-adv-x="447" unicode="&#182;" /><glyph d="M84 283Q84 211 99.5 151.5Q115 92 141.5 46.5Q168 1 203.5 -31.5Q239 -64 280 -82L272 -125Q219 -103 176 -66Q133 -29 102 23Q71 75 54 140Q37 205 37 283Q37 361 54 426Q71 491 102 543Q133 595 176 632Q219 669 272 691L280 648Q239 630 203.5 597.5Q168 565 141.5 519.5Q115 474 99.5 414.5Q84 355 84 283Z" glyph-name="parenleft" horiz-adv-x="326" unicode="(" /><glyph d="M84 303Q84 231 99.5 171.5Q115 112 141.5 66.5Q168 21 203.5 -11.5Q239 -44 280 -62L272 -105Q219 -83 176 -46Q133 -9 102 43Q71 95 54 160Q37 225 37 303Q37 381 54 446Q71 511 102 563Q133 615 176 652Q219 689 272 711L280 668Q239 650 203.5 617.5Q168 585 141.5 539.5Q115 494 99.5 434.5Q84 375 84 303Z" glyph-name="parenleft.cap" horiz-adv-x="326" unicode="&#58513;" /><glyph d="M28 -6Q28 80 64.5 135Q101 190 158 213L164 178Q124 161 95 115Q66 69 66 -6Q66 -81 95 -127Q124 -173 164 -190L158 -225Q101 -202 64.5 -147Q28 -92 28 -6Z" glyph-name="parenleft.inf" horiz-adv-x="195" unicode="&#58750;" /><glyph d="M242 283Q242 355 226.5 414.5Q211 474 184.5 519.5Q158 565 122.5 597.5Q87 630 46 648L53 691Q105 669 148.5 632Q192 595 223.5 543Q255 491 272 426Q289 361 289 283Q289 205 272 140Q255 75 223.5 23Q192 -29 148.5 -66Q105 -103 53 -125L46 -82Q87 -64 122.5 -31.5Q158 1 184.5 46.5Q211 92 226.5 151.5Q242 211 242 283Z" glyph-name="parenright" horiz-adv-x="326" unicode=")" /><glyph d="M242 303Q242 375 226.5 434.5Q211 494 184.5 539.5Q158 585 122.5 617.5Q87 650 46 668L53 711Q105 689 148.5 652Q192 615 223.5 563Q255 511 272 446Q289 381 289 303Q289 225 272 160Q255 95 223.5 43Q192 -9 148.5 -46Q105 -83 53 -105L46 -62Q87 -44 122.5 -11.5Q158 21 184.5 66.5Q211 112 226.5 171.5Q242 231 242 303Z" glyph-name="parenright.cap" horiz-adv-x="326" unicode="&#58514;" /><glyph d="M167 -6Q167 -92 130.5 -147Q94 -202 37 -225L32 -190Q71 -173 99.5 -127Q128 -81 128 -6Q128 69 99.5 115Q71 161 32 178L37 213Q94 190 130.5 135Q167 80 167 -6Z" glyph-name="parenright.inf" horiz-adv-x="195" unicode="&#58751;" /><glyph d="M121 -170H71V444H121V378Q140 407 176.5 430Q213 453 259 453Q308 453 344.5 434Q381 415 405 383Q429 351 441 309.5Q453 268 453 222Q453 176 441 134.5Q429 93 405 61Q381 29 344.5 10Q308 -9 259 -9Q213 -9 176.5 14Q140 37 121 66ZM121 125Q144 83 179 60.5Q214 38 254 38Q289 38 316.5 51.5Q344 65 363 89.5Q382 114 392 148Q402 182 402 222Q402 262 392 296Q382 330 363 354.5Q344 379 316.5 392.5Q289 406 254 406Q214 406 179 383.5Q144 361 121 319ZM223 578Q223 593 232 602Q241 611 256 611Q271 611 280 602Q289 593 289 578Q289 563 280 554Q271 545 256 545Q241 545 232 554Q223 563 223 578Z" glyph-name="pdotaccent" horiz-adv-x="492" unicode="&#7767;" /><glyph d="M487 614H531L134 0H90ZM79 495Q79 460 104 435Q129 410 164 410Q200 410 225 435Q250 460 250 495Q250 531 225 556Q200 581 164 581Q129 581 104 556Q79 531 79 495ZM584 119Q584 92 574 69Q564 46 547 28.5Q530 11 507 1Q484 -9 458 -9Q431 -9 408 1Q385 11 367.5 28.5Q350 46 340 69Q330 92 330 119Q330 146 340 169Q350 192 367.5 209Q385 226 408 236Q431 246 458 246Q484 246 507 236Q530 226 547 209Q564 192 574 169Q584 146 584 119ZM291 495Q291 468 281 445Q271 422 253.5 405Q236 388 213 378Q190 368 164 368Q137 368 114 378Q91 388 74 405Q57 422 47 445Q37 468 37 495Q37 522 47 545Q57 568 74 585.5Q91 603 114 613Q137 623 164 623Q190 623 213 613Q236 603 253.5 585.5Q271 568 281 545Q291 522 291 495ZM543 119Q543 154 518 179Q493 204 458 204Q440 204 424 197.5Q408 191 396.5 179.5Q385 168 378 152.5Q371 137 371 119Q371 83 396.5 58Q422 33 458 33Q493 33 518 58Q543 83 543 119Z" glyph-name="percent" horiz-adv-x="621" unicode="%" /><glyph d="M19 500Q19 525 28.5 547.5Q38 570 54.5 587Q71 604 93 613.5Q115 623 140 623Q165 623 187.5 613.5Q210 604 227 587Q244 570 253.5 547.5Q263 525 263 500Q263 474 253.5 452Q244 430 227 413.5Q210 397 187.5 387.5Q165 378 140 378Q115 378 93 387.5Q71 397 54.5 413.5Q38 430 28.5 452Q19 474 19 500ZM57 500Q57 465 81 441Q105 417 140 417Q158 417 173 423.5Q188 430 199.5 441Q211 452 217.5 467.5Q224 483 224 500Q224 535 199.5 559.5Q175 584 140 584Q123 584 107.5 577.5Q92 571 81 559.5Q70 548 63.5 533Q57 518 57 500ZM502 114Q502 88 492.5 66Q483 44 466.5 27Q450 10 427.5 0.5Q405 -9 380 -9Q354 -9 332 0.5Q310 10 293.5 27Q277 44 267.5 66Q258 88 258 114Q258 139 267.5 161.5Q277 184 293.5 200.5Q310 217 332 226.5Q354 236 380 236Q405 236 427.5 226.5Q450 217 466.5 200.5Q483 184 492.5 161.5Q502 139 502 114ZM463 114Q463 149 439 173Q415 197 380 197Q345 197 321 173Q297 149 297 114Q297 96 303.5 81Q310 66 321 54.5Q332 43 347.5 36.5Q363 30 380 30Q397 30 412 36.5Q427 43 438.5 54.5Q450 66 456.5 81Q463 96 463 114ZM437 614H481L84 0H40Z" glyph-name="percent.lt" horiz-adv-x="520" /><glyph d="M104 30Q104 16 94.5 6.5Q85 -3 71 -3Q56 -3 47 6.5Q38 16 38 30Q38 45 47 54Q56 63 71 63Q85 63 94.5 54Q104 45 104 30Z" glyph-name="period" horiz-adv-x="141" unicode="." /><glyph d="M97 30Q97 45 106 54Q115 63 130 63Q145 63 154 54Q163 45 163 30Q163 16 154 6.5Q145 -3 130 -3Q115 -3 106 6.5Q97 16 97 30Z" glyph-name="period.tab" horiz-adv-x="260" /><glyph d="M109 256Q109 241 99.5 232Q90 223 76 223Q61 223 52 232Q43 241 43 256Q43 270 52 279.5Q61 289 76 289Q90 289 99.5 279.5Q109 270 109 256Z" glyph-name="periodcentered" horiz-adv-x="151" unicode="&#183;" /><glyph d="M109 296Q109 281 99.5 272Q90 263 76 263Q61 263 52 272Q43 281 43 296Q43 310 52 319.5Q61 329 76 329Q90 329 99.5 319.5Q109 310 109 296Z" glyph-name="periodcentered.cap" horiz-adv-x="151" unicode="&#58497;" /><glyph d="M487 614H531L134 0H90ZM37 495Q37 522 47 545Q57 568 74 585.5Q91 603 114 613Q137 623 164 623Q190 623 213 613Q236 603 253.5 585.5Q271 568 281 545Q291 522 291 495Q291 468 281 445Q271 422 253.5 405Q236 388 213 378Q190 368 164 368Q137 368 114 378Q91 388 74 405Q57 422 47 445Q37 468 37 495ZM584 119Q584 92 574 69Q564 46 547 28.5Q530 11 507 1Q484 -9 458 -9Q431 -9 408 1Q385 11 367.5 28.5Q350 46 340 69Q330 92 330 119Q330 146 340 169Q350 192 367.5 209Q385 226 408 236Q431 246 458 246Q484 246 507 236Q530 226 547 209Q564 192 574 169Q584 146 584 119ZM543 119Q543 154 518 179Q493 204 458 204Q440 204 424 197.5Q408 191 396.5 179.5Q385 168 378 152.5Q371 137 371 119Q371 83 396.5 58Q422 33 458 33Q493 33 518 58Q543 83 543 119ZM871 119Q871 92 861 69Q851 46 834 28.5Q817 11 794 1Q771 -9 745 -9Q718 -9 695 1Q672 11 654.5 28.5Q637 46 627 69Q617 92 617 119Q617 146 627 169Q637 192 654.5 209Q672 226 695 236Q718 246 745 246Q771 246 794 236Q817 226 834 209Q851 192 861 169Q871 146 871 119ZM830 119Q830 154 805 179Q780 204 745 204Q709 204 684 179Q659 154 659 119Q659 83 684 58Q709 33 745 33Q780 33 805 58Q830 83 830 119ZM79 495Q79 460 104 435Q129 410 164 410Q200 410 225 435Q250 460 250 495Q250 531 225 556Q200 581 164 581Q129 581 104 556Q79 531 79 495Z" glyph-name="perthousand" horiz-adv-x="908" unicode="&#8240;" /><glyph d="M439 614H483L85 0H41ZM59 500Q59 465 83 441Q107 417 142 417Q160 417 175 423.5Q190 430 201.5 441Q213 452 219.5 467.5Q226 483 226 500Q226 535 201.5 559.5Q177 584 142 584Q125 584 109.5 577.5Q94 571 83 559.5Q72 548 65.5 533Q59 518 59 500ZM504 114Q504 88 494.5 66Q485 44 468.5 27Q452 10 429.5 0.5Q407 -9 382 -9Q356 -9 334 0.5Q312 10 295 27Q278 44 268.5 66Q259 88 259 114Q259 139 268.5 161.5Q278 184 295 200.5Q312 217 334 226.5Q356 236 382 236Q407 236 429.5 226.5Q452 217 468.5 200.5Q485 184 494.5 161.5Q504 139 504 114ZM465 114Q465 149 441 173Q417 197 382 197Q364 197 349 190.5Q334 184 322.5 172.5Q311 161 304.5 146Q298 131 298 114Q298 79 322.5 54.5Q347 30 382 30Q399 30 414 36.5Q429 43 440.5 54.5Q452 66 458.5 81Q465 96 465 114ZM20 500Q20 525 29.5 547.5Q39 570 55.5 587Q72 604 94 613.5Q116 623 142 623Q167 623 189.5 613.5Q212 604 229 587Q246 570 255.5 547.5Q265 525 265 500Q265 474 255.5 452Q246 430 229 413.5Q212 397 189.5 387.5Q167 378 142 378Q116 378 94 387.5Q72 397 55.5 413.5Q39 430 29.5 452Q20 474 20 500ZM780 114Q780 88 770.5 66Q761 44 744.5 27Q728 10 705.5 0.5Q683 -9 658 -9Q632 -9 610 0.5Q588 10 571.5 27Q555 44 545.5 66Q536 88 536 114Q536 139 545.5 161.5Q555 184 571.5 200.5Q588 217 610 226.5Q632 236 658 236Q683 236 705.5 226.5Q728 217 744.5 200.5Q761 184 770.5 161.5Q780 139 780 114ZM741 114Q741 149 717 173Q693 197 658 197Q623 197 599 173Q575 149 575 114Q575 96 581.5 81Q588 66 599 54.5Q610 43 625.5 36.5Q641 30 658 30Q675 30 690 36.5Q705 43 716.5 54.5Q728 66 734.5 81Q741 96 741 114Z" glyph-name="perthousand.lt" horiz-adv-x="800" /><glyph d="M279 481V316H444V273H279V108H236V273H71V316H236V481Z" glyph-name="plus" horiz-adv-x="515" unicode="+" /><glyph d="M163 92V4H251V-29H163V-117H130V-29H42V4H130V92Z" glyph-name="plus.inf" horiz-adv-x="294" unicode="&#58747;" /><glyph d="M281 481V316H446V273H281V108H238V273H73V316H238V481Z" glyph-name="plus.lt" horiz-adv-x="520" /><glyph d="M280 495V370H443V327H280V201H237V327H73V370H237V495ZM73 147H443V104H73Z" glyph-name="plusminus" horiz-adv-x="516" unicode="&#177;" /><glyph d="M281 495V370H444V327H281V201H238V327H75V370H238V495ZM75 147H444V104H75Z" glyph-name="plusminus.lt" horiz-adv-x="520" /><glyph d="M670 307Q670 238 645 180Q620 122 577 80Q534 38 476.5 14.5Q419 -9 354 -9Q289 -9 231.5 14.5Q174 38 131.5 80Q89 122 64 180Q39 238 39 307Q39 376 64 434Q89 492 131.5 534Q174 576 231.5 599.5Q289 623 354 623Q419 623 476.5 599.5Q534 576 577 534Q620 492 645 434Q670 376 670 307ZM638 307Q638 369 615.5 421Q593 473 554.5 511Q516 549 464 570Q412 591 354 591Q295 591 243.5 570Q192 549 154 511Q116 473 93.5 421Q71 369 71 307Q71 245 93.5 193Q116 141 154 103Q192 65 243.5 44Q295 23 354 23Q412 23 464 44Q516 65 554.5 103Q593 141 615.5 193Q638 245 638 307ZM294 270V124H247V493H388Q445 493 477.5 464.5Q510 436 510 382Q510 326 477.5 298Q445 270 388 270ZM464 382Q464 414 444.5 432Q425 450 387 450H294V313H387Q425 313 444.5 331.5Q464 350 464 382Z" glyph-name="published" horiz-adv-x="708" unicode="&#8471;" /><glyph d="M371 66Q352 37 315.5 14Q279 -9 233 -9Q184 -9 147.5 10Q111 29 87 61Q63 93 51 134.5Q39 176 39 222Q39 268 51 309.5Q63 351 87 383Q111 415 147.5 434Q184 453 233 453Q279 453 315.5 430Q352 407 371 378V444H421V-170H371ZM371 319Q348 361 313 383.5Q278 406 238 406Q203 406 175.5 392.5Q148 379 129 354.5Q110 330 100 296Q90 262 90 222Q90 182 100 148Q110 114 129 89.5Q148 65 175.5 51.5Q203 38 238 38Q278 38 313 60.5Q348 83 371 125Z" glyph-name="q" horiz-adv-x="492" unicode="q" /><glyph d="M394 455Q394 427 384.5 403Q375 379 360 358Q345 337 326.5 317.5Q308 298 290 279Q278 266 269.5 255.5Q261 245 256 235Q251 225 248 215Q245 205 244 193H202Q202 211 205 225.5Q208 240 214 253Q220 266 229.5 279Q239 292 253 306Q268 322 284 338Q300 354 313.5 371.5Q327 389 335.5 409.5Q344 430 344 455Q344 512 309 544Q274 576 216 576Q151 576 115.5 538Q80 500 72 438L23 446Q35 527 83 575Q131 623 216 623Q298 623 346 577Q394 531 394 455ZM256 30Q256 16 246.5 6.5Q237 -3 223 -3Q208 -3 199 6.5Q190 16 190 30Q190 45 199 54Q208 63 223 63Q237 63 246.5 54Q256 45 256 30Z" glyph-name="question" horiz-adv-x="422" unicode="?" /><glyph d="M28 63Q28 91 37.5 115Q47 139 62 160Q77 181 95.5 200.5Q114 220 132 239Q157 265 166.5 283Q176 301 178 325H220Q220 290 208.5 265Q197 240 169 212Q154 196 138.5 180Q123 164 109.5 146.5Q96 129 87.5 108.5Q79 88 79 63Q79 6 113.5 -26Q148 -58 206 -58Q271 -58 306.5 -20Q342 18 350 80L399 72Q388 -9 339.5 -57Q291 -105 206 -105Q124 -105 76 -59Q28 -13 28 63ZM167 488Q167 502 176 511.5Q185 521 200 521Q215 521 224 511.5Q233 502 233 488Q233 473 224 464Q215 455 200 455Q185 455 176 464Q167 473 167 488Z" glyph-name="questiondown" horiz-adv-x="422" unicode="&#191;" /><glyph d="M28 158Q28 186 37.5 210Q47 234 62 255.5Q77 277 95.5 296.5Q114 316 132 335Q157 361 166.5 379Q176 397 178 421H220Q220 386 208.5 361Q197 336 169 308Q154 292 138.5 276Q123 260 109.5 242Q96 224 87.5 203.5Q79 183 79 158Q79 102 113.5 70Q148 38 206 38Q271 38 306.5 75.5Q342 113 350 176L399 168Q388 87 339.5 39Q291 -9 206 -9Q165 -9 132 3Q99 15 76 37Q53 59 40.5 89.5Q28 120 28 158ZM167 583Q167 598 176 607Q185 616 200 616Q215 616 224 607Q233 598 233 583Q233 569 224 559.5Q215 550 200 550Q185 550 176 559.5Q167 569 167 583Z" glyph-name="questiondown.cap" horiz-adv-x="422" unicode="&#58436;" /><glyph d="M40 614H86V417H40ZM136 614H182V417H136Z" glyph-name="quotedbl" horiz-adv-x="222" unicode="&quot;" /><glyph d="M29 -65Q56 -58 71 -43.5Q86 -29 88 -1Q80 -3 76 -3Q62 -3 52.5 6.5Q43 16 43 30Q43 45 52.5 54Q62 63 76 63H78Q98 63 107 50.5Q116 38 116 15Q116 -25 95 -52Q74 -79 34 -88ZM148 -65Q174 -58 189 -43.5Q204 -29 206 -1Q198 -3 195 -3Q180 -3 171 6.5Q162 16 162 30Q162 45 171 54Q180 63 195 63H196Q216 63 225.5 50.5Q235 38 235 15Q235 -25 214 -52Q193 -79 152 -88Z" glyph-name="quotedblbase" horiz-adv-x="262" unicode="&#8222;" /><glyph d="M114 597Q87 590 72.5 575.5Q58 561 56 533Q58 534 61.5 534Q65 534 67 534Q82 534 91 525Q100 516 100 501Q100 487 91 477.5Q82 468 67 468H66Q46 469 36.5 481.5Q27 494 27 516Q27 557 48 584Q69 611 110 620ZM232 597Q206 590 191 575.5Q176 561 174 533Q178 534 185 534Q200 534 209 525Q218 516 218 501Q218 487 209 477.5Q200 468 185 468H184Q164 469 154.5 481.5Q145 494 145 516Q145 557 166 584Q187 611 228 620Z" glyph-name="quotedblleft" horiz-adv-x="262" unicode="&#8220;" /><glyph d="M29 491Q56 498 71 512.5Q86 527 88 555Q84 554 76 554Q62 554 52.5 563Q43 572 43 587Q43 601 52.5 610.5Q62 620 76 620H78Q98 619 107 606.5Q116 594 116 572Q116 531 95 504Q74 477 34 468ZM148 491Q174 498 189 512.5Q204 527 206 555Q202 554 195 554Q180 554 171 563Q162 572 162 587Q162 601 171 610.5Q180 620 195 620H196Q235 618 235 572Q235 531 214 504Q193 477 152 468Z" glyph-name="quotedblright" horiz-adv-x="262" unicode="&#8221;" /><glyph d="M114 597Q87 590 72.5 575.5Q58 561 56 533Q58 534 61.5 534Q65 534 67 534Q82 534 91 525Q100 516 100 501Q100 487 91 477.5Q82 468 67 468H66Q46 469 36.5 481.5Q27 494 27 516Q27 557 48 584Q69 611 110 620Z" glyph-name="quoteleft" horiz-adv-x="144" unicode="&#8216;" /><glyph d="M29 491Q56 498 71 512.5Q86 527 88 555Q84 554 76 554Q62 554 52.5 563Q43 572 43 587Q43 601 52.5 610.5Q62 620 76 620H78Q98 619 107 606.5Q116 594 116 572Q116 531 95 504Q74 477 34 468Z" glyph-name="quoteright" horiz-adv-x="144" unicode="&#8217;" /><glyph d="M29 -65Q56 -58 71 -43.5Q86 -29 88 -1Q80 -3 76 -3Q62 -3 52.5 6.5Q43 16 43 30Q43 45 52.5 54Q62 63 76 63H78Q98 63 107 50.5Q116 38 116 15Q116 -25 95 -52Q74 -79 34 -88Z" glyph-name="quotesinglbase" horiz-adv-x="129" unicode="&#8218;" /><glyph d="M40 614H87V417H40Z" glyph-name="quotesingle" horiz-adv-x="127" unicode="&apos;" /><glyph d="M274 400Q267 403 258.5 404Q250 405 239 405Q199 405 168 378.5Q137 352 121 310V0H71V444H121V373Q137 406 169 429.5Q201 453 243 453Q256 453 265.5 451Q275 449 283 446Z" glyph-name="r" horiz-adv-x="301" unicode="r" /><glyph d="M152 518 235 650H288L201 518ZM274 400Q267 403 258.5 404Q250 405 239 405Q199 405 168 378.5Q137 352 121 310V0H71V444H121V373Q137 406 169 429.5Q201 453 243 453Q256 453 265.5 451Q275 449 283 446Z" glyph-name="racute" horiz-adv-x="301" unicode="&#341;" /><glyph d="M199 515H152L61 646H106L175 551L245 646H290ZM274 400Q267 403 258.5 404Q250 405 239 405Q199 405 168 378.5Q137 352 121 310V0H71V444H121V373Q137 406 169 429.5Q201 453 243 453Q256 453 265.5 451Q275 449 283 446Z" glyph-name="rcaron" horiz-adv-x="301" unicode="&#345;" /><glyph d="M53 -157Q75 -152 88 -141.5Q101 -131 103 -110Q101 -111 98 -111Q95 -111 94 -111Q63 -111 63 -80Q63 -66 71.5 -58Q80 -50 94 -50H96Q131 -52 131 -93Q131 -162 58 -179ZM274 400Q267 403 258.5 404Q250 405 239 405Q199 405 168 378.5Q137 352 121 310V0H71V444H121V373Q137 406 169 429.5Q201 453 243 453Q256 453 265.5 451Q275 449 283 446Z" glyph-name="rcommaaccent" horiz-adv-x="301" unicode="&#343;" /><glyph d="M390 440Q390 400 375.5 366.5Q361 333 336.5 308.5Q312 284 279 270.5Q246 257 209 257Q172 257 139 270.5Q106 284 81.5 308.5Q57 333 42.5 366.5Q28 400 28 440Q28 480 42.5 513.5Q57 547 81.5 571.5Q106 596 139 609.5Q172 623 209 623Q246 623 279 609.5Q312 596 336.5 571.5Q361 547 375.5 513.5Q390 480 390 440ZM362 440Q362 474 350 502.5Q338 531 317 551.5Q296 572 268 583.5Q240 595 209 595Q177 595 149.5 583.5Q122 572 101 551.5Q80 531 68 502.5Q56 474 56 440Q56 406 68 377.5Q80 349 101 328Q122 307 149.5 295.5Q177 284 209 284Q240 284 268 295.5Q296 307 317 328Q338 349 350 377.5Q362 406 362 440ZM175 420V346H142V538H220Q250 538 268.5 522.5Q287 507 287 478Q287 455 274 441Q261 427 241 422L294 346H255L205 420ZM254 478Q254 491 245.5 499Q237 507 221 507H175V450H221Q237 450 245.5 458.5Q254 467 254 478Z" glyph-name="registered" horiz-adv-x="418" unicode="&#174;" /><glyph d="M332 579Q332 545 308.5 521.5Q285 498 250 498Q215 498 191.5 521.5Q168 545 168 579Q168 614 191.5 637Q215 660 250 660Q285 660 308.5 637Q332 614 332 579ZM299 579Q299 600 284.5 614.5Q270 629 250 629Q230 629 215.5 614.5Q201 600 201 579Q201 559 215.5 544.5Q230 530 250 530Q270 530 284.5 544.5Q299 559 299 579Z" glyph-name="ring" horiz-adv-x="500" unicode="&#730;" /><glyph d="M332 729Q332 694 308.5 671Q285 648 250 648Q215 648 191.5 671Q168 694 168 729Q168 763 191.5 786.5Q215 810 250 810Q285 810 308.5 786.5Q332 763 332 729ZM299 729Q299 749 284.5 763.5Q270 778 250 778Q230 778 215.5 763.5Q201 749 201 729Q201 708 215.5 693.5Q230 679 250 679Q270 679 284.5 693.5Q299 708 299 729Z" glyph-name="ring.cap" horiz-adv-x="500" unicode="&#58410;" /><glyph d="M194 -9Q125 -9 79.5 21.5Q34 52 26 108L75 116Q82 75 114.5 55Q147 35 195 35Q246 35 278.5 56Q311 77 311 116Q311 148 291.5 165Q272 182 229 194L147 217Q99 230 69 254.5Q39 279 39 330Q39 386 83 419.5Q127 453 198 453Q263 453 304 422.5Q345 392 354 338L307 330Q299 368 270.5 388.5Q242 409 197 409Q148 409 118 388Q88 367 88 332Q88 315 93.5 303.5Q99 292 109.5 284Q120 276 135 270.5Q150 265 170 259L248 238Q360 207 360 118Q360 60 314.5 25.5Q269 -9 194 -9Z" glyph-name="s" horiz-adv-x="399" unicode="s" /><glyph d="M180 518 262 650H315L229 518ZM194 -9Q125 -9 79.5 21.5Q34 52 26 108L75 116Q82 75 114.5 55Q147 35 195 35Q246 35 278.5 56Q311 77 311 116Q311 148 291.5 165Q272 182 229 194L147 217Q99 230 69 254.5Q39 279 39 330Q39 386 83 419.5Q127 453 198 453Q263 453 304 422.5Q345 392 354 338L307 330Q299 368 270.5 388.5Q242 409 197 409Q148 409 118 388Q88 367 88 332Q88 315 93.5 303.5Q99 292 109.5 284Q120 276 135 270.5Q150 265 170 259L248 238Q360 207 360 118Q360 60 314.5 25.5Q269 -9 194 -9Z" glyph-name="sacute" horiz-adv-x="399" unicode="&#347;" /><glyph d="M221 515H174L83 646H128L197 551L267 646H312ZM194 -9Q125 -9 79.5 21.5Q34 52 26 108L75 116Q82 75 114.5 55Q147 35 195 35Q246 35 278.5 56Q311 77 311 116Q311 148 291.5 165Q272 182 229 194L147 217Q99 230 69 254.5Q39 279 39 330Q39 386 83 419.5Q127 453 198 453Q263 453 304 422.5Q345 392 354 338L307 330Q299 368 270.5 388.5Q242 409 197 409Q148 409 118 388Q88 367 88 332Q88 315 93.5 303.5Q99 292 109.5 284Q120 276 135 270.5Q150 265 170 259L248 238Q360 207 360 118Q360 60 314.5 25.5Q269 -9 194 -9Z" glyph-name="scaron" horiz-adv-x="399" unicode="&#353;" /><glyph d="M181 -9Q117 -6 75.5 24Q34 54 26 108L75 116Q82 75 114.5 55Q147 35 195 35Q246 35 278.5 56Q311 77 311 116Q311 148 291.5 165Q272 182 229 194L147 217Q99 230 69 254.5Q39 279 39 330Q39 386 83 419.5Q127 453 198 453Q263 453 304 422.5Q345 392 354 338L307 330Q299 368 270.5 388.5Q242 409 197 409Q148 409 118 388Q88 367 88 332Q88 315 93.5 303.5Q99 292 109.5 284Q120 276 135 270.5Q150 265 170 259L248 238Q360 207 360 118Q360 64 320 30.5Q280 -3 214 -8L207 -41Q240 -49 260.5 -67.5Q281 -86 281 -114Q281 -142 262 -160.5Q243 -179 198 -179Q172 -179 154.5 -173Q137 -167 126 -160L134 -129Q144 -135 158.5 -140Q173 -145 194 -145Q244 -145 244 -113Q244 -91 222.5 -78.5Q201 -66 170 -64Z" glyph-name="scedilla" horiz-adv-x="399" unicode="&#351;" /><glyph d="M41 323Q46 351 61.5 375Q77 399 99.5 416Q122 433 150.5 443Q179 453 212 453Q258 453 295.5 436.5Q333 420 359 389.5Q385 359 399.5 316.5Q414 274 414 222Q414 172 400 130Q386 88 360.5 57Q335 26 299 8.5Q263 -9 218 -9Q173 -9 139.5 7Q106 23 83 52Q60 81 48.5 121Q37 161 37 208V226H364Q363 311 322 360Q281 409 214 409Q167 409 131.5 384Q96 359 89 315ZM218 35Q278 35 316 76Q354 117 362 186H88Q89 157 97 130Q105 103 121 82Q137 61 161 48Q185 35 218 35Z" glyph-name="schwa" horiz-adv-x="453" unicode="&#601;" /><glyph d="M314 513H269L200 610L130 513H85L176 645H223ZM194 -9Q125 -9 79.5 21.5Q34 52 26 108L75 116Q82 75 114.5 55Q147 35 195 35Q246 35 278.5 56Q311 77 311 116Q311 148 291.5 165Q272 182 229 194L147 217Q99 230 69 254.5Q39 279 39 330Q39 386 83 419.5Q127 453 198 453Q263 453 304 422.5Q345 392 354 338L307 330Q299 368 270.5 388.5Q242 409 197 409Q148 409 118 388Q88 367 88 332Q88 315 93.5 303.5Q99 292 109.5 284Q120 276 135 270.5Q150 265 170 259L248 238Q360 207 360 118Q360 60 314.5 25.5Q269 -9 194 -9Z" glyph-name="scircumflex" horiz-adv-x="399" unicode="&#349;" /><glyph d="M151 -157Q172 -152 185 -141.5Q198 -131 200 -110Q198 -111 195.5 -111Q193 -111 191 -111Q177 -111 168.5 -102.5Q160 -94 160 -80Q160 -66 169 -58Q178 -50 192 -50H193Q229 -52 229 -93Q229 -128 209.5 -149.5Q190 -171 155 -179ZM194 -9Q125 -9 79.5 21.5Q34 52 26 108L75 116Q82 75 114.5 55Q147 35 195 35Q246 35 278.5 56Q311 77 311 116Q311 148 291.5 165Q272 182 229 194L147 217Q99 230 69 254.5Q39 279 39 330Q39 386 83 419.5Q127 453 198 453Q263 453 304 422.5Q345 392 354 338L307 330Q299 368 270.5 388.5Q242 409 197 409Q148 409 118 388Q88 367 88 332Q88 315 93.5 303.5Q99 292 109.5 284Q120 276 135 270.5Q150 265 170 259L248 238Q360 207 360 118Q360 60 314.5 25.5Q269 -9 194 -9Z" glyph-name="scommaaccent" horiz-adv-x="399" unicode="&#537;" /><glyph d="M317 121Q340 130 354 149Q368 168 368 195Q368 224 348 242.5Q328 261 300 281L126 400Q103 391 89 372Q75 353 75 326Q75 297 95 278Q115 259 144 240ZM318 19Q318 34 315 45Q312 56 305 65Q298 74 288 82Q278 90 264 100L119 199Q99 212 82 225Q65 238 53 253Q41 268 34 285.5Q27 303 27 325Q27 362 46 389.5Q65 417 95 433Q87 446 82 463Q77 480 77 500Q77 529 88.5 552Q100 575 119.5 590.5Q139 606 165.5 614.5Q192 623 223 623Q288 623 328.5 593Q369 563 379 509L332 501Q324 539 296 559.5Q268 580 223 580Q181 580 153.5 559.5Q126 539 126 501Q126 486 129 475Q132 464 139 455Q146 446 156 438Q166 430 180 420L325 321Q364 295 390 267Q416 239 416 195Q416 158 397.5 129.5Q379 101 349 86Q357 72 362 56Q367 40 367 20Q367 -9 355.5 -31.5Q344 -54 324.5 -70Q305 -86 278.5 -94Q252 -102 221 -102Q156 -102 115 -72.5Q74 -43 65 11L112 19Q119 -19 147.5 -39Q176 -59 221 -59Q262 -59 290 -39Q318 -19 318 19Z" glyph-name="section" horiz-adv-x="444" unicode="&#167;" /><glyph d="M71 326Q56 326 47 335Q38 344 38 359Q38 374 47 383Q56 392 71 392Q85 392 94.5 383Q104 374 104 359Q104 344 94.5 335Q85 326 71 326ZM24 -65Q50 -58 65 -43.5Q80 -29 82 -1Q74 -3 71 -3Q56 -3 47 6.5Q38 16 38 30Q38 45 47 54Q56 63 71 63H72Q92 63 101.5 50.5Q111 38 111 15Q111 -25 90 -52Q69 -79 28 -88Z" glyph-name="semicolon" horiz-adv-x="141" unicode=";" /><glyph d="M130 326Q115 326 106 335Q97 344 97 359Q97 374 106 383Q115 392 130 392Q145 392 154 383Q163 374 163 359Q163 344 154 335Q145 326 130 326ZM83 -65Q110 -58 124.5 -43.5Q139 -29 141 -1Q135 -3 130 -3Q115 -3 106 6.5Q97 16 97 30Q97 45 106 54Q115 63 130 63H131Q151 63 160.5 50.5Q170 38 170 15Q170 -25 149 -52Q128 -79 87 -88Z" glyph-name="semicolon.tab" horiz-adv-x="260" /><glyph d="M181 0H128L354 566H18V614H407V572Z" glyph-name="seven" horiz-adv-x="429" unicode="7" /><glyph d="M117 -170H73L188 120H19V158H233V127Z" glyph-name="seven.inf" horiz-adv-x="255" unicode="&#58744;" /><glyph d="M236 0H184L412 566H46V614H465V572Z" glyph-name="seven.lt" horiz-adv-x="520" /><glyph d="M117 286H73L188 576H19V614H233V583ZM181 0H135L533 614H579ZM608 0H567V280L483 237V280L581 329H608ZM817 333Q861 333 884.5 312Q908 291 915 256L875 250Q871 271 856.5 284Q842 297 815 297Q777 297 754 263.5Q731 230 731 174Q731 170 731 165Q731 160 732 156Q740 182 763 198.5Q786 215 815 215Q862 215 891.5 183.5Q921 152 921 106Q921 59 890.5 27Q860 -5 810 -5Q778 -5 754 10Q730 25 715 51Q701 74 696 101.5Q691 129 691 159Q691 245 726.5 289Q762 333 817 333ZM738 106Q738 74 758.5 53Q779 32 811 32Q841 32 861 53Q881 74 881 106Q881 138 861 159Q841 180 811 180Q779 180 758.5 159Q738 138 738 106Z" glyph-name="sevensixteenths" horiz-adv-x="949" unicode="&#61976;" /><glyph d="M149 286H108V566L24 523V566L122 615H149ZM319 286H275L390 576H221V614H435V583ZM383 0H337L735 614H781ZM769 185H793Q819 185 836 199.5Q853 214 853 240Q853 264 837 280Q821 296 793 296Q765 296 748 280Q731 264 727 238L687 246Q692 283 719.5 308Q747 333 793 333Q841 333 868 307.5Q895 282 895 242Q895 215 880 194.5Q865 174 842 168Q868 162 885 142Q902 122 902 92Q902 51 872.5 23Q843 -5 792 -5Q744 -5 715.5 19Q687 43 682 85L724 93Q727 65 744 48.5Q761 32 792 32Q822 32 841 49Q860 66 860 93Q860 121 840.5 136Q821 151 794 151H769ZM1120 238Q1120 264 1103.5 279.5Q1087 295 1060 295Q1029 295 1013.5 276.5Q998 258 995 230L953 237Q958 281 984.5 307Q1011 333 1061 333Q1109 333 1135.5 307Q1162 281 1162 239Q1162 207 1142 181.5Q1122 156 1097 130L1011 38H1169V0H952V28L1065 150Q1089 176 1104.5 195.5Q1120 215 1120 238Z" glyph-name="seventeenthirtyseconds" horiz-adv-x="1193" /><glyph d="M117 286H73L188 576H19V614H233V583ZM181 0H135L533 614H579ZM567 185H591Q617 185 634.5 199.5Q652 214 652 240Q652 264 635.5 280Q619 296 591 296Q563 296 546 280Q529 264 525 238L485 246Q490 283 517.5 308Q545 333 591 333Q639 333 666.5 307.5Q694 282 694 242Q694 215 678.5 194.5Q663 174 640 168Q666 162 683 142Q700 122 700 92Q700 51 670.5 23Q641 -5 591 -5Q543 -5 514 19Q485 43 480 85L522 93Q525 65 542 48.5Q559 32 591 32Q620 32 639 49Q658 66 658 93Q658 121 638.5 136Q619 151 592 151H567ZM918 238Q918 264 902 279.5Q886 295 859 295Q827 295 811.5 276.5Q796 258 793 230L751 237Q756 281 782.5 307Q809 333 859 333Q907 333 934 307Q961 281 961 239Q961 207 940.5 181.5Q920 156 895 130L809 38H967V0H750V28L864 150Q887 176 902.5 195.5Q918 215 918 238Z" glyph-name="seventhirtyseconds" horiz-adv-x="991" /><glyph d="M272 623Q351 623 393 583.5Q435 544 446 483L397 474Q390 521 359.5 549.5Q329 578 270 578Q231 578 197.5 559.5Q164 541 140 506.5Q116 472 102.5 422Q89 372 89 310Q89 302 89.5 290Q90 278 91 267Q98 296 114.5 320.5Q131 345 153.5 362.5Q176 380 204 390Q232 400 262 400Q304 400 340.5 384Q377 368 403 340.5Q429 313 444 276Q459 239 459 197Q459 154 444 116.5Q429 79 402.5 51Q376 23 339 7Q302 -9 259 -9Q197 -9 153.5 19Q110 47 84 97Q61 141 51.5 192.5Q42 244 42 299Q42 381 60 442Q78 503 109.5 543.5Q141 584 182.5 603.5Q224 623 272 623ZM107 196Q107 162 118.5 133Q130 104 150 82.5Q170 61 198 49Q226 37 259 37Q291 37 318.5 49Q346 61 366.5 82Q387 103 398.5 132Q410 161 410 196Q410 230 398.5 259.5Q387 289 366.5 310Q346 331 318.5 343Q291 355 259 355Q226 355 198.5 343Q171 331 150.5 310Q130 289 118.5 259.5Q107 230 107 196Z" glyph-name="six" horiz-adv-x="495" unicode="6" /><glyph d="M156 163Q200 163 224 142Q248 121 254 86L214 80Q210 101 196 114Q182 127 155 127Q117 127 93.5 93.5Q70 60 70 4Q70 0 70 -5Q70 -10 71 -14Q79 12 102 28.5Q125 45 154 45Q201 45 230.5 13.5Q260 -18 260 -64Q260 -111 229.5 -143Q199 -175 150 -175Q117 -175 93 -160Q69 -145 54 -119Q40 -96 35 -68.5Q30 -41 30 -11Q30 75 65.5 119Q101 163 156 163ZM78 -64Q78 -96 98 -117Q118 -138 150 -138Q180 -138 200 -117Q220 -96 220 -64Q220 -32 200 -11Q180 10 150 10Q118 10 98 -11Q78 -32 78 -64Z" glyph-name="six.inf" horiz-adv-x="288" unicode="&#58743;" /><glyph d="M285 623Q361 623 407 583.5Q453 544 464 484L416 475Q405 521 374 549.5Q343 578 284 578Q245 578 211.5 559.5Q178 541 153 506Q128 471 114 421.5Q100 372 100 310Q100 302 100.5 290Q101 278 102 267Q109 297 126 321.5Q143 346 166 363.5Q189 381 217.5 390.5Q246 400 278 400Q321 400 358 384Q395 368 422 340.5Q449 313 464.5 276Q480 239 480 197Q480 154 464.5 116.5Q449 79 422 51Q395 23 357.5 7Q320 -9 275 -9Q209 -9 162.5 22.5Q116 54 90 108Q69 150 61 199Q53 248 53 299Q53 377 70.5 437.5Q88 498 119.5 539.5Q151 581 193 602Q235 623 285 623ZM118 196Q118 162 130 133Q142 104 163 82.5Q184 61 212.5 49Q241 37 275 37Q308 37 336.5 49Q365 61 386.5 82Q408 103 420 132Q432 161 432 196Q432 230 420 259.5Q408 289 386.5 310Q365 331 336.5 343Q308 355 275 355Q242 355 213 343Q184 331 163 310Q142 289 130 259.5Q118 230 118 196Z" glyph-name="six.lt" horiz-adv-x="520" /><glyph d="M253 650H302L54 -84H5Z" glyph-name="slash" horiz-adv-x="307" unicode="/" /><glyph d="M253 670H302L54 -64H5Z" glyph-name="slash.cap" horiz-adv-x="307" unicode="&#58465;" /><glyph glyph-name="space" horiz-adv-x="204" unicode=" " /><glyph glyph-name="space.tab" horiz-adv-x="260" /><glyph d="M169 324H338V282H169V136Q169 110 163 85Q157 60 146 45H452V0H31V45H96Q107 63 114 83Q121 103 121 136V282H31V324H121V423Q121 516 168.5 569.5Q216 623 294 623Q365 623 404 587.5Q443 552 454 496L407 488Q399 530 370.5 553.5Q342 577 294 577Q237 577 203 537.5Q169 498 169 423Z" glyph-name="sterling" horiz-adv-x="483" unicode="&#163;" /><glyph d="M186 324H355V282H186V136Q186 110 179.5 85Q173 60 162 45H469V0H48V45H113Q124 63 130.5 83Q137 103 137 136V282H48V324H137V423Q137 469 149.5 506Q162 543 185 569Q208 595 240 609Q272 623 311 623Q382 623 421 587.5Q460 552 471 496L423 488Q415 530 387 553.5Q359 577 310 577Q254 577 220 537.5Q186 498 186 423Z" glyph-name="sterling.lt" horiz-adv-x="520" /><glyph d="M91 400H16V444H91V558H141V444H255V400H141V108Q141 37 204 37Q235 37 259 50L268 8Q255 0 236 -4.5Q217 -9 196 -9Q146 -9 118.5 18.5Q91 46 91 103Z" glyph-name="t" horiz-adv-x="298" unicode="t" /><glyph d="M28 282H92V400H18V444H92V558H142V444H257V400H142V282H237V240H142V108Q142 37 206 37Q237 37 260 50L270 8Q257 0 238 -4.5Q219 -9 198 -9Q148 -9 120 18.5Q92 46 92 103V240H28Z" glyph-name="tbar" horiz-adv-x="300" unicode="&#359;" /><glyph d="M198 500 227 660H268L238 500ZM91 400H16V444H91V558H141V444H255V400H141V108Q141 37 204 37Q235 37 259 50L268 8Q255 0 236 -4.5Q217 -9 196 -9Q146 -9 118.5 18.5Q91 46 91 103Z" glyph-name="tcaron" horiz-adv-x="298" unicode="&#357;" /><glyph d="M91 400H16V444H91V558H141V444H255V400H141V108Q141 37 204 37Q235 37 259 50L268 8Q255 0 236 -4.5Q217 -9 196 -9Q146 -9 118.5 18.5Q91 46 91 103ZM129 -157Q150 -152 163 -141.5Q176 -131 178 -110Q176 -111 173.5 -111Q171 -111 169 -111Q155 -111 146.5 -102.5Q138 -94 138 -80Q138 -66 147 -58Q156 -50 170 -50H171Q207 -52 207 -93Q207 -128 187.5 -149.5Q168 -171 133 -179Z" glyph-name="tcommaaccent" horiz-adv-x="298" unicode="&#355;" /><glyph d="M91 400H16V444H91V558H141V444H255V400H141V108Q141 37 204 37Q235 37 259 50L268 8Q255 0 236 -4.5Q217 -9 196 -9Q146 -9 118.5 18.5Q91 46 91 103ZM84 641Q84 656 93 665Q102 674 117 674Q131 674 140.5 665Q150 656 150 641Q150 626 140.5 617Q131 608 117 608Q102 608 93 617Q84 626 84 641Z" glyph-name="tdotaccent" horiz-adv-x="298" unicode="&#7787;" /><glyph d="M149 286H108V566L24 523V566L122 615H149ZM310 471H334Q360 471 377 485.5Q394 500 394 526Q394 550 378 566Q362 582 334 582Q306 582 289 566Q272 550 268 524L228 532Q233 569 260.5 594Q288 619 334 619Q382 619 409 593.5Q436 568 436 528Q436 501 421 480.5Q406 460 383 454Q409 448 426 428Q443 408 443 378Q443 337 413.5 309Q384 281 333 281Q285 281 256.5 305Q228 329 223 371L265 379Q268 351 285 334.5Q302 318 333 318Q363 318 382 335Q401 352 401 379Q401 407 381.5 422Q362 437 335 437H310ZM396 0H349L747 614H793ZM823 0H781V280L697 237V280L795 329H823ZM1031 333Q1075 333 1099 312Q1123 291 1129 256L1089 250Q1086 271 1071.5 284Q1057 297 1030 297Q992 297 968.5 263.5Q945 230 945 174Q945 170 945 165Q945 160 946 156Q954 182 977 198.5Q1000 215 1029 215Q1077 215 1106 183.5Q1135 152 1135 106Q1135 59 1104.5 27Q1074 -5 1025 -5Q992 -5 968 10Q944 25 929 51Q915 74 910 101.5Q905 129 905 159Q905 245 940.5 289Q976 333 1031 333ZM953 106Q953 74 973 53Q993 32 1025 32Q1055 32 1075 53Q1095 74 1095 106Q1095 138 1075 159Q1055 180 1025 180Q993 180 973 159Q953 138 953 106Z" glyph-name="thirteensixteenths" horiz-adv-x="1163" unicode="&#61985;" /><glyph d="M149 286H108V566L24 523V566L122 615H149ZM310 471H334Q360 471 377 485.5Q394 500 394 526Q394 550 378 566Q362 582 334 582Q306 582 289 566Q272 550 268 524L228 532Q233 569 260.5 594Q288 619 334 619Q382 619 409 593.5Q436 568 436 528Q436 501 421 480.5Q406 460 383 454Q409 448 426 428Q443 408 443 378Q443 337 413.5 309Q384 281 333 281Q285 281 256.5 305Q228 329 223 371L265 379Q268 351 285 334.5Q302 318 333 318Q363 318 382 335Q401 352 401 379Q401 407 381.5 422Q362 437 335 437H310ZM396 0H349L747 614H793ZM782 185H805Q831 185 848.5 199.5Q866 214 866 240Q866 264 849.5 280Q833 296 806 296Q777 296 760 280Q743 264 740 238L699 246Q705 283 732 308Q759 333 805 333Q853 333 880.5 307.5Q908 282 908 242Q908 215 892.5 194.5Q877 174 855 168Q881 162 897.5 142Q914 122 914 92Q914 51 885 23Q856 -5 805 -5Q757 -5 728 19Q699 43 694 85L736 93Q739 65 756.5 48.5Q774 32 805 32Q834 32 853 49Q872 66 872 93Q872 121 853 136Q834 151 806 151H782ZM1132 238Q1132 264 1116 279.5Q1100 295 1073 295Q1041 295 1025.5 276.5Q1010 258 1007 230L965 237Q970 281 996.5 307Q1023 333 1073 333Q1122 333 1148.5 307Q1175 281 1175 239Q1175 207 1155 181.5Q1135 156 1110 130L1023 38H1181V0H964V28L1078 150Q1101 176 1116.5 195.5Q1132 215 1132 238Z" glyph-name="thirteenthirtyseconds" horiz-adv-x="1205" /><glyph d="M108 471H132Q158 471 175.5 485.5Q193 500 193 526Q193 550 176.5 566Q160 582 132 582Q104 582 87 566Q70 550 66 524L26 532Q31 569 58.5 594Q86 619 132 619Q180 619 207.5 593.5Q235 568 235 528Q235 501 219.5 480.5Q204 460 181 454Q207 448 224 428Q241 408 241 378Q241 337 211.5 309Q182 281 132 281Q84 281 55 305Q26 329 21 371L63 379Q66 351 83 334.5Q100 318 132 318Q161 318 180 335Q199 352 199 379Q199 407 179.5 422Q160 437 133 437H108ZM417 286H375V566L292 523V566L389 615H417ZM396 0H349L747 614H793ZM782 185H805Q831 185 848.5 199.5Q866 214 866 240Q866 264 849.5 280Q833 296 806 296Q777 296 760 280Q743 264 740 238L699 246Q705 283 732 308Q759 333 805 333Q853 333 880.5 307.5Q908 282 908 242Q908 215 892.5 194.5Q877 174 855 168Q881 162 897.5 142Q914 122 914 92Q914 51 885 23Q856 -5 805 -5Q757 -5 728 19Q699 43 694 85L736 93Q739 65 756.5 48.5Q774 32 805 32Q834 32 853 49Q872 66 872 93Q872 121 853 136Q834 151 806 151H782ZM1132 238Q1132 264 1116 279.5Q1100 295 1073 295Q1041 295 1025.5 276.5Q1010 258 1007 230L965 237Q970 281 996.5 307Q1023 333 1073 333Q1122 333 1148.5 307Q1175 281 1175 239Q1175 207 1155 181.5Q1135 156 1110 130L1023 38H1181V0H964V28L1078 150Q1101 176 1116.5 195.5Q1132 215 1132 238Z" glyph-name="thirtyonethirtyseconds" horiz-adv-x="1205" /><glyph d="M121 -170H71V650H121V378Q140 407 176.5 430Q213 453 259 453Q308 453 344.5 434Q381 415 405 383Q429 351 441 309.5Q453 268 453 222Q453 176 441 134.5Q429 93 405 61Q381 29 344.5 10Q308 -9 259 -9Q213 -9 176.5 14Q140 37 121 66ZM121 125Q144 83 179 60.5Q214 38 254 38Q289 38 316.5 51.5Q344 65 363 89.5Q382 114 392 148Q402 182 402 222Q402 262 392 296Q382 330 363 354.5Q344 379 316.5 392.5Q289 406 254 406Q214 406 179 383.5Q144 361 121 319Z" glyph-name="thorn" horiz-adv-x="492" unicode="&#254;" /><glyph d="M182 338H228Q282 338 319 369Q356 400 356 457Q356 509 319.5 542.5Q283 576 224 576Q164 576 127.5 542.5Q91 509 83 455L34 464Q39 498 54 527Q69 556 93 577.5Q117 599 149.5 611Q182 623 223 623Q265 623 299 610.5Q333 598 357 576.5Q381 555 394 524.5Q407 494 407 458Q407 431 398 407Q389 383 374 364.5Q359 346 339 333.5Q319 321 296 316Q321 311 344 299Q367 287 383.5 268.5Q400 250 410 224.5Q420 199 420 168Q420 132 406 99.5Q392 67 366.5 43Q341 19 304.5 5Q268 -9 223 -9Q136 -9 84.5 35Q33 79 24 156L74 165Q82 105 119.5 71.5Q157 38 223 38Q287 38 328 73Q369 108 369 168Q369 198 358 221Q347 244 327.5 260Q308 276 282.5 284.5Q257 293 229 293H182Z" glyph-name="three" horiz-adv-x="455" unicode="3" /><glyph d="M108 15H132Q158 15 175.5 29.5Q193 44 193 70Q193 94 176.5 110Q160 126 132 126Q104 126 87 110Q70 94 66 68L26 76Q31 113 58.5 138Q86 163 132 163Q180 163 207.5 137.5Q235 112 235 72Q235 45 219.5 24.5Q204 4 181 -2Q207 -8 224 -28Q241 -48 241 -78Q241 -119 211.5 -147Q182 -175 132 -175Q84 -175 55 -151Q26 -127 21 -85L63 -77Q66 -105 83 -121.5Q100 -138 132 -138Q161 -138 180 -121Q199 -104 199 -77Q199 -49 179.5 -34Q160 -19 133 -19H108Z" glyph-name="three.inf" horiz-adv-x="268" unicode="&#58740;" /><glyph d="M211 338H264Q291 338 314.5 346Q338 354 355.5 369.5Q373 385 383 407Q393 429 393 457Q393 483 382.5 505Q372 527 354 542.5Q336 558 311 567Q286 576 257 576Q197 576 159 542.5Q121 509 113 455L63 464Q68 498 83.5 527Q99 556 124 577.5Q149 599 182 611Q215 623 256 623Q298 623 333 610.5Q368 598 392.5 576.5Q417 555 430.5 524.5Q444 494 444 458Q444 431 435 407Q426 383 411 364.5Q396 346 375.5 333.5Q355 321 332 316Q357 311 380 299Q403 287 419.5 268.5Q436 250 446 224.5Q456 199 456 168Q456 132 442 99.5Q428 67 401.5 43Q375 19 338 5Q301 -9 256 -9Q169 -9 116 35Q63 79 53 156L104 165Q112 105 151 71.5Q190 38 256 38Q288 38 315.5 47Q343 56 363 73Q383 90 394.5 114Q406 138 406 168Q406 198 395 221Q384 244 364.5 260Q345 276 319.5 284.5Q294 293 265 293H211Z" glyph-name="three.lt" horiz-adv-x="520" /><glyph d="M108 471H132Q158 471 175.5 485.5Q193 500 193 526Q193 550 176.5 566Q160 582 132 582Q104 582 87 566Q70 550 66 524L26 532Q31 569 58.5 594Q86 619 132 619Q180 619 207.5 593.5Q235 568 235 528Q235 501 219.5 480.5Q204 460 181 454Q207 448 224 428Q241 408 241 378Q241 337 211.5 309Q182 281 132 281Q84 281 55 305Q26 329 21 371L63 379Q66 351 83 334.5Q100 318 132 318Q161 318 180 335Q199 352 199 379Q199 407 179.5 422Q160 437 133 437H108ZM194 0H148L545 614H591ZM540 112H643V186H683V112H739V75H683V0H643V75H492V107L614 328H657Z" glyph-name="threequarters" horiz-adv-x="763" unicode="&#190;" /><glyph d="M108 471H132Q158 471 175.5 485.5Q193 500 193 526Q193 550 176.5 566Q160 582 132 582Q104 582 87 566Q70 550 66 524L26 532Q31 569 58.5 594Q86 619 132 619Q180 619 207.5 593.5Q235 568 235 528Q235 501 219.5 480.5Q204 460 181 454Q207 448 224 428Q241 408 241 378Q241 337 211.5 309Q182 281 132 281Q84 281 55 305Q26 329 21 371L63 379Q66 351 83 334.5Q100 318 132 318Q161 318 180 335Q199 352 199 379Q199 407 179.5 422Q160 437 133 437H108ZM194 0H148L545 614H591ZM621 0H579V280L496 237V280L593 329H621ZM830 333Q873 333 897 312Q921 291 927 256L887 250Q884 271 869.5 284Q855 297 828 297Q790 297 766.5 263.5Q743 230 743 174Q743 170 743 165Q743 160 744 156Q752 182 775 198.5Q798 215 827 215Q875 215 904.5 183.5Q934 152 934 106Q934 59 903.5 27Q873 -5 823 -5Q790 -5 766 10Q742 25 727 51Q714 74 708.5 101.5Q703 129 703 159Q703 245 738.5 289Q774 333 830 333ZM751 106Q751 74 771 53Q791 32 823 32Q853 32 873 53Q893 74 893 106Q893 138 873 159Q853 180 823 180Q792 180 771.5 159Q751 138 751 106Z" glyph-name="threesixteenths" horiz-adv-x="961" unicode="&#61974;" /><glyph d="M108 471H132Q158 471 175.5 485.5Q193 500 193 526Q193 550 176.5 566Q160 582 132 582Q104 582 87 566Q70 550 66 524L26 532Q31 569 58.5 594Q86 619 132 619Q180 619 207.5 593.5Q235 568 235 528Q235 501 219.5 480.5Q204 460 181 454Q207 448 224 428Q241 408 241 378Q241 337 211.5 309Q182 281 132 281Q84 281 55 305Q26 329 21 371L63 379Q66 351 83 334.5Q100 318 132 318Q161 318 180 335Q199 352 199 379Q199 407 179.5 422Q160 437 133 437H108Z" glyph-name="threesuperior" horiz-adv-x="268" unicode="&#179;" /><glyph d="M108 471H132Q158 471 175.5 485.5Q193 500 193 526Q193 550 176.5 566Q160 582 132 582Q104 582 87 566Q70 550 66 524L26 532Q31 569 58.5 594Q86 619 132 619Q180 619 207.5 593.5Q235 568 235 528Q235 501 219.5 480.5Q204 460 181 454Q207 448 224 428Q241 408 241 378Q241 337 211.5 309Q182 281 132 281Q84 281 55 305Q26 329 21 371L63 379Q66 351 83 334.5Q100 318 132 318Q161 318 180 335Q199 352 199 379Q199 407 179.5 422Q160 437 133 437H108ZM194 0H148L545 614H591ZM580 185H603Q629 185 646.5 199.5Q664 214 664 240Q664 264 647.5 280Q631 296 604 296Q576 296 558.5 280Q541 264 538 238L497 246Q503 283 530 308Q557 333 603 333Q651 333 678.5 307.5Q706 282 706 242Q706 215 690.5 194.5Q675 174 653 168Q679 162 695.5 142Q712 122 712 92Q712 51 683 23Q654 -5 603 -5Q555 -5 526 19Q497 43 492 85L534 93Q537 65 554.5 48.5Q572 32 603 32Q632 32 651 49Q670 66 670 93Q670 121 651 136Q632 151 604 151H580ZM930 238Q930 264 914 279.5Q898 295 871 295Q839 295 823.5 276.5Q808 258 805 230L763 237Q768 281 795 307Q822 333 871 333Q920 333 946.5 307Q973 281 973 239Q973 207 953 181.5Q933 156 908 130L822 38H979V0H762V28L876 150Q900 176 915 195.5Q930 215 930 238Z" glyph-name="threethirtyseconds" horiz-adv-x="1004" /><glyph d="M379 624Q379 574 359 547Q339 520 307 520Q287 520 272 530Q257 540 244.5 551.5Q232 563 220 573Q208 583 195 583Q178 583 169 567.5Q160 552 160 525H120Q120 575 140 602Q160 629 192 629Q212 629 227 619Q242 609 254.5 597.5Q267 586 278.5 576Q290 566 304 566Q321 566 330 581.5Q339 597 340 624Z" glyph-name="tilde" horiz-adv-x="500" unicode="&#732;" /><glyph d="M375 770Q375 722 357.5 693.5Q340 665 306 665Q287 665 272.5 675Q258 685 245.5 696.5Q233 708 221.5 718Q210 728 196 728Q178 728 169 712Q160 696 160 668H124Q124 716 141.5 744.5Q159 773 193 773Q212 773 226.5 763Q241 753 253.5 741Q266 729 277.5 719Q289 709 303 709Q321 709 330 725Q339 741 339 770Z" glyph-name="tilde.cap" horiz-adv-x="500" unicode="&#58404;" /><glyph d="M16 614H227V581H141V360H102V581H16ZM385 360 310 548V360H272V614H319L400 413L481 614H527V360H489V548L414 360Z" glyph-name="trademark" horiz-adv-x="574" unicode="&#8482;" /><glyph d="M191 524Q191 550 175 565.5Q159 581 132 581Q100 581 84.5 562.5Q69 544 66 516L24 523Q29 567 56 593Q83 619 132 619Q181 619 207.5 593Q234 567 234 525Q234 493 214 467.5Q194 442 169 416L83 324H240V286H23V314L137 436Q161 462 176 481.5Q191 501 191 524ZM401 461Q383 461 368.5 453Q354 445 344 434H309V614H490V576H345V476Q353 484 369.5 491Q386 498 406 498Q452 498 480.5 467Q509 436 509 390Q509 367 501 347Q493 327 478 312.5Q463 298 443 289.5Q423 281 399 281Q351 281 322 305.5Q293 330 288 373L329 380Q332 351 351 334.5Q370 318 399 318Q431 318 449.5 338.5Q468 359 468 390Q468 420 449.5 440.5Q431 461 401 461ZM462 0H416L813 614H860ZM848 185H871Q897 185 914.5 199.5Q932 214 932 240Q932 264 915.5 280Q899 296 872 296Q844 296 826.5 280Q809 264 806 238L766 246Q771 283 798 308Q825 333 871 333Q919 333 946.5 307.5Q974 282 974 242Q974 215 958.5 194.5Q943 174 921 168Q947 162 964 142Q981 122 981 92Q981 51 951.5 23Q922 -5 871 -5Q823 -5 794 19Q765 43 760 85L802 93Q806 65 823 48.5Q840 32 871 32Q901 32 919.5 49Q938 66 938 93Q938 121 919 136Q900 151 873 151H848ZM1198 238Q1198 264 1182 279.5Q1166 295 1139 295Q1107 295 1091.5 276.5Q1076 258 1074 230L1031 237Q1036 281 1063 307Q1090 333 1139 333Q1188 333 1214.5 307Q1241 281 1241 239Q1241 207 1221 181.5Q1201 156 1176 130L1090 38H1247V0H1030V28L1144 150Q1168 176 1183 195.5Q1198 215 1198 238Z" glyph-name="twentyfivethirtyseconds" horiz-adv-x="1272" /><glyph d="M396 281Q353 281 329 302Q305 323 299 358L338 365Q342 343 356.5 330Q371 317 397 317Q435 317 458.5 350.5Q482 384 482 441V459Q474 433 451 416Q428 399 399 399Q375 399 355.5 407.5Q336 416 322 431Q308 446 300 465.5Q292 485 292 508Q292 556 322.5 587.5Q353 619 403 619Q468 619 499 563Q512 540 517 513Q522 486 522 456Q522 369 487 325Q452 281 396 281ZM865 185H888Q914 185 931.5 199.5Q949 214 949 240Q949 264 932.5 280Q916 296 889 296Q861 296 843.5 280Q826 264 823 238L783 246Q788 283 815 308Q842 333 888 333Q936 333 963.5 307.5Q991 282 991 242Q991 215 975.5 194.5Q960 174 938 168Q964 162 981 142Q998 122 998 92Q998 51 968.5 23Q939 -5 888 -5Q840 -5 811 19Q782 43 777 85L819 93Q823 65 840 48.5Q857 32 888 32Q918 32 936.5 49Q955 66 955 93Q955 121 936 136Q917 151 890 151H865ZM191 524Q191 550 175 565.5Q159 581 132 581Q100 581 84.5 562.5Q69 544 66 516L24 523Q29 567 56 593Q83 619 132 619Q181 619 207.5 593Q234 567 234 525Q234 493 214 467.5Q194 442 169 416L83 324H240V286H23V314L137 436Q161 462 176 481.5Q191 501 191 524ZM1215 238Q1215 264 1199 279.5Q1183 295 1156 295Q1124 295 1108.5 276.5Q1093 258 1091 230L1048 237Q1053 281 1080 307Q1107 333 1156 333Q1205 333 1231.5 307Q1258 281 1258 239Q1258 207 1238 181.5Q1218 156 1193 130L1107 38H1264V0H1047V28L1161 150Q1185 176 1200 195.5Q1215 215 1215 238ZM479 0H433L830 614H877ZM475 509Q475 541 454.5 562Q434 583 403 583Q373 583 352.5 562Q332 541 332 509Q332 476 352.5 455Q373 434 403 434Q434 434 454.5 455Q475 476 475 509Z" glyph-name="twentyninethirtyseconds" horiz-adv-x="1289" /><glyph d="M191 524Q191 550 175 565.5Q159 581 132 581Q100 581 84.5 562.5Q69 544 66 516L24 523Q29 567 56 593Q83 619 132 619Q181 619 207.5 593Q234 567 234 525Q234 493 214 467.5Q194 442 169 416L83 324H240V286H23V314L137 436Q161 462 176 481.5Q191 501 191 524ZM414 286H372V566L289 523V566L386 615H414ZM393 0H346L744 614H790ZM779 185H802Q828 185 845.5 199.5Q863 214 863 240Q863 264 846.5 280Q830 296 803 296Q774 296 757 280Q740 264 737 238L696 246Q702 283 729 308Q756 333 802 333Q850 333 877.5 307.5Q905 282 905 242Q905 215 889.5 194.5Q874 174 852 168Q878 162 894.5 142Q911 122 911 92Q911 51 882 23Q853 -5 802 -5Q754 -5 725 19Q696 43 691 85L733 93Q736 65 753.5 48.5Q771 32 802 32Q831 32 850 49Q869 66 869 93Q869 121 850 136Q831 151 803 151H779ZM1129 238Q1129 264 1113 279.5Q1097 295 1070 295Q1038 295 1022.5 276.5Q1007 258 1004 230L962 237Q967 281 993.5 307Q1020 333 1070 333Q1119 333 1145.5 307Q1172 281 1172 239Q1172 207 1152 181.5Q1132 156 1107 130L1020 38H1178V0H961V28L1075 150Q1098 176 1113.5 195.5Q1129 215 1129 238Z" glyph-name="twentyonethirtyseconds" horiz-adv-x="1202" /><glyph d="M191 524Q191 550 175 565.5Q159 581 132 581Q100 581 84.5 562.5Q69 544 66 516L24 523Q29 567 56 593Q83 619 132 619Q181 619 207.5 593Q234 567 234 525Q234 493 214 467.5Q194 442 169 416L83 324H240V286H23V314L137 436Q161 462 176 481.5Q191 501 191 524ZM382 286H338L452 576H284V614H498V583ZM446 0H400L797 614H844ZM832 185H855Q881 185 898.5 199.5Q916 214 916 240Q916 264 899.5 280Q883 296 856 296Q828 296 810.5 280Q793 264 790 238L750 246Q755 283 782 308Q809 333 855 333Q903 333 930.5 307.5Q958 282 958 242Q958 215 942.5 194.5Q927 174 905 168Q931 162 948 142Q965 122 965 92Q965 51 935.5 23Q906 -5 855 -5Q807 -5 778 19Q749 43 744 85L786 93Q790 65 807 48.5Q824 32 855 32Q885 32 903.5 49Q922 66 922 93Q922 121 903 136Q884 151 857 151H832ZM1182 238Q1182 264 1166 279.5Q1150 295 1123 295Q1091 295 1075.5 276.5Q1060 258 1058 230L1015 237Q1020 281 1047 307Q1074 333 1123 333Q1172 333 1198.5 307Q1225 281 1225 239Q1225 207 1205 181.5Q1185 156 1160 130L1074 38H1231V0H1014V28L1128 150Q1152 176 1167 195.5Q1182 215 1182 238Z" glyph-name="twentyseventhirtyseconds" horiz-adv-x="1256" /><glyph d="M191 524Q191 550 175 565.5Q159 581 132 581Q100 581 84.5 562.5Q69 544 66 516L24 523Q29 567 56 593Q83 619 132 619Q181 619 207.5 593Q234 567 234 525Q234 493 214 467.5Q194 442 169 416L83 324H240V286H23V314L137 436Q161 462 176 481.5Q191 501 191 524ZM373 471H396Q422 471 439.5 485.5Q457 500 457 526Q457 550 440.5 566Q424 582 397 582Q369 582 351.5 566Q334 550 331 524L291 532Q296 569 323 594Q350 619 396 619Q444 619 471.5 593.5Q499 568 499 528Q499 501 483.5 480.5Q468 460 446 454Q472 448 489 428Q506 408 506 378Q506 337 476.5 309Q447 281 396 281Q348 281 319 305Q290 329 285 371L327 379Q331 351 348 334.5Q365 318 396 318Q426 318 444.5 335Q463 352 463 379Q463 407 444 422Q425 437 398 437H373ZM458 0H412L810 614H856ZM844 185H868Q894 185 911.5 199.5Q929 214 929 240Q929 264 912.5 280Q896 296 868 296Q840 296 823 280Q806 264 802 238L762 246Q767 283 794.5 308Q822 333 868 333Q916 333 943.5 307.5Q971 282 971 242Q971 215 955.5 194.5Q940 174 917 168Q943 162 960 142Q977 122 977 92Q977 51 947.5 23Q918 -5 868 -5Q820 -5 791 19Q762 43 757 85L799 93Q802 65 819 48.5Q836 32 868 32Q897 32 916 49Q935 66 935 93Q935 121 915.5 136Q896 151 869 151H844ZM1195 238Q1195 264 1179 279.5Q1163 295 1136 295Q1104 295 1088.5 276.5Q1073 258 1070 230L1028 237Q1033 281 1059.5 307Q1086 333 1136 333Q1184 333 1211 307Q1238 281 1238 239Q1238 207 1217.5 181.5Q1197 156 1172 130L1086 38H1244V0H1027V28L1141 150Q1164 176 1179.5 195.5Q1195 215 1195 238Z" glyph-name="twentythreethirtyseconds" horiz-adv-x="1268" /><glyph d="M354 452Q354 509 318.5 542.5Q283 576 225 576Q155 576 120 535.5Q85 495 80 433L29 441Q37 523 86 573Q135 623 225 623Q267 623 300 610.5Q333 598 356 575.5Q379 553 391.5 521.5Q404 490 404 452Q404 422 393.5 395.5Q383 369 365.5 344Q348 319 326 294.5Q304 270 281 244L98 47H419V0H26V35L242 271Q266 297 286.5 319.5Q307 342 322 363.5Q337 385 345.5 406.5Q354 428 354 452Z" glyph-name="two" horiz-adv-x="444" unicode="2" /><glyph d="M191 68Q191 94 175 109.5Q159 125 132 125Q100 125 84.5 106.5Q69 88 66 60L24 67Q29 111 56 137Q83 163 132 163Q181 163 207.5 137Q234 111 234 69Q234 37 214 11.5Q194 -14 169 -40L83 -132H240V-170H23V-142L137 -20Q161 6 176 25.5Q191 45 191 68Z" glyph-name="two.inf" horiz-adv-x="265" unicode="&#58739;" /><glyph d="M388 454Q388 511 351 543.5Q314 576 254 576Q186 576 150 537Q114 498 106 433L56 441Q67 526 118 574.5Q169 623 254 623Q296 623 330 610.5Q364 598 388 576Q412 554 425 522.5Q438 491 438 454Q438 424 427 397Q416 370 398.5 344.5Q381 319 358.5 294.5Q336 270 313 244L125 47H453V0H52V35L273 271Q298 297 319 320Q340 343 355.5 364.5Q371 386 379.5 408Q388 430 388 454Z" glyph-name="two.lt" horiz-adv-x="520" /><glyph d="M191 524Q191 550 175 565.5Q159 581 132 581Q100 581 84.5 562.5Q69 544 66 516L24 523Q29 567 56 593Q83 619 132 619Q181 619 207.5 593Q234 567 234 525Q234 493 214 467.5Q194 442 169 416L83 324H240V286H23V314L137 436Q161 462 176 481.5Q191 501 191 524Z" glyph-name="twosuperior" horiz-adv-x="265" unicode="&#178;" /><glyph d="M410 0H360V70Q340 38 304 14.5Q268 -9 220 -9Q144 -9 105 35Q66 79 66 150V444H116V158Q116 105 143 71.5Q170 38 229 38Q275 38 309.5 65.5Q344 93 360 133V444H410Z" glyph-name="u" horiz-adv-x="482" unicode="u" /><glyph d="M211 518 294 650H347L260 518ZM410 0H360V70Q340 38 304 14.5Q268 -9 220 -9Q144 -9 105 35Q66 79 66 150V444H116V158Q116 105 143 71.5Q170 38 229 38Q275 38 309.5 65.5Q344 93 360 133V444H410Z" glyph-name="uacute" horiz-adv-x="482" unicode="&#250;" /><glyph d="M410 0H360V70Q340 38 304 14.5Q268 -9 220 -9Q144 -9 105 35Q66 79 66 150V444H116V158Q116 105 143 71.5Q170 38 229 38Q275 38 309.5 65.5Q344 93 360 133V444H410ZM239 506Q194 506 164 537Q134 568 133 631H174Q175 589 192.5 567.5Q210 546 239 546Q268 546 286 567.5Q304 589 304 631H346Q344 568 314 537Q284 506 239 506Z" glyph-name="ubreve" horiz-adv-x="482" unicode="&#365;" /><glyph d="M353 513H309L239 610L170 513H125L216 645H263ZM410 0H360V70Q340 38 304 14.5Q268 -9 220 -9Q144 -9 105 35Q66 79 66 150V444H116V158Q116 105 143 71.5Q170 38 229 38Q275 38 309.5 65.5Q344 93 360 133V444H410Z" glyph-name="ucircumflex" horiz-adv-x="482" unicode="&#251;" /><glyph d="M144 572Q144 587 153 596Q162 605 177 605Q191 605 200.5 596Q210 587 210 572Q210 558 200.5 548.5Q191 539 177 539Q162 539 153 548.5Q144 558 144 572ZM269 572Q269 587 278 596Q287 605 302 605Q317 605 326 596Q335 587 335 572Q335 558 326 548.5Q317 539 302 539Q287 539 278 548.5Q269 558 269 572ZM410 0H360V70Q340 38 304 14.5Q268 -9 220 -9Q144 -9 105 35Q66 79 66 150V444H116V158Q116 105 143 71.5Q170 38 229 38Q275 38 309.5 65.5Q344 93 360 133V444H410Z" glyph-name="udieresis" horiz-adv-x="482" unicode="&#252;" /><glyph d="M410 0H360V70Q340 38 304 14.5Q268 -9 220 -9Q144 -9 105 35Q66 79 66 150V444H116V158Q116 105 143 71.5Q170 38 229 38Q275 38 309.5 65.5Q344 93 360 133V444H410ZM215 518 128 650H181L264 518Z" glyph-name="ugrave" horiz-adv-x="482" unicode="&#249;" /><glyph d="M410 0H360V70Q340 38 304 14.5Q268 -9 220 -9Q144 -9 105 35Q66 79 66 150V444H116V158Q116 105 143 71.5Q170 38 229 38Q275 38 309.5 65.5Q344 93 360 133V444H410ZM161 518 236 650H288L208 518ZM272 518 347 650H399L319 518Z" glyph-name="uhungarumlaut" horiz-adv-x="482" unicode="&#369;" /><glyph d="M410 0H360V70Q340 38 304 14.5Q268 -9 220 -9Q144 -9 105 35Q66 79 66 150V444H116V158Q116 105 143 71.5Q170 38 229 38Q275 38 309.5 65.5Q344 93 360 133V444H410ZM139 582H341V539H139Z" glyph-name="umacron" horiz-adv-x="482" unicode="&#363;" /><glyph d="M20 -42H332V-89H20Z" glyph-name="underscore" horiz-adv-x="352" unicode="_" /><glyph glyph-name="uni00A0" horiz-adv-x="221" unicode="&#160;" /><glyph d="M40 283H281V236H40Z" glyph-name="uni00AD" horiz-adv-x="321" unicode="&#173;" /><glyph d="M155 320Q194 320 215.5 356.5Q237 393 237 450Q237 507 215.5 544Q194 581 155 581Q115 581 93.5 544Q72 507 72 450Q72 393 93.5 356.5Q115 320 155 320ZM155 281Q127 281 104 293.5Q81 306 64.5 328Q48 350 39 381Q30 412 30 450Q30 487 39 518.5Q48 550 64.5 572Q81 594 104 606.5Q127 619 155 619Q183 619 206 606.5Q229 594 245 572Q261 550 270 518.5Q279 487 279 450Q279 412 270 381Q261 350 245 328Q229 306 206 293.5Q183 281 155 281Z" glyph-name="uni2070" horiz-adv-x="310" unicode="&#8304;" /><glyph d="M68 398H172V472H211V398H268V361H211V286H172V361H21V393L142 614H185Z" glyph-name="uni2074" horiz-adv-x="291" unicode="&#8308;" /><glyph d="M137 461Q118 461 103.5 453Q89 445 80 434H44V614H226V576H80V476Q89 484 105 491Q121 498 141 498Q187 498 216 467Q245 436 245 390Q245 367 236.5 347Q228 327 213.5 312.5Q199 298 178.5 289.5Q158 281 134 281Q86 281 57 305.5Q28 330 23 373L64 380Q68 351 86.5 334.5Q105 318 134 318Q166 318 185 338.5Q204 359 204 390Q204 420 185.5 440.5Q167 461 137 461Z" glyph-name="uni2075" horiz-adv-x="271" unicode="&#8309;" /><glyph d="M156 619Q200 619 224 598Q248 577 254 542L214 536Q210 557 196 570Q182 583 155 583Q117 583 93.5 549.5Q70 516 70 460Q70 456 70 451Q70 446 71 442Q79 468 102 484.5Q125 501 154 501Q201 501 230.5 469.5Q260 438 260 392Q260 345 229.5 313Q199 281 150 281Q117 281 93 296Q69 311 54 337Q40 360 35 387.5Q30 415 30 445Q30 531 65.5 575Q101 619 156 619ZM78 392Q78 360 98 339Q118 318 150 318Q180 318 200 339Q220 360 220 392Q220 424 200 445Q180 466 150 466Q118 466 98 445Q78 424 78 392Z" glyph-name="uni2076" horiz-adv-x="288" unicode="&#8310;" /><glyph d="M117 286H73L188 576H19V614H233V583Z" glyph-name="uni2077" horiz-adv-x="255" unicode="&#8311;" /><glyph d="M140 316Q172 316 192.5 334Q213 352 213 378Q213 406 192.5 423.5Q172 441 140 441Q108 441 88 423.5Q68 406 68 378Q68 352 88 334Q108 316 140 316ZM140 477Q168 477 185 492.5Q202 508 202 531Q202 554 185 569.5Q168 585 140 585Q114 585 96.5 569.5Q79 554 79 531Q79 508 96.5 492.5Q114 477 140 477ZM140 281Q92 281 59.5 307.5Q27 334 27 376Q27 407 44.5 429Q62 451 91 459Q67 468 53 487Q39 506 39 532Q39 571 68 595Q97 619 140 619Q184 619 213 595Q242 571 242 532Q242 506 227.5 487Q213 468 190 459Q218 451 236 429Q254 407 254 376Q254 334 222 307.5Q190 281 140 281Z" glyph-name="uni2078" horiz-adv-x="281" unicode="&#8312;" /><glyph d="M132 281Q88 281 64.5 302Q41 323 34 358L74 365Q77 343 92 330Q107 317 133 317Q171 317 194.5 350.5Q218 384 218 441Q218 444 218 449Q218 454 217 459Q209 433 186 416Q163 399 134 399Q111 399 91.5 407.5Q72 416 58 431Q44 446 36 465.5Q28 485 28 508Q28 556 58.5 587.5Q89 619 138 619Q203 619 234 563Q247 540 252 513Q257 486 257 456Q257 369 222 325Q187 281 132 281ZM211 509Q211 541 190.5 562Q170 583 138 583Q108 583 87.5 562Q67 541 67 509Q67 476 87.5 455Q108 434 138 434Q170 434 190.5 455Q211 476 211 509Z" glyph-name="uni2079" horiz-adv-x="288" unicode="&#8313;" /><glyph d="M163 548V460H251V427H163V339H130V427H42V460H130V548Z" glyph-name="uni207A" horiz-adv-x="294" unicode="&#8314;" /><glyph d="M45 461H257V427H45Z" glyph-name="uni207B" horiz-adv-x="302" unicode="&#8315;" /><glyph d="M48 422H259V391H48ZM48 499H259V467H48Z" glyph-name="uni207C" horiz-adv-x="307" unicode="&#8316;" /><glyph d="M28 450Q28 536 64.5 591Q101 646 158 669L164 634Q124 617 95 571Q66 525 66 450Q66 375 95 329Q124 283 164 266L158 231Q101 254 64.5 309Q28 364 28 450Z" glyph-name="uni207D" horiz-adv-x="195" unicode="&#8317;" /><glyph d="M167 450Q167 364 130.5 309Q94 254 37 231L32 266Q71 283 99.5 329Q128 375 128 450Q128 525 99.5 571Q71 617 32 634L37 669Q94 646 130.5 591Q167 536 167 450Z" glyph-name="uni207E" horiz-adv-x="195" unicode="&#8318;" /><glyph d="M155 34Q194 34 215.5 70.5Q237 107 237 164Q237 221 215.5 258Q194 295 155 295Q115 295 93.5 258Q72 221 72 164Q72 107 93.5 70.5Q115 34 155 34ZM155 -5Q127 -5 104 7.5Q81 20 64.5 42Q48 64 39 95Q30 126 30 164Q30 201 39 232.5Q48 264 64.5 286Q81 308 104 320.5Q127 333 155 333Q183 333 206 320.5Q229 308 245 286Q261 264 270 232.5Q279 201 279 164Q279 126 270 95Q261 64 245 42Q229 20 206 7.5Q183 -5 155 -5Z" glyph-name="uni2080" horiz-adv-x="310" unicode="&#8320;" /><glyph d="M149 0H108V280L24 237V280L122 329H149Z" glyph-name="uni2081" horiz-adv-x="202" unicode="&#8321;" /><glyph d="M191 238Q191 264 175 279.5Q159 295 132 295Q100 295 84.5 276.5Q69 258 66 230L24 237Q29 281 56 307Q83 333 132 333Q181 333 207.5 307Q234 281 234 239Q234 207 214 181.5Q194 156 169 130L83 38H240V0H23V28L137 150Q161 176 176 195.5Q191 215 191 238Z" glyph-name="uni2082" horiz-adv-x="265" unicode="&#8322;" /><glyph d="M108 185H132Q158 185 175.5 199.5Q193 214 193 240Q193 264 176.5 280Q160 296 132 296Q104 296 87 280Q70 264 66 238L26 246Q31 283 58.5 308Q86 333 132 333Q180 333 207.5 307.5Q235 282 235 242Q235 215 219.5 194.5Q204 174 181 168Q207 162 224 142Q241 122 241 92Q241 51 211.5 23Q182 -5 132 -5Q84 -5 55 19Q26 43 21 85L63 93Q66 65 83 48.5Q100 32 132 32Q161 32 180 49Q199 66 199 93Q199 121 179.5 136Q160 151 133 151H108Z" glyph-name="uni2083" horiz-adv-x="268" unicode="&#8323;" /><glyph d="M68 112H172V186H211V112H268V75H211V0H172V75H21V107L142 328H185Z" glyph-name="uni2084" horiz-adv-x="291" unicode="&#8324;" /><glyph d="M137 175Q118 175 103.5 167Q89 159 80 148H44V328H226V290H80V190Q89 198 105 205Q121 212 141 212Q187 212 216 181Q245 150 245 104Q245 81 236.5 61Q228 41 213.5 26.5Q199 12 178.5 3.5Q158 -5 134 -5Q86 -5 57 19.5Q28 44 23 87L64 94Q68 65 86.5 48.5Q105 32 134 32Q166 32 185 52.5Q204 73 204 104Q204 134 185.5 154.5Q167 175 137 175Z" glyph-name="uni2085" horiz-adv-x="271" unicode="&#8325;" /><glyph d="M156 333Q200 333 224 312Q248 291 254 256L214 250Q210 271 196 284Q182 297 155 297Q117 297 93.5 263.5Q70 230 70 174Q70 170 70 165Q70 160 71 156Q79 182 102 198.5Q125 215 154 215Q201 215 230.5 183.5Q260 152 260 106Q260 59 229.5 27Q199 -5 150 -5Q117 -5 93 10Q69 25 54 51Q40 74 35 101.5Q30 129 30 159Q30 245 65.5 289Q101 333 156 333ZM78 106Q78 74 98 53Q118 32 150 32Q180 32 200 53Q220 74 220 106Q220 138 200 159Q180 180 150 180Q118 180 98 159Q78 138 78 106Z" glyph-name="uni2086" horiz-adv-x="288" unicode="&#8326;" /><glyph d="M117 0H73L188 290H19V328H233V297Z" glyph-name="uni2087" horiz-adv-x="255" unicode="&#8327;" /></font>
</defs>
</svg>
