<?xml version="1.0" standalone="no"?><!DOCTYPE svg PUBLIC "-//W3C//DTD SVG 1.1//EN" "http://www.w3.org/Graphics/SVG/1.1/DTD/svg11.dtd" ><svg version="1.1" xmlns="http://www.w3.org/2000/svg"><defs><font horiz-adv-x="0" id="font"><font-face ascent="850" bbox="-120 -224 1239 893" cap-height="614" descent="-350" font-family="The Met Sans" font-stretch="condensed" font-style="normal" font-weight="600" units-per-em="1000" x-height="444" /><missing-glyph d="M682 614V0H68V614ZM160 92H590V522H160ZM256 482 375 364 494 482 550 426 432 307 550 188 494 132 375 250 256 132 200 188 318 307 200 426Z" horiz-adv-x="750" /><glyph glyph-name=".null" horiz-adv-x="0" /><glyph d="M297 614 543 0H512L426 214H140L55 0H24L270 614ZM152 244H414L283 571Z" glyph-name="A" horiz-adv-x="567" unicode="A" /><glyph d="M795 614V584H463V332H763V302H463V30H795V0H432V214H194L57 0H24L417 614ZM214 244H432V583Z" glyph-name="AE" horiz-adv-x="855" unicode="&#198;" /><glyph d="M795 614V584H463V332H763V302H463V30H795V0H432V214H194L57 0H24L417 614ZM214 244H432V583ZM586 663 671 780H704L619 663Z" glyph-name="AEacute" horiz-adv-x="855" unicode="&#508;" /><glyph d="M297 614 543 0H512L426 214H140L55 0H24L270 614ZM152 244H414L283 571ZM270 663 355 780H388L303 663Z" glyph-name="Aacute" horiz-adv-x="567" unicode="&#193;" /><glyph d="M297 614 543 0H512L426 214H140L55 0H24L270 614ZM152 244H414L283 571ZM283 663Q243 663 216.5 692Q190 721 190 777H217Q217 734 235.5 711Q254 688 283 688Q312 688 330.5 711Q349 734 349 777H376Q376 721 349.5 692Q323 663 283 663Z" glyph-name="Abreve" horiz-adv-x="567" unicode="&#258;" /><glyph d="M297 614 543 0H512L426 214H140L55 0H24L270 614ZM152 244H414L283 571ZM387 666H356L283 758L210 666H179L270 783H296Z" glyph-name="Acircumflex" horiz-adv-x="567" unicode="&#194;" /><glyph d="M297 614 543 0H512L426 214H140L55 0H24L270 614ZM152 244H414L283 571ZM203 710Q203 733 226 733Q249 733 249 710Q249 687 226 687Q203 687 203 710ZM317 710Q317 733 340 733Q363 733 363 710Q363 687 340 687Q317 687 317 710Z" glyph-name="Adieresis" horiz-adv-x="567" unicode="&#196;" /><glyph d="M297 614 543 0H512L426 214H140L55 0H24L270 614ZM152 244H414L283 571ZM263 663 178 780H211L296 663Z" glyph-name="Agrave" horiz-adv-x="567" unicode="&#192;" /><glyph d="M297 614 543 0H512L426 214H140L55 0H24L270 614ZM152 244H414L283 571ZM187 697H380V670H187Z" glyph-name="Amacron" horiz-adv-x="567" unicode="&#256;" /><glyph d="M297 614 543 0Q512 -12 488 -37Q464 -62 464 -98Q464 -125 481 -140Q498 -155 527 -155Q545 -155 559 -150.5Q573 -146 580 -142L586 -164Q579 -169 562.5 -174Q546 -179 525 -179Q481 -179 459.5 -155.5Q438 -132 438 -97Q438 -58 459.5 -32.5Q481 -7 509 7L426 214H140L55 0H24L270 614ZM152 244H414L283 571Z" glyph-name="Aogonek" horiz-adv-x="567" unicode="&#260;" /><glyph d="M297 614 543 0H512L426 214H140L55 0H24L270 614ZM152 244H414L283 571ZM360 724Q360 692 337.5 669.5Q315 647 283 647Q251 647 228.5 669.5Q206 692 206 724Q206 756 228.5 778.5Q251 801 283 801Q315 801 337.5 778.5Q360 756 360 724ZM335 724Q335 746 320 761Q305 776 283 776Q261 776 246 761Q231 746 231 724Q231 702 246 687Q261 672 283 672Q305 672 320 687Q335 702 335 724Z" glyph-name="Aring" horiz-adv-x="567" unicode="&#197;" /><glyph d="M297 614 543 0H512L426 214H140L55 0H24L270 614ZM152 244H414L283 571ZM364 712Q364 683 340.5 663.5Q317 644 283 644Q250 644 226.5 663.5Q203 683 203 712Q203 741 226.5 761Q250 781 283 781Q317 781 340.5 761Q364 741 364 712ZM283 668Q306 668 322 680.5Q338 693 338 712Q338 732 322 744.5Q306 757 283 757Q260 757 244.5 744.5Q229 732 229 712Q229 693 244.5 680.5Q260 668 283 668ZM357 893 297 811H268L328 893Z" glyph-name="Aringacute" horiz-adv-x="567" unicode="&#506;" /><glyph d="M297 614 543 0H512L426 214H140L55 0H24L270 614ZM152 244H414L283 571ZM402 759Q402 715 386 689.5Q370 664 339 664Q319 664 304.5 675Q290 686 278 699Q266 712 254.5 723Q243 734 229 734Q210 734 200.5 715.5Q191 697 191 667H165Q165 710 181 736Q197 762 228 762Q248 762 262.5 751Q277 740 289 727Q301 714 312.5 703Q324 692 338 692Q357 692 366.5 710.5Q376 729 376 759Z" glyph-name="Atilde" horiz-adv-x="567" unicode="&#195;" /><glyph d="M344 319Q375 315 399.5 301.5Q424 288 441 267.5Q458 247 467 221Q476 195 476 166Q476 87 424.5 43.5Q373 0 279 0H83V614H261Q355 614 404 573.5Q453 533 453 458Q453 426 443.5 402Q434 378 419 361.5Q404 345 384.5 335Q365 325 344 319ZM261 331Q339 331 380.5 362.5Q422 394 422 457Q422 521 380.5 552.5Q339 584 261 584H114V331ZM114 30H285Q364 30 404.5 67Q445 104 445 166Q445 228 404.5 265.5Q364 303 285 303H114Z" glyph-name="B" horiz-adv-x="513" unicode="B" /><glyph d="M344 319Q375 315 399.5 301.5Q424 288 441 267.5Q458 247 467 221Q476 195 476 166Q476 87 424.5 43.5Q373 0 279 0H83V614H261Q355 614 404 573.5Q453 533 453 458Q453 426 443.5 402Q434 378 419 361.5Q404 345 384.5 335Q365 325 344 319ZM261 331Q339 331 380.5 362.5Q422 394 422 457Q422 521 380.5 552.5Q339 584 261 584H114V331ZM114 30H285Q364 30 404.5 67Q445 104 445 166Q445 228 404.5 265.5Q364 303 285 303H114ZM233 710Q233 733 256 733Q279 733 279 710Q279 687 256 687Q233 687 233 710Z" glyph-name="Bdotaccent" horiz-adv-x="513" unicode="&#7682;" /><glyph d="M72 307Q72 240 90.5 187Q109 134 141 97.5Q173 61 216.5 41.5Q260 22 310 22Q387 22 437 59.5Q487 97 501 157L530 152Q522 116 502.5 86.5Q483 57 454.5 36Q426 15 389.5 3.5Q353 -8 310 -8Q254 -8 205 13.5Q156 35 119.5 75.5Q83 116 61.5 174.5Q40 233 40 307Q40 381 61.5 439.5Q83 498 119.5 538.5Q156 579 205 600.5Q254 622 310 622Q353 622 389.5 610.5Q426 599 454.5 578Q483 557 502.5 527.5Q522 498 530 462L501 457Q487 517 437 554.5Q387 592 310 592Q260 592 216.5 572.5Q173 553 141 516Q109 479 90.5 426.5Q72 374 72 307Z" glyph-name="C" horiz-adv-x="566" unicode="C" /><glyph d="M72 307Q72 240 90.5 187Q109 134 141 97.5Q173 61 216.5 41.5Q260 22 310 22Q387 22 437 59.5Q487 97 501 157L530 152Q522 116 502.5 86.5Q483 57 454.5 36Q426 15 389.5 3.5Q353 -8 310 -8Q254 -8 205 13.5Q156 35 119.5 75.5Q83 116 61.5 174.5Q40 233 40 307Q40 381 61.5 439.5Q83 498 119.5 538.5Q156 579 205 600.5Q254 622 310 622Q353 622 389.5 610.5Q426 599 454.5 578Q483 557 502.5 527.5Q522 498 530 462L501 457Q487 517 437 554.5Q387 592 310 592Q260 592 216.5 572.5Q173 553 141 516Q109 479 90.5 426.5Q72 374 72 307ZM290 663 375 780H408L323 663Z" glyph-name="Cacute" horiz-adv-x="566" unicode="&#262;" /><glyph d="M207 773H238L311 681L384 773H415L324 656H298ZM72 307Q72 240 90.5 187Q109 134 141 97.5Q173 61 216.5 41.5Q260 22 310 22Q387 22 437 59.5Q487 97 501 157L530 152Q522 116 502.5 86.5Q483 57 454.5 36Q426 15 389.5 3.5Q353 -8 310 -8Q254 -8 205 13.5Q156 35 119.5 75.5Q83 116 61.5 174.5Q40 233 40 307Q40 381 61.5 439.5Q83 498 119.5 538.5Q156 579 205 600.5Q254 622 310 622Q353 622 389.5 610.5Q426 599 454.5 578Q483 557 502.5 527.5Q522 498 530 462L501 457Q487 517 437 554.5Q387 592 310 592Q260 592 216.5 572.5Q173 553 141 516Q109 479 90.5 426.5Q72 374 72 307Z" glyph-name="Ccaron" horiz-adv-x="566" unicode="&#268;" /><glyph d="M296 -8Q243 -5 196 17.5Q149 40 114.5 80.5Q80 121 60 178Q40 235 40 307Q40 381 61.5 439.5Q83 498 119.5 538.5Q156 579 205 600.5Q254 622 310 622Q353 622 389.5 610.5Q426 599 454.5 578Q483 557 502.5 527.5Q522 498 530 462L501 457Q487 517 437 554.5Q387 592 310 592Q260 592 216.5 572.5Q173 553 141 516Q109 479 90.5 426.5Q72 374 72 307Q72 240 90.5 187Q109 134 141 97.5Q173 61 216.5 41.5Q260 22 310 22Q387 22 437 59.5Q487 97 501 157L530 152Q514 82 457.5 38.5Q401 -5 319 -8L311 -46Q346 -52 366.5 -71Q387 -90 387 -117Q387 -143 370 -161Q353 -179 309 -179Q283 -179 265.5 -172.5Q248 -166 239 -160L245 -138Q255 -144 269 -149.5Q283 -155 307 -155Q336 -155 348.5 -145.5Q361 -136 361 -118Q361 -94 338 -80Q315 -66 285 -64Z" glyph-name="Ccedilla" horiz-adv-x="566" unicode="&#199;" /><glyph d="M72 307Q72 240 90.5 187Q109 134 141 97.5Q173 61 216.5 41.5Q260 22 310 22Q387 22 437 59.5Q487 97 501 157L530 152Q522 116 502.5 86.5Q483 57 454.5 36Q426 15 389.5 3.5Q353 -8 310 -8Q254 -8 205 13.5Q156 35 119.5 75.5Q83 116 61.5 174.5Q40 233 40 307Q40 381 61.5 439.5Q83 498 119.5 538.5Q156 579 205 600.5Q254 622 310 622Q353 622 389.5 610.5Q426 599 454.5 578Q483 557 502.5 527.5Q522 498 530 462L501 457Q487 517 437 554.5Q387 592 310 592Q260 592 216.5 572.5Q173 553 141 516Q109 479 90.5 426.5Q72 374 72 307ZM415 666H384L311 758L238 666H207L298 783H324Z" glyph-name="Ccircumflex" horiz-adv-x="566" unicode="&#264;" /><glyph d="M288 710Q288 733 311 733Q334 733 334 710Q334 687 311 687Q288 687 288 710ZM72 307Q72 240 90.5 187Q109 134 141 97.5Q173 61 216.5 41.5Q260 22 310 22Q387 22 437 59.5Q487 97 501 157L530 152Q522 116 502.5 86.5Q483 57 454.5 36Q426 15 389.5 3.5Q353 -8 310 -8Q254 -8 205 13.5Q156 35 119.5 75.5Q83 116 61.5 174.5Q40 233 40 307Q40 381 61.5 439.5Q83 498 119.5 538.5Q156 579 205 600.5Q254 622 310 622Q353 622 389.5 610.5Q426 599 454.5 578Q483 557 502.5 527.5Q522 498 530 462L501 457Q487 517 437 554.5Q387 592 310 592Q260 592 216.5 572.5Q173 553 141 516Q109 479 90.5 426.5Q72 374 72 307Z" glyph-name="Cdotaccent" horiz-adv-x="566" unicode="&#266;" /><glyph d="M264 30Q324 30 372.5 50Q421 70 455.5 106Q490 142 509 193Q528 244 528 307Q528 370 509 421Q490 472 455.5 508Q421 544 372.5 564Q324 584 264 584H114V30ZM83 614H262Q328 614 383 592.5Q438 571 477.5 531Q517 491 538.5 434Q560 377 560 307Q560 237 538.5 180Q517 123 477.5 83Q438 43 383 21.5Q328 0 262 0H83Z" glyph-name="D" horiz-adv-x="600" unicode="D" /><glyph d="M171 773H202L275 681L348 773H379L288 656H262ZM264 30Q324 30 372.5 50Q421 70 455.5 106Q490 142 509 193Q528 244 528 307Q528 370 509 421Q490 472 455.5 508Q421 544 372.5 564Q324 584 264 584H114V30ZM83 614H262Q328 614 383 592.5Q438 571 477.5 531Q517 491 538.5 434Q560 377 560 307Q560 237 538.5 180Q517 123 477.5 83Q438 43 383 21.5Q328 0 262 0H83Z" glyph-name="Dcaron" horiz-adv-x="600" unicode="&#270;" /><glyph d="M35 332H95V614H274Q340 614 395 592.5Q450 571 489.5 531Q529 491 550.5 434Q572 377 572 307Q572 237 550.5 180Q529 123 489.5 83Q450 43 395 21.5Q340 0 274 0H95V304H35ZM276 30Q336 30 384.5 50Q433 70 467.5 106Q502 142 521 193Q540 244 540 307Q540 370 521 421Q502 472 467.5 508Q433 544 384.5 564Q336 584 276 584H126V332H261V304H126V30Z" glyph-name="Dcroat" horiz-adv-x="612" unicode="&#272;" /><glyph d="M264 30Q324 30 372.5 50Q421 70 455.5 106Q490 142 509 193Q528 244 528 307Q528 370 509 421Q490 472 455.5 508Q421 544 372.5 564Q324 584 264 584H114V30ZM83 614H262Q328 614 383 592.5Q438 571 477.5 531Q517 491 538.5 434Q560 377 560 307Q560 237 538.5 180Q517 123 477.5 83Q438 43 383 21.5Q328 0 262 0H83ZM267 710Q267 733 290 733Q313 733 313 710Q313 687 290 687Q267 687 267 710Z" glyph-name="Ddotaccent" horiz-adv-x="600" unicode="&#7690;" /><glyph d="M456 614V584H114V332H424V302H114V30H456V0H83V614Z" glyph-name="E" horiz-adv-x="516" unicode="E" /><glyph d="M254 663 339 780H372L287 663ZM456 614V584H114V332H424V302H114V30H456V0H83V614Z" glyph-name="Eacute" horiz-adv-x="516" unicode="&#201;" /><glyph d="M275 663Q235 663 208.5 692Q182 721 182 777H209Q209 734 227.5 711Q246 688 275 688Q304 688 322.5 711Q341 734 341 777H368Q368 721 341.5 692Q315 663 275 663ZM456 614V584H114V332H424V302H114V30H456V0H83V614Z" glyph-name="Ebreve" horiz-adv-x="516" unicode="&#276;" /><glyph d="M171 773H202L275 681L348 773H379L288 656H262ZM456 614V584H114V332H424V302H114V30H456V0H83V614Z" glyph-name="Ecaron" horiz-adv-x="516" unicode="&#282;" /><glyph d="M456 614V584H114V332H424V302H114V30H456V0H83V614ZM379 666H348L275 758L202 666H171L262 783H288Z" glyph-name="Ecircumflex" horiz-adv-x="516" unicode="&#202;" /><glyph d="M195 710Q195 733 218 733Q241 733 241 710Q241 687 218 687Q195 687 195 710ZM309 710Q309 733 332 733Q355 733 355 710Q355 687 332 687Q309 687 309 710ZM456 614V584H114V332H424V302H114V30H456V0H83V614Z" glyph-name="Edieresis" horiz-adv-x="516" unicode="&#203;" /><glyph d="M252 710Q252 733 275 733Q298 733 298 710Q298 687 275 687Q252 687 252 710ZM456 614V584H114V332H424V302H114V30H456V0H83V614Z" glyph-name="Edotaccent" horiz-adv-x="516" unicode="&#278;" /><glyph d="M259 663 174 780H207L292 663ZM456 614V584H114V332H424V302H114V30H456V0H83V614Z" glyph-name="Egrave" horiz-adv-x="516" unicode="&#200;" /><glyph d="M179 697H372V670H179ZM456 614V584H114V332H424V302H114V30H456V0H83V614Z" glyph-name="Emacron" horiz-adv-x="516" unicode="&#274;" /><glyph d="M528 -74Q528 -128 501.5 -153Q475 -178 437 -178Q426 -178 419 -177Q412 -176 407 -174L412 -147Q415 -148 420.5 -149Q426 -150 434 -150Q448 -150 459.5 -147Q471 -144 479.5 -135Q488 -126 493 -110.5Q498 -95 498 -70V18L113 565V0H83V614H113L498 70V614H528Z" glyph-name="Eng" horiz-adv-x="611" unicode="&#330;" /><glyph d="M456 614V584H114V332H424V302H114V30H456V0Q425 -12 401 -37Q377 -62 377 -98Q377 -125 394 -140Q411 -155 440 -155Q458 -155 472 -150.5Q486 -146 493 -142L499 -164Q492 -169 475.5 -174Q459 -179 438 -179Q394 -179 372.5 -155.5Q351 -132 351 -97Q351 -62 368 -38.5Q385 -15 409 0H83V614Z" glyph-name="Eogonek" horiz-adv-x="516" unicode="&#280;" /><glyph d="M35 332H95V614H274Q340 614 395 592.5Q450 571 489.5 531Q529 491 550.5 434Q572 377 572 307Q572 237 550.5 180Q529 123 489.5 83Q450 43 395 21.5Q340 0 274 0H95V304H35ZM276 30Q336 30 384.5 50Q433 70 467.5 106Q502 142 521 193Q540 244 540 307Q540 370 521 421Q502 472 467.5 508Q433 544 384.5 564Q336 584 276 584H126V332H261V304H126V30Z" glyph-name="Eth" horiz-adv-x="612" unicode="&#208;" /><glyph d="M30 378H92Q106 496 164.5 559Q223 622 311 622Q385 622 434.5 579Q484 536 501 464L472 459Q454 522 415.5 557.5Q377 593 311 593Q233 593 184.5 537Q136 481 124 378H373L361 351H121Q120 340 120 329Q120 318 120 307Q120 295 120 284.5Q120 274 121 263H323L311 236H124Q136 133 184.5 77Q233 21 311 21Q377 21 415.5 56.5Q454 92 472 155L501 150Q484 78 434.5 35Q385 -8 311 -8Q223 -8 164.5 55Q106 118 92 236H30V263H89Q88 274 88 285Q88 296 88 307Q88 318 88 329Q88 340 89 351H30Z" glyph-name="Euro" horiz-adv-x="536" unicode="&#8364;" /><glyph d="M30 378H92Q106 496 162 559Q218 622 306 622Q380 622 427 579Q474 536 491 464L462 459Q444 522 408 557.5Q372 593 306 593Q228 593 181.5 537Q135 481 124 378H373L361 351H121Q120 340 120 329Q120 318 120 307Q120 295 120 284.5Q120 274 121 263H323L311 236H124Q135 133 181.5 77Q228 21 306 21Q372 21 408 56.5Q444 92 462 155L491 150Q474 78 427 35Q380 -8 306 -8Q218 -8 162 55Q106 118 92 236H30V263H89Q88 274 88 285Q88 296 88 307Q88 318 88 329Q88 340 89 351H30Z" glyph-name="Euro.lt" horiz-adv-x="520" /><glyph d="M83 0V614H425V584H114V330H410V301H114V0Z" glyph-name="F" horiz-adv-x="465" unicode="F" /><glyph d="M83 0V614H425V584H114V330H410V301H114V0ZM245 710Q245 733 268 733Q291 733 291 710Q291 687 268 687Q245 687 245 710Z" glyph-name="Fdotaccent" horiz-adv-x="465" unicode="&#7710;" /><glyph d="M350 249V277H550V246Q550 189 533.5 142Q517 95 486 61.5Q455 28 410.5 10Q366 -8 310 -8Q254 -8 204.5 13.5Q155 35 118.5 75.5Q82 116 61 174.5Q40 233 40 307Q40 381 61.5 439.5Q83 498 120.5 538.5Q158 579 207 600.5Q256 622 312 622Q355 622 392 610.5Q429 599 458 578Q487 557 506.5 527.5Q526 498 534 462L505 457Q491 517 440 554.5Q389 592 312 592Q262 592 218 572.5Q174 553 141.5 516Q109 479 90.5 426.5Q72 374 72 307Q72 240 90 187Q108 134 140 97.5Q172 61 215.5 41.5Q259 22 310 22Q410 22 464.5 80.5Q519 139 520 249Z" glyph-name="G" horiz-adv-x="590" unicode="G" /><glyph d="M315 663Q275 663 248.5 692Q222 721 222 777H249Q249 734 267.5 711Q286 688 315 688Q344 688 362.5 711Q381 734 381 777H408Q408 721 381.5 692Q355 663 315 663ZM350 249V277H550V246Q550 189 533.5 142Q517 95 486 61.5Q455 28 410.5 10Q366 -8 310 -8Q254 -8 204.5 13.5Q155 35 118.5 75.5Q82 116 61 174.5Q40 233 40 307Q40 381 61.5 439.5Q83 498 120.5 538.5Q158 579 207 600.5Q256 622 312 622Q355 622 392 610.5Q429 599 458 578Q487 557 506.5 527.5Q526 498 534 462L505 457Q491 517 440 554.5Q389 592 312 592Q262 592 218 572.5Q174 553 141.5 516Q109 479 90.5 426.5Q72 374 72 307Q72 240 90 187Q108 134 140 97.5Q172 61 215.5 41.5Q259 22 310 22Q410 22 464.5 80.5Q519 139 520 249Z" glyph-name="Gbreve" horiz-adv-x="590" unicode="&#286;" /><glyph d="M419 666H388L315 758L242 666H211L302 783H328ZM350 249V277H550V246Q550 189 533.5 142Q517 95 486 61.5Q455 28 410.5 10Q366 -8 310 -8Q254 -8 204.5 13.5Q155 35 118.5 75.5Q82 116 61 174.5Q40 233 40 307Q40 381 61.5 439.5Q83 498 120.5 538.5Q158 579 207 600.5Q256 622 312 622Q355 622 392 610.5Q429 599 458 578Q487 557 506.5 527.5Q526 498 534 462L505 457Q491 517 440 554.5Q389 592 312 592Q262 592 218 572.5Q174 553 141.5 516Q109 479 90.5 426.5Q72 374 72 307Q72 240 90 187Q108 134 140 97.5Q172 61 215.5 41.5Q259 22 310 22Q410 22 464.5 80.5Q519 139 520 249Z" glyph-name="Gcircumflex" horiz-adv-x="590" unicode="&#284;" /><glyph d="M266 -159Q289 -153 302 -141Q315 -129 315 -104Q313 -105 310.5 -105Q308 -105 306 -105Q283 -105 283 -82Q283 -59 306 -59H308Q334 -61 334 -93Q334 -128 317.5 -147Q301 -166 269 -174ZM350 249V277H550V246Q550 189 533.5 142Q517 95 486 61.5Q455 28 410.5 10Q366 -8 310 -8Q254 -8 204.5 13.5Q155 35 118.5 75.5Q82 116 61 174.5Q40 233 40 307Q40 381 61.5 439.5Q83 498 120.5 538.5Q158 579 207 600.5Q256 622 312 622Q355 622 392 610.5Q429 599 458 578Q487 557 506.5 527.5Q526 498 534 462L505 457Q491 517 440 554.5Q389 592 312 592Q262 592 218 572.5Q174 553 141.5 516Q109 479 90.5 426.5Q72 374 72 307Q72 240 90 187Q108 134 140 97.5Q172 61 215.5 41.5Q259 22 310 22Q410 22 464.5 80.5Q519 139 520 249Z" glyph-name="Gcommaaccent" horiz-adv-x="590" unicode="&#290;" /><glyph d="M292 710Q292 733 315 733Q338 733 338 710Q338 687 315 687Q292 687 292 710ZM350 249V277H550V246Q550 189 533.5 142Q517 95 486 61.5Q455 28 410.5 10Q366 -8 310 -8Q254 -8 204.5 13.5Q155 35 118.5 75.5Q82 116 61 174.5Q40 233 40 307Q40 381 61.5 439.5Q83 498 120.5 538.5Q158 579 207 600.5Q256 622 312 622Q355 622 392 610.5Q429 599 458 578Q487 557 506.5 527.5Q526 498 534 462L505 457Q491 517 440 554.5Q389 592 312 592Q262 592 218 572.5Q174 553 141.5 516Q109 479 90.5 426.5Q72 374 72 307Q72 240 90 187Q108 134 140 97.5Q172 61 215.5 41.5Q259 22 310 22Q410 22 464.5 80.5Q519 139 520 249Z" glyph-name="Gdotaccent" horiz-adv-x="590" unicode="&#288;" /><glyph d="M565 614V0H534V302H114V0H83V614H114V332H534V614Z" glyph-name="H" horiz-adv-x="648" unicode="H" /><glyph d="M35 472H95V614H126V472H546V614H577V472H637V444H577V0H546V272H126V0H95V444H35ZM546 300V444H126V300Z" glyph-name="Hbar" horiz-adv-x="672" unicode="&#294;" /><glyph d="M565 614V0H534V302H114V0H83V614H114V332H534V614ZM428 666H397L324 758L251 666H220L311 783H337Z" glyph-name="Hcircumflex" horiz-adv-x="648" unicode="&#292;" /><glyph d="M114 0H83V614H114Z" glyph-name="I" horiz-adv-x="197" unicode="I" /><glyph d="M114 0H83V614H114ZM237 -8Q220 -8 205 -4Q190 0 185 2L190 30Q193 28 205 24.5Q217 21 235 21Q270 21 287.5 40Q305 59 305 104V614H336V100Q336 43 309 17.5Q282 -8 237 -8Z" glyph-name="IJ" horiz-adv-x="416" unicode="&#306;" /><glyph d="M114 0H83V614H114ZM85 663 170 780H203L118 663Z" glyph-name="Iacute" horiz-adv-x="197" unicode="&#205;" /><glyph d="M114 0H83V614H114ZM98 663Q58 663 31.5 692Q5 721 5 777H32Q32 734 50.5 711Q69 688 98 688Q127 688 145.5 711Q164 734 164 777H191Q191 721 164.5 692Q138 663 98 663Z" glyph-name="Ibreve" horiz-adv-x="197" unicode="&#300;" /><glyph d="M114 0H83V614H114ZM202 666H171L98 758L25 666H-6L85 783H111Z" glyph-name="Icircumflex" horiz-adv-x="197" unicode="&#206;" /><glyph d="M114 0H83V614H114ZM18 710Q18 733 41 733Q64 733 64 710Q64 687 41 687Q18 687 18 710ZM132 710Q132 733 155 733Q178 733 178 710Q178 687 155 687Q132 687 132 710Z" glyph-name="Idieresis" horiz-adv-x="197" unicode="&#207;" /><glyph d="M114 0H83V614H114ZM75 710Q75 733 98 733Q121 733 121 710Q121 687 98 687Q75 687 75 710Z" glyph-name="Idotaccent" horiz-adv-x="197" unicode="&#304;" /><glyph d="M114 0H83V614H114ZM79 663 -6 780H27L112 663Z" glyph-name="Igrave" horiz-adv-x="197" unicode="&#204;" /><glyph d="M114 0H83V614H114ZM2 697H195V670H2Z" glyph-name="Imacron" horiz-adv-x="197" unicode="&#298;" /><glyph d="M114 0Q83 -12 62 -37Q41 -62 41 -98Q41 -125 55.5 -140Q70 -155 99 -155Q117 -155 131 -150.5Q145 -146 152 -142L158 -164Q151 -169 134.5 -174Q118 -179 97 -179Q53 -179 34 -155.5Q15 -132 15 -97Q15 -57 34.5 -31.5Q54 -6 83 8V614H114Z" glyph-name="Iogonek" horiz-adv-x="197" unicode="&#302;" /><glyph d="M114 0H83V614H114ZM217 759Q217 715 201 689.5Q185 664 154 664Q134 664 119.5 675Q105 686 93 699Q81 712 69.5 723Q58 734 44 734Q25 734 15.5 715.5Q6 697 6 667H-20Q-20 710 -4 736Q12 762 43 762Q63 762 77.5 751Q92 740 104 727Q116 714 127.5 703Q139 692 153 692Q172 692 181.5 710.5Q191 729 191 759Z" glyph-name="Itilde" horiz-adv-x="197" unicode="&#296;" /><glyph d="M53 139Q59 85 90 53.5Q121 22 174 22Q199 22 222.5 29.5Q246 37 263 53Q280 69 290.5 94.5Q301 120 301 157V614H332V158Q332 115 319.5 83.5Q307 52 285 32Q263 12 234.5 2Q206 -8 174 -8Q139 -8 112 3Q85 14 66 33Q47 52 36.5 78Q26 104 24 133Z" glyph-name="J" horiz-adv-x="406" unicode="J" /><glyph d="M422 666H391L318 758L245 666H214L305 783H331ZM53 139Q59 85 90 53.5Q121 22 174 22Q199 22 222.5 29.5Q246 37 263 53Q280 69 290.5 94.5Q301 120 301 157V614H332V158Q332 115 319.5 83.5Q307 52 285 32Q263 12 234.5 2Q206 -8 174 -8Q139 -8 112 3Q85 14 66 33Q47 52 36.5 78Q26 104 24 133Z" glyph-name="Jcircumflex" horiz-adv-x="406" unicode="&#308;" /><glyph d="M114 282 459 614H500L208 333L510 0H472L186 312L114 243V0H83V614H114Z" glyph-name="K" horiz-adv-x="530" unicode="K" /><glyph d="M224 -159Q247 -153 260 -141Q273 -129 273 -104Q271 -105 268.5 -105Q266 -105 264 -105Q241 -105 241 -82Q241 -59 264 -59H266Q292 -61 292 -93Q292 -128 275.5 -147Q259 -166 227 -174ZM114 282 459 614H500L208 333L510 0H472L186 312L114 243V0H83V614H114Z" glyph-name="Kcommaaccent" horiz-adv-x="530" unicode="&#310;" /><glyph d="M83 614H114V30H462V0H83Z" glyph-name="L" horiz-adv-x="502" unicode="L" /><glyph d="M89 663 174 780H207L122 663ZM83 614H114V30H462V0H83Z" glyph-name="Lacute" horiz-adv-x="502" unicode="&#313;" /><glyph d="M262 457 294 614H320L288 457ZM83 614H114V30H462V0H83Z" glyph-name="Lcaron" horiz-adv-x="502" unicode="&#317;" /><glyph d="M233 -159Q256 -153 269 -141Q282 -129 282 -104Q280 -105 277.5 -105Q275 -105 273 -105Q250 -105 250 -82Q250 -59 273 -59H275Q301 -61 301 -93Q301 -128 284.5 -147Q268 -166 236 -174ZM83 614H114V30H462V0H83Z" glyph-name="Lcommaaccent" horiz-adv-x="502" unicode="&#315;" /><glyph d="M83 614H114V30H462V0H83ZM334 306Q334 329 357 329Q380 329 380 306Q380 283 357 283Q334 283 334 306Z" glyph-name="Ldot" horiz-adv-x="502" unicode="&#319;" /><glyph d="M30 292 90 316V614H121V328L280 391V360L121 297V30H469V0H90V285L30 261Z" glyph-name="Lslash" horiz-adv-x="509" unicode="&#321;" /><glyph d="M354 0 113 545V0H83V614H115L363 50L611 614H641V0H611V545L370 0Z" glyph-name="M" horiz-adv-x="724" unicode="M" /><glyph d="M354 0 113 545V0H83V614H115L363 50L611 614H641V0H611V545L370 0ZM341 710Q341 733 364 733Q387 733 387 710Q387 687 364 687Q341 687 341 710Z" glyph-name="Mdotaccent" horiz-adv-x="724" unicode="&#7744;" /><glyph d="M528 0H511L113 565V0H83V614H113L498 70V614H528Z" glyph-name="N" horiz-adv-x="611" unicode="N" /><glyph d="M284 663 369 780H402L317 663ZM528 0H511L113 565V0H83V614H113L498 70V614H528Z" glyph-name="Nacute" horiz-adv-x="611" unicode="&#323;" /><glyph d="M201 773H232L305 681L378 773H409L318 656H292ZM528 0H511L113 565V0H83V614H113L498 70V614H528Z" glyph-name="Ncaron" horiz-adv-x="611" unicode="&#327;" /><glyph d="M263 -159Q286 -153 299 -141Q312 -129 312 -104Q310 -105 307.5 -105Q305 -105 303 -105Q280 -105 280 -82Q280 -59 303 -59H305Q331 -61 331 -93Q331 -128 314.5 -147Q298 -166 266 -174ZM528 0H511L113 565V0H83V614H113L498 70V614H528Z" glyph-name="Ncommaaccent" horiz-adv-x="611" unicode="&#325;" /><glyph d="M424 759Q424 715 408 689.5Q392 664 361 664Q341 664 326.5 675Q312 686 300 699Q288 712 276.5 723Q265 734 251 734Q232 734 222.5 715.5Q213 697 213 667H187Q187 710 203 736Q219 762 250 762Q270 762 284.5 751Q299 740 311 727Q323 714 334.5 703Q346 692 360 692Q379 692 388.5 710.5Q398 729 398 759ZM528 0H511L113 565V0H83V614H113L498 70V614H528Z" glyph-name="Ntilde" horiz-adv-x="611" unicode="&#209;" /><glyph d="M574 307Q574 236 554 177.5Q534 119 498 78Q462 37 413 14.5Q364 -8 307 -8Q250 -8 201 14.5Q152 37 116.5 78Q81 119 60.5 177.5Q40 236 40 307Q40 378 60.5 436Q81 494 116.5 535.5Q152 577 201 599.5Q250 622 307 622Q364 622 413 599.5Q462 577 498 535.5Q534 494 554 436Q574 378 574 307ZM542 307Q542 370 525 422.5Q508 475 477 512.5Q446 550 402.5 571Q359 592 307 592Q255 592 212 571Q169 550 138 512.5Q107 475 89.5 422.5Q72 370 72 307Q72 244 89.5 191.5Q107 139 138 101.5Q169 64 212 43Q255 22 307 22Q359 22 402.5 43Q446 64 477 101.5Q508 139 525 191.5Q542 244 542 307Z" glyph-name="O" horiz-adv-x="614" unicode="O" /><glyph d="M787 584H455V332H755V302H455V30H787V0H338Q272 0 217 21.5Q162 43 122.5 83Q83 123 61.5 180Q40 237 40 307Q40 377 61.5 434Q83 491 122.5 531Q162 571 217 592.5Q272 614 338 614H787ZM424 30V584H336Q276 584 227.5 564Q179 544 144.5 508Q110 472 91 421Q72 370 72 307Q72 244 91 193Q110 142 144.5 106Q179 70 227.5 50Q276 30 336 30Z" glyph-name="OE" horiz-adv-x="847" unicode="&#338;" /><glyph d="M296 663 381 780H414L329 663ZM574 307Q574 236 554 177.5Q534 119 498 78Q462 37 413 14.5Q364 -8 307 -8Q250 -8 201 14.5Q152 37 116.5 78Q81 119 60.5 177.5Q40 236 40 307Q40 378 60.5 436Q81 494 116.5 535.5Q152 577 201 599.5Q250 622 307 622Q364 622 413 599.5Q462 577 498 535.5Q534 494 554 436Q574 378 574 307ZM542 307Q542 370 525 422.5Q508 475 477 512.5Q446 550 402.5 571Q359 592 307 592Q255 592 212 571Q169 550 138 512.5Q107 475 89.5 422.5Q72 370 72 307Q72 244 89.5 191.5Q107 139 138 101.5Q169 64 212 43Q255 22 307 22Q359 22 402.5 43Q446 64 477 101.5Q508 139 525 191.5Q542 244 542 307Z" glyph-name="Oacute" horiz-adv-x="614" unicode="&#211;" /><glyph d="M307 663Q267 663 240.5 692Q214 721 214 777H241Q241 734 259.5 711Q278 688 307 688Q336 688 354.5 711Q373 734 373 777H400Q400 721 373.5 692Q347 663 307 663ZM574 307Q574 236 554 177.5Q534 119 498 78Q462 37 413 14.5Q364 -8 307 -8Q250 -8 201 14.5Q152 37 116.5 78Q81 119 60.5 177.5Q40 236 40 307Q40 378 60.5 436Q81 494 116.5 535.5Q152 577 201 599.5Q250 622 307 622Q364 622 413 599.5Q462 577 498 535.5Q534 494 554 436Q574 378 574 307ZM542 307Q542 370 525 422.5Q508 475 477 512.5Q446 550 402.5 571Q359 592 307 592Q255 592 212 571Q169 550 138 512.5Q107 475 89.5 422.5Q72 370 72 307Q72 244 89.5 191.5Q107 139 138 101.5Q169 64 212 43Q255 22 307 22Q359 22 402.5 43Q446 64 477 101.5Q508 139 525 191.5Q542 244 542 307Z" glyph-name="Obreve" horiz-adv-x="614" unicode="&#334;" /><glyph d="M574 307Q574 236 554 177.5Q534 119 498 78Q462 37 413 14.5Q364 -8 307 -8Q250 -8 201 14.5Q152 37 116.5 78Q81 119 60.5 177.5Q40 236 40 307Q40 378 60.5 436Q81 494 116.5 535.5Q152 577 201 599.5Q250 622 307 622Q364 622 413 599.5Q462 577 498 535.5Q534 494 554 436Q574 378 574 307ZM542 307Q542 370 525 422.5Q508 475 477 512.5Q446 550 402.5 571Q359 592 307 592Q255 592 212 571Q169 550 138 512.5Q107 475 89.5 422.5Q72 370 72 307Q72 244 89.5 191.5Q107 139 138 101.5Q169 64 212 43Q255 22 307 22Q359 22 402.5 43Q446 64 477 101.5Q508 139 525 191.5Q542 244 542 307ZM411 666H380L307 758L234 666H203L294 783H320Z" glyph-name="Ocircumflex" horiz-adv-x="614" unicode="&#212;" /><glyph d="M273 710Q273 687 250 687Q227 687 227 710Q227 733 250 733Q273 733 273 710ZM341 710Q341 733 364 733Q387 733 387 710Q387 687 364 687Q341 687 341 710ZM72 307Q72 244 89.5 191.5Q107 139 138 101.5Q169 64 212 43Q255 22 307 22Q359 22 402.5 43Q446 64 477 101.5Q508 139 525 191.5Q542 244 542 307Q542 370 525 422.5Q508 475 477 512.5Q446 550 402.5 571Q359 592 307 592Q255 592 212 571Q169 550 138 512.5Q107 475 89.5 422.5Q72 370 72 307ZM574 307Q574 236 554 177.5Q534 119 498 78Q462 37 413 14.5Q364 -8 307 -8Q250 -8 201 14.5Q152 37 116.5 78Q81 119 60.5 177.5Q40 236 40 307Q40 378 60.5 436Q81 494 116.5 535.5Q152 577 201 599.5Q250 622 307 622Q364 622 413 599.5Q462 577 498 535.5Q534 494 554 436Q574 378 574 307Z" glyph-name="Odieresis" horiz-adv-x="614" unicode="&#214;" /><glyph d="M542 307Q542 370 525 422.5Q508 475 477 512.5Q446 550 402.5 571Q359 592 307 592Q255 592 212 571Q169 550 138 512.5Q107 475 89.5 422.5Q72 370 72 307Q72 244 89.5 191.5Q107 139 138 101.5Q169 64 212 43Q255 22 307 22Q359 22 402.5 43Q446 64 477 101.5Q508 139 525 191.5Q542 244 542 307ZM40 307Q40 378 60.5 436Q81 494 116.5 535.5Q152 577 201 599.5Q250 622 307 622Q364 622 413 599.5Q462 577 498 535.5Q534 494 554 436Q574 378 574 307Q574 236 554 177.5Q534 119 498 78Q462 37 413 14.5Q364 -8 307 -8Q250 -8 201 14.5Q152 37 116.5 78Q81 119 60.5 177.5Q40 236 40 307ZM324 663H291L206 780H239Z" glyph-name="Ograve" horiz-adv-x="614" unicode="&#210;" /><glyph d="M574 307Q574 236 554 177.5Q534 119 498 78Q462 37 413 14.5Q364 -8 307 -8Q250 -8 201 14.5Q152 37 116.5 78Q81 119 60.5 177.5Q40 236 40 307Q40 378 60.5 436Q81 494 116.5 535.5Q152 577 201 599.5Q250 622 307 622Q364 622 413 599.5Q462 577 498 535.5Q534 494 554 436Q574 378 574 307ZM542 307Q542 370 525 422.5Q508 475 477 512.5Q446 550 402.5 571Q359 592 307 592Q255 592 212 571Q169 550 138 512.5Q107 475 89.5 422.5Q72 370 72 307Q72 244 89.5 191.5Q107 139 138 101.5Q169 64 212 43Q255 22 307 22Q359 22 402.5 43Q446 64 477 101.5Q508 139 525 191.5Q542 244 542 307ZM241 663 320 780H351L272 663ZM344 663 423 780H454L375 663Z" glyph-name="Ohungarumlaut" horiz-adv-x="614" unicode="&#336;" /><glyph d="M307 22Q359 22 402.5 43Q446 64 477 101.5Q508 139 525 191.5Q542 244 542 307Q542 370 525 422.5Q508 475 477 512.5Q446 550 402.5 571Q359 592 307 592Q255 592 212 571Q169 550 138 512.5Q107 475 89.5 422.5Q72 370 72 307Q72 244 89.5 191.5Q107 139 138 101.5Q169 64 212 43Q255 22 307 22ZM574 307Q574 236 554 177.5Q534 119 498 78Q462 37 413 14.5Q364 -8 307 -8Q250 -8 201 14.5Q152 37 116.5 78Q81 119 60.5 177.5Q40 236 40 307Q40 378 60.5 436Q81 494 116.5 535.5Q152 577 201 599.5Q250 622 307 622Q364 622 413 599.5Q462 577 498 535.5Q534 494 554 436Q574 378 574 307ZM404 670H211V697H404Z" glyph-name="Omacron" horiz-adv-x="614" unicode="&#332;" /><glyph d="M110 85Q77 127 58.5 182.5Q40 238 40 307Q40 378 60.5 436Q81 494 116.5 535.5Q152 577 201 599.5Q250 622 307 622Q361 622 407.5 602Q454 582 489 545L545 614L567 596L507 524Q539 483 556.5 428Q574 373 574 307Q574 236 554 177.5Q534 119 498 78Q462 37 413 14.5Q364 -8 307 -8Q254 -8 209 10.5Q164 29 129 64L62 -18L40 0ZM72 307Q72 247 87 197Q102 147 130 110L469 522Q439 555 398 573.5Q357 592 307 592Q255 592 212 571Q169 550 138 512.5Q107 475 89.5 422.5Q72 370 72 307ZM542 307Q542 365 527.5 413.5Q513 462 487 499L149 88Q179 56 219 39Q259 22 307 22Q359 22 402.5 43Q446 64 477 101.5Q508 139 525 191.5Q542 244 542 307Z" glyph-name="Oslash" horiz-adv-x="614" unicode="&#216;" /><glyph d="M110 85Q77 127 58.5 182.5Q40 238 40 307Q40 378 60.5 436Q81 494 116.5 535.5Q152 577 201 599.5Q250 622 307 622Q361 622 407.5 602Q454 582 489 545L545 614L567 596L507 524Q539 483 556.5 428Q574 373 574 307Q574 236 554 177.5Q534 119 498 78Q462 37 413 14.5Q364 -8 307 -8Q254 -8 209 10.5Q164 29 129 64L62 -18L40 0ZM72 307Q72 247 87 197Q102 147 130 110L469 522Q439 555 398 573.5Q357 592 307 592Q255 592 212 571Q169 550 138 512.5Q107 475 89.5 422.5Q72 370 72 307ZM542 307Q542 365 527.5 413.5Q513 462 487 499L149 88Q179 56 219 39Q259 22 307 22Q359 22 402.5 43Q446 64 477 101.5Q508 139 525 191.5Q542 244 542 307ZM292 663 377 780H410L325 663Z" glyph-name="Oslashacute" horiz-adv-x="614" unicode="&#510;" /><glyph d="M426 759Q426 715 410 689.5Q394 664 363 664Q343 664 328.5 675Q314 686 302 699Q290 712 278.5 723Q267 734 253 734Q234 734 224.5 715.5Q215 697 215 667H189Q189 710 205 736Q221 762 252 762Q272 762 286.5 751Q301 740 313 727Q325 714 336.5 703Q348 692 362 692Q381 692 390.5 710.5Q400 729 400 759ZM574 307Q574 236 554 177.5Q534 119 498 78Q462 37 413 14.5Q364 -8 307 -8Q250 -8 201 14.5Q152 37 116.5 78Q81 119 60.5 177.5Q40 236 40 307Q40 378 60.5 436Q81 494 116.5 535.5Q152 577 201 599.5Q250 622 307 622Q364 622 413 599.5Q462 577 498 535.5Q534 494 554 436Q574 378 574 307ZM542 307Q542 370 525 422.5Q508 475 477 512.5Q446 550 402.5 571Q359 592 307 592Q255 592 212 571Q169 550 138 512.5Q107 475 89.5 422.5Q72 370 72 307Q72 244 89.5 191.5Q107 139 138 101.5Q169 64 212 43Q255 22 307 22Q359 22 402.5 43Q446 64 477 101.5Q508 139 525 191.5Q542 244 542 307Z" glyph-name="Otilde" horiz-adv-x="614" unicode="&#213;" /><glyph d="M114 279V0H83V614H299Q388 614 437.5 571.5Q487 529 487 447Q487 363 437.5 321Q388 279 299 279ZM456 447Q456 513 416 548.5Q376 584 298 584H114V309H298Q376 309 416 344.5Q456 380 456 447Z" glyph-name="P" horiz-adv-x="523" unicode="P" /><glyph d="M114 279V0H83V614H299Q388 614 437.5 571.5Q487 529 487 447Q487 363 437.5 321Q388 279 299 279ZM456 447Q456 513 416 548.5Q376 584 298 584H114V309H298Q376 309 416 344.5Q456 380 456 447ZM238 710Q238 733 261 733Q284 733 284 710Q284 687 261 687Q238 687 238 710Z" glyph-name="Pdotaccent" horiz-adv-x="523" unicode="&#7766;" /><glyph d="M455 39Q391 -8 307 -8Q250 -8 201 14.5Q152 37 116.5 78Q81 119 60.5 177.5Q40 236 40 307Q40 378 60.5 436Q81 494 116.5 535.5Q152 577 201 599.5Q250 622 307 622Q364 622 413 599.5Q462 577 498 535.5Q534 494 554 436Q574 378 574 307Q574 225 547.5 161.5Q521 98 476 56L527 -10L506 -28ZM542 307Q542 370 525 422.5Q508 475 477 512.5Q446 550 402.5 571Q359 592 307 592Q255 592 212 571Q169 550 138 512.5Q107 475 89.5 422.5Q72 370 72 307Q72 244 89.5 191.5Q107 139 138 101.5Q169 64 212 43Q255 22 307 22Q381 22 436 63L385 131L406 148L457 80Q497 118 519.5 176Q542 234 542 307Z" glyph-name="Q" horiz-adv-x="614" unicode="Q" /><glyph d="M114 280V0H83V614H293Q381 614 430.5 571.5Q480 529 480 447Q480 372 439 330.5Q398 289 323 281L511 0H475L287 280ZM114 309H291Q369 309 409 345Q449 381 449 447Q449 514 409 549Q369 584 291 584H114Z" glyph-name="R" horiz-adv-x="547" unicode="R" /><glyph d="M114 280V0H83V614H293Q381 614 430.5 571.5Q480 529 480 447Q480 372 439 330.5Q398 289 323 281L511 0H475L287 280ZM114 309H291Q369 309 409 345Q449 381 449 447Q449 514 409 549Q369 584 291 584H114ZM238 663 323 780H356L271 663Z" glyph-name="Racute" horiz-adv-x="547" unicode="&#340;" /><glyph d="M114 280V0H83V614H293Q381 614 430.5 571.5Q480 529 480 447Q480 372 439 330.5Q398 289 323 281L511 0H475L287 280ZM114 309H291Q369 309 409 345Q449 381 449 447Q449 514 409 549Q369 584 291 584H114ZM155 773H186L259 681L332 773H363L272 656H246Z" glyph-name="Rcaron" horiz-adv-x="547" unicode="&#344;" /><glyph d="M114 280V0H83V614H293Q381 614 430.5 571.5Q480 529 480 447Q480 372 439 330.5Q398 289 323 281L511 0H475L287 280ZM114 309H291Q369 309 409 345Q449 381 449 447Q449 514 409 549Q369 584 291 584H114ZM230 -159Q253 -153 266 -141Q279 -129 279 -104Q277 -105 274.5 -105Q272 -105 270 -105Q247 -105 247 -82Q247 -59 270 -59H272Q298 -61 298 -93Q298 -128 281.5 -147Q265 -166 233 -174Z" glyph-name="Rcommaaccent" horiz-adv-x="547" unicode="&#342;" /><glyph d="M55 141Q64 84 108.5 52.5Q153 21 238 21Q272 21 304 29Q336 37 360.5 53.5Q385 70 400 94.5Q415 119 415 152Q415 200 390 232Q365 264 302 282L180 318Q115 337 79.5 371Q44 405 44 470Q44 507 60 535.5Q76 564 103.5 583.5Q131 603 167.5 612.5Q204 622 244 622Q333 622 382 582Q431 542 445 479L416 474Q404 529 364 561Q324 593 244 593Q210 593 179 585Q148 577 125 561.5Q102 546 88 523.5Q74 501 74 472Q74 442 83 421.5Q92 401 108.5 386.5Q125 372 149 362Q173 352 204 343L306 312Q383 289 414.5 250Q446 211 446 152Q446 113 429 83Q412 53 383.5 32.5Q355 12 317.5 2Q280 -8 238 -8Q151 -8 92.5 28Q34 64 24 136Z" glyph-name="S" horiz-adv-x="489" unicode="S" /><glyph d="M55 141Q64 84 108.5 52.5Q153 21 238 21Q272 21 304 29Q336 37 360.5 53.5Q385 70 400 94.5Q415 119 415 152Q415 200 390 232Q365 264 302 282L180 318Q115 337 79.5 371Q44 405 44 470Q44 507 60 535.5Q76 564 103.5 583.5Q131 603 167.5 612.5Q204 622 244 622Q333 622 382 582Q431 542 445 479L416 474Q404 529 364 561Q324 593 244 593Q210 593 179 585Q148 577 125 561.5Q102 546 88 523.5Q74 501 74 472Q74 442 83 421.5Q92 401 108.5 386.5Q125 372 149 362Q173 352 204 343L306 312Q383 289 414.5 250Q446 211 446 152Q446 113 429 83Q412 53 383.5 32.5Q355 12 317.5 2Q280 -8 238 -8Q151 -8 92.5 28Q34 64 24 136ZM235 663 320 780H353L268 663Z" glyph-name="Sacute" horiz-adv-x="489" unicode="&#346;" /><glyph d="M142 773H173L246 681L319 773H350L259 656H233ZM55 141Q64 84 108.5 52.5Q153 21 238 21Q272 21 304 29Q336 37 360.5 53.5Q385 70 400 94.5Q415 119 415 152Q415 200 390 232Q365 264 302 282L180 318Q115 337 79.5 371Q44 405 44 470Q44 507 60 535.5Q76 564 103.5 583.5Q131 603 167.5 612.5Q204 622 244 622Q333 622 382 582Q431 542 445 479L416 474Q404 529 364 561Q324 593 244 593Q210 593 179 585Q148 577 125 561.5Q102 546 88 523.5Q74 501 74 472Q74 442 83 421.5Q92 401 108.5 386.5Q125 372 149 362Q173 352 204 343L306 312Q383 289 414.5 250Q446 211 446 152Q446 113 429 83Q412 53 383.5 32.5Q355 12 317.5 2Q280 -8 238 -8Q151 -8 92.5 28Q34 64 24 136Z" glyph-name="Scaron" horiz-adv-x="489" unicode="&#352;" /><glyph d="M221 -7Q141 -4 87 31.5Q33 67 24 136L55 141Q64 84 108.5 52.5Q153 21 238 21Q272 21 304 29Q336 37 360.5 53.5Q385 70 400 94.5Q415 119 415 152Q415 200 390 232Q365 264 302 282L180 318Q115 337 79.5 371Q44 405 44 470Q44 507 60 535.5Q76 564 103.5 583.5Q131 603 167.5 612.5Q204 622 244 622Q333 622 382 582Q431 542 445 479L416 474Q404 529 364 561Q324 593 244 593Q210 593 179 585Q148 577 125 561.5Q102 546 88 523.5Q74 501 74 472Q74 442 83 421.5Q92 401 108.5 386.5Q125 372 149 362Q173 352 204 343L306 312Q383 289 414.5 250Q446 211 446 152Q446 113 429.5 83.5Q413 54 385.5 34Q358 14 321 3.5Q284 -7 244 -8L236 -46Q271 -52 291.5 -71Q312 -90 312 -117Q312 -143 295 -161Q278 -179 234 -179Q208 -179 190.5 -172.5Q173 -166 164 -160L170 -138Q180 -144 194 -149.5Q208 -155 232 -155Q261 -155 273.5 -145.5Q286 -136 286 -118Q286 -94 263 -80Q240 -66 210 -64Z" glyph-name="Scedilla" horiz-adv-x="489" unicode="&#350;" /><glyph d="M40 312H542Q541 378 522 430Q503 482 470.5 518Q438 554 394.5 573Q351 592 302 592Q264 592 230 582Q196 572 169 554.5Q142 537 124 512Q106 487 99 457L70 462Q78 498 99 527.5Q120 557 151 578Q182 599 220.5 610.5Q259 622 302 622Q357 622 406.5 600.5Q456 579 493.5 538.5Q531 498 552.5 439.5Q574 381 574 307Q574 233 553 174.5Q532 116 495.5 75.5Q459 35 409.5 13.5Q360 -8 304 -8Q245 -8 196.5 16.5Q148 41 113 82.5Q78 124 59 179Q40 234 40 296ZM304 22Q352 22 394 39.5Q436 57 467.5 90.5Q499 124 518.5 172Q538 220 541 282H73Q73 231 90.5 184Q108 137 138.5 101Q169 65 211.5 43.5Q254 22 304 22Z" glyph-name="Schwa" horiz-adv-x="614" unicode="&#399;" /><glyph d="M55 141Q64 84 108.5 52.5Q153 21 238 21Q272 21 304 29Q336 37 360.5 53.5Q385 70 400 94.5Q415 119 415 152Q415 200 390 232Q365 264 302 282L180 318Q115 337 79.5 371Q44 405 44 470Q44 507 60 535.5Q76 564 103.5 583.5Q131 603 167.5 612.5Q204 622 244 622Q333 622 382 582Q431 542 445 479L416 474Q404 529 364 561Q324 593 244 593Q210 593 179 585Q148 577 125 561.5Q102 546 88 523.5Q74 501 74 472Q74 442 83 421.5Q92 401 108.5 386.5Q125 372 149 362Q173 352 204 343L306 312Q383 289 414.5 250Q446 211 446 152Q446 113 429 83Q412 53 383.5 32.5Q355 12 317.5 2Q280 -8 238 -8Q151 -8 92.5 28Q34 64 24 136ZM350 666H319L246 758L173 666H142L233 783H259Z" glyph-name="Scircumflex" horiz-adv-x="489" unicode="&#348;" /><glyph d="M192 -159Q215 -153 228 -141Q241 -129 241 -104Q239 -105 236.5 -105Q234 -105 232 -105Q209 -105 209 -82Q209 -59 232 -59H234Q260 -61 260 -93Q260 -128 243.5 -147Q227 -166 195 -174ZM55 141Q64 84 108.5 52.5Q153 21 238 21Q272 21 304 29Q336 37 360.5 53.5Q385 70 400 94.5Q415 119 415 152Q415 200 390 232Q365 264 302 282L180 318Q115 337 79.5 371Q44 405 44 470Q44 507 60 535.5Q76 564 103.5 583.5Q131 603 167.5 612.5Q204 622 244 622Q333 622 382 582Q431 542 445 479L416 474Q404 529 364 561Q324 593 244 593Q210 593 179 585Q148 577 125 561.5Q102 546 88 523.5Q74 501 74 472Q74 442 83 421.5Q92 401 108.5 386.5Q125 372 149 362Q173 352 204 343L306 312Q383 289 414.5 250Q446 211 446 152Q446 113 429 83Q412 53 383.5 32.5Q355 12 317.5 2Q280 -8 238 -8Q151 -8 92.5 28Q34 64 24 136Z" glyph-name="Scommaaccent" horiz-adv-x="489" unicode="&#536;" /><glyph d="M31 614H527V584H294V0H263V584H31Z" glyph-name="T" horiz-adv-x="558" unicode="T" /><glyph d="M31 614H527V584H294V332H414V304H294V0H263V304H143V332H263V584H31Z" glyph-name="Tbar" horiz-adv-x="558" unicode="&#358;" /><glyph d="M175 773H206L279 681L352 773H383L292 656H266ZM31 614H527V584H294V0H263V584H31Z" glyph-name="Tcaron" horiz-adv-x="558" unicode="&#356;" /><glyph d="M239 -159Q262 -153 275 -141Q288 -129 288 -104Q286 -105 283.5 -105Q281 -105 279 -105Q256 -105 256 -82Q256 -59 279 -59H281Q307 -61 307 -93Q307 -128 290.5 -147Q274 -166 242 -174ZM31 614H527V584H294V0H263V584H31Z" glyph-name="Tcommaaccent" horiz-adv-x="558" unicode="&#354;" /><glyph d="M31 614H527V584H294V0H263V584H31ZM256 710Q256 733 279 733Q302 733 302 710Q302 687 279 687Q256 687 256 710Z" glyph-name="Tdotaccent" horiz-adv-x="558" unicode="&#7786;" /><glyph d="M114 147V0H83V614H114V482H299Q388 482 437.5 439.5Q487 397 487 315Q487 231 437.5 189Q388 147 299 147ZM456 315Q456 381 416 416.5Q376 452 298 452H114V177H298Q376 177 416 212.5Q456 248 456 315Z" glyph-name="Thorn" horiz-adv-x="523" unicode="&#222;" /><glyph d="M301 -8Q254 -8 212 7Q170 22 138.5 53Q107 84 89 131Q71 178 71 241V614H102V246Q102 189 117.5 146.5Q133 104 160 76Q187 48 223 34.5Q259 21 301 21Q343 21 379.5 34.5Q416 48 443 76Q470 104 486 146.5Q502 189 502 246V614H533V241Q533 178 514.5 131Q496 84 464.5 53Q433 22 390.5 7Q348 -8 301 -8Z" glyph-name="U" horiz-adv-x="604" unicode="U" /><glyph d="M281 663 366 780H399L314 663ZM301 -8Q254 -8 212 7Q170 22 138.5 53Q107 84 89 131Q71 178 71 241V614H102V246Q102 189 117.5 146.5Q133 104 160 76Q187 48 223 34.5Q259 21 301 21Q343 21 379.5 34.5Q416 48 443 76Q470 104 486 146.5Q502 189 502 246V614H533V241Q533 178 514.5 131Q496 84 464.5 53Q433 22 390.5 7Q348 -8 301 -8Z" glyph-name="Uacute" horiz-adv-x="604" unicode="&#218;" /><glyph d="M302 663Q262 663 235.5 692Q209 721 209 777H236Q236 734 254.5 711Q273 688 302 688Q331 688 349.5 711Q368 734 368 777H395Q395 721 368.5 692Q342 663 302 663ZM301 -8Q254 -8 212 7Q170 22 138.5 53Q107 84 89 131Q71 178 71 241V614H102V246Q102 189 117.5 146.5Q133 104 160 76Q187 48 223 34.5Q259 21 301 21Q343 21 379.5 34.5Q416 48 443 76Q470 104 486 146.5Q502 189 502 246V614H533V241Q533 178 514.5 131Q496 84 464.5 53Q433 22 390.5 7Q348 -8 301 -8Z" glyph-name="Ubreve" horiz-adv-x="604" unicode="&#364;" /><glyph d="M301 -8Q254 -8 212 7Q170 22 138.5 53Q107 84 89 131Q71 178 71 241V614H102V246Q102 189 117.5 146.5Q133 104 160 76Q187 48 223 34.5Q259 21 301 21Q343 21 379.5 34.5Q416 48 443 76Q470 104 486 146.5Q502 189 502 246V614H533V241Q533 178 514.5 131Q496 84 464.5 53Q433 22 390.5 7Q348 -8 301 -8ZM406 666H375L302 758L229 666H198L289 783H315Z" glyph-name="Ucircumflex" horiz-adv-x="604" unicode="&#219;" /><glyph d="M222 710Q222 733 245 733Q268 733 268 710Q268 687 245 687Q222 687 222 710ZM336 710Q336 733 359 733Q382 733 382 710Q382 687 359 687Q336 687 336 710ZM301 -8Q254 -8 212 7Q170 22 138.5 53Q107 84 89 131Q71 178 71 241V614H102V246Q102 189 117.5 146.5Q133 104 160 76Q187 48 223 34.5Q259 21 301 21Q343 21 379.5 34.5Q416 48 443 76Q470 104 486 146.5Q502 189 502 246V614H533V241Q533 178 514.5 131Q496 84 464.5 53Q433 22 390.5 7Q348 -8 301 -8Z" glyph-name="Udieresis" horiz-adv-x="604" unicode="&#220;" /><glyph d="M286 663 201 780H234L319 663ZM301 -8Q254 -8 212 7Q170 22 138.5 53Q107 84 89 131Q71 178 71 241V614H102V246Q102 189 117.5 146.5Q133 104 160 76Q187 48 223 34.5Q259 21 301 21Q343 21 379.5 34.5Q416 48 443 76Q470 104 486 146.5Q502 189 502 246V614H533V241Q533 178 514.5 131Q496 84 464.5 53Q433 22 390.5 7Q348 -8 301 -8Z" glyph-name="Ugrave" horiz-adv-x="604" unicode="&#217;" /><glyph d="M301 -8Q254 -8 212 7Q170 22 138.5 53Q107 84 89 131Q71 178 71 241V614H102V246Q102 189 117.5 146.5Q133 104 160 76Q187 48 223 34.5Q259 21 301 21Q343 21 379.5 34.5Q416 48 443 76Q470 104 486 146.5Q502 189 502 246V614H533V241Q533 178 514.5 131Q496 84 464.5 53Q433 22 390.5 7Q348 -8 301 -8ZM236 663 315 780H346L267 663ZM339 663 418 780H449L370 663Z" glyph-name="Uhungarumlaut" horiz-adv-x="604" unicode="&#368;" /><glyph d="M206 697H399V670H206ZM301 -8Q254 -8 212 7Q170 22 138.5 53Q107 84 89 131Q71 178 71 241V614H102V246Q102 189 117.5 146.5Q133 104 160 76Q187 48 223 34.5Q259 21 301 21Q343 21 379.5 34.5Q416 48 443 76Q470 104 486 146.5Q502 189 502 246V614H533V241Q533 178 514.5 131Q496 84 464.5 53Q433 22 390.5 7Q348 -8 301 -8Z" glyph-name="Umacron" horiz-adv-x="604" unicode="&#362;" /><glyph d="M301 -8Q254 -8 212 7Q170 22 138.5 53Q107 84 89 131Q71 178 71 241V614H102V246Q102 189 117.5 146.5Q133 104 160 76Q187 48 223 34.5Q259 21 301 21Q343 21 379.5 34.5Q416 48 443 76Q470 104 486 146.5Q502 189 502 246V614H533V241Q533 189 520.5 148Q508 107 485.5 77Q463 47 433 28Q403 9 367 0Q336 -12 312 -37Q288 -62 288 -98Q288 -125 305 -140Q322 -155 351 -155Q369 -155 383 -150.5Q397 -146 404 -142L410 -164Q403 -169 386.5 -174Q370 -179 349 -179Q305 -179 283.5 -155.5Q262 -132 262 -97Q262 -67 275.5 -45Q289 -23 309 -8H301Z" glyph-name="Uogonek" horiz-adv-x="604" unicode="&#370;" /><glyph d="M301 -8Q254 -8 212 7Q170 22 138.5 53Q107 84 89 131Q71 178 71 241V614H102V246Q102 189 117.5 146.5Q133 104 160 76Q187 48 223 34.5Q259 21 301 21Q343 21 379.5 34.5Q416 48 443 76Q470 104 486 146.5Q502 189 502 246V614H533V241Q533 178 514.5 131Q496 84 464.5 53Q433 22 390.5 7Q348 -8 301 -8ZM379 724Q379 692 356.5 669.5Q334 647 302 647Q270 647 247.5 669.5Q225 692 225 724Q225 756 247.5 778.5Q270 801 302 801Q334 801 356.5 778.5Q379 756 379 724ZM354 724Q354 746 339 761Q324 776 302 776Q280 776 265 761Q250 746 250 724Q250 702 265 687Q280 672 302 672Q324 672 339 687Q354 702 354 724Z" glyph-name="Uring" horiz-adv-x="604" unicode="&#366;" /><glyph d="M421 759Q421 715 405 689.5Q389 664 358 664Q338 664 323.5 675Q309 686 297 699Q285 712 273.5 723Q262 734 248 734Q229 734 219.5 715.5Q210 697 210 667H184Q184 710 200 736Q216 762 247 762Q267 762 281.5 751Q296 740 308 727Q320 714 331.5 703Q343 692 357 692Q376 692 385.5 710.5Q395 729 395 759ZM301 -8Q254 -8 212 7Q170 22 138.5 53Q107 84 89 131Q71 178 71 241V614H102V246Q102 189 117.5 146.5Q133 104 160 76Q187 48 223 34.5Q259 21 301 21Q343 21 379.5 34.5Q416 48 443 76Q470 104 486 146.5Q502 189 502 246V614H533V241Q533 178 514.5 131Q496 84 464.5 53Q433 22 390.5 7Q348 -8 301 -8Z" glyph-name="Utilde" horiz-adv-x="604" unicode="&#360;" /><glyph d="M270 0 24 614H56L283 46L511 614H543L296 0Z" glyph-name="V" horiz-adv-x="567" unicode="V" /><glyph d="M389 614 544 57 698 614H729L558 0H531L376 555L222 0H195L24 614H55L209 57L363 614Z" glyph-name="W" horiz-adv-x="753" unicode="W" /><glyph d="M365 663 450 780H483L398 663ZM389 614 544 57 698 614H729L558 0H531L376 555L222 0H195L24 614H55L209 57L363 614Z" glyph-name="Wacute" horiz-adv-x="753" unicode="&#7810;" /><glyph d="M389 614 544 57 698 614H729L558 0H531L376 555L222 0H195L24 614H55L209 57L363 614ZM480 666H449L376 758L303 666H272L363 783H389Z" glyph-name="Wcircumflex" horiz-adv-x="753" unicode="&#372;" /><glyph d="M296 710Q296 733 319 733Q342 733 342 710Q342 687 319 687Q296 687 296 710ZM410 710Q410 733 433 733Q456 733 456 710Q456 687 433 687Q410 687 410 710ZM389 614 544 57 698 614H729L558 0H531L376 555L222 0H195L24 614H55L209 57L363 614Z" glyph-name="Wdieresis" horiz-adv-x="753" unicode="&#7812;" /><glyph d="M352 663 267 780H300L385 663ZM389 614 544 57 698 614H729L558 0H531L376 555L222 0H195L24 614H55L209 57L363 614Z" glyph-name="Wgrave" horiz-adv-x="753" unicode="&#7808;" /><glyph d="M281 311 499 0H464L263 286L63 0H29L246 310L34 614H69L264 335L459 614H493Z" glyph-name="X" horiz-adv-x="528" unicode="X" /><glyph d="M465 614H499L275 268V0H244V268L20 614H55L260 297Z" glyph-name="Y" horiz-adv-x="519" unicode="Y" /><glyph d="M465 614H499L275 268V0H244V268L20 614H55L260 297ZM241 663 326 780H359L274 663Z" glyph-name="Yacute" horiz-adv-x="519" unicode="&#221;" /><glyph d="M465 614H499L275 268V0H244V268L20 614H55L260 297ZM363 666H332L259 758L186 666H155L246 783H272Z" glyph-name="Ycircumflex" horiz-adv-x="519" unicode="&#374;" /><glyph d="M465 614H499L275 268V0H244V268L20 614H55L260 297ZM179 710Q179 733 202 733Q225 733 225 710Q225 687 202 687Q179 687 179 710ZM293 710Q293 733 316 733Q339 733 339 710Q339 687 316 687Q293 687 293 710Z" glyph-name="Ydieresis" horiz-adv-x="519" unicode="&#376;" /><glyph d="M465 614H499L275 268V0H244V268L20 614H55L260 297ZM240 663 155 780H188L273 663Z" glyph-name="Ygrave" horiz-adv-x="519" unicode="&#7922;" /><glyph d="M465 614H499L275 268V0H244V268L20 614H55L260 297ZM163 697H356V670H163Z" glyph-name="Ymacron" horiz-adv-x="519" unicode="&#562;" /><glyph d="M470 0H34V26L428 584H39V614H466V588L72 30H470Z" glyph-name="Z" horiz-adv-x="507" unicode="Z" /><glyph d="M470 0H34V26L428 584H39V614H466V588L72 30H470ZM221 663 306 780H339L254 663Z" glyph-name="Zacute" horiz-adv-x="507" unicode="&#377;" /><glyph d="M138 773H169L242 681L315 773H346L255 656H229ZM470 0H34V26L428 584H39V614H466V588L72 30H470Z" glyph-name="Zcaron" horiz-adv-x="507" unicode="&#142;" /><glyph d="M219 710Q219 733 242 733Q265 733 265 710Q265 687 242 687Q219 687 219 710ZM470 0H34V26L428 584H39V614H466V588L72 30H470Z" glyph-name="Zdotaccent" horiz-adv-x="507" unicode="&#379;" /><glyph d="M331 159Q320 191 283.5 212Q247 233 198 233Q173 233 150 226.5Q127 220 109 207Q91 194 80.5 174Q70 154 70 127Q70 100 80.5 80Q91 60 109 47Q127 34 150 27.5Q173 21 198 21Q247 21 283.5 42Q320 63 331 95ZM331 0V51Q316 30 280 11.5Q244 -7 194 -7Q162 -7 134 2Q106 11 85 28Q64 45 52 70Q40 95 40 127Q40 159 52 184Q64 209 85 226Q106 243 134 252Q162 261 194 261Q244 261 280 242.5Q316 224 331 203V301Q331 357 299 390.5Q267 424 209 424Q157 424 126 401.5Q95 379 88 337L59 342Q67 393 105.5 422.5Q144 452 209 452Q279 452 320 412Q361 372 361 304V0Z" glyph-name="a" horiz-adv-x="431" unicode="a" /><glyph d="M331 159Q320 191 283.5 212Q247 233 198 233Q173 233 150 226.5Q127 220 109 207Q91 194 80.5 174Q70 154 70 127Q70 100 80.5 80Q91 60 109 47Q127 34 150 27.5Q173 21 198 21Q247 21 283.5 42Q320 63 331 95ZM331 0V51Q316 30 280 11.5Q244 -7 194 -7Q162 -7 134 2Q106 11 85 28Q64 45 52 70Q40 95 40 127Q40 159 52 184Q64 209 85 226Q106 243 134 252Q162 261 194 261Q244 261 280 242.5Q316 224 331 203V301Q331 357 299 390.5Q267 424 209 424Q157 424 126 401.5Q95 379 88 337L59 342Q67 393 105.5 422.5Q144 452 209 452Q279 452 320 412Q361 372 361 304V0ZM197 523 282 650H315L230 523Z" glyph-name="aacute" horiz-adv-x="431" unicode="&#225;" /><glyph d="M331 159Q320 191 283.5 212Q247 233 198 233Q173 233 150 226.5Q127 220 109 207Q91 194 80.5 174Q70 154 70 127Q70 100 80.5 80Q91 60 109 47Q127 34 150 27.5Q173 21 198 21Q247 21 283.5 42Q320 63 331 95ZM331 0V51Q316 30 280 11.5Q244 -7 194 -7Q162 -7 134 2Q106 11 85 28Q64 45 52 70Q40 95 40 127Q40 159 52 184Q64 209 85 226Q106 243 134 252Q162 261 194 261Q244 261 280 242.5Q316 224 331 203V301Q331 357 299 390.5Q267 424 209 424Q157 424 126 401.5Q95 379 88 337L59 342Q67 393 105.5 422.5Q144 452 209 452Q279 452 320 412Q361 372 361 304V0ZM217 510Q177 510 150.5 539Q124 568 124 624H151Q151 581 169.5 558Q188 535 217 535Q246 535 264.5 558Q283 581 283 624H310Q310 568 283.5 539Q257 510 217 510Z" glyph-name="abreve" horiz-adv-x="431" unicode="&#259;" /><glyph d="M322 516H291L218 619L145 516H114L205 643H231ZM331 159Q320 191 283.5 212Q247 233 198 233Q173 233 150 226.5Q127 220 109 207Q91 194 80.5 174Q70 154 70 127Q70 100 80.5 80Q91 60 109 47Q127 34 150 27.5Q173 21 198 21Q247 21 283.5 42Q320 63 331 95ZM331 0V51Q316 30 280 11.5Q244 -7 194 -7Q162 -7 134 2Q106 11 85 28Q64 45 52 70Q40 95 40 127Q40 159 52 184Q64 209 85 226Q106 243 134 252Q162 261 194 261Q244 261 280 242.5Q316 224 331 203V301Q331 357 299 390.5Q267 424 209 424Q157 424 126 401.5Q95 379 88 337L59 342Q67 393 105.5 422.5Q144 452 209 452Q279 452 320 412Q361 372 361 304V0Z" glyph-name="acircumflex" horiz-adv-x="431" unicode="&#226;" /><glyph d="M191 523 276 650H309L224 523Z" glyph-name="acute" horiz-adv-x="500" unicode="&#180;" /><glyph d="M191 663 276 780H309L224 663Z" glyph-name="acute.cap" horiz-adv-x="500" unicode="&#58402;" /><glyph d="M138 570Q138 593 161 593Q184 593 184 570Q184 547 161 547Q138 547 138 570ZM252 570Q252 593 275 593Q298 593 298 570Q298 547 275 547Q252 547 252 570ZM331 159Q320 191 283.5 212Q247 233 198 233Q173 233 150 226.5Q127 220 109 207Q91 194 80.5 174Q70 154 70 127Q70 100 80.5 80Q91 60 109 47Q127 34 150 27.5Q173 21 198 21Q247 21 283.5 42Q320 63 331 95ZM331 0V51Q316 30 280 11.5Q244 -7 194 -7Q162 -7 134 2Q106 11 85 28Q64 45 52 70Q40 95 40 127Q40 159 52 184Q64 209 85 226Q106 243 134 252Q162 261 194 261Q244 261 280 242.5Q316 224 331 203V301Q331 357 299 390.5Q267 424 209 424Q157 424 126 401.5Q95 379 88 337L59 342Q67 393 105.5 422.5Q144 452 209 452Q279 452 320 412Q361 372 361 304V0Z" glyph-name="adieresis" horiz-adv-x="431" unicode="&#228;" /><glyph d="M686 120Q682 93 667.5 69.5Q653 46 631 28.5Q609 11 581 1.5Q553 -8 522 -8Q460 -8 414.5 24Q369 56 346 110Q337 89 322.5 68Q308 47 288 30.5Q268 14 241 3.5Q214 -7 181 -7Q117 -7 76 27.5Q35 62 35 122Q35 152 48 176Q61 200 83 217Q105 234 134.5 243Q164 252 198 252H327V301Q327 357 295.5 390.5Q264 424 206 424Q154 424 123 401.5Q92 379 85 337L56 342Q64 393 102.5 422.5Q141 452 206 452Q265 452 302.5 422Q340 392 351 341Q374 390 415 421Q456 452 515 452Q558 452 591 436Q624 420 646.5 391Q669 362 680 322.5Q691 283 691 236V225H355Q355 177 367.5 138.5Q380 100 402 74Q424 48 454.5 34Q485 20 520 20Q572 20 610 48.5Q648 77 655 125ZM181 20Q210 20 234 30Q258 40 276 56.5Q294 73 307 94.5Q320 116 327 139V225H198Q172 225 148 218.5Q124 212 105.5 199Q87 186 76 166.5Q65 147 65 122Q65 71 98.5 45.5Q132 20 181 20ZM515 424Q447 424 404.5 377Q362 330 356 252H659Q658 285 649 316Q640 347 623 371Q606 395 579 409.5Q552 424 515 424Z" glyph-name="ae" horiz-adv-x="731" unicode="&#230;" /><glyph d="M356 523 441 650H474L389 523ZM686 120Q682 93 667.5 69.5Q653 46 631 28.5Q609 11 581 1.5Q553 -8 522 -8Q460 -8 414.5 24Q369 56 346 110Q337 89 322.5 68Q308 47 288 30.5Q268 14 241 3.5Q214 -7 181 -7Q117 -7 76 27.5Q35 62 35 122Q35 152 48 176Q61 200 83 217Q105 234 134.5 243Q164 252 198 252H327V301Q327 357 295.5 390.5Q264 424 206 424Q154 424 123 401.5Q92 379 85 337L56 342Q64 393 102.5 422.5Q141 452 206 452Q265 452 302.5 422Q340 392 351 341Q374 390 415 421Q456 452 515 452Q558 452 591 436Q624 420 646.5 391Q669 362 680 322.5Q691 283 691 236V225H355Q355 177 367.5 138.5Q380 100 402 74Q424 48 454.5 34Q485 20 520 20Q572 20 610 48.5Q648 77 655 125ZM181 20Q210 20 234 30Q258 40 276 56.5Q294 73 307 94.5Q320 116 327 139V225H198Q172 225 148 218.5Q124 212 105.5 199Q87 186 76 166.5Q65 147 65 122Q65 71 98.5 45.5Q132 20 181 20ZM515 424Q447 424 404.5 377Q362 330 356 252H659Q658 285 649 316Q640 347 623 371Q606 395 579 409.5Q552 424 515 424Z" glyph-name="aeacute" horiz-adv-x="731" unicode="&#509;" /><glyph d="M331 159Q320 191 283.5 212Q247 233 198 233Q173 233 150 226.5Q127 220 109 207Q91 194 80.5 174Q70 154 70 127Q70 100 80.5 80Q91 60 109 47Q127 34 150 27.5Q173 21 198 21Q247 21 283.5 42Q320 63 331 95ZM331 0V51Q316 30 280 11.5Q244 -7 194 -7Q162 -7 134 2Q106 11 85 28Q64 45 52 70Q40 95 40 127Q40 159 52 184Q64 209 85 226Q106 243 134 252Q162 261 194 261Q244 261 280 242.5Q316 224 331 203V301Q331 357 299 390.5Q267 424 209 424Q157 424 126 401.5Q95 379 88 337L59 342Q67 393 105.5 422.5Q144 452 209 452Q279 452 320 412Q361 372 361 304V0ZM206 523 121 650H154L239 523Z" glyph-name="agrave" horiz-adv-x="431" unicode="&#224;" /><glyph d="M331 159Q320 191 283.5 212Q247 233 198 233Q173 233 150 226.5Q127 220 109 207Q91 194 80.5 174Q70 154 70 127Q70 100 80.5 80Q91 60 109 47Q127 34 150 27.5Q173 21 198 21Q247 21 283.5 42Q320 63 331 95ZM331 0V51Q316 30 280 11.5Q244 -7 194 -7Q162 -7 134 2Q106 11 85 28Q64 45 52 70Q40 95 40 127Q40 159 52 184Q64 209 85 226Q106 243 134 252Q162 261 194 261Q244 261 280 242.5Q316 224 331 203V301Q331 357 299 390.5Q267 424 209 424Q157 424 126 401.5Q95 379 88 337L59 342Q67 393 105.5 422.5Q144 452 209 452Q279 452 320 412Q361 372 361 304V0ZM122 569H315V542H122Z" glyph-name="amacron" horiz-adv-x="431" unicode="&#257;" /><glyph d="M37 168Q37 204 47.5 232Q58 260 76.5 281Q95 302 119.5 316.5Q144 331 171 340Q141 374 123 408Q105 442 105 484Q105 515 116 540.5Q127 566 146.5 584Q166 602 192 612Q218 622 248 622Q278 622 304 612Q330 602 349.5 584Q369 566 380 540.5Q391 515 391 484Q391 451 380 427Q369 403 348 384.5Q327 366 295.5 352.5Q264 339 222 328L416 122Q465 197 468 300H498Q496 245 480.5 194.5Q465 144 436 102L532 0H493L418 79Q383 39 335 15.5Q287 -8 226 -8Q184 -8 149.5 4Q115 16 90 38.5Q65 61 51 93.5Q37 126 37 168ZM226 21Q282 21 325 41.5Q368 62 399 99L191 319Q166 311 144 298.5Q122 286 105 267.5Q88 249 78 224.5Q68 200 68 168Q68 97 112 59Q156 21 226 21ZM136 484Q136 446 154.5 414Q173 382 202 350Q245 362 275 373.5Q305 385 324 399.5Q343 414 351.5 434Q360 454 360 484Q360 538 328.5 566Q297 594 248 594Q199 594 167.5 566Q136 538 136 484Z" glyph-name="ampersand" horiz-adv-x="545" unicode="&amp;" /><glyph d="M386 473Q380 531 346 562.5Q312 594 258 594Q204 594 170 563Q136 532 136 474Q136 432 159 401.5Q182 371 216 335L416 123Q465 198 468 305L498 300Q496 245 480.5 194.5Q465 144 436 102L532 0H493L418 79Q383 39 335 15.5Q287 -8 226 -8Q185 -8 150.5 6Q116 20 91 45Q66 70 51.5 104Q37 138 37 177Q37 207 46.5 234.5Q56 262 72.5 284.5Q89 307 112 324Q135 341 162 351Q136 380 120.5 408Q105 436 105 474Q105 508 117 535Q129 562 149.5 581.5Q170 601 198 611.5Q226 622 258 622Q293 622 320.5 611Q348 600 368 580.5Q388 561 399.5 535Q411 509 415 478ZM226 21Q282 21 325 41.5Q368 62 399 99L188 323Q186 325 184.5 326Q183 327 181 329Q157 322 136.5 307.5Q116 293 100.5 272.5Q85 252 76.5 228Q68 204 68 177Q68 144 80 115.5Q92 87 113 66Q134 45 163 33Q192 21 226 21Z" glyph-name="ampersand.alt" horiz-adv-x="545" unicode="&#60321;" /><glyph d="M361 0Q330 -12 306 -37Q282 -62 282 -98Q282 -125 299 -140Q316 -155 345 -155Q363 -155 377 -150.5Q391 -146 398 -142L404 -164Q397 -169 380.5 -174Q364 -179 343 -179Q299 -179 277.5 -155.5Q256 -132 256 -97Q256 -57 279 -31Q302 -5 331 9V51Q316 30 280 11.5Q244 -7 194 -7Q162 -7 134 2Q106 11 85 28Q64 45 52 70Q40 95 40 127Q40 159 52 184Q64 209 85 226Q106 243 134 252Q162 261 194 261Q244 261 280 242.5Q316 224 331 203V301Q331 357 299 390.5Q267 424 209 424Q157 424 126 401.5Q95 379 88 337L59 342Q67 393 105.5 422.5Q144 452 209 452Q279 452 320 412Q361 372 361 304ZM331 159Q320 191 283.5 212Q247 233 198 233Q173 233 150 226.5Q127 220 109 207Q91 194 80.5 174Q70 154 70 127Q70 100 80.5 80Q91 60 109 47Q127 34 150 27.5Q173 21 198 21Q247 21 283.5 42Q320 63 331 95Z" glyph-name="aogonek" horiz-adv-x="431" unicode="&#261;" /><glyph d="M72 335Q98 361 121.5 372Q145 383 167 383Q190 383 210.5 375Q231 367 250 357.5Q269 348 288.5 340Q308 332 330 332Q352 332 377 344Q402 356 428 384V350Q402 323 377 312.5Q352 302 330 302Q307 302 287 310Q267 318 247.5 327.5Q228 337 208.5 345Q189 353 167 353Q123 353 72 301ZM72 237Q98 263 121.5 274Q145 285 167 285Q190 285 210.5 277Q231 269 250 259.5Q269 250 288.5 242Q308 234 330 234Q352 234 377 246Q402 258 428 286V252Q402 225 377 214.5Q352 204 330 204Q307 204 287 212Q267 220 247.5 229.5Q228 239 208.5 247Q189 255 167 255Q123 255 72 203Z" glyph-name="approxequal" horiz-adv-x="500" unicode="&#8776;" /><glyph d="M82 335Q108 361 131.5 372Q155 383 177 383Q200 383 220.5 375Q241 367 260 357.5Q279 348 298.5 340Q318 332 340 332Q362 332 387 344Q412 356 438 384V350Q412 323 387 312.5Q362 302 340 302Q317 302 297 310Q277 318 257.5 327.5Q238 337 218.5 345Q199 353 177 353Q133 353 82 301ZM82 237Q108 263 131.5 274Q155 285 177 285Q200 285 220.5 277Q241 269 260 259.5Q279 250 298.5 242Q318 234 340 234Q362 234 387 246Q412 258 438 286V252Q412 225 387 214.5Q362 204 340 204Q317 204 297 212Q277 220 257.5 229.5Q238 239 218.5 247Q199 255 177 255Q133 255 82 203Z" glyph-name="approxequal.lt" horiz-adv-x="520" /><glyph d="M331 159Q320 191 283.5 212Q247 233 198 233Q173 233 150 226.5Q127 220 109 207Q91 194 80.5 174Q70 154 70 127Q70 100 80.5 80Q91 60 109 47Q127 34 150 27.5Q173 21 198 21Q247 21 283.5 42Q320 63 331 95ZM331 0V51Q316 30 280 11.5Q244 -7 194 -7Q162 -7 134 2Q106 11 85 28Q64 45 52 70Q40 95 40 127Q40 159 52 184Q64 209 85 226Q106 243 134 252Q162 261 194 261Q244 261 280 242.5Q316 224 331 203V301Q331 357 299 390.5Q267 424 209 424Q157 424 126 401.5Q95 379 88 337L59 342Q67 393 105.5 422.5Q144 452 209 452Q279 452 320 412Q361 372 361 304V0ZM294 580Q294 548 271.5 525.5Q249 503 217 503Q185 503 162.5 525.5Q140 548 140 580Q140 612 162.5 634.5Q185 657 217 657Q249 657 271.5 634.5Q294 612 294 580ZM269 580Q269 602 254 617Q239 632 217 632Q195 632 180 617Q165 602 165 580Q165 558 180 543Q195 528 217 528Q239 528 254 543Q269 558 269 580Z" glyph-name="aring" horiz-adv-x="431" unicode="&#229;" /><glyph d="M295 550Q295 521 271.5 501.5Q248 482 214 482Q181 482 157.5 501.5Q134 521 134 550Q134 579 157.5 599Q181 619 214 619Q248 619 271.5 599Q295 579 295 550ZM288 731 228 649H199L259 731ZM214 506Q237 506 253 518.5Q269 531 269 550Q269 570 253 582.5Q237 595 214 595Q191 595 175.5 582.5Q160 570 160 550Q160 531 175.5 518.5Q191 506 214 506ZM331 159Q320 191 283.5 212Q247 233 198 233Q173 233 150 226.5Q127 220 109 207Q91 194 80.5 174Q70 154 70 127Q70 100 80.5 80Q91 60 109 47Q127 34 150 27.5Q173 21 198 21Q247 21 283.5 42Q320 63 331 95ZM331 0V51Q316 30 280 11.5Q244 -7 194 -7Q162 -7 134 2Q106 11 85 28Q64 45 52 70Q40 95 40 127Q40 159 52 184Q64 209 85 226Q106 243 134 252Q162 261 194 261Q244 261 280 242.5Q316 224 331 203V301Q331 357 299 390.5Q267 424 209 424Q157 424 126 401.5Q95 379 88 337L59 342Q67 393 105.5 422.5Q144 452 209 452Q279 452 320 412Q361 372 361 304V0Z" glyph-name="aringacute" horiz-adv-x="431" unicode="&#507;" /><glyph d="M157 614 264 443H229L147 573L65 443H30L137 614Z" glyph-name="asciicircum" horiz-adv-x="294" unicode="^" /><glyph d="M357 324Q357 278 335.5 250Q314 222 273 222Q248 222 229 233.5Q210 245 193.5 259.5Q177 274 161 285.5Q145 297 126 297Q100 297 86 277.5Q72 258 72 226H40Q40 272 62 300Q84 328 125 328Q149 328 168 316Q187 304 203.5 290Q220 276 236 264Q252 252 272 252Q298 252 311.5 272Q325 292 325 324Z" glyph-name="asciitilde" horiz-adv-x="397" unicode="~" /><glyph d="M32 573 44 593 139 538V648H163V538L258 593L270 573L174 518L270 463L258 443L163 498V388H139V498L44 443L32 463L128 518Z" glyph-name="asterisk" horiz-adv-x="302" unicode="*" /><glyph d="M493 115Q486 76 503 63.5Q520 51 546 51Q579 51 607.5 65Q636 79 658 106Q680 133 692.5 173Q705 213 705 266Q705 323 683.5 371Q662 419 623 454.5Q584 490 530 510Q476 530 410 530Q333 530 270 502.5Q207 475 162.5 428Q118 381 93.5 318Q69 255 69 184Q69 103 98 44.5Q127 -14 174.5 -52.5Q222 -91 283.5 -109Q345 -127 411 -127Q484 -127 551.5 -109.5Q619 -92 664 -69L669 -94Q624 -118 555.5 -136Q487 -154 411 -154Q340 -154 273 -134.5Q206 -115 154.5 -74Q103 -33 71.5 31Q40 95 40 184Q40 261 66.5 329Q93 397 142 448Q191 499 259 528.5Q327 558 410 558Q482 558 542 535.5Q602 513 644.5 474Q687 435 710.5 381.5Q734 328 734 266Q734 206 718.5 160.5Q703 115 676.5 84.5Q650 54 616 39Q582 24 546 24Q511 24 487.5 40.5Q464 57 462 89Q443 66 413 46.5Q383 27 348 27Q316 27 292 38.5Q268 50 252 69.5Q236 89 228.5 115.5Q221 142 221 172Q221 212 233.5 250.5Q246 289 269.5 319Q293 349 326 367.5Q359 386 400 386Q439 386 465 365.5Q491 345 502 322L512 379H540ZM494 282Q482 315 458 337Q434 359 401 359Q366 359 337.5 342Q309 325 289.5 298.5Q270 272 259.5 238.5Q249 205 249 172Q249 116 276 85Q303 54 348 54Q386 54 415.5 76.5Q445 99 468 133Z" glyph-name="at" horiz-adv-x="774" unicode="@" /><glyph d="M493 207Q486 168 503 155.5Q520 143 546 143Q579 143 607.5 157Q636 171 658 198Q680 225 692.5 265Q705 305 705 358Q705 415 683.5 463Q662 511 623 546.5Q584 582 530 602Q476 622 410 622Q333 622 270 594.5Q207 567 162.5 520Q118 473 93.5 410Q69 347 69 276Q69 195 98 136.5Q127 78 174.5 39.5Q222 1 283.5 -17Q345 -35 411 -35Q484 -35 551.5 -17.5Q619 0 664 23L669 -2Q624 -26 555.5 -44Q487 -62 411 -62Q340 -62 273 -42.5Q206 -23 154.5 18Q103 59 71.5 123Q40 187 40 276Q40 353 66.5 421Q93 489 142 540Q191 591 259 620.5Q327 650 410 650Q482 650 542 627.5Q602 605 644.5 566Q687 527 710.5 473.5Q734 420 734 358Q734 298 718.5 252.5Q703 207 676.5 176.5Q650 146 616 131Q582 116 546 116Q511 116 487.5 132.5Q464 149 462 181Q443 158 413 138.5Q383 119 348 119Q316 119 292 130.5Q268 142 252 161.5Q236 181 228.5 207.5Q221 234 221 264Q221 304 233.5 342.5Q246 381 269.5 411Q293 441 326 459.5Q359 478 400 478Q439 478 465 457.5Q491 437 502 414L512 471H540ZM494 374Q482 407 458 429Q434 451 401 451Q366 451 337.5 434Q309 417 289.5 390.5Q270 364 259.5 330.5Q249 297 249 264Q249 208 276 177Q303 146 348 146Q386 146 415.5 168.5Q445 191 468 225Z" glyph-name="at.cap" horiz-adv-x="774" unicode="&#58643;" /><glyph d="M331 159Q320 191 283.5 212Q247 233 198 233Q173 233 150 226.5Q127 220 109 207Q91 194 80.5 174Q70 154 70 127Q70 100 80.5 80Q91 60 109 47Q127 34 150 27.5Q173 21 198 21Q247 21 283.5 42Q320 63 331 95ZM331 0V51Q316 30 280 11.5Q244 -7 194 -7Q162 -7 134 2Q106 11 85 28Q64 45 52 70Q40 95 40 127Q40 159 52 184Q64 209 85 226Q106 243 134 252Q162 261 194 261Q244 261 280 242.5Q316 224 331 203V301Q331 357 299 390.5Q267 424 209 424Q157 424 126 401.5Q95 379 88 337L59 342Q67 393 105.5 422.5Q144 452 209 452Q279 452 320 412Q361 372 361 304V0ZM338 619Q338 575 322 549.5Q306 524 275 524Q255 524 240.5 535Q226 546 214 559Q202 572 190.5 583Q179 594 165 594Q146 594 136.5 575.5Q127 557 127 527H101Q101 570 117 596Q133 622 164 622Q184 622 198.5 611Q213 600 225 587Q237 574 248.5 563Q260 552 274 552Q293 552 302.5 570.5Q312 589 312 619Z" glyph-name="atilde" horiz-adv-x="431" unicode="&#227;" /><glyph d="M105 0H75V650H105V367Q115 383 130 398.5Q145 414 164 426Q183 438 205.5 445Q228 452 253 452Q302 452 337.5 433Q373 414 396.5 382.5Q420 351 431 309Q442 267 442 222Q442 177 431 135Q420 93 396.5 61.5Q373 30 337.5 11Q302 -8 253 -8Q228 -8 205.5 -1Q183 6 164 18Q145 30 130 45Q115 60 105 77ZM105 120Q131 71 169.5 46Q208 21 253 21Q290 21 319.5 36Q349 51 369.5 77.5Q390 104 400.5 141Q411 178 411 222Q411 266 400.5 303Q390 340 369.5 366.5Q349 393 319.5 408Q290 423 253 423Q208 423 169.5 398Q131 373 105 324Z" glyph-name="b" horiz-adv-x="484" unicode="b" /><glyph d="M282 -84H253L5 650H34Z" glyph-name="backslash" horiz-adv-x="287" unicode="\" /><glyph d="M282 -64H253L5 670H34Z" glyph-name="backslash.cap" horiz-adv-x="287" unicode="&#58466;" /><glyph d="M83 650H112V-84H83Z" glyph-name="bar" horiz-adv-x="195" unicode="|" /><glyph d="M83 670H112V-64H83Z" glyph-name="bar.cap" horiz-adv-x="195" unicode="&#58467;" /><glyph d="M105 0H75V650H105V367Q115 383 130 398.5Q145 414 164 426Q183 438 205.5 445Q228 452 253 452Q302 452 337.5 433Q373 414 396.5 382.5Q420 351 431 309Q442 267 442 222Q442 177 431 135Q420 93 396.5 61.5Q373 30 337.5 11Q302 -8 253 -8Q228 -8 205.5 -1Q183 6 164 18Q145 30 130 45Q115 60 105 77ZM105 120Q131 71 169.5 46Q208 21 253 21Q290 21 319.5 36Q349 51 369.5 77.5Q390 104 400.5 141Q411 178 411 222Q411 266 400.5 303Q390 340 369.5 366.5Q349 393 319.5 408Q290 423 253 423Q208 423 169.5 398Q131 373 105 324ZM67 710Q67 733 90 733Q113 733 113 710Q113 687 90 687Q67 687 67 710Z" glyph-name="bdotaccent" horiz-adv-x="484" unicode="&#7683;" /><glyph d="M175 -45Q175 -96 222 -96H310V-124H222Q189 -124 167.5 -102Q146 -80 146 -45V218Q146 269 99 269H30V297H99Q146 297 146 348V611Q146 646 167.5 668Q189 690 222 690H310V662H222Q175 662 175 611V348Q175 326 165 309.5Q155 293 138 283Q155 272 165 255.5Q175 239 175 218Z" glyph-name="braceleft" horiz-adv-x="330" unicode="{" /><glyph d="M175 -25Q175 -76 222 -76H310V-104H222Q189 -104 167.5 -82Q146 -60 146 -25V238Q146 289 99 289H30V317H99Q146 317 146 368V631Q146 666 167.5 688Q189 710 222 710H310V682H222Q175 682 175 631V368Q175 346 165 329.5Q155 313 138 303Q155 292 165 275.5Q175 259 175 238Z" glyph-name="braceleft.cap" horiz-adv-x="330" unicode="&#58517;" /><glyph d="M155 218Q155 239 165 255.5Q175 272 192 283Q175 293 165 309.5Q155 326 155 348V611Q155 662 108 662H20V690H108Q141 690 162.5 668Q184 646 184 611V348Q184 297 231 297H300V269H231Q184 269 184 218V-45Q184 -80 162.5 -102Q141 -124 108 -124H20V-96H108Q155 -96 155 -45Z" glyph-name="braceright" horiz-adv-x="330" unicode="}" /><glyph d="M155 238Q155 259 165 275.5Q175 292 192 303Q175 313 165 329.5Q155 346 155 368V631Q155 682 108 682H20V710H108Q141 710 162.5 688Q184 666 184 631V368Q184 317 231 317H300V289H231Q184 289 184 238V-25Q184 -60 162.5 -82Q141 -104 108 -104H20V-76H108Q155 -76 155 -25Z" glyph-name="braceright.cap" horiz-adv-x="330" unicode="&#58518;" /><glyph d="M122 -96H270V-124H93V690H270V662H122Z" glyph-name="bracketleft" horiz-adv-x="310" unicode="[" /><glyph d="M122 -75H270V-103H93V711H270V683H122Z" glyph-name="bracketleft.cap" horiz-adv-x="310" unicode="&#58515;" /><glyph d="M188 662H40V690H217V-124H40V-96H188Z" glyph-name="bracketright" horiz-adv-x="310" unicode="]" /><glyph d="M188 683H40V711H217V-103H40V-75H188Z" glyph-name="bracketright.cap" horiz-adv-x="310" unicode="&#58516;" /><glyph d="M250 510Q210 510 183.5 539Q157 568 157 624H184Q184 581 202.5 558Q221 535 250 535Q279 535 297.5 558Q316 581 316 624H343Q343 568 316.5 539Q290 510 250 510Z" glyph-name="breve" horiz-adv-x="500" unicode="&#728;" /><glyph d="M250 663Q210 663 183.5 692Q157 721 157 777H184Q184 734 202.5 711Q221 688 250 688Q279 688 297.5 711Q316 734 316 777H343Q343 721 316.5 692Q290 663 250 663Z" glyph-name="breve.cap" horiz-adv-x="500" unicode="&#58406;" /><glyph d="M285 259Q285 232 275.5 210Q266 188 249.5 171.5Q233 155 210.5 146Q188 137 162 137Q136 137 114 146Q92 155 75.5 171.5Q59 188 49.5 210Q40 232 40 259Q40 286 49.5 308Q59 330 75.5 346.5Q92 363 114 372Q136 381 162 381Q188 381 210.5 372Q233 363 249.5 346.5Q266 330 275.5 308Q285 286 285 259Z" glyph-name="bullet" horiz-adv-x="325" unicode="&#8226;" /><glyph d="M285 299Q285 272 275.5 250Q266 228 249.5 211.5Q233 195 210.5 186Q188 177 162 177Q136 177 114 186Q92 195 75.5 211.5Q59 228 49.5 250Q40 272 40 299Q40 326 49.5 348Q59 370 75.5 386.5Q92 403 114 412Q136 421 162 421Q188 421 210.5 412Q233 403 249.5 386.5Q266 370 275.5 348Q285 326 285 299Z" glyph-name="bullet.cap" horiz-adv-x="325" unicode="&#58470;" /><glyph d="M42 222Q42 274 56 316.5Q70 359 95.5 389Q121 419 157.5 435.5Q194 452 240 452Q270 452 297 442.5Q324 433 345 415.5Q366 398 380 374.5Q394 351 398 324L367 319Q360 367 324 395.5Q288 424 238 424Q201 424 170.5 409.5Q140 395 118.5 368.5Q97 342 85 305Q73 268 73 222Q73 176 85 139Q97 102 118.5 75.5Q140 49 170.5 34.5Q201 20 238 20Q288 20 324 48.5Q360 77 367 125L398 120Q394 93 380 69.5Q366 46 345 28.5Q324 11 297 1.5Q270 -8 240 -8Q194 -8 157.5 8.5Q121 25 95.5 55Q70 85 56 127.5Q42 170 42 222Z" glyph-name="c" horiz-adv-x="438" unicode="c" /><glyph d="M225 523 310 650H343L258 523ZM42 222Q42 274 56 316.5Q70 359 95.5 389Q121 419 157.5 435.5Q194 452 240 452Q270 452 297 442.5Q324 433 345 415.5Q366 398 380 374.5Q394 351 398 324L367 319Q360 367 324 395.5Q288 424 238 424Q201 424 170.5 409.5Q140 395 118.5 368.5Q97 342 85 305Q73 268 73 222Q73 176 85 139Q97 102 118.5 75.5Q140 49 170.5 34.5Q201 20 238 20Q288 20 324 48.5Q360 77 367 125L398 120Q394 93 380 69.5Q366 46 345 28.5Q324 11 297 1.5Q270 -8 240 -8Q194 -8 157.5 8.5Q121 25 95.5 55Q70 85 56 127.5Q42 170 42 222Z" glyph-name="cacute" horiz-adv-x="438" unicode="&#263;" /><glyph d="M263 518H237L146 645H177L250 543L323 645H354Z" glyph-name="caron" horiz-adv-x="500" unicode="&#711;" /><glyph d="M221 493 253 650H279L247 493Z" glyph-name="caron.Slovak" horiz-adv-x="500" /><glyph d="M146 773H177L250 681L323 773H354L263 656H237Z" glyph-name="caron.cap" horiz-adv-x="500" unicode="&#58413;" /><glyph d="M254 518H228L137 645H168L241 543L314 645H345ZM42 222Q42 274 56 316.5Q70 359 95.5 389Q121 419 157.5 435.5Q194 452 240 452Q270 452 297 442.5Q324 433 345 415.5Q366 398 380 374.5Q394 351 398 324L367 319Q360 367 324 395.5Q288 424 238 424Q201 424 170.5 409.5Q140 395 118.5 368.5Q97 342 85 305Q73 268 73 222Q73 176 85 139Q97 102 118.5 75.5Q140 49 170.5 34.5Q201 20 238 20Q288 20 324 48.5Q360 77 367 125L398 120Q394 93 380 69.5Q366 46 345 28.5Q324 11 297 1.5Q270 -8 240 -8Q194 -8 157.5 8.5Q121 25 95.5 55Q70 85 56 127.5Q42 170 42 222Z" glyph-name="ccaron" horiz-adv-x="438" unicode="&#269;" /><glyph d="M219 -7Q136 1 89 62.5Q42 124 42 222Q42 274 56 316.5Q70 359 95.5 389Q121 419 157.5 435.5Q194 452 240 452Q270 452 297 442.5Q324 433 345 415.5Q366 398 380 374.5Q394 351 398 324L367 319Q360 367 324 395.5Q288 424 238 424Q201 424 170.5 409.5Q140 395 118.5 368.5Q97 342 85 305Q73 268 73 222Q73 176 85 139Q97 102 118.5 75.5Q140 49 170.5 34.5Q201 20 238 20Q288 20 324 48.5Q360 77 367 125L398 120Q394 93 380.5 69.5Q367 46 346 29Q325 12 298.5 2Q272 -8 242 -8L234 -46Q269 -52 289.5 -71Q310 -90 310 -117Q310 -143 293 -161Q276 -179 232 -179Q206 -179 188.5 -172.5Q171 -166 162 -160L168 -138Q178 -144 192 -149.5Q206 -155 230 -155Q259 -155 271.5 -145.5Q284 -136 284 -118Q284 -94 261 -80Q238 -66 208 -64Z" glyph-name="ccedilla" horiz-adv-x="438" unicode="&#231;" /><glyph d="M340 516H309L236 619L163 516H132L223 643H249ZM42 222Q42 274 56 316.5Q70 359 95.5 389Q121 419 157.5 435.5Q194 452 240 452Q270 452 297 442.5Q324 433 345 415.5Q366 398 380 374.5Q394 351 398 324L367 319Q360 367 324 395.5Q288 424 238 424Q201 424 170.5 409.5Q140 395 118.5 368.5Q97 342 85 305Q73 268 73 222Q73 176 85 139Q97 102 118.5 75.5Q140 49 170.5 34.5Q201 20 238 20Q288 20 324 48.5Q360 77 367 125L398 120Q394 93 380 69.5Q366 46 345 28.5Q324 11 297 1.5Q270 -8 240 -8Q194 -8 157.5 8.5Q121 25 95.5 55Q70 85 56 127.5Q42 170 42 222Z" glyph-name="ccircumflex" horiz-adv-x="438" unicode="&#265;" /><glyph d="M42 222Q42 274 56 316.5Q70 359 95.5 389Q121 419 157.5 435.5Q194 452 240 452Q270 452 297 442.5Q324 433 345 415.5Q366 398 380 374.5Q394 351 398 324L367 319Q360 367 324 395.5Q288 424 238 424Q201 424 170.5 409.5Q140 395 118.5 368.5Q97 342 85 305Q73 268 73 222Q73 176 85 139Q97 102 118.5 75.5Q140 49 170.5 34.5Q201 20 238 20Q288 20 324 48.5Q360 77 367 125L398 120Q394 93 380 69.5Q366 46 345 28.5Q324 11 297 1.5Q270 -8 240 -8Q194 -8 157.5 8.5Q121 25 95.5 55Q70 85 56 127.5Q42 170 42 222ZM215 578Q215 601 238 601Q261 601 261 578Q261 555 238 555Q215 555 215 578Z" glyph-name="cdotaccent" horiz-adv-x="438" unicode="&#267;" /><glyph d="M236 11H259L247 -46Q282 -52 302.5 -71Q323 -90 323 -117Q323 -143 306 -161Q289 -179 245 -179Q219 -179 201.5 -172.5Q184 -166 175 -160L181 -138Q191 -144 205 -149.5Q219 -155 243 -155Q272 -155 284.5 -145.5Q297 -136 297 -118Q297 -94 274 -80Q251 -66 221 -64Z" glyph-name="cedilla" horiz-adv-x="500" unicode="&#184;" /><glyph d="M233 -44Q274 -48 298.5 -68Q323 -88 323 -117Q323 -143 306 -161Q289 -179 245 -179Q219 -179 201.5 -172.5Q184 -166 175 -160L181 -138Q191 -144 205 -149.5Q219 -155 243 -155Q272 -155 284.5 -145.5Q297 -136 297 -118Q297 -94 274 -80Q251 -66 221 -64Z" glyph-name="cedilla.alt" horiz-adv-x="500" /><glyph d="M42 232Q42 281 54.5 322Q67 363 91 393Q115 423 149 440.5Q183 458 225 461V549H253V461Q281 459 305.5 448.5Q330 438 349.5 421.5Q369 405 381.5 382.5Q394 360 398 334L367 329Q360 377 324 405.5Q288 434 238 434Q201 434 170.5 419.5Q140 405 118.5 378.5Q97 352 85 315Q73 278 73 232Q73 186 85 149Q97 112 118.5 85.5Q140 59 170.5 44.5Q201 30 238 30Q288 30 324 58.5Q360 87 367 135L398 130Q394 104 381.5 81.5Q369 59 349.5 42Q330 25 305.5 14.5Q281 4 253 2V-82H225V2Q183 5 149 22.5Q115 40 91 70Q67 100 54.5 141Q42 182 42 232Z" glyph-name="cent" horiz-adv-x="438" unicode="&#162;" /><glyph d="M78 232Q78 281 90.5 322Q103 363 127 393Q151 423 185 440.5Q219 458 261 461V549H289V461Q317 459 341.5 448.5Q366 438 385.5 421.5Q405 405 417.5 382.5Q430 360 434 334L403 329Q396 377 360 405.5Q324 434 274 434Q237 434 206.5 419.5Q176 405 154.5 378.5Q133 352 121 315Q109 278 109 232Q109 186 121 149Q133 112 154.5 85.5Q176 59 206.5 44.5Q237 30 274 30Q324 30 360 58.5Q396 87 403 135L434 130Q430 104 417.5 81.5Q405 59 385.5 42Q366 25 341.5 14.5Q317 4 289 2V-82H261V2Q219 5 185 22.5Q151 40 127 70Q103 100 90.5 141Q78 182 78 232Z" glyph-name="cent.lt" horiz-adv-x="520" /><glyph d="M354 516H323L250 619L177 516H146L237 643H263Z" glyph-name="circumflex" horiz-adv-x="500" unicode="&#710;" /><glyph d="M354 666H323L250 758L177 666H146L237 783H263Z" glyph-name="circumflex.cap" horiz-adv-x="500" unicode="&#58403;" /><glyph d="M82 21Q82 -2 59 -2Q36 -2 36 21Q36 44 59 44Q82 44 82 21ZM82 361Q82 338 59 338Q36 338 36 361Q36 384 59 384Q82 384 82 361Z" glyph-name="colon" horiz-adv-x="118" unicode=":" /><glyph d="M153 21Q153 -2 130 -2Q107 -2 107 21Q107 44 130 44Q153 44 153 21ZM153 361Q153 338 130 338Q107 338 107 361Q107 384 130 384Q153 384 153 361Z" glyph-name="colon.tab" horiz-adv-x="260" /><glyph d="M14 -66Q40 -59 53 -44.5Q66 -30 68 -1Q66 -2 63.5 -2Q61 -2 59 -2Q36 -2 36 21Q36 44 59 44H61Q87 42 87 10Q87 -64 17 -81Z" glyph-name="comma" horiz-adv-x="118" unicode="," /><glyph d="M85 -66Q111 -59 124 -44.5Q137 -30 139 -1Q137 -2 134.5 -2Q132 -2 130 -2Q107 -2 107 21Q107 44 130 44H132Q158 42 158 10Q158 -64 88 -81Z" glyph-name="comma.tab" horiz-adv-x="260" /><glyph d="M210 -159Q233 -153 246 -141Q259 -129 259 -104Q257 -105 254.5 -105Q252 -105 250 -105Q227 -105 227 -82Q227 -59 250 -59H252Q278 -61 278 -93Q278 -128 261.5 -147Q245 -166 213 -174Z" glyph-name="commaaccent" horiz-adv-x="500" unicode="&#58388;" /><glyph d="M285 623Q262 617 249 605Q236 593 236 568Q238 569 240.5 569Q243 569 245 569Q268 569 268 546Q268 523 245 523H243Q217 525 217 557Q217 592 233.5 611Q250 630 282 638Z" glyph-name="commaturn" horiz-adv-x="500" /><glyph d="M670 307Q670 238 645 180.5Q620 123 577.5 81Q535 39 477.5 15.5Q420 -8 355 -8Q290 -8 232.5 15.5Q175 39 132.5 81Q90 123 65 180.5Q40 238 40 307Q40 376 65 433.5Q90 491 132.5 533Q175 575 232.5 598.5Q290 622 355 622Q420 622 477.5 598.5Q535 575 577.5 533Q620 491 645 433.5Q670 376 670 307ZM644 307Q644 370 621 423Q598 476 559 514.5Q520 553 467.5 574.5Q415 596 355 596Q295 596 242.5 574.5Q190 553 151 514.5Q112 476 89 423Q66 370 66 307Q66 244 89 191Q112 138 151 99.5Q190 61 242.5 39.5Q295 18 355 18Q415 18 467.5 39.5Q520 61 559 99.5Q598 138 621 191Q644 244 644 307ZM214 309Q214 230 254 184.5Q294 139 355 139Q398 139 427 161Q456 183 469 221L498 216Q484 168 447 139Q410 110 355 110Q319 110 287.5 124Q256 138 233 163.5Q210 189 196.5 226Q183 263 183 309Q183 355 196.5 392Q210 429 233 454.5Q256 480 287.5 494Q319 508 355 508Q410 508 447 479Q484 450 498 402L469 397Q456 435 427 457Q398 479 355 479Q294 479 254 433.5Q214 388 214 309Z" glyph-name="copyright" horiz-adv-x="710" unicode="&#169;" /><glyph d="M379 77Q369 60 354 45Q339 30 320 18Q301 6 278.5 -1Q256 -8 231 -8Q182 -8 146.5 11Q111 30 87.5 61.5Q64 93 53 135Q42 177 42 222Q42 267 53 309Q64 351 87.5 382.5Q111 414 146.5 433Q182 452 231 452Q256 452 278.5 445Q301 438 320 426Q339 414 354 398.5Q369 383 379 367V650H409V0H379ZM379 324Q353 373 314.5 398Q276 423 231 423Q193 423 164 408Q135 393 114.5 366.5Q94 340 83.5 303Q73 266 73 222Q73 178 83.5 141Q94 104 114.5 77.5Q135 51 164 36Q193 21 231 21Q276 21 314.5 46Q353 71 379 120Z" glyph-name="d" horiz-adv-x="484" unicode="d" /><glyph d="M31 558H130V650H158V558H257V532H158V330H130V532H31Z" glyph-name="dagger" horiz-adv-x="288" unicode="&#8224;" /><glyph d="M31 556H130V650H158V556H257V530H158V450H257V424H158V330H130V424H31V450H130V530H31Z" glyph-name="daggerdbl" horiz-adv-x="288" unicode="&#8225;" /><glyph d="M469 493 501 650H527L495 493ZM379 0V77Q369 60 354 45Q339 30 320 18Q301 6 278.5 -1Q256 -8 231 -8Q182 -8 146.5 11Q111 30 87.5 61.5Q64 93 53 135Q42 177 42 222Q42 267 53 309Q64 351 87.5 382.5Q111 414 146.5 433Q182 452 231 452Q256 452 278.5 445Q301 438 320 426Q339 414 354 398.5Q369 383 379 367V650H409V0ZM379 324Q353 373 314.5 398Q276 423 231 423Q193 423 164 408Q135 393 114.5 366.5Q94 340 83.5 303Q73 266 73 222Q73 178 83.5 141Q94 104 114.5 77.5Q135 51 164 36Q193 21 231 21Q276 21 314.5 46Q353 71 379 120Z" glyph-name="dcaron" horiz-adv-x="484" unicode="&#271;" /><glyph d="M258 552H379V650H409V552H459V527H409V0H379V77Q369 60 354 45Q339 30 320 18Q301 6 278.5 -1Q256 -8 231 -8Q182 -8 146.5 11Q111 30 87.5 61.5Q64 93 53 135Q42 177 42 222Q42 267 53 309Q64 351 87.5 382.5Q111 414 146.5 433Q182 452 231 452Q256 452 278.5 445Q301 438 320 426Q339 414 354 398.5Q369 383 379 367V527H258ZM379 324Q353 373 314.5 398Q276 423 231 423Q193 423 164 408Q135 393 114.5 366.5Q94 340 83.5 303Q73 266 73 222Q73 178 83.5 141Q94 104 114.5 77.5Q135 51 164 36Q193 21 231 21Q276 21 314.5 46Q353 71 379 120Z" glyph-name="dcroat" horiz-adv-x="484" unicode="&#273;" /><glyph d="M379 77Q369 60 354 45Q339 30 320 18Q301 6 278.5 -1Q256 -8 231 -8Q182 -8 146.5 11Q111 30 87.5 61.5Q64 93 53 135Q42 177 42 222Q42 267 53 309Q64 351 87.5 382.5Q111 414 146.5 433Q182 452 231 452Q256 452 278.5 445Q301 438 320 426Q339 414 354 398.5Q369 383 379 367V650H409V0H379ZM379 324Q353 373 314.5 398Q276 423 231 423Q193 423 164 408Q135 393 114.5 366.5Q94 340 83.5 303Q73 266 73 222Q73 178 83.5 141Q94 104 114.5 77.5Q135 51 164 36Q193 21 231 21Q276 21 314.5 46Q353 71 379 120ZM371 710Q371 733 394 733Q417 733 417 710Q417 687 394 687Q371 687 371 710Z" glyph-name="ddotaccent" horiz-adv-x="484" unicode="&#7691;" /><glyph d="M73 515Q73 482 96 459Q119 436 151 436Q183 436 206 459Q229 482 229 515Q229 548 206 571Q183 594 151 594Q119 594 96 571Q73 548 73 515ZM257 515Q257 492 248.5 472.5Q240 453 226 439Q212 425 192.5 416.5Q173 408 151 408Q129 408 109.5 416.5Q90 425 76 439Q62 453 53.5 472.5Q45 492 45 515Q45 537 53.5 557Q62 577 76 591Q90 605 109.5 613.5Q129 622 151 622Q173 622 192.5 613.5Q212 605 226 591Q240 577 248.5 557Q257 537 257 515Z" glyph-name="degree" horiz-adv-x="302" unicode="&#176;" /><glyph d="M170 570Q170 593 193 593Q216 593 216 570Q216 547 193 547Q170 547 170 570ZM284 570Q284 593 307 593Q330 593 330 570Q330 547 307 547Q284 547 284 570Z" glyph-name="dieresis" horiz-adv-x="500" unicode="&#168;" /><glyph d="M170 710Q170 733 193 733Q216 733 216 710Q216 687 193 687Q170 687 170 710ZM284 710Q284 733 307 733Q330 733 330 710Q330 687 307 687Q284 687 284 710Z" glyph-name="dieresis.cap" horiz-adv-x="500" unicode="&#58409;" /><glyph d="M70 307H425V278H70ZM221 440Q221 451 228.5 459Q236 467 247 467Q258 467 265.5 459Q273 451 273 440Q273 429 265.5 421Q258 413 247 413Q236 413 228.5 421Q221 429 221 440ZM221 146Q221 157 228.5 165Q236 173 247 173Q258 173 265.5 165Q273 157 273 146Q273 135 265.5 127Q258 119 247 119Q236 119 228.5 127Q221 135 221 146Z" glyph-name="divide" horiz-adv-x="495" unicode="&#247;" /><glyph d="M82 307H437V278H82ZM233 440Q233 451 240.5 459Q248 467 259 467Q270 467 277.5 459Q285 451 285 440Q285 429 277.5 421Q270 413 259 413Q248 413 240.5 421Q233 429 233 440ZM233 146Q233 157 240.5 165Q248 173 259 173Q270 173 277.5 165Q285 157 285 146Q285 135 277.5 127Q270 119 259 119Q248 119 240.5 127Q233 135 233 146Z" glyph-name="divide.lt" horiz-adv-x="520" /><glyph d="M213 16Q143 19 93.5 51.5Q44 84 33 139L61 144Q72 94 117 69Q162 44 227 44Q260 44 289 52Q318 60 339 76Q360 92 372.5 115Q385 138 385 168Q385 208 361.5 238Q338 268 280 285L170 317Q111 334 76.5 363.5Q42 393 42 451Q42 485 55.5 512Q69 539 92 557Q115 575 146.5 585Q178 595 213 597V687H241V597Q310 594 352 560.5Q394 527 409 470L382 465Q370 514 331.5 542Q293 570 227 570Q194 570 165.5 562.5Q137 555 116 540Q95 525 83 502.5Q71 480 71 451Q71 425 79.5 407.5Q88 390 104 377Q120 364 143 355Q166 346 194 338L286 311Q357 290 386 256Q415 222 415 168Q415 133 401.5 105.5Q388 78 364 59Q340 40 308.5 29Q277 18 241 16V-82H213Z" glyph-name="dollar" horiz-adv-x="453" unicode="$" /><glyph d="M249 16Q179 19 129.5 51.5Q80 84 69 139L97 144Q108 94 153 69Q198 44 263 44Q296 44 325 52Q354 60 375 76Q396 92 408.5 115Q421 138 421 168Q421 208 397.5 238Q374 268 316 285L206 317Q147 334 112.5 363.5Q78 393 78 451Q78 485 91.5 512Q105 539 128 557Q151 575 182.5 585Q214 595 249 597V687H277V597Q346 594 388 560.5Q430 527 445 470L418 465Q406 514 367.5 542Q329 570 263 570Q230 570 201.5 562.5Q173 555 152 540Q131 525 119 502.5Q107 480 107 451Q107 425 115.5 407.5Q124 390 140 377Q156 364 179 355Q202 346 230 338L322 311Q393 290 422 256Q451 222 451 168Q451 133 437.5 105.5Q424 78 400 59Q376 40 344.5 29Q313 18 277 16V-82H249Z" glyph-name="dollar.lt" horiz-adv-x="520" /><glyph d="M227 578Q227 601 250 601Q273 601 273 578Q273 555 250 555Q227 555 227 578Z" glyph-name="dotaccent" horiz-adv-x="500" unicode="&#729;" /><glyph d="M227 710Q227 733 250 733Q273 733 273 710Q273 687 250 687Q227 687 227 710Z" glyph-name="dotaccent.cap" horiz-adv-x="500" unicode="&#58408;" /><glyph d="M227 -114Q227 -91 250 -91Q273 -91 273 -114Q273 -137 250 -137Q227 -137 227 -114Z" glyph-name="dotbelow" horiz-adv-x="500" unicode="&#58389;" /><glyph d="M105 0H75V444H105Z" glyph-name="dotlessi" horiz-adv-x="180" unicode="&#305;" /><glyph d="M105 -74Q105 -128 78.5 -153Q52 -178 14 -178Q3 -178 -4 -177Q-11 -176 -16 -174L-11 -147Q-8 -148 -2.5 -149Q3 -150 11 -150Q25 -150 36.5 -147Q48 -144 56.5 -135Q65 -126 70 -110.5Q75 -95 75 -70V444H105Z" glyph-name="dotlessj" horiz-adv-x="180" unicode="&#567;" /><glyph d="M404 120Q400 93 385.5 69.5Q371 46 349 28.5Q327 11 299 1.5Q271 -8 240 -8Q194 -8 157.5 8.5Q121 25 95.5 55Q70 85 56 127.5Q42 170 42 222Q42 271 55 313.5Q68 356 92.5 386.5Q117 417 152.5 434.5Q188 452 233 452Q276 452 309 436Q342 420 364.5 391Q387 362 398 322.5Q409 283 409 236V225H73Q73 130 118.5 75Q164 20 238 20Q289 20 327.5 48.5Q366 77 373 125ZM233 424Q200 424 172 411.5Q144 399 123.5 376.5Q103 354 90 322.5Q77 291 74 252H377Q376 285 367 316Q358 347 341 371Q324 395 297 409.5Q270 424 233 424Z" glyph-name="e" horiz-adv-x="449" unicode="e" /><glyph d="M214 523 299 650H332L247 523ZM404 120Q400 93 385.5 69.5Q371 46 349 28.5Q327 11 299 1.5Q271 -8 240 -8Q194 -8 157.5 8.5Q121 25 95.5 55Q70 85 56 127.5Q42 170 42 222Q42 271 55 313.5Q68 356 92.5 386.5Q117 417 152.5 434.5Q188 452 233 452Q276 452 309 436Q342 420 364.5 391Q387 362 398 322.5Q409 283 409 236V225H73Q73 130 118.5 75Q164 20 238 20Q289 20 327.5 48.5Q366 77 373 125ZM233 424Q200 424 172 411.5Q144 399 123.5 376.5Q103 354 90 322.5Q77 291 74 252H377Q376 285 367 316Q358 347 341 371Q324 395 297 409.5Q270 424 233 424Z" glyph-name="eacute" horiz-adv-x="449" unicode="&#233;" /><glyph d="M404 120Q400 93 385.5 69.5Q371 46 349 28.5Q327 11 299 1.5Q271 -8 240 -8Q194 -8 157.5 8.5Q121 25 95.5 55Q70 85 56 127.5Q42 170 42 222Q42 271 55 313.5Q68 356 92.5 386.5Q117 417 152.5 434.5Q188 452 233 452Q276 452 309 436Q342 420 364.5 391Q387 362 398 322.5Q409 283 409 236V225H73Q73 130 118.5 75Q164 20 238 20Q289 20 327.5 48.5Q366 77 373 125ZM233 424Q200 424 172 411.5Q144 399 123.5 376.5Q103 354 90 322.5Q77 291 74 252H377Q376 285 367 316Q358 347 341 371Q324 395 297 409.5Q270 424 233 424ZM235 510Q195 510 168.5 539Q142 568 142 624H169Q169 581 187.5 558Q206 535 235 535Q264 535 282.5 558Q301 581 301 624H328Q328 568 301.5 539Q275 510 235 510Z" glyph-name="ebreve" horiz-adv-x="449" unicode="&#277;" /><glyph d="M248 518H222L131 645H162L235 543L308 645H339ZM404 120Q400 93 385.5 69.5Q371 46 349 28.5Q327 11 299 1.5Q271 -8 240 -8Q194 -8 157.5 8.5Q121 25 95.5 55Q70 85 56 127.5Q42 170 42 222Q42 271 55 313.5Q68 356 92.5 386.5Q117 417 152.5 434.5Q188 452 233 452Q276 452 309 436Q342 420 364.5 391Q387 362 398 322.5Q409 283 409 236V225H73Q73 130 118.5 75Q164 20 238 20Q289 20 327.5 48.5Q366 77 373 125ZM233 424Q200 424 172 411.5Q144 399 123.5 376.5Q103 354 90 322.5Q77 291 74 252H377Q376 285 367 316Q358 347 341 371Q324 395 297 409.5Q270 424 233 424Z" glyph-name="ecaron" horiz-adv-x="449" unicode="&#283;" /><glyph d="M339 516H308L235 619L162 516H131L222 643H248ZM404 120Q400 93 385.5 69.5Q371 46 349 28.5Q327 11 299 1.5Q271 -8 240 -8Q194 -8 157.5 8.5Q121 25 95.5 55Q70 85 56 127.5Q42 170 42 222Q42 271 55 313.5Q68 356 92.5 386.5Q117 417 152.5 434.5Q188 452 233 452Q276 452 309 436Q342 420 364.5 391Q387 362 398 322.5Q409 283 409 236V225H73Q73 130 118.5 75Q164 20 238 20Q289 20 327.5 48.5Q366 77 373 125ZM233 424Q200 424 172 411.5Q144 399 123.5 376.5Q103 354 90 322.5Q77 291 74 252H377Q376 285 367 316Q358 347 341 371Q324 395 297 409.5Q270 424 233 424Z" glyph-name="ecircumflex" horiz-adv-x="449" unicode="&#234;" /><glyph d="M155 570Q155 593 178 593Q201 593 201 570Q201 547 178 547Q155 547 155 570ZM269 570Q269 593 292 593Q315 593 315 570Q315 547 292 547Q269 547 269 570ZM404 120Q400 93 385.5 69.5Q371 46 349 28.5Q327 11 299 1.5Q271 -8 240 -8Q194 -8 157.5 8.5Q121 25 95.5 55Q70 85 56 127.5Q42 170 42 222Q42 271 55 313.5Q68 356 92.5 386.5Q117 417 152.5 434.5Q188 452 233 452Q276 452 309 436Q342 420 364.5 391Q387 362 398 322.5Q409 283 409 236V225H73Q73 130 118.5 75Q164 20 238 20Q289 20 327.5 48.5Q366 77 373 125ZM233 424Q200 424 172 411.5Q144 399 123.5 376.5Q103 354 90 322.5Q77 291 74 252H377Q376 285 367 316Q358 347 341 371Q324 395 297 409.5Q270 424 233 424Z" glyph-name="edieresis" horiz-adv-x="449" unicode="&#235;" /><glyph d="M404 120Q400 93 385.5 69.5Q371 46 349 28.5Q327 11 299 1.5Q271 -8 240 -8Q194 -8 157.5 8.5Q121 25 95.5 55Q70 85 56 127.5Q42 170 42 222Q42 271 55 313.5Q68 356 92.5 386.5Q117 417 152.5 434.5Q188 452 233 452Q276 452 309 436Q342 420 364.5 391Q387 362 398 322.5Q409 283 409 236V225H73Q73 130 118.5 75Q164 20 238 20Q289 20 327.5 48.5Q366 77 373 125ZM233 424Q200 424 172 411.5Q144 399 123.5 376.5Q103 354 90 322.5Q77 291 74 252H377Q376 285 367 316Q358 347 341 371Q324 395 297 409.5Q270 424 233 424ZM212 578Q212 601 235 601Q258 601 258 578Q258 555 235 555Q212 555 212 578Z" glyph-name="edotaccent" horiz-adv-x="449" unicode="&#279;" /><glyph d="M404 120Q400 93 385.5 69.5Q371 46 349 28.5Q327 11 299 1.5Q271 -8 240 -8Q194 -8 157.5 8.5Q121 25 95.5 55Q70 85 56 127.5Q42 170 42 222Q42 271 55 313.5Q68 356 92.5 386.5Q117 417 152.5 434.5Q188 452 233 452Q276 452 309 436Q342 420 364.5 391Q387 362 398 322.5Q409 283 409 236V225H73Q73 130 118.5 75Q164 20 238 20Q289 20 327.5 48.5Q366 77 373 125ZM233 424Q200 424 172 411.5Q144 399 123.5 376.5Q103 354 90 322.5Q77 291 74 252H377Q376 285 367 316Q358 347 341 371Q324 395 297 409.5Q270 424 233 424ZM219 523 134 650H167L252 523Z" glyph-name="egrave" horiz-adv-x="449" unicode="&#232;" /><glyph d="M238 20Q277 20 309 31.5Q341 43 364 63.5Q387 84 400 111Q413 138 413 168Q413 198 400 225Q387 252 364 272.5Q341 293 309 304.5Q277 316 238 316Q199 316 167 304.5Q135 293 112 272.5Q89 252 76.5 225Q64 198 64 168Q64 138 76.5 111Q89 84 112 63.5Q135 43 167 31.5Q199 20 238 20ZM238 344Q272 344 299 354Q326 364 345 381.5Q364 399 374.5 421.5Q385 444 385 469Q385 494 374.5 516.5Q364 539 345 556.5Q326 574 299 584Q272 594 238 594Q205 594 177.5 584Q150 574 131 556.5Q112 539 101.5 516.5Q91 494 91 469Q91 444 101.5 421.5Q112 399 131 381.5Q150 364 177.5 354Q205 344 238 344ZM238 -8Q193 -8 155.5 5.5Q118 19 91 43Q64 67 49 99Q34 131 34 168Q34 224 69.5 269Q105 314 166 331Q117 348 89 385.5Q61 423 61 469Q61 500 73.5 528Q86 556 109.5 577Q133 598 165.5 610Q198 622 238 622Q278 622 310.5 610Q343 598 366.5 577Q390 556 402.5 528Q415 500 415 469Q415 423 387 385.5Q359 348 310 331Q371 314 407 269Q443 224 443 168Q443 131 428 99Q413 67 385.5 43Q358 19 320.5 5.5Q283 -8 238 -8Z" glyph-name="eight" horiz-adv-x="477" unicode="8" /><glyph d="M138 -151Q176 -151 199 -130.5Q222 -110 222 -79Q222 -48 199 -27.5Q176 -7 138 -7Q101 -7 78 -27.5Q55 -48 55 -79Q55 -110 78 -130.5Q101 -151 138 -151ZM138 17Q170 17 189.5 34.5Q209 52 209 78Q209 104 189.5 122Q170 140 138 140Q107 140 87.5 122Q68 104 68 78Q68 52 87.5 34.5Q107 17 138 17ZM138 -175Q90 -175 59 -148.5Q28 -122 28 -80Q28 -49 47 -26Q66 -3 96 5Q71 14 56.5 33.5Q42 53 42 79Q42 115 69 139Q96 163 138 163Q181 163 208.5 139Q236 115 236 79Q236 53 221 33.5Q206 14 181 5Q211 -3 230 -26Q249 -49 249 -80Q249 -122 218 -148.5Q187 -175 138 -175Z" glyph-name="eight.inf" horiz-adv-x="277" unicode="&#58745;" /><glyph d="M259 20Q299 20 332 31.5Q365 43 389 63.5Q413 84 426 111Q439 138 439 168Q439 198 426 225Q413 252 389 272.5Q365 293 332 304.5Q299 316 259 316Q220 316 187 304.5Q154 293 130.5 272.5Q107 252 94 225Q81 198 81 168Q81 138 94 111Q107 84 130.5 63.5Q154 43 187 31.5Q220 20 259 20ZM259 344Q293 344 321 354Q349 364 369 381.5Q389 399 399.5 421.5Q410 444 410 469Q410 494 399.5 516.5Q389 539 369 556.5Q349 574 321 584Q293 594 259 594Q225 594 197.5 584Q170 574 150.5 556.5Q131 539 120 516.5Q109 494 109 469Q109 444 120 421.5Q131 399 150.5 381.5Q170 364 197.5 354Q225 344 259 344ZM259 -8Q213 -8 175 5.5Q137 19 109.5 43Q82 67 66.5 99Q51 131 51 168Q51 225 87 269.5Q123 314 186 331Q135 348 107 385.5Q79 423 79 469Q79 500 92 528Q105 556 128.5 577Q152 598 185 610Q218 622 259 622Q300 622 333.5 610Q367 598 390.5 577Q414 556 427 528Q440 500 440 469Q440 423 412 385.5Q384 348 333 331Q396 314 432.5 269.5Q469 225 469 168Q469 131 453.5 99Q438 67 410 43Q382 19 343.5 5.5Q305 -8 259 -8Z" glyph-name="eight.lt" horiz-adv-x="520" /><glyph d="M140 286H113V582L27 537V566L123 615H140ZM337 286H310V582L224 537V566L320 615H337ZM304 0H274L683 614H713ZM733 0H706V296L620 251V280L716 329H733ZM946 333Q988 333 1010.5 312Q1033 291 1039 258L1012 254Q1009 279 992.5 294Q976 309 944 309Q902 309 875 271Q848 233 848 166Q848 161 848 154.5Q848 148 849 143Q857 175 882.5 194.5Q908 214 940 214Q986 214 1016 182.5Q1046 151 1046 105Q1046 59 1016 27Q986 -5 939 -5Q906 -5 882.5 10.5Q859 26 845 52Q832 75 827 103Q822 131 822 160Q822 204 832 236.5Q842 269 858.5 290.5Q875 312 897.5 322.5Q920 333 946 333ZM857 105Q857 69 880 44.5Q903 20 939 20Q974 20 996.5 44Q1019 68 1019 105Q1019 142 996.5 166Q974 190 939 190Q904 190 880.5 166Q857 142 857 105Z" glyph-name="elevensixteenths" horiz-adv-x="1075" unicode="&#61984;" /><glyph d="M140 286H113V582L27 537V566L123 615H140ZM337 286H310V582L224 537V566L320 615H337ZM304 0H274L683 614H713ZM700 181H725Q754 181 773.5 197.5Q793 214 793 244Q793 272 774 290Q755 308 723 308Q691 308 671.5 290Q652 272 647 243L621 248Q626 284 652.5 308.5Q679 333 722 333Q768 333 794.5 308Q821 283 821 245Q821 216 803.5 195Q786 174 761 169Q789 164 808.5 143.5Q828 123 828 90Q828 51 799.5 23Q771 -5 722 -5Q676 -5 648.5 18.5Q621 42 616 83L643 88Q647 56 667 38Q687 20 722 20Q757 20 778.5 39Q800 58 800 90Q800 122 778 139.5Q756 157 726 157H700ZM1055 242Q1055 272 1036.5 290Q1018 308 986 308Q949 308 930.5 286.5Q912 265 909 232L882 236Q886 280 912 306.5Q938 333 986 333Q1031 333 1056.5 308Q1082 283 1082 242Q1082 210 1061.5 184Q1041 158 1016 131L918 25H1090V0H880V19L995 145Q1021 173 1038 194.5Q1055 216 1055 242Z" glyph-name="eleventhirtyseconds" horiz-adv-x="1114" /><glyph d="M36 21Q36 44 59 44Q82 44 82 21Q82 -2 59 -2Q36 -2 36 21ZM174 21Q174 44 197 44Q220 44 220 21Q220 -2 197 -2Q174 -2 174 21ZM312 21Q312 44 335 44Q358 44 358 21Q358 -2 335 -2Q312 -2 312 21Z" glyph-name="ellipsis" horiz-adv-x="394" unicode="&#8230;" /><glyph d="M139 569H332V542H139ZM404 120Q400 93 385.5 69.5Q371 46 349 28.5Q327 11 299 1.5Q271 -8 240 -8Q194 -8 157.5 8.5Q121 25 95.5 55Q70 85 56 127.5Q42 170 42 222Q42 271 55 313.5Q68 356 92.5 386.5Q117 417 152.5 434.5Q188 452 233 452Q276 452 309 436Q342 420 364.5 391Q387 362 398 322.5Q409 283 409 236V225H73Q73 130 118.5 75Q164 20 238 20Q289 20 327.5 48.5Q366 77 373 125ZM233 424Q200 424 172 411.5Q144 399 123.5 376.5Q103 354 90 322.5Q77 291 74 252H377Q376 285 367 316Q358 347 341 371Q324 395 297 409.5Q270 424 233 424Z" glyph-name="emacron" horiz-adv-x="449" unicode="&#275;" /><glyph d="M40 272H806V245H40Z" glyph-name="emdash" horiz-adv-x="846" unicode="&#8212;" /><glyph d="M40 312H806V285H40Z" glyph-name="emdash.cap" horiz-adv-x="846" unicode="&#58502;" /><glyph d="M40 272H435V245H40Z" glyph-name="endash" horiz-adv-x="475" unicode="&#8211;" /><glyph d="M40 312H435V285H40Z" glyph-name="endash.cap" horiz-adv-x="475" unicode="&#58500;" /><glyph d="M409 -74Q409 -128 382.5 -153Q356 -178 318 -178Q307 -178 300 -177Q293 -176 288 -174L293 -147Q296 -148 301.5 -149Q307 -150 315 -150Q329 -150 340.5 -147Q352 -144 360.5 -135Q369 -126 374 -110.5Q379 -95 379 -70V292Q379 348 349 385.5Q319 423 254 423Q228 423 205.5 414.5Q183 406 164 391.5Q145 377 130 358Q115 339 105 318V0H75V444H105V362Q126 398 165.5 425Q205 452 256 452Q332 452 370.5 409Q409 366 409 296Z" glyph-name="eng" horiz-adv-x="479" unicode="&#331;" /><glyph d="M404 120Q397 77 367 45Q337 13 293 0Q262 -12 238 -37Q214 -62 214 -98Q214 -125 231 -140Q248 -155 277 -155Q295 -155 309 -150.5Q323 -146 330 -142L336 -164Q329 -169 312.5 -174Q296 -179 275 -179Q231 -179 209.5 -155.5Q188 -132 188 -97Q188 -67 201.5 -45Q215 -23 235 -8Q190 -7 154.5 10Q119 27 94 57Q69 87 55.5 129Q42 171 42 222Q42 271 55 313.5Q68 356 92.5 386.5Q117 417 152.5 434.5Q188 452 233 452Q276 452 309 436Q342 420 364.5 391Q387 362 398 322.5Q409 283 409 236V225H73Q73 130 118.5 75Q164 20 238 20Q289 20 327.5 48.5Q366 77 373 125ZM233 424Q200 424 172 411.5Q144 399 123.5 376.5Q103 354 90 322.5Q77 291 74 252H377Q376 285 367 316Q358 347 341 371Q324 395 297 409.5Q270 424 233 424Z" glyph-name="eogonek" horiz-adv-x="449" unicode="&#281;" /><glyph d="M72 248H428V219H72ZM72 368H428V339H72Z" glyph-name="equal" horiz-adv-x="500" unicode="=" /><glyph d="M50 -35H250V-58H50ZM50 34H250V11H50Z" glyph-name="equal.inf" horiz-adv-x="299" unicode="&#58749;" /><glyph d="M82 248H438V219H82ZM82 368H438V339H82Z" glyph-name="equal.lt" horiz-adv-x="520" /><glyph d="M128 530 239 566Q197 608 143 646V650H180Q228 616 268 576L346 602L354 578L287 556Q350 487 387 401.5Q424 316 424 222Q424 171 410.5 128.5Q397 86 372 55.5Q347 25 311.5 8.5Q276 -8 233 -8Q190 -8 154.5 8.5Q119 25 94 55.5Q69 86 55.5 128.5Q42 171 42 222Q42 273 55.5 315.5Q69 358 94 388.5Q119 419 154.5 435.5Q190 452 233 452Q276 452 308.5 433.5Q341 415 365 384H367Q351 419 325 461Q299 503 258 546L137 506ZM393 222Q393 268 381.5 305Q370 342 349 368.5Q328 395 298.5 409.5Q269 424 233 424Q197 424 167.5 409.5Q138 395 117 368.5Q96 342 84.5 305Q73 268 73 222Q73 176 84.5 139Q96 102 117 75.5Q138 49 167.5 34.5Q197 20 233 20Q269 20 298.5 34.5Q328 49 349 75.5Q370 102 381.5 139Q393 176 393 222Z" glyph-name="eth" horiz-adv-x="466" unicode="&#240;" /><glyph d="M88 614H120L116 192H92ZM127 21Q127 -2 104 -2Q81 -2 81 21Q81 44 104 44Q127 44 127 21Z" glyph-name="exclam" horiz-adv-x="208" unicode="!" /><glyph d="M92 326H116L120 -96H88ZM127 497Q127 474 104 474Q81 474 81 497Q81 520 104 520Q127 520 127 497Z" glyph-name="exclamdown" horiz-adv-x="208" unicode="&#161;" /><glyph d="M92 422H116L120 0H88ZM127 593Q127 570 104 570Q81 570 81 593Q81 616 104 616Q127 616 127 593Z" glyph-name="exclamdown.cap" horiz-adv-x="208" unicode="&#58433;" /><glyph d="M256 620Q251 623 238.5 626.5Q226 630 211 630Q173 630 148.5 608Q124 586 124 534V444H231V416H124V0H94V416H24V444H94V538Q94 595 127 626.5Q160 658 211 658Q227 658 241 654.5Q255 651 261 647Z" glyph-name="f" horiz-adv-x="236" unicode="f" /><glyph d="M473 620Q468 623 455.5 626.5Q443 630 428 630Q390 630 365.5 608Q341 586 341 534V444H448V416H341V0H311V416H124V0H94V416H24V444H94V538Q94 595 127 626.5Q160 658 211 658Q227 658 241 654.5Q255 651 261 647L256 620Q251 623 238.5 626.5Q226 630 211 630Q173 630 148.5 608Q124 586 124 534V444H311V538Q311 595 344 626.5Q377 658 428 658Q444 658 458 654.5Q472 651 478 647Z" glyph-name="f_f" horiz-adv-x="453" unicode="&#64256;" /><glyph d="M256 620Q251 623 238.5 626.5Q226 630 211 630Q173 630 148.5 608Q124 586 124 534V444H231V416H124V0H94V416H24V444H94V538Q94 595 127 626.5Q160 658 211 658Q227 658 241 654.5Q255 651 261 647ZM140 710Q140 733 163 733Q186 733 186 710Q186 687 163 687Q140 687 140 710Z" glyph-name="fdotaccent" horiz-adv-x="236" unicode="&#7711;" /><glyph d="M256 620Q251 623 238.5 626.5Q226 630 211 630Q173 630 148.5 608Q124 586 124 534V444H231V416H124V0H94V416H24V444H94V538Q94 595 127 626.5Q160 658 211 658Q227 658 241 654.5Q255 651 261 647ZM341 0H311V444H341ZM349 578Q349 555 326 555Q303 555 303 578Q303 601 326 601Q349 601 349 578Z" glyph-name="fi" horiz-adv-x="416" unicode="&#64257;" /><glyph d="M140 286H113V582L27 537V566L123 615H140ZM331 470Q310 470 294 461Q278 452 267 439H243V614H418V589H268V470Q277 479 294 487Q311 495 333 495Q355 495 374 486.5Q393 478 406.5 464Q420 450 427.5 430Q435 410 435 388Q435 366 427 346.5Q419 327 404.5 312.5Q390 298 370 289.5Q350 281 327 281Q282 281 254 305Q226 329 221 371L247 376Q251 344 272.5 325Q294 306 327 306Q363 306 385.5 329.5Q408 353 408 388Q408 423 386.5 446.5Q365 470 331 470ZM373 0H343L752 614H782ZM802 0H775V296L689 251V280L785 329H802ZM1015 333Q1057 333 1079.5 312Q1102 291 1108 258L1081 254Q1078 279 1061.5 294Q1045 309 1013 309Q971 309 944 271Q917 233 917 166Q917 161 917 154.5Q917 148 918 143Q926 175 951.5 194.5Q977 214 1009 214Q1055 214 1085 182.5Q1115 151 1115 105Q1115 59 1085 27Q1055 -5 1008 -5Q975 -5 951.5 10.5Q928 26 914 52Q901 75 896 103Q891 131 891 160Q891 204 901 236.5Q911 269 927.5 290.5Q944 312 966.5 322.5Q989 333 1015 333ZM926 105Q926 69 949 44.5Q972 20 1008 20Q1043 20 1065.5 44Q1088 68 1088 105Q1088 142 1065.5 166Q1043 190 1008 190Q973 190 949.5 166Q926 142 926 105Z" glyph-name="fifteensixteenths" horiz-adv-x="1144" unicode="&#61986;" /><glyph d="M140 286H113V582L27 537V566L123 615H140ZM331 470Q310 470 294 461Q278 452 267 439H243V614H418V589H268V470Q277 479 294 487Q311 495 333 495Q355 495 374 486.5Q393 478 406.5 464Q420 450 427.5 430Q435 410 435 388Q435 366 427 346.5Q419 327 404.5 312.5Q390 298 370 289.5Q350 281 327 281Q282 281 254 305Q226 329 221 371L247 376Q251 344 272.5 325Q294 306 327 306Q363 306 385.5 329.5Q408 353 408 388Q408 423 386.5 446.5Q365 470 331 470ZM373 0H343L752 614H782ZM769 181H794Q823 181 842.5 197.5Q862 214 862 244Q862 272 843 290Q824 308 792 308Q760 308 740.5 290Q721 272 716 243L690 248Q695 284 721.5 308.5Q748 333 791 333Q837 333 863.5 308Q890 283 890 245Q890 216 872.5 195Q855 174 830 169Q858 164 877.5 143.5Q897 123 897 90Q897 51 868.5 23Q840 -5 791 -5Q745 -5 717.5 18.5Q690 42 685 83L712 88Q716 56 736 38Q756 20 791 20Q826 20 847.5 39Q869 58 869 90Q869 122 847 139.5Q825 157 795 157H769ZM1124 242Q1124 272 1105.5 290Q1087 308 1055 308Q1018 308 999.5 286.5Q981 265 978 232L951 236Q955 280 981 306.5Q1007 333 1055 333Q1100 333 1125.5 308Q1151 283 1151 242Q1151 210 1130.5 184Q1110 158 1085 131L987 25H1159V0H949V19L1064 145Q1090 173 1107 194.5Q1124 216 1124 242Z" glyph-name="fifteenthirtyseconds" horiz-adv-x="1183" /><glyph d="M227 355Q185 355 152.5 337Q120 319 100 293H70V614H388V584H100V333Q119 353 152 368.5Q185 384 227 384Q268 384 303 368.5Q338 353 363.5 326Q389 299 403 263Q417 227 417 187Q417 147 402 111.5Q387 76 360 49.5Q333 23 296.5 7.5Q260 -8 217 -8Q136 -8 84 34.5Q32 77 23 155L52 161Q60 95 105.5 58Q151 21 217 21Q254 21 285 34Q316 47 338 69.5Q360 92 372.5 122Q385 152 385 187Q385 221 373 252Q361 283 340 305.5Q319 328 290 341.5Q261 355 227 355Z" glyph-name="five" horiz-adv-x="453" unicode="5" /><glyph d="M134 14Q113 14 97 5Q81 -4 70 -17H46V158H221V133H71V14Q80 23 97 31Q114 39 136 39Q158 39 177 30.5Q196 22 209.5 8Q223 -6 230.5 -26Q238 -46 238 -68Q238 -90 230 -109.5Q222 -129 207.5 -143.5Q193 -158 173 -166.5Q153 -175 130 -175Q85 -175 57 -151Q29 -127 24 -85L50 -80Q54 -112 75.5 -131Q97 -150 130 -150Q166 -150 188.5 -126.5Q211 -103 211 -68Q211 -33 189.5 -9.5Q168 14 134 14Z" glyph-name="five.inf" horiz-adv-x="266" unicode="&#58742;" /><glyph d="M258 355Q214 355 181 337Q148 319 127 293H97V614H426V584H127V331Q147 351 180.5 367.5Q214 384 258 384Q300 384 336.5 368.5Q373 353 399.5 326Q426 299 441 263Q456 227 456 187Q456 147 441 111.5Q426 76 399.5 49.5Q373 23 336.5 7.5Q300 -8 258 -8Q174 -8 122 32Q70 72 51 155L80 161Q97 86 141.5 53.5Q186 21 258 21Q293 21 323.5 34Q354 47 376.5 69.5Q399 92 411.5 122Q424 152 424 187Q424 221 411.5 252Q399 283 376.5 305.5Q354 328 323.5 341.5Q293 355 258 355Z" glyph-name="five.lt" horiz-adv-x="520" /><glyph d="M134 470Q113 470 97 461Q81 452 70 439H46V614H221V589H71V470Q80 479 97 487Q114 495 136 495Q158 495 177 486.5Q196 478 209.5 464Q223 450 230.5 430Q238 410 238 388Q238 366 230 346.5Q222 327 207.5 312.5Q193 298 173 289.5Q153 281 130 281Q85 281 57 305Q29 329 24 371L50 376Q54 344 75.5 325Q97 306 130 306Q166 306 188.5 329.5Q211 353 211 388Q211 423 189.5 446.5Q168 470 134 470ZM176 0H146L555 614H585ZM605 0H578V296L492 251V280L588 329H605ZM818 333Q860 333 882.5 312Q905 291 911 258L884 254Q881 279 864.5 294Q848 309 816 309Q774 309 747 271Q720 233 720 166Q720 161 720 154.5Q720 148 721 143Q729 175 754.5 194.5Q780 214 812 214Q858 214 888 182.5Q918 151 918 105Q918 59 888 27Q858 -5 811 -5Q778 -5 754.5 10.5Q731 26 717 52Q704 75 699 103Q694 131 694 160Q694 204 704 236.5Q714 269 730.5 290.5Q747 312 769.5 322.5Q792 333 818 333ZM729 105Q729 69 752 44.5Q775 20 811 20Q846 20 868.5 44Q891 68 891 105Q891 142 868.5 166Q846 190 811 190Q776 190 752.5 166Q729 142 729 105Z" glyph-name="fivesixteenths" horiz-adv-x="947" unicode="&#61975;" /><glyph d="M134 470Q113 470 97 461Q81 452 70 439H46V614H221V589H71V470Q80 479 97 487Q114 495 136 495Q158 495 177 486.5Q196 478 209.5 464Q223 450 230.5 430Q238 410 238 388Q238 366 230 346.5Q222 327 207.5 312.5Q193 298 173 289.5Q153 281 130 281Q85 281 57 305Q29 329 24 371L50 376Q54 344 75.5 325Q97 306 130 306Q166 306 188.5 329.5Q211 353 211 388Q211 423 189.5 446.5Q168 470 134 470ZM176 0H146L555 614H585ZM572 181H597Q626 181 645.5 197.5Q665 214 665 244Q665 272 646 290Q627 308 595 308Q563 308 543.5 290Q524 272 519 243L493 248Q498 284 524.5 308.5Q551 333 594 333Q640 333 666.5 308Q693 283 693 245Q693 216 675.5 195Q658 174 633 169Q661 164 680.5 143.5Q700 123 700 90Q700 51 671.5 23Q643 -5 594 -5Q548 -5 520.5 18.5Q493 42 488 83L515 88Q519 56 539 38Q559 20 594 20Q629 20 650.5 39Q672 58 672 90Q672 122 650 139.5Q628 157 598 157H572ZM927 242Q927 272 908.5 290Q890 308 858 308Q821 308 802.5 286.5Q784 265 781 232L754 236Q758 280 784 306.5Q810 333 858 333Q903 333 928.5 308Q954 283 954 242Q954 210 933.5 184Q913 158 888 131L790 25H962V0H752V19L867 145Q893 173 910 194.5Q927 216 927 242Z" glyph-name="fivethirtyseconds" horiz-adv-x="986" /><glyph d="M256 620Q251 623 238.5 626.5Q226 630 211 630Q173 630 148.5 608Q124 586 124 534V444H231V416H124V0H94V416H24V444H94V538Q94 595 127 626.5Q160 658 211 658Q227 658 241 654.5Q255 651 261 647ZM341 0H311V650H341Z" glyph-name="fl" horiz-adv-x="416" unicode="&#64258;" /><glyph d="M65 332H141L170 492Q180 548 210.5 585Q241 622 292 622Q323 622 349 610V580Q335 587 322 590.5Q309 594 292 594Q254 594 231.5 566Q209 538 200 488L172 332H280V306H168L105 -49Q100 -74 92 -96Q84 -118 71 -134.5Q58 -151 39 -160.5Q20 -170 -5 -170Q-35 -170 -60 -158V-128Q-46 -135 -34 -138.5Q-22 -142 -5 -142Q33 -142 50 -115Q67 -88 75 -45L137 306H65Z" glyph-name="florin" horiz-adv-x="369" unicode="&#402;" /><glyph d="M180 332H256L285 492Q295 548 325.5 585Q356 622 407 622Q438 622 464 610V580Q450 587 437 590.5Q424 594 407 594Q369 594 346.5 566Q324 538 315 488L287 332H395V306H283L220 -49Q215 -74 207 -96Q199 -118 186 -134.5Q173 -151 154 -160.5Q135 -170 110 -170Q80 -170 55 -158V-128Q69 -135 81 -138.5Q93 -142 110 -142Q148 -142 165 -115Q182 -88 190 -45L252 306H180Z" glyph-name="florin.lt" horiz-adv-x="520" /><glyph d="M57 189H313V344H343V189H464V159H343V0H313V159H20V186L265 614H299Z" glyph-name="four" horiz-adv-x="494" unicode="4" /><glyph d="M53 -65H175V16H202V-65H263V-90H202V-170H175V-90H21V-68L150 158H179Z" glyph-name="four.inf" horiz-adv-x="288" unicode="&#58741;" /><glyph d="M75 189H331V344H361V189H482V159H361V0H331V159H38V186L283 614H317Z" glyph-name="four.lt" horiz-adv-x="520" /><glyph d="M-90 0H-120L289 614H319Z" glyph-name="fraction" horiz-adv-x="199" unicode="&#8260;" /><glyph d="M374 86Q364 70 349 55Q334 40 315 28Q296 16 274 9Q252 2 228 2Q180 2 144.5 20.5Q109 39 86.5 70Q64 101 53 141.5Q42 182 42 227Q42 272 53 312.5Q64 353 86.5 384Q109 415 144.5 433.5Q180 452 228 452Q252 452 274 445Q296 438 315 426Q334 414 349 399Q364 384 374 368V444H404V24Q404 -78 354 -128.5Q304 -179 223 -179Q145 -179 101 -145Q57 -111 48 -54L78 -49Q86 -100 124 -125.5Q162 -151 222 -151Q294 -151 334 -108.5Q374 -66 374 23ZM374 324Q348 372 310 397.5Q272 423 228 423Q191 423 162.5 408.5Q134 394 114 368Q94 342 83.5 306Q73 270 73 227Q73 184 83.5 148Q94 112 114 86Q134 60 162.5 45.5Q191 31 228 31Q272 31 310 56.5Q348 82 374 130Z" glyph-name="g" horiz-adv-x="479" unicode="g" /><glyph d="M374 86Q364 70 349 55Q334 40 315 28Q296 16 274 9Q252 2 228 2Q180 2 144.5 20.5Q109 39 86.5 70Q64 101 53 141.5Q42 182 42 227Q42 272 53 312.5Q64 353 86.5 384Q109 415 144.5 433.5Q180 452 228 452Q252 452 274 445Q296 438 315 426Q334 414 349 399Q364 384 374 368V444H404V24Q404 -78 354 -128.5Q304 -179 223 -179Q145 -179 101 -145Q57 -111 48 -54L78 -49Q86 -100 124 -125.5Q162 -151 222 -151Q294 -151 334 -108.5Q374 -66 374 23ZM374 324Q348 372 310 397.5Q272 423 228 423Q191 423 162.5 408.5Q134 394 114 368Q94 342 83.5 306Q73 270 73 227Q73 184 83.5 148Q94 112 114 86Q134 60 162.5 45.5Q191 31 228 31Q272 31 310 56.5Q348 82 374 130ZM233 510Q193 510 166.5 539Q140 568 140 624H167Q167 581 185.5 558Q204 535 233 535Q262 535 280.5 558Q299 581 299 624H326Q326 568 299.5 539Q273 510 233 510Z" glyph-name="gbreve" horiz-adv-x="479" unicode="&#287;" /><glyph d="M337 516H306L233 619L160 516H129L220 643H246ZM374 86Q364 70 349 55Q334 40 315 28Q296 16 274 9Q252 2 228 2Q180 2 144.5 20.5Q109 39 86.5 70Q64 101 53 141.5Q42 182 42 227Q42 272 53 312.5Q64 353 86.5 384Q109 415 144.5 433.5Q180 452 228 452Q252 452 274 445Q296 438 315 426Q334 414 349 399Q364 384 374 368V444H404V24Q404 -78 354 -128.5Q304 -179 223 -179Q145 -179 101 -145Q57 -111 48 -54L78 -49Q86 -100 124 -125.5Q162 -151 222 -151Q294 -151 334 -108.5Q374 -66 374 23ZM374 324Q348 372 310 397.5Q272 423 228 423Q191 423 162.5 408.5Q134 394 114 368Q94 342 83.5 306Q73 270 73 227Q73 184 83.5 148Q94 112 114 86Q134 60 162.5 45.5Q191 31 228 31Q272 31 310 56.5Q348 82 374 130Z" glyph-name="gcircumflex" horiz-adv-x="479" unicode="&#285;" /><glyph d="M269 623Q246 617 233 605Q220 593 220 568Q222 569 224.5 569Q227 569 229 569Q252 569 252 546Q252 523 229 523H227Q201 525 201 557Q201 592 217.5 611Q234 630 266 638ZM374 86Q364 70 349 55Q334 40 315 28Q296 16 274 9Q252 2 228 2Q180 2 144.5 20.5Q109 39 86.5 70Q64 101 53 141.5Q42 182 42 227Q42 272 53 312.5Q64 353 86.5 384Q109 415 144.5 433.5Q180 452 228 452Q252 452 274 445Q296 438 315 426Q334 414 349 399Q364 384 374 368V444H404V24Q404 -78 354 -128.5Q304 -179 223 -179Q145 -179 101 -145Q57 -111 48 -54L78 -49Q86 -100 124 -125.5Q162 -151 222 -151Q294 -151 334 -108.5Q374 -66 374 23ZM374 324Q348 372 310 397.5Q272 423 228 423Q191 423 162.5 408.5Q134 394 114 368Q94 342 83.5 306Q73 270 73 227Q73 184 83.5 148Q94 112 114 86Q134 60 162.5 45.5Q191 31 228 31Q272 31 310 56.5Q348 82 374 130Z" glyph-name="gcommaaccent" horiz-adv-x="479" unicode="&#291;" /><glyph d="M210 578Q210 601 233 601Q256 601 256 578Q256 555 233 555Q210 555 210 578ZM374 86Q364 70 349 55Q334 40 315 28Q296 16 274 9Q252 2 228 2Q180 2 144.5 20.5Q109 39 86.5 70Q64 101 53 141.5Q42 182 42 227Q42 272 53 312.5Q64 353 86.5 384Q109 415 144.5 433.5Q180 452 228 452Q252 452 274 445Q296 438 315 426Q334 414 349 399Q364 384 374 368V444H404V24Q404 -78 354 -128.5Q304 -179 223 -179Q145 -179 101 -145Q57 -111 48 -54L78 -49Q86 -100 124 -125.5Q162 -151 222 -151Q294 -151 334 -108.5Q374 -66 374 23ZM374 324Q348 372 310 397.5Q272 423 228 423Q191 423 162.5 408.5Q134 394 114 368Q94 342 83.5 306Q73 270 73 227Q73 184 83.5 148Q94 112 114 86Q134 60 162.5 45.5Q191 31 228 31Q272 31 310 56.5Q348 82 374 130Z" glyph-name="gdotaccent" horiz-adv-x="479" unicode="&#289;" /><glyph d="M287 372Q317 369 346 356.5Q375 344 398.5 321Q422 298 436.5 264.5Q451 231 451 187Q451 142 437.5 105.5Q424 69 400 44Q376 19 342.5 5.5Q309 -8 269 -8Q240 -8 216 -2Q192 4 169 15L174 43Q199 30 220.5 25Q242 20 269 20Q338 20 379 63.5Q420 107 420 187Q420 227 406 258.5Q392 290 367 312Q342 334 308 345Q274 356 234 356H190V384H234Q262 384 286 394Q310 404 327 421.5Q344 439 354 462.5Q364 486 364 513Q364 562 332.5 596Q301 630 243 630Q175 630 140 585.5Q105 541 105 469V0H75V470Q75 509 85.5 543Q96 577 117 602.5Q138 628 169.5 643Q201 658 243 658Q278 658 306.5 646.5Q335 635 354.5 615Q374 595 384.5 569Q395 543 395 513Q395 484 386 461Q377 438 362 420.5Q347 403 327.5 391Q308 379 287 372Z" glyph-name="germandbls" horiz-adv-x="494" unicode="&#223;" /><glyph d="M276 523 191 650H224L309 523Z" glyph-name="grave" horiz-adv-x="500" unicode="`" /><glyph d="M276 663 191 780H224L309 663Z" glyph-name="grave.cap" horiz-adv-x="500" unicode="&#58401;" /><glyph d="M324 279 65 130V162L293 291L65 420V452L324 303Z" glyph-name="greater" horiz-adv-x="379" unicode="&gt;" /><glyph d="M389 279 130 130V162L358 291L130 420V452L389 303Z" glyph-name="greater.lt" horiz-adv-x="520" /><glyph d="M325 309 66 197V227L286 321L66 414V445L325 333ZM325 126H66V155H325Z" glyph-name="greaterequal" horiz-adv-x="379" unicode="&#8805;" /><glyph d="M389 309 130 197V227L350 321L130 414V445L389 333ZM389 126H130V155H389Z" glyph-name="greaterequal.lt" horiz-adv-x="520" /><glyph d="M117 94 25 222 117 350H150L58 222L150 94ZM224 94 132 222 224 350H257L165 222L257 94Z" glyph-name="guillemotleft" horiz-adv-x="282" unicode="&#171;" /><glyph d="M117 184 25 312 117 440H150L58 312L150 184ZM224 184 132 312 224 440H257L165 312L257 184Z" glyph-name="guillemotleft.cap" horiz-adv-x="282" unicode="&#58451;" /><glyph d="M132 94 224 222 132 350H165L257 222L165 94ZM25 94 117 222 25 350H58L150 222L58 94Z" glyph-name="guillemotright" horiz-adv-x="282" unicode="&#187;" /><glyph d="M132 184 224 312 132 440H165L257 312L165 184ZM25 184 117 312 25 440H58L150 312L58 184Z" glyph-name="guillemotright.cap" horiz-adv-x="282" unicode="&#58452;" /><glyph d="M117 94 25 222 117 350H150L58 222L150 94Z" glyph-name="guilsinglleft" horiz-adv-x="175" unicode="&#8249;" /><glyph d="M117 184 25 312 117 440H150L58 312L150 184Z" glyph-name="guilsinglleft.cap" horiz-adv-x="175" unicode="&#58449;" /><glyph d="M25 94 117 222 25 350H58L150 222L58 94Z" glyph-name="guilsinglright" horiz-adv-x="175" unicode="&#8250;" /><glyph d="M25 184 117 312 25 440H58L150 312L58 184Z" glyph-name="guilsinglright.cap" horiz-adv-x="175" unicode="&#58450;" /><glyph d="M75 650H105V362Q126 398 165.5 425Q205 452 256 452Q332 452 370.5 409Q409 366 409 296V0H379V292Q379 348 349 385.5Q319 423 254 423Q228 423 205.5 414.5Q183 406 164 391.5Q145 377 130 358Q115 339 105 318V0H75Z" glyph-name="h" horiz-adv-x="479" unicode="h" /><glyph d="M25 552H75V650H105V552H226V527H105V362Q126 398 165.5 425Q205 452 256 452Q332 452 370.5 409Q409 366 409 296V0H379V292Q379 348 349 385.5Q319 423 254 423Q228 423 205.5 414.5Q183 406 164 391.5Q145 377 130 358Q115 339 105 318V0H75V527H25Z" glyph-name="hbar" horiz-adv-x="479" unicode="&#295;" /><glyph d="M75 650H105V362Q126 398 165.5 425Q205 452 256 452Q332 452 370.5 409Q409 366 409 296V0H379V292Q379 348 349 385.5Q319 423 254 423Q228 423 205.5 414.5Q183 406 164 391.5Q145 377 130 358Q115 339 105 318V0H75ZM346 666H315L242 758L169 666H138L229 783H255Z" glyph-name="hcircumflex" horiz-adv-x="479" unicode="&#293;" /><glyph d="M143 523 222 650H253L174 523ZM246 523 325 650H356L277 523Z" glyph-name="hungarumlaut" horiz-adv-x="500" unicode="&#733;" /><glyph d="M143 663 222 780H253L174 663ZM246 663 325 780H356L277 663Z" glyph-name="hungarumlaut.cap" horiz-adv-x="500" unicode="&#58411;" /><glyph d="M40 273H281V244H40Z" glyph-name="hyphen" horiz-adv-x="321" unicode="-" /><glyph d="M40 313H281V284H40Z" glyph-name="hyphen.cap" horiz-adv-x="321" unicode="&#58498;" /><glyph d="M105 0H75V444H105ZM113 578Q113 555 90 555Q67 555 67 578Q67 601 90 601Q113 601 113 578Z" glyph-name="i" horiz-adv-x="180" unicode="i" /><glyph d="M77 523 162 650H195L110 523ZM105 0H75V444H105Z" glyph-name="iacute" horiz-adv-x="180" unicode="&#237;" /><glyph d="M91 510Q56 510 32.5 539Q9 568 9 624H35Q35 581 50.5 558Q66 535 91 535Q116 535 131.5 558Q147 581 147 624H173Q173 568 149.5 539Q126 510 91 510ZM105 0H75V444H105Z" glyph-name="ibreve" horiz-adv-x="180" unicode="&#301;" /><glyph d="M174 516H144L90 616L36 516H6L77 643H103ZM105 0H75V444H105Z" glyph-name="icircumflex" horiz-adv-x="180" unicode="&#238;" /><glyph d="M105 0H75V444H105ZM10 570Q10 593 33 593Q56 593 56 570Q56 547 33 547Q10 547 10 570ZM124 570Q124 593 147 593Q170 593 170 570Q170 547 147 547Q124 547 124 570Z" glyph-name="idieresis" horiz-adv-x="180" unicode="&#239;" /><glyph d="M105 0H75V444H105ZM67 578Q67 601 90 601Q113 601 113 578Q113 555 90 555Q67 555 67 578Z" glyph-name="idotaccent" horiz-adv-x="180" unicode="&#59269;" /><glyph d="M105 0H75V444H105ZM71 523 -14 650H19L104 523Z" glyph-name="igrave" horiz-adv-x="180" unicode="&#236;" /><glyph d="M113 570Q113 547 90 547Q67 547 67 570Q67 593 90 593Q113 593 113 570ZM105 0H75V444H105ZM219 -74Q219 -128 192.5 -153Q166 -178 128 -178Q117 -178 110 -177Q103 -176 98 -174L103 -147Q106 -148 111.5 -149Q117 -150 125 -150Q139 -150 150.5 -147Q162 -144 170.5 -135Q179 -126 184 -110.5Q189 -95 189 -70V444H219ZM227 570Q227 547 204 547Q181 547 181 570Q181 593 204 593Q227 593 227 570Z" glyph-name="ij" horiz-adv-x="294" unicode="&#307;" /><glyph d="M105 0H75V444H105ZM20 569H163V542H20Z" glyph-name="imacron" horiz-adv-x="180" unicode="&#299;" /><glyph d="M105 0Q74 -12 53 -37Q32 -62 32 -98Q32 -125 46.5 -140Q61 -155 90 -155Q108 -155 122 -150.5Q136 -146 143 -142L149 -164Q142 -169 125.5 -174Q109 -179 88 -179Q44 -179 25 -155.5Q6 -132 6 -97Q6 -57 26 -31Q46 -5 75 9V444H105ZM113 578Q113 555 90 555Q67 555 67 578Q67 601 90 601Q113 601 113 578Z" glyph-name="iogonek" horiz-adv-x="180" unicode="&#303;" /><glyph d="M180 619Q180 575 168 549.5Q156 524 133 524Q118 524 106.5 535Q95 546 85 559Q75 572 66.5 583Q58 594 48 594Q34 594 28.5 575.5Q23 557 23 527H0Q0 570 12 596Q24 622 47 622Q62 622 73.5 611Q85 600 95 587Q105 574 113.5 563Q122 552 132 552Q146 552 151.5 570.5Q157 589 157 619ZM105 0H75V444H105Z" glyph-name="itilde" horiz-adv-x="180" unicode="&#297;" /><glyph d="M105 -74Q105 -128 78.5 -153Q52 -178 14 -178Q3 -178 -4 -177Q-11 -176 -16 -174L-11 -147Q-8 -148 -2.5 -149Q3 -150 11 -150Q25 -150 36.5 -147Q48 -144 56.5 -135Q65 -126 70 -110.5Q75 -95 75 -70V444H105ZM113 578Q113 555 90 555Q67 555 67 578Q67 601 90 601Q113 601 113 578Z" glyph-name="j" horiz-adv-x="180" unicode="j" /><glyph d="M174 516H144L90 616L36 516H6L77 643H103ZM105 -74Q105 -128 78.5 -153Q52 -178 14 -178Q3 -178 -4 -177Q-11 -176 -16 -174L-11 -147Q-8 -148 -2.5 -149Q3 -150 11 -150Q25 -150 36.5 -147Q48 -144 56.5 -135Q65 -126 70 -110.5Q75 -95 75 -70V444H105Z" glyph-name="jcircumflex" horiz-adv-x="180" unicode="&#309;" /><glyph d="M165 234 105 182V0H75V650H105V218L363 444H406L187 253L413 0H375Z" glyph-name="k" horiz-adv-x="433" unicode="k" /><glyph d="M182 -159Q205 -153 218 -141Q231 -129 231 -104Q229 -105 226.5 -105Q224 -105 222 -105Q199 -105 199 -82Q199 -59 222 -59H224Q250 -61 250 -93Q250 -128 233.5 -147Q217 -166 185 -174ZM165 234 105 182V0H75V650H105V218L363 444H406L187 253L413 0H375Z" glyph-name="kcommaaccent" horiz-adv-x="433" unicode="&#311;" /><glyph d="M165 234 105 182V0H75V444H105V218L363 444H406L187 253L413 0H375Z" glyph-name="kgreenlandic" horiz-adv-x="433" unicode="&#312;" /><glyph d="M105 0H75V650H105Z" glyph-name="l" horiz-adv-x="180" unicode="l" /><glyph d="M75 683 160 800H193L108 683ZM105 0H75V650H105Z" glyph-name="lacute" horiz-adv-x="180" unicode="&#314;" /><glyph d="M166 493 198 650H224L192 493ZM105 0H75V650H105Z" glyph-name="lcaron" horiz-adv-x="180" unicode="&#318;" /><glyph d="M44 -159Q67 -153 80 -141Q93 -129 93 -104Q91 -105 88.5 -105Q86 -105 84 -105Q61 -105 61 -82Q61 -59 84 -59H86Q112 -61 112 -93Q112 -128 95.5 -147Q79 -166 47 -174ZM105 0H75V650H105Z" glyph-name="lcommaaccent" horiz-adv-x="180" unicode="&#316;" /><glyph d="M105 0H75V650H105ZM203 324Q203 347 226 347Q249 347 249 324Q249 301 226 301Q203 301 203 324Z" glyph-name="ldot" horiz-adv-x="180" unicode="&#320;" /><glyph d="M55 303 314 452V420L86 291L314 162V130L55 279Z" glyph-name="less" horiz-adv-x="379" unicode="&lt;" /><glyph d="M130 303 389 452V420L161 291L389 162V130L130 279Z" glyph-name="less.lt" horiz-adv-x="520" /><glyph d="M54 333 313 445V414L93 321L313 227V197L54 309ZM54 155H313V126H54Z" glyph-name="lessequal" horiz-adv-x="379" unicode="&#8804;" /><glyph d="M130 333 389 445V414L169 321L389 227V197L130 309ZM130 155H389V126H130Z" glyph-name="lessequal.lt" horiz-adv-x="520" /><glyph d="M125 401 195 452V418L125 367V0H95V347L30 300V334L95 381V650H125Z" glyph-name="lslash" horiz-adv-x="220" unicode="&#322;" /><glyph d="M366 358Q375 376 389 392.5Q403 409 421 422.5Q439 436 461 444Q483 452 507 452Q574 452 606.5 410Q639 368 639 304V0H609V300Q609 356 584 389.5Q559 423 505 423Q458 423 423.5 392.5Q389 362 372 320V0H342V300Q342 356 317 389.5Q292 423 238 423Q191 423 156.5 392.5Q122 362 105 320V0H75V444H105V364Q122 399 157 425.5Q192 452 240 452Q292 452 323.5 426Q355 400 366 358Z" glyph-name="m" horiz-adv-x="709" unicode="m" /><glyph d="M153 569H346V542H153Z" glyph-name="macron" horiz-adv-x="500" unicode="&#175;" /><glyph d="M153 697H346V670H153Z" glyph-name="macron.cap" horiz-adv-x="500" unicode="&#58405;" /><glyph d="M366 358Q375 376 389 392.5Q403 409 421 422.5Q439 436 461 444Q483 452 507 452Q574 452 606.5 410Q639 368 639 304V0H609V300Q609 356 584 389.5Q559 423 505 423Q458 423 423.5 392.5Q389 362 372 320V0H342V300Q342 356 317 389.5Q292 423 238 423Q191 423 156.5 392.5Q122 362 105 320V0H75V444H105V364Q122 399 157 425.5Q192 452 240 452Q292 452 323.5 426Q355 400 366 358ZM334 578Q334 601 357 601Q380 601 380 578Q380 555 357 555Q334 555 334 578Z" glyph-name="mdotaccent" horiz-adv-x="709" unicode="&#7745;" /><glyph d="M70 307H425V278H70Z" glyph-name="minus" horiz-adv-x="495" unicode="&#8722;" /><glyph d="M48 -1H248V-24H48Z" glyph-name="minus.inf" horiz-adv-x="296" unicode="&#58748;" /><glyph d="M82 307H437V278H82Z" glyph-name="minus.lt" horiz-adv-x="520" /><glyph d="M71 412 91 431 211 309 331 431 351 412 231 290 351 168 331 149 211 270 91 149 71 168 192 290Z" glyph-name="multiply" horiz-adv-x="422" unicode="&#215;" /><glyph d="M120 412 140 431 260 309 380 431 400 412 280 290 400 168 380 149 260 270 140 149 120 168 241 290Z" glyph-name="multiply.lt" horiz-adv-x="520" /><glyph d="M75 444H105V362Q126 398 165.5 425Q205 452 256 452Q332 452 370.5 409Q409 366 409 296V0H379V292Q379 348 349 385.5Q319 423 254 423Q228 423 205.5 414.5Q183 406 164 391.5Q145 377 130 358Q115 339 105 318V0H75Z" glyph-name="n" horiz-adv-x="479" unicode="n" /><glyph d="M241 523 326 650H359L274 523ZM75 444H105V362Q126 398 165.5 425Q205 452 256 452Q332 452 370.5 409Q409 366 409 296V0H379V292Q379 348 349 385.5Q319 423 254 423Q228 423 205.5 414.5Q183 406 164 391.5Q145 377 130 358Q115 339 105 318V0H75Z" glyph-name="nacute" horiz-adv-x="479" unicode="&#324;" /><glyph d="M265 518H239L148 645H179L252 543L325 645H356ZM75 444H105V362Q126 398 165.5 425Q205 452 256 452Q332 452 370.5 409Q409 366 409 296V0H379V292Q379 348 349 385.5Q319 423 254 423Q228 423 205.5 414.5Q183 406 164 391.5Q145 377 130 358Q115 339 105 318V0H75Z" glyph-name="ncaron" horiz-adv-x="479" unicode="&#328;" /><glyph d="M203 -159Q226 -153 239 -141Q252 -129 252 -104Q250 -105 247.5 -105Q245 -105 243 -105Q220 -105 220 -82Q220 -59 243 -59H245Q271 -61 271 -93Q271 -128 254.5 -147Q238 -166 206 -174ZM75 444H105V362Q126 398 165.5 425Q205 452 256 452Q332 452 370.5 409Q409 366 409 296V0H379V292Q379 348 349 385.5Q319 423 254 423Q228 423 205.5 414.5Q183 406 164 391.5Q145 377 130 358Q115 339 105 318V0H75Z" glyph-name="ncommaaccent" horiz-adv-x="479" unicode="&#326;" /><glyph d="M220 -8Q180 -8 150 3Q120 14 99.5 33Q79 52 67 77.5Q55 103 50 132L80 137Q86 86 120 53.5Q154 21 220 21Q262 21 298.5 40Q335 59 361.5 96Q388 133 403 187.5Q418 242 418 313Q418 324 417.5 339.5Q417 355 415 370Q409 335 391.5 306.5Q374 278 349.5 258Q325 238 295 226.5Q265 215 233 215Q192 215 156 230.5Q120 246 93.5 273.5Q67 301 51.5 338Q36 375 36 418Q36 461 51.5 498.5Q67 536 93.5 563.5Q120 591 156 606.5Q192 622 233 622Q297 622 338 594.5Q379 567 403 522Q428 477 437.5 422Q447 367 447 313Q447 228 428 167Q409 106 377.5 67Q346 28 305 10Q264 -8 220 -8ZM399 418Q399 455 386.5 487Q374 519 351.5 542.5Q329 566 299 579.5Q269 593 233 593Q198 593 168 579.5Q138 566 115.5 543Q93 520 80 487.5Q67 455 67 418Q67 381 80 349Q93 317 115.5 294Q138 271 168 257.5Q198 244 233 244Q268 244 298.5 257.5Q329 271 351.5 294Q374 317 386.5 349Q399 381 399 418Z" glyph-name="nine" horiz-adv-x="491" unicode="9" /><glyph d="M129 -175Q87 -175 64.5 -153.5Q42 -132 36 -100L62 -95Q66 -120 82.5 -135.5Q99 -151 130 -151Q173 -151 200 -112.5Q227 -74 227 -7Q227 -3 227 3.5Q227 10 226 16Q218 -16 192.5 -36Q167 -56 135 -56Q112 -56 92.5 -47.5Q73 -39 59 -24Q45 -9 37 10.5Q29 30 29 53Q29 100 59 131.5Q89 163 136 163Q170 163 193 148Q216 133 230 107Q242 84 247 56Q252 28 252 -1Q252 -45 242.5 -78Q233 -111 216 -132.5Q199 -154 176.5 -164.5Q154 -175 129 -175ZM218 54Q218 90 194.5 114.5Q171 139 136 139Q101 139 78 115Q55 91 55 54Q55 16 78 -7.5Q101 -31 136 -31Q171 -31 194.5 -7.5Q218 16 218 54Z" glyph-name="nine.inf" horiz-adv-x="285" unicode="&#58746;" /><glyph d="M235 -8Q197 -8 166 2.5Q135 13 112.5 32Q90 51 76 76.5Q62 102 57 131L87 136Q98 85 133.5 53Q169 21 235 21Q276 21 312.5 40Q349 59 376.5 96.5Q404 134 420 188Q436 242 436 313Q436 339 433 369Q426 334 408.5 305.5Q391 277 366 257Q341 237 309.5 226Q278 215 244 215Q202 215 164.5 230.5Q127 246 99.5 273.5Q72 301 56 338Q40 375 40 418Q40 461 56 498.5Q72 536 99.5 563.5Q127 591 164.5 606.5Q202 622 244 622Q314 622 359 589.5Q404 557 429 506Q450 463 457.5 412.5Q465 362 465 313Q465 233 446.5 173Q428 113 396.5 73Q365 33 323.5 12.5Q282 -8 235 -8ZM417 418Q417 455 403.5 487Q390 519 367 542.5Q344 566 312.5 579.5Q281 593 244 593Q208 593 176.5 579.5Q145 566 121 543Q97 520 83.5 487.5Q70 455 70 418Q70 381 83.5 349Q97 317 121 294Q145 271 176.5 257.5Q208 244 244 244Q280 244 312 257.5Q344 271 367 294Q390 317 403.5 349Q417 381 417 418Z" glyph-name="nine.lt" horiz-adv-x="520" /><glyph d="M129 281Q87 281 64.5 302.5Q42 324 36 356L62 361Q66 336 82.5 320.5Q99 305 130 305Q173 305 200 343.5Q227 382 227 449Q227 453 227 459.5Q227 466 226 472Q218 440 192.5 420Q167 400 135 400Q112 400 92.5 408.5Q73 417 59 432Q45 447 37 466.5Q29 486 29 509Q29 556 59 587.5Q89 619 136 619Q170 619 193 604Q216 589 230 563Q242 540 247 512Q252 484 252 455Q252 411 242.5 378Q233 345 216 323.5Q199 302 176.5 291.5Q154 281 129 281ZM218 510Q218 546 194.5 570.5Q171 595 136 595Q101 595 78 571Q55 547 55 510Q55 472 78 448.5Q101 425 136 425Q171 425 194.5 448.5Q218 472 218 510ZM195 0H165L574 614H604ZM624 0H597V296L511 251V280L607 329H624ZM837 333Q879 333 901.5 312Q924 291 930 258L903 254Q900 279 883.5 294Q867 309 835 309Q793 309 766 271Q739 233 739 166Q739 161 739 154.5Q739 148 740 143Q748 175 773.5 194.5Q799 214 831 214Q877 214 907 182.5Q937 151 937 105Q937 59 907 27Q877 -5 830 -5Q797 -5 773.5 10.5Q750 26 736 52Q723 75 718 103Q713 131 713 160Q713 204 723 236.5Q733 269 749.5 290.5Q766 312 788.5 322.5Q811 333 837 333ZM748 105Q748 69 771 44.5Q794 20 830 20Q865 20 887.5 44Q910 68 910 105Q910 142 887.5 166Q865 190 830 190Q795 190 771.5 166Q748 142 748 105Z" glyph-name="ninesixteenths" horiz-adv-x="966" unicode="&#61977;" /><glyph d="M140 286H113V582L27 537V566L123 615H140ZM326 281Q284 281 261.5 302.5Q239 324 233 356L259 361Q263 336 279.5 320.5Q296 305 327 305Q370 305 397 343.5Q424 382 424 449Q424 453 424 459.5Q424 466 423 472Q415 440 389.5 420Q364 400 332 400Q309 400 289.5 408.5Q270 417 256 432Q242 447 234 466.5Q226 486 226 509Q226 556 256 587.5Q286 619 333 619Q367 619 390 604Q413 589 427 563Q439 540 444 512Q449 484 449 455Q449 411 439.5 378Q430 345 413 323.5Q396 302 373.5 291.5Q351 281 326 281ZM415 510Q415 546 391.5 570.5Q368 595 333 595Q298 595 275 571Q252 547 252 510Q252 472 275 448.5Q298 425 333 425Q368 425 391.5 448.5Q415 472 415 510ZM392 0H362L771 614H801ZM788 181H813Q842 181 861.5 197.5Q881 214 881 244Q881 272 862 290Q843 308 811 308Q779 308 759.5 290Q740 272 735 243L709 248Q714 284 740.5 308.5Q767 333 810 333Q856 333 882.5 308Q909 283 909 245Q909 216 891.5 195Q874 174 849 169Q877 164 896.5 143.5Q916 123 916 90Q916 51 887.5 23Q859 -5 810 -5Q764 -5 736.5 18.5Q709 42 704 83L731 88Q735 56 755 38Q775 20 810 20Q845 20 866.5 39Q888 58 888 90Q888 122 866 139.5Q844 157 814 157H788ZM1143 242Q1143 272 1124.5 290Q1106 308 1074 308Q1037 308 1018.5 286.5Q1000 265 997 232L970 236Q974 280 1000 306.5Q1026 333 1074 333Q1119 333 1144.5 308Q1170 283 1170 242Q1170 210 1149.5 184Q1129 158 1104 131L1006 25H1178V0H968V19L1083 145Q1109 173 1126 194.5Q1143 216 1143 242Z" glyph-name="nineteenthirtyseconds" horiz-adv-x="1202" /><glyph d="M129 281Q87 281 64.5 302.5Q42 324 36 356L62 361Q66 336 82.5 320.5Q99 305 130 305Q173 305 200 343.5Q227 382 227 449Q227 453 227 459.5Q227 466 226 472Q218 440 192.5 420Q167 400 135 400Q112 400 92.5 408.5Q73 417 59 432Q45 447 37 466.5Q29 486 29 509Q29 556 59 587.5Q89 619 136 619Q170 619 193 604Q216 589 230 563Q242 540 247 512Q252 484 252 455Q252 411 242.5 378Q233 345 216 323.5Q199 302 176.5 291.5Q154 281 129 281ZM218 510Q218 546 194.5 570.5Q171 595 136 595Q101 595 78 571Q55 547 55 510Q55 472 78 448.5Q101 425 136 425Q171 425 194.5 448.5Q218 472 218 510ZM195 0H165L574 614H604ZM591 181H616Q645 181 664.5 197.5Q684 214 684 244Q684 272 665 290Q646 308 614 308Q582 308 562.5 290Q543 272 538 243L512 248Q517 284 543.5 308.5Q570 333 613 333Q659 333 685.5 308Q712 283 712 245Q712 216 694.5 195Q677 174 652 169Q680 164 699.5 143.5Q719 123 719 90Q719 51 690.5 23Q662 -5 613 -5Q567 -5 539.5 18.5Q512 42 507 83L534 88Q538 56 558 38Q578 20 613 20Q648 20 669.5 39Q691 58 691 90Q691 122 669 139.5Q647 157 617 157H591ZM946 242Q946 272 927.5 290Q909 308 877 308Q840 308 821.5 286.5Q803 265 800 232L773 236Q777 280 803 306.5Q829 333 877 333Q922 333 947.5 308Q973 283 973 242Q973 210 952.5 184Q932 158 907 131L809 25H981V0H771V19L886 145Q912 173 929 194.5Q946 216 946 242Z" glyph-name="ninethirtyseconds" horiz-adv-x="1005" /><glyph d="M72 367H292L363 454H398L327 367H428V339H305L231 248H428V220H208L137 132H102L173 220H72V248H196L270 339H72Z" glyph-name="notequal" horiz-adv-x="500" unicode="&#8800;" /><glyph d="M82 367H302L373 454H408L337 367H438V339H315L241 248H438V220H218L147 132H112L183 220H82V248H206L280 339H82Z" glyph-name="notequal.lt" horiz-adv-x="520" /><glyph d="M75 444H105V362Q126 398 165.5 425Q205 452 256 452Q332 452 370.5 409Q409 366 409 296V0H379V292Q379 348 349 385.5Q319 423 254 423Q228 423 205.5 414.5Q183 406 164 391.5Q145 377 130 358Q115 339 105 318V0H75ZM368 619Q368 575 352 549.5Q336 524 305 524Q285 524 270.5 535Q256 546 244 559Q232 572 220.5 583Q209 594 195 594Q176 594 166.5 575.5Q157 557 157 527H131Q131 570 147 596Q163 622 194 622Q214 622 228.5 611Q243 600 255 587Q267 574 278.5 563Q290 552 304 552Q323 552 332.5 570.5Q342 589 342 619Z" glyph-name="ntilde" horiz-adv-x="479" unicode="&#241;" /><glyph d="M455 202H351L303 0H275L323 202H155L107 0H80L128 202H30L36 228H134L171 386H69L74 412H177L226 614H254L205 412H373L422 614H449L401 412H499L493 386H395L357 228H460ZM161 228H329L367 386H199Z" glyph-name="numbersign" horiz-adv-x="529" unicode="#" /><glyph d="M424 222Q424 171 410.5 128.5Q397 86 372 55.5Q347 25 311.5 8.5Q276 -8 233 -8Q190 -8 154.5 8.5Q119 25 94 55.5Q69 86 55.5 128.5Q42 171 42 222Q42 273 55.5 315.5Q69 358 94 388.5Q119 419 154.5 435.5Q190 452 233 452Q276 452 311.5 435.5Q347 419 372 388.5Q397 358 410.5 315.5Q424 273 424 222ZM393 222Q393 268 381.5 305Q370 342 349 368.5Q328 395 298.5 409.5Q269 424 233 424Q197 424 167.5 409.5Q138 395 117 368.5Q96 342 84.5 305Q73 268 73 222Q73 176 84.5 139Q96 102 117 75.5Q138 49 167.5 34.5Q197 20 233 20Q269 20 298.5 34.5Q328 49 349 75.5Q370 102 381.5 139Q393 176 393 222Z" glyph-name="o" horiz-adv-x="466" unicode="o" /><glyph d="M233 20Q269 20 298.5 34.5Q328 49 349 75.5Q370 102 381.5 139Q393 176 393 222Q393 268 381.5 305Q370 342 349 368.5Q328 395 298.5 409.5Q269 424 233 424Q197 424 167.5 409.5Q138 395 117 368.5Q96 342 84.5 305Q73 268 73 222Q73 176 84.5 139Q96 102 117 75.5Q138 49 167.5 34.5Q197 20 233 20ZM252 523H219L304 650H337ZM424 222Q424 171 410.5 128.5Q397 86 372 55.5Q347 25 311.5 8.5Q276 -8 233 -8Q190 -8 154.5 8.5Q119 25 94 55.5Q69 86 55.5 128.5Q42 171 42 222Q42 273 55.5 315.5Q69 358 94 388.5Q119 419 154.5 435.5Q190 452 233 452Q276 452 311.5 435.5Q347 419 372 388.5Q397 358 410.5 315.5Q424 273 424 222Z" glyph-name="oacute" horiz-adv-x="466" unicode="&#243;" /><glyph d="M424 222Q424 171 410.5 128.5Q397 86 372 55.5Q347 25 311.5 8.5Q276 -8 233 -8Q190 -8 154.5 8.5Q119 25 94 55.5Q69 86 55.5 128.5Q42 171 42 222Q42 273 55.5 315.5Q69 358 94 388.5Q119 419 154.5 435.5Q190 452 233 452Q276 452 311.5 435.5Q347 419 372 388.5Q397 358 410.5 315.5Q424 273 424 222ZM393 222Q393 268 381.5 305Q370 342 349 368.5Q328 395 298.5 409.5Q269 424 233 424Q197 424 167.5 409.5Q138 395 117 368.5Q96 342 84.5 305Q73 268 73 222Q73 176 84.5 139Q96 102 117 75.5Q138 49 167.5 34.5Q197 20 233 20Q269 20 298.5 34.5Q328 49 349 75.5Q370 102 381.5 139Q393 176 393 222ZM233 510Q193 510 166.5 539Q140 568 140 624H167Q167 581 185.5 558Q204 535 233 535Q262 535 280.5 558Q299 581 299 624H326Q326 568 299.5 539Q273 510 233 510Z" glyph-name="obreve" horiz-adv-x="466" unicode="&#335;" /><glyph d="M337 516H306L233 619L160 516H129L220 643H246ZM424 222Q424 171 410.5 128.5Q397 86 372 55.5Q347 25 311.5 8.5Q276 -8 233 -8Q190 -8 154.5 8.5Q119 25 94 55.5Q69 86 55.5 128.5Q42 171 42 222Q42 273 55.5 315.5Q69 358 94 388.5Q119 419 154.5 435.5Q190 452 233 452Q276 452 311.5 435.5Q347 419 372 388.5Q397 358 410.5 315.5Q424 273 424 222ZM393 222Q393 268 381.5 305Q370 342 349 368.5Q328 395 298.5 409.5Q269 424 233 424Q197 424 167.5 409.5Q138 395 117 368.5Q96 342 84.5 305Q73 268 73 222Q73 176 84.5 139Q96 102 117 75.5Q138 49 167.5 34.5Q197 20 233 20Q269 20 298.5 34.5Q328 49 349 75.5Q370 102 381.5 139Q393 176 393 222Z" glyph-name="ocircumflex" horiz-adv-x="466" unicode="&#244;" /><glyph d="M153 570Q153 593 176 593Q199 593 199 570Q199 547 176 547Q153 547 153 570ZM267 570Q267 593 290 593Q313 593 313 570Q313 547 290 547Q267 547 267 570ZM424 222Q424 171 410.5 128.5Q397 86 372 55.5Q347 25 311.5 8.5Q276 -8 233 -8Q190 -8 154.5 8.5Q119 25 94 55.5Q69 86 55.5 128.5Q42 171 42 222Q42 273 55.5 315.5Q69 358 94 388.5Q119 419 154.5 435.5Q190 452 233 452Q276 452 311.5 435.5Q347 419 372 388.5Q397 358 410.5 315.5Q424 273 424 222ZM393 222Q393 268 381.5 305Q370 342 349 368.5Q328 395 298.5 409.5Q269 424 233 424Q197 424 167.5 409.5Q138 395 117 368.5Q96 342 84.5 305Q73 268 73 222Q73 176 84.5 139Q96 102 117 75.5Q138 49 167.5 34.5Q197 20 233 20Q269 20 298.5 34.5Q328 49 349 75.5Q370 102 381.5 139Q393 176 393 222Z" glyph-name="odieresis" horiz-adv-x="466" unicode="&#246;" /><glyph d="M393 222Q393 268 381.5 305Q370 342 349 368.5Q328 395 298.5 409.5Q269 424 233 424Q197 424 167.5 409.5Q138 395 117 368.5Q96 342 84.5 305Q73 268 73 222Q73 176 84.5 139Q96 102 117 75.5Q138 49 167.5 34.5Q197 20 233 20Q269 20 298.5 34.5Q328 49 349 75.5Q370 102 381.5 139Q393 176 393 222ZM581 424Q513 424 471 376.5Q429 329 422 252H725Q724 285 715 316Q706 347 689 371Q672 395 645 409.5Q618 424 581 424ZM588 -8Q526 -8 477.5 25.5Q429 59 407 121Q385 62 340 27Q295 -8 233 -8Q190 -8 154.5 8.5Q119 25 94 55.5Q69 86 55.5 128.5Q42 171 42 222Q42 273 55.5 315.5Q69 358 94 388.5Q119 419 154.5 435.5Q190 452 233 452Q296 452 341 415.5Q386 379 407 319Q427 379 471 415.5Q515 452 581 452Q624 452 657 436Q690 420 712.5 391Q735 362 746 322.5Q757 283 757 236V225H421Q421 177 433.5 138.5Q446 100 468 74Q490 48 520.5 34Q551 20 586 20Q638 20 676 48.5Q714 77 721 125L752 120Q748 93 733.5 69.5Q719 46 697 28.5Q675 11 647 1.5Q619 -8 588 -8Z" glyph-name="oe" horiz-adv-x="797" unicode="&#339;" /><glyph d="M309 0Q278 -12 254 -37Q230 -62 230 -98Q230 -125 247 -140Q264 -155 293 -155Q311 -155 325 -150.5Q339 -146 346 -142L352 -164Q345 -169 328.5 -174Q312 -179 291 -179Q247 -179 225.5 -155.5Q204 -132 204 -97Q204 -56 228.5 -29.5Q253 -3 283 11Z" glyph-name="ogonek" horiz-adv-x="500" unicode="&#731;" /><glyph d="M424 222Q424 171 410.5 128.5Q397 86 372 55.5Q347 25 311.5 8.5Q276 -8 233 -8Q190 -8 154.5 8.5Q119 25 94 55.5Q69 86 55.5 128.5Q42 171 42 222Q42 273 55.5 315.5Q69 358 94 388.5Q119 419 154.5 435.5Q190 452 233 452Q276 452 311.5 435.5Q347 419 372 388.5Q397 358 410.5 315.5Q424 273 424 222ZM393 222Q393 268 381.5 305Q370 342 349 368.5Q328 395 298.5 409.5Q269 424 233 424Q197 424 167.5 409.5Q138 395 117 368.5Q96 342 84.5 305Q73 268 73 222Q73 176 84.5 139Q96 102 117 75.5Q138 49 167.5 34.5Q197 20 233 20Q269 20 298.5 34.5Q328 49 349 75.5Q370 102 381.5 139Q393 176 393 222ZM217 523 132 650H165L250 523Z" glyph-name="ograve" horiz-adv-x="466" unicode="&#242;" /><glyph d="M233 20Q269 20 298.5 34.5Q328 49 349 75.5Q370 102 381.5 139Q393 176 393 222Q393 268 381.5 305Q370 342 349 368.5Q328 395 298.5 409.5Q269 424 233 424Q197 424 167.5 409.5Q138 395 117 368.5Q96 342 84.5 305Q73 268 73 222Q73 176 84.5 139Q96 102 117 75.5Q138 49 167.5 34.5Q197 20 233 20ZM271 523 350 650H381L302 523ZM424 222Q424 171 410.5 128.5Q397 86 372 55.5Q347 25 311.5 8.5Q276 -8 233 -8Q190 -8 154.5 8.5Q119 25 94 55.5Q69 86 55.5 128.5Q42 171 42 222Q42 273 55.5 315.5Q69 358 94 388.5Q119 419 154.5 435.5Q190 452 233 452Q276 452 311.5 435.5Q347 419 372 388.5Q397 358 410.5 315.5Q424 273 424 222ZM199 523H168L247 650H278Z" glyph-name="ohungarumlaut" horiz-adv-x="466" unicode="&#337;" /><glyph d="M233 20Q269 20 298.5 34.5Q328 49 349 75.5Q370 102 381.5 139Q393 176 393 222Q393 268 381.5 305Q370 342 349 368.5Q328 395 298.5 409.5Q269 424 233 424Q197 424 167.5 409.5Q138 395 117 368.5Q96 342 84.5 305Q73 268 73 222Q73 176 84.5 139Q96 102 117 75.5Q138 49 167.5 34.5Q197 20 233 20ZM424 222Q424 171 410.5 128.5Q397 86 372 55.5Q347 25 311.5 8.5Q276 -8 233 -8Q190 -8 154.5 8.5Q119 25 94 55.5Q69 86 55.5 128.5Q42 171 42 222Q42 273 55.5 315.5Q69 358 94 388.5Q119 419 154.5 435.5Q190 452 233 452Q276 452 311.5 435.5Q347 419 372 388.5Q397 358 410.5 315.5Q424 273 424 222ZM330 542H137V569H330Z" glyph-name="omacron" horiz-adv-x="466" unicode="&#333;" /><glyph d="M234 0H203V578L36 492V525L214 616H234Z" glyph-name="one" horiz-adv-x="330" unicode="1" /><glyph d="M140 -170H113V126L27 81V110L123 159H140Z" glyph-name="one.inf" horiz-adv-x="197" unicode="&#58738;" /><glyph d="M70 30H267V578L78 480V513L278 616H298V30H467V0H70Z" glyph-name="one.lt" horiz-adv-x="520" /><glyph d="M140 286H113V582L27 537V566L123 615H140ZM107 0H77L486 614H516ZM595 242Q595 272 576.5 290Q558 308 526 308Q489 308 470.5 286.5Q452 265 449 232L422 236Q426 280 452 306.5Q478 333 526 333Q571 333 596.5 308Q622 283 622 242Q622 210 601.5 184Q581 158 556 131L458 25H630V0H420V19L535 145Q561 173 578 194.5Q595 216 595 242Z" glyph-name="onehalf" horiz-adv-x="654" unicode="&#189;" /><glyph d="M140 286H113V582L27 537V566L123 615H140ZM107 0H77L486 614H516ZM449 105H571V186H598V105H659V80H598V0H571V80H417V102L546 328H575Z" glyph-name="onequarter" horiz-adv-x="684" unicode="&#188;" /><glyph d="M140 286H113V582L27 537V566L123 615H140ZM107 0H77L486 614H516ZM536 0H509V296L423 251V280L519 329H536ZM749 333Q791 333 813.5 312Q836 291 842 258L815 254Q812 279 795.5 294Q779 309 747 309Q705 309 678 271Q651 233 651 166Q651 161 651 154.5Q651 148 652 143Q660 175 685.5 194.5Q711 214 743 214Q789 214 819 182.5Q849 151 849 105Q849 59 819 27Q789 -5 742 -5Q709 -5 685.5 10.5Q662 26 648 52Q635 75 630 103Q625 131 625 160Q625 204 635 236.5Q645 269 661.5 290.5Q678 312 700.5 322.5Q723 333 749 333ZM660 105Q660 69 683 44.5Q706 20 742 20Q777 20 799.5 44Q822 68 822 105Q822 142 799.5 166Q777 190 742 190Q707 190 683.5 166Q660 142 660 105Z" glyph-name="onesixteenth" horiz-adv-x="878" unicode="&#61973;" /><glyph d="M140 286H113V582L27 537V566L123 615H140Z" glyph-name="onesuperior" horiz-adv-x="197" unicode="&#185;" /><glyph d="M140 286H113V582L27 537V566L123 615H140ZM107 0H77L486 614H516ZM503 181H528Q557 181 576.5 197.5Q596 214 596 244Q596 272 577 290Q558 308 526 308Q494 308 474.5 290Q455 272 450 243L424 248Q429 284 455.5 308.5Q482 333 525 333Q571 333 597.5 308Q624 283 624 245Q624 216 606.5 195Q589 174 564 169Q592 164 611.5 143.5Q631 123 631 90Q631 51 602.5 23Q574 -5 525 -5Q479 -5 451.5 18.5Q424 42 419 83L446 88Q450 56 470 38Q490 20 525 20Q560 20 581.5 39Q603 58 603 90Q603 122 581 139.5Q559 157 529 157H503ZM858 242Q858 272 839.5 290Q821 308 789 308Q752 308 733.5 286.5Q715 265 712 232L685 236Q689 280 715 306.5Q741 333 789 333Q834 333 859.5 308Q885 283 885 242Q885 210 864.5 184Q844 158 819 131L721 25H893V0H683V19L798 145Q824 173 841 194.5Q858 216 858 242Z" glyph-name="onethirtysecond" horiz-adv-x="917" /><glyph d="M211 321V350Q201 339 177.5 327.5Q154 316 126 316Q81 316 50.5 340.5Q20 365 20 407Q20 448 50.5 472.5Q81 497 127 497Q154 497 177 486Q200 475 211 464V519Q211 554 191 574.5Q171 595 134 595Q102 595 83.5 580.5Q65 566 60 541L32 547Q37 582 64.5 601.5Q92 621 135 621Q183 621 211 594Q239 567 239 521V321ZM211 426Q203 446 179.5 458.5Q156 471 129 471Q97 471 72.5 455Q48 439 48 407Q48 375 72.5 358.5Q97 342 129 342Q156 342 179.5 354.5Q203 367 211 387Z" glyph-name="ordfeminine" horiz-adv-x="278" unicode="&#170;" /><glyph d="M279 468Q279 400 244 357.5Q209 315 150 315Q91 315 55.5 357.5Q20 400 20 468Q20 537 55.5 579Q91 621 150 621Q209 621 244 579Q279 537 279 468ZM250 468Q250 525 222.5 560Q195 595 150 595Q105 595 77.5 560Q50 525 50 468Q50 411 77.5 376.5Q105 342 150 342Q195 342 222.5 376.5Q250 411 250 468Z" glyph-name="ordmasculine" horiz-adv-x="300" unicode="&#186;" /><glyph d="M42 222Q42 273 55.5 315.5Q69 358 94 388.5Q119 419 154.5 435.5Q190 452 233 452Q271 452 302.5 439Q334 426 358 402L401 457L422 442L375 383Q398 353 411 312Q424 271 424 222Q424 171 410.5 128.5Q397 86 372 55.5Q347 25 311.5 8.5Q276 -8 233 -8Q195 -8 163.5 5Q132 18 107 41L62 -17L41 -2L90 61Q42 123 42 222ZM73 222Q73 138 109 85L340 379Q298 424 233 424Q197 424 167.5 409.5Q138 395 117 368.5Q96 342 84.5 305Q73 268 73 222ZM393 222Q393 306 356 358L126 64Q168 20 233 20Q269 20 298.5 34.5Q328 49 349 75.5Q370 102 381.5 139Q393 176 393 222Z" glyph-name="oslash" horiz-adv-x="466" unicode="&#248;" /><glyph d="M42 222Q42 273 55.5 315.5Q69 358 94 388.5Q119 419 154.5 435.5Q190 452 233 452Q271 452 302.5 439Q334 426 358 402L401 457L422 442L375 383Q398 353 411 312Q424 271 424 222Q424 171 410.5 128.5Q397 86 372 55.5Q347 25 311.5 8.5Q276 -8 233 -8Q195 -8 163.5 5Q132 18 107 41L62 -17L41 -2L90 61Q42 123 42 222ZM73 222Q73 138 109 85L340 379Q298 424 233 424Q197 424 167.5 409.5Q138 395 117 368.5Q96 342 84.5 305Q73 268 73 222ZM233 20Q269 20 298.5 34.5Q328 49 349 75.5Q370 102 381.5 139Q393 176 393 222Q393 306 356 358L126 64Q168 20 233 20ZM332 650 247 523H214L299 650Z" glyph-name="oslashacute" horiz-adv-x="466" unicode="&#511;" /><glyph d="M424 222Q424 171 410.5 128.5Q397 86 372 55.5Q347 25 311.5 8.5Q276 -8 233 -8Q190 -8 154.5 8.5Q119 25 94 55.5Q69 86 55.5 128.5Q42 171 42 222Q42 273 55.5 315.5Q69 358 94 388.5Q119 419 154.5 435.5Q190 452 233 452Q276 452 311.5 435.5Q347 419 372 388.5Q397 358 410.5 315.5Q424 273 424 222ZM393 222Q393 268 381.5 305Q370 342 349 368.5Q328 395 298.5 409.5Q269 424 233 424Q197 424 167.5 409.5Q138 395 117 368.5Q96 342 84.5 305Q73 268 73 222Q73 176 84.5 139Q96 102 117 75.5Q138 49 167.5 34.5Q197 20 233 20Q269 20 298.5 34.5Q328 49 349 75.5Q370 102 381.5 139Q393 176 393 222ZM352 619Q352 575 336 549.5Q320 524 289 524Q269 524 254.5 535Q240 546 228 559Q216 572 204.5 583Q193 594 179 594Q160 594 150.5 575.5Q141 557 141 527H115Q115 570 131 596Q147 622 178 622Q198 622 212.5 611Q227 600 239 587Q251 574 262.5 563Q274 552 288 552Q307 552 316.5 570.5Q326 589 326 619Z" glyph-name="otilde" horiz-adv-x="466" unicode="&#245;" /><glyph d="M105 -170H75V444H105V367Q115 383 130 398.5Q145 414 164 426Q183 438 205.5 445Q228 452 253 452Q302 452 337.5 433Q373 414 396.5 382.5Q420 351 431 309Q442 267 442 222Q442 177 431 135Q420 93 396.5 61.5Q373 30 337.5 11Q302 -8 253 -8Q228 -8 205.5 -1Q183 6 164 18Q145 30 130 45Q115 60 105 77ZM105 120Q131 71 169.5 46Q208 21 253 21Q290 21 319.5 36Q349 51 369.5 77.5Q390 104 400.5 141Q411 178 411 222Q411 266 400.5 303Q390 340 369.5 366.5Q349 393 319.5 408Q290 423 253 423Q208 423 169.5 398Q131 373 105 324Z" glyph-name="p" horiz-adv-x="484" unicode="p" /><glyph d="M303 614H332V-90H303ZM208 366Q175 366 141.5 373Q108 380 81 395Q54 410 37 433.5Q20 457 20 490Q20 523 37 546.5Q54 570 81 585Q108 600 141.5 607Q175 614 208 614H237V-90H208Z" glyph-name="paragraph" horiz-adv-x="415" unicode="&#182;" /><glyph d="M70 283Q70 211 85.5 150Q101 89 129 41Q157 -7 195 -41.5Q233 -76 277 -95L272 -123Q221 -101 178 -63Q135 -25 104.5 26.5Q74 78 57 143Q40 208 40 283Q40 358 57 422.5Q74 487 104.5 539Q135 591 178 629Q221 667 272 689L277 661Q233 641 195 607Q157 573 129 525Q101 477 85.5 416Q70 355 70 283Z" glyph-name="parenleft" horiz-adv-x="328" unicode="(" /><glyph d="M70 303Q70 231 85.5 170Q101 109 129 61Q157 13 195 -21.5Q233 -56 277 -75L272 -103Q221 -81 178 -43Q135 -5 104.5 46.5Q74 98 57 163Q40 228 40 303Q40 378 57 442.5Q74 507 104.5 559Q135 611 178 649Q221 687 272 709L277 681Q233 661 195 627Q157 593 129 545Q101 497 85.5 436Q70 375 70 303Z" glyph-name="parenleft.cap" horiz-adv-x="328" unicode="&#58513;" /><glyph d="M30 -6Q30 78 64.5 133.5Q99 189 156 212L160 189Q115 170 85 121Q55 72 55 -6Q55 -84 85 -132.5Q115 -181 160 -201L156 -224Q99 -201 64.5 -145.5Q30 -90 30 -6Z" glyph-name="parenleft.inf" horiz-adv-x="194" unicode="&#58750;" /><glyph d="M258 283Q258 355 242 416Q226 477 198.5 525Q171 573 133 607Q95 641 51 661L56 689Q107 667 150 629Q193 591 223.5 539Q254 487 271 422.5Q288 358 288 283Q288 208 271 143Q254 78 223.5 26.5Q193 -25 150 -63Q107 -101 56 -123L51 -95Q95 -76 133 -41.5Q171 -7 198.5 41Q226 89 242 150Q258 211 258 283Z" glyph-name="parenright" horiz-adv-x="328" unicode=")" /><glyph d="M258 303Q258 375 242 436Q226 497 198.5 545Q171 593 133 627Q95 661 51 681L56 709Q107 687 150 649Q193 611 223.5 559Q254 507 271 442.5Q288 378 288 303Q288 228 271 163Q254 98 223.5 46.5Q193 -5 150 -43Q107 -81 56 -103L51 -75Q95 -56 133 -21.5Q171 13 198.5 61Q226 109 242 170Q258 231 258 303Z" glyph-name="parenright.cap" horiz-adv-x="328" unicode="&#58514;" /><glyph d="M165 -6Q165 -90 130 -145.5Q95 -201 38 -224L35 -201Q79 -181 109 -132.5Q139 -84 139 -6Q139 72 109 121Q79 170 35 189L38 212Q95 189 130 133.5Q165 78 165 -6Z" glyph-name="parenright.inf" horiz-adv-x="194" unicode="&#58751;" /><glyph d="M105 -170H75V444H105V367Q115 383 130 398.5Q145 414 164 426Q183 438 205.5 445Q228 452 253 452Q302 452 337.5 433Q373 414 396.5 382.5Q420 351 431 309Q442 267 442 222Q442 177 431 135Q420 93 396.5 61.5Q373 30 337.5 11Q302 -8 253 -8Q228 -8 205.5 -1Q183 6 164 18Q145 30 130 45Q115 60 105 77ZM105 120Q131 71 169.5 46Q208 21 253 21Q290 21 319.5 36Q349 51 369.5 77.5Q390 104 400.5 141Q411 178 411 222Q411 266 400.5 303Q390 340 369.5 366.5Q349 393 319.5 408Q290 423 253 423Q208 423 169.5 398Q131 373 105 324ZM229 578Q229 601 252 601Q275 601 275 578Q275 555 252 555Q229 555 229 578Z" glyph-name="pdotaccent" horiz-adv-x="484" unicode="&#7767;" /><glyph d="M492 614H522L113 0H83ZM68 499Q68 479 75.5 462Q83 445 95.5 432.5Q108 420 125 412.5Q142 405 162 405Q182 405 199.5 412.5Q217 420 229.5 432.5Q242 445 249.5 462Q257 479 257 499Q257 539 229.5 566.5Q202 594 162 594Q142 594 125 586.5Q108 579 95.5 566.5Q83 554 75.5 536.5Q68 519 68 499ZM565 115Q565 89 555.5 67Q546 45 529.5 28Q513 11 490.5 1.5Q468 -8 443 -8Q417 -8 395 1.5Q373 11 356 28Q339 45 329.5 67Q320 89 320 115Q320 140 329.5 162.5Q339 185 356 201.5Q373 218 395 227.5Q417 237 443 237Q468 237 490.5 227.5Q513 218 529.5 201.5Q546 185 555.5 162.5Q565 140 565 115ZM285 499Q285 473 275.5 451Q266 429 249 412.5Q232 396 209.5 386.5Q187 377 162 377Q136 377 114 386.5Q92 396 75.5 412.5Q59 429 49.5 451Q40 473 40 499Q40 524 49.5 546.5Q59 569 75.5 586Q92 603 114 612.5Q136 622 162 622Q187 622 209.5 612.5Q232 603 249 586Q266 569 275.5 546.5Q285 524 285 499ZM537 115Q537 134 529.5 151.5Q522 169 509.5 181.5Q497 194 479.5 201.5Q462 209 443 209Q423 209 405.5 201.5Q388 194 375.5 181.5Q363 169 355.5 151.5Q348 134 348 115Q348 75 375.5 47.5Q403 20 443 20Q462 20 479.5 27.5Q497 35 509.5 47.5Q522 60 529.5 77.5Q537 95 537 115Z" glyph-name="percent" horiz-adv-x="605" unicode="%" /><glyph d="M18 499Q18 524 27.5 546.5Q37 569 53.5 586Q70 603 92 612.5Q114 622 140 622Q165 622 187.5 612.5Q210 603 227 586Q244 569 253.5 546.5Q263 524 263 499Q263 473 253.5 451Q244 429 227 412.5Q210 396 187.5 386.5Q165 377 140 377Q114 377 92 386.5Q70 396 53.5 412.5Q37 429 27.5 451Q18 473 18 499ZM46 499Q46 479 53.5 462Q61 445 73.5 432.5Q86 420 103 412.5Q120 405 140 405Q160 405 177.5 412.5Q195 420 207.5 432.5Q220 445 227.5 462Q235 479 235 499Q235 539 207.5 566.5Q180 594 140 594Q120 594 103 586.5Q86 579 73.5 566.5Q61 554 53.5 536.5Q46 519 46 499ZM503 115Q503 89 493.5 67Q484 45 467.5 28Q451 11 428.5 1.5Q406 -8 381 -8Q355 -8 333 1.5Q311 11 294 28Q277 45 267.5 67Q258 89 258 115Q258 140 267.5 162.5Q277 185 294 201.5Q311 218 333 227.5Q355 237 381 237Q406 237 428.5 227.5Q451 218 467.5 201.5Q484 185 493.5 162.5Q503 140 503 115ZM475 115Q475 134 467.5 151.5Q460 169 447.5 181.5Q435 194 417.5 201.5Q400 209 381 209Q361 209 343.5 201.5Q326 194 313.5 181.5Q301 169 293.5 151.5Q286 134 286 115Q286 75 313.5 47.5Q341 20 381 20Q400 20 417.5 27.5Q435 35 447.5 47.5Q460 60 467.5 77.5Q475 95 475 115ZM450 614H480L71 0H41Z" glyph-name="percent.lt" horiz-adv-x="520" /><glyph d="M82 21Q82 -2 59 -2Q36 -2 36 21Q36 44 59 44Q82 44 82 21Z" glyph-name="period" horiz-adv-x="118" unicode="." /><glyph d="M107 21Q107 44 130 44Q153 44 153 21Q153 -2 130 -2Q107 -2 107 21Z" glyph-name="period.tab" horiz-adv-x="260" /><glyph d="M89 256Q89 233 66 233Q43 233 43 256Q43 279 66 279Q89 279 89 256Z" glyph-name="periodcentered" horiz-adv-x="132" unicode="&#183;" /><glyph d="M89 296Q89 273 66 273Q43 273 43 296Q43 319 66 319Q89 319 89 296Z" glyph-name="periodcentered.cap" horiz-adv-x="132" unicode="&#58497;" /><glyph d="M492 614H522L113 0H83ZM40 499Q40 524 49.5 546.5Q59 569 75.5 586Q92 603 114 612.5Q136 622 162 622Q187 622 209.5 612.5Q232 603 249 586Q266 569 275.5 546.5Q285 524 285 499Q285 473 275.5 451Q266 429 249 412.5Q232 396 209.5 386.5Q187 377 162 377Q136 377 114 386.5Q92 396 75.5 412.5Q59 429 49.5 451Q40 473 40 499ZM565 115Q565 89 555.5 67Q546 45 529.5 28Q513 11 490.5 1.5Q468 -8 443 -8Q417 -8 395 1.5Q373 11 356 28Q339 45 329.5 67Q320 89 320 115Q320 140 329.5 162.5Q339 185 356 201.5Q373 218 395 227.5Q417 237 443 237Q468 237 490.5 227.5Q513 218 529.5 201.5Q546 185 555.5 162.5Q565 140 565 115ZM537 115Q537 134 529.5 151.5Q522 169 509.5 181.5Q497 194 479.5 201.5Q462 209 443 209Q423 209 405.5 201.5Q388 194 375.5 181.5Q363 169 355.5 151.5Q348 134 348 115Q348 75 375.5 47.5Q403 20 443 20Q462 20 479.5 27.5Q497 35 509.5 47.5Q522 60 529.5 77.5Q537 95 537 115ZM843 115Q843 89 833.5 67Q824 45 807.5 28Q791 11 768.5 1.5Q746 -8 721 -8Q695 -8 673 1.5Q651 11 634 28Q617 45 607.5 67Q598 89 598 115Q598 140 607.5 162.5Q617 185 634 201.5Q651 218 673 227.5Q695 237 721 237Q746 237 768.5 227.5Q791 218 807.5 201.5Q824 185 833.5 162.5Q843 140 843 115ZM815 115Q815 134 807.5 151.5Q800 169 787.5 181.5Q775 194 757.5 201.5Q740 209 721 209Q701 209 683.5 201.5Q666 194 653.5 181.5Q641 169 633.5 151.5Q626 134 626 115Q626 75 653.5 47.5Q681 20 721 20Q740 20 757.5 27.5Q775 35 787.5 47.5Q800 60 807.5 77.5Q815 95 815 115ZM68 499Q68 479 75.5 462Q83 445 95.5 432.5Q108 420 125 412.5Q142 405 162 405Q182 405 199.5 412.5Q217 420 229.5 432.5Q242 445 249.5 462Q257 479 257 499Q257 539 229.5 566.5Q202 594 162 594Q142 594 125 586.5Q108 579 95.5 566.5Q83 554 75.5 536.5Q68 519 68 499Z" glyph-name="perthousand" horiz-adv-x="883" unicode="&#8240;" /><glyph d="M450 614H480L71 0H41ZM46 499Q46 479 53.5 462Q61 445 73.5 432.5Q86 420 103 412.5Q120 405 140 405Q160 405 177.5 412.5Q195 420 207.5 432.5Q220 445 227.5 462Q235 479 235 499Q235 539 207.5 566.5Q180 594 140 594Q120 594 103 586.5Q86 579 73.5 566.5Q61 554 53.5 536.5Q46 519 46 499ZM503 115Q503 89 493.5 67Q484 45 467.5 28Q451 11 428.5 1.5Q406 -8 381 -8Q355 -8 333 1.5Q311 11 294 28Q277 45 267.5 67Q258 89 258 115Q258 140 267.5 162.5Q277 185 294 201.5Q311 218 333 227.5Q355 237 381 237Q406 237 428.5 227.5Q451 218 467.5 201.5Q484 185 493.5 162.5Q503 140 503 115ZM475 115Q475 134 467.5 151.5Q460 169 447.5 181.5Q435 194 417.5 201.5Q400 209 381 209Q361 209 343.5 201.5Q326 194 313.5 181.5Q301 169 293.5 151.5Q286 134 286 115Q286 75 313.5 47.5Q341 20 381 20Q400 20 417.5 27.5Q435 35 447.5 47.5Q460 60 467.5 77.5Q475 95 475 115ZM18 499Q18 524 27.5 546.5Q37 569 53.5 586Q70 603 92 612.5Q114 622 140 622Q165 622 187.5 612.5Q210 603 227 586Q244 569 253.5 546.5Q263 524 263 499Q263 473 253.5 451Q244 429 227 412.5Q210 396 187.5 386.5Q165 377 140 377Q114 377 92 386.5Q70 396 53.5 412.5Q37 429 27.5 451Q18 473 18 499ZM783 115Q783 89 773.5 67Q764 45 747.5 28Q731 11 708.5 1.5Q686 -8 661 -8Q635 -8 613 1.5Q591 11 574 28Q557 45 547.5 67Q538 89 538 115Q538 140 547.5 162.5Q557 185 574 201.5Q591 218 613 227.5Q635 237 661 237Q686 237 708.5 227.5Q731 218 747.5 201.5Q764 185 773.5 162.5Q783 140 783 115ZM755 115Q755 134 747.5 151.5Q740 169 727.5 181.5Q715 194 697.5 201.5Q680 209 661 209Q641 209 623.5 201.5Q606 194 593.5 181.5Q581 169 573.5 151.5Q566 134 566 115Q566 75 593.5 47.5Q621 20 661 20Q680 20 697.5 27.5Q715 35 727.5 47.5Q740 60 747.5 77.5Q755 95 755 115Z" glyph-name="perthousand.lt" horiz-adv-x="800" /><glyph d="M262 470V307H425V278H262V115H233V278H70V307H233V470Z" glyph-name="plus" horiz-adv-x="495" unicode="+" /><glyph d="M156 86V-1H243V-24H156V-112H133V-24H45V-1H133V86Z" glyph-name="plus.inf" horiz-adv-x="289" unicode="&#58747;" /><glyph d="M274 470V307H437V278H274V115H245V278H82V307H245V470Z" glyph-name="plus.lt" horiz-adv-x="520" /><glyph d="M262 478V355H425V326H262V203H233V326H70V355H233V478ZM70 145H425V116H70Z" glyph-name="plusminus" horiz-adv-x="495" unicode="&#177;" /><glyph d="M274 478V355H437V326H274V203H245V326H82V355H245V478ZM82 145H437V116H82Z" glyph-name="plusminus.lt" horiz-adv-x="520" /><glyph d="M670 307Q670 238 645 180.5Q620 123 577.5 81Q535 39 477.5 15.5Q420 -8 355 -8Q290 -8 232.5 15.5Q175 39 132.5 81Q90 123 65 180.5Q40 238 40 307Q40 376 65 433.5Q90 491 132.5 533Q175 575 232.5 598.5Q290 622 355 622Q420 622 477.5 598.5Q535 575 577.5 533Q620 491 645 433.5Q670 376 670 307ZM644 307Q644 370 621 423Q598 476 559 514.5Q520 553 467.5 574.5Q415 596 355 596Q295 596 242.5 574.5Q190 553 151 514.5Q112 476 89 423Q66 370 66 307Q66 244 89 191Q112 138 151 99.5Q190 61 242.5 39.5Q295 18 355 18Q415 18 467.5 39.5Q520 61 559 99.5Q598 138 621 191Q644 244 644 307ZM285 282V124H255V493H388Q443 493 474 466.5Q505 440 505 388Q505 335 474 308.5Q443 282 388 282ZM476 388Q476 424 453.5 444.5Q431 465 388 465H285V311H388Q431 311 453.5 331Q476 351 476 388Z" glyph-name="published" horiz-adv-x="710" unicode="&#8471;" /><glyph d="M379 77Q369 60 354 45Q339 30 320 18Q301 6 278.5 -1Q256 -8 231 -8Q182 -8 146.5 11Q111 30 87.5 61.5Q64 93 53 135Q42 177 42 222Q42 267 53 309Q64 351 87.5 382.5Q111 414 146.5 433Q182 452 231 452Q256 452 278.5 445Q301 438 320 426Q339 414 354 398.5Q369 383 379 367V444H409V-170H379ZM379 324Q353 373 314.5 398Q276 423 231 423Q193 423 164 408Q135 393 114.5 366.5Q94 340 83.5 303Q73 266 73 222Q73 178 83.5 141Q94 104 114.5 77.5Q135 51 164 36Q193 21 231 21Q276 21 314.5 46Q353 71 379 120Z" glyph-name="q" horiz-adv-x="484" unicode="q" /><glyph d="M385 460Q385 433 375.5 409Q366 385 351 363Q336 341 317.5 320.5Q299 300 281 280Q258 254 248.5 235Q239 216 237 193H209Q211 225 223.5 247.5Q236 270 259 297Q273 313 290 331Q307 349 321.5 369Q336 389 345.5 411.5Q355 434 355 460Q355 524 315.5 558.5Q276 593 213 593Q141 593 100.5 551Q60 509 50 439L22 444Q34 525 82 573.5Q130 622 213 622Q292 622 338.5 577.5Q385 533 385 460ZM245 21Q245 -2 222 -2Q199 -2 199 21Q199 44 222 44Q245 44 245 21Z" glyph-name="question" horiz-adv-x="415" unicode="?" /><glyph d="M30 58Q30 85 39.5 109Q49 133 64 155Q79 177 97.5 197.5Q116 218 134 238Q157 264 166.5 283Q176 302 178 325H206Q204 293 191.5 270.5Q179 248 156 221Q142 204 125 186.5Q108 169 93.5 149Q79 129 69.5 106.5Q60 84 60 58Q60 -6 99.5 -40.5Q139 -75 202 -75Q274 -75 314.5 -33Q355 9 365 79L393 74Q381 -7 333 -55.5Q285 -104 202 -104Q123 -104 76.5 -59.5Q30 -15 30 58ZM170 497Q170 520 193 520Q216 520 216 497Q216 474 193 474Q170 474 170 497Z" glyph-name="questiondown" horiz-adv-x="415" unicode="&#191;" /><glyph d="M30 154Q30 181 39.5 205Q49 229 64 251Q79 273 97.5 293.5Q116 314 134 334Q157 360 166.5 379Q176 398 178 421H206Q204 389 191.5 366.5Q179 344 156 317Q142 300 125 282.5Q108 265 93.5 245Q79 225 69.5 202.5Q60 180 60 154Q60 90 99.5 55.5Q139 21 202 21Q274 21 314.5 63Q355 105 365 175L393 170Q381 89 333 40.5Q285 -8 202 -8Q123 -8 76.5 36.5Q30 81 30 154ZM170 593Q170 616 193 616Q216 616 216 593Q216 570 193 570Q170 570 170 593Z" glyph-name="questiondown.cap" horiz-adv-x="415" unicode="&#58436;" /><glyph d="M40 614H70V434H40ZM119 614H149V434H119Z" glyph-name="quotedbl" horiz-adv-x="189" unicode="&quot;" /><glyph d="M22 -66Q48 -59 61 -44.5Q74 -30 76 -1Q74 -2 71.5 -2Q69 -2 67 -2Q44 -2 44 21Q44 44 67 44H69Q95 42 95 10Q95 -64 25 -81ZM123 -66Q149 -59 162 -44.5Q175 -30 177 -1Q175 -2 172.5 -2Q170 -2 168 -2Q145 -2 145 21Q145 44 168 44H170Q196 42 196 10Q196 -64 126 -81Z" glyph-name="quotedblbase" horiz-adv-x="222" unicode="&#8222;" /><glyph d="M99 603Q73 596 60 581.5Q47 567 45 538Q47 539 49.5 539Q52 539 54 539Q77 539 77 516Q77 493 54 493H52Q26 495 26 527Q26 601 96 618ZM200 603Q174 596 161 581.5Q148 567 146 538Q148 539 150.5 539Q153 539 155 539Q178 539 178 516Q178 493 155 493H153Q127 495 127 527Q127 601 197 618Z" glyph-name="quotedblleft" horiz-adv-x="222" unicode="&#8220;" /><glyph d="M22 508Q48 515 61 529.5Q74 544 76 573Q74 572 71.5 572Q69 572 67 572Q44 572 44 595Q44 618 67 618H69Q95 616 95 584Q95 510 25 493ZM123 508Q149 515 162 529.5Q175 544 177 573Q175 572 172.5 572Q170 572 168 572Q145 572 145 595Q145 618 168 618H170Q196 616 196 584Q196 510 126 493Z" glyph-name="quotedblright" horiz-adv-x="222" unicode="&#8221;" /><glyph d="M99 603Q73 596 60 581.5Q47 567 45 538Q47 539 49.5 539Q52 539 54 539Q77 539 77 516Q77 493 54 493H52Q26 495 26 527Q26 601 96 618Z" glyph-name="quoteleft" horiz-adv-x="121" unicode="&#8216;" /><glyph d="M22 508Q48 515 61 529.5Q74 544 76 573Q74 572 71.5 572Q69 572 67 572Q44 572 44 595Q44 618 67 618H69Q95 616 95 584Q95 510 25 493Z" glyph-name="quoteright" horiz-adv-x="121" unicode="&#8217;" /><glyph d="M22 -66Q48 -59 61 -44.5Q74 -30 76 -1Q74 -2 71.5 -2Q69 -2 67 -2Q44 -2 44 21Q44 44 67 44H69Q95 42 95 10Q95 -64 25 -81Z" glyph-name="quotesinglbase" horiz-adv-x="101" unicode="&#8218;" /><glyph d="M40 614H70V434H40Z" glyph-name="quotesingle" horiz-adv-x="110" unicode="&apos;" /><glyph d="M265 420Q254 424 234 424Q189 424 156.5 394Q124 364 105 319V0H75V444H105V363Q122 400 155.5 426Q189 452 234 452Q245 452 253.5 450.5Q262 449 270 447Z" glyph-name="r" horiz-adv-x="286" unicode="r" /><glyph d="M155 523 240 650H273L188 523ZM265 420Q254 424 234 424Q189 424 156.5 394Q124 364 105 319V0H75V444H105V363Q122 400 155.5 426Q189 452 234 452Q245 452 253.5 450.5Q262 449 270 447Z" glyph-name="racute" horiz-adv-x="286" unicode="&#341;" /><glyph d="M184 518H158L67 645H98L171 543L244 645H275ZM265 420Q254 424 234 424Q189 424 156.5 394Q124 364 105 319V0H75V444H105V363Q122 400 155.5 426Q189 452 234 452Q245 452 253.5 450.5Q262 449 270 447Z" glyph-name="rcaron" horiz-adv-x="286" unicode="&#345;" /><glyph d="M48 -159Q71 -153 84 -141Q97 -129 97 -104Q95 -105 92.5 -105Q90 -105 88 -105Q65 -105 65 -82Q65 -59 88 -59H90Q116 -61 116 -93Q116 -128 99.5 -147Q83 -166 51 -174ZM265 420Q254 424 234 424Q189 424 156.5 394Q124 364 105 319V0H75V444H105V363Q122 400 155.5 426Q189 452 234 452Q245 452 253.5 450.5Q262 449 270 447Z" glyph-name="rcommaaccent" horiz-adv-x="286" unicode="&#343;" /><glyph d="M392 439Q392 399 377.5 365.5Q363 332 338.5 307.5Q314 283 281 269.5Q248 256 211 256Q174 256 141 269.5Q108 283 83.5 307.5Q59 332 44.5 365.5Q30 399 30 439Q30 479 44.5 512.5Q59 546 83.5 570.5Q108 595 141 608.5Q174 622 211 622Q248 622 281 608.5Q314 595 338.5 570.5Q363 546 377.5 512.5Q392 479 392 439ZM366 439Q366 473 353.5 502Q341 531 320 552Q299 573 271 584.5Q243 596 211 596Q179 596 151 584.5Q123 573 102 552Q81 531 68.5 502Q56 473 56 439Q56 405 68.5 376Q81 347 102 326Q123 305 151 293.5Q179 282 211 282Q243 282 271 293.5Q299 305 320 326Q341 347 353.5 376Q366 405 366 439ZM174 424V346H147V538H221Q250 538 268 523Q286 508 286 481Q286 458 272.5 443.5Q259 429 237 425L293 346H261L207 424ZM259 481Q259 494 250 503Q241 512 224 512H174V450H224Q241 450 250 459Q259 468 259 481Z" glyph-name="registered" horiz-adv-x="422" unicode="&#174;" /><glyph d="M327 580Q327 548 304.5 525.5Q282 503 250 503Q218 503 195.5 525.5Q173 548 173 580Q173 612 195.5 634.5Q218 657 250 657Q282 657 304.5 634.5Q327 612 327 580ZM302 580Q302 602 287 617Q272 632 250 632Q228 632 213 617Q198 602 198 580Q198 558 213 543Q228 528 250 528Q272 528 287 543Q302 558 302 580Z" glyph-name="ring" horiz-adv-x="500" unicode="&#730;" /><glyph d="M327 724Q327 692 304.5 669.5Q282 647 250 647Q218 647 195.5 669.5Q173 692 173 724Q173 756 195.5 778.5Q218 801 250 801Q282 801 304.5 778.5Q327 756 327 724ZM302 724Q302 746 287 761Q272 776 250 776Q228 776 213 761Q198 746 198 724Q198 702 213 687Q228 672 250 672Q272 672 287 687Q302 702 302 724Z" glyph-name="ring.cap" horiz-adv-x="500" unicode="&#58410;" /><glyph d="M188 -8Q122 -8 77.5 21.5Q33 51 25 106L55 111Q63 65 99.5 42.5Q136 20 188 20Q245 20 281 44Q317 68 317 113Q317 149 294 169Q271 189 223 203L144 226Q96 240 67 263Q38 286 38 335Q38 389 81 420.5Q124 452 191 452Q253 452 293 422.5Q333 393 341 339L312 334Q304 379 272 401.5Q240 424 191 424Q134 424 101 400Q68 376 68 335Q68 315 74.5 301.5Q81 288 93 279Q105 270 123 264Q141 258 164 251L236 230Q293 213 320 185.5Q347 158 347 113Q347 58 303 25Q259 -8 188 -8Z" glyph-name="s" horiz-adv-x="387" unicode="s" /><glyph d="M179 523 264 650H297L212 523ZM188 -8Q122 -8 77.5 21.5Q33 51 25 106L55 111Q63 65 99.5 42.5Q136 20 188 20Q245 20 281 44Q317 68 317 113Q317 149 294 169Q271 189 223 203L144 226Q96 240 67 263Q38 286 38 335Q38 389 81 420.5Q124 452 191 452Q253 452 293 422.5Q333 393 341 339L312 334Q304 379 272 401.5Q240 424 191 424Q134 424 101 400Q68 376 68 335Q68 315 74.5 301.5Q81 288 93 279Q105 270 123 264Q141 258 164 251L236 230Q293 213 320 185.5Q347 158 347 113Q347 58 303 25Q259 -8 188 -8Z" glyph-name="sacute" horiz-adv-x="387" unicode="&#347;" /><glyph d="M203 518H177L86 645H117L190 543L263 645H294ZM188 -8Q122 -8 77.5 21.5Q33 51 25 106L55 111Q63 65 99.5 42.5Q136 20 188 20Q245 20 281 44Q317 68 317 113Q317 149 294 169Q271 189 223 203L144 226Q96 240 67 263Q38 286 38 335Q38 389 81 420.5Q124 452 191 452Q253 452 293 422.5Q333 393 341 339L312 334Q304 379 272 401.5Q240 424 191 424Q134 424 101 400Q68 376 68 335Q68 315 74.5 301.5Q81 288 93 279Q105 270 123 264Q141 258 164 251L236 230Q293 213 320 185.5Q347 158 347 113Q347 58 303 25Q259 -8 188 -8Z" glyph-name="scaron" horiz-adv-x="387" unicode="&#353;" /><glyph d="M180 -8Q117 -6 75 23Q33 52 25 106L55 111Q63 65 99.5 42.5Q136 20 188 20Q245 20 281 44Q317 68 317 113Q317 149 294 169Q271 189 223 203L144 226Q96 240 67 263Q38 286 38 335Q38 389 81 420.5Q124 452 191 452Q253 452 293 422.5Q333 393 341 339L312 334Q304 379 272 401.5Q240 424 191 424Q134 424 101 400Q68 376 68 335Q68 315 74.5 301.5Q81 288 93 279Q105 270 123 264Q141 258 164 251L236 230Q293 213 320 185.5Q347 158 347 113Q347 61 307.5 29Q268 -3 203 -7L195 -46Q230 -52 250.5 -71Q271 -90 271 -117Q271 -143 254 -161Q237 -179 193 -179Q167 -179 149.5 -172.5Q132 -166 123 -160L129 -138Q139 -144 153 -149.5Q167 -155 191 -155Q220 -155 232.5 -145.5Q245 -136 245 -118Q245 -94 222 -80Q199 -66 169 -64Z" glyph-name="scedilla" horiz-adv-x="387" unicode="&#351;" /><glyph d="M45 324Q49 351 63.5 374.5Q78 398 100 415.5Q122 433 150 442.5Q178 452 209 452Q255 452 291.5 435.5Q328 419 353.5 389Q379 359 393 316.5Q407 274 407 222Q407 172 394 130Q381 88 356.5 57.5Q332 27 296.5 9.5Q261 -8 216 -8Q172 -8 139.5 8Q107 24 84.5 53Q62 82 51 121.5Q40 161 40 208V219H376Q376 314 330.5 369Q285 424 211 424Q160 424 121.5 395.5Q83 367 76 319ZM216 20Q249 20 277 32.5Q305 45 325.5 67.5Q346 90 359 121.5Q372 153 375 192H72Q73 159 82 128Q91 97 108 73Q125 49 152 34.5Q179 20 216 20Z" glyph-name="schwa" horiz-adv-x="449" unicode="&#601;" /><glyph d="M297 516H266L193 619L120 516H89L180 643H206ZM188 -8Q122 -8 77.5 21.5Q33 51 25 106L55 111Q63 65 99.5 42.5Q136 20 188 20Q245 20 281 44Q317 68 317 113Q317 149 294 169Q271 189 223 203L144 226Q96 240 67 263Q38 286 38 335Q38 389 81 420.5Q124 452 191 452Q253 452 293 422.5Q333 393 341 339L312 334Q304 379 272 401.5Q240 424 191 424Q134 424 101 400Q68 376 68 335Q68 315 74.5 301.5Q81 288 93 279Q105 270 123 264Q141 258 164 251L236 230Q293 213 320 185.5Q347 158 347 113Q347 58 303 25Q259 -8 188 -8Z" glyph-name="scircumflex" horiz-adv-x="387" unicode="&#349;" /><glyph d="M146 -159Q169 -153 182 -141Q195 -129 195 -104Q193 -105 190.5 -105Q188 -105 186 -105Q163 -105 163 -82Q163 -59 186 -59H188Q214 -61 214 -93Q214 -128 197.5 -147Q181 -166 149 -174ZM188 -8Q122 -8 77.5 21.5Q33 51 25 106L55 111Q63 65 99.5 42.5Q136 20 188 20Q245 20 281 44Q317 68 317 113Q317 149 294 169Q271 189 223 203L144 226Q96 240 67 263Q38 286 38 335Q38 389 81 420.5Q124 452 191 452Q253 452 293 422.5Q333 393 341 339L312 334Q304 379 272 401.5Q240 424 191 424Q134 424 101 400Q68 376 68 335Q68 315 74.5 301.5Q81 288 93 279Q105 270 123 264Q141 258 164 251L236 230Q293 213 320 185.5Q347 158 347 113Q347 58 303 25Q259 -8 188 -8Z" glyph-name="scommaaccent" horiz-adv-x="387" unicode="&#537;" /><glyph d="M319 108Q342 119 358 139Q374 159 374 190Q374 221 354 240.5Q334 260 303 281L116 411Q93 400 77 380Q61 360 61 329Q61 298 81 278.5Q101 259 132 238ZM327 15Q327 49 314.5 65.5Q302 82 274 102L114 213Q76 239 53 264Q30 289 30 329Q30 367 49.5 392.5Q69 418 98 432Q89 446 83.5 464Q78 482 78 504Q78 532 89 554Q100 576 119 591Q138 606 163 614Q188 622 217 622Q279 622 319 592.5Q359 563 367 509L338 504Q330 549 298 571.5Q266 594 217 594Q170 594 139 571Q108 548 108 504Q108 487 111 475Q114 463 120.5 453.5Q127 444 137 435.5Q147 427 161 417L321 306Q359 280 382 255Q405 230 405 190Q405 152 386 125Q367 98 338 84Q347 70 352 53.5Q357 37 357 15Q357 -14 346 -36Q335 -58 316 -73Q297 -88 271.5 -95.5Q246 -103 218 -103Q156 -103 116 -73.5Q76 -44 68 10L97 15Q105 -30 137 -52.5Q169 -75 218 -75Q265 -75 296 -52Q327 -29 327 15Z" glyph-name="section" horiz-adv-x="435" unicode="&#167;" /><glyph d="M59 338Q36 338 36 361Q36 384 59 384Q82 384 82 361Q82 338 59 338ZM14 -66Q40 -59 53 -44.5Q66 -30 68 -1Q66 -2 63.5 -2Q61 -2 59 -2Q36 -2 36 21Q36 44 59 44H61Q87 42 87 10Q87 -64 17 -81Z" glyph-name="semicolon" horiz-adv-x="118" unicode=";" /><glyph d="M130 338Q107 338 107 361Q107 384 130 384Q153 384 153 361Q153 338 130 338ZM85 -66Q111 -59 124 -44.5Q137 -30 139 -1Q137 -2 134.5 -2Q132 -2 130 -2Q107 -2 107 21Q107 44 130 44H132Q158 42 158 10Q158 -64 88 -81Z" glyph-name="semicolon.tab" horiz-adv-x="260" /><glyph d="M169 0H137L369 584H18V614H401V587Z" glyph-name="seven" horiz-adv-x="421" unicode="7" /><glyph d="M107 -170H78L199 133H20V158H228V136Z" glyph-name="seven.inf" horiz-adv-x="250" unicode="&#58744;" /><glyph d="M231 0H199L431 584H46V614H463V587Z" glyph-name="seven.lt" horiz-adv-x="520" /><glyph d="M107 286H78L199 589H20V614H228V592ZM160 0H130L539 614H569ZM589 0H562V296L476 251V280L572 329H589ZM802 333Q844 333 866.5 312Q889 291 895 258L868 254Q865 279 848.5 294Q832 309 800 309Q758 309 731 271Q704 233 704 166Q704 161 704 154.5Q704 148 705 143Q713 175 738.5 194.5Q764 214 796 214Q842 214 872 182.5Q902 151 902 105Q902 59 872 27Q842 -5 795 -5Q762 -5 738.5 10.5Q715 26 701 52Q688 75 683 103Q678 131 678 160Q678 204 688 236.5Q698 269 714.5 290.5Q731 312 753.5 322.5Q776 333 802 333ZM713 105Q713 69 736 44.5Q759 20 795 20Q830 20 852.5 44Q875 68 875 105Q875 142 852.5 166Q830 190 795 190Q760 190 736.5 166Q713 142 713 105Z" glyph-name="sevensixteenths" horiz-adv-x="931" unicode="&#61976;" /><glyph d="M140 286H113V582L27 537V566L123 615H140ZM304 286H275L396 589H217V614H425V592ZM357 0H327L736 614H766ZM753 181H778Q807 181 826.5 197.5Q846 214 846 244Q846 272 827 290Q808 308 776 308Q744 308 724.5 290Q705 272 700 243L674 248Q679 284 705.5 308.5Q732 333 775 333Q821 333 847.5 308Q874 283 874 245Q874 216 856.5 195Q839 174 814 169Q842 164 861.5 143.5Q881 123 881 90Q881 51 852.5 23Q824 -5 775 -5Q729 -5 701.5 18.5Q674 42 669 83L696 88Q700 56 720 38Q740 20 775 20Q810 20 831.5 39Q853 58 853 90Q853 122 831 139.5Q809 157 779 157H753ZM1108 242Q1108 272 1089.5 290Q1071 308 1039 308Q1002 308 983.5 286.5Q965 265 962 232L935 236Q939 280 965 306.5Q991 333 1039 333Q1084 333 1109.5 308Q1135 283 1135 242Q1135 210 1114.5 184Q1094 158 1069 131L971 25H1143V0H933V19L1048 145Q1074 173 1091 194.5Q1108 216 1108 242Z" glyph-name="seventeenthirtyseconds" horiz-adv-x="1167" /><glyph d="M107 286H78L199 589H20V614H228V592ZM160 0H130L539 614H569ZM556 181H581Q610 181 629.5 197.5Q649 214 649 244Q649 272 630 290Q611 308 579 308Q547 308 527.5 290Q508 272 503 243L477 248Q482 284 508.5 308.5Q535 333 578 333Q624 333 650.5 308Q677 283 677 245Q677 216 659.5 195Q642 174 617 169Q645 164 664.5 143.5Q684 123 684 90Q684 51 655.5 23Q627 -5 578 -5Q532 -5 504.5 18.5Q477 42 472 83L499 88Q503 56 523 38Q543 20 578 20Q613 20 634.5 39Q656 58 656 90Q656 122 634 139.5Q612 157 582 157H556ZM911 242Q911 272 892.5 290Q874 308 842 308Q805 308 786.5 286.5Q768 265 765 232L738 236Q742 280 768 306.5Q794 333 842 333Q887 333 912.5 308Q938 283 938 242Q938 210 917.5 184Q897 158 872 131L774 25H946V0H736V19L851 145Q877 173 894 194.5Q911 216 911 242Z" glyph-name="seventhirtyseconds" horiz-adv-x="970" /><glyph d="M271 622Q311 622 341 611Q371 600 391.5 581Q412 562 424 536.5Q436 511 441 482L411 477Q405 528 371 560.5Q337 593 271 593Q229 593 192.5 574Q156 555 129.5 518Q103 481 88 426.5Q73 372 73 301Q73 290 73.5 274.5Q74 259 76 244Q82 278 99.5 307Q117 336 141.5 356Q166 376 196 387.5Q226 399 258 399Q299 399 335 383.5Q371 368 397.5 340.5Q424 313 439.5 276Q455 239 455 196Q455 153 439.5 115.5Q424 78 397.5 50.5Q371 23 335 7.5Q299 -8 258 -8Q195 -8 153.5 20Q112 48 88 93Q63 138 53.5 192.5Q44 247 44 301Q44 386 63 447Q82 508 113.5 547Q145 586 186 604Q227 622 271 622ZM92 196Q92 159 104.5 127Q117 95 139.5 71.5Q162 48 192 34.5Q222 21 258 21Q293 21 323 34.5Q353 48 375.5 71Q398 94 411 126Q424 158 424 196Q424 233 411 265Q398 297 375.5 320Q353 343 323 356.5Q293 370 258 370Q223 370 192.5 356.5Q162 343 139.5 320Q117 297 104.5 265Q92 233 92 196Z" glyph-name="six" horiz-adv-x="491" unicode="6" /><glyph d="M156 163Q198 163 220.5 142Q243 121 249 88L222 84Q219 109 202.5 124Q186 139 154 139Q112 139 85 101Q58 63 58 -4Q58 -9 58 -15.5Q58 -22 59 -27Q67 5 92.5 24.5Q118 44 150 44Q196 44 226 12.5Q256 -19 256 -65Q256 -111 226 -143Q196 -175 149 -175Q116 -175 92.5 -159.5Q69 -144 55 -118Q42 -95 37 -67Q32 -39 32 -10Q32 34 42 66.5Q52 99 68.5 120.5Q85 142 107.5 152.5Q130 163 156 163ZM67 -65Q67 -101 90 -125.5Q113 -150 149 -150Q184 -150 206.5 -126Q229 -102 229 -65Q229 -28 206.5 -4Q184 20 149 20Q114 20 90.5 -4Q67 -28 67 -65Z" glyph-name="six.inf" horiz-adv-x="285" unicode="&#58743;" /><glyph d="M285 622Q323 622 353.5 611Q384 600 406.5 581.5Q429 563 443.5 537.5Q458 512 463 483L433 478Q422 529 386.5 561Q351 593 285 593Q244 593 207.5 574Q171 555 143.5 517.5Q116 480 100 425.5Q84 371 84 301Q84 275 87 245Q94 280 111.5 308.5Q129 337 154 357Q179 377 210.5 388Q242 399 276 399Q318 399 355.5 383.5Q393 368 420.5 340.5Q448 313 464 276Q480 239 480 196Q480 153 464 115.5Q448 78 420.5 50.5Q393 23 355.5 7.5Q318 -8 276 -8Q206 -8 161 24.5Q116 57 91 108Q70 151 62.5 201.5Q55 252 55 301Q55 380 73.5 440.5Q92 501 123.5 541Q155 581 196.5 601.5Q238 622 285 622ZM103 196Q103 159 116 127Q129 95 152.5 71.5Q176 48 207.5 34.5Q239 21 276 21Q312 21 343.5 34.5Q375 48 399 71Q423 94 436.5 126Q450 158 450 196Q450 233 436.5 265Q423 297 399 320Q375 343 343.5 356.5Q312 370 276 370Q240 370 208 356.5Q176 343 153 320Q130 297 116.5 265Q103 233 103 196Z" glyph-name="six.lt" horiz-adv-x="520" /><glyph d="M253 650H282L34 -84H5Z" glyph-name="slash" horiz-adv-x="287" unicode="/" /><glyph d="M253 670H282L34 -64H5Z" glyph-name="slash.cap" horiz-adv-x="287" unicode="&#58465;" /><glyph glyph-name="space" horiz-adv-x="221" unicode=" " /><glyph glyph-name="space.tab" horiz-adv-x="260" /><glyph d="M156 316H336V290H156V121Q156 95 149 70Q142 45 131 30H446V0H32V30H100Q111 48 118.5 68Q126 88 126 121V290H32V316H126V422Q126 470 138.5 507Q151 544 173 569.5Q195 595 226 608.5Q257 622 294 622Q361 622 399.5 588.5Q438 555 449 503L420 498Q411 542 379.5 567.5Q348 593 294 593Q234 593 195 550.5Q156 508 156 422Z" glyph-name="sterling" horiz-adv-x="480" unicode="&#163;" /><glyph d="M175 316H355V290H175V121Q175 95 168 70Q161 45 150 30H465V0H51V30H119Q130 48 137.5 68Q145 88 145 121V290H51V316H145V422Q145 470 157.5 507Q170 544 192 569.5Q214 595 245 608.5Q276 622 313 622Q380 622 418.5 588.5Q457 555 468 503L439 498Q430 542 398.5 567.5Q367 593 313 593Q253 593 214 550.5Q175 508 175 422Z" glyph-name="sterling.lt" horiz-adv-x="520" /><glyph d="M93 416H17V444H93V556H123V444H243V416H123V99Q123 57 140 38.5Q157 20 191 20Q224 20 248 33L255 7Q244 1 226 -3.5Q208 -8 190 -8Q93 -8 93 96Z" glyph-name="t" horiz-adv-x="283" unicode="t" /><glyph d="M27 284H93V416H17V444H93V556H123V444H243V416H123V284H220V257H123V99Q123 57 140 38.5Q157 20 191 20Q224 20 248 33L255 7Q244 1 226 -3.5Q208 -8 190 -8Q93 -8 93 96V257H27Z" glyph-name="tbar" horiz-adv-x="283" unicode="&#359;" /><glyph d="M183 503 215 660H241L209 503ZM93 416H17V444H93V556H123V444H243V416H123V99Q123 57 140 38.5Q157 20 191 20Q224 20 248 33L255 7Q244 1 226 -3.5Q208 -8 190 -8Q93 -8 93 96Z" glyph-name="tcaron" horiz-adv-x="283" unicode="&#357;" /><glyph d="M93 416H17V444H93V556H123V444H243V416H123V99Q123 57 140 38.5Q157 20 191 20Q224 20 248 33L255 7Q244 1 226 -3.5Q208 -8 190 -8Q93 -8 93 96ZM126 -159Q149 -153 162 -141Q175 -129 175 -104Q173 -105 170.5 -105Q168 -105 166 -105Q143 -105 143 -82Q143 -59 166 -59H168Q194 -61 194 -93Q194 -128 177.5 -147Q161 -166 129 -174Z" glyph-name="tcommaaccent" horiz-adv-x="283" unicode="&#355;" /><glyph d="M93 416H17V444H93V556H123V444H243V416H123V99Q123 57 140 38.5Q157 20 191 20Q224 20 248 33L255 7Q244 1 226 -3.5Q208 -8 190 -8Q93 -8 93 96ZM86 630Q86 653 109 653Q132 653 132 630Q132 607 109 607Q86 607 86 630Z" glyph-name="tdotaccent" horiz-adv-x="283" unicode="&#7787;" /><glyph d="M140 286H113V582L27 537V566L123 615H140ZM304 467H329Q358 467 377.5 483.5Q397 500 397 530Q397 558 378 576Q359 594 327 594Q295 594 275.5 576Q256 558 251 529L225 534Q230 570 256.5 594.5Q283 619 326 619Q372 619 398.5 594Q425 569 425 531Q425 502 407.5 481Q390 460 365 455Q393 450 412.5 429.5Q432 409 432 376Q432 337 403.5 309Q375 281 326 281Q280 281 252.5 304.5Q225 328 220 369L247 374Q251 342 271 324Q291 306 326 306Q361 306 382.5 325Q404 344 404 376Q404 408 382 425.5Q360 443 330 443H304ZM370 0H340L749 614H779ZM799 0H772V296L686 251V280L782 329H799ZM1012 333Q1054 333 1076.5 312Q1099 291 1105 258L1078 254Q1075 279 1058.5 294Q1042 309 1010 309Q968 309 941 271Q914 233 914 166Q914 161 914 154.5Q914 148 915 143Q923 175 948.5 194.5Q974 214 1006 214Q1052 214 1082 182.5Q1112 151 1112 105Q1112 59 1082 27Q1052 -5 1005 -5Q972 -5 948.5 10.5Q925 26 911 52Q898 75 893 103Q888 131 888 160Q888 204 898 236.5Q908 269 924.5 290.5Q941 312 963.5 322.5Q986 333 1012 333ZM923 105Q923 69 946 44.5Q969 20 1005 20Q1040 20 1062.5 44Q1085 68 1085 105Q1085 142 1062.5 166Q1040 190 1005 190Q970 190 946.5 166Q923 142 923 105Z" glyph-name="thirteensixteenths" horiz-adv-x="1141" unicode="&#61985;" /><glyph d="M140 286H113V582L27 537V566L123 615H140ZM304 467H329Q358 467 377.5 483.5Q397 500 397 530Q397 558 378 576Q359 594 327 594Q295 594 275.5 576Q256 558 251 529L225 534Q230 570 256.5 594.5Q283 619 326 619Q372 619 398.5 594Q425 569 425 531Q425 502 407.5 481Q390 460 365 455Q393 450 412.5 429.5Q432 409 432 376Q432 337 403.5 309Q375 281 326 281Q280 281 252.5 304.5Q225 328 220 369L247 374Q251 342 271 324Q291 306 326 306Q361 306 382.5 325Q404 344 404 376Q404 408 382 425.5Q360 443 330 443H304ZM370 0H340L749 614H779ZM766 181H791Q820 181 839.5 197.5Q859 214 859 244Q859 272 840 290Q821 308 789 308Q757 308 737.5 290Q718 272 713 243L687 248Q692 284 718.5 308.5Q745 333 788 333Q834 333 860.5 308Q887 283 887 245Q887 216 869.5 195Q852 174 827 169Q855 164 874.5 143.5Q894 123 894 90Q894 51 865.5 23Q837 -5 788 -5Q742 -5 714.5 18.5Q687 42 682 83L709 88Q713 56 733 38Q753 20 788 20Q823 20 844.5 39Q866 58 866 90Q866 122 844 139.5Q822 157 792 157H766ZM1121 242Q1121 272 1102.5 290Q1084 308 1052 308Q1015 308 996.5 286.5Q978 265 975 232L948 236Q952 280 978 306.5Q1004 333 1052 333Q1097 333 1122.5 308Q1148 283 1148 242Q1148 210 1127.5 184Q1107 158 1082 131L984 25H1156V0H946V19L1061 145Q1087 173 1104 194.5Q1121 216 1121 242Z" glyph-name="thirteenthirtyseconds" horiz-adv-x="1180" /><glyph d="M107 467H132Q161 467 180.5 483.5Q200 500 200 530Q200 558 181 576Q162 594 130 594Q98 594 78.5 576Q59 558 54 529L28 534Q33 570 59.5 594.5Q86 619 129 619Q175 619 201.5 594Q228 569 228 531Q228 502 210.5 481Q193 460 168 455Q196 450 215.5 429.5Q235 409 235 376Q235 337 206.5 309Q178 281 129 281Q83 281 55.5 304.5Q28 328 23 369L50 374Q54 342 74 324Q94 306 129 306Q164 306 185.5 325Q207 344 207 376Q207 408 185 425.5Q163 443 133 443H107ZM403 286H376V582L290 537V566L386 615H403ZM370 0H340L749 614H779ZM766 181H791Q820 181 839.5 197.5Q859 214 859 244Q859 272 840 290Q821 308 789 308Q757 308 737.5 290Q718 272 713 243L687 248Q692 284 718.5 308.5Q745 333 788 333Q834 333 860.5 308Q887 283 887 245Q887 216 869.5 195Q852 174 827 169Q855 164 874.5 143.5Q894 123 894 90Q894 51 865.5 23Q837 -5 788 -5Q742 -5 714.5 18.5Q687 42 682 83L709 88Q713 56 733 38Q753 20 788 20Q823 20 844.5 39Q866 58 866 90Q866 122 844 139.5Q822 157 792 157H766ZM1121 242Q1121 272 1102.5 290Q1084 308 1052 308Q1015 308 996.5 286.5Q978 265 975 232L948 236Q952 280 978 306.5Q1004 333 1052 333Q1097 333 1122.5 308Q1148 283 1148 242Q1148 210 1127.5 184Q1107 158 1082 131L984 25H1156V0H946V19L1061 145Q1087 173 1104 194.5Q1121 216 1121 242Z" glyph-name="thirtyonethirtyseconds" horiz-adv-x="1180" /><glyph d="M105 -170H75V650H105V367Q115 383 130 398.5Q145 414 164 426Q183 438 205.5 445Q228 452 253 452Q302 452 337.5 433Q373 414 396.5 382.5Q420 351 431 309Q442 267 442 222Q442 177 431 135Q420 93 396.5 61.5Q373 30 337.5 11Q302 -8 253 -8Q228 -8 205.5 -1Q183 6 164 18Q145 30 130 45Q115 60 105 77ZM105 120Q131 71 169.5 46Q208 21 253 21Q290 21 319.5 36Q349 51 369.5 77.5Q390 104 400.5 141Q411 178 411 222Q411 266 400.5 303Q390 340 369.5 366.5Q349 393 319.5 408Q290 423 253 423Q208 423 169.5 398Q131 373 105 324Z" glyph-name="thorn" horiz-adv-x="484" unicode="&#254;" /><glyph d="M180 331H230Q259 331 284.5 340Q310 349 328.5 365.5Q347 382 358 406.5Q369 431 369 461Q369 490 358 514.5Q347 539 327.5 556.5Q308 574 280.5 583.5Q253 593 221 593Q157 593 116.5 557.5Q76 522 66 462L36 467Q41 500 55.5 528Q70 556 94 577Q118 598 150 610Q182 622 221 622Q262 622 295.5 610Q329 598 352.5 576.5Q376 555 388.5 525.5Q401 496 401 461Q401 432 391 407Q381 382 364 363.5Q347 345 324.5 332.5Q302 320 277 317Q303 314 328 303Q353 292 372 273Q391 254 402.5 227Q414 200 414 165Q414 130 400.5 98.5Q387 67 362 43.5Q337 20 301 6Q265 -8 221 -8Q135 -8 86 34.5Q37 77 28 152L59 158Q67 92 108 56.5Q149 21 221 21Q292 21 337 60Q382 99 382 165Q382 198 369.5 223.5Q357 249 336 266.5Q315 284 287.5 293Q260 302 230 302H180Z" glyph-name="three" horiz-adv-x="451" unicode="3" /><glyph d="M107 11H132Q161 11 180.5 27.5Q200 44 200 74Q200 102 181 120Q162 138 130 138Q98 138 78.5 120Q59 102 54 73L28 78Q33 114 59.5 138.5Q86 163 129 163Q175 163 201.5 138Q228 113 228 75Q228 46 210.5 25Q193 4 168 -1Q196 -6 215.5 -26.5Q235 -47 235 -80Q235 -119 206.5 -147Q178 -175 129 -175Q83 -175 55.5 -151.5Q28 -128 23 -87L50 -82Q54 -114 74 -132Q94 -150 129 -150Q164 -150 185.5 -131Q207 -112 207 -80Q207 -48 185 -30.5Q163 -13 133 -13H107Z" glyph-name="three.inf" horiz-adv-x="263" unicode="&#58740;" /><glyph d="M207 331H267Q296 331 321.5 340Q347 349 365.5 365.5Q384 382 395 406.5Q406 431 406 461Q406 490 394 514.5Q382 539 361.5 556.5Q341 574 313 583.5Q285 593 253 593Q189 593 146 557.5Q103 522 93 462L63 467Q68 500 83.5 528Q99 556 123.5 577Q148 598 181 610Q214 622 253 622Q294 622 328 610Q362 598 386.5 576.5Q411 555 424.5 525.5Q438 496 438 461Q438 432 428 407Q418 382 401 363.5Q384 345 361.5 332.5Q339 320 314 317Q340 314 365 303Q390 292 409 273Q428 254 439.5 227Q451 200 451 165Q451 130 436.5 98.5Q422 67 396 43.5Q370 20 333.5 6Q297 -8 253 -8Q167 -8 115.5 34.5Q64 77 55 152L86 158Q94 92 137.5 56.5Q181 21 253 21Q288 21 318.5 31.5Q349 42 371.5 60.5Q394 79 406.5 105.5Q419 132 419 165Q419 198 406.5 223.5Q394 249 373 266.5Q352 284 324.5 293Q297 302 267 302H207Z" glyph-name="three.lt" horiz-adv-x="520" /><glyph d="M107 467H132Q161 467 180.5 483.5Q200 500 200 530Q200 558 181 576Q162 594 130 594Q98 594 78.5 576Q59 558 54 529L28 534Q33 570 59.5 594.5Q86 619 129 619Q175 619 201.5 594Q228 569 228 531Q228 502 210.5 481Q193 460 168 455Q196 450 215.5 429.5Q235 409 235 376Q235 337 206.5 309Q178 281 129 281Q83 281 55.5 304.5Q28 328 23 369L50 374Q54 342 74 324Q94 306 129 306Q164 306 185.5 325Q207 344 207 376Q207 408 185 425.5Q163 443 133 443H107ZM173 0H143L552 614H582ZM515 105H637V186H664V105H725V80H664V0H637V80H483V102L612 328H641Z" glyph-name="threequarters" horiz-adv-x="750" unicode="&#190;" /><glyph d="M107 467H132Q161 467 180.5 483.5Q200 500 200 530Q200 558 181 576Q162 594 130 594Q98 594 78.5 576Q59 558 54 529L28 534Q33 570 59.5 594.5Q86 619 129 619Q175 619 201.5 594Q228 569 228 531Q228 502 210.5 481Q193 460 168 455Q196 450 215.5 429.5Q235 409 235 376Q235 337 206.5 309Q178 281 129 281Q83 281 55.5 304.5Q28 328 23 369L50 374Q54 342 74 324Q94 306 129 306Q164 306 185.5 325Q207 344 207 376Q207 408 185 425.5Q163 443 133 443H107ZM173 0H143L552 614H582ZM602 0H575V296L489 251V280L585 329H602ZM815 333Q857 333 879.5 312Q902 291 908 258L881 254Q878 279 861.5 294Q845 309 813 309Q771 309 744 271Q717 233 717 166Q717 161 717 154.5Q717 148 718 143Q726 175 751.5 194.5Q777 214 809 214Q855 214 885 182.5Q915 151 915 105Q915 59 885 27Q855 -5 808 -5Q775 -5 751.5 10.5Q728 26 714 52Q701 75 696 103Q691 131 691 160Q691 204 701 236.5Q711 269 727.5 290.5Q744 312 766.5 322.5Q789 333 815 333ZM726 105Q726 69 749 44.5Q772 20 808 20Q843 20 865.5 44Q888 68 888 105Q888 142 865.5 166Q843 190 808 190Q773 190 749.5 166Q726 142 726 105Z" glyph-name="threesixteenths" horiz-adv-x="944" unicode="&#61974;" /><glyph d="M107 467H132Q161 467 180.5 483.5Q200 500 200 530Q200 558 181 576Q162 594 130 594Q98 594 78.5 576Q59 558 54 529L28 534Q33 570 59.5 594.5Q86 619 129 619Q175 619 201.5 594Q228 569 228 531Q228 502 210.5 481Q193 460 168 455Q196 450 215.5 429.5Q235 409 235 376Q235 337 206.5 309Q178 281 129 281Q83 281 55.5 304.5Q28 328 23 369L50 374Q54 342 74 324Q94 306 129 306Q164 306 185.5 325Q207 344 207 376Q207 408 185 425.5Q163 443 133 443H107Z" glyph-name="threesuperior" horiz-adv-x="263" unicode="&#179;" /><glyph d="M107 467H132Q161 467 180.5 483.5Q200 500 200 530Q200 558 181 576Q162 594 130 594Q98 594 78.5 576Q59 558 54 529L28 534Q33 570 59.5 594.5Q86 619 129 619Q175 619 201.5 594Q228 569 228 531Q228 502 210.5 481Q193 460 168 455Q196 450 215.5 429.5Q235 409 235 376Q235 337 206.5 309Q178 281 129 281Q83 281 55.5 304.5Q28 328 23 369L50 374Q54 342 74 324Q94 306 129 306Q164 306 185.5 325Q207 344 207 376Q207 408 185 425.5Q163 443 133 443H107ZM173 0H143L552 614H582ZM569 181H594Q623 181 642.5 197.5Q662 214 662 244Q662 272 643 290Q624 308 592 308Q560 308 540.5 290Q521 272 516 243L490 248Q495 284 521.5 308.5Q548 333 591 333Q637 333 663.5 308Q690 283 690 245Q690 216 672.5 195Q655 174 630 169Q658 164 677.5 143.5Q697 123 697 90Q697 51 668.5 23Q640 -5 591 -5Q545 -5 517.5 18.5Q490 42 485 83L512 88Q516 56 536 38Q556 20 591 20Q626 20 647.5 39Q669 58 669 90Q669 122 647 139.5Q625 157 595 157H569ZM924 242Q924 272 905.5 290Q887 308 855 308Q818 308 799.5 286.5Q781 265 778 232L751 236Q755 280 781 306.5Q807 333 855 333Q900 333 925.5 308Q951 283 951 242Q951 210 930.5 184Q910 158 885 131L787 25H959V0H749V19L864 145Q890 173 907 194.5Q924 216 924 242Z" glyph-name="threethirtyseconds" horiz-adv-x="983" /><glyph d="M368 619Q368 575 352 549.5Q336 524 305 524Q285 524 270.5 535Q256 546 244 559Q232 572 220.5 583Q209 594 195 594Q176 594 166.5 575.5Q157 557 157 527H131Q131 570 147 596Q163 622 194 622Q214 622 228.5 611Q243 600 255 587Q267 574 278.5 563Q290 552 304 552Q323 552 332.5 570.5Q342 589 342 619Z" glyph-name="tilde" horiz-adv-x="500" unicode="&#732;" /><glyph d="M368 759Q368 715 352 689.5Q336 664 305 664Q285 664 270.5 675Q256 686 244 699Q232 712 220.5 723Q209 734 195 734Q176 734 166.5 715.5Q157 697 157 667H131Q131 710 147 736Q163 762 194 762Q214 762 228.5 751Q243 740 255 727Q267 714 278.5 703Q290 692 304 692Q323 692 332.5 710.5Q342 729 342 759Z" glyph-name="tilde.cap" horiz-adv-x="500" unicode="&#58404;" /><glyph d="M15 614H221V590H132V360H104V590H15ZM381 360 297 563V360H269V614H302L393 396L483 614H515V360H487V563L403 360Z" glyph-name="trademark" horiz-adv-x="565" unicode="&#8482;" /><glyph d="M199 528Q199 558 180.5 576Q162 594 130 594Q93 594 74.5 572.5Q56 551 53 518L26 522Q30 566 56 592.5Q82 619 130 619Q175 619 200.5 594Q226 569 226 528Q226 496 205.5 470Q185 444 160 417L62 311H234V286H24V305L139 431Q165 459 182 480.5Q199 502 199 528ZM392 470Q371 470 355 461Q339 452 328 439H304V614H479V589H329V470Q338 479 355 487Q372 495 394 495Q416 495 435 486.5Q454 478 467.5 464Q481 450 488.5 430Q496 410 496 388Q496 366 488 346.5Q480 327 465.5 312.5Q451 298 431 289.5Q411 281 388 281Q343 281 315 305Q287 329 282 371L308 376Q312 344 333.5 325Q355 306 388 306Q424 306 446.5 329.5Q469 353 469 388Q469 423 447.5 446.5Q426 470 392 470ZM434 0H404L813 614H843ZM830 181H855Q884 181 903.5 197.5Q923 214 923 244Q923 272 904 290Q885 308 853 308Q821 308 801.5 290Q782 272 777 243L751 248Q756 284 782.5 308.5Q809 333 852 333Q898 333 924.5 308Q951 283 951 245Q951 216 933.5 195Q916 174 891 169Q919 164 938.5 143.5Q958 123 958 90Q958 51 929.5 23Q901 -5 852 -5Q806 -5 778.5 18.5Q751 42 746 83L773 88Q777 56 797 38Q817 20 852 20Q887 20 908.5 39Q930 58 930 90Q930 122 908 139.5Q886 157 856 157H830ZM1185 242Q1185 272 1166.5 290Q1148 308 1116 308Q1079 308 1060.5 286.5Q1042 265 1039 232L1012 236Q1016 280 1042 306.5Q1068 333 1116 333Q1161 333 1186.5 308Q1212 283 1212 242Q1212 210 1191.5 184Q1171 158 1146 131L1048 25H1220V0H1010V19L1125 145Q1151 173 1168 194.5Q1185 216 1185 242Z" glyph-name="twentyfivethirtyseconds" horiz-adv-x="1244" /><glyph d="M199 528Q199 558 180.5 576Q162 594 130 594Q93 594 74.5 572.5Q56 551 53 518L26 522Q30 566 56 592.5Q82 619 130 619Q175 619 200.5 594Q226 569 226 528Q226 496 205.5 470Q185 444 160 417L62 311H234V286H24V305L139 431Q165 459 182 480.5Q199 502 199 528ZM387 281Q345 281 322.5 302.5Q300 324 294 356L320 361Q324 336 340.5 320.5Q357 305 388 305Q431 305 458 343.5Q485 382 485 449Q485 453 485 459.5Q485 466 484 472Q476 440 450.5 420Q425 400 393 400Q370 400 350.5 408.5Q331 417 317 432Q303 447 295 466.5Q287 486 287 509Q287 556 317 587.5Q347 619 394 619Q428 619 451 604Q474 589 488 563Q500 540 505 512Q510 484 510 455Q510 411 500.5 378Q491 345 474 323.5Q457 302 434.5 291.5Q412 281 387 281ZM476 510Q476 546 452.5 570.5Q429 595 394 595Q359 595 336 571Q313 547 313 510Q313 472 336 448.5Q359 425 394 425Q429 425 452.5 448.5Q476 472 476 510ZM453 0H423L832 614H862ZM849 181H874Q903 181 922.5 197.5Q942 214 942 244Q942 272 923 290Q904 308 872 308Q840 308 820.5 290Q801 272 796 243L770 248Q775 284 801.5 308.5Q828 333 871 333Q917 333 943.5 308Q970 283 970 245Q970 216 952.5 195Q935 174 910 169Q938 164 957.5 143.5Q977 123 977 90Q977 51 948.5 23Q920 -5 871 -5Q825 -5 797.5 18.5Q770 42 765 83L792 88Q796 56 816 38Q836 20 871 20Q906 20 927.5 39Q949 58 949 90Q949 122 927 139.5Q905 157 875 157H849ZM1204 242Q1204 272 1185.5 290Q1167 308 1135 308Q1098 308 1079.5 286.5Q1061 265 1058 232L1031 236Q1035 280 1061 306.5Q1087 333 1135 333Q1180 333 1205.5 308Q1231 283 1231 242Q1231 210 1210.5 184Q1190 158 1165 131L1067 25H1239V0H1029V19L1144 145Q1170 173 1187 194.5Q1204 216 1204 242Z" glyph-name="twentyninethirtyseconds" horiz-adv-x="1263" /><glyph d="M199 528Q199 558 180.5 576Q162 594 130 594Q93 594 74.5 572.5Q56 551 53 518L26 522Q30 566 56 592.5Q82 619 130 619Q175 619 200.5 594Q226 569 226 528Q226 496 205.5 470Q185 444 160 417L62 311H234V286H24V305L139 431Q165 459 182 480.5Q199 502 199 528ZM398 286H371V582L285 537V566L381 615H398ZM365 0H335L744 614H774ZM761 181H786Q815 181 834.5 197.5Q854 214 854 244Q854 272 835 290Q816 308 784 308Q752 308 732.5 290Q713 272 708 243L682 248Q687 284 713.5 308.5Q740 333 783 333Q829 333 855.5 308Q882 283 882 245Q882 216 864.5 195Q847 174 822 169Q850 164 869.5 143.5Q889 123 889 90Q889 51 860.5 23Q832 -5 783 -5Q737 -5 709.5 18.5Q682 42 677 83L704 88Q708 56 728 38Q748 20 783 20Q818 20 839.5 39Q861 58 861 90Q861 122 839 139.5Q817 157 787 157H761ZM1116 242Q1116 272 1097.5 290Q1079 308 1047 308Q1010 308 991.5 286.5Q973 265 970 232L943 236Q947 280 973 306.5Q999 333 1047 333Q1092 333 1117.5 308Q1143 283 1143 242Q1143 210 1122.5 184Q1102 158 1077 131L979 25H1151V0H941V19L1056 145Q1082 173 1099 194.5Q1116 216 1116 242Z" glyph-name="twentyonethirtyseconds" horiz-adv-x="1175" /><glyph d="M199 528Q199 558 180.5 576Q162 594 130 594Q93 594 74.5 572.5Q56 551 53 518L26 522Q30 566 56 592.5Q82 619 130 619Q175 619 200.5 594Q226 569 226 528Q226 496 205.5 470Q185 444 160 417L62 311H234V286H24V305L139 431Q165 459 182 480.5Q199 502 199 528ZM365 286H336L457 589H278V614H486V592ZM418 0H388L797 614H827ZM814 181H839Q868 181 887.5 197.5Q907 214 907 244Q907 272 888 290Q869 308 837 308Q805 308 785.5 290Q766 272 761 243L735 248Q740 284 766.5 308.5Q793 333 836 333Q882 333 908.5 308Q935 283 935 245Q935 216 917.5 195Q900 174 875 169Q903 164 922.5 143.5Q942 123 942 90Q942 51 913.5 23Q885 -5 836 -5Q790 -5 762.5 18.5Q735 42 730 83L757 88Q761 56 781 38Q801 20 836 20Q871 20 892.5 39Q914 58 914 90Q914 122 892 139.5Q870 157 840 157H814ZM1169 242Q1169 272 1150.5 290Q1132 308 1100 308Q1063 308 1044.5 286.5Q1026 265 1023 232L996 236Q1000 280 1026 306.5Q1052 333 1100 333Q1145 333 1170.5 308Q1196 283 1196 242Q1196 210 1175.5 184Q1155 158 1130 131L1032 25H1204V0H994V19L1109 145Q1135 173 1152 194.5Q1169 216 1169 242Z" glyph-name="twentyseventhirtyseconds" horiz-adv-x="1228" /><glyph d="M199 528Q199 558 180.5 576Q162 594 130 594Q93 594 74.5 572.5Q56 551 53 518L26 522Q30 566 56 592.5Q82 619 130 619Q175 619 200.5 594Q226 569 226 528Q226 496 205.5 470Q185 444 160 417L62 311H234V286H24V305L139 431Q165 459 182 480.5Q199 502 199 528ZM365 467H390Q419 467 438.5 483.5Q458 500 458 530Q458 558 439 576Q420 594 388 594Q356 594 336.5 576Q317 558 312 529L286 534Q291 570 317.5 594.5Q344 619 387 619Q433 619 459.5 594Q486 569 486 531Q486 502 468.5 481Q451 460 426 455Q454 450 473.5 429.5Q493 409 493 376Q493 337 464.5 309Q436 281 387 281Q341 281 313.5 304.5Q286 328 281 369L308 374Q312 342 332 324Q352 306 387 306Q422 306 443.5 325Q465 344 465 376Q465 408 443 425.5Q421 443 391 443H365ZM431 0H401L810 614H840ZM827 181H852Q881 181 900.5 197.5Q920 214 920 244Q920 272 901 290Q882 308 850 308Q818 308 798.5 290Q779 272 774 243L748 248Q753 284 779.5 308.5Q806 333 849 333Q895 333 921.5 308Q948 283 948 245Q948 216 930.5 195Q913 174 888 169Q916 164 935.5 143.5Q955 123 955 90Q955 51 926.5 23Q898 -5 849 -5Q803 -5 775.5 18.5Q748 42 743 83L770 88Q774 56 794 38Q814 20 849 20Q884 20 905.5 39Q927 58 927 90Q927 122 905 139.5Q883 157 853 157H827ZM1182 242Q1182 272 1163.5 290Q1145 308 1113 308Q1076 308 1057.5 286.5Q1039 265 1036 232L1009 236Q1013 280 1039 306.5Q1065 333 1113 333Q1158 333 1183.5 308Q1209 283 1209 242Q1209 210 1188.5 184Q1168 158 1143 131L1045 25H1217V0H1007V19L1122 145Q1148 173 1165 194.5Q1182 216 1182 242Z" glyph-name="twentythreethirtyseconds" horiz-adv-x="1241" /><glyph d="M364 455Q364 519 324.5 556Q285 593 222 593Q145 593 104.5 549Q64 505 59 434L28 439Q35 521 82.5 571.5Q130 622 222 622Q261 622 293 609.5Q325 597 347.5 575Q370 553 382 522Q394 491 394 455Q394 424 383.5 397.5Q373 371 355.5 346Q338 321 316 296.5Q294 272 271 246L68 30H410V0H24V22L254 271Q278 297 298.5 319.5Q319 342 333.5 363.5Q348 385 356 407Q364 429 364 455Z" glyph-name="two" horiz-adv-x="434" unicode="2" /><glyph d="M199 72Q199 102 180.5 120Q162 138 130 138Q93 138 74.5 116.5Q56 95 53 62L26 66Q30 110 56 136.5Q82 163 130 163Q175 163 200.5 138Q226 113 226 72Q226 40 205.5 14Q185 -12 160 -39L62 -145H234V-170H24V-151L139 -25Q165 3 182 24.5Q199 46 199 72Z" glyph-name="two.inf" horiz-adv-x="258" unicode="&#58739;" /><glyph d="M404 457Q404 521 362.5 557Q321 593 255 593Q180 593 138.5 550.5Q97 508 88 434L58 439Q68 524 119 573Q170 622 255 622Q295 622 328.5 610Q362 598 385 576Q408 554 421 523.5Q434 493 434 457Q434 426 423 399Q412 372 394 346.5Q376 321 353.5 296.5Q331 272 308 246L98 30H451V0H53V22L290 271Q315 297 336 320Q357 343 372 365Q387 387 395.5 409Q404 431 404 457Z" glyph-name="two.lt" horiz-adv-x="520" /><glyph d="M199 528Q199 558 180.5 576Q162 594 130 594Q93 594 74.5 572.5Q56 551 53 518L26 522Q30 566 56 592.5Q82 619 130 619Q175 619 200.5 594Q226 569 226 528Q226 496 205.5 470Q185 444 160 417L62 311H234V286H24V305L139 431Q165 459 182 480.5Q199 502 199 528Z" glyph-name="twosuperior" horiz-adv-x="258" unicode="&#178;" /><glyph d="M402 0H372V82Q351 46 312.5 19Q274 -8 223 -8Q147 -8 108.5 35Q70 78 70 148V444H100V152Q100 96 130 58.5Q160 21 225 21Q276 21 314 52.5Q352 84 372 126V444H402Z" glyph-name="u" horiz-adv-x="477" unicode="u" /><glyph d="M215 523 300 650H333L248 523ZM402 0H372V82Q351 46 312.5 19Q274 -8 223 -8Q147 -8 108.5 35Q70 78 70 148V444H100V152Q100 96 130 58.5Q160 21 225 21Q276 21 314 52.5Q352 84 372 126V444H402Z" glyph-name="uacute" horiz-adv-x="477" unicode="&#250;" /><glyph d="M402 0H372V82Q351 46 312.5 19Q274 -8 223 -8Q147 -8 108.5 35Q70 78 70 148V444H100V152Q100 96 130 58.5Q160 21 225 21Q276 21 314 52.5Q352 84 372 126V444H402ZM236 510Q196 510 169.5 539Q143 568 143 624H170Q170 581 188.5 558Q207 535 236 535Q265 535 283.5 558Q302 581 302 624H329Q329 568 302.5 539Q276 510 236 510Z" glyph-name="ubreve" horiz-adv-x="477" unicode="&#365;" /><glyph d="M340 516H309L236 619L163 516H132L223 643H249ZM402 0H372V82Q351 46 312.5 19Q274 -8 223 -8Q147 -8 108.5 35Q70 78 70 148V444H100V152Q100 96 130 58.5Q160 21 225 21Q276 21 314 52.5Q352 84 372 126V444H402Z" glyph-name="ucircumflex" horiz-adv-x="477" unicode="&#251;" /><glyph d="M156 570Q156 593 179 593Q202 593 202 570Q202 547 179 547Q156 547 156 570ZM270 570Q270 593 293 593Q316 593 316 570Q316 547 293 547Q270 547 270 570ZM402 0H372V82Q351 46 312.5 19Q274 -8 223 -8Q147 -8 108.5 35Q70 78 70 148V444H100V152Q100 96 130 58.5Q160 21 225 21Q276 21 314 52.5Q352 84 372 126V444H402Z" glyph-name="udieresis" horiz-adv-x="477" unicode="&#252;" /><glyph d="M402 0H372V82Q351 46 312.5 19Q274 -8 223 -8Q147 -8 108.5 35Q70 78 70 148V444H100V152Q100 96 130 58.5Q160 21 225 21Q276 21 314 52.5Q352 84 372 126V444H402ZM220 523 135 650H168L253 523Z" glyph-name="ugrave" horiz-adv-x="477" unicode="&#249;" /><glyph d="M402 0H372V82Q351 46 312.5 19Q274 -8 223 -8Q147 -8 108.5 35Q70 78 70 148V444H100V152Q100 96 130 58.5Q160 21 225 21Q276 21 314 52.5Q352 84 372 126V444H402ZM168 523 247 650H278L199 523ZM271 523 350 650H381L302 523Z" glyph-name="uhungarumlaut" horiz-adv-x="477" unicode="&#369;" /><glyph d="M402 0H372V82Q351 46 312.5 19Q274 -8 223 -8Q147 -8 108.5 35Q70 78 70 148V444H100V152Q100 96 130 58.5Q160 21 225 21Q276 21 314 52.5Q352 84 372 126V444H402ZM140 569H333V542H140Z" glyph-name="umacron" horiz-adv-x="477" unicode="&#363;" /><glyph d="M20 -42H321V-73H20Z" glyph-name="underscore" horiz-adv-x="341" unicode="_" /><glyph glyph-name="uni00A0" horiz-adv-x="221" unicode="&#160;" /><glyph d="M40 273H281V244H40Z" glyph-name="uni00AD" horiz-adv-x="321" unicode="&#173;" /><glyph d="M153 307Q197 307 221.5 347Q246 387 246 450Q246 514 221.5 554Q197 594 153 594Q109 594 84.5 554Q60 514 60 450Q60 387 84.5 347Q109 307 153 307ZM153 281Q126 281 103.5 293.5Q81 306 65.5 328Q50 350 41 381Q32 412 32 450Q32 487 41 518.5Q50 550 65.5 572Q81 594 103.5 606.5Q126 619 153 619Q180 619 202.5 606.5Q225 594 241 572Q257 550 265.5 518.5Q274 487 274 450Q274 412 265.5 381Q257 350 241 328Q225 306 202.5 293.5Q180 281 153 281Z" glyph-name="uni2070" horiz-adv-x="307" unicode="&#8304;" /><glyph d="M53 391H175V472H202V391H263V366H202V286H175V366H21V388L150 614H179Z" glyph-name="uni2074" horiz-adv-x="288" unicode="&#8308;" /><glyph d="M134 470Q113 470 97 461Q81 452 70 439H46V614H221V589H71V470Q80 479 97 487Q114 495 136 495Q158 495 177 486.5Q196 478 209.5 464Q223 450 230.5 430Q238 410 238 388Q238 366 230 346.5Q222 327 207.5 312.5Q193 298 173 289.5Q153 281 130 281Q85 281 57 305Q29 329 24 371L50 376Q54 344 75.5 325Q97 306 130 306Q166 306 188.5 329.5Q211 353 211 388Q211 423 189.5 446.5Q168 470 134 470Z" glyph-name="uni2075" horiz-adv-x="266" unicode="&#8309;" /><glyph d="M156 619Q198 619 220.5 598Q243 577 249 544L222 540Q219 565 202.5 580Q186 595 154 595Q112 595 85 557Q58 519 58 452Q58 447 58 440.5Q58 434 59 429Q67 461 92.5 480.5Q118 500 150 500Q196 500 226 468.5Q256 437 256 391Q256 345 226 313Q196 281 149 281Q116 281 92.5 296.5Q69 312 55 338Q42 361 37 389Q32 417 32 446Q32 490 42 522.5Q52 555 68.5 576.5Q85 598 107.5 608.5Q130 619 156 619ZM67 391Q67 355 90 330.5Q113 306 149 306Q184 306 206.5 330Q229 354 229 391Q229 428 206.5 452Q184 476 149 476Q114 476 90.5 452Q67 428 67 391Z" glyph-name="uni2076" horiz-adv-x="285" unicode="&#8310;" /><glyph d="M107 286H78L199 589H20V614H228V592Z" glyph-name="uni2077" horiz-adv-x="250" unicode="&#8311;" /><glyph d="M138 305Q176 305 199 325.5Q222 346 222 377Q222 408 199 428.5Q176 449 138 449Q101 449 78 428.5Q55 408 55 377Q55 346 78 325.5Q101 305 138 305ZM138 473Q170 473 189.5 490.5Q209 508 209 534Q209 560 189.5 578Q170 596 138 596Q107 596 87.5 578Q68 560 68 534Q68 508 87.5 490.5Q107 473 138 473ZM138 281Q90 281 59 307.5Q28 334 28 376Q28 407 47 430Q66 453 96 461Q71 470 56.5 489.5Q42 509 42 535Q42 571 69 595Q96 619 138 619Q181 619 208.5 595Q236 571 236 535Q236 509 221 489.5Q206 470 181 461Q211 453 230 430Q249 407 249 376Q249 334 218 307.5Q187 281 138 281Z" glyph-name="uni2078" horiz-adv-x="277" unicode="&#8312;" /><glyph d="M129 281Q87 281 64.5 302.5Q42 324 36 356L62 361Q66 336 82.5 320.5Q99 305 130 305Q173 305 200 343.5Q227 382 227 449Q227 453 227 459.5Q227 466 226 472Q218 440 192.5 420Q167 400 135 400Q112 400 92.5 408.5Q73 417 59 432Q45 447 37 466.5Q29 486 29 509Q29 556 59 587.5Q89 619 136 619Q170 619 193 604Q216 589 230 563Q242 540 247 512Q252 484 252 455Q252 411 242.5 378Q233 345 216 323.5Q199 302 176.5 291.5Q154 281 129 281ZM218 510Q218 546 194.5 570.5Q171 595 136 595Q101 595 78 571Q55 547 55 510Q55 472 78 448.5Q101 425 136 425Q171 425 194.5 448.5Q218 472 218 510Z" glyph-name="uni2079" horiz-adv-x="285" unicode="&#8313;" /><glyph d="M156 542V455H243V432H156V344H133V432H45V455H133V542Z" glyph-name="uni207A" horiz-adv-x="289" unicode="&#8314;" /><glyph d="M48 455H248V432H48Z" glyph-name="uni207B" horiz-adv-x="296" unicode="&#8315;" /><glyph d="M50 421H250V398H50ZM50 490H250V467H50Z" glyph-name="uni207C" horiz-adv-x="299" unicode="&#8316;" /><glyph d="M30 450Q30 534 64.5 589.5Q99 645 156 668L160 645Q115 626 85 577Q55 528 55 450Q55 372 85 323.5Q115 275 160 255L156 232Q99 255 64.5 310.5Q30 366 30 450Z" glyph-name="uni207D" horiz-adv-x="194" unicode="&#8317;" /><glyph d="M165 450Q165 366 130 310.5Q95 255 38 232L35 255Q79 275 109 323.5Q139 372 139 450Q139 528 109 577Q79 626 35 645L38 668Q95 645 130 589.5Q165 534 165 450Z" glyph-name="uni207E" horiz-adv-x="194" unicode="&#8318;" /><glyph d="M153 21Q197 21 221.5 61Q246 101 246 164Q246 228 221.5 268Q197 308 153 308Q109 308 84.5 268Q60 228 60 164Q60 101 84.5 61Q109 21 153 21ZM153 -5Q126 -5 103.5 7.5Q81 20 65.5 42Q50 64 41 95Q32 126 32 164Q32 201 41 232.5Q50 264 65.5 286Q81 308 103.5 320.5Q126 333 153 333Q180 333 202.5 320.5Q225 308 241 286Q257 264 265.5 232.5Q274 201 274 164Q274 126 265.5 95Q257 64 241 42Q225 20 202.5 7.5Q180 -5 153 -5Z" glyph-name="uni2080" horiz-adv-x="307" unicode="&#8320;" /><glyph d="M140 0H113V296L27 251V280L123 329H140Z" glyph-name="uni2081" horiz-adv-x="197" unicode="&#8321;" /><glyph d="M199 242Q199 272 180.5 290Q162 308 130 308Q93 308 74.5 286.5Q56 265 53 232L26 236Q30 280 56 306.5Q82 333 130 333Q175 333 200.5 308Q226 283 226 242Q226 210 205.5 184Q185 158 160 131L62 25H234V0H24V19L139 145Q165 173 182 194.5Q199 216 199 242Z" glyph-name="uni2082" horiz-adv-x="258" unicode="&#8322;" /><glyph d="M107 181H132Q161 181 180.5 197.5Q200 214 200 244Q200 272 181 290Q162 308 130 308Q98 308 78.5 290Q59 272 54 243L28 248Q33 284 59.5 308.5Q86 333 129 333Q175 333 201.5 308Q228 283 228 245Q228 216 210.5 195Q193 174 168 169Q196 164 215.5 143.5Q235 123 235 90Q235 51 206.5 23Q178 -5 129 -5Q83 -5 55.5 18.5Q28 42 23 83L50 88Q54 56 74 38Q94 20 129 20Q164 20 185.5 39Q207 58 207 90Q207 122 185 139.5Q163 157 133 157H107Z" glyph-name="uni2083" horiz-adv-x="263" unicode="&#8323;" /><glyph d="M53 105H175V186H202V105H263V80H202V0H175V80H21V102L150 328H179Z" glyph-name="uni2084" horiz-adv-x="288" unicode="&#8324;" /><glyph d="M134 184Q113 184 97 175Q81 166 70 153H46V328H221V303H71V184Q80 193 97 201Q114 209 136 209Q158 209 177 200.5Q196 192 209.5 178Q223 164 230.5 144Q238 124 238 102Q238 80 230 60.5Q222 41 207.5 26.5Q193 12 173 3.5Q153 -5 130 -5Q85 -5 57 19Q29 43 24 85L50 90Q54 58 75.5 39Q97 20 130 20Q166 20 188.5 43.5Q211 67 211 102Q211 137 189.5 160.5Q168 184 134 184Z" glyph-name="uni2085" horiz-adv-x="266" unicode="&#8325;" /><glyph d="M156 333Q198 333 220.5 312Q243 291 249 258L222 254Q219 279 202.5 294Q186 309 154 309Q112 309 85 271Q58 233 58 166Q58 161 58 154.5Q58 148 59 143Q67 175 92.5 194.5Q118 214 150 214Q196 214 226 182.5Q256 151 256 105Q256 59 226 27Q196 -5 149 -5Q116 -5 92.5 10.5Q69 26 55 52Q42 75 37 103Q32 131 32 160Q32 204 42 236.5Q52 269 68.5 290.5Q85 312 107.5 322.5Q130 333 156 333ZM67 105Q67 69 90 44.5Q113 20 149 20Q184 20 206.5 44Q229 68 229 105Q229 142 206.5 166Q184 190 149 190Q114 190 90.5 166Q67 142 67 105Z" glyph-name="uni2086" horiz-adv-x="285" unicode="&#8326;" /><glyph d="M107 0H78L199 303H20V328H228V306Z" glyph-name="uni2087" horiz-adv-x="250" unicode="&#8327;" /><glyph d="M138 19Q176 19 199 39.5Q222 60 222 91Q222 122 199 142.5Q176 163 138 163Q101 163 78 142.5Q55 122 55 91Q55 60 78 39.5Q101 19 138 19ZM138 187Q170 187 189.5 204.5Q209 222 209 248Q209 274 189.5 292Q170 310 138 310Q107 310 87.5 292Q68 274 68 248Q68 222 87.5 204.5Q107 187 138 187ZM138 -5Q90 -5 59 21.5Q28 48 28 90Q28 121 47 144Q66 167 96 175Q71 184 56.5 203.5Q42 223 42 249Q42 285 69 309Q96 333 138 333Q181 333 208.5 309Q236 285 236 249Q236 223 221 203.5Q206 184 181 175Q211 167 230 144Q249 121 249 90Q249 48 218 21.5Q187 -5 138 -5Z" glyph-name="uni2088" horiz-adv-x="277" unicode="&#8328;" /></font>
</defs>
</svg>
