<?xml version="1.0" standalone="no"?><!DOCTYPE svg PUBLIC "-//W3C//DTD SVG 1.1//EN" "http://www.w3.org/Graphics/SVG/1.1/DTD/svg11.dtd" ><svg version="1.1" xmlns="http://www.w3.org/2000/svg"><defs><font horiz-adv-x="0" id="font"><font-face ascent="850" bbox="-120 -230 1364 906" cap-height="614" descent="-350" font-family="The Met Sans" font-stretch="normal" font-style="normal" font-weight="600" units-per-em="1000" x-height="444" /><missing-glyph d="M682 614V0H68V614ZM160 92H590V522H160ZM256 482 375 364 494 482 550 426 432 307 550 188 494 132 375 250 256 132 200 188 318 307 200 426Z" horiz-adv-x="750" /><glyph glyph-name=".null" horiz-adv-x="0" /><glyph d="M377 614 612 0H482L427 148H196L142 0H15L250 614ZM236 256H387L312 460Z" glyph-name="A" horiz-adv-x="626" unicode="A" /><glyph d="M839 614V503H567V368H812V259H567V112H839V0H441V148H233L149 0H15L365 614ZM295 256H441V512Z" glyph-name="AE" horiz-adv-x="879" unicode="&#198;" /><glyph d="M839 614V503H567V368H812V259H567V112H839V0H441V148H233L149 0H15L365 614ZM295 256H441V512ZM520 669 599 791H734L641 669Z" glyph-name="AEacute" horiz-adv-x="879" unicode="&#508;" /><glyph d="M377 614 612 0H482L427 148H196L142 0H15L250 614ZM247 669 326 791H461L368 669ZM236 256H387L312 460Z" glyph-name="Aacute" horiz-adv-x="626" unicode="&#193;" /><glyph d="M377 614 612 0H482L427 148H196L142 0H15L250 614ZM313 663Q253 663 216 697Q179 731 179 797H267Q267 772 279.5 760.5Q292 749 313 749Q335 749 347.5 760.5Q360 772 360 797H448Q448 731 411 697Q374 663 313 663ZM236 256H387L312 460Z" glyph-name="Abreve" horiz-adv-x="626" unicode="&#258;" /><glyph d="M377 614 612 0H482L427 148H196L142 0H15L250 614ZM465 669H360L313 723L266 669H161L261 796H365ZM236 256H387L312 460Z" glyph-name="Acircumflex" horiz-adv-x="626" unicode="&#194;" /><glyph d="M377 614 612 0H482L427 148H196L142 0H15L250 614ZM236 256H387L312 460ZM330 730Q330 759 348.5 777.5Q367 796 396 796Q426 796 444.5 777.5Q463 759 463 730Q463 701 444.5 682.5Q426 664 396 664Q367 664 348.5 682.5Q330 701 330 730ZM164 730Q164 759 182.5 777.5Q201 796 231 796Q260 796 278.5 777.5Q297 759 297 730Q297 701 278.5 682.5Q260 664 231 664Q201 664 182.5 682.5Q164 701 164 730Z" glyph-name="Adieresis" horiz-adv-x="626" unicode="&#196;" /><glyph d="M377 614 612 0H482L427 148H196L142 0H15L250 614ZM257 669 165 791H300L379 669ZM236 256H387L312 460Z" glyph-name="Agrave" horiz-adv-x="626" unicode="&#192;" /><glyph d="M377 614 612 0H482L427 148H196L142 0H15L250 614ZM193 760H435V669H193ZM236 256H387L312 460Z" glyph-name="Amacron" horiz-adv-x="626" unicode="&#256;" /><glyph d="M377 614 612 0Q555 -36 555 -71Q555 -101 591 -101Q605 -101 615.5 -97.5Q626 -94 631 -91L645 -157Q638 -165 618.5 -172.5Q599 -180 568 -180Q520 -180 495 -157.5Q470 -135 470 -100Q470 -71 484.5 -45Q499 -19 525 0H482L427 148H196L142 0H15L250 614ZM236 256H387L312 460Z" glyph-name="Aogonek" horiz-adv-x="626" unicode="&#260;" /><glyph d="M377 614 612 0H482L427 148H196L142 0H15L250 614ZM413 743Q413 722 405 704.5Q397 687 383.5 674Q370 661 352 653.5Q334 646 313 646Q292 646 274 653.5Q256 661 242.5 674Q229 687 221.5 704.5Q214 722 214 743Q214 764 221.5 781.5Q229 799 242.5 812Q256 825 274 832.5Q292 840 313 840Q334 840 352 832.5Q370 825 383.5 812Q397 799 405 781.5Q413 764 413 743ZM236 256H387L312 460ZM353 743Q353 760 341.5 771.5Q330 783 313 783Q296 783 285 771.5Q274 760 274 743Q274 726 285 715Q296 704 313 704Q330 704 341.5 715Q353 726 353 743Z" glyph-name="Aring" horiz-adv-x="626" unicode="&#197;" /><glyph d="M377 614 612 0H482L427 148H196L142 0H15L250 614ZM410 713Q410 679 382 655.5Q354 632 312 632Q270 632 241.5 655.5Q213 679 213 713Q213 747 241.5 770.5Q270 794 312 794Q354 794 382 770.5Q410 747 410 713ZM236 256H387L312 460ZM449 906 378 812H257L314 906ZM312 682Q329 682 340 690.5Q351 699 351 713Q351 727 340 735.5Q329 744 312 744Q295 744 283.5 735.5Q272 727 272 713Q272 699 283.5 690.5Q295 682 312 682Z" glyph-name="Aringacute" horiz-adv-x="626" unicode="&#506;" /><glyph d="M377 614 612 0H482L427 148H196L142 0H15L250 614ZM462 802Q462 772 457 747Q452 722 442 703Q432 684 415.5 673.5Q399 663 377 663Q359 663 344 669.5Q329 676 316 684Q303 692 290 698.5Q277 705 264 705Q236 705 235 666H164Q164 696 169 721Q174 746 184.5 765Q195 784 211 794.5Q227 805 249 805Q267 805 282 798.5Q297 792 310.5 784Q324 776 336.5 769.5Q349 763 362 763Q391 763 391 802ZM236 256H387L312 460Z" glyph-name="Atilde" horiz-adv-x="626" unicode="&#195;" /><glyph d="M420 317Q464 303 492 264Q520 225 520 174Q520 89 465 44.5Q410 0 313 0H59V614H294Q391 614 446 572Q501 530 501 447Q501 397 477.5 363Q454 329 420 317ZM286 362Q379 362 379 435Q379 473 355.5 489.5Q332 506 286 506H182V362ZM182 108H303Q348 108 372 129Q396 150 396 185Q396 221 372 241.5Q348 262 303 262H182Z" glyph-name="B" horiz-adv-x="553" unicode="B" /><glyph d="M420 317Q464 303 492 264Q520 225 520 174Q520 89 465 44.5Q410 0 313 0H59V614H294Q391 614 446 572Q501 530 501 447Q501 397 477.5 363Q454 329 420 317ZM286 362Q379 362 379 435Q379 473 355.5 489.5Q332 506 286 506H182V362ZM182 108H303Q348 108 372 129Q396 150 396 185Q396 221 372 241.5Q348 262 303 262H182ZM207 730Q207 759 225.5 777.5Q244 796 274 796Q303 796 321.5 777.5Q340 759 340 730Q340 701 321.5 682.5Q303 664 274 664Q244 664 225.5 682.5Q207 701 207 730Z" glyph-name="Bdotaccent" horiz-adv-x="553" unicode="&#7682;" /><glyph d="M158 307Q158 263 169 226Q180 189 200.5 162Q221 135 251 119.5Q281 104 319 104Q370 104 402 128.5Q434 153 445 199L568 178Q551 89 488.5 39.5Q426 -10 312 -10Q250 -10 198 13Q146 36 108.5 78Q71 120 50 178Q29 236 29 307Q29 377 50 435.5Q71 494 108.5 536Q146 578 198 601Q250 624 312 624Q426 624 488.5 574.5Q551 525 568 436L445 415Q434 461 402 485.5Q370 510 319 510Q281 510 251 494.5Q221 479 200.5 452Q180 425 169 388Q158 351 158 307Z" glyph-name="C" horiz-adv-x="599" unicode="C" /><glyph d="M158 307Q158 263 169 226Q180 189 200.5 162Q221 135 251 119.5Q281 104 319 104Q370 104 402 128.5Q434 153 445 199L568 178Q551 89 488.5 39.5Q426 -10 312 -10Q250 -10 198 13Q146 36 108.5 78Q71 120 50 178Q29 236 29 307Q29 377 50 435.5Q71 494 108.5 536Q146 578 198 601Q250 624 312 624Q426 624 488.5 574.5Q551 525 568 436L445 415Q434 461 402 485.5Q370 510 319 510Q281 510 251 494.5Q221 479 200.5 452Q180 425 169 388Q158 351 158 307ZM256 669 335 791H470L378 669Z" glyph-name="Cacute" horiz-adv-x="599" unicode="&#262;" /><glyph d="M167 795H272L319 741L366 795H471L371 668H267ZM158 307Q158 263 169 226Q180 189 200.5 162Q221 135 251 119.5Q281 104 319 104Q370 104 402 128.5Q434 153 445 199L568 178Q551 89 488.5 39.5Q426 -10 312 -10Q250 -10 198 13Q146 36 108.5 78Q71 120 50 178Q29 236 29 307Q29 377 50 435.5Q71 494 108.5 536Q146 578 198 601Q250 624 312 624Q426 624 488.5 574.5Q551 525 568 436L445 415Q434 461 402 485.5Q370 510 319 510Q281 510 251 494.5Q221 479 200.5 452Q180 425 169 388Q158 351 158 307Z" glyph-name="Ccaron" horiz-adv-x="599" unicode="&#268;" /><glyph d="M287 -9Q230 -5 182.5 20Q135 45 101 86.5Q67 128 48 184Q29 240 29 307Q29 377 50 435.5Q71 494 108.5 536Q146 578 198 601Q250 624 312 624Q426 624 488.5 574.5Q551 525 568 436L445 415Q434 461 402 485.5Q370 510 319 510Q281 510 251 494.5Q221 479 200.5 452Q180 425 169 388Q158 351 158 307Q158 263 169 226Q180 189 200.5 162Q221 135 251 119.5Q281 104 319 104Q370 104 402 128.5Q434 153 445 199L568 178Q552 95 497 46.5Q442 -2 343 -9L340 -26Q372 -35 393 -54.5Q414 -74 414 -107Q414 -140 388 -160Q362 -180 314 -180Q287 -180 267 -174Q247 -168 233 -159L247 -102Q257 -108 272 -112Q287 -116 304 -116Q321 -116 331.5 -111.5Q342 -107 342 -97Q342 -69 277 -64Z" glyph-name="Ccedilla" horiz-adv-x="599" unicode="&#199;" /><glyph d="M158 307Q158 263 169 226Q180 189 200.5 162Q221 135 251 119.5Q281 104 319 104Q370 104 402 128.5Q434 153 445 199L568 178Q551 89 488.5 39.5Q426 -10 312 -10Q250 -10 198 13Q146 36 108.5 78Q71 120 50 178Q29 236 29 307Q29 377 50 435.5Q71 494 108.5 536Q146 578 198 601Q250 624 312 624Q426 624 488.5 574.5Q551 525 568 436L445 415Q434 461 402 485.5Q370 510 319 510Q281 510 251 494.5Q221 479 200.5 452Q180 425 169 388Q158 351 158 307ZM475 669H370L323 723L276 669H171L271 796H374Z" glyph-name="Ccircumflex" horiz-adv-x="599" unicode="&#264;" /><glyph d="M252 730Q252 759 271 777.5Q290 796 319 796Q348 796 366.5 777.5Q385 759 385 730Q385 701 366.5 682.5Q348 664 319 664Q290 664 271 682.5Q252 701 252 730ZM158 307Q158 263 169 226Q180 189 200.5 162Q221 135 251 119.5Q281 104 319 104Q370 104 402 128.5Q434 153 445 199L568 178Q551 89 488.5 39.5Q426 -10 312 -10Q250 -10 198 13Q146 36 108.5 78Q71 120 50 178Q29 236 29 307Q29 377 50 435.5Q71 494 108.5 536Q146 578 198 601Q250 624 312 624Q426 624 488.5 574.5Q551 525 568 436L445 415Q434 461 402 485.5Q370 510 319 510Q281 510 251 494.5Q221 479 200.5 452Q180 425 169 388Q158 351 158 307Z" glyph-name="Cdotaccent" horiz-adv-x="599" unicode="&#266;" /><glyph d="M271 112Q359 112 405.5 164.5Q452 217 452 307Q452 398 405.5 450.5Q359 503 271 503H186V112ZM59 614H276Q346 614 402 592.5Q458 571 497.5 531Q537 491 558 434Q579 377 579 307Q579 237 558 180Q537 123 497.5 83Q458 43 402 21.5Q346 0 276 0H59Z" glyph-name="D" horiz-adv-x="609" unicode="D" /><glyph d="M126 795H231L278 741L325 795H430L330 668H226ZM271 112Q359 112 405.5 164.5Q452 217 452 307Q452 398 405.5 450.5Q359 503 271 503H186V112ZM59 614H276Q346 614 402 592.5Q458 571 497.5 531Q537 491 558 434Q579 377 579 307Q579 237 558 180Q537 123 497.5 83Q458 43 402 21.5Q346 0 276 0H59Z" glyph-name="Dcaron" horiz-adv-x="609" unicode="&#270;" /><glyph d="M25 367H76V614H293Q363 614 419 592.5Q475 571 514.5 531Q554 491 575 434Q596 377 596 307Q596 237 575 180Q554 123 514.5 83Q475 43 419 21.5Q363 0 293 0H76V264H25ZM288 112Q376 112 422.5 164.5Q469 217 469 307Q469 398 422.5 450.5Q376 503 288 503H203V367H306V264H203V112Z" glyph-name="Dcroat" horiz-adv-x="626" unicode="&#272;" /><glyph d="M271 112Q359 112 405.5 164.5Q452 217 452 307Q452 398 405.5 450.5Q359 503 271 503H186V112ZM59 614H276Q346 614 402 592.5Q458 571 497.5 531Q537 491 558 434Q579 377 579 307Q579 237 558 180Q537 123 497.5 83Q458 43 402 21.5Q346 0 276 0H59ZM215 730Q215 759 233.5 777.5Q252 796 282 796Q311 796 329.5 777.5Q348 759 348 730Q348 701 329.5 682.5Q311 664 282 664Q252 664 233.5 682.5Q215 701 215 730Z" glyph-name="Ddotaccent" horiz-adv-x="609" unicode="&#7690;" /><glyph d="M476 614V503H184V368H449V259H184V112H476V0H59V614Z" glyph-name="E" horiz-adv-x="516" unicode="E" /><glyph d="M205 669 284 791H419L327 669ZM476 614V503H184V368H449V259H184V112H476V0H59V614Z" glyph-name="Eacute" horiz-adv-x="516" unicode="&#201;" /><glyph d="M271 663Q211 663 174 697Q137 731 137 797H225Q225 772 238 760.5Q251 749 271 749Q293 749 306 760.5Q319 772 319 797H406Q406 731 369 697Q332 663 271 663ZM476 614V503H184V368H449V259H184V112H476V0H59V614Z" glyph-name="Ebreve" horiz-adv-x="516" unicode="&#276;" /><glyph d="M124 795H229L276 741L323 795H428L328 668H224ZM476 614V503H184V368H449V259H184V112H476V0H59V614Z" glyph-name="Ecaron" horiz-adv-x="516" unicode="&#282;" /><glyph d="M476 614V503H184V368H449V259H184V112H476V0H59V614ZM423 669H318L271 723L224 669H119L220 796H323Z" glyph-name="Ecircumflex" horiz-adv-x="516" unicode="&#202;" /><glyph d="M123 730Q123 759 141.5 777.5Q160 796 189 796Q218 796 237 777.5Q256 759 256 730Q256 701 237 682.5Q218 664 189 664Q160 664 141.5 682.5Q123 701 123 730ZM288 730Q288 759 306.5 777.5Q325 796 355 796Q384 796 402.5 777.5Q421 759 421 730Q421 701 402.5 682.5Q384 664 355 664Q325 664 306.5 682.5Q288 701 288 730ZM476 614V503H184V368H449V259H184V112H476V0H59V614Z" glyph-name="Edieresis" horiz-adv-x="516" unicode="&#203;" /><glyph d="M205 730Q205 759 223.5 777.5Q242 796 271 796Q301 796 319.5 777.5Q338 759 338 730Q338 701 319.5 682.5Q301 664 271 664Q242 664 223.5 682.5Q205 701 205 730ZM476 614V503H184V368H449V259H184V112H476V0H59V614Z" glyph-name="Edotaccent" horiz-adv-x="516" unicode="&#278;" /><glyph d="M216 669 123 791H258L337 669ZM476 614V503H184V368H449V259H184V112H476V0H59V614Z" glyph-name="Egrave" horiz-adv-x="516" unicode="&#200;" /><glyph d="M151 760H393V669H151ZM476 614V503H184V368H449V259H184V112H476V0H59V614Z" glyph-name="Emacron" horiz-adv-x="516" unicode="&#274;" /><glyph d="M573 -21Q573 -95 534 -137.5Q495 -180 420 -180Q406 -180 390 -178Q374 -176 363 -170L381 -71Q388 -75 401 -75Q425 -75 437 -62Q449 -49 449 -19V32L182 410V0H59V614H179L450 225V614H573Z" glyph-name="Eng" horiz-adv-x="632" unicode="&#330;" /><glyph d="M476 614V503H184V368H449V259H184V112H476V0Q419 -36 419 -71Q419 -86 428.5 -93.5Q438 -101 455 -101Q469 -101 479.5 -97.5Q490 -94 495 -91L510 -157Q502 -165 482.5 -172.5Q463 -180 432 -180Q384 -180 359 -157.5Q334 -135 334 -100Q334 -71 349 -45Q364 -19 390 0H59V614Z" glyph-name="Eogonek" horiz-adv-x="516" unicode="&#280;" /><glyph d="M25 367H76V614H293Q363 614 419 592.5Q475 571 514.5 531Q554 491 575 434Q596 377 596 307Q596 237 575 180Q554 123 514.5 83Q475 43 419 21.5Q363 0 293 0H76V264H25ZM288 112Q376 112 422.5 164.5Q469 217 469 307Q469 398 422.5 450.5Q376 503 288 503H203V367H306V264H203V112Z" glyph-name="Eth" horiz-adv-x="626" unicode="&#208;" /><glyph d="M26 407H82Q102 510 164 567Q226 624 320 624Q402 624 459.5 581.5Q517 539 532 459L422 440Q415 475 387.5 494.5Q360 514 320 514Q272 514 244 486.5Q216 459 204 407H412L378 333H195V281H357L323 207H204Q216 155 244 127.5Q272 100 320 100Q360 100 387.5 119.5Q415 139 422 174L532 155Q517 75 459.5 32.5Q402 -10 320 -10Q226 -10 164 46.5Q102 103 82 207H26V281H73V333H26Z" glyph-name="Euro" horiz-adv-x="556" unicode="&#8364;" /><glyph d="M22 407H74Q93 510 150.5 567Q208 624 300 624Q382 624 433 582Q484 540 499 459L391 440Q384 475 361 494Q338 513 300 513Q254 513 229.5 485.5Q205 458 195 407H387L352 333H187V281H332L297 207H195Q205 156 229.5 128.5Q254 101 300 101Q338 101 361 120Q384 139 391 174L499 155Q484 74 433 32Q382 -10 300 -10Q208 -10 150.5 47Q93 104 74 207H22V281H66V333H22Z" glyph-name="Euro.lt" horiz-adv-x="520" /><glyph d="M59 0V614H467V502H186V346H447V236H186V0Z" glyph-name="F" horiz-adv-x="501" unicode="F" /><glyph d="M59 0V614H467V502H186V346H447V236H186V0ZM202 730Q202 759 221 777.5Q240 796 269 796Q298 796 317 777.5Q336 759 336 730Q336 701 317 682.5Q298 664 269 664Q240 664 221 682.5Q202 701 202 730Z" glyph-name="Fdotaccent" horiz-adv-x="501" unicode="&#7710;" /><glyph d="M350 220V322H592V268Q592 204 573 152.5Q554 101 518.5 65Q483 29 433.5 9.5Q384 -10 323 -10Q258 -10 204 13Q150 36 111 78Q72 120 50.5 178Q29 236 29 307Q29 377 50 435.5Q71 494 110 536Q149 578 203.5 601Q258 624 324 624Q430 624 496 573Q562 522 577 437L453 415Q442 459 411 484.5Q380 510 320 510Q281 510 250.5 495Q220 480 199.5 453Q179 426 168.5 388.5Q158 351 158 307Q158 262 169 224.5Q180 187 201.5 160.5Q223 134 255 119Q287 104 328 104Q450 104 467 220Z" glyph-name="G" horiz-adv-x="621" unicode="G" /><glyph d="M323 663Q263 663 226 697Q189 731 189 797H277Q277 772 290 760.5Q303 749 323 749Q345 749 358 760.5Q371 772 371 797H458Q458 731 421 697Q384 663 323 663ZM350 220V322H592V268Q592 204 573 152.5Q554 101 518.5 65Q483 29 433.5 9.5Q384 -10 323 -10Q258 -10 204 13Q150 36 111 78Q72 120 50.5 178Q29 236 29 307Q29 377 50 435.5Q71 494 110 536Q149 578 203.5 601Q258 624 324 624Q430 624 496 573Q562 522 577 437L453 415Q442 459 411 484.5Q380 510 320 510Q281 510 250.5 495Q220 480 199.5 453Q179 426 168.5 388.5Q158 351 158 307Q158 262 169 224.5Q180 187 201.5 160.5Q223 134 255 119Q287 104 328 104Q450 104 467 220Z" glyph-name="Gbreve" horiz-adv-x="621" unicode="&#286;" /><glyph d="M474 669H369L322 723L275 669H170L270 796H374ZM350 220V322H592V268Q592 204 573 152.5Q554 101 518.5 65Q483 29 433.5 9.5Q384 -10 323 -10Q258 -10 204 13Q150 36 111 78Q72 120 50.5 178Q29 236 29 307Q29 377 50 435.5Q71 494 110 536Q149 578 203.5 601Q258 624 324 624Q430 624 496 573Q562 522 577 437L453 415Q442 459 411 484.5Q380 510 320 510Q281 510 250.5 495Q220 480 199.5 453Q179 426 168.5 388.5Q158 351 158 307Q158 262 169 224.5Q180 187 201.5 160.5Q223 134 255 119Q287 104 328 104Q450 104 467 220Z" glyph-name="Gcircumflex" horiz-adv-x="621" unicode="&#284;" /><glyph d="M350 220V322H592V268Q592 204 573 152.5Q554 101 518.5 65Q483 29 433.5 9.5Q384 -10 323 -10Q258 -10 204 13Q150 36 111 78Q72 120 50.5 178Q29 236 29 307Q29 377 50 435.5Q71 494 110 536Q149 578 203.5 601Q258 624 324 624Q430 624 496 573Q562 522 577 437L453 415Q442 459 411 484.5Q380 510 320 510Q281 510 250.5 495Q220 480 199.5 453Q179 426 168.5 388.5Q158 351 158 307Q158 262 169 224.5Q180 187 201.5 160.5Q223 134 255 119Q287 104 328 104Q450 104 467 220ZM275 -153Q292 -150 305 -144Q318 -138 326 -127H318Q295 -127 280 -113.5Q265 -100 265 -76Q265 -53 281.5 -39.5Q298 -26 321 -26Q353 -26 368.5 -45Q384 -64 384 -95Q384 -133 358 -158.5Q332 -184 283 -193Z" glyph-name="Gcommaaccent" horiz-adv-x="621" unicode="&#290;" /><glyph d="M258 730Q258 759 276.5 777.5Q295 796 324 796Q353 796 372 777.5Q391 759 391 730Q391 701 372 682.5Q353 664 324 664Q295 664 276.5 682.5Q258 701 258 730ZM350 220V322H592V268Q592 204 573 152.5Q554 101 518.5 65Q483 29 433.5 9.5Q384 -10 323 -10Q258 -10 204 13Q150 36 111 78Q72 120 50.5 178Q29 236 29 307Q29 377 50 435.5Q71 494 110 536Q149 578 203.5 601Q258 624 324 624Q430 624 496 573Q562 522 577 437L453 415Q442 459 411 484.5Q380 510 320 510Q281 510 250.5 495Q220 480 199.5 453Q179 426 168.5 388.5Q158 351 158 307Q158 262 169 224.5Q180 187 201.5 160.5Q223 134 255 119Q287 104 328 104Q450 104 467 220Z" glyph-name="Gdotaccent" horiz-adv-x="621" unicode="&#288;" /><glyph d="M593 614V0H465V258H187V0H59V614H187V370H465V614Z" glyph-name="H" horiz-adv-x="652" unicode="H" /><glyph d="M25 520H74V614H202V520H481V614H609V520H658V418H609V0H481V216H202V0H74V418H25ZM481 318V418H202V318Z" glyph-name="Hbar" horiz-adv-x="683" unicode="&#294;" /><glyph d="M593 614V0H465V258H187V0H59V614H187V370H465V614ZM477 669H372L325 723L278 669H173L274 796H377Z" glyph-name="Hcircumflex" horiz-adv-x="652" unicode="&#292;" /><glyph d="M187 0H59V614H187Z" glyph-name="I" horiz-adv-x="245" unicode="I" /><glyph d="M187 0H59V614H187ZM302 -10Q280 -10 257 -5Q234 0 225 7L245 113Q253 108 265 104Q277 100 288 100Q336 100 336 157V614H464V152Q464 74 423 32Q382 -10 302 -10Z" glyph-name="IJ" horiz-adv-x="518" unicode="&#306;" /><glyph d="M187 0H59V614H187ZM56 669 135 791H270L178 669Z" glyph-name="Iacute" horiz-adv-x="245" unicode="&#205;" /><glyph d="M187 0H59V614H187ZM123 663Q63 663 25.5 697Q-12 731 -12 797H76Q76 772 89 760.5Q102 749 123 749Q144 749 157 760.5Q170 772 170 797H258Q258 731 220.5 697Q183 663 123 663Z" glyph-name="Ibreve" horiz-adv-x="245" unicode="&#300;" /><glyph d="M187 0H59V614H187ZM275 669H170L123 723L76 669H-29L71 796H175Z" glyph-name="Icircumflex" horiz-adv-x="245" unicode="&#206;" /><glyph d="M187 0H59V614H187ZM-26 730Q-26 759 -7.5 777.5Q11 796 40 796Q70 796 88.5 777.5Q107 759 107 730Q107 701 88.5 682.5Q70 664 40 664Q11 664 -7.5 682.5Q-26 701 -26 730ZM139 730Q139 759 157.5 777.5Q176 796 206 796Q235 796 253.5 777.5Q272 759 272 730Q272 701 253.5 682.5Q235 664 206 664Q176 664 157.5 682.5Q139 701 139 730Z" glyph-name="Idieresis" horiz-adv-x="245" unicode="&#207;" /><glyph d="M187 0H59V614H187ZM56 730Q56 759 74.5 777.5Q93 796 123 796Q152 796 170.5 777.5Q189 759 189 730Q189 701 170.5 682.5Q152 664 123 664Q93 664 74.5 682.5Q56 701 56 730Z" glyph-name="Idotaccent" horiz-adv-x="245" unicode="&#304;" /><glyph d="M187 0H59V614H187ZM67 669 -26 791H109L188 669Z" glyph-name="Igrave" horiz-adv-x="245" unicode="&#204;" /><glyph d="M187 0H59V614H187ZM2 760H244V669H2Z" glyph-name="Imacron" horiz-adv-x="245" unicode="&#298;" /><glyph d="M187 0Q130 -36 130 -71Q130 -101 166 -101Q180 -101 190.5 -97.5Q201 -94 206 -91L220 -157Q212 -165 193 -172.5Q174 -180 143 -180Q95 -180 69.5 -157.5Q44 -135 44 -100Q44 -71 59 -45Q74 -19 100 0H59V614H187Z" glyph-name="Iogonek" horiz-adv-x="245" unicode="&#302;" /><glyph d="M187 0H59V614H187ZM272 802Q272 772 267 747Q262 722 251.5 703Q241 684 224.5 673.5Q208 663 186 663Q168 663 153.5 669.5Q139 676 125.5 684Q112 692 99.5 698.5Q87 705 74 705Q45 705 44 666H-26Q-26 696 -21 721Q-16 746 -6 765Q4 784 20 794.5Q36 805 59 805Q77 805 92 798.5Q107 792 120 784Q133 776 145.5 769.5Q158 763 172 763Q199 763 201 802Z" glyph-name="Itilde" horiz-adv-x="245" unicode="&#296;" /><glyph d="M139 169Q143 140 157 123Q171 106 200 106Q265 106 265 184V614H393V185Q393 87 341.5 38.5Q290 -10 200 -10Q153 -10 120 2.5Q87 15 65 36Q43 57 31.5 86Q20 115 16 148Z" glyph-name="J" horiz-adv-x="442" unicode="J" /><glyph d="M482 669H377L330 723L283 669H178L278 796H382ZM139 169Q143 140 157 123Q171 106 200 106Q265 106 265 184V614H393V185Q393 87 341.5 38.5Q290 -10 200 -10Q153 -10 120 2.5Q87 15 65 36Q43 57 31.5 86Q20 115 16 148Z" glyph-name="Jcircumflex" horiz-adv-x="442" unicode="&#308;" /><glyph d="M187 338 418 614H573L339 339L582 0H427L245 252L187 182V0H59V614H187Z" glyph-name="K" horiz-adv-x="593" unicode="K" /><glyph d="M187 338 418 614H573L339 339L582 0H427L245 252L187 182V0H59V614H187ZM235 -153Q253 -150 266 -144Q279 -138 287 -127H279Q256 -127 241 -113.5Q226 -100 226 -76Q226 -53 242.5 -39.5Q259 -26 282 -26Q314 -26 329.5 -45Q345 -64 345 -95Q345 -133 319 -158.5Q293 -184 244 -193Z" glyph-name="Kcommaaccent" horiz-adv-x="593" unicode="&#310;" /><glyph d="M59 614H187V112H473V0H59Z" glyph-name="L" horiz-adv-x="507" unicode="L" /><glyph d="M67 669 146 791H281L188 669ZM59 614H187V112H473V0H59Z" glyph-name="Lacute" horiz-adv-x="507" unicode="&#313;" /><glyph d="M285 447 313 614H399L370 447ZM59 614H187V112H473V0H59Z" glyph-name="Lcaron" horiz-adv-x="507" unicode="&#317;" /><glyph d="M59 614H187V112H473V0H59ZM220 -153Q238 -150 251 -144Q264 -138 272 -127H264Q241 -127 226 -113.5Q211 -100 211 -76Q211 -53 227.5 -39.5Q244 -26 267 -26Q299 -26 314.5 -45Q330 -64 330 -95Q330 -133 304 -158.5Q278 -184 229 -193Z" glyph-name="Lcommaaccent" horiz-adv-x="507" unicode="&#315;" /><glyph d="M59 614H187V112H473V0H59ZM303 321Q303 350 322 368.5Q341 387 370 387Q399 387 417.5 368.5Q436 350 436 321Q436 292 417.5 273.5Q399 255 370 255Q341 255 322 273.5Q303 292 303 321Z" glyph-name="Ldot" horiz-adv-x="507" unicode="&#319;" /><glyph d="M22 309 80 333V614H208V380L346 437V329L208 272V112H494V0H80V225L22 201Z" glyph-name="Lslash" horiz-adv-x="528" unicode="&#321;" /><glyph d="M331 0 179 401V0H59V614H210L375 180L539 614H688V0H567V401L418 0Z" glyph-name="M" horiz-adv-x="747" unicode="M" /><glyph d="M331 0 179 401V0H59V614H210L375 180L539 614H688V0H567V401L418 0ZM309 730Q309 759 327.5 777.5Q346 796 375 796Q404 796 423 777.5Q442 759 442 730Q442 701 423 682.5Q404 664 375 664Q346 664 327.5 682.5Q309 701 309 730Z" glyph-name="Mdotaccent" horiz-adv-x="747" unicode="&#7744;" /><glyph d="M573 0H472L182 410V0H59V614H179L450 225V614H573Z" glyph-name="N" horiz-adv-x="632" unicode="N" /><glyph d="M249 669 329 791H463L371 669ZM573 0H472L182 410V0H59V614H179L450 225V614H573Z" glyph-name="Nacute" horiz-adv-x="632" unicode="&#323;" /><glyph d="M164 795H269L316 741L363 795H468L368 668H264ZM573 0H472L182 410V0H59V614H179L450 225V614H573Z" glyph-name="Ncaron" horiz-adv-x="632" unicode="&#327;" /><glyph d="M573 0H472L182 410V0H59V614H179L450 225V614H573ZM269 -153Q287 -150 300 -144Q313 -138 320 -127H312Q289 -127 274 -113.5Q259 -100 259 -76Q259 -53 275.5 -39.5Q292 -26 315 -26Q347 -26 362.5 -45Q378 -64 378 -95Q378 -133 352 -158.5Q326 -184 278 -193Z" glyph-name="Ncommaaccent" horiz-adv-x="632" unicode="&#325;" /><glyph d="M465 802Q465 772 460 747Q455 722 444.5 703Q434 684 418 673.5Q402 663 380 663Q362 663 347 669.5Q332 676 318.5 684Q305 692 292.5 698.5Q280 705 267 705Q238 705 238 666H167Q167 696 172 721Q177 746 187 765Q197 784 213 794.5Q229 805 252 805Q270 805 285 798.5Q300 792 313 784Q326 776 338.5 769.5Q351 763 365 763Q392 763 394 802ZM573 0H472L182 410V0H59V614H179L450 225V614H573Z" glyph-name="Ntilde" horiz-adv-x="632" unicode="&#209;" /><glyph d="M610 307Q610 238 588.5 180Q567 122 528.5 80Q490 38 436.5 14Q383 -10 319 -10Q255 -10 202 14Q149 38 110.5 80Q72 122 50.5 180Q29 238 29 307Q29 376 50.5 434Q72 492 110.5 534.5Q149 577 202 600.5Q255 624 319 624Q383 624 436.5 600.5Q490 577 528.5 534.5Q567 492 588.5 434Q610 376 610 307ZM481 307Q481 352 469.5 389.5Q458 427 437 454Q416 481 386 496Q356 511 319 511Q283 511 253 496Q223 481 202 454Q181 427 169.5 389.5Q158 352 158 307Q158 262 169.5 224.5Q181 187 202 160Q223 133 253 118Q283 103 319 103Q356 103 386 118Q416 133 437 160Q458 187 469.5 224.5Q481 262 481 307Z" glyph-name="O" horiz-adv-x="640" unicode="O" /><glyph d="M791 503H520V368H765V259H520V112H791V0H332Q262 0 206 21.5Q150 43 110.5 83Q71 123 50 180Q29 237 29 307Q29 377 50 434Q71 491 110.5 531Q150 571 206 592.5Q262 614 332 614H791ZM394 112V503H338Q249 503 203 450.5Q157 398 157 307Q157 217 203 164.5Q249 112 338 112Z" glyph-name="OE" horiz-adv-x="832" unicode="&#338;" /><glyph d="M253 669 332 791H467L374 669ZM610 307Q610 238 588.5 180Q567 122 528.5 80Q490 38 436.5 14Q383 -10 319 -10Q255 -10 202 14Q149 38 110.5 80Q72 122 50.5 180Q29 238 29 307Q29 376 50.5 434Q72 492 110.5 534.5Q149 577 202 600.5Q255 624 319 624Q383 624 436.5 600.5Q490 577 528.5 534.5Q567 492 588.5 434Q610 376 610 307ZM481 307Q481 352 469.5 389.5Q458 427 437 454Q416 481 386 496Q356 511 319 511Q283 511 253 496Q223 481 202 454Q181 427 169.5 389.5Q158 352 158 307Q158 262 169.5 224.5Q181 187 202 160Q223 133 253 118Q283 103 319 103Q356 103 386 118Q416 133 437 160Q458 187 469.5 224.5Q481 262 481 307Z" glyph-name="Oacute" horiz-adv-x="640" unicode="&#211;" /><glyph d="M319 663Q259 663 222 697Q185 731 185 797H273Q273 772 286 760.5Q299 749 319 749Q341 749 354 760.5Q367 772 367 797H454Q454 731 417 697Q380 663 319 663ZM610 307Q610 238 588.5 180Q567 122 528.5 80Q490 38 436.5 14Q383 -10 319 -10Q255 -10 202 14Q149 38 110.5 80Q72 122 50.5 180Q29 238 29 307Q29 376 50.5 434Q72 492 110.5 534.5Q149 577 202 600.5Q255 624 319 624Q383 624 436.5 600.5Q490 577 528.5 534.5Q567 492 588.5 434Q610 376 610 307ZM481 307Q481 352 469.5 389.5Q458 427 437 454Q416 481 386 496Q356 511 319 511Q283 511 253 496Q223 481 202 454Q181 427 169.5 389.5Q158 352 158 307Q158 262 169.5 224.5Q181 187 202 160Q223 133 253 118Q283 103 319 103Q356 103 386 118Q416 133 437 160Q458 187 469.5 224.5Q481 262 481 307Z" glyph-name="Obreve" horiz-adv-x="640" unicode="&#334;" /><glyph d="M610 307Q610 238 588.5 180Q567 122 528.5 80Q490 38 436.5 14Q383 -10 319 -10Q255 -10 202 14Q149 38 110.5 80Q72 122 50.5 180Q29 238 29 307Q29 376 50.5 434Q72 492 110.5 534.5Q149 577 202 600.5Q255 624 319 624Q383 624 436.5 600.5Q490 577 528.5 534.5Q567 492 588.5 434Q610 376 610 307ZM481 307Q481 352 469.5 389.5Q458 427 437 454Q416 481 386 496Q356 511 319 511Q283 511 253 496Q223 481 202 454Q181 427 169.5 389.5Q158 352 158 307Q158 262 169.5 224.5Q181 187 202 160Q223 133 253 118Q283 103 319 103Q356 103 386 118Q416 133 437 160Q458 187 469.5 224.5Q481 262 481 307ZM471 669H366L319 723L272 669H167L267 796H371Z" glyph-name="Ocircumflex" horiz-adv-x="640" unicode="&#212;" /><glyph d="M303 730Q303 701 284.5 682.5Q266 664 237 664Q208 664 189 682.5Q170 701 170 730Q170 759 189 777.5Q208 796 237 796Q266 796 284.5 777.5Q303 759 303 730ZM336 730Q336 759 354.5 777.5Q373 796 402 796Q432 796 450.5 777.5Q469 759 469 730Q469 701 450.5 682.5Q432 664 402 664Q373 664 354.5 682.5Q336 701 336 730ZM158 307Q158 262 169.5 224.5Q181 187 202 160Q223 133 253 118Q283 103 319 103Q356 103 386 118Q416 133 437 160Q458 187 469.5 224.5Q481 262 481 307Q481 352 469.5 389.5Q458 427 437 454Q416 481 386 496Q356 511 319 511Q283 511 253 496Q223 481 202 454Q181 427 169.5 389.5Q158 352 158 307ZM610 307Q610 238 588.5 180Q567 122 528.5 80Q490 38 436.5 14Q383 -10 319 -10Q255 -10 202 14Q149 38 110.5 80Q72 122 50.5 180Q29 238 29 307Q29 376 50.5 434Q72 492 110.5 534.5Q149 577 202 600.5Q255 624 319 624Q383 624 436.5 600.5Q490 577 528.5 534.5Q567 492 588.5 434Q610 376 610 307Z" glyph-name="Odieresis" horiz-adv-x="640" unicode="&#214;" /><glyph d="M481 307Q481 352 469.5 389.5Q458 427 437 454Q416 481 386 496Q356 511 319 511Q283 511 253 496Q223 481 202 454Q181 427 169.5 389.5Q158 352 158 307Q158 262 169.5 224.5Q181 187 202 160Q223 133 253 118Q283 103 319 103Q356 103 386 118Q416 133 437 160Q458 187 469.5 224.5Q481 262 481 307ZM29 307Q29 376 50.5 434Q72 492 110.5 534.5Q149 577 202 600.5Q255 624 319 624Q383 624 436.5 600.5Q490 577 528.5 534.5Q567 492 588.5 434Q610 376 610 307Q610 238 588.5 180Q567 122 528.5 80Q490 38 436.5 14Q383 -10 319 -10Q255 -10 202 14Q149 38 110.5 80Q72 122 50.5 180Q29 238 29 307ZM385 669H263L171 791H306Z" glyph-name="Ograve" horiz-adv-x="640" unicode="&#210;" /><glyph d="M610 307Q610 238 588.5 180Q567 122 528.5 80Q490 38 436.5 14Q383 -10 319 -10Q255 -10 202 14Q149 38 110.5 80Q72 122 50.5 180Q29 238 29 307Q29 376 50.5 434Q72 492 110.5 534.5Q149 577 202 600.5Q255 624 319 624Q383 624 436.5 600.5Q490 577 528.5 534.5Q567 492 588.5 434Q610 376 610 307ZM481 307Q481 352 469.5 389.5Q458 427 437 454Q416 481 386 496Q356 511 319 511Q283 511 253 496Q223 481 202 454Q181 427 169.5 389.5Q158 352 158 307Q158 262 169.5 224.5Q181 187 202 160Q223 133 253 118Q283 103 319 103Q356 103 386 118Q416 133 437 160Q458 187 469.5 224.5Q481 262 481 307ZM199 669 266 791H370L302 669ZM346 669 413 791H517L449 669Z" glyph-name="Ohungarumlaut" horiz-adv-x="640" unicode="&#336;" /><glyph d="M319 103Q356 103 386 118Q416 133 437 160Q458 187 469.5 224.5Q481 262 481 307Q481 352 469.5 389.5Q458 427 437 454Q416 481 386 496Q356 511 319 511Q283 511 253 496Q223 481 202 454Q181 427 169.5 389.5Q158 352 158 307Q158 262 169.5 224.5Q181 187 202 160Q223 133 253 118Q283 103 319 103ZM610 307Q610 238 588.5 180Q567 122 528.5 80Q490 38 436.5 14Q383 -10 319 -10Q255 -10 202 14Q149 38 110.5 80Q72 122 50.5 180Q29 238 29 307Q29 376 50.5 434Q72 492 110.5 534.5Q149 577 202 600.5Q255 624 319 624Q383 624 436.5 600.5Q490 577 528.5 534.5Q567 492 588.5 434Q610 376 610 307ZM441 669H199V760H441Z" glyph-name="Omacron" horiz-adv-x="640" unicode="&#332;" /><glyph d="M98 94Q65 136 47 190Q29 244 29 307Q29 376 50.5 434Q72 492 110.5 534.5Q149 577 202 600.5Q255 624 319 624Q369 624 412 609.5Q455 595 490 569L538 627L596 583L542 518Q574 476 592 423Q610 370 610 307Q610 238 588.5 180Q567 122 528.5 80Q490 38 436.5 14Q383 -10 319 -10Q270 -10 227.5 3.5Q185 17 150 43L104 -13L46 31ZM158 307Q158 243 181 194L414 477Q374 511 319 511Q283 511 253 496Q223 481 202 454Q181 427 169.5 389.5Q158 352 158 307ZM481 307Q481 368 459 417L226 135Q246 120 269 111.5Q292 103 319 103Q356 103 386 118Q416 133 437 160Q458 187 469.5 224.5Q481 262 481 307Z" glyph-name="Oslash" horiz-adv-x="640" unicode="&#216;" /><glyph d="M99 94Q66 136 48 190Q30 244 30 307Q30 376 51.5 434Q73 492 111.5 534.5Q150 577 203 600.5Q256 624 320 624Q370 624 413 609.5Q456 595 491 569L539 627L597 583L543 518Q575 476 593 423Q611 370 611 307Q611 238 589.5 180Q568 122 529.5 80Q491 38 437.5 14Q384 -10 320 -10Q271 -10 228.5 3.5Q186 17 151 43L105 -13L47 31ZM159 307Q159 243 182 194L415 477Q375 511 320 511Q284 511 254 496Q224 481 203 454Q182 427 170.5 389.5Q159 352 159 307ZM482 307Q482 368 460 417L227 135Q247 120 270 111.5Q293 103 320 103Q357 103 387 118Q417 133 438 160Q459 187 470.5 224.5Q482 262 482 307ZM256 669 335 791H470L378 669Z" glyph-name="Oslashacute" horiz-adv-x="642" unicode="&#510;" /><glyph d="M468 802Q468 772 463 747Q458 722 448 703Q438 684 421.5 673.5Q405 663 383 663Q365 663 350 669.5Q335 676 322 684Q309 692 296 698.5Q283 705 270 705Q242 705 241 666H170Q170 696 175 721Q180 746 190.5 765Q201 784 217 794.5Q233 805 256 805Q274 805 288.5 798.5Q303 792 316.5 784Q330 776 342.5 769.5Q355 763 368 763Q396 763 398 802ZM610 307Q610 238 588.5 180Q567 122 528.5 80Q490 38 436.5 14Q383 -10 319 -10Q255 -10 202 14Q149 38 110.5 80Q72 122 50.5 180Q29 238 29 307Q29 376 50.5 434Q72 492 110.5 534.5Q149 577 202 600.5Q255 624 319 624Q383 624 436.5 600.5Q490 577 528.5 534.5Q567 492 588.5 434Q610 376 610 307ZM481 307Q481 352 469.5 389.5Q458 427 437 454Q416 481 386 496Q356 511 319 511Q283 511 253 496Q223 481 202 454Q181 427 169.5 389.5Q158 352 158 307Q158 262 169.5 224.5Q181 187 202 160Q223 133 253 118Q283 103 319 103Q356 103 386 118Q416 133 437 160Q458 187 469.5 224.5Q481 262 481 307Z" glyph-name="Otilde" horiz-adv-x="640" unicode="&#213;" /><glyph d="M186 213V0H59V614H309Q358 614 397.5 601Q437 588 465.5 562.5Q494 537 509.5 499.5Q525 462 525 413Q525 364 509.5 327Q494 290 465.5 264.5Q437 239 397.5 226Q358 213 309 213ZM399 413Q399 455 375 480Q351 505 301 505H186V322H301Q351 322 375 347.5Q399 373 399 413Z" glyph-name="P" horiz-adv-x="552" unicode="P" /><glyph d="M186 213V0H59V614H309Q358 614 397.5 601Q437 588 465.5 562.5Q494 537 509.5 499.5Q525 462 525 413Q525 364 509.5 327Q494 290 465.5 264.5Q437 239 397.5 226Q358 213 309 213ZM399 413Q399 455 375 480Q351 505 301 505H186V322H301Q351 322 375 347.5Q399 373 399 413ZM204 730Q204 759 222.5 777.5Q241 796 270 796Q299 796 318 777.5Q337 759 337 730Q337 701 318 682.5Q299 664 270 664Q241 664 222.5 682.5Q204 701 204 730Z" glyph-name="Pdotaccent" horiz-adv-x="552" unicode="&#7766;" /><glyph d="M444 18Q386 -10 319 -10Q255 -10 202 14Q149 38 110.5 80Q72 122 50.5 180Q29 238 29 307Q29 376 50.5 434Q72 492 110.5 534.5Q149 577 202 600.5Q255 624 319 624Q383 624 436.5 600.5Q490 577 528.5 534.5Q567 492 588.5 434Q610 376 610 307Q610 238 588 180.5Q566 123 527 80L575 21L494 -43ZM482 307Q482 352 470.5 389.5Q459 427 437.5 454Q416 481 386 496Q356 511 319 511Q283 511 253 496Q223 481 202 454Q181 427 169.5 389.5Q158 352 158 307Q158 262 169.5 224Q181 186 202 158.5Q223 131 253 115.5Q283 100 319 100Q350 100 373 108L322 171L404 233L452 173Q466 198 474 231.5Q482 265 482 307Z" glyph-name="Q" horiz-adv-x="639" unicode="Q" /><glyph d="M186 230V0H59V614H312Q409 614 468 564Q527 514 527 419Q527 345 489 299.5Q451 254 385 238L548 0H405L252 230ZM186 334H304Q352 334 376.5 357.5Q401 381 401 419Q401 458 376.5 481.5Q352 505 304 505H186Z" glyph-name="R" horiz-adv-x="563" unicode="R" /><glyph d="M186 230V0H59V614H312Q409 614 468 564Q527 514 527 419Q527 345 489 299.5Q451 254 385 238L548 0H405L252 230ZM186 334H304Q352 334 376.5 357.5Q401 381 401 419Q401 458 376.5 481.5Q352 505 304 505H186ZM213 669 292 791H427L335 669Z" glyph-name="Racute" horiz-adv-x="563" unicode="&#340;" /><glyph d="M186 230V0H59V614H312Q409 614 468 564Q527 514 527 419Q527 345 489 299.5Q451 254 385 238L548 0H405L252 230ZM186 334H304Q352 334 376.5 357.5Q401 381 401 419Q401 458 376.5 481.5Q352 505 304 505H186ZM128 795H233L280 741L327 795H432L332 668H228Z" glyph-name="Rcaron" horiz-adv-x="563" unicode="&#344;" /><glyph d="M186 230V0H59V614H312Q409 614 468 564Q527 514 527 419Q527 345 489 299.5Q451 254 385 238L548 0H405L252 230ZM186 334H304Q352 334 376.5 357.5Q401 381 401 419Q401 458 376.5 481.5Q352 505 304 505H186ZM233 -153Q251 -150 263.5 -144Q276 -138 284 -127H276Q253 -127 238 -113.5Q223 -100 223 -76Q223 -53 239.5 -39.5Q256 -26 279 -26Q311 -26 326.5 -45Q342 -64 342 -95Q342 -133 316 -158.5Q290 -184 242 -193Z" glyph-name="Rcommaaccent" horiz-adv-x="563" unicode="&#342;" /><glyph d="M147 176Q155 134 184.5 114.5Q214 95 263 95Q317 95 345.5 115.5Q374 136 374 172Q374 200 356.5 217Q339 234 298 244L188 269Q156 276 128 288.5Q100 301 79 321Q58 341 46 369.5Q34 398 34 436Q34 478 50 512.5Q66 547 96 571.5Q126 596 167.5 610Q209 624 260 624Q315 624 355.5 611.5Q396 599 423 577.5Q450 556 465.5 527Q481 498 487 465L367 444Q363 460 356 474Q349 488 337 498Q325 508 306.5 513.5Q288 519 261 519Q210 519 184.5 499.5Q159 480 159 448Q159 396 227 380L339 354Q414 337 457 293.5Q500 250 500 180Q500 136 482.5 100.5Q465 65 433 40.5Q401 16 357 3Q313 -10 261 -10Q154 -10 95.5 31.5Q37 73 22 155Z" glyph-name="S" horiz-adv-x="529" unicode="S" /><glyph d="M147 176Q155 134 184.5 114.5Q214 95 263 95Q317 95 345.5 115.5Q374 136 374 172Q374 200 356.5 217Q339 234 298 244L188 269Q156 276 128 288.5Q100 301 79 321Q58 341 46 369.5Q34 398 34 436Q34 478 50 512.5Q66 547 96 571.5Q126 596 167.5 610Q209 624 260 624Q315 624 355.5 611.5Q396 599 423 577.5Q450 556 465.5 527Q481 498 487 465L367 444Q363 460 356 474Q349 488 337 498Q325 508 306.5 513.5Q288 519 261 519Q210 519 184.5 499.5Q159 480 159 448Q159 396 227 380L339 354Q414 337 457 293.5Q500 250 500 180Q500 136 482.5 100.5Q465 65 433 40.5Q401 16 357 3Q313 -10 261 -10Q154 -10 95.5 31.5Q37 73 22 155ZM194 669 273 791H408L315 669Z" glyph-name="Sacute" horiz-adv-x="529" unicode="&#346;" /><glyph d="M113 795H218L265 741L312 795H417L316 668H213ZM147 176Q155 134 184.5 114.5Q214 95 263 95Q317 95 345.5 115.5Q374 136 374 172Q374 200 356.5 217Q339 234 298 244L188 269Q156 276 128 288.5Q100 301 79 321Q58 341 46 369.5Q34 398 34 436Q34 478 50 512.5Q66 547 96 571.5Q126 596 167.5 610Q209 624 260 624Q315 624 355.5 611.5Q396 599 423 577.5Q450 556 465.5 527Q481 498 487 465L367 444Q363 460 356 474Q349 488 337 498Q325 508 306.5 513.5Q288 519 261 519Q210 519 184.5 499.5Q159 480 159 448Q159 396 227 380L339 354Q414 337 457 293.5Q500 250 500 180Q500 136 482.5 100.5Q465 65 433 40.5Q401 16 357 3Q313 -10 261 -10Q154 -10 95.5 31.5Q37 73 22 155Z" glyph-name="Scaron" horiz-adv-x="529" unicode="&#352;" /><glyph d="M147 176Q155 134 184.5 114.5Q214 95 263 95Q317 95 345.5 115.5Q374 136 374 172Q374 200 356.5 217Q339 234 298 244L188 269Q156 276 128 288.5Q100 301 79 321Q58 341 46 369.5Q34 398 34 436Q34 478 50 512.5Q66 547 96 571.5Q126 596 167.5 610Q209 624 260 624Q315 624 355.5 611.5Q396 599 423 577.5Q450 556 465.5 527Q481 498 487 465L367 444Q363 460 356 474Q349 488 337 498Q325 508 306.5 513.5Q288 519 261 519Q210 519 184.5 499.5Q159 480 159 448Q159 396 227 380L339 354Q414 337 457 293.5Q500 250 500 180Q500 138 484.5 104.5Q469 71 441 47Q413 23 374 8.5Q335 -6 288 -9L285 -26Q317 -35 338 -54.5Q359 -74 359 -107Q359 -139 333.5 -159.5Q308 -180 260 -180Q233 -180 212.5 -174Q192 -168 178 -159L192 -102Q202 -107 217.5 -111.5Q233 -116 250 -116Q267 -116 277 -111.5Q287 -107 287 -97Q287 -69 225 -64H222L232 -9Q138 -3 87 37.5Q36 78 22 155Z" glyph-name="Scedilla" horiz-adv-x="529" unicode="&#350;" /><glyph d="M29 353H473Q462 423 421.5 466.5Q381 510 313 510Q250 510 214.5 484.5Q179 459 168 415L44 437Q59 522 128.5 573Q198 624 310 624Q376 624 430.5 601Q485 578 523.5 536Q562 494 583.5 435.5Q605 377 605 307Q605 236 583.5 178Q562 120 523 78Q484 36 430 13Q376 -10 312 -10Q249 -10 197 12.5Q145 35 107.5 76.5Q70 118 49.5 176.5Q29 235 29 308ZM306 104Q375 104 416.5 143.5Q458 183 471 249H160Q164 218 176 191.5Q188 165 206 145.5Q224 126 249 115Q274 104 306 104Z" glyph-name="Schwa" horiz-adv-x="634" unicode="&#399;" /><glyph d="M147 176Q155 134 184.5 114.5Q214 95 263 95Q317 95 345.5 115.5Q374 136 374 172Q374 200 356.5 217Q339 234 298 244L188 269Q156 276 128 288.5Q100 301 79 321Q58 341 46 369.5Q34 398 34 436Q34 478 50 512.5Q66 547 96 571.5Q126 596 167.5 610Q209 624 260 624Q315 624 355.5 611.5Q396 599 423 577.5Q450 556 465.5 527Q481 498 487 465L367 444Q363 460 356 474Q349 488 337 498Q325 508 306.5 513.5Q288 519 261 519Q210 519 184.5 499.5Q159 480 159 448Q159 396 227 380L339 354Q414 337 457 293.5Q500 250 500 180Q500 136 482.5 100.5Q465 65 433 40.5Q401 16 357 3Q313 -10 261 -10Q154 -10 95.5 31.5Q37 73 22 155ZM417 669H312L265 723L218 669H113L214 796H317Z" glyph-name="Scircumflex" horiz-adv-x="529" unicode="&#348;" /><glyph d="M147 176Q155 134 184.5 114.5Q214 95 263 95Q317 95 345.5 115.5Q374 136 374 172Q374 200 356.5 217Q339 234 298 244L188 269Q156 276 128 288.5Q100 301 79 321Q58 341 46 369.5Q34 398 34 436Q34 478 50 512.5Q66 547 96 571.5Q126 596 167.5 610Q209 624 260 624Q315 624 355.5 611.5Q396 599 423 577.5Q450 556 465.5 527Q481 498 487 465L367 444Q363 460 356 474Q349 488 337 498Q325 508 306.5 513.5Q288 519 261 519Q210 519 184.5 499.5Q159 480 159 448Q159 396 227 380L339 354Q414 337 457 293.5Q500 250 500 180Q500 136 482.5 100.5Q465 65 433 40.5Q401 16 357 3Q313 -10 261 -10Q154 -10 95.5 31.5Q37 73 22 155ZM214 -153Q231 -150 244 -144Q257 -138 265 -127H257Q234 -127 219 -113.5Q204 -100 204 -76Q204 -53 220.5 -39.5Q237 -26 260 -26Q292 -26 307.5 -45Q323 -64 323 -95Q323 -133 297 -158.5Q271 -184 222 -193Z" glyph-name="Scommaaccent" horiz-adv-x="529" unicode="&#536;" /><glyph d="M26 614H549V503H352V0H224V503H26Z" glyph-name="T" horiz-adv-x="575" unicode="T" /><glyph d="M26 614H549V503H352V362H454V256H352V0H224V256H122V362H224V503H26Z" glyph-name="Tbar" horiz-adv-x="575" unicode="&#358;" /><glyph d="M136 795H241L288 741L335 795H440L339 668H236ZM26 614H549V503H352V0H224V503H26Z" glyph-name="Tcaron" horiz-adv-x="575" unicode="&#356;" /><glyph d="M26 614H549V503H352V0H224V503H26ZM241 -153Q258 -150 271 -144Q284 -138 292 -127H284Q261 -127 246 -113.5Q231 -100 231 -76Q231 -53 247.5 -39.5Q264 -26 287 -26Q319 -26 334.5 -45Q350 -64 350 -95Q350 -133 324 -158.5Q298 -184 249 -193Z" glyph-name="Tcommaaccent" horiz-adv-x="575" unicode="&#354;" /><glyph d="M26 614H549V503H352V0H224V503H26ZM221 730Q221 759 239.5 777.5Q258 796 288 796Q317 796 335.5 777.5Q354 759 354 730Q354 701 335.5 682.5Q317 664 288 664Q258 664 239.5 682.5Q221 701 221 730Z" glyph-name="Tdotaccent" horiz-adv-x="575" unicode="&#7786;" /><glyph d="M186 114V0H59V614H186V515H309Q358 515 397.5 502Q437 489 465.5 463.5Q494 438 509.5 400.5Q525 363 525 314Q525 265 509.5 228Q494 191 465.5 165.5Q437 140 397.5 127Q358 114 309 114ZM399 314Q399 356 375 381Q351 406 301 406H186V223H301Q351 223 375 248.5Q399 274 399 314Z" glyph-name="Thorn" horiz-adv-x="552" unicode="&#222;" /><glyph d="M305 -10Q248 -10 201 6.5Q154 23 120.5 55Q87 87 68.5 135.5Q50 184 50 247V614H178V260Q178 181 211 142.5Q244 104 305 104Q366 104 399 142.5Q432 181 432 260V614H560V247Q560 184 542 135.5Q524 87 490.5 55Q457 23 410 6.5Q363 -10 305 -10Z" glyph-name="U" horiz-adv-x="610" unicode="U" /><glyph d="M239 669 318 791H452L360 669ZM305 -10Q248 -10 201 6.5Q154 23 120.5 55Q87 87 68.5 135.5Q50 184 50 247V614H178V260Q178 181 211 142.5Q244 104 305 104Q366 104 399 142.5Q432 181 432 260V614H560V247Q560 184 542 135.5Q524 87 490.5 55Q457 23 410 6.5Q363 -10 305 -10Z" glyph-name="Uacute" horiz-adv-x="610" unicode="&#218;" /><glyph d="M305 663Q245 663 208 697Q171 731 171 797H259Q259 772 271.5 760.5Q284 749 305 749Q327 749 339.5 760.5Q352 772 352 797H440Q440 731 403 697Q366 663 305 663ZM305 -10Q248 -10 201 6.5Q154 23 120.5 55Q87 87 68.5 135.5Q50 184 50 247V614H178V260Q178 181 211 142.5Q244 104 305 104Q366 104 399 142.5Q432 181 432 260V614H560V247Q560 184 542 135.5Q524 87 490.5 55Q457 23 410 6.5Q363 -10 305 -10Z" glyph-name="Ubreve" horiz-adv-x="610" unicode="&#364;" /><glyph d="M305 -10Q248 -10 201 6.5Q154 23 120.5 55Q87 87 68.5 135.5Q50 184 50 247V614H178V260Q178 181 211 142.5Q244 104 305 104Q366 104 399 142.5Q432 181 432 260V614H560V247Q560 184 542 135.5Q524 87 490.5 55Q457 23 410 6.5Q363 -10 305 -10ZM457 669H352L305 723L258 669H153L253 796H357Z" glyph-name="Ucircumflex" horiz-adv-x="610" unicode="&#219;" /><glyph d="M156 730Q156 759 174.5 777.5Q193 796 223 796Q252 796 270.5 777.5Q289 759 289 730Q289 701 270.5 682.5Q252 664 223 664Q193 664 174.5 682.5Q156 701 156 730ZM322 730Q322 759 340.5 777.5Q359 796 388 796Q418 796 436.5 777.5Q455 759 455 730Q455 701 436.5 682.5Q418 664 388 664Q359 664 340.5 682.5Q322 701 322 730ZM305 -10Q248 -10 201 6.5Q154 23 120.5 55Q87 87 68.5 135.5Q50 184 50 247V614H178V260Q178 181 211 142.5Q244 104 305 104Q366 104 399 142.5Q432 181 432 260V614H560V247Q560 184 542 135.5Q524 87 490.5 55Q457 23 410 6.5Q363 -10 305 -10Z" glyph-name="Udieresis" horiz-adv-x="610" unicode="&#220;" /><glyph d="M249 669 157 791H291L371 669ZM305 -10Q248 -10 201 6.5Q154 23 120.5 55Q87 87 68.5 135.5Q50 184 50 247V614H178V260Q178 181 211 142.5Q244 104 305 104Q366 104 399 142.5Q432 181 432 260V614H560V247Q560 184 542 135.5Q524 87 490.5 55Q457 23 410 6.5Q363 -10 305 -10Z" glyph-name="Ugrave" horiz-adv-x="610" unicode="&#217;" /><glyph d="M305 -10Q248 -10 201 6.5Q154 23 120.5 55Q87 87 68.5 135.5Q50 184 50 247V614H178V260Q178 181 211 142.5Q244 104 305 104Q366 104 399 142.5Q432 181 432 260V614H560V247Q560 184 542 135.5Q524 87 490.5 55Q457 23 410 6.5Q363 -10 305 -10ZM185 669 252 791H355L287 669ZM332 669 399 791H503L434 669Z" glyph-name="Uhungarumlaut" horiz-adv-x="610" unicode="&#368;" /><glyph d="M185 760H427V669H185ZM305 -10Q248 -10 201 6.5Q154 23 120.5 55Q87 87 68.5 135.5Q50 184 50 247V614H178V260Q178 181 211 142.5Q244 104 305 104Q366 104 399 142.5Q432 181 432 260V614H560V247Q560 184 542 135.5Q524 87 490.5 55Q457 23 410 6.5Q363 -10 305 -10Z" glyph-name="Umacron" horiz-adv-x="610" unicode="&#362;" /><glyph d="M560 247Q560 144 514 82Q468 20 388 0Q332 -36 332 -71Q332 -101 367 -101Q381 -101 391.5 -97.5Q402 -94 407 -91L422 -157Q414 -165 395 -172.5Q376 -180 345 -180Q297 -180 271.5 -157.5Q246 -135 246 -100Q246 -74 257.5 -51Q269 -28 290 -10Q236 -8 191.5 9.5Q147 27 115.5 59Q84 91 67 138Q50 185 50 247V614H178V260Q178 181 211 142.5Q244 104 305 104Q366 104 399 142.5Q432 181 432 260V614H560V247Z" glyph-name="Uogonek" horiz-adv-x="610" unicode="&#370;" /><glyph d="M305 -10Q248 -10 201 6.5Q154 23 120.5 55Q87 87 68.5 135.5Q50 184 50 247V614H178V260Q178 181 211 142.5Q244 104 305 104Q366 104 399 142.5Q432 181 432 260V614H560V247Q560 184 542 135.5Q524 87 490.5 55Q457 23 410 6.5Q363 -10 305 -10ZM404 743Q404 722 396.5 704.5Q389 687 375.5 674Q362 661 344 653.5Q326 646 305 646Q284 646 266 653.5Q248 661 234.5 674Q221 687 213.5 704.5Q206 722 206 743Q206 764 213.5 781.5Q221 799 234.5 812Q248 825 266 832.5Q284 840 305 840Q326 840 344 832.5Q362 825 375.5 812Q389 799 396.5 781.5Q404 764 404 743ZM345 743Q345 760 333.5 771.5Q322 783 305 783Q288 783 277 771.5Q266 760 266 743Q266 726 277 715Q288 704 305 704Q322 704 333.5 715Q345 726 345 743Z" glyph-name="Uring" horiz-adv-x="610" unicode="&#366;" /><glyph d="M454 802Q454 772 449 747Q444 722 434 703Q424 684 407.5 673.5Q391 663 369 663Q351 663 336 669.5Q321 676 307.5 684Q294 692 281.5 698.5Q269 705 256 705Q228 705 227 666H156Q156 696 161 721Q166 746 176.5 765Q187 784 203 794.5Q219 805 241 805Q259 805 274 798.5Q289 792 302.5 784Q316 776 328.5 769.5Q341 763 354 763Q383 763 383 802ZM305 -10Q248 -10 201 6.5Q154 23 120.5 55Q87 87 68.5 135.5Q50 184 50 247V614H178V260Q178 181 211 142.5Q244 104 305 104Q366 104 399 142.5Q432 181 432 260V614H560V247Q560 184 542 135.5Q524 87 490.5 55Q457 23 410 6.5Q363 -10 305 -10Z" glyph-name="Utilde" horiz-adv-x="610" unicode="&#360;" /><glyph d="M245 0 15 614H150L309 170L468 614H600L369 0Z" glyph-name="V" horiz-adv-x="614" unicode="V" /><glyph d="M449 614 555 200 656 614H781L622 0H505L397 406L288 0H172L12 614H141L241 200L349 614Z" glyph-name="W" horiz-adv-x="794" unicode="W" /><glyph d="M335 669 414 791H549L457 669ZM449 614 555 200 656 614H781L622 0H505L397 406L288 0H172L12 614H141L241 200L349 614Z" glyph-name="Wacute" horiz-adv-x="794" unicode="&#7810;" /><glyph d="M449 614 555 200 656 614H781L622 0H505L397 406L288 0H172L12 614H141L241 200L349 614ZM549 669H444L397 723L350 669H245L345 796H448Z" glyph-name="Wcircumflex" horiz-adv-x="794" unicode="&#372;" /><glyph d="M248 730Q248 759 266.5 777.5Q285 796 314 796Q344 796 362.5 777.5Q381 759 381 730Q381 701 362.5 682.5Q344 664 314 664Q285 664 266.5 682.5Q248 701 248 730ZM413 730Q413 759 431.5 777.5Q450 796 480 796Q509 796 527.5 777.5Q546 759 546 730Q546 701 527.5 682.5Q509 664 480 664Q450 664 431.5 682.5Q413 701 413 730ZM449 614 555 200 656 614H781L622 0H505L397 406L288 0H172L12 614H141L241 200L349 614Z" glyph-name="Wdieresis" horiz-adv-x="794" unicode="&#7812;" /><glyph d="M338 669 245 791H380L459 669ZM449 614 555 200 656 614H781L622 0H505L397 406L288 0H172L12 614H141L241 200L349 614Z" glyph-name="Wgrave" horiz-adv-x="794" unicode="&#7808;" /><glyph d="M366 315 579 0H435L291 213L148 0H7L220 313L17 614H161L294 415L429 614H569Z" glyph-name="X" horiz-adv-x="586" unicode="X" /><glyph d="M447 614H581L359 234V0H232V234L11 614H150L299 354Z" glyph-name="Y" horiz-adv-x="592" unicode="Y" /><glyph d="M447 614H581L359 234V0H232V234L11 614H150L299 354ZM230 669 309 791H444L351 669Z" glyph-name="Yacute" horiz-adv-x="592" unicode="&#221;" /><glyph d="M447 614H581L359 234V0H232V234L11 614H150L299 354ZM448 669H343L296 723L249 669H144L244 796H348Z" glyph-name="Ycircumflex" horiz-adv-x="592" unicode="&#374;" /><glyph d="M447 614H581L359 234V0H232V234L11 614H150L299 354ZM147 730Q147 759 165.5 777.5Q184 796 214 796Q243 796 261.5 777.5Q280 759 280 730Q280 701 261.5 682.5Q243 664 214 664Q184 664 165.5 682.5Q147 701 147 730ZM313 730Q313 759 331.5 777.5Q350 796 379 796Q409 796 427.5 777.5Q446 759 446 730Q446 701 427.5 682.5Q409 664 379 664Q350 664 331.5 682.5Q313 701 313 730Z" glyph-name="Ydieresis" horiz-adv-x="592" unicode="&#376;" /><glyph d="M447 614H581L359 234V0H232V234L11 614H150L299 354ZM240 669 148 791H283L362 669Z" glyph-name="Ygrave" horiz-adv-x="592" unicode="&#7922;" /><glyph d="M447 614H581L359 234V0H232V234L11 614H150L299 354ZM176 760H418V669H176Z" glyph-name="Ymacron" horiz-adv-x="592" unicode="&#562;" /><glyph d="M514 0H40V92L348 503H45V614H509V523L204 112H514Z" glyph-name="Z" horiz-adv-x="554" unicode="Z" /><glyph d="M514 0H40V92L348 503H45V614H509V523L204 112H514ZM213 669 292 791H427L335 669Z" glyph-name="Zacute" horiz-adv-x="554" unicode="&#377;" /><glyph d="M128 795H233L280 741L327 795H432L331 668H228ZM514 0H40V92L348 503H45V614H509V523L204 112H514Z" glyph-name="Zcaron" horiz-adv-x="554" unicode="&#142;" /><glyph d="M213 730Q213 759 231.5 777.5Q250 796 280 796Q309 796 327.5 777.5Q346 759 346 730Q346 701 327.5 682.5Q309 664 280 664Q250 664 231.5 682.5Q213 701 213 730ZM514 0H40V92L348 503H45V614H509V523L204 112H514Z" glyph-name="Zdotaccent" horiz-adv-x="554" unicode="&#379;" /><glyph d="M302 154Q294 172 269.5 182.5Q245 193 215 193Q202 193 189 189.5Q176 186 165.5 179.5Q155 173 148.5 162.5Q142 152 142 138Q142 109 164.5 96Q187 83 212 83Q247 83 269.5 95Q292 107 302 121ZM302 0V37Q287 16 256.5 3Q226 -10 181 -10Q151 -10 123 0Q95 10 73.5 28.5Q52 47 39.5 74.5Q27 102 27 137Q27 169 40 195.5Q53 222 75.5 241Q98 260 128 270.5Q158 281 192 281Q227 281 257 272.5Q287 264 302 250V288Q302 317 284.5 336.5Q267 356 226 356Q195 356 180 345Q165 334 158 314L44 333Q58 387 104.5 422Q151 457 229 457Q319 457 370 411.5Q421 366 421 285V0Z" glyph-name="a" horiz-adv-x="468" unicode="a" /><glyph d="M302 154Q294 172 269.5 182.5Q245 193 215 193Q202 193 189 189.5Q176 186 165.5 179.5Q155 173 148.5 162.5Q142 152 142 138Q142 109 164.5 96Q187 83 212 83Q247 83 269.5 95Q292 107 302 121ZM302 0V37Q287 16 256.5 3Q226 -10 181 -10Q151 -10 123 0Q95 10 73.5 28.5Q52 47 39.5 74.5Q27 102 27 137Q27 169 40 195.5Q53 222 75.5 241Q98 260 128 270.5Q158 281 192 281Q227 281 257 272.5Q287 264 302 250V288Q302 317 284.5 336.5Q267 356 226 356Q195 356 180 345Q165 334 158 314L44 333Q58 387 104.5 422Q151 457 229 457Q319 457 370 411.5Q421 366 421 285V0ZM176 503 255 650H378L288 503Z" glyph-name="aacute" horiz-adv-x="468" unicode="&#225;" /><glyph d="M302 154Q294 172 269.5 182.5Q245 193 215 193Q202 193 189 189.5Q176 186 165.5 179.5Q155 173 148.5 162.5Q142 152 142 138Q142 109 164.5 96Q187 83 212 83Q247 83 269.5 95Q292 107 302 121ZM302 0V37Q287 16 256.5 3Q226 -10 181 -10Q151 -10 123 0Q95 10 73.5 28.5Q52 47 39.5 74.5Q27 102 27 137Q27 169 40 195.5Q53 222 75.5 241Q98 260 128 270.5Q158 281 192 281Q227 281 257 272.5Q287 264 302 250V288Q302 317 284.5 336.5Q267 356 226 356Q195 356 180 345Q165 334 158 314L44 333Q58 387 104.5 422Q151 457 229 457Q319 457 370 411.5Q421 366 421 285V0ZM231 493Q202 493 176.5 501.5Q151 510 131.5 529Q112 548 100.5 577.5Q89 607 88 648H178Q180 613 192.5 598Q205 583 231 583Q257 583 270 598Q283 613 284 648H375Q373 607 361.5 577.5Q350 548 331 529Q312 510 286.5 501.5Q261 493 231 493Z" glyph-name="abreve" horiz-adv-x="468" unicode="&#259;" /><glyph d="M376 503H282L229 572L176 503H82L174 650H284ZM302 154Q294 172 269.5 182.5Q245 193 215 193Q202 193 189 189.5Q176 186 165.5 179.5Q155 173 148.5 162.5Q142 152 142 138Q142 109 164.5 96Q187 83 212 83Q247 83 269.5 95Q292 107 302 121ZM302 0V37Q287 16 256.5 3Q226 -10 181 -10Q151 -10 123 0Q95 10 73.5 28.5Q52 47 39.5 74.5Q27 102 27 137Q27 169 40 195.5Q53 222 75.5 241Q98 260 128 270.5Q158 281 192 281Q227 281 257 272.5Q287 264 302 250V288Q302 317 284.5 336.5Q267 356 226 356Q195 356 180 345Q165 334 158 314L44 333Q58 387 104.5 422Q151 457 229 457Q319 457 370 411.5Q421 366 421 285V0Z" glyph-name="acircumflex" horiz-adv-x="468" unicode="&#226;" /><glyph d="M182 503 261 650H384L294 503Z" glyph-name="acute" horiz-adv-x="500" unicode="&#180;" /><glyph d="M143 669 222 791H356L264 669Z" glyph-name="acute.cap" horiz-adv-x="500" unicode="&#58402;" /><glyph d="M82 576Q82 605 100.5 623.5Q119 642 148 642Q178 642 196.5 623.5Q215 605 215 576Q215 547 196.5 528.5Q178 510 148 510Q119 510 100.5 528.5Q82 547 82 576ZM247 576Q247 605 266 623.5Q285 642 314 642Q343 642 362 623.5Q381 605 381 576Q381 547 362 528.5Q343 510 314 510Q285 510 266 528.5Q247 547 247 576ZM302 154Q294 172 269.5 182.5Q245 193 215 193Q202 193 189 189.5Q176 186 165.5 179.5Q155 173 148.5 162.5Q142 152 142 138Q142 109 164.5 96Q187 83 212 83Q247 83 269.5 95Q292 107 302 121ZM302 0V37Q287 16 256.5 3Q226 -10 181 -10Q151 -10 123 0Q95 10 73.5 28.5Q52 47 39.5 74.5Q27 102 27 137Q27 169 40 195.5Q53 222 75.5 241Q98 260 128 270.5Q158 281 192 281Q227 281 257 272.5Q287 264 302 250V288Q302 317 284.5 336.5Q267 356 226 356Q195 356 180 345Q165 334 158 314L44 333Q58 387 104.5 422Q151 457 229 457Q319 457 370 411.5Q421 366 421 285V0Z" glyph-name="adieresis" horiz-adv-x="468" unicode="&#228;" /><glyph d="M704 125Q689 62 636.5 26Q584 -10 507 -10Q458 -10 418.5 6.5Q379 23 351 52Q323 25 282 7.5Q241 -10 189 -10Q155 -10 125 0Q95 10 73 28.5Q51 47 38.5 73Q26 99 26 131Q26 165 40.5 191.5Q55 218 79.5 236Q104 254 137 263.5Q170 273 208 273H299V288Q299 317 281.5 337Q264 357 222 357Q193 357 177 345.5Q161 334 154 314L41 333Q56 388 102.5 422.5Q149 457 225 457Q274 457 310.5 441.5Q347 426 369 398Q395 424 429 440.5Q463 457 505 457Q553 457 590.5 440.5Q628 424 653.5 395Q679 366 692.5 325Q706 284 706 235V195H408Q411 144 438 117Q465 90 507 90Q538 90 562.5 103.5Q587 117 593 145ZM211 85Q242 85 267.5 98Q293 111 307 131Q305 138 303.5 148Q302 158 301 169Q300 180 299 194H219Q190 194 165.5 181.5Q141 169 141 140Q141 111 163 98Q185 85 211 85ZM504 357Q469 357 444.5 335.5Q420 314 412 272H585Q583 307 563 332Q543 357 504 357Z" glyph-name="ae" horiz-adv-x="731" unicode="&#230;" /><glyph d="M357 503 436 650H558L469 503ZM704 125Q689 62 636.5 26Q584 -10 507 -10Q458 -10 418.5 6.5Q379 23 351 52Q323 25 282 7.5Q241 -10 189 -10Q155 -10 125 0Q95 10 73 28.5Q51 47 38.5 73Q26 99 26 131Q26 165 40.5 191.5Q55 218 79.5 236Q104 254 137 263.5Q170 273 208 273H299V288Q299 317 281.5 337Q264 357 222 357Q193 357 177 345.5Q161 334 154 314L41 333Q56 388 102.5 422.5Q149 457 225 457Q274 457 310.5 441.5Q347 426 369 398Q395 424 429 440.5Q463 457 505 457Q553 457 590.5 440.5Q628 424 653.5 395Q679 366 692.5 325Q706 284 706 235V195H408Q411 144 438 117Q465 90 507 90Q538 90 562.5 103.5Q587 117 593 145ZM211 85Q242 85 267.5 98Q293 111 307 131Q305 138 303.5 148Q302 158 301 169Q300 180 299 194H219Q190 194 165.5 181.5Q141 169 141 140Q141 111 163 98Q185 85 211 85ZM504 357Q469 357 444.5 335.5Q420 314 412 272H585Q583 307 563 332Q543 357 504 357Z" glyph-name="aeacute" horiz-adv-x="731" unicode="&#509;" /><glyph d="M302 154Q294 172 269.5 182.5Q245 193 215 193Q202 193 189 189.5Q176 186 165.5 179.5Q155 173 148.5 162.5Q142 152 142 138Q142 109 164.5 96Q187 83 212 83Q247 83 269.5 95Q292 107 302 121ZM302 0V37Q287 16 256.5 3Q226 -10 181 -10Q151 -10 123 0Q95 10 73.5 28.5Q52 47 39.5 74.5Q27 102 27 137Q27 169 40 195.5Q53 222 75.5 241Q98 260 128 270.5Q158 281 192 281Q227 281 257 272.5Q287 264 302 250V288Q302 317 284.5 336.5Q267 356 226 356Q195 356 180 345Q165 334 158 314L44 333Q58 387 104.5 422Q151 457 229 457Q319 457 370 411.5Q421 366 421 285V0ZM173 503 84 650H207L286 503Z" glyph-name="agrave" horiz-adv-x="468" unicode="&#224;" /><glyph d="M302 154Q294 172 269.5 182.5Q245 193 215 193Q202 193 189 189.5Q176 186 165.5 179.5Q155 173 148.5 162.5Q142 152 142 138Q142 109 164.5 96Q187 83 212 83Q247 83 269.5 95Q292 107 302 121ZM302 0V37Q287 16 256.5 3Q226 -10 181 -10Q151 -10 123 0Q95 10 73.5 28.5Q52 47 39.5 74.5Q27 102 27 137Q27 169 40 195.5Q53 222 75.5 241Q98 260 128 270.5Q158 281 192 281Q227 281 257 272.5Q287 264 302 250V288Q302 317 284.5 336.5Q267 356 226 356Q195 356 180 345Q165 334 158 314L44 333Q58 387 104.5 422Q151 457 229 457Q319 457 370 411.5Q421 366 421 285V0ZM116 615H352V521H116Z" glyph-name="amacron" horiz-adv-x="468" unicode="&#257;" /><glyph d="M35 173Q35 234 61 273Q87 312 144 347Q122 377 107.5 409Q93 441 93 477Q93 504 102 530Q111 556 130 577Q149 598 179.5 611Q210 624 254 624Q297 624 327.5 611Q358 598 377.5 577Q397 556 406 530Q415 504 415 477Q415 432 390.5 398Q366 364 308 329L417 206Q446 266 446 342L558 322Q558 266 541 215Q524 164 493 121L601 0H453L414 44Q377 18 333 4Q289 -10 240 -10Q194 -10 156.5 3.5Q119 17 92 41.5Q65 66 50 99.5Q35 133 35 173ZM245 89Q274 89 299 97Q324 105 346 119L208 272Q181 253 165.5 231Q150 209 150 179Q150 137 175 113Q200 89 245 89ZM204 475Q204 457 215 439Q226 421 243 401Q274 419 288.5 436Q303 453 303 475Q303 492 292.5 509Q282 526 254 526Q226 526 215 509Q204 492 204 475Z" glyph-name="ampersand" horiz-adv-x="607" unicode="&amp;" /><glyph d="M347 465Q345 488 330.5 507Q316 526 284 526Q255 526 235 508Q215 490 215 460Q215 434 231.5 412Q248 390 268 368L405 216Q413 241 418 270.5Q423 300 424 334L536 315Q535 264 521 217Q507 170 482 130L600 0H450L408 46Q373 20 332 5Q291 -10 244 -10Q197 -10 158.5 4Q120 18 92.5 43Q65 68 50 103.5Q35 139 35 182Q35 235 63 277.5Q91 320 136 344Q116 371 106 397.5Q96 424 96 458Q96 496 110 527Q124 558 149 579.5Q174 601 208.5 612.5Q243 624 284 624Q365 624 410 586Q455 548 466 486ZM245 89Q299 89 340 119L202 270Q179 258 164.5 234.5Q150 211 150 182Q150 141 175 115Q200 89 245 89Z" glyph-name="ampersand.alt" horiz-adv-x="607" unicode="&#60321;" /><glyph d="M421 0Q364 -36 364 -71Q364 -86 373.5 -93.5Q383 -101 400 -101Q414 -101 424.5 -97.5Q435 -94 440 -91L454 -157Q447 -165 427.5 -172.5Q408 -180 377 -180Q329 -180 304 -157.5Q279 -135 279 -100Q279 -71 293.5 -45Q308 -19 334 0H302V37Q287 16 256.5 3Q226 -10 181 -10Q151 -10 123 0Q95 10 73.5 28.5Q52 47 39.5 74.5Q27 102 27 137Q27 169 40 195.5Q53 222 75.5 241Q98 260 128 270.5Q158 281 192 281Q227 281 257 272.5Q287 264 302 250V288Q302 317 284.5 336.5Q267 356 226 356Q195 356 180 345Q165 334 158 314L44 333Q58 387 104.5 422Q151 457 229 457Q319 457 370 411.5Q421 366 421 285ZM302 154Q294 172 269.5 182.5Q245 193 215 193Q202 193 189 189.5Q176 186 165.5 179.5Q155 173 148.5 162.5Q142 152 142 138Q142 109 164.5 96Q187 83 212 83Q247 83 269.5 95Q292 107 302 121Z" glyph-name="aogonek" horiz-adv-x="468" unicode="&#261;" /><glyph d="M73 401Q134 440 189 440Q216 440 240 434Q264 428 287 421Q310 414 334 408Q358 402 385 402Q412 402 441.5 411Q471 420 504 442V352Q471 331 441.5 322Q412 313 385 313Q358 313 334 319Q310 325 287 332Q264 339 240 345Q216 351 189 351Q162 351 133.5 342Q105 333 73 312ZM73 248Q105 269 133.5 278Q162 287 189 287Q216 287 240 281Q264 275 287 268Q310 261 334 255Q358 249 385 249Q412 249 441.5 257.5Q471 266 504 288V198Q471 178 441.5 169Q412 160 385 160Q358 160 334 166Q310 172 287 179Q264 186 240 192Q216 198 189 198Q134 198 73 159Z" glyph-name="approxequal" horiz-adv-x="576" unicode="&#8776;" /><glyph d="M44 401Q105 440 160 440Q187 440 211 434Q235 428 258 421Q281 414 305 408Q329 402 356 402Q383 402 412.5 411Q442 420 475 442V352Q442 331 412.5 322Q383 313 356 313Q329 313 305 319Q281 325 258 332Q235 339 211 345Q187 351 160 351Q133 351 104.5 342Q76 333 44 312ZM44 248Q76 269 104.5 278Q133 287 160 287Q187 287 211 281Q235 275 258 268Q281 261 305 255Q329 249 356 249Q383 249 412.5 257.5Q442 266 475 288V198Q442 178 412.5 169Q383 160 356 160Q329 160 305 166Q281 172 258 179Q235 186 211 192Q187 198 160 198Q105 198 44 159Z" glyph-name="approxequal.lt" horiz-adv-x="520" /><glyph d="M302 154Q294 172 269.5 182.5Q245 193 215 193Q202 193 189 189.5Q176 186 165.5 179.5Q155 173 148.5 162.5Q142 152 142 138Q142 109 164.5 96Q187 83 212 83Q247 83 269.5 95Q292 107 302 121ZM302 0V37Q287 16 256.5 3Q226 -10 181 -10Q151 -10 123 0Q95 10 73.5 28.5Q52 47 39.5 74.5Q27 102 27 137Q27 169 40 195.5Q53 222 75.5 241Q98 260 128 270.5Q158 281 192 281Q227 281 257 272.5Q287 264 302 250V288Q302 317 284.5 336.5Q267 356 226 356Q195 356 180 345Q165 334 158 314L44 333Q58 387 104.5 422Q151 457 229 457Q319 457 370 411.5Q421 366 421 285V0ZM331 583Q331 562 323.5 544.5Q316 527 302.5 514Q289 501 271 493.5Q253 486 232 486Q211 486 193 493.5Q175 501 161.5 514Q148 527 140.5 544.5Q133 562 133 583Q133 603 140.5 621Q148 639 161.5 652Q175 665 193 672.5Q211 680 232 680Q253 680 271 672.5Q289 665 302.5 652Q316 639 323.5 621Q331 603 331 583ZM272 583Q272 600 260.5 611Q249 622 232 622Q215 622 204 611Q193 600 193 583Q193 566 204 554.5Q215 543 232 543Q249 543 260.5 554.5Q272 566 272 583Z" glyph-name="aring" horiz-adv-x="468" unicode="&#229;" /><glyph d="M337 556Q337 522 309 498.5Q281 475 239 475Q197 475 168.5 498.5Q140 522 140 556Q140 590 168.5 613.5Q197 637 239 637Q281 637 309 613.5Q337 590 337 556ZM375 749 305 655H183L241 749ZM239 525Q256 525 267 533.5Q278 542 278 556Q278 570 267 578.5Q256 587 239 587Q222 587 210.5 578.5Q199 570 199 556Q199 542 210.5 533.5Q222 525 239 525ZM302 154Q294 172 269.5 182.5Q245 193 215 193Q202 193 189 189.5Q176 186 165.5 179.5Q155 173 148.5 162.5Q142 152 142 138Q142 109 164.5 96Q187 83 212 83Q247 83 269.5 95Q292 107 302 121ZM302 0V37Q287 16 256.5 3Q226 -10 181 -10Q151 -10 123 0Q95 10 73.5 28.5Q52 47 39.5 74.5Q27 102 27 137Q27 169 40 195.5Q53 222 75.5 241Q98 260 128 270.5Q158 281 192 281Q227 281 257 272.5Q287 264 302 250V288Q302 317 284.5 336.5Q267 356 226 356Q195 356 180 345Q165 334 158 314L44 333Q58 387 104.5 422Q151 457 229 457Q319 457 370 411.5Q421 366 421 285V0Z" glyph-name="aringacute" horiz-adv-x="468" unicode="&#507;" /><glyph d="M261 614 398 395H283L205 520L126 395H10L148 614Z" glyph-name="asciicircum" horiz-adv-x="408" unicode="^" /><glyph d="M392 347Q392 274 364 234.5Q336 195 286 195Q263 195 245.5 204Q228 213 213.5 224.5Q199 236 186.5 245Q174 254 160 254Q124 254 124 199H36Q36 271 63.5 311Q91 351 142 351Q165 351 182.5 342Q200 333 214 321.5Q228 310 241 301Q254 292 268 292Q304 292 304 347Z" glyph-name="asciitilde" horiz-adv-x="428" unicode="~" /><glyph d="M27 548 59 602 141 555V650H205V555L287 602L319 548L236 500L319 452L287 398L205 445V350H141V445L59 398L27 452L109 500Z" glyph-name="asterisk" horiz-adv-x="346" unicode="*" /><glyph d="M533 150Q529 126 535.5 114.5Q542 103 563 103Q609 103 637.5 148Q666 193 666 274Q666 327 646.5 368.5Q627 410 592.5 439Q558 468 510.5 483Q463 498 408 498Q341 498 285.5 475.5Q230 453 190 412.5Q150 372 128 315Q106 258 106 190Q106 111 134 59Q162 7 206 -24.5Q250 -56 303 -69Q356 -82 407 -82Q485 -82 549 -65.5Q613 -49 655 -30L669 -100Q650 -110 621 -120Q592 -130 557 -137.5Q522 -145 483 -149.5Q444 -154 407 -154Q333 -154 264.5 -134Q196 -114 142.5 -72Q89 -30 57 35Q25 100 25 190Q25 269 52.5 338Q80 407 130.5 459Q181 511 251.5 541Q322 571 408 571Q483 571 544.5 548.5Q606 526 650 486Q694 446 718.5 391.5Q743 337 743 274Q743 212 726 166.5Q709 121 681 91Q653 61 616.5 46Q580 31 540 31Q505 31 475.5 44.5Q446 58 429 84Q414 59 386.5 45.5Q359 32 331 32Q299 32 274 43.5Q249 55 231.5 75.5Q214 96 204.5 123.5Q195 151 195 183Q195 225 208.5 263.5Q222 302 246.5 331Q271 360 305 377.5Q339 395 380 395Q410 395 432.5 384Q455 373 465 358L471 386H574ZM448 266Q443 282 428 292.5Q413 303 391 303Q371 303 355 294Q339 285 327.5 269.5Q316 254 309.5 233.5Q303 213 303 191Q303 162 318 143.5Q333 125 362 125Q386 125 402.5 137Q419 149 430 166Z" glyph-name="at" horiz-adv-x="768" unicode="@" /><glyph d="M533 242Q529 218 535.5 206.5Q542 195 563 195Q609 195 637.5 240Q666 285 666 366Q666 419 646.5 460.5Q627 502 592.5 531Q558 560 510.5 575Q463 590 408 590Q341 590 285.5 567.5Q230 545 190 504.5Q150 464 128 407Q106 350 106 282Q106 203 134 151Q162 99 206 67.5Q250 36 303 23Q356 10 407 10Q485 10 549 26.5Q613 43 655 62L669 -8Q650 -18 621 -28Q592 -38 557 -45.5Q522 -53 483 -57.5Q444 -62 407 -62Q333 -62 264.5 -42Q196 -22 142.5 20Q89 62 57 127Q25 192 25 282Q25 361 52.5 430Q80 499 130.5 551Q181 603 251.5 633Q322 663 408 663Q483 663 544.5 640.5Q606 618 650 578Q694 538 718.5 483.5Q743 429 743 366Q743 304 726 258.5Q709 213 681 183Q653 153 616.5 138Q580 123 540 123Q505 123 475.5 136.5Q446 150 429 176Q414 151 386.5 137.5Q359 124 331 124Q299 124 274 135.5Q249 147 231.5 167.5Q214 188 204.5 215.5Q195 243 195 275Q195 317 208.5 355.5Q222 394 246.5 423Q271 452 305 469.5Q339 487 380 487Q410 487 432.5 476Q455 465 465 450L471 478H574ZM448 358Q443 374 428 384.5Q413 395 391 395Q371 395 355 386Q339 377 327.5 361.5Q316 346 309.5 325.5Q303 305 303 283Q303 254 318 235.5Q333 217 362 217Q386 217 402.5 229Q419 241 430 258Z" glyph-name="at.cap" horiz-adv-x="768" unicode="&#58643;" /><glyph d="M302 154Q294 172 269.5 182.5Q245 193 215 193Q202 193 189 189.5Q176 186 165.5 179.5Q155 173 148.5 162.5Q142 152 142 138Q142 109 164.5 96Q187 83 212 83Q247 83 269.5 95Q292 107 302 121ZM302 0V37Q287 16 256.5 3Q226 -10 181 -10Q151 -10 123 0Q95 10 73.5 28.5Q52 47 39.5 74.5Q27 102 27 137Q27 169 40 195.5Q53 222 75.5 241Q98 260 128 270.5Q158 281 192 281Q227 281 257 272.5Q287 264 302 250V288Q302 317 284.5 336.5Q267 356 226 356Q195 356 180 345Q165 334 158 314L44 333Q58 387 104.5 422Q151 457 229 457Q319 457 370 411.5Q421 366 421 285V0ZM390 639Q390 575 363 539.5Q336 504 296 504Q276 504 261 510.5Q246 517 233 524.5Q220 532 208.5 538.5Q197 545 184 545Q173 545 165.5 537.5Q158 530 157 514H77Q77 577 104.5 612.5Q132 648 171 648Q191 648 206.5 641.5Q222 635 234.5 627.5Q247 620 258.5 614Q270 608 283 608Q294 608 301.5 615Q309 622 310 639Z" glyph-name="atilde" horiz-adv-x="468" unicode="&#227;" /><glyph d="M178 0H54V650H178V409Q193 428 223.5 442.5Q254 457 290 457Q339 457 377 438.5Q415 420 441 388Q467 356 480.5 313.5Q494 271 494 223Q494 175 480.5 132.5Q467 90 441 58.5Q415 27 377 8.5Q339 -10 290 -10Q254 -10 223.5 4.5Q193 19 178 37ZM178 150Q189 127 211.5 112.5Q234 98 262 98Q313 98 341.5 133.5Q370 169 370 223Q370 277 341.5 313Q313 349 262 349Q235 349 212 334.5Q189 320 178 297Z" glyph-name="b" horiz-adv-x="519" unicode="b" /><glyph d="M367 -84H253L5 650H119Z" glyph-name="backslash" horiz-adv-x="372" unicode="\" /><glyph d="M367 -64H253L5 670H119Z" glyph-name="backslash.cap" horiz-adv-x="372" unicode="&#58466;" /><glyph d="M59 650H169V-84H59Z" glyph-name="bar" horiz-adv-x="228" unicode="|" /><glyph d="M59 670H169V-64H59Z" glyph-name="bar.cap" horiz-adv-x="228" unicode="&#58467;" /><glyph d="M178 0H54V650H178V409Q193 428 223.5 442.5Q254 457 290 457Q339 457 377 438.5Q415 420 441 388Q467 356 480.5 313.5Q494 271 494 223Q494 175 480.5 132.5Q467 90 441 58.5Q415 27 377 8.5Q339 -10 290 -10Q254 -10 223.5 4.5Q193 19 178 37ZM178 150Q189 127 211.5 112.5Q234 98 262 98Q313 98 341.5 133.5Q370 169 370 223Q370 277 341.5 313Q313 349 262 349Q235 349 212 334.5Q189 320 178 297ZM49 736Q49 765 68 783.5Q87 802 116 802Q145 802 164 783.5Q183 765 183 736Q183 707 164 688.5Q145 670 116 670Q87 670 68 688.5Q49 707 49 736Z" glyph-name="bdotaccent" horiz-adv-x="519" unicode="&#7683;" /><glyph d="M227 -1Q227 -30 256 -30H329V-131H238Q180 -131 146.5 -97Q113 -63 113 -5V204Q113 233 84 233H19V333H84Q113 333 113 362V571Q113 629 146.5 663Q180 697 238 697H329V596H256Q227 596 227 567V366Q227 333 213.5 313Q200 293 178 283Q200 273 213.5 253Q227 233 227 200Z" glyph-name="braceleft" horiz-adv-x="350" unicode="{" /><glyph d="M227 19Q227 -10 256 -10H329V-111H238Q180 -111 146.5 -77Q113 -43 113 15V224Q113 253 84 253H19V353H84Q113 353 113 382V591Q113 649 146.5 683Q180 717 238 717H329V616H256Q227 616 227 587V386Q227 353 213.5 333Q200 313 178 303Q200 293 213.5 273Q227 253 227 220Z" glyph-name="braceleft.cap" horiz-adv-x="350" unicode="&#58517;" /><glyph d="M124 200Q124 233 137 253Q150 273 172 283Q150 293 137 313Q124 333 124 366V567Q124 596 95 596H21V697H112Q170 697 204 663Q238 629 238 571V362Q238 333 267 333H332V233H267Q238 233 238 204V-5Q238 -63 204 -97Q170 -131 112 -131H21V-30H95Q124 -30 124 -1Z" glyph-name="braceright" horiz-adv-x="350" unicode="}" /><glyph d="M124 220Q124 253 137 273Q150 293 172 303Q150 313 137 333Q124 353 124 386V587Q124 616 95 616H21V717H112Q170 717 204 683Q238 649 238 591V382Q238 353 267 353H332V253H267Q238 253 238 224V15Q238 -43 204 -77Q170 -111 112 -111H21V-10H95Q124 -10 124 19Z" glyph-name="braceright.cap" horiz-adv-x="350" unicode="&#58518;" /><glyph d="M175 -30H291V-131H59V697H291V596H175Z" glyph-name="bracketleft" horiz-adv-x="326" unicode="[" /><glyph d="M175 -10H291V-111H59V717H291V616H175Z" glyph-name="bracketleft.cap" horiz-adv-x="326" unicode="&#58515;" /><glyph d="M151 596H35V697H267V-131H35V-30H151Z" glyph-name="bracketright" horiz-adv-x="326" unicode="]" /><glyph d="M151 616H35V717H267V-111H35V-10H151Z" glyph-name="bracketright.cap" horiz-adv-x="326" unicode="&#58516;" /><glyph d="M250 493Q221 493 195.5 501.5Q170 510 150.5 529Q131 548 119 577.5Q107 607 106 648H197Q199 613 211.5 598Q224 583 250 583Q276 583 289 598Q302 613 303 648H394Q392 607 380.5 577.5Q369 548 349.5 529Q330 510 304.5 501.5Q279 493 250 493Z" glyph-name="breve" horiz-adv-x="500" unicode="&#728;" /><glyph d="M249 663Q189 663 152 697Q115 731 115 797H203Q203 772 216 760.5Q229 749 249 749Q271 749 284 760.5Q297 772 297 797H384Q384 731 347 697Q310 663 249 663Z" glyph-name="breve.cap" horiz-adv-x="500" unicode="&#58406;" /><glyph d="M335 262Q335 228 323 200Q311 172 290.5 152Q270 132 242 121Q214 110 182 110Q150 110 122 121Q94 132 73.5 152Q53 172 41 200Q29 228 29 262Q29 296 41 324Q53 352 73.5 372.5Q94 393 122 404Q150 415 182 415Q214 415 242 404Q270 393 290.5 372.5Q311 352 323 324Q335 296 335 262Z" glyph-name="bullet" horiz-adv-x="364" unicode="&#8226;" /><glyph d="M335 299Q335 266 323 238Q311 210 290.5 189.5Q270 169 242 158Q214 147 182 147Q150 147 122 158Q94 169 73.5 189.5Q53 210 41 238Q29 266 29 299Q29 333 41 361.5Q53 390 73.5 410Q94 430 122 441.5Q150 453 182 453Q214 453 242 441.5Q270 430 290.5 410Q311 390 323 361.5Q335 333 335 299Z" glyph-name="bullet.cap" horiz-adv-x="364" unicode="&#58470;" /><glyph d="M26 223Q26 275 41 318Q56 361 84.5 392Q113 423 153 440Q193 457 243 457Q331 457 379.5 418Q428 379 436 316L318 296Q309 351 246 351Q196 351 172.5 315.5Q149 280 149 223Q149 166 172.5 130.5Q196 95 246 95Q277 95 295 110Q313 125 318 151L436 131Q428 67 379.5 28.5Q331 -10 243 -10Q193 -10 153 7Q113 24 84.5 54.5Q56 85 41 128Q26 171 26 223Z" glyph-name="c" horiz-adv-x="459" unicode="c" /><glyph d="M187 503 266 650H389L299 503ZM26 223Q26 275 41 318Q56 361 84.5 392Q113 423 153 440Q193 457 243 457Q331 457 379.5 418Q428 379 436 316L318 296Q309 351 246 351Q196 351 172.5 315.5Q149 280 149 223Q149 166 172.5 130.5Q196 95 246 95Q277 95 295 110Q313 125 318 151L436 131Q428 67 379.5 28.5Q331 -10 243 -10Q193 -10 153 7Q113 24 84.5 54.5Q56 85 41 128Q26 171 26 223Z" glyph-name="cacute" horiz-adv-x="459" unicode="&#263;" /><glyph d="M305 503H195L103 650H197L250 580L303 650H397Z" glyph-name="caron" horiz-adv-x="500" unicode="&#711;" /><glyph d="M175 483 203 650H289L261 483Z" glyph-name="caron.Slovak" horiz-adv-x="500" /><glyph d="M98 795H203L250 741L297 795H402L302 668H198Z" glyph-name="caron.cap" horiz-adv-x="500" unicode="&#58413;" /><glyph d="M299 503H190L98 650H192L245 580L297 650H391ZM26 223Q26 275 41 318Q56 361 84.5 392Q113 423 153 440Q193 457 243 457Q331 457 379.5 418Q428 379 436 316L318 296Q309 351 246 351Q196 351 172.5 315.5Q149 280 149 223Q149 166 172.5 130.5Q196 95 246 95Q277 95 295 110Q313 125 318 151L436 131Q428 67 379.5 28.5Q331 -10 243 -10Q193 -10 153 7Q113 24 84.5 54.5Q56 85 41 128Q26 171 26 223Z" glyph-name="ccaron" horiz-adv-x="459" unicode="&#269;" /><glyph d="M211 -8Q125 3 75.5 65Q26 127 26 223Q26 275 41 318Q56 361 84.5 392Q113 423 153 440Q193 457 243 457Q331 457 379.5 418Q428 379 436 316L318 296Q309 351 246 351Q196 351 172.5 315.5Q149 280 149 223Q149 166 172.5 130.5Q196 95 246 95Q277 95 295 110Q313 125 318 151L436 131Q428 71 386 34Q344 -3 267 -9L264 -26Q296 -35 317 -54.5Q338 -74 338 -107Q338 -139 312 -159.5Q286 -180 238 -180Q211 -180 191 -174Q171 -168 157 -159L171 -102Q181 -107 196 -111.5Q211 -116 228 -116Q245 -116 255.5 -111.5Q266 -107 266 -97Q266 -69 201 -64Z" glyph-name="ccedilla" horiz-adv-x="459" unicode="&#231;" /><glyph d="M391 503H297L245 572L192 503H98L190 650H299ZM26 223Q26 275 41 318Q56 361 84.5 392Q113 423 153 440Q193 457 243 457Q331 457 379.5 418Q428 379 436 316L318 296Q309 351 246 351Q196 351 172.5 315.5Q149 280 149 223Q149 166 172.5 130.5Q196 95 246 95Q277 95 295 110Q313 125 318 151L436 131Q428 67 379.5 28.5Q331 -10 243 -10Q193 -10 153 7Q113 24 84.5 54.5Q56 85 41 128Q26 171 26 223Z" glyph-name="ccircumflex" horiz-adv-x="459" unicode="&#265;" /><glyph d="M26 223Q26 275 41 318Q56 361 84.5 392Q113 423 153 440Q193 457 243 457Q331 457 379.5 418Q428 379 436 316L318 296Q309 351 246 351Q196 351 172.5 315.5Q149 280 149 223Q149 166 172.5 130.5Q196 95 246 95Q277 95 295 110Q313 125 318 151L436 131Q428 67 379.5 28.5Q331 -10 243 -10Q193 -10 153 7Q113 24 84.5 54.5Q56 85 41 128Q26 171 26 223ZM178 576Q178 605 196.5 623.5Q215 642 245 642Q274 642 292.5 623.5Q311 605 311 576Q311 547 292.5 528.5Q274 510 245 510Q215 510 196.5 528.5Q178 547 178 576Z" glyph-name="cdotaccent" horiz-adv-x="459" unicode="&#267;" /><glyph d="M221 11H277L270 -26Q302 -35 322.5 -54.5Q343 -74 343 -107Q343 -139 317.5 -159.5Q292 -180 244 -180Q217 -180 197 -174Q177 -168 163 -159L176 -102Q187 -107 202 -111.5Q217 -116 234 -116Q251 -116 261 -111.5Q271 -107 271 -97Q271 -69 207 -64Z" glyph-name="cedilla" horiz-adv-x="500" unicode="&#184;" /><glyph d="M221 -14Q275 -19 309 -41.5Q343 -64 343 -107Q343 -139 317.5 -159.5Q292 -180 244 -180Q217 -180 197 -174Q177 -168 163 -159L176 -102Q187 -107 202 -111.5Q217 -116 234 -116Q251 -116 261 -111.5Q271 -107 271 -97Q271 -69 207 -64Z" glyph-name="cedilla.alt" horiz-adv-x="500" /><glyph d="M26 233Q26 324 69.5 384.5Q113 445 191 461V552H297V462Q360 451 394.5 415Q429 379 436 326L318 306Q309 361 246 361Q196 361 172.5 325.5Q149 290 149 233Q149 176 172.5 140.5Q196 105 246 105Q277 105 295 120Q313 135 318 161L436 141Q429 87 394.5 51Q360 15 297 4V-87H191V5Q113 21 69.5 82Q26 143 26 233Z" glyph-name="cent" horiz-adv-x="459" unicode="&#162;" /><glyph d="M55 233Q55 323 99 383.5Q143 444 220 461V552H326V462Q388 451 423 415Q458 379 465 326L347 306Q338 361 275 361Q225 361 201.5 325.5Q178 290 178 233Q178 176 201.5 140.5Q225 105 275 105Q306 105 324 120Q342 135 347 161L465 141Q458 87 423 51Q388 15 326 4V-87H220V5Q143 22 99 82.5Q55 143 55 233Z" glyph-name="cent.lt" horiz-adv-x="520" /><glyph d="M397 503H303L250 572L197 503H103L195 650H305Z" glyph-name="circumflex" horiz-adv-x="500" unicode="&#710;" /><glyph d="M402 669H297L250 723L203 669H98L198 796H302Z" glyph-name="circumflex.cap" horiz-adv-x="500" unicode="&#58403;" /><glyph d="M175 65Q175 34 155.5 14.5Q136 -5 105 -5Q74 -5 54.5 14.5Q35 34 35 65Q35 97 54.5 116.5Q74 136 105 136Q136 136 155.5 116.5Q175 97 175 65ZM175 351Q175 320 155.5 300.5Q136 281 105 281Q74 281 54.5 300.5Q35 320 35 351Q35 382 54.5 401.5Q74 421 105 421Q136 421 155.5 401.5Q175 382 175 351Z" glyph-name="colon" horiz-adv-x="210" unicode=":" /><glyph d="M200 65Q200 34 180.5 14.5Q161 -5 130 -5Q99 -5 79 14.5Q59 34 59 65Q59 97 79 116.5Q99 136 130 136Q161 136 180.5 116.5Q200 97 200 65ZM200 351Q200 320 180.5 300.5Q161 281 130 281Q99 281 79 300.5Q59 320 59 351Q59 382 79 401.5Q99 421 130 421Q161 421 180.5 401.5Q200 382 200 351Z" glyph-name="colon.tab" horiz-adv-x="260" /><glyph d="M42 -63Q103 -49 117 -3Q111 -5 105 -5Q74 -5 54.5 14.5Q35 34 35 65Q35 97 54.5 116.5Q74 136 105 136Q147 136 166.5 110Q186 84 186 42Q186 15 177.5 -10.5Q169 -36 152 -57Q135 -78 110 -93Q85 -108 52 -114Z" glyph-name="comma" horiz-adv-x="210" unicode="," /><glyph d="M67 -63Q126 -50 142 -3Q134 -5 129 -5Q98 -5 78.5 14.5Q59 34 59 65Q59 97 78.5 116.5Q98 136 129 136Q171 136 191 110Q211 84 211 42Q211 15 202.5 -10.5Q194 -36 177 -57Q160 -78 135 -93Q110 -108 77 -114Z" glyph-name="comma.tab" horiz-adv-x="260" /><glyph d="M205 -153Q222 -150 235 -144Q248 -138 256 -127H248Q225 -127 210 -113.5Q195 -100 195 -76Q195 -53 211.5 -39.5Q228 -26 251 -26Q283 -26 298.5 -45Q314 -64 314 -95Q314 -133 288 -158.5Q262 -184 213 -193Z" glyph-name="commaaccent" horiz-adv-x="500" unicode="&#58388;" /><glyph d="M298 633Q279 629 264.5 621Q250 613 242 599H251Q275 598 290 583Q305 568 305 544Q305 520 288.5 504.5Q272 489 248 489Q216 489 199 509Q182 529 182 564Q182 606 209.5 636.5Q237 667 288 676Z" glyph-name="commaturn" horiz-adv-x="500" /><glyph d="M669 307Q669 238 644 180Q619 122 576 79.5Q533 37 475 13.5Q417 -10 352 -10Q287 -10 229 13.5Q171 37 128 79.5Q85 122 60 180Q35 238 35 307Q35 376 60 434Q85 492 128 534.5Q171 577 229 600.5Q287 624 352 624Q417 624 475 600.5Q533 577 576 534.5Q619 492 644 434Q669 376 669 307ZM622 307Q622 366 600.5 415.5Q579 465 542.5 501Q506 537 456.5 557.5Q407 578 352 578Q296 578 247 557.5Q198 537 161.5 501Q125 465 103.5 415.5Q82 366 82 307Q82 248 103.5 198.5Q125 149 161.5 113Q198 77 247 56.5Q296 36 352 36Q407 36 456.5 56.5Q506 77 542.5 113Q579 149 600.5 198.5Q622 248 622 307ZM270 307Q270 262 291.5 232Q313 202 355 202Q380 202 396 214Q412 226 417 249L517 231Q510 173 467 140.5Q424 108 353 108Q311 108 276.5 122.5Q242 137 217.5 163.5Q193 190 179.5 226.5Q166 263 166 307Q166 351 179.5 388Q193 425 217.5 451.5Q242 478 276.5 492.5Q311 507 353 507Q424 507 467 474Q510 441 517 384L417 366Q412 389 396 401Q380 413 355 413Q313 413 291.5 383Q270 353 270 307Z" glyph-name="copyright" horiz-adv-x="704" unicode="&#169;" /><glyph d="M341 37Q326 19 295.5 4.5Q265 -10 229 -10Q181 -10 143 8.5Q105 27 79 58.5Q53 90 39.5 132.5Q26 175 26 223Q26 271 39.5 313.5Q53 356 79 388Q105 420 143 438.5Q181 457 229 457Q265 457 295.5 442.5Q326 428 341 409V650H465V0H341ZM341 297Q330 320 307 334.5Q284 349 257 349Q206 349 178 313Q150 277 150 223Q150 169 178 133.5Q206 98 257 98Q285 98 307.5 112.5Q330 127 341 150Z" glyph-name="d" horiz-adv-x="519" unicode="d" /><glyph d="M27 558H126V650H211V558H310V475H211V276H126V475H27Z" glyph-name="dagger" horiz-adv-x="337" unicode="&#8224;" /><glyph d="M31 575H132V650H215V575H316V499H215V426H316V351H215V276H132V351H31V426H132V499H31Z" glyph-name="daggerdbl" horiz-adv-x="347" unicode="&#8225;" /><glyph d="M507 483 535 650H621L593 483ZM341 0V37Q326 19 295.5 4.5Q265 -10 229 -10Q181 -10 143 8.5Q105 27 79 58.5Q53 90 39.5 132.5Q26 175 26 223Q26 271 39.5 313.5Q53 356 79 388Q105 420 143 438.5Q181 457 229 457Q265 457 295.5 442.5Q326 428 341 409V650H465V0ZM341 297Q330 320 307 334.5Q284 349 257 349Q206 349 178 313Q150 277 150 223Q150 169 178 133.5Q206 98 257 98Q285 98 307.5 112.5Q330 127 341 150Z" glyph-name="dcaron" horiz-adv-x="519" unicode="&#271;" /><glyph d="M248 581H341V650H465V581H520V497H465V0H341V37Q326 19 295.5 4.5Q265 -10 229 -10Q181 -10 143 8.5Q105 27 79 58.5Q53 90 39.5 132.5Q26 175 26 223Q26 271 39.5 313.5Q53 356 79 388Q105 420 143 438.5Q181 457 229 457Q265 457 295.5 442.5Q326 428 341 409V497H248ZM341 297Q330 320 307 334.5Q284 349 257 349Q206 349 178 313Q150 277 150 223Q150 169 178 133.5Q206 98 257 98Q285 98 307.5 112.5Q330 127 341 150Z" glyph-name="dcroat" horiz-adv-x="519" unicode="&#273;" /><glyph d="M341 37Q326 19 295.5 4.5Q265 -10 229 -10Q181 -10 143 8.5Q105 27 79 58.5Q53 90 39.5 132.5Q26 175 26 223Q26 271 39.5 313.5Q53 356 79 388Q105 420 143 438.5Q181 457 229 457Q265 457 295.5 442.5Q326 428 341 409V650H465V0H341ZM341 297Q330 320 307 334.5Q284 349 257 349Q206 349 178 313Q150 277 150 223Q150 169 178 133.5Q206 98 257 98Q285 98 307.5 112.5Q330 127 341 150ZM339 736Q339 765 357.5 783.5Q376 802 405 802Q435 802 453.5 783.5Q472 765 472 736Q472 707 453.5 688.5Q435 670 405 670Q376 670 357.5 688.5Q339 707 339 736Z" glyph-name="ddotaccent" horiz-adv-x="519" unicode="&#7691;" /><glyph d="M119 488Q119 462 136.5 444Q154 426 179 426Q203 426 220.5 444Q238 462 238 488Q238 513 220.5 531Q203 549 179 549Q154 549 136.5 531Q119 513 119 488ZM314 488Q314 459 303.5 434.5Q293 410 274.5 391Q256 372 231.5 361.5Q207 351 179 351Q151 351 126.5 361.5Q102 372 83.5 391Q65 410 54.5 434.5Q44 459 44 488Q44 516 54.5 541Q65 566 83.5 584.5Q102 603 126.5 613.5Q151 624 179 624Q207 624 231.5 613.5Q256 603 274.5 584.5Q293 566 303.5 541Q314 516 314 488Z" glyph-name="degree" horiz-adv-x="357" unicode="&#176;" /><glyph d="M100 576Q100 605 119 623.5Q138 642 167 642Q196 642 214.5 623.5Q233 605 233 576Q233 547 214.5 528.5Q196 510 167 510Q138 510 119 528.5Q100 547 100 576ZM266 576Q266 605 284.5 623.5Q303 642 332 642Q362 642 380.5 623.5Q399 605 399 576Q399 547 380.5 528.5Q362 510 332 510Q303 510 284.5 528.5Q266 547 266 576Z" glyph-name="dieresis" horiz-adv-x="500" unicode="&#168;" /><glyph d="M100 730Q100 759 119 777.5Q138 796 167 796Q196 796 214.5 777.5Q233 759 233 730Q233 701 214.5 682.5Q196 664 167 664Q138 664 119 682.5Q100 701 100 730ZM266 730Q266 759 284.5 777.5Q303 796 332 796Q362 796 380.5 777.5Q399 759 399 730Q399 701 380.5 682.5Q362 664 332 664Q303 664 284.5 682.5Q266 701 266 730Z" glyph-name="dieresis.cap" horiz-adv-x="500" unicode="&#58409;" /><glyph d="M64 347H496V252H64ZM210 472Q210 501 230.5 521.5Q251 542 280 542Q309 542 330.5 521.5Q352 501 352 472Q352 443 330.5 422.5Q309 402 280 402Q251 402 230.5 422.5Q210 443 210 472ZM210 126Q210 155 230.5 175.5Q251 196 280 196Q309 196 330.5 175.5Q352 155 352 126Q352 97 330.5 76.5Q309 56 280 56Q251 56 230.5 76.5Q210 97 210 126Z" glyph-name="divide" horiz-adv-x="561" unicode="&#247;" /><glyph d="M44 347H476V252H44ZM190 472Q190 501 210.5 521.5Q231 542 260 542Q289 542 310 521.5Q331 501 331 472Q331 443 310 422.5Q289 402 260 402Q231 402 210.5 422.5Q190 443 190 472ZM190 126Q190 155 210.5 175.5Q231 196 260 196Q289 196 310 175.5Q331 155 331 126Q331 97 310 76.5Q289 56 260 56Q231 56 210.5 76.5Q190 97 190 126Z" glyph-name="divide.lt" horiz-adv-x="520" /><glyph d="M205 8Q138 19 89 56.5Q40 94 24 166L144 186Q148 164 158.5 149Q169 134 184 124.5Q199 115 217.5 110.5Q236 106 255 106Q302 106 328 124.5Q354 143 354 177Q354 205 337 220.5Q320 236 281 245L183 269Q153 276 126 288.5Q99 301 79.5 320.5Q60 340 48.5 367.5Q37 395 37 432Q37 469 49.5 499Q62 529 84.5 551Q107 573 138 587.5Q169 602 205 607V698H311V603Q369 591 410 554.5Q451 518 466 456L352 436Q344 468 320 488.5Q296 509 248 509Q204 509 180 490.5Q156 472 156 442Q156 416 172 400.5Q188 385 220 377L324 352Q394 335 434 293.5Q474 252 474 184Q474 147 462 117.5Q450 88 428 65.5Q406 43 376.5 28.5Q347 14 311 8V-89H205Z" glyph-name="dollar" horiz-adv-x="501" unicode="$" /><glyph d="M218 8Q151 18 102.5 56Q54 94 37 166L157 186Q161 164 171.5 149Q182 134 197 124.5Q212 115 230.5 110.5Q249 106 268 106Q314 106 340.5 124.5Q367 143 367 177Q367 205 350 220.5Q333 236 294 245L195 269Q165 276 138.5 288.5Q112 301 92.5 320.5Q73 340 61.5 367.5Q50 395 50 432Q50 469 62.5 499Q75 529 97.5 551Q120 573 151 587.5Q182 602 218 607V698H324V603Q382 591 423 554.5Q464 518 479 456L364 436Q356 468 332.5 488.5Q309 509 261 509Q217 509 192.5 490.5Q168 472 168 442Q168 416 184.5 400.5Q201 385 233 377L336 352Q407 335 446.5 293.5Q486 252 486 184Q486 147 474 117.5Q462 88 440.5 65.5Q419 43 389 28.5Q359 14 324 8V-89H218Z" glyph-name="dollar.lt" horiz-adv-x="520" /><glyph d="M183 576Q183 605 202 623.5Q221 642 250 642Q279 642 298 623.5Q317 605 317 576Q317 547 298 528.5Q279 510 250 510Q221 510 202 528.5Q183 547 183 576Z" glyph-name="dotaccent" horiz-adv-x="500" unicode="&#729;" /><glyph d="M183 730Q183 759 202 777.5Q221 796 250 796Q279 796 298 777.5Q317 759 317 730Q317 701 298 682.5Q279 664 250 664Q221 664 202 682.5Q183 701 183 730Z" glyph-name="dotaccent.cap" horiz-adv-x="500" unicode="&#58408;" /><glyph d="M183 -99Q183 -70 202 -51.5Q221 -33 250 -33Q279 -33 298 -51.5Q317 -70 317 -99Q317 -128 298 -146.5Q279 -165 250 -165Q221 -165 202 -146.5Q183 -128 183 -99Z" glyph-name="dotbelow" horiz-adv-x="500" unicode="&#58389;" /><glyph d="M178 0H54V447H178Z" glyph-name="dotlessi" horiz-adv-x="231" unicode="&#305;" /><glyph d="M178 -19Q178 -93 139 -134Q100 -175 25 -175Q11 -175 -4 -173.5Q-19 -172 -29 -167L-18 -70Q-9 -74 6 -74Q30 -74 42 -61.5Q54 -49 54 -19V447H178Z" glyph-name="dotlessj" horiz-adv-x="231" unicode="&#567;" /><glyph d="M442 126Q426 63 374 26.5Q322 -10 244 -10Q195 -10 154.5 7Q114 24 85.5 54.5Q57 85 41.5 128Q26 171 26 223Q26 274 42 316.5Q58 359 86.5 390.5Q115 422 154.5 439.5Q194 457 241 457Q290 457 328 440.5Q366 424 391.5 395Q417 366 430.5 325Q444 284 444 235V197H146Q148 146 174.5 118Q201 90 244 90Q275 90 299.5 103.5Q324 117 331 146ZM242 357Q206 357 181.5 335.5Q157 314 149 272H323Q321 307 301 332Q281 357 242 357Z" glyph-name="e" horiz-adv-x="469" unicode="e" /><glyph d="M189 503 268 650H390L301 503ZM442 126Q426 63 374 26.5Q322 -10 244 -10Q195 -10 154.5 7Q114 24 85.5 54.5Q57 85 41.5 128Q26 171 26 223Q26 274 42 316.5Q58 359 86.5 390.5Q115 422 154.5 439.5Q194 457 241 457Q290 457 328 440.5Q366 424 391.5 395Q417 366 430.5 325Q444 284 444 235V197H146Q148 146 174.5 118Q201 90 244 90Q275 90 299.5 103.5Q324 117 331 146ZM242 357Q206 357 181.5 335.5Q157 314 149 272H323Q321 307 301 332Q281 357 242 357Z" glyph-name="eacute" horiz-adv-x="469" unicode="&#233;" /><glyph d="M442 126Q426 63 374 26.5Q322 -10 244 -10Q195 -10 154.5 7Q114 24 85.5 54.5Q57 85 41.5 128Q26 171 26 223Q26 274 42 316.5Q58 359 86.5 390.5Q115 422 154.5 439.5Q194 457 241 457Q290 457 328 440.5Q366 424 391.5 395Q417 366 430.5 325Q444 284 444 235V197H146Q148 146 174.5 118Q201 90 244 90Q275 90 299.5 103.5Q324 117 331 146ZM242 357Q206 357 181.5 335.5Q157 314 149 272H323Q321 307 301 332Q281 357 242 357ZM246 493Q217 493 191.5 501.5Q166 510 146.5 529Q127 548 115 577.5Q103 607 102 648H193Q195 613 207.5 598Q220 583 246 583Q272 583 285 598Q298 613 299 648H390Q388 607 376.5 577.5Q365 548 346 529Q327 510 301.5 501.5Q276 493 246 493Z" glyph-name="ebreve" horiz-adv-x="469" unicode="&#277;" /><glyph d="M309 608H331L239 544H201L143 639L209 650L290 591ZM442 126Q426 63 374 26.5Q322 -10 244 -10Q195 -10 154.5 7Q114 24 85.5 54.5Q57 85 41.5 128Q26 171 26 223Q26 274 42 316.5Q58 359 86.5 390.5Q115 422 154.5 439.5Q194 457 241 457Q290 457 328 440.5Q366 424 391.5 395Q417 366 430.5 325Q444 284 444 235V197H146Q148 146 174.5 118Q201 90 244 90Q275 90 299.5 103.5Q324 117 331 146ZM242 357Q206 357 181.5 335.5Q157 314 149 272H323Q321 307 301 332Q281 357 242 357Z" glyph-name="ecaron" horiz-adv-x="469" unicode="&#283;" /><glyph d="M392 503H298L245 572L193 503H99L191 650H300ZM442 126Q426 63 374 26.5Q322 -10 244 -10Q195 -10 154.5 7Q114 24 85.5 54.5Q57 85 41.5 128Q26 171 26 223Q26 274 42 316.5Q58 359 86.5 390.5Q115 422 154.5 439.5Q194 457 241 457Q290 457 328 440.5Q366 424 391.5 395Q417 366 430.5 325Q444 284 444 235V197H146Q148 146 174.5 118Q201 90 244 90Q275 90 299.5 103.5Q324 117 331 146ZM242 357Q206 357 181.5 335.5Q157 314 149 272H323Q321 307 301 332Q281 357 242 357Z" glyph-name="ecircumflex" horiz-adv-x="469" unicode="&#234;" /><glyph d="M97 576Q97 605 116 623.5Q135 642 164 642Q193 642 212 623.5Q231 605 231 576Q231 547 212 528.5Q193 510 164 510Q135 510 116 528.5Q97 547 97 576ZM263 576Q263 605 281.5 623.5Q300 642 330 642Q359 642 377.5 623.5Q396 605 396 576Q396 547 377.5 528.5Q359 510 330 510Q300 510 281.5 528.5Q263 547 263 576ZM442 126Q426 63 374 26.5Q322 -10 244 -10Q195 -10 154.5 7Q114 24 85.5 54.5Q57 85 41.5 128Q26 171 26 223Q26 274 42 316.5Q58 359 86.5 390.5Q115 422 154.5 439.5Q194 457 241 457Q290 457 328 440.5Q366 424 391.5 395Q417 366 430.5 325Q444 284 444 235V197H146Q148 146 174.5 118Q201 90 244 90Q275 90 299.5 103.5Q324 117 331 146ZM242 357Q206 357 181.5 335.5Q157 314 149 272H323Q321 307 301 332Q281 357 242 357Z" glyph-name="edieresis" horiz-adv-x="469" unicode="&#235;" /><glyph d="M442 126Q426 63 374 26.5Q322 -10 244 -10Q195 -10 154.5 7Q114 24 85.5 54.5Q57 85 41.5 128Q26 171 26 223Q26 274 42 316.5Q58 359 86.5 390.5Q115 422 154.5 439.5Q194 457 241 457Q290 457 328 440.5Q366 424 391.5 395Q417 366 430.5 325Q444 284 444 235V197H146Q148 146 174.5 118Q201 90 244 90Q275 90 299.5 103.5Q324 117 331 146ZM242 357Q206 357 181.5 335.5Q157 314 149 272H323Q321 307 301 332Q281 357 242 357ZM180 576Q180 605 198.5 623.5Q217 642 246 642Q275 642 294 623.5Q313 605 313 576Q313 547 294 528.5Q275 510 246 510Q217 510 198.5 528.5Q180 547 180 576Z" glyph-name="edotaccent" horiz-adv-x="469" unicode="&#279;" /><glyph d="M442 126Q426 63 374 26.5Q322 -10 244 -10Q195 -10 154.5 7Q114 24 85.5 54.5Q57 85 41.5 128Q26 171 26 223Q26 274 42 316.5Q58 359 86.5 390.5Q115 422 154.5 439.5Q194 457 241 457Q290 457 328 440.5Q366 424 391.5 395Q417 366 430.5 325Q444 284 444 235V197H146Q148 146 174.5 118Q201 90 244 90Q275 90 299.5 103.5Q324 117 331 146ZM242 357Q206 357 181.5 335.5Q157 314 149 272H323Q321 307 301 332Q281 357 242 357ZM184 503 94 650H217L296 503Z" glyph-name="egrave" horiz-adv-x="469" unicode="&#232;" /><glyph d="M249 91Q291 91 319 114Q347 137 347 178Q347 220 319 242.5Q291 265 249 265Q207 265 179.5 242.5Q152 220 152 178Q152 137 179.5 114Q207 91 249 91ZM249 369Q284 369 308.5 389.5Q333 410 333 446Q333 484 308.5 505Q284 526 249 526Q215 526 190.5 505Q166 484 166 446Q166 410 190.5 389.5Q215 369 249 369ZM249 -10Q203 -10 163 2Q123 14 93 37Q63 60 46 93Q29 126 29 168Q29 227 60.5 265Q92 303 136 315Q98 332 73 367Q48 402 48 451Q48 493 64.5 525.5Q81 558 108.5 579.5Q136 601 172.5 612.5Q209 624 249 624Q289 624 325.5 612.5Q362 601 389.5 579.5Q417 558 433.5 525.5Q450 493 450 451Q450 402 425.5 367Q401 332 363 315Q407 303 438.5 265Q470 227 470 168Q470 126 453 93Q436 60 406 37Q376 14 335.5 2Q295 -10 249 -10Z" glyph-name="eight" horiz-adv-x="499" unicode="8" /><glyph d="M149 -105Q167 -105 178.5 -95.5Q190 -86 190 -70Q190 -53 178.5 -43.5Q167 -34 149 -34Q132 -34 120 -43.5Q108 -53 108 -70Q108 -86 120 -95.5Q132 -105 149 -105ZM149 38Q165 38 175.5 47Q186 56 186 71Q186 85 175.5 95Q165 105 149 105Q134 105 123.5 95Q113 85 113 71Q113 56 123.5 47Q134 38 149 38ZM149 -175Q122 -175 99 -168.5Q76 -162 58.5 -149.5Q41 -137 31 -118.5Q21 -100 21 -77Q21 -48 36 -28Q51 -8 74 0Q54 11 42.5 30Q31 49 31 73Q31 97 40.5 115.5Q50 134 66.5 146.5Q83 159 104.5 165.5Q126 172 149 172Q172 172 193.5 165.5Q215 159 231.5 146.5Q248 134 257.5 115.5Q267 97 267 73Q267 49 256 30Q245 11 225 0Q247 -8 262.5 -28Q278 -48 278 -77Q278 -100 268 -118.5Q258 -137 240.5 -149.5Q223 -162 199.5 -168.5Q176 -175 149 -175Z" glyph-name="eight.inf" horiz-adv-x="300" unicode="&#58745;" /><glyph d="M261 91Q304 91 333 114Q362 137 362 178Q362 220 333 242.5Q304 265 261 265Q219 265 190.5 242.5Q162 220 162 178Q162 137 190.5 114Q219 91 261 91ZM261 369Q296 369 322 389.5Q348 410 348 446Q348 484 322 505Q296 526 261 526Q227 526 201.5 505Q176 484 176 446Q176 410 201.5 389.5Q227 369 261 369ZM261 -10Q215 -10 174.5 2Q134 14 104 37Q74 60 57 93Q40 126 40 168Q40 227 71.5 265Q103 303 148 315Q110 332 84.5 367Q59 402 59 451Q59 493 75.5 525.5Q92 558 120 579.5Q148 601 184.5 612.5Q221 624 261 624Q302 624 339 612.5Q376 601 404 579.5Q432 558 448.5 525.5Q465 493 465 451Q465 402 439.5 367Q414 332 376 315Q398 309 417.5 296Q437 283 452 264.5Q467 246 475.5 221.5Q484 197 484 168Q484 126 466.5 93Q449 60 419 37Q389 14 348 2Q307 -10 261 -10Z" glyph-name="eight.lt" horiz-adv-x="520" /><glyph d="M184 278H95V514L15 475V565L121 614H184ZM407 278H318V514L238 475V565L344 614H407ZM413 0H326L695 614H782ZM846 0H757V236L678 198V287L783 336H846ZM1046 342Q1097 342 1126 319.5Q1155 297 1162 256L1080 242Q1074 267 1045 267Q1019 267 1006 247.5Q993 228 993 202V198Q1001 209 1017 216Q1033 223 1054 223Q1106 223 1136 191Q1166 159 1166 113Q1166 62 1132.5 28.5Q1099 -5 1040 -5Q1008 -5 981.5 9Q955 23 938 49Q908 92 908 161Q908 201 917 234.5Q926 268 943.5 292Q961 316 987 329Q1013 342 1046 342ZM997 110Q997 91 1009 79.5Q1021 68 1041 68Q1060 68 1072.5 79.5Q1085 91 1085 110Q1085 130 1072.5 142.5Q1060 155 1041 155Q1021 155 1009 142.5Q997 130 997 110Z" glyph-name="elevensixteenths" horiz-adv-x="1189" unicode="&#61984;" /><glyph d="M184 278H95V514L15 475V565L121 614H184ZM407 278H318V514L238 475V565L344 614H407ZM413 0H326L695 614H782ZM777 202H797Q814 202 825.5 210Q837 218 837 235Q837 248 829 257Q821 266 805 266Q787 266 777.5 255.5Q768 245 767 230L682 245Q689 287 719.5 314.5Q750 342 805 342Q860 342 892 313Q924 284 924 238Q924 216 913.5 197Q903 178 888 169Q908 160 918 141.5Q928 123 928 100Q928 55 894.5 25Q861 -5 804 -5Q750 -5 716.5 21Q683 47 677 94L766 109Q768 92 777.5 81.5Q787 71 805 71Q821 71 831 80.5Q841 90 841 105Q841 122 829.5 129.5Q818 137 800 137H777ZM1124 231Q1124 244 1115 252.5Q1106 261 1092 261Q1076 261 1068.5 251.5Q1061 242 1059 229L969 245Q977 290 1007.5 316Q1038 342 1092 342Q1152 342 1183.5 313Q1215 284 1215 237Q1215 203 1196 179Q1177 155 1152 130L1098 78H1216V0H969V58L1087 173Q1103 190 1113.5 203Q1124 216 1124 231Z" glyph-name="eleventhirtyseconds" horiz-adv-x="1240" /><glyph d="M55 67Q55 98 75 118Q95 138 125 138Q156 138 176 118Q196 98 196 67Q196 35 176 15Q156 -5 125 -5Q95 -5 75 15Q55 35 55 67ZM323 67Q323 98 343 118Q363 138 393 138Q424 138 444 118Q464 98 464 67Q464 35 444 15Q424 -5 393 -5Q363 -5 343 15Q323 35 323 67ZM591 67Q591 98 611 118Q631 138 661 138Q692 138 712 118Q732 98 732 67Q732 35 712 15Q692 -5 661 -5Q631 -5 611 15Q591 35 591 67Z" glyph-name="ellipsis" horiz-adv-x="787" unicode="&#8230;" /><glyph d="M128 615H365V521H128ZM442 126Q426 63 374 26.5Q322 -10 244 -10Q195 -10 154.5 7Q114 24 85.5 54.5Q57 85 41.5 128Q26 171 26 223Q26 274 42 316.5Q58 359 86.5 390.5Q115 422 154.5 439.5Q194 457 241 457Q290 457 328 440.5Q366 424 391.5 395Q417 366 430.5 325Q444 284 444 235V197H146Q148 146 174.5 118Q201 90 244 90Q275 90 299.5 103.5Q324 117 331 146ZM242 357Q206 357 181.5 335.5Q157 314 149 272H323Q321 307 301 332Q281 357 242 357Z" glyph-name="emacron" horiz-adv-x="469" unicode="&#275;" /><glyph d="M38 307H804V217H38Z" glyph-name="emdash" horiz-adv-x="842" unicode="&#8212;" /><glyph d="M38 345H804V254H38Z" glyph-name="emdash.cap" horiz-adv-x="842" unicode="&#58502;" /><glyph d="M38 307H433V217H38Z" glyph-name="endash" horiz-adv-x="471" unicode="&#8211;" /><glyph d="M38 345H433V254H38Z" glyph-name="endash.cap" horiz-adv-x="471" unicode="&#58500;" /><glyph d="M456 -21Q456 -95 417.5 -137.5Q379 -180 304 -180Q290 -180 274 -178Q258 -176 247 -170L264 -71Q269 -73 274 -74Q279 -75 284 -75Q308 -75 320 -62Q332 -49 332 -19V266Q332 301 314.5 323Q297 345 259 345Q230 345 207.5 330Q185 315 178 286V0H54V447H178V408Q196 429 227.5 443Q259 457 298 457Q373 457 414.5 411.5Q456 366 456 292Z" glyph-name="eng" horiz-adv-x="505" unicode="&#331;" /><glyph d="M442 126Q430 78 397.5 46Q365 14 317 0Q260 -37 260 -71Q260 -101 296 -101Q310 -101 320.5 -97.5Q331 -94 336 -91L350 -157Q342 -165 323 -172.5Q304 -180 273 -180Q225 -180 199.5 -157.5Q174 -135 174 -100Q174 -74 186 -51Q198 -28 219 -9Q175 -5 139.5 13.5Q104 32 78.5 62.5Q53 93 39.5 134Q26 175 26 223Q26 274 42 316.5Q58 359 86.5 390.5Q115 422 154.5 439.5Q194 457 241 457Q290 457 328 440.5Q366 424 391.5 395Q417 366 430.5 325Q444 284 444 235V197H146Q148 146 174.5 118Q201 90 244 90Q275 90 299.5 103.5Q324 117 331 146ZM242 357Q206 357 181.5 335.5Q157 314 149 272H323Q321 307 301 332Q281 357 242 357Z" glyph-name="eogonek" horiz-adv-x="469" unicode="&#281;" /><glyph d="M73 262H504V175H73ZM73 426H504V338H73Z" glyph-name="equal" horiz-adv-x="576" unicode="=" /><glyph d="M42 -24H292V-87H42ZM42 77H292V14H42Z" glyph-name="equal.inf" horiz-adv-x="334" unicode="&#58749;" /><glyph d="M44 262H475V175H44ZM44 426H475V338H44Z" glyph-name="equal.lt" horiz-adv-x="520" /><glyph d="M113 545 176 565Q150 586 123.5 606.5Q97 627 70 646V650H227Q258 628 288 601L373 629L396 567L340 549Q399 482 431.5 402.5Q464 323 464 234Q464 178 448 133Q432 88 403 56Q374 24 334 7Q294 -10 245 -10Q196 -10 156 7Q116 24 87 54.5Q58 85 42 127.5Q26 170 26 221Q26 272 42 314.5Q58 357 85.5 387.5Q113 418 151 434.5Q189 451 234 451Q258 451 275 444Q292 437 303 427H307Q298 444 279 466.5Q260 489 234 514L137 483ZM341 221Q341 278 316.5 313Q292 348 245 348Q198 348 173.5 313Q149 278 149 221Q149 165 173.5 129.5Q198 94 245 94Q292 94 316.5 129.5Q341 165 341 221Z" glyph-name="eth" horiz-adv-x="489" unicode="&#240;" /><glyph d="M35 614H182L150 198H66ZM179 65Q179 34 159 14.5Q139 -5 108 -5Q77 -5 57.5 14.5Q38 34 38 65Q38 97 57.5 116.5Q77 136 108 136Q139 136 159 116.5Q179 97 179 65Z" glyph-name="exclam" horiz-adv-x="217" unicode="!" /><glyph d="M66 320H150L182 -96H35ZM179 453Q179 421 159 401.5Q139 382 108 382Q77 382 57.5 401.5Q38 421 38 453Q38 484 57.5 503.5Q77 523 108 523Q139 523 159 503.5Q179 484 179 453Z" glyph-name="exclamdown" horiz-adv-x="224" unicode="&#161;" /><glyph d="M66 416H150L182 0H35ZM179 549Q179 517 159 497.5Q139 478 108 478Q77 478 57.5 497.5Q38 517 38 549Q38 580 57.5 599.5Q77 619 108 619Q139 619 159 599.5Q179 580 179 549Z" glyph-name="exclamdown.cap" horiz-adv-x="217" unicode="&#58433;" /><glyph d="M306 545Q291 555 270 555Q244 555 227.5 539.5Q211 524 211 493V447H304V347H211V0H89V347H16V447H89V500Q89 576 131.5 617.5Q174 659 246 659Q271 659 292 654.5Q313 650 324 643Z" glyph-name="f" horiz-adv-x="326" unicode="f" /><glyph d="M598 545Q581 555 561 555Q535 555 518.5 539.5Q502 524 502 493V447H595V347H502V0H380V347H211V0H89V347H16V447H89V500Q89 576 131.5 617.5Q174 659 246 659Q271 659 292 654.5Q313 650 324 643L306 545Q291 555 270 555Q244 555 227.5 539.5Q211 524 211 493V447H380V500Q380 576 422.5 617.5Q465 659 537 659Q562 659 583 654.5Q604 650 615 643Z" glyph-name="f_f" horiz-adv-x="617" unicode="&#64256;" /><glyph d="M306 545Q291 555 270 555Q244 555 227.5 539.5Q211 524 211 493V447H304V347H211V0H89V347H16V447H89V500Q89 576 131.5 617.5Q174 659 246 659Q271 659 292 654.5Q313 650 324 643ZM123 736Q123 765 141.5 783.5Q160 802 189 802Q219 802 237.5 783.5Q256 765 256 736Q256 707 237.5 688.5Q219 670 189 670Q160 670 141.5 688.5Q123 707 123 736Z" glyph-name="fdotaccent" horiz-adv-x="326" unicode="&#7711;" /><glyph d="M306 545Q291 555 270 555Q244 555 227.5 539.5Q211 524 211 493V447H304V347H211V0H89V347H16V447H89V500Q89 576 131.5 617.5Q174 659 246 659Q271 659 292 654.5Q313 650 324 643ZM504 0H380V447H504ZM511 576Q511 544 492 525.5Q473 507 442 507Q411 507 391.5 525.5Q372 544 372 576Q372 607 391.5 626Q411 645 442 645Q473 645 492 626Q511 607 511 576Z" glyph-name="fi" horiz-adv-x="557" unicode="&#64257;" /><glyph d="M184 278H95V514L15 475V565L121 614H184ZM372 429Q360 429 350.5 424.5Q341 420 335 413H260V614H471V538H334V489Q342 494 356 497.5Q370 501 384 501Q436 501 466 470Q496 439 496 389Q496 336 462 304Q428 272 373 272Q315 272 283 298Q251 324 244 371L332 386Q334 369 344.5 358.5Q355 348 373 348Q390 348 400.5 359.5Q411 371 411 389Q411 406 401 417.5Q391 429 372 429ZM483 0H396L765 614H852ZM916 0H827V236L748 198V287L853 336H916ZM1116 342Q1167 342 1196 319.5Q1225 297 1232 256L1150 242Q1144 267 1115 267Q1089 267 1076 247.5Q1063 228 1063 202V198Q1071 209 1087 216Q1103 223 1124 223Q1176 223 1206 191Q1236 159 1236 113Q1236 62 1202.5 28.5Q1169 -5 1110 -5Q1078 -5 1051.5 9Q1025 23 1008 49Q978 92 978 161Q978 201 987 234.5Q996 268 1013.5 292Q1031 316 1057 329Q1083 342 1116 342ZM1067 110Q1067 91 1079 79.5Q1091 68 1111 68Q1130 68 1142.5 79.5Q1155 91 1155 110Q1155 130 1142.5 142.5Q1130 155 1111 155Q1091 155 1079 142.5Q1067 130 1067 110Z" glyph-name="fifteensixteenths" horiz-adv-x="1259" unicode="&#61986;" /><glyph d="M184 278H95V514L15 475V565L121 614H184ZM372 429Q360 429 350.5 424.5Q341 420 335 413H260V614H471V538H334V489Q342 494 356 497.5Q370 501 384 501Q436 501 466 470Q496 439 496 389Q496 336 462 304Q428 272 373 272Q315 272 283 298Q251 324 244 371L332 386Q334 369 344.5 358.5Q355 348 373 348Q390 348 400.5 359.5Q411 371 411 389Q411 406 401 417.5Q391 429 372 429ZM483 0H396L765 614H852ZM847 202H867Q884 202 895.5 210Q907 218 907 235Q907 248 899 257Q891 266 875 266Q857 266 847.5 255.5Q838 245 837 230L752 245Q759 287 789.5 314.5Q820 342 875 342Q930 342 962 313Q994 284 994 238Q994 216 983.5 197Q973 178 958 169Q978 160 988 141.5Q998 123 998 100Q998 55 964.5 25Q931 -5 874 -5Q820 -5 786.5 21Q753 47 747 94L836 109Q838 92 847.5 81.5Q857 71 875 71Q891 71 901 80.5Q911 90 911 105Q911 122 899.5 129.5Q888 137 870 137H847ZM1194 231Q1194 244 1185 252.5Q1176 261 1162 261Q1146 261 1138.5 251.5Q1131 242 1129 229L1039 245Q1047 290 1077.5 316Q1108 342 1162 342Q1222 342 1253.5 313Q1285 284 1285 237Q1285 203 1266 179Q1247 155 1222 130L1168 78H1286V0H1039V58L1157 173Q1173 190 1183.5 203Q1194 216 1194 231Z" glyph-name="fifteenthirtyseconds" horiz-adv-x="1310" /><glyph d="M247 301Q218 301 196 288.5Q174 276 159 259H59V614H419V503H163V378Q177 388 203.5 397Q230 406 262 406Q307 406 343 391Q379 376 405 349Q431 322 445 284Q459 246 459 200Q459 153 443.5 114.5Q428 76 400 48Q372 20 333 5Q294 -10 247 -10Q151 -10 94.5 38Q38 86 27 169L149 190Q154 149 179 124Q204 99 249 99Q291 99 316 127Q341 155 341 200Q341 244 316 272.5Q291 301 247 301Z" glyph-name="five" horiz-adv-x="486" unicode="5" /><glyph d="M149 -19Q125 -19 112 -35H37V166H248V90H111V41Q119 46 133 49.5Q147 53 161 53Q213 53 243 22.5Q273 -8 273 -59Q273 -112 239 -143.5Q205 -175 150 -175Q92 -175 59.5 -149Q27 -123 21 -77L109 -61Q111 -79 121.5 -89.5Q132 -100 150 -100Q167 -100 177.5 -88.5Q188 -77 188 -59Q188 -42 178 -30.5Q168 -19 149 -19Z" glyph-name="five.inf" horiz-adv-x="293" unicode="&#58742;" /><glyph d="M265 300Q235 300 210 288Q185 276 171 259H69V614H438V503H173V378Q187 387 215.5 396.5Q244 406 276 406Q322 406 359.5 391Q397 376 424 349Q451 322 465.5 284Q480 246 480 200Q480 153 464.5 114.5Q449 76 421 48Q393 20 353.5 5Q314 -10 265 -10Q168 -10 109 38Q50 86 39 168L162 190Q167 149 193 124Q219 99 266 99Q309 99 335 127Q361 155 361 200Q361 244 335.5 272Q310 300 265 300Z" glyph-name="five.lt" horiz-adv-x="520" /><glyph d="M149 429Q137 429 127.5 424.5Q118 420 112 413H37V614H248V538H111V489Q119 494 133 497.5Q147 501 161 501Q213 501 243 470Q273 439 273 389Q273 336 239 304Q205 272 150 272Q92 272 59.5 298Q27 324 21 371L109 386Q111 369 121.5 358.5Q132 348 150 348Q167 348 177.5 359.5Q188 371 188 389Q188 406 178 417.5Q168 429 149 429ZM260 0H173L542 614H629ZM693 0H604V236L524 198V287L630 336H693ZM893 342Q943 342 972.5 319.5Q1002 297 1009 256L927 242Q921 267 892 267Q866 267 853 247.5Q840 228 840 202V198Q848 209 864 216Q880 223 901 223Q953 223 983 191Q1013 159 1013 113Q1013 62 979.5 28.5Q946 -5 887 -5Q855 -5 828 9Q801 23 784 49Q755 92 755 161Q755 201 764 234.5Q773 268 790.5 292Q808 316 834 329Q860 342 893 342ZM844 110Q844 91 856 79.5Q868 68 888 68Q907 68 919 79.5Q931 91 931 110Q931 130 919 142.5Q907 155 888 155Q868 155 856 142.5Q844 130 844 110Z" glyph-name="fivesixteenths" horiz-adv-x="1036" unicode="&#61975;" /><glyph d="M149 429Q137 429 127.5 424.5Q118 420 112 413H37V614H248V538H111V489Q119 494 133 497.5Q147 501 161 501Q213 501 243 470Q273 439 273 389Q273 336 239 304Q205 272 150 272Q92 272 59.5 298Q27 324 21 371L109 386Q111 369 121.5 358.5Q132 348 150 348Q167 348 177.5 359.5Q188 371 188 389Q188 406 178 417.5Q168 429 149 429ZM260 0H173L542 614H629ZM624 202H644Q661 202 672.5 210Q684 218 684 235Q684 248 676 257Q668 266 652 266Q634 266 624.5 255.5Q615 245 614 230L529 245Q536 287 566.5 314.5Q597 342 652 342Q707 342 738.5 313Q770 284 770 238Q770 216 759.5 197Q749 178 735 169Q755 160 765 141.5Q775 123 775 100Q775 55 741.5 25Q708 -5 651 -5Q597 -5 563.5 21Q530 47 524 94L613 109Q615 92 624.5 81.5Q634 71 652 71Q668 71 678 80.5Q688 90 688 105Q688 122 676.5 129.5Q665 137 647 137H624ZM970 231Q970 244 961.5 252.5Q953 261 939 261Q923 261 915.5 251.5Q908 242 906 229L816 245Q824 290 854.5 316Q885 342 939 342Q999 342 1030.5 313Q1062 284 1062 237Q1062 203 1043 179Q1024 155 999 130L945 78H1063V0H816V58L934 173Q950 190 960 203Q970 216 970 231Z" glyph-name="fivethirtyseconds" horiz-adv-x="1087" /><glyph d="M306 545Q291 555 270 555Q244 555 227.5 539.5Q211 524 211 493V447H304V347H211V0H89V347H16V447H89V500Q89 576 131.5 617.5Q174 659 246 659Q271 659 292 654.5Q313 650 324 643ZM504 0H380V650H504Z" glyph-name="fl" horiz-adv-x="557" unicode="&#64258;" /><glyph d="M60 353H143L163 465Q177 543 222.5 583.5Q268 624 342 624Q362 624 379 620.5Q396 617 410 612V507Q387 519 356 519Q297 519 286 457L267 353H353V253H250L203 -14Q196 -52 184 -81.5Q172 -111 152.5 -131.5Q133 -152 105 -162.5Q77 -173 38 -173Q-4 -173 -31 -161V-62Q-20 -68 -4 -71Q12 -74 23 -74Q51 -74 62.5 -58Q74 -42 79 -12L125 253H60Z" glyph-name="florin" horiz-adv-x="422" unicode="&#402;" /><glyph d="M130 353H213L233 465Q247 543 292.5 583.5Q338 624 412 624Q432 624 449 620.5Q466 617 480 612V507Q457 519 426 519Q367 519 356 457L337 353H423V253H320L273 -14Q266 -52 254 -81.5Q242 -111 222.5 -131.5Q203 -152 175 -162.5Q147 -173 108 -173Q66 -173 39 -161V-62Q50 -68 66 -71Q82 -74 93 -74Q121 -74 132.5 -58Q144 -42 149 -12L195 253H130Z" glyph-name="florin.lt" horiz-adv-x="520" /><glyph d="M158 227H294V354H407V227H501V122H407V0H294V122H21V214L233 614H358Z" glyph-name="four" horiz-adv-x="520" unicode="4" /><glyph d="M115 -36H166V20H245V-36H290V-110H245V-170H166V-110H17V-42L121 166H208Z" glyph-name="four.inf" horiz-adv-x="307" unicode="&#58741;" /><glyph d="M156 227H291V354H406V227H499V122H406V0H293V122H20V214L232 614H356Z" glyph-name="four.lt" horiz-adv-x="520" /><glyph d="M-33 0H-120L249 614H336Z" glyph-name="fraction" horiz-adv-x="216" unicode="&#8260;" /><glyph d="M339 57Q324 39 295 24.5Q266 10 229 10Q181 10 143 28Q105 46 79 77Q53 108 39.5 148.5Q26 189 26 234Q26 279 39.5 319Q53 359 79 390Q105 421 143 439Q181 457 229 457Q266 457 295 442.5Q324 428 339 410V447H462V29Q462 -23 445.5 -62Q429 -101 399.5 -127.5Q370 -154 330 -167Q290 -180 242 -180Q151 -180 97 -142Q43 -104 32 -38L148 -18Q153 -50 177 -65.5Q201 -81 242 -81Q287 -81 313 -55.5Q339 -30 339 14ZM339 305Q328 325 305.5 339Q283 353 255 353Q204 353 177 319.5Q150 286 150 234Q150 181 177 147.5Q204 114 255 114Q283 114 305.5 128Q328 142 339 162Z" glyph-name="g" horiz-adv-x="516" unicode="g" /><glyph d="M339 57Q324 39 295 24.5Q266 10 229 10Q181 10 143 28Q105 46 79 77Q53 108 39.5 148.5Q26 189 26 234Q26 279 39.5 319Q53 359 79 390Q105 421 143 439Q181 457 229 457Q266 457 295 442.5Q324 428 339 410V447H462V29Q462 -23 445.5 -62Q429 -101 399.5 -127.5Q370 -154 330 -167Q290 -180 242 -180Q151 -180 97 -142Q43 -104 32 -38L148 -18Q153 -50 177 -65.5Q201 -81 242 -81Q287 -81 313 -55.5Q339 -30 339 14ZM339 305Q328 325 305.5 339Q283 353 255 353Q204 353 177 319.5Q150 286 150 234Q150 181 177 147.5Q204 114 255 114Q283 114 305.5 128Q328 142 339 162ZM258 493Q228 493 202.5 501.5Q177 510 158 529Q139 548 127 577.5Q115 607 114 648H205Q206 613 219 598Q232 583 258 583Q284 583 297 598Q310 613 311 648H402Q400 607 388.5 577.5Q377 548 357.5 529Q338 510 312.5 501.5Q287 493 258 493Z" glyph-name="gbreve" horiz-adv-x="516" unicode="&#287;" /><glyph d="M405 503H311L258 572L205 503H111L203 650H313ZM339 57Q324 39 295 24.5Q266 10 229 10Q181 10 143 28Q105 46 79 77Q53 108 39.5 148.5Q26 189 26 234Q26 279 39.5 319Q53 359 79 390Q105 421 143 439Q181 457 229 457Q266 457 295 442.5Q324 428 339 410V447H462V29Q462 -23 445.5 -62Q429 -101 399.5 -127.5Q370 -154 330 -167Q290 -180 242 -180Q151 -180 97 -142Q43 -104 32 -38L148 -18Q153 -50 177 -65.5Q201 -81 242 -81Q287 -81 313 -55.5Q339 -30 339 14ZM339 305Q328 325 305.5 339Q283 353 255 353Q204 353 177 319.5Q150 286 150 234Q150 181 177 147.5Q204 114 255 114Q283 114 305.5 128Q328 142 339 162Z" glyph-name="gcircumflex" horiz-adv-x="516" unicode="&#285;" /><glyph d="M339 57Q324 39 295 24.5Q266 10 229 10Q181 10 143 28Q105 46 79 77Q53 108 39.5 148.5Q26 189 26 234Q26 279 39.5 319Q53 359 79 390Q105 421 143 439Q181 457 229 457Q266 457 295 442.5Q324 428 339 410V447H462V29Q462 -23 445.5 -62Q429 -101 399.5 -127.5Q370 -154 330 -167Q290 -180 242 -180Q151 -180 97 -142Q43 -104 32 -38L148 -18Q153 -50 177 -65.5Q201 -81 242 -81Q287 -81 313 -55.5Q339 -30 339 14ZM339 305Q328 325 305.5 339Q283 353 255 353Q204 353 177 319.5Q150 286 150 234Q150 181 177 147.5Q204 114 255 114Q283 114 305.5 128Q328 142 339 162ZM306 633Q287 629 273 621Q259 613 251 599H259Q283 598 298 583Q313 568 313 544Q313 520 296.5 504.5Q280 489 257 489Q224 489 207 509Q190 529 190 564Q190 606 217.5 636.5Q245 667 296 676Z" glyph-name="gcommaaccent" horiz-adv-x="516" unicode="&#291;" /><glyph d="M191 576Q191 605 210 623.5Q229 642 258 642Q287 642 305.5 623.5Q324 605 324 576Q324 547 305.5 528.5Q287 510 258 510Q229 510 210 528.5Q191 547 191 576ZM339 57Q324 39 295 24.5Q266 10 229 10Q181 10 143 28Q105 46 79 77Q53 108 39.5 148.5Q26 189 26 234Q26 279 39.5 319Q53 359 79 390Q105 421 143 439Q181 457 229 457Q266 457 295 442.5Q324 428 339 410V447H462V29Q462 -23 445.5 -62Q429 -101 399.5 -127.5Q370 -154 330 -167Q290 -180 242 -180Q151 -180 97 -142Q43 -104 32 -38L148 -18Q153 -50 177 -65.5Q201 -81 242 -81Q287 -81 313 -55.5Q339 -30 339 14ZM339 305Q328 325 305.5 339Q283 353 255 353Q204 353 177 319.5Q150 286 150 234Q150 181 177 147.5Q204 114 255 114Q283 114 305.5 128Q328 142 339 162Z" glyph-name="gdotaccent" horiz-adv-x="516" unicode="&#289;" /><glyph d="M389 361Q437 344 470 298.5Q503 253 503 187Q503 141 488.5 104.5Q474 68 448 43Q422 18 386 4.5Q350 -9 308 -9Q278 -9 253 -3.5Q228 2 213 11L231 109Q239 105 254.5 101.5Q270 98 289 98Q335 98 360 124.5Q385 151 385 199Q385 247 353.5 274Q322 301 265 301H230V402H261Q299 402 320 421.5Q341 441 341 479Q341 512 320 533Q299 554 262 554Q217 554 196.5 525Q176 496 176 453V0H54V448Q54 496 68.5 535Q83 574 110 601.5Q137 629 175.5 644Q214 659 261 659Q309 659 346 646Q383 633 408 610.5Q433 588 445.5 557Q458 526 458 490Q458 441 438 408Q418 375 389 361Z" glyph-name="germandbls" horiz-adv-x="528" unicode="&#223;" /><glyph d="M205 503 116 650H239L318 503Z" glyph-name="grave" horiz-adv-x="500" unicode="`" /><glyph d="M235 669 143 791H277L356 669Z" glyph-name="grave.cap" horiz-adv-x="500" unicode="&#58401;" /><glyph d="M386 236 57 83V191L297 297L57 403V511L386 359Z" glyph-name="greater" horiz-adv-x="441" unicode="&gt;" /><glyph d="M424 236 95 83V191L335 297L95 403V511L424 359Z" glyph-name="greater.lt" horiz-adv-x="520" /><glyph d="M389 303 60 180V282L293 362L60 442V544L389 420ZM389 60H60V153H389Z" glyph-name="greaterequal" horiz-adv-x="448" unicode="&#8805;" /><glyph d="M424 303 95 180V282L329 362L95 442V544L424 420ZM424 60H95V153H424Z" glyph-name="greaterequal.lt" horiz-adv-x="520" /><glyph d="M117 61 25 222 117 383H223L131 222L223 61ZM289 61 197 222 289 383H395L303 222L395 61Z" glyph-name="guillemotleft" horiz-adv-x="420" unicode="&#171;" /><glyph d="M117 141 25 302 117 463H223L131 302L223 141ZM289 141 197 302 289 463H395L303 302L395 141Z" glyph-name="guillemotleft.cap" horiz-adv-x="420" unicode="&#58451;" /><glyph d="M197 61 289 222 197 383H303L395 222L303 61ZM25 61 117 222 25 383H131L223 222L131 61Z" glyph-name="guillemotright" horiz-adv-x="420" unicode="&#187;" /><glyph d="M197 141 289 302 197 463H303L395 302L303 141ZM25 141 117 302 25 463H131L223 302L131 141Z" glyph-name="guillemotright.cap" horiz-adv-x="420" unicode="&#58452;" /><glyph d="M117 61 25 222 117 383H229L137 222L229 61Z" glyph-name="guilsinglleft" horiz-adv-x="254" unicode="&#8249;" /><glyph d="M117 141 25 302 117 463H229L137 302L229 141Z" glyph-name="guilsinglleft.cap" horiz-adv-x="254" unicode="&#58449;" /><glyph d="M25 61 117 222 25 383H137L229 222L137 61Z" glyph-name="guilsinglright" horiz-adv-x="254" unicode="&#8250;" /><glyph d="M25 141 117 302 25 463H137L229 302L137 141Z" glyph-name="guilsinglright.cap" horiz-adv-x="254" unicode="&#58450;" /><glyph d="M54 650H178V408Q196 429 227.5 443Q259 457 298 457Q373 457 414.5 411.5Q456 366 456 292V0H332V266Q332 301 314.5 323Q297 345 259 345Q230 345 207.5 330Q185 315 178 286V0H54Z" glyph-name="h" horiz-adv-x="505" unicode="h" /><glyph d="M-1 581H54V650H178V581H271V497H178V408Q196 429 227.5 443Q259 457 298 457Q373 457 414.5 411.5Q456 366 456 292V0H332V266Q332 301 314.5 323Q297 345 259 345Q230 345 207.5 330Q185 315 178 286V0H54V497H-1Z" glyph-name="hbar" horiz-adv-x="505" unicode="&#295;" /><glyph d="M54 650H178V408Q196 429 227.5 443Q259 457 298 457Q373 457 414.5 411.5Q456 366 456 292V0H332V266Q332 301 314.5 323Q297 345 259 345Q230 345 207.5 330Q185 315 178 286V0H54ZM405 686H300L253 740L206 686H101L201 814H305Z" glyph-name="hcircumflex" horiz-adv-x="505" unicode="&#293;" /><glyph d="M115 503 187 650H301L219 503ZM257 503 329 650H443L361 503Z" glyph-name="hungarumlaut" horiz-adv-x="500" unicode="&#733;" /><glyph d="M91 669 158 791H262L193 669ZM238 669 305 791H409L341 669Z" glyph-name="hungarumlaut.cap" horiz-adv-x="500" unicode="&#58411;" /><glyph d="M38 316H279V208H38Z" glyph-name="hyphen" horiz-adv-x="317" unicode="-" /><glyph d="M38 354H279V246H38Z" glyph-name="hyphen.cap" horiz-adv-x="317" unicode="&#58498;" /><glyph d="M178 0H54V447H178ZM185 576Q185 544 166 525.5Q147 507 116 507Q85 507 65.5 525.5Q46 544 46 576Q46 607 65.5 626Q85 645 116 645Q147 645 166 626Q185 607 185 576Z" glyph-name="i" horiz-adv-x="231" unicode="i" /><glyph d="M62 503 141 650H263L174 503ZM178 0H54V447H178Z" glyph-name="iacute" horiz-adv-x="231" unicode="&#237;" /><glyph d="M115 492Q63 492 30 528Q-3 564 -3 633H80Q80 607 88 591.5Q96 576 116 576Q136 576 144 591.5Q152 607 152 633H234Q234 564 201.5 528Q169 492 115 492ZM178 0H54V447H178Z" glyph-name="ibreve" horiz-adv-x="231" unicode="&#301;" /><glyph d="M245 503H150L116 572L81 503H-13L64 647H168ZM178 0H54V447H178Z" glyph-name="icircumflex" horiz-adv-x="231" unicode="&#238;" /><glyph d="M178 0H54V447H178ZM-33 576Q-33 605 -14.5 623.5Q4 642 33 642Q63 642 81.5 623.5Q100 605 100 576Q100 547 81.5 528.5Q63 510 33 510Q4 510 -14.5 528.5Q-33 547 -33 576ZM132 576Q132 605 151 623.5Q170 642 199 642Q228 642 246.5 623.5Q265 605 265 576Q265 547 246.5 528.5Q228 510 199 510Q170 510 151 528.5Q132 547 132 576Z" glyph-name="idieresis" horiz-adv-x="231" unicode="&#239;" /><glyph d="M178 0H54V447H178ZM49 576Q49 605 67.5 623.5Q86 642 116 642Q145 642 163.5 623.5Q182 605 182 576Q182 547 163.5 528.5Q145 510 116 510Q86 510 67.5 528.5Q49 547 49 576Z" glyph-name="idotaccent" horiz-adv-x="231" unicode="&#59269;" /><glyph d="M178 0H54V447H178ZM31 503 -58 650H65L144 503Z" glyph-name="igrave" horiz-adv-x="231" unicode="&#236;" /><glyph d="M185 576Q185 544 166 525.5Q147 507 116 507Q85 507 65.5 525.5Q46 544 46 576Q46 607 65.5 626Q85 645 116 645Q147 645 166 626Q185 607 185 576ZM178 0H54V447H178ZM349 -21Q349 -95 310.5 -137.5Q272 -180 197 -180Q183 -180 167 -178Q151 -176 140 -170L158 -71Q162 -73 167 -74Q172 -75 177 -75Q201 -75 213 -62Q225 -49 225 -19V447H349ZM357 576Q357 544 337.5 525.5Q318 507 287 507Q256 507 237 525.5Q218 544 218 576Q218 607 237 626Q256 645 287 645Q318 645 337.5 626Q357 607 357 576Z" glyph-name="ij" horiz-adv-x="403" unicode="&#307;" /><glyph d="M178 0H54V447H178ZM12 615H220V521H12Z" glyph-name="imacron" horiz-adv-x="231" unicode="&#299;" /><glyph d="M185 576Q185 544 166 525.5Q147 507 116 507Q85 507 65.5 525.5Q46 544 46 576Q46 607 65.5 626Q85 645 116 645Q147 645 166 626Q185 607 185 576ZM178 0Q121 -36 121 -71Q121 -101 157 -101Q171 -101 181.5 -97.5Q192 -94 197 -91L211 -157Q203 -165 184 -172.5Q165 -180 134 -180Q86 -180 60.5 -157.5Q35 -135 35 -100Q35 -71 50 -45Q65 -19 91 0H54V447H178Z" glyph-name="iogonek" horiz-adv-x="231" unicode="&#303;" /><glyph d="M239 643Q239 613 234.5 588Q230 563 221 544Q212 525 198 514.5Q184 504 165 504Q150 504 139 511Q128 518 118.5 526Q109 534 100.5 541Q92 548 83 548Q60 548 58 508H-9Q-9 538 -4.5 563Q0 588 9 607Q18 626 32 636.5Q46 647 65 647Q80 647 91 640.5Q102 634 111.5 625.5Q121 617 129.5 610.5Q138 604 147 604Q170 604 172 643ZM178 0H54V447H178Z" glyph-name="itilde" horiz-adv-x="231" unicode="&#297;" /><glyph d="M178 -21Q178 -95 139 -137.5Q100 -180 25 -180Q11 -180 -5 -178Q-21 -176 -32 -170L-14 -71Q-7 -75 6 -75Q30 -75 42 -62Q54 -49 54 -19V447H178ZM185 576Q185 544 166 525.5Q147 507 116 507Q85 507 65.5 525.5Q46 544 46 576Q46 607 65.5 626Q85 645 116 645Q147 645 166 626Q185 607 185 576Z" glyph-name="j" horiz-adv-x="231" unicode="j" /><glyph d="M245 503H150L116 572L81 503H-13L64 647H168ZM178 -19Q178 -93 139 -134Q100 -175 25 -175Q11 -175 -4 -173.5Q-19 -172 -29 -167L-18 -70Q-9 -74 6 -74Q30 -74 42 -61.5Q54 -49 54 -19V447H178Z" glyph-name="jcircumflex" horiz-adv-x="231" unicode="&#309;" /><glyph d="M214 180 178 141V0H54V650H178V280L331 447H485L304 257L491 0H345Z" glyph-name="k" horiz-adv-x="499" unicode="k" /><glyph d="M214 180 178 141V0H54V650H178V280L331 447H485L304 257L491 0H345ZM202 -153Q219 -150 232 -144Q245 -138 253 -127H245Q222 -127 207 -113.5Q192 -100 192 -76Q192 -53 208.5 -39.5Q225 -26 248 -26Q280 -26 295.5 -45Q311 -64 311 -95Q311 -133 285 -158.5Q259 -184 210 -193Z" glyph-name="kcommaaccent" horiz-adv-x="499" unicode="&#311;" /><glyph d="M214 180 178 141V0H54V447H178V280L331 447H485L304 257L491 0H345Z" glyph-name="kgreenlandic" horiz-adv-x="499" unicode="&#312;" /><glyph d="M178 0H54V650H178Z" glyph-name="l" horiz-adv-x="231" unicode="l" /><glyph d="M54 694 133 816H268L175 694ZM178 0H54V650H178Z" glyph-name="lacute" horiz-adv-x="231" unicode="&#314;" /><glyph d="M219 483 247 650H333L305 483ZM178 0H54V650H178Z" glyph-name="lcaron" horiz-adv-x="231" unicode="&#318;" /><glyph d="M178 0H54V650H178ZM69 -153Q87 -150 100 -144Q113 -138 120 -127H112Q89 -127 74 -113.5Q59 -100 59 -76Q59 -53 75.5 -39.5Q92 -26 115 -26Q147 -26 162.5 -45Q178 -64 178 -95Q178 -133 152 -158.5Q126 -184 78 -193Z" glyph-name="lcommaaccent" horiz-adv-x="231" unicode="&#316;" /><glyph d="M178 0H54V650H178ZM243 325Q243 354 261.5 372.5Q280 391 309 391Q339 391 357.5 372.5Q376 354 376 325Q376 296 357.5 277.5Q339 259 309 259Q280 259 261.5 277.5Q243 296 243 325Z" glyph-name="ldot" horiz-adv-x="231" unicode="&#320;" /><glyph d="M55 359 383 511V403L143 297L383 191V83L55 236Z" glyph-name="less" horiz-adv-x="441" unicode="&lt;" /><glyph d="M96 359 424 511V403L184 297L424 191V83L96 236Z" glyph-name="less.lt" horiz-adv-x="520" /><glyph d="M60 420 389 544V442L155 362L389 282V180L60 303ZM60 153H389V60H60Z" glyph-name="lessequal" horiz-adv-x="448" unicode="&#8804;" /><glyph d="M95 420 424 544V442L190 362L424 282V180L95 303ZM95 153H424V60H95Z" glyph-name="lessequal.lt" horiz-adv-x="520" /><glyph d="M199 425 252 456V358L199 326V0H75V267L25 238V336L75 365V650H199Z" glyph-name="lslash" horiz-adv-x="273" unicode="&#322;" /><glyph d="M411 398Q433 423 465.5 440Q498 457 545 457Q615 457 654 412.5Q693 368 693 292V0H569V266Q569 302 553 324Q537 346 505 346Q481 346 461.5 330.5Q442 315 435 286V0H311V266Q311 302 295.5 324Q280 346 248 346Q224 346 204 330.5Q184 315 178 286V0H54V447H178V408Q195 429 224 443Q253 457 291 457Q332 457 362.5 440Q393 423 411 398Z" glyph-name="m" horiz-adv-x="742" unicode="m" /><glyph d="M131 615H368V521H131Z" glyph-name="macron" horiz-adv-x="500" unicode="&#175;" /><glyph d="M128 760H371V669H128Z" glyph-name="macron.cap" horiz-adv-x="500" unicode="&#58405;" /><glyph d="M411 398Q433 423 465.5 440Q498 457 545 457Q615 457 654 412.5Q693 368 693 292V0H569V266Q569 302 553 324Q537 346 505 346Q481 346 461.5 330.5Q442 315 435 286V0H311V266Q311 302 295.5 324Q280 346 248 346Q224 346 204 330.5Q184 315 178 286V0H54V447H178V408Q195 429 224 443Q253 457 291 457Q332 457 362.5 440Q393 423 411 398ZM307 576Q307 605 325.5 623.5Q344 642 373 642Q402 642 421 623.5Q440 605 440 576Q440 547 421 528.5Q402 510 373 510Q344 510 325.5 528.5Q307 547 307 576Z" glyph-name="mdotaccent" horiz-adv-x="742" unicode="&#7745;" /><glyph d="M64 347H496V252H64Z" glyph-name="minus" horiz-adv-x="561" unicode="&#8722;" /><glyph d="M37 29H287V-41H37Z" glyph-name="minus.inf" horiz-adv-x="324" unicode="&#58748;" /><glyph d="M44 347H476V252H44Z" glyph-name="minus.lt" horiz-adv-x="520" /><glyph d="M60 418 126 484 247 363 368 484 434 418 313 298 434 177 368 110 247 231 126 110 60 177 182 298Z" glyph-name="multiply" horiz-adv-x="495" unicode="&#215;" /><glyph d="M72 418 139 484 259 363 380 484 447 418 325 298 447 177 380 110 259 231 139 110 72 177 195 298Z" glyph-name="multiply.lt" horiz-adv-x="520" /><glyph d="M54 447H178V408Q196 429 227.5 443Q259 457 298 457Q373 457 414.5 411.5Q456 366 456 292V0H332V266Q332 301 314.5 323Q297 345 259 345Q230 345 207.5 330Q185 315 178 286V0H54Z" glyph-name="n" horiz-adv-x="505" unicode="n" /><glyph d="M226 503 305 650H427L338 503ZM54 447H178V408Q196 429 227.5 443Q259 457 298 457Q373 457 414.5 411.5Q456 366 456 292V0H332V266Q332 301 314.5 323Q297 345 259 345Q230 345 207.5 330Q185 315 178 286V0H54Z" glyph-name="nacute" horiz-adv-x="505" unicode="&#324;" /><glyph d="M316 503H206L114 650H208L261 580L314 650H408ZM54 447H178V408Q196 429 227.5 443Q259 457 298 457Q373 457 414.5 411.5Q456 366 456 292V0H332V266Q332 301 314.5 323Q297 345 259 345Q230 345 207.5 330Q185 315 178 286V0H54Z" glyph-name="ncaron" horiz-adv-x="505" unicode="&#328;" /><glyph d="M54 447H178V408Q196 429 227.5 443Q259 457 298 457Q373 457 414.5 411.5Q456 366 456 292V0H332V266Q332 301 314.5 323Q297 345 259 345Q230 345 207.5 330Q185 315 178 286V0H54ZM210 -153Q227 -150 240 -144Q253 -138 261 -127H253Q230 -127 215 -113.5Q200 -100 200 -76Q200 -53 216.5 -39.5Q233 -26 256 -26Q288 -26 303.5 -45Q319 -64 319 -95Q319 -133 293 -158.5Q267 -184 218 -193Z" glyph-name="ncommaaccent" horiz-adv-x="505" unicode="&#326;" /><glyph d="M236 -10Q155 -10 105.5 28Q56 66 42 135L159 156Q167 127 185.5 110.5Q204 94 239 94Q269 94 291.5 108.5Q314 123 329.5 147Q345 171 353 202Q361 233 361 267V276Q345 247 311 229Q277 211 232 211Q185 211 148 227Q111 243 85 270.5Q59 298 45 335Q31 372 31 413Q31 456 46 494.5Q61 533 88.5 562Q116 591 156.5 607.5Q197 624 248 624Q306 624 355 597Q404 570 435 513Q458 472 468 426Q478 380 478 320Q478 245 462 184.5Q446 124 415.5 80.5Q385 37 339.5 13.5Q294 -10 236 -10ZM350 416Q350 462 322 490.5Q294 519 247 519Q202 519 174.5 490.5Q147 462 147 416Q147 368 174.5 338.5Q202 309 247 309Q294 309 322 338Q350 367 350 416Z" glyph-name="nine" horiz-adv-x="510" unicode="9" /><glyph d="M143 -175Q93 -175 64 -152.5Q35 -130 28 -89L109 -76Q116 -101 144 -101Q170 -101 183 -81.5Q196 -62 196 -35V-32Q188 -42 172.5 -49Q157 -56 135 -56Q84 -56 54 -24Q24 8 24 53Q24 104 57.5 138Q91 172 149 172Q182 172 208.5 157.5Q235 143 252 117Q268 94 274.5 66.5Q281 39 281 6Q281 -75 246 -125Q211 -175 143 -175ZM193 56Q193 76 180.5 87.5Q168 99 148 99Q130 99 117 87.5Q104 76 104 56Q104 36 117 23.5Q130 11 148 11Q168 11 180.5 23.5Q193 36 193 56Z" glyph-name="nine.inf" horiz-adv-x="304" unicode="&#58746;" /><glyph d="M238 -10Q157 -10 107.5 28Q58 66 44 135L161 156Q169 127 187.5 110.5Q206 94 241 94Q270 94 293 108.5Q316 123 331.5 147Q347 171 355 202Q363 233 363 267V276Q347 247 313 229Q279 211 233 211Q186 211 149 227Q112 243 86.5 270.5Q61 298 47 335Q33 372 33 413Q33 456 48 494.5Q63 533 90.5 562Q118 591 158.5 607.5Q199 624 250 624Q308 624 357 597Q406 570 437 513Q460 472 470 426Q480 380 480 320Q480 245 464 184.5Q448 124 417.5 80.5Q387 37 341.5 13.5Q296 -10 238 -10ZM352 416Q352 462 324 490.5Q296 519 249 519Q204 519 176 490.5Q148 462 148 416Q148 368 176 338.5Q204 309 249 309Q296 309 324 338Q352 367 352 416Z" glyph-name="nine.lt" horiz-adv-x="520" /><glyph d="M143 272Q93 272 64 294.5Q35 317 28 358L109 372Q115 347 144 347Q170 347 183 366.5Q196 386 196 413V416Q188 406 172.5 399Q157 392 135 392Q84 392 54 423.5Q24 455 24 501Q24 552 57.5 586Q91 620 149 620Q182 620 208.5 605.5Q235 591 252 565Q268 542 274.5 514.5Q281 487 281 454Q281 373 246 322.5Q211 272 143 272ZM193 504Q193 523 180.5 535Q168 547 148 547Q130 547 117 535Q104 523 104 504Q104 484 117 471.5Q130 459 148 459Q168 459 180.5 471.5Q193 484 193 504ZM271 0H184L553 614H640ZM704 0H615V236L536 198V287L641 336H704ZM905 342Q955 342 984 319.5Q1013 297 1020 256L938 242Q932 267 904 267Q878 267 864.5 247.5Q851 228 851 202V198Q859 209 875 216Q891 223 912 223Q964 223 994 191Q1024 159 1024 113Q1024 62 990.5 28.5Q957 -5 899 -5Q866 -5 839.5 9Q813 23 796 49Q766 92 766 161Q766 201 775 234.5Q784 268 801.5 292Q819 316 845 329Q871 342 905 342ZM855 110Q855 91 867.5 79.5Q880 68 900 68Q918 68 930.5 79.5Q943 91 943 110Q943 130 930.5 142.5Q918 155 900 155Q880 155 867.5 142.5Q855 130 855 110Z" glyph-name="ninesixteenths" horiz-adv-x="1048" unicode="&#61977;" /><glyph d="M184 278H95V514L15 475V565L121 614H184ZM366 272Q316 272 287 294.5Q258 317 251 358L332 372Q338 347 367 347Q393 347 406 366.5Q419 386 419 413V416Q411 406 395.5 399Q380 392 358 392Q307 392 277 423.5Q247 455 247 501Q247 552 280.5 586Q314 620 372 620Q405 620 431.5 605.5Q458 591 475 565Q491 542 497.5 514.5Q504 487 504 454Q504 373 469 322.5Q434 272 366 272ZM416 504Q416 523 403.5 535Q391 547 371 547Q353 547 340.5 535Q328 523 328 504Q328 484 340.5 471.5Q353 459 371 459Q391 459 403.5 471.5Q416 484 416 504ZM494 0H407L776 614H863ZM858 202H878Q895 202 907 210Q919 218 919 235Q919 248 910.5 257Q902 266 886 266Q868 266 858.5 255.5Q849 245 848 230L763 245Q771 287 801 314.5Q831 342 886 342Q941 342 973 313Q1005 284 1005 238Q1005 216 994.5 197Q984 178 970 169Q989 160 999 141.5Q1009 123 1009 100Q1009 55 975.5 25Q942 -5 885 -5Q831 -5 797.5 21Q764 47 758 94L848 109Q849 92 858.5 81.5Q868 71 887 71Q902 71 912 80.5Q922 90 922 105Q922 122 910.5 129.5Q899 137 881 137H858ZM1205 231Q1205 244 1196.5 252.5Q1188 261 1173 261Q1157 261 1149.5 251.5Q1142 242 1140 229L1050 245Q1058 290 1088.5 316Q1119 342 1173 342Q1233 342 1264.5 313Q1296 284 1296 237Q1296 203 1277 179Q1258 155 1233 130L1179 78H1297V0H1050V58L1168 173Q1184 190 1194.5 203Q1205 216 1205 231Z" glyph-name="nineteenthirtyseconds" horiz-adv-x="1321" /><glyph d="M143 272Q93 272 64 294.5Q35 317 28 358L109 372Q115 347 144 347Q170 347 183 366.5Q196 386 196 413V416Q188 406 172.5 399Q157 392 135 392Q84 392 54 423.5Q24 455 24 501Q24 552 57.5 586Q91 620 149 620Q182 620 208.5 605.5Q235 591 252 565Q268 542 274.5 514.5Q281 487 281 454Q281 373 246 322.5Q211 272 143 272ZM193 504Q193 523 180.5 535Q168 547 148 547Q130 547 117 535Q104 523 104 504Q104 484 117 471.5Q130 459 148 459Q168 459 180.5 471.5Q193 484 193 504ZM271 0H184L553 614H640ZM635 202H655Q672 202 684 210Q696 218 696 235Q696 248 687.5 257Q679 266 663 266Q645 266 635.5 255.5Q626 245 625 230L540 245Q548 287 578 314.5Q608 342 663 342Q718 342 750 313Q782 284 782 238Q782 216 771.5 197Q761 178 746 169Q766 160 776 141.5Q786 123 786 100Q786 55 752.5 25Q719 -5 662 -5Q608 -5 574.5 21Q541 47 535 94L625 109Q626 92 635.5 81.5Q645 71 664 71Q679 71 689 80.5Q699 90 699 105Q699 122 687.5 129.5Q676 137 658 137H635ZM982 231Q982 244 973.5 252.5Q965 261 950 261Q934 261 926.5 251.5Q919 242 917 229L827 245Q835 290 865.5 316Q896 342 950 342Q1010 342 1041.5 313Q1073 284 1073 237Q1073 203 1054 179Q1035 155 1010 130L956 78H1074V0H827V58L945 173Q961 190 971.5 203Q982 216 982 231Z" glyph-name="ninethirtyseconds" horiz-adv-x="1098" /><glyph d="M73 424H329L393 519H475L411 424H504V338H355L303 261H504V175H246L183 81H101L164 175H73V261H220L273 338H73Z" glyph-name="notequal" horiz-adv-x="576" unicode="&#8800;" /><glyph d="M44 424H300L364 519H447L382 424H475V338H326L274 261H475V175H217L154 81H72L135 175H44V261H191L244 338H44Z" glyph-name="notequal.lt" horiz-adv-x="520" /><glyph d="M54 447H178V408Q196 429 227.5 443Q259 457 298 457Q373 457 414.5 411.5Q456 366 456 292V0H332V266Q332 301 314.5 323Q297 345 259 345Q230 345 207.5 330Q185 315 178 286V0H54ZM418 639Q418 575 391 539.5Q364 504 324 504Q304 504 289 510.5Q274 517 261 524.5Q248 532 236.5 538.5Q225 545 213 545Q201 545 193.5 537.5Q186 530 186 514H105Q105 577 132.5 612.5Q160 648 199 648Q219 648 234.5 641.5Q250 635 262.5 627.5Q275 620 286.5 614Q298 608 311 608Q322 608 329.5 615Q337 622 338 639Z" glyph-name="ntilde" horiz-adv-x="505" unicode="&#241;" /><glyph d="M534 159H430L392 0H293L331 159H213L175 0H78L116 159H20L39 245H136L166 369H64L82 455H186L224 614H322L283 455H401L440 614H538L500 455H595L576 369H480L450 245H552ZM233 245H351L381 369H263Z" glyph-name="numbersign" horiz-adv-x="615" unicode="#" /><glyph d="M464 223Q464 172 448 129Q432 86 403 55Q374 24 334 7Q294 -10 245 -10Q196 -10 156 7Q116 24 87 55Q58 86 42 129Q26 172 26 223Q26 275 42 318Q58 361 87 392Q116 423 156 440Q196 457 245 457Q294 457 334 440Q374 423 403 392Q432 361 448 318Q464 275 464 223ZM341 223Q341 280 316.5 316Q292 352 245 352Q198 352 173.5 316Q149 280 149 223Q149 167 173.5 130.5Q198 94 245 94Q292 94 316.5 130.5Q341 167 341 223Z" glyph-name="o" horiz-adv-x="489" unicode="o" /><glyph d="M245 94Q292 94 316.5 130.5Q341 167 341 223Q341 280 316.5 316Q292 352 245 352Q198 352 173.5 316Q149 280 149 223Q149 167 173.5 130.5Q198 94 245 94ZM301 503H189L268 650H390ZM464 223Q464 172 448 129Q432 86 403 55Q374 24 334 7Q294 -10 245 -10Q196 -10 156 7Q116 24 87 55Q58 86 42 129Q26 172 26 223Q26 275 42 318Q58 361 87 392Q116 423 156 440Q196 457 245 457Q294 457 334 440Q374 423 403 392Q432 361 448 318Q464 275 464 223Z" glyph-name="oacute" horiz-adv-x="489" unicode="&#243;" /><glyph d="M464 223Q464 172 448 129Q432 86 403 55Q374 24 334 7Q294 -10 245 -10Q196 -10 156 7Q116 24 87 55Q58 86 42 129Q26 172 26 223Q26 275 42 318Q58 361 87 392Q116 423 156 440Q196 457 245 457Q294 457 334 440Q374 423 403 392Q432 361 448 318Q464 275 464 223ZM341 223Q341 280 316.5 316Q292 352 245 352Q198 352 173.5 316Q149 280 149 223Q149 167 173.5 130.5Q198 94 245 94Q292 94 316.5 130.5Q341 167 341 223ZM245 493Q215 493 189.5 501.5Q164 510 145 529Q126 548 114 577.5Q102 607 101 648H192Q193 613 206 598Q219 583 245 583Q271 583 283.5 598Q296 613 298 648H388Q387 607 375.5 577.5Q364 548 344.5 529Q325 510 299.5 501.5Q274 493 245 493Z" glyph-name="obreve" horiz-adv-x="489" unicode="&#335;" /><glyph d="M391 503H297L245 572L192 503H98L190 650H299ZM464 223Q464 172 448 129Q432 86 403 55Q374 24 334 7Q294 -10 245 -10Q196 -10 156 7Q116 24 87 55Q58 86 42 129Q26 172 26 223Q26 275 42 318Q58 361 87 392Q116 423 156 440Q196 457 245 457Q294 457 334 440Q374 423 403 392Q432 361 448 318Q464 275 464 223ZM341 223Q341 280 316.5 316Q292 352 245 352Q198 352 173.5 316Q149 280 149 223Q149 167 173.5 130.5Q198 94 245 94Q292 94 316.5 130.5Q341 167 341 223Z" glyph-name="ocircumflex" horiz-adv-x="489" unicode="&#244;" /><glyph d="M96 576Q96 605 114.5 623.5Q133 642 163 642Q192 642 210.5 623.5Q229 605 229 576Q229 547 210.5 528.5Q192 510 163 510Q133 510 114.5 528.5Q96 547 96 576ZM262 576Q262 605 280.5 623.5Q299 642 328 642Q357 642 376 623.5Q395 605 395 576Q395 547 376 528.5Q357 510 328 510Q299 510 280.5 528.5Q262 547 262 576ZM464 223Q464 172 448 129Q432 86 403 55Q374 24 334 7Q294 -10 245 -10Q196 -10 156 7Q116 24 87 55Q58 86 42 129Q26 172 26 223Q26 275 42 318Q58 361 87 392Q116 423 156 440Q196 457 245 457Q294 457 334 440Q374 423 403 392Q432 361 448 318Q464 275 464 223ZM341 223Q341 280 316.5 316Q292 352 245 352Q198 352 173.5 316Q149 280 149 223Q149 167 173.5 130.5Q198 94 245 94Q292 94 316.5 130.5Q341 167 341 223Z" glyph-name="odieresis" horiz-adv-x="489" unicode="&#246;" /><glyph d="M341 223Q341 280 316.5 316Q292 352 245 352Q198 352 173.5 316Q149 280 149 223Q149 167 173.5 130.5Q198 94 245 94Q292 94 316.5 130.5Q341 167 341 223ZM552 357Q516 357 491.5 335.5Q467 314 459 272H632Q631 307 610.5 332Q590 357 552 357ZM554 -10Q505 -10 466 7Q427 24 398 54Q370 24 331.5 7Q293 -10 245 -10Q196 -10 156 7Q116 24 87 55Q58 86 42 129Q26 172 26 223Q26 275 42 318Q58 361 87 392Q116 423 156 440Q196 457 245 457Q293 457 331.5 439.5Q370 422 398 392Q427 422 465 439.5Q503 457 551 457Q600 457 638 440.5Q676 424 701.5 395Q727 366 740.5 325Q754 284 754 235V197H456Q458 146 484.5 118Q511 90 554 90Q585 90 609.5 103.5Q634 117 641 146L752 126Q736 63 684 26.5Q632 -10 554 -10Z" glyph-name="oe" horiz-adv-x="779" unicode="&#339;" /><glyph d="M312 0Q255 -36 255 -71Q255 -86 264.5 -93.5Q274 -101 291 -101Q305 -101 315.5 -97.5Q326 -94 331 -91L345 -157Q338 -165 318.5 -172.5Q299 -180 268 -180Q220 -180 195 -157.5Q170 -135 170 -100Q170 -65 192 -34Q214 -3 251 16Z" glyph-name="ogonek" horiz-adv-x="500" unicode="&#731;" /><glyph d="M464 223Q464 172 448 129Q432 86 403 55Q374 24 334 7Q294 -10 245 -10Q196 -10 156 7Q116 24 87 55Q58 86 42 129Q26 172 26 223Q26 275 42 318Q58 361 87 392Q116 423 156 440Q196 457 245 457Q294 457 334 440Q374 423 403 392Q432 361 448 318Q464 275 464 223ZM341 223Q341 280 316.5 316Q292 352 245 352Q198 352 173.5 316Q149 280 149 223Q149 167 173.5 130.5Q198 94 245 94Q292 94 316.5 130.5Q341 167 341 223ZM192 503 103 650H225L304 503Z" glyph-name="ograve" horiz-adv-x="489" unicode="&#242;" /><glyph d="M245 94Q292 94 316.5 130.5Q341 167 341 223Q341 280 316.5 316Q292 352 245 352Q198 352 173.5 316Q149 280 149 223Q149 167 173.5 130.5Q198 94 245 94ZM268 503 340 650H454L372 503ZM464 223Q464 172 448 129Q432 86 403 55Q374 24 334 7Q294 -10 245 -10Q196 -10 156 7Q116 24 87 55Q58 86 42 129Q26 172 26 223Q26 275 42 318Q58 361 87 392Q116 423 156 440Q196 457 245 457Q294 457 334 440Q374 423 403 392Q432 361 448 318Q464 275 464 223ZM230 503H126L197 650H312Z" glyph-name="ohungarumlaut" horiz-adv-x="489" unicode="&#337;" /><glyph d="M245 94Q292 94 316.5 130.5Q341 167 341 223Q341 280 316.5 316Q292 352 245 352Q198 352 173.5 316Q149 280 149 223Q149 167 173.5 130.5Q198 94 245 94ZM464 223Q464 172 448 129Q432 86 403 55Q374 24 334 7Q294 -10 245 -10Q196 -10 156 7Q116 24 87 55Q58 86 42 129Q26 172 26 223Q26 275 42 318Q58 361 87 392Q116 423 156 440Q196 457 245 457Q294 457 334 440Q374 423 403 392Q432 361 448 318Q464 275 464 223ZM364 521H127V615H364Z" glyph-name="omacron" horiz-adv-x="489" unicode="&#333;" /><glyph d="M284 0H160V468L17 397V522L204 614H284Z" glyph-name="one" horiz-adv-x="345" unicode="1" /><glyph d="M184 -170H95V66L15 28V117L121 166H184Z" glyph-name="one.inf" horiz-adv-x="223" unicode="&#58738;" /><glyph d="M72 111H229V468L74 391V516L273 614H353V111H491V0H72Z" glyph-name="one.lt" horiz-adv-x="520" /><glyph d="M184 278H95V514L15 475V565L121 614H184ZM190 0H103L472 614H559ZM613 231Q613 244 604.5 252.5Q596 261 581 261Q565 261 557.5 251.5Q550 242 548 229L458 245Q466 290 496.5 316Q527 342 581 342Q641 342 672.5 313Q704 284 704 237Q704 203 685 179Q666 155 641 130L587 78H705V0H458V58L576 173Q592 190 602.5 203Q613 216 613 231Z" glyph-name="onehalf" horiz-adv-x="729" unicode="&#189;" /><glyph d="M184 278H95V514L15 475V565L121 614H184ZM190 0H103L472 614H559ZM554 134H605V190H684V134H729V60H684V0H605V60H456V128L560 336H647Z" glyph-name="onequarter" horiz-adv-x="746" unicode="&#188;" /><glyph d="M184 278H95V514L15 475V565L121 614H184ZM190 0H103L472 614H559ZM623 0H534V236L454 198V287L560 336H623ZM823 342Q873 342 902.5 319.5Q932 297 939 256L857 242Q851 267 822 267Q796 267 783 247.5Q770 228 770 202V198Q778 209 794 216Q810 223 831 223Q883 223 913 191Q943 159 943 113Q943 62 909.5 28.5Q876 -5 817 -5Q785 -5 758 9Q731 23 714 49Q685 92 685 161Q685 201 694 234.5Q703 268 720.5 292Q738 316 764 329Q790 342 823 342ZM774 110Q774 91 786 79.5Q798 68 818 68Q837 68 849 79.5Q861 91 861 110Q861 130 849 142.5Q837 155 818 155Q798 155 786 142.5Q774 130 774 110Z" glyph-name="onesixteenth" horiz-adv-x="966" unicode="&#61973;" /><glyph d="M184 278H95V514L15 475V565L121 614H184Z" glyph-name="onesuperior" horiz-adv-x="223" unicode="&#185;" /><glyph d="M184 278H95V514L15 475V565L121 614H184ZM190 0H103L472 614H559ZM554 202H574Q591 202 602.5 210Q614 218 614 235Q614 248 606 257Q598 266 582 266Q564 266 554.5 255.5Q545 245 544 230L459 245Q466 287 496.5 314.5Q527 342 582 342Q637 342 668.5 313Q700 284 700 238Q700 216 689.5 197Q679 178 665 169Q685 160 695 141.5Q705 123 705 100Q705 55 671.5 25Q638 -5 581 -5Q527 -5 493.5 21Q460 47 454 94L543 109Q545 92 554.5 81.5Q564 71 582 71Q598 71 608 80.5Q618 90 618 105Q618 122 606.5 129.5Q595 137 577 137H554ZM900 231Q900 244 891.5 252.5Q883 261 869 261Q853 261 845.5 251.5Q838 242 836 229L746 245Q754 290 784.5 316Q815 342 869 342Q929 342 960.5 313Q992 284 992 237Q992 203 973 179Q954 155 929 130L875 78H993V0H746V58L864 173Q880 190 890 203Q900 216 900 231Z" glyph-name="onethirtysecond" horiz-adv-x="1017" /><glyph d="M193 317V339Q186 329 165.5 320Q145 311 117 311Q96 311 76.5 317.5Q57 324 42 336Q27 348 18 366.5Q9 385 9 409Q9 453 42.5 479Q76 505 125 505Q145 505 164 499.5Q183 494 193 488V508Q193 524 183 535.5Q173 547 152 547Q121 547 114 522L25 537Q34 579 66 602Q98 625 155 625Q218 625 253 593Q288 561 288 504V317ZM193 419Q188 429 175 435Q162 441 147 441Q130 441 117 433.5Q104 426 104 410Q104 394 117 387Q130 380 147 380Q162 380 175 385.5Q188 391 193 401Z" glyph-name="ordfeminine" horiz-adv-x="308" unicode="&#170;" /><glyph d="M315 468Q315 397 273 353.5Q231 310 162 310Q128 310 99.5 321.5Q71 333 51 354Q31 375 19.5 404Q8 433 8 468Q8 502 19.5 531Q31 560 51 581Q71 602 99.5 613.5Q128 625 162 625Q196 625 224 613.5Q252 602 272.5 581Q293 560 304 531Q315 502 315 468ZM214 468Q214 500 200.5 520.5Q187 541 162 541Q137 541 123.5 520.5Q110 500 110 468Q110 436 123.5 415.5Q137 395 162 395Q187 395 200.5 415.5Q214 436 214 468Z" glyph-name="ordmasculine" horiz-adv-x="324" unicode="&#186;" /><glyph d="M27 223Q27 275 43 318Q59 361 88 392Q117 423 157 440Q197 457 246 457Q281 457 312 448Q343 439 369 422L410 472L459 436L414 381Q438 350 451.5 310.5Q465 271 465 223Q465 172 449 129Q433 86 404 55Q375 24 335 7Q295 -10 246 -10Q174 -10 122 25L79 -28L30 9L77 67Q27 129 27 223ZM343 223Q343 257 334 284L192 111Q214 93 246 93Q293 93 318 130Q343 167 343 223ZM149 223Q149 206 151 192Q153 178 157 164L299 336Q288 344 275 349Q262 354 246 354Q199 354 174 317Q149 280 149 223Z" glyph-name="oslash" horiz-adv-x="492" unicode="&#248;" /><glyph d="M27 223Q27 275 43 318Q59 361 88 392Q117 423 157 440Q197 457 246 457Q281 457 312 448Q343 439 369 422L410 472L459 436L414 381Q438 350 451.5 310.5Q465 271 465 223Q465 172 449 129Q433 86 404 55Q375 24 335 7Q295 -10 246 -10Q174 -10 122 25L79 -28L30 9L77 67Q27 129 27 223ZM393 650 304 503H191L271 650ZM246 93Q293 93 318 130Q343 167 343 223Q343 257 334 284L192 111Q214 93 246 93ZM149 223Q149 206 151 192Q153 178 157 164L299 336Q288 344 275 349Q262 354 246 354Q199 354 174 317Q149 280 149 223Z" glyph-name="oslashacute" horiz-adv-x="492" unicode="&#511;" /><glyph d="M464 223Q464 172 448 129Q432 86 403 55Q374 24 334 7Q294 -10 245 -10Q196 -10 156 7Q116 24 87 55Q58 86 42 129Q26 172 26 223Q26 275 42 318Q58 361 87 392Q116 423 156 440Q196 457 245 457Q294 457 334 440Q374 423 403 392Q432 361 448 318Q464 275 464 223ZM341 223Q341 280 316.5 316Q292 352 245 352Q198 352 173.5 316Q149 280 149 223Q149 167 173.5 130.5Q198 94 245 94Q292 94 316.5 130.5Q341 167 341 223ZM401 639Q401 575 374 539.5Q347 504 307 504Q287 504 272 510.5Q257 517 244 524.5Q231 532 219.5 538.5Q208 545 196 545Q184 545 176.5 537.5Q169 530 168 514H88Q88 577 115.5 612.5Q143 648 182 648Q202 648 217.5 641.5Q233 635 245.5 627.5Q258 620 269.5 614Q281 608 294 608Q305 608 312.5 615Q320 622 321 639Z" glyph-name="otilde" horiz-adv-x="489" unicode="&#245;" /><glyph d="M178 -170H54V447H178V409Q193 428 223.5 442.5Q254 457 290 457Q339 457 377 438Q415 419 441 387Q467 355 480.5 312.5Q494 270 494 223Q494 176 480.5 133.5Q467 91 441 59Q415 27 377 8.5Q339 -10 290 -10Q254 -10 223.5 4.5Q193 19 178 37ZM178 150Q189 127 212 112.5Q235 98 262 98Q313 98 341.5 133.5Q370 169 370 223Q370 277 341.5 313Q313 349 262 349Q234 349 211.5 334.5Q189 320 178 297Z" glyph-name="p" horiz-adv-x="519" unicode="p" /><glyph d="M388 614H479V-90H388ZM233 259Q193 259 154 269Q115 279 83.5 301Q52 323 32.5 356.5Q13 390 13 437Q13 484 32.5 517.5Q52 551 83.5 572.5Q115 594 154 604Q193 614 233 614H324V-90H233Z" glyph-name="paragraph" horiz-adv-x="538" unicode="&#182;" /><glyph d="M139 283Q139 214 152.5 161.5Q166 109 188.5 71Q211 33 239.5 8.5Q268 -16 298 -28L280 -131Q225 -111 179 -75.5Q133 -40 99.5 12Q66 64 47.5 131.5Q29 199 29 283Q29 367 47.5 434.5Q66 502 99.5 554Q133 606 179 641.5Q225 677 280 697L298 594Q268 582 239.5 557.5Q211 533 188.5 495Q166 457 152.5 404.5Q139 352 139 283Z" glyph-name="parenleft" horiz-adv-x="326" unicode="(" /><glyph d="M139 303Q139 234 152.5 181.5Q166 129 188.5 91Q211 53 239.5 28.5Q268 4 298 -8L280 -111Q225 -91 179 -55.5Q133 -20 99.5 32Q66 84 47.5 151.5Q29 219 29 303Q29 387 47.5 454.5Q66 522 99.5 574Q133 626 179 661.5Q225 697 280 717L298 614Q268 602 239.5 577.5Q211 553 188.5 515Q166 477 152.5 424.5Q139 372 139 303Z" glyph-name="parenleft.cap" horiz-adv-x="326" unicode="&#58513;" /><glyph d="M22 -2Q22 45 33.5 83Q45 121 65 149.5Q85 178 112 197.5Q139 217 169 228L182 150Q168 145 154.5 134Q141 123 130 104.5Q119 86 112 60Q105 34 105 -2Q105 -37 112 -63.5Q119 -90 130 -108Q141 -126 154.5 -137.5Q168 -149 182 -154L169 -230Q139 -220 112 -201Q85 -182 65 -153.5Q45 -125 33.5 -87Q22 -49 22 -2Z" glyph-name="parenleft.inf" horiz-adv-x="204" unicode="&#58750;" /><glyph d="M187 283Q187 352 173.5 404.5Q160 457 137.5 495Q115 533 86.5 557.5Q58 582 28 594L46 697Q101 677 147 641.5Q193 606 226.5 554Q260 502 278.5 434.5Q297 367 297 283Q297 199 278.5 131.5Q260 64 226.5 12Q193 -40 147 -75.5Q101 -111 46 -131L28 -28Q58 -16 86.5 8.5Q115 33 137.5 71Q160 109 173.5 161.5Q187 214 187 283Z" glyph-name="parenright" horiz-adv-x="326" unicode=")" /><glyph d="M187 303Q187 372 173.5 424.5Q160 477 137.5 515Q115 553 86.5 577.5Q58 602 28 614L46 717Q101 697 147 661.5Q193 626 226.5 574Q260 522 278.5 454.5Q297 387 297 303Q297 219 278.5 151.5Q260 84 226.5 32Q193 -20 147 -55.5Q101 -91 46 -111L28 -8Q58 4 86.5 28.5Q115 53 137.5 91Q160 129 173.5 181.5Q187 234 187 303Z" glyph-name="parenright.cap" horiz-adv-x="326" unicode="&#58514;" /><glyph d="M182 -2Q182 -49 170.5 -87Q159 -125 139 -153.5Q119 -182 92 -201Q65 -220 35 -230L22 -154Q35 -149 49 -137.5Q63 -126 73.5 -108Q84 -90 91 -63.5Q98 -37 98 -2Q98 34 91 60Q84 86 73.5 104.5Q63 123 49 134Q35 145 22 150L35 228Q65 217 92 197.5Q119 178 139 149.5Q159 121 170.5 83Q182 45 182 -2Z" glyph-name="parenright.inf" horiz-adv-x="204" unicode="&#58751;" /><glyph d="M178 -170H54V447H178V409Q193 428 223.5 442.5Q254 457 290 457Q339 457 377 438Q415 419 441 387Q467 355 480.5 312.5Q494 270 494 223Q494 176 480.5 133.5Q467 91 441 59Q415 27 377 8.5Q339 -10 290 -10Q254 -10 223.5 4.5Q193 19 178 37ZM178 150Q189 127 212 112.5Q235 98 262 98Q313 98 341.5 133.5Q370 169 370 223Q370 277 341.5 313Q313 349 262 349Q234 349 211.5 334.5Q189 320 178 297ZM200 576Q200 605 218.5 623.5Q237 642 267 642Q296 642 314.5 623.5Q333 605 333 576Q333 547 314.5 528.5Q296 510 267 510Q237 510 218.5 528.5Q200 547 200 576Z" glyph-name="pdotaccent" horiz-adv-x="519" unicode="&#7767;" /><glyph d="M483 614H566L187 0H103ZM110 481Q110 457 127 440Q144 423 169 423Q193 423 211 440Q229 457 229 481Q229 506 211 523.5Q193 541 169 541Q144 541 127 523.5Q110 506 110 481ZM642 133Q642 103 631 77Q620 51 601 31.5Q582 12 556.5 1Q531 -10 501 -10Q471 -10 445 1Q419 12 399.5 31.5Q380 51 369 77Q358 103 358 133Q358 162 369 188Q380 214 399.5 233Q419 252 445 263Q471 274 501 274Q531 274 556.5 263Q582 252 601 233Q620 214 631 188Q642 162 642 133ZM311 481Q311 452 300 426Q289 400 269.5 381Q250 362 224.5 351Q199 340 169 340Q139 340 113.5 351Q88 362 68.5 381Q49 400 38 426Q27 452 27 481Q27 511 38 537Q49 563 68.5 582.5Q88 602 113.5 613Q139 624 169 624Q199 624 224.5 613Q250 602 269.5 582.5Q289 563 300 537Q311 511 311 481ZM560 133Q560 157 543 174Q526 191 501 191Q476 191 458.5 174Q441 157 441 133Q441 108 458.5 90.5Q476 73 501 73Q526 73 543 90.5Q560 108 560 133Z" glyph-name="percent" horiz-adv-x="670" unicode="%" /><glyph d="M20 501Q20 526 29.5 548.5Q39 571 55.5 588Q72 605 94 614.5Q116 624 141 624Q167 624 189.5 614.5Q212 605 228.5 588Q245 571 254.5 548.5Q264 526 264 501Q264 476 254.5 454Q245 432 228.5 415.5Q212 399 189.5 389.5Q167 380 141 380Q116 380 94 389.5Q72 399 55.5 415.5Q39 432 29.5 454Q20 476 20 501ZM91 501Q91 480 105.5 465.5Q120 451 141 451Q163 451 178 465.5Q193 480 193 501Q193 523 178 538Q163 553 141 553Q120 553 105.5 538Q91 523 91 501ZM500 113Q500 87 490.5 65Q481 43 464.5 26Q448 9 426 -0.5Q404 -10 379 -10Q353 -10 330.5 -0.5Q308 9 291.5 26Q275 43 265.5 65Q256 87 256 113Q256 138 265.5 160Q275 182 291.5 198.5Q308 215 330.5 224.5Q353 234 379 234Q404 234 426 224.5Q448 215 464.5 198.5Q481 182 490.5 160Q500 138 500 113ZM429 113Q429 134 414.5 148.5Q400 163 379 163Q357 163 342 148.5Q327 134 327 113Q327 91 342 76Q357 61 379 61Q400 61 414.5 76Q429 91 429 113ZM406 614H489L114 0H31Z" glyph-name="percent.lt" horiz-adv-x="520" /><glyph d="M175 65Q175 34 155.5 14.5Q136 -5 105 -5Q74 -5 54.5 14.5Q35 34 35 65Q35 97 54.5 116.5Q74 136 105 136Q136 136 155.5 116.5Q175 97 175 65Z" glyph-name="period" horiz-adv-x="210" unicode="." /><glyph d="M59 67Q59 98 79 118Q99 138 130 138Q161 138 181 118Q201 98 201 67Q201 35 181 15Q161 -5 130 -5Q99 -5 79 15Q59 35 59 67Z" glyph-name="period.tab" horiz-adv-x="260" /><glyph d="M177 255Q177 224 157.5 204.5Q138 185 107 185Q76 185 56.5 204.5Q37 224 37 255Q37 286 56.5 306Q76 326 107 326Q138 326 157.5 306Q177 286 177 255Z" glyph-name="periodcentered" horiz-adv-x="214" unicode="&#183;" /><glyph d="M177 293Q177 261 157.5 241.5Q138 222 107 222Q76 222 56.5 241.5Q37 261 37 293Q37 324 56.5 343.5Q76 363 107 363Q138 363 157.5 343.5Q177 324 177 293Z" glyph-name="periodcentered.cap" horiz-adv-x="214" unicode="&#58497;" /><glyph d="M483 614H566L187 0H103ZM27 481Q27 511 38 537Q49 563 68.5 582.5Q88 602 113.5 613Q139 624 169 624Q199 624 224.5 613Q250 602 269.5 582.5Q289 563 300 537Q311 511 311 481Q311 452 300 426Q289 400 269.5 381Q250 362 224.5 351Q199 340 169 340Q139 340 113.5 351Q88 362 68.5 381Q49 400 38 426Q27 452 27 481ZM642 133Q642 103 631 77Q620 51 601 31.5Q582 12 556.5 1Q531 -10 501 -10Q471 -10 445 1Q419 12 399.5 31.5Q380 51 369 77Q358 103 358 133Q358 162 369 188Q380 214 399.5 233Q419 252 445 263Q471 274 501 274Q531 274 556.5 263Q582 252 601 233Q620 214 631 188Q642 162 642 133ZM560 133Q560 157 543 174Q526 191 501 191Q476 191 458.5 174Q441 157 441 133Q441 108 458.5 90.5Q476 73 501 73Q526 73 543 90.5Q560 108 560 133ZM957 133Q957 103 946 77Q935 51 916 31.5Q897 12 871 1Q845 -10 816 -10Q786 -10 760 1Q734 12 714.5 31.5Q695 51 684 77Q673 103 673 133Q673 162 684 188Q695 214 714.5 233Q734 252 760 263Q786 274 816 274Q845 274 871 263Q897 252 916 233Q935 214 946 188Q957 162 957 133ZM874 133Q874 157 857 174Q840 191 816 191Q791 191 773.5 174Q756 157 756 133Q756 108 773.5 90.5Q791 73 816 73Q840 73 857 90.5Q874 108 874 133ZM110 481Q110 457 127 440Q144 423 169 423Q193 423 211 440Q229 457 229 481Q229 506 211 523.5Q193 541 169 541Q144 541 127 523.5Q110 506 110 481Z" glyph-name="perthousand" horiz-adv-x="984" unicode="&#8240;" /><glyph d="M420 614H503L118 0H35ZM100 501Q100 480 114.5 465.5Q129 451 150 451Q172 451 187 465.5Q202 480 202 501Q202 523 187 538Q172 553 150 553Q129 553 114.5 538Q100 523 100 501ZM509 113Q509 87 499.5 65Q490 43 473.5 26Q457 9 435 -0.5Q413 -10 388 -10Q362 -10 340 -0.5Q318 9 301 26Q284 43 274.5 65Q265 87 265 113Q265 138 274.5 160Q284 182 301 198.5Q318 215 340 224.5Q362 234 388 234Q413 234 435 224.5Q457 215 473.5 198.5Q490 182 499.5 160Q509 138 509 113ZM438 113Q438 134 423.5 148.5Q409 163 388 163Q366 163 351 148.5Q336 134 336 113Q336 91 351 76Q366 61 388 61Q409 61 423.5 76Q438 91 438 113ZM29 501Q29 526 38.5 548.5Q48 571 64.5 588Q81 605 103 614.5Q125 624 150 624Q176 624 198.5 614.5Q221 605 237.5 588Q254 571 263.5 548.5Q273 526 273 501Q273 476 263.5 454Q254 432 237.5 415.5Q221 399 198.5 389.5Q176 380 150 380Q125 380 103 389.5Q81 399 64.5 415.5Q48 432 38.5 454Q29 476 29 501ZM776 113Q776 87 766.5 65Q757 43 740.5 26Q724 9 701.5 -0.5Q679 -10 654 -10Q628 -10 606 -0.5Q584 9 567 26Q550 43 540.5 65Q531 87 531 113Q531 138 540.5 160Q550 182 567 198.5Q584 215 606 224.5Q628 234 654 234Q679 234 701.5 224.5Q724 215 740.5 198.5Q757 182 766.5 160Q776 138 776 113ZM705 113Q705 134 690 148.5Q675 163 654 163Q633 163 617.5 148.5Q602 134 602 113Q602 91 617.5 76Q633 61 654 61Q675 61 690 76Q705 91 705 113Z" glyph-name="perthousand.lt" horiz-adv-x="800" /><glyph d="M328 515V347H496V252H328V84H233V252H64V347H233V515Z" glyph-name="plus" horiz-adv-x="561" unicode="+" /><glyph d="M192 118V28H282V-41H192V-131H123V-41H33V28H123V118Z" glyph-name="plus.inf" horiz-adv-x="316" unicode="&#58747;" /><glyph d="M307 515V347H476V252H307V84H212V252H44V347H212V515Z" glyph-name="plus.lt" horiz-adv-x="520" /><glyph d="M330 548V418H494V328H330V198H240V328H75V418H240V548ZM75 153H494V63H75Z" glyph-name="plusminus" horiz-adv-x="569" unicode="&#177;" /><glyph d="M305 548V418H469V328H305V198H214V328H50V418H214V548ZM50 153H469V63H50Z" glyph-name="plusminus.lt" horiz-adv-x="520" /><glyph d="M669 307Q669 238 644 180Q619 122 576 79.5Q533 37 475 13.5Q417 -10 352 -10Q287 -10 229 13.5Q171 37 128 79.5Q85 122 60 180Q35 238 35 307Q35 376 60 434Q85 492 128 534.5Q171 577 229 600.5Q287 624 352 624Q417 624 475 600.5Q533 577 576 534.5Q619 492 644 434Q669 376 669 307ZM622 307Q622 366 600.5 415.5Q579 465 542.5 501Q506 537 456.5 557.5Q407 578 352 578Q296 578 247 557.5Q198 537 161.5 501Q125 465 103.5 415.5Q82 366 82 307Q82 248 103.5 198.5Q125 149 161.5 113Q198 77 247 56.5Q296 36 352 36Q407 36 456.5 56.5Q506 77 542.5 113Q579 149 600.5 198.5Q622 248 622 307ZM321 235V124H225V493H390Q450 493 487.5 460Q525 427 525 364Q525 301 487.5 268Q450 235 390 235ZM430 364Q430 384 418.5 396.5Q407 409 381 409H321V319H381Q407 319 418.5 331.5Q430 344 430 364Z" glyph-name="published" horiz-adv-x="704" unicode="&#8471;" /><glyph d="M341 37Q326 19 295.5 4.5Q265 -10 229 -10Q181 -10 143 8.5Q105 27 79 59Q53 91 39.5 133.5Q26 176 26 223Q26 270 39.5 312.5Q53 355 79 387Q105 419 143 438Q181 457 229 457Q265 457 295.5 442.5Q326 428 341 409V447H465V-170H341ZM341 297Q330 320 307.5 334.5Q285 349 257 349Q206 349 178 313Q150 277 150 223Q150 169 178 133.5Q206 98 257 98Q284 98 307 112.5Q330 127 341 150Z" glyph-name="q" horiz-adv-x="519" unicode="q" /><glyph d="M433 442Q433 413 423.5 389Q414 365 399.5 344.5Q385 324 367 306Q349 288 331 272Q306 250 299 235Q292 220 288 198H181Q179 217 180 233Q181 249 186 263.5Q191 278 201.5 292Q212 306 231 323Q247 337 260.5 349.5Q274 362 284 375Q294 388 299.5 402.5Q305 417 305 435Q305 467 285 488.5Q265 510 229 510Q190 510 170 487Q150 464 148 429L23 449Q34 531 85.5 577.5Q137 624 231 624Q324 624 378.5 575Q433 526 433 442ZM304 65Q304 34 284.5 14.5Q265 -5 234 -5Q203 -5 183.5 14.5Q164 34 164 65Q164 97 183.5 116.5Q203 136 234 136Q265 136 284.5 116.5Q304 97 304 65Z" glyph-name="question" horiz-adv-x="455" unicode="?" /><glyph d="M22 76Q22 105 31.5 129Q41 153 55.5 173.5Q70 194 88 212Q106 230 124 246Q149 268 156 283Q163 298 167 320H275Q276 301 275.5 285Q275 269 269.5 254.5Q264 240 253.5 225.5Q243 211 224 195Q208 181 194.5 168.5Q181 156 171 143Q161 130 155.5 115.5Q150 101 150 83Q150 51 170 29.5Q190 8 227 8Q265 8 285 31Q305 54 308 89L432 69Q421 -13 369.5 -59.5Q318 -106 224 -106Q132 -106 77 -57Q22 -8 22 76ZM151 453Q151 484 170.5 503.5Q190 523 222 523Q253 523 272.5 503.5Q292 484 292 453Q292 421 272.5 401.5Q253 382 222 382Q190 382 170.5 401.5Q151 421 151 453Z" glyph-name="questiondown" horiz-adv-x="455" unicode="&#191;" /><glyph d="M22 171Q22 200 31.5 224Q41 248 55.5 269Q70 290 88 308Q106 326 124 342Q149 363 156 378Q163 393 167 415H275Q276 396 275.5 380Q275 364 269.5 349.5Q264 335 253.5 320.5Q243 306 224 290Q208 276 194.5 263.5Q181 251 171 238Q161 225 155.5 210.5Q150 196 150 178Q150 146 170 124.5Q190 103 227 103Q265 103 285 126Q305 149 308 184L432 164Q421 82 369.5 35.5Q318 -11 224 -11Q132 -11 77 38Q22 87 22 171ZM151 548Q151 579 170.5 598.5Q190 618 222 618Q253 618 272.5 598.5Q292 579 292 548Q292 517 272.5 497.5Q253 478 222 478Q190 478 170.5 497.5Q151 517 151 548Z" glyph-name="questiondown.cap" horiz-adv-x="455" unicode="&#58436;" /><glyph d="M38 614H138V366H38ZM188 614H288V366H188Z" glyph-name="quotedbl" horiz-adv-x="327" unicode="&quot;" /><glyph d="M222 -63Q281 -50 297 -3Q289 -5 284 -5Q253 -5 233.5 14.5Q214 34 214 65Q214 97 233.5 116.5Q253 136 285 136Q327 136 346.5 110Q366 84 366 42Q366 15 357.5 -10.5Q349 -36 332 -57Q315 -78 290 -93Q265 -108 232 -114ZM42 -63Q103 -49 117 -3Q111 -5 105 -5Q74 -5 54.5 14.5Q35 34 35 65Q35 97 54.5 116.5Q74 136 105 136Q147 136 166.5 110Q186 84 186 42Q186 15 177.5 -10.5Q169 -36 152 -57Q135 -78 110 -93Q85 -108 52 -114Z" glyph-name="quotedblbase" horiz-adv-x="390" unicode="&#8222;" /><glyph d="M348 578Q289 566 273 519Q277 520 286 520Q317 520 336.5 500.5Q356 481 356 450Q356 419 336.5 399.5Q317 380 285 380Q243 380 223.5 405.5Q204 431 204 474Q204 501 212.5 526.5Q221 552 238 573Q255 594 280 609Q305 624 338 630ZM168 578Q109 566 93 519Q97 520 106 520Q137 520 156.5 500.5Q176 481 176 450Q176 419 156.5 399.5Q137 380 106 380Q64 380 44 405.5Q24 431 24 474Q24 501 32.5 526.5Q41 552 58 573Q75 594 100 609Q125 624 158 630Z" glyph-name="quotedblleft" horiz-adv-x="390" unicode="&#8220;" /><glyph d="M42 426Q101 438 117 485Q109 483 105 483Q73 483 53.5 503Q34 523 34 554Q34 585 53.5 604.5Q73 624 105 624Q147 624 166.5 598.5Q186 573 186 530Q186 503 177.5 477.5Q169 452 152 431Q135 410 110 395Q85 380 52 374ZM222 426Q281 438 297 485Q289 483 284 483Q253 483 233.5 503Q214 523 214 554Q214 585 233.5 604.5Q253 624 284 624Q326 624 346 598.5Q366 573 366 530Q366 503 357.5 477.5Q349 452 332 431Q315 410 290 395Q265 380 232 374Z" glyph-name="quotedblright" horiz-adv-x="390" unicode="&#8221;" /><glyph d="M168 578Q109 566 93 519Q97 520 106 520Q137 520 156.5 500.5Q176 481 176 450Q176 419 156.5 399.5Q137 380 106 380Q64 380 44 405.5Q24 431 24 474Q24 501 32.5 526.5Q41 552 58 573Q75 594 100 609Q125 624 158 630Z" glyph-name="quoteleft" horiz-adv-x="210" unicode="&#8216;" /><glyph d="M42 426Q101 438 117 485Q109 483 105 483Q73 483 53.5 503Q34 523 34 554Q34 585 53.5 604.5Q73 624 105 624Q147 624 166.5 598.5Q186 573 186 530Q186 503 177.5 477.5Q169 452 152 431Q135 410 110 395Q85 380 52 374Z" glyph-name="quoteright" horiz-adv-x="210" unicode="&#8217;" /><glyph d="M42 -63Q103 -49 117 -3Q111 -5 105 -5Q74 -5 54.5 14.5Q35 34 35 65Q35 97 54.5 116.5Q74 136 105 136Q147 136 166.5 110Q186 84 186 42Q186 15 177.5 -10.5Q169 -36 152 -57Q135 -78 110 -93Q85 -108 52 -114Z" glyph-name="quotesinglbase" horiz-adv-x="210" unicode="&#8218;" /><glyph d="M38 614H144V366H38Z" glyph-name="quotesingle" horiz-adv-x="182" unicode="&apos;" /><glyph d="M309 332Q288 340 264 340Q233 340 209 324Q185 308 178 277V0H54V447H178V403Q192 427 219.5 442Q247 457 280 457Q297 457 309.5 454Q322 451 330 447Z" glyph-name="r" horiz-adv-x="351" unicode="r" /><glyph d="M136 503 215 650H338L248 503ZM309 332Q288 340 264 340Q233 340 209 324Q185 308 178 277V0H54V447H178V403Q192 427 219.5 442Q247 457 280 457Q297 457 309.5 454Q322 451 330 447Z" glyph-name="racute" horiz-adv-x="351" unicode="&#341;" /><glyph d="M245 503H136L44 650H138L191 580L243 650H337ZM309 332Q288 340 264 340Q233 340 209 324Q185 308 178 277V0H54V447H178V403Q192 427 219.5 442Q247 457 280 457Q297 457 309.5 454Q322 451 330 447Z" glyph-name="rcaron" horiz-adv-x="351" unicode="&#345;" /><glyph d="M309 332Q288 340 264 340Q233 340 209 324Q185 308 178 277V0H54V447H178V403Q192 427 219.5 442Q247 457 280 457Q297 457 309.5 454Q322 451 330 447ZM67 -153Q85 -150 98 -144Q111 -138 118 -127H110Q87 -127 72 -113.5Q57 -100 57 -76Q57 -53 73.5 -39.5Q90 -26 113 -26Q145 -26 160.5 -45Q176 -64 176 -95Q176 -133 150 -158.5Q124 -184 76 -193Z" glyph-name="rcommaaccent" horiz-adv-x="351" unicode="&#343;" /><glyph d="M384 441Q384 401 369.5 367.5Q355 334 330.5 309.5Q306 285 273 271.5Q240 258 203 258Q166 258 133 271.5Q100 285 75.5 309.5Q51 334 36.5 367.5Q22 401 22 441Q22 481 36.5 514.5Q51 548 75.5 572.5Q100 597 133 610.5Q166 624 203 624Q240 624 273 610.5Q306 597 330.5 572.5Q355 548 369.5 514.5Q384 481 384 441ZM351 441Q351 474 339.5 502Q328 530 308 550.5Q288 571 261 582Q234 593 203 593Q172 593 145 582Q118 571 98 550.5Q78 530 66.5 502Q55 474 55 441Q55 408 66.5 380Q78 352 98 331.5Q118 311 145 300Q172 289 203 289Q234 289 261 300Q288 311 308 331.5Q328 352 339.5 380Q351 408 351 441ZM182 407V346H128V538H218Q250 538 269.5 520.5Q289 503 289 471Q289 426 252 413L296 346H237L199 407ZM237 471Q237 493 212 493H182V450H212Q237 450 237 471Z" glyph-name="registered" horiz-adv-x="407" unicode="&#174;" /><glyph d="M349 583Q349 562 341.5 544.5Q334 527 320.5 514Q307 501 289 493.5Q271 486 250 486Q229 486 211 493.5Q193 501 179.5 514Q166 527 158.5 544.5Q151 562 151 583Q151 603 158.5 621Q166 639 179.5 652Q193 665 211 672.5Q229 680 250 680Q271 680 289 672.5Q307 665 320.5 652Q334 639 341.5 621Q349 603 349 583ZM290 583Q290 600 278.5 611Q267 622 250 622Q233 622 222 611Q211 600 211 583Q211 566 222 554.5Q233 543 250 543Q267 543 278.5 554.5Q290 566 290 583Z" glyph-name="ring" horiz-adv-x="500" unicode="&#730;" /><glyph d="M349 743Q349 722 341.5 704.5Q334 687 320.5 674Q307 661 289 653.5Q271 646 250 646Q229 646 211 653.5Q193 661 179.5 674Q166 687 158.5 704.5Q151 722 151 743Q151 764 158.5 781.5Q166 799 179.5 812Q193 825 211 832.5Q229 840 250 840Q271 840 289 832.5Q307 825 320.5 812Q334 799 341.5 781.5Q349 764 349 743ZM290 743Q290 760 278.5 771.5Q267 783 250 783Q233 783 222 771.5Q211 760 211 743Q211 726 222 715Q233 704 250 704Q267 704 278.5 715Q290 726 290 743Z" glyph-name="ring.cap" horiz-adv-x="500" unicode="&#58410;" /><glyph d="M214 -10Q131 -10 82 23Q33 56 24 115L141 134Q144 110 165 97Q186 84 215 84Q244 84 265 95Q286 106 286 128Q286 156 242 166L151 186Q100 198 67 227Q34 256 34 313Q34 379 84 418Q134 457 217 457Q299 457 344 425Q389 393 401 336L288 316Q284 336 267 349.5Q250 363 217 363Q192 363 173 352.5Q154 342 154 324Q154 307 164.5 299Q175 291 195 286L288 265Q407 236 407 135Q407 101 393 74Q379 47 353.5 28.5Q328 10 292.5 0Q257 -10 214 -10Z" glyph-name="s" horiz-adv-x="437" unicode="s" /><glyph d="M169 503 248 650H371L281 503ZM214 -10Q131 -10 82 23Q33 56 24 115L141 134Q144 110 165 97Q186 84 215 84Q244 84 265 95Q286 106 286 128Q286 156 242 166L151 186Q100 198 67 227Q34 256 34 313Q34 379 84 418Q134 457 217 457Q299 457 344 425Q389 393 401 336L288 316Q284 336 267 349.5Q250 363 217 363Q192 363 173 352.5Q154 342 154 324Q154 307 164.5 299Q175 291 195 286L288 265Q407 236 407 135Q407 101 393 74Q379 47 353.5 28.5Q328 10 292.5 0Q257 -10 214 -10Z" glyph-name="sacute" horiz-adv-x="437" unicode="&#347;" /><glyph d="M274 503H164L73 650H166L219 580L272 650H366ZM214 -10Q131 -10 82 23Q33 56 24 115L141 134Q144 110 165 97Q186 84 215 84Q244 84 265 95Q286 106 286 128Q286 156 242 166L151 186Q100 198 67 227Q34 256 34 313Q34 379 84 418Q134 457 217 457Q299 457 344 425Q389 393 401 336L288 316Q284 336 267 349.5Q250 363 217 363Q192 363 173 352.5Q154 342 154 324Q154 307 164.5 299Q175 291 195 286L288 265Q407 236 407 135Q407 101 393 74Q379 47 353.5 28.5Q328 10 292.5 0Q257 -10 214 -10Z" glyph-name="scaron" horiz-adv-x="437" unicode="&#353;" /><glyph d="M188 -9Q116 -4 74 28.5Q32 61 24 115L141 134Q144 110 165 97Q186 84 215 84Q244 84 265 95Q286 106 286 128Q286 156 242 166L151 186Q100 198 67 227Q34 256 34 313Q34 379 84 418Q134 457 217 457Q299 457 344 425Q389 393 401 336L288 316Q284 336 267 349.5Q250 363 217 363Q192 363 173 352.5Q154 342 154 324Q154 307 164.5 299Q175 291 195 286L288 265Q407 236 407 135Q407 72 362.5 35Q318 -2 244 -8L241 -27Q273 -35 293.5 -54.5Q314 -74 314 -107Q314 -139 288.5 -159.5Q263 -180 215 -180Q188 -180 167.5 -174Q147 -168 133 -159L147 -102Q158 -107 173 -111.5Q188 -116 205 -116Q222 -116 232 -111.5Q242 -107 242 -97Q242 -69 178 -64Z" glyph-name="scedilla" horiz-adv-x="437" unicode="&#351;" /><glyph d="M27 320Q42 384 94.5 420.5Q147 457 225 457Q274 457 314 440Q354 423 382.5 392Q411 361 427 318.5Q443 276 443 224Q443 173 427 130Q411 87 382.5 56Q354 25 314.5 7.5Q275 -10 228 -10Q179 -10 141 6Q103 22 77.5 51.5Q52 81 38.5 121.5Q25 162 25 212V250H323Q321 301 294.5 329Q268 357 225 357Q193 357 169 343.5Q145 330 138 301ZM227 90Q262 90 287 111.5Q312 133 320 174H146Q148 139 168 114.5Q188 90 227 90Z" glyph-name="schwa" horiz-adv-x="469" unicode="&#601;" /><glyph d="M366 503H272L219 572L166 503H73L164 650H274ZM214 -10Q131 -10 82 23Q33 56 24 115L141 134Q144 110 165 97Q186 84 215 84Q244 84 265 95Q286 106 286 128Q286 156 242 166L151 186Q100 198 67 227Q34 256 34 313Q34 379 84 418Q134 457 217 457Q299 457 344 425Q389 393 401 336L288 316Q284 336 267 349.5Q250 363 217 363Q192 363 173 352.5Q154 342 154 324Q154 307 164.5 299Q175 291 195 286L288 265Q407 236 407 135Q407 101 393 74Q379 47 353.5 28.5Q328 10 292.5 0Q257 -10 214 -10Z" glyph-name="scircumflex" horiz-adv-x="437" unicode="&#349;" /><glyph d="M214 -10Q131 -10 82 23Q33 56 24 115L141 134Q144 110 165 97Q186 84 215 84Q244 84 265 95Q286 106 286 128Q286 156 242 166L151 186Q100 198 67 227Q34 256 34 313Q34 379 84 418Q134 457 217 457Q299 457 344 425Q389 393 401 336L288 316Q284 336 267 349.5Q250 363 217 363Q192 363 173 352.5Q154 342 154 324Q154 307 164.5 299Q175 291 195 286L288 265Q407 236 407 135Q407 101 393 74Q379 47 353.5 28.5Q328 10 292.5 0Q257 -10 214 -10ZM165 -153Q183 -150 196 -144Q209 -138 216 -127H208Q185 -127 170 -113.5Q155 -100 155 -76Q155 -53 171.5 -39.5Q188 -26 211 -26Q243 -26 259 -45Q275 -64 275 -95Q275 -133 248.5 -158.5Q222 -184 174 -193Z" glyph-name="scommaaccent" horiz-adv-x="437" unicode="&#537;" /><glyph d="M305 169Q324 174 331.5 187Q339 200 339 214Q339 234 323 249Q307 264 287 277L166 355Q147 350 139.5 337Q132 324 132 310Q132 290 147.5 275Q163 260 183 247ZM285 35Q285 54 272 65.5Q259 77 238 90L128 157Q82 184 51 218Q20 252 20 304Q20 340 37.5 370.5Q55 401 89 421Q68 448 68 486Q68 518 80.5 543.5Q93 569 116 587Q139 605 170.5 614.5Q202 624 240 624Q320 624 363.5 593.5Q407 563 420 506L310 487Q305 507 288.5 520Q272 533 243 533Q220 533 202.5 522Q185 511 185 489Q185 470 198.5 458.5Q212 447 232 434L343 367Q389 340 420 306Q451 272 451 220Q451 184 433 153Q415 122 382 103Q392 89 397.5 73.5Q403 58 403 38Q403 6 390 -19.5Q377 -45 354.5 -63Q332 -81 300 -90.5Q268 -100 231 -100Q151 -100 107.5 -69.5Q64 -39 50 18L161 37Q165 17 182 4Q199 -9 228 -9Q251 -9 268 2Q285 13 285 35Z" glyph-name="section" horiz-adv-x="471" unicode="&#167;" /><glyph d="M42 -63Q103 -49 117 -3Q111 -5 105 -5Q74 -5 54.5 14.5Q35 34 35 65Q35 97 54.5 116.5Q74 136 105 136Q147 136 166.5 110Q186 84 186 42Q186 15 177.5 -10.5Q169 -36 152 -57Q135 -78 110 -93Q85 -108 52 -114ZM105 281Q74 281 54.5 300.5Q35 320 35 351Q35 382 54.5 401.5Q74 421 105 421Q136 421 155.5 401.5Q175 382 175 351Q175 320 155.5 300.5Q136 281 105 281Z" glyph-name="semicolon" horiz-adv-x="210" unicode=";" /><glyph d="M67 -63Q126 -50 142 -3Q136 -5 130 -5Q99 -5 79 14.5Q59 34 59 65Q59 97 79 116.5Q99 136 130 136Q172 136 191.5 110Q211 84 211 42Q211 15 202.5 -10.5Q194 -36 177 -57Q160 -78 135 -93Q110 -108 77 -114ZM130 281Q99 281 79 300.5Q59 320 59 351Q59 382 79 401.5Q99 421 130 421Q161 421 180.5 401.5Q200 382 200 351Q200 320 180.5 300.5Q161 281 130 281Z" glyph-name="semicolon.tab" horiz-adv-x="260" /><glyph d="M230 0H101L298 503H16V614H431V523Z" glyph-name="seven" horiz-adv-x="457" unicode="7" /><glyph d="M149 -170H56L157 88H16V166H255V105Z" glyph-name="seven.inf" horiz-adv-x="276" unicode="&#58744;" /><glyph d="M268 0H140L344 503H42V614H477V523Z" glyph-name="seven.lt" horiz-adv-x="520" /><glyph d="M149 278H56L157 536H16V614H255V553ZM243 0H156L525 614H612ZM676 0H587V236L507 198V287L613 336H676ZM876 342Q926 342 955.5 319.5Q985 297 992 256L910 242Q904 267 875 267Q849 267 836 247.5Q823 228 823 202V198Q831 209 847 216Q863 223 884 223Q936 223 966 191Q996 159 996 113Q996 62 962.5 28.5Q929 -5 870 -5Q838 -5 811 9Q784 23 767 49Q737 94 737 161Q737 201 746 234.5Q755 268 773 292Q791 316 817 329Q843 342 876 342ZM827 110Q827 91 839 79.5Q851 68 871 68Q890 68 902 79.5Q914 91 914 110Q914 130 902 142.5Q890 155 871 155Q851 155 839 142.5Q827 130 827 110Z" glyph-name="sevensixteenths" horiz-adv-x="1019" unicode="&#61976;" /><glyph d="M184 278H95V514L15 475V565L121 614H184ZM372 278H279L380 536H240V614H478V553ZM466 0H379L748 614H835ZM830 202H850Q867 202 878.5 210Q890 218 890 235Q890 248 882 257Q874 266 858 266Q840 266 830.5 255.5Q821 245 820 230L735 245Q742 287 772.5 314.5Q803 342 858 342Q913 342 944.5 313Q976 284 976 238Q976 216 965.5 197Q955 178 941 169Q961 160 971 141.5Q981 123 981 100Q981 55 947.5 25Q914 -5 857 -5Q803 -5 769.5 21Q736 47 730 94L819 109Q821 92 830.5 81.5Q840 71 858 71Q874 71 884 80.5Q894 90 894 105Q894 122 882.5 129.5Q871 137 853 137H830ZM1176 231Q1176 244 1167.5 252.5Q1159 261 1145 261Q1129 261 1121.5 251.5Q1114 242 1112 229L1022 245Q1030 290 1060.5 316Q1091 342 1145 342Q1205 342 1236.5 313Q1268 284 1268 237Q1268 203 1249 179Q1230 155 1205 130L1151 78H1269V0H1022V58L1140 173Q1156 190 1166 203Q1176 216 1176 231Z" glyph-name="seventeenthirtyseconds" horiz-adv-x="1293" /><glyph d="M149 278H56L157 536H16V614H255V553ZM243 0H156L525 614H612ZM607 202H627Q644 202 655.5 210Q667 218 667 235Q667 248 659 257Q651 266 635 266Q617 266 607.5 255.5Q598 245 596 230L512 245Q519 287 549.5 314.5Q580 342 634 342Q690 342 721.5 313Q753 284 753 238Q753 216 742.5 197Q732 178 718 169Q738 160 748 141.5Q758 123 758 100Q758 55 724.5 25Q691 -5 634 -5Q580 -5 546.5 21Q513 47 507 94L596 109Q598 92 607.5 81.5Q617 71 635 71Q651 71 661 80.5Q671 90 671 105Q671 122 659.5 129.5Q648 137 630 137H607ZM953 231Q953 244 944.5 252.5Q936 261 922 261Q906 261 898.5 251.5Q891 242 889 229L798 245Q806 290 837 316Q868 342 922 342Q981 342 1013 313Q1045 284 1045 237Q1045 203 1026 179Q1007 155 981 130L928 78H1046V0H799V58L917 173Q933 190 943 203Q953 216 953 231Z" glyph-name="seventhirtyseconds" horiz-adv-x="1070" /><glyph d="M275 624Q355 624 404.5 586Q454 548 468 479L351 458Q343 487 324.5 503.5Q306 520 271 520Q242 520 219 505.5Q196 491 180.5 467Q165 443 157 412Q149 381 149 347V338Q165 367 199.5 385Q234 403 279 403Q325 403 362.5 387Q400 371 425.5 343.5Q451 316 465 279Q479 242 479 201Q479 157 464.5 119Q450 81 422 52Q394 23 353.5 6.5Q313 -10 262 -10Q204 -10 155.5 17Q107 44 76 101Q53 142 43 188Q33 234 33 294Q33 369 48.5 429.5Q64 490 95 533.5Q126 577 171 600.5Q216 624 275 624ZM160 198Q160 152 188.5 123.5Q217 95 263 95Q308 95 336 123.5Q364 152 364 198Q364 246 336 275.5Q308 305 263 305Q217 305 188.5 276Q160 247 160 198Z" glyph-name="six" horiz-adv-x="510" unicode="6" /><glyph d="M161 172Q211 172 240.5 149.5Q270 127 277 86L195 72Q189 97 160 97Q134 97 121 77.5Q108 58 108 32V28Q116 39 132 46Q148 53 169 53Q221 53 251 21Q281 -11 281 -57Q281 -108 247.5 -141.5Q214 -175 155 -175Q123 -175 96 -161Q69 -147 52 -121Q22 -76 22 -9Q22 31 31 64.5Q40 98 58 122Q76 146 102 159Q128 172 161 172ZM112 -60Q112 -79 124 -90.5Q136 -102 156 -102Q175 -102 187 -90.5Q199 -79 199 -60Q199 -40 187 -27.5Q175 -15 156 -15Q136 -15 124 -27.5Q112 -40 112 -60Z" glyph-name="six.inf" horiz-adv-x="304" unicode="&#58743;" /><glyph d="M282 624Q363 624 412.5 586Q462 548 476 479L359 458Q351 487 332.5 503.5Q314 520 279 520Q250 520 227 505.5Q204 491 188.5 467Q173 443 165 412Q157 381 157 347V338Q173 367 207 385Q241 403 287 403Q333 403 370.5 387Q408 371 433.5 343.5Q459 316 473 279Q487 242 487 201Q487 157 472 119Q457 81 429.5 52Q402 23 361.5 6.5Q321 -10 270 -10Q212 -10 163 17Q114 44 83 101Q60 142 50 188Q40 234 40 294Q40 369 56 429.5Q72 490 102.5 533.5Q133 577 178 600.5Q223 624 282 624ZM168 198Q168 152 196 123.5Q224 95 271 95Q316 95 344 123.5Q372 152 372 198Q372 246 344 275.5Q316 305 271 305Q224 305 196 276Q168 247 168 198Z" glyph-name="six.lt" horiz-adv-x="520" /><glyph d="M253 650H367L119 -84H5Z" glyph-name="slash" horiz-adv-x="372" unicode="/" /><glyph d="M253 670H367L119 -64H5Z" glyph-name="slash.cap" horiz-adv-x="372" unicode="&#58465;" /><glyph glyph-name="space" horiz-adv-x="167" unicode=" " /><glyph glyph-name="space.tab" horiz-adv-x="260" /><glyph d="M217 351H346V254H217V194Q217 168 212 143Q207 118 196 103H473V0H27V103H79Q89 120 94 140.5Q99 161 99 194V254H27V351H99V422Q99 464 112.5 501Q126 538 151 565.5Q176 593 212 608.5Q248 624 292 624Q376 624 419 583.5Q462 543 473 474L360 454Q351 519 293 519Q254 519 235.5 492.5Q217 466 217 424Z" glyph-name="sterling" horiz-adv-x="497" unicode="&#163;" /><glyph d="M227 351H356V254H227V194Q227 168 222 143Q217 118 206 103H482V0H37V103H88Q98 120 103 140.5Q108 161 108 194V254H37V351H108V422Q108 464 121.5 501Q135 538 160 565.5Q185 593 221 608.5Q257 624 301 624Q385 624 428 583.5Q471 543 482 474L370 454Q361 519 302 519Q264 519 245.5 492.5Q227 466 227 424Z" glyph-name="sterling.lt" horiz-adv-x="520" /><glyph d="M81 347H13V447H81V568H204V447H302V347H204V150Q204 124 217.5 112Q231 100 254 100Q265 100 277 103Q289 106 297 111L315 10Q301 2 276.5 -4Q252 -10 220 -10Q157 -10 119 24.5Q81 59 81 134Z" glyph-name="t" horiz-adv-x="345" unicode="t" /><glyph d="M29 285H85V355H17V447H85V568H208V447H306V355H208V285H286V199H208V150Q208 124 221.5 112Q235 100 258 100Q269 100 281 103Q293 106 301 111L319 10Q305 2 280.5 -4Q256 -10 225 -10Q162 -10 123.5 24.5Q85 59 85 134V199H29Z" glyph-name="tbar" horiz-adv-x="349" unicode="&#359;" /><glyph d="M247 490 274 657H360L332 490ZM81 347H13V447H81V568H204V447H302V347H204V150Q204 124 217.5 112Q231 100 254 100Q265 100 277 103Q289 106 297 111L315 10Q301 2 276.5 -4Q252 -10 220 -10Q157 -10 119 24.5Q81 59 81 134Z" glyph-name="tcaron" horiz-adv-x="345" unicode="&#357;" /><glyph d="M81 347H13V447H81V568H204V447H302V347H204V150Q204 124 217.5 112Q231 100 254 100Q265 100 277 103Q289 106 297 111L315 10Q301 2 276.5 -4Q252 -10 220 -10Q157 -10 119 24.5Q81 59 81 134ZM140 -153Q157 -150 170 -144Q183 -138 191 -127H183Q160 -127 145 -113.5Q130 -100 130 -76Q130 -53 146.5 -39.5Q163 -26 186 -26Q218 -26 233.5 -45Q249 -64 249 -95Q249 -133 223 -158.5Q197 -184 148 -193Z" glyph-name="tcommaaccent" horiz-adv-x="345" unicode="&#355;" /><glyph d="M81 347H13V447H81V568H204V447H302V347H204V150Q204 124 217.5 112Q231 100 254 100Q265 100 277 103Q289 106 297 111L315 10Q301 2 276.5 -4Q252 -10 220 -10Q157 -10 119 24.5Q81 59 81 134ZM77 674Q77 703 95.5 721.5Q114 740 143 740Q173 740 191.5 721.5Q210 703 210 674Q210 645 191.5 626.5Q173 608 143 608Q114 608 95.5 626.5Q77 645 77 674Z" glyph-name="tdotaccent" horiz-adv-x="345" unicode="&#7787;" /><glyph d="M184 278H95V514L15 475V565L121 614H184ZM338 480H358Q375 480 386.5 488Q398 496 398 513Q398 526 390 535Q382 544 366 544Q348 544 338.5 533Q329 522 328 508L243 523Q250 565 280.5 592.5Q311 620 366 620Q421 620 452.5 591Q484 562 484 516Q484 494 473.5 474.5Q463 455 449 447Q469 438 479 419Q489 400 489 377Q489 332 455.5 302Q422 272 365 272Q311 272 277.5 298.5Q244 325 238 372L327 387Q329 370 338.5 359Q348 348 366 348Q382 348 392 357.5Q402 367 402 382Q402 399 390.5 407Q379 415 361 415H338ZM478 0H391L760 614H847ZM911 0H821V236L742 198V287L848 336H911ZM1111 342Q1161 342 1190.5 319.5Q1220 297 1227 256L1145 242Q1139 267 1110 267Q1084 267 1071 247.5Q1058 228 1058 202V198Q1066 209 1082 216Q1098 223 1119 223Q1171 223 1201 191Q1231 159 1231 113Q1231 62 1197.5 28.5Q1164 -5 1105 -5Q1073 -5 1046 9Q1019 23 1002 49Q972 94 972 161Q972 201 981 234.5Q990 268 1008 292Q1026 316 1052 329Q1078 342 1111 342ZM1062 110Q1062 91 1074 79.5Q1086 68 1106 68Q1125 68 1137 79.5Q1149 91 1149 110Q1149 130 1137 142.5Q1125 155 1106 155Q1086 155 1074 142.5Q1062 130 1062 110Z" glyph-name="thirteensixteenths" horiz-adv-x="1254" unicode="&#61985;" /><glyph d="M184 278H95V514L15 475V565L121 614H184ZM338 480H358Q375 480 386.5 488Q398 496 398 513Q398 526 390 535Q382 544 366 544Q348 544 338.5 533Q329 522 328 508L243 523Q250 565 280.5 592.5Q311 620 366 620Q421 620 452.5 591Q484 562 484 516Q484 494 473.5 474.5Q463 455 449 447Q469 438 479 419Q489 400 489 377Q489 332 455.5 302Q422 272 365 272Q311 272 277.5 298.5Q244 325 238 372L327 387Q329 370 338.5 359Q348 348 366 348Q382 348 392 357.5Q402 367 402 382Q402 399 390.5 407Q379 415 361 415H338ZM478 0H391L760 614H847ZM842 202H862Q879 202 890.5 210Q902 218 902 235Q902 248 894 257Q886 266 869 266Q852 266 842.5 255.5Q833 245 831 230L747 245Q754 287 784.5 314.5Q815 342 869 342Q924 342 956 313Q988 284 988 238Q988 216 977.5 197Q967 178 953 169Q973 160 983 141.5Q993 123 993 100Q993 55 959.5 25Q926 -5 869 -5Q815 -5 781.5 21Q748 47 742 94L831 109Q833 92 842.5 81.5Q852 71 870 71Q886 71 896 80.5Q906 90 906 105Q906 122 894.5 129.5Q883 137 865 137H842ZM1188 231Q1188 244 1179.5 252.5Q1171 261 1157 261Q1141 261 1133.5 251.5Q1126 242 1124 229L1033 245Q1041 290 1072 316Q1103 342 1157 342Q1216 342 1248 313Q1280 284 1280 237Q1280 203 1261 179Q1242 155 1216 130L1163 78H1281V0H1034V58L1152 173Q1168 190 1178 203Q1188 216 1188 231Z" glyph-name="thirteenthirtyseconds" horiz-adv-x="1304" /><glyph d="M115 480H135Q152 480 163.5 488Q175 496 175 513Q175 526 167 535Q159 544 143 544Q125 544 115.5 533Q106 522 104 508L20 523Q27 565 57.5 592.5Q88 620 142 620Q198 620 229.5 591Q261 562 261 516Q261 494 250.5 474.5Q240 455 226 447Q246 438 256 419Q266 400 266 377Q266 332 232.5 302Q199 272 142 272Q88 272 54.5 298.5Q21 325 15 372L104 387Q106 370 115.5 359Q125 348 143 348Q159 348 169 357.5Q179 367 179 382Q179 399 167.5 407Q156 415 138 415H115ZM471 278H382V514L303 475V565L409 614H471ZM478 0H391L760 614H847ZM842 202H862Q879 202 890.5 210Q902 218 902 235Q902 248 894 257Q886 266 869 266Q852 266 842.5 255.5Q833 245 831 230L747 245Q754 287 784.5 314.5Q815 342 869 342Q924 342 956 313Q988 284 988 238Q988 216 977.5 197Q967 178 953 169Q973 160 983 141.5Q993 123 993 100Q993 55 959.5 25Q926 -5 869 -5Q815 -5 781.5 21Q748 47 742 94L831 109Q833 92 842.5 81.5Q852 71 870 71Q886 71 896 80.5Q906 90 906 105Q906 122 894.5 129.5Q883 137 865 137H842ZM1188 231Q1188 244 1179.5 252.5Q1171 261 1157 261Q1141 261 1133.5 251.5Q1126 242 1124 229L1033 245Q1041 290 1072 316Q1103 342 1157 342Q1216 342 1248 313Q1280 284 1280 237Q1280 203 1261 179Q1242 155 1216 130L1163 78H1281V0H1034V58L1152 173Q1168 190 1178 203Q1188 216 1188 231Z" glyph-name="thirtyonethirtyseconds" horiz-adv-x="1304" /><glyph d="M178 -170H54V650H178V409Q193 428 223.5 442.5Q254 457 290 457Q339 457 377 438Q415 419 441 387Q467 355 480.5 312.5Q494 270 494 223Q494 176 480.5 133.5Q467 91 441 59Q415 27 377 8.5Q339 -10 290 -10Q254 -10 223.5 4.5Q193 19 178 37ZM178 150Q189 127 212 112.5Q235 98 262 98Q313 98 341.5 133.5Q370 169 370 223Q370 277 341.5 313Q313 349 262 349Q234 349 211.5 334.5Q189 320 178 297Z" glyph-name="thorn" horiz-adv-x="519" unicode="&#254;" /><glyph d="M189 362H224Q263 362 289.5 381.5Q316 401 316 439Q316 471 294.5 493Q273 515 235 515Q193 515 170.5 490.5Q148 466 144 431L24 453Q30 490 46 521.5Q62 553 88.5 575.5Q115 598 151.5 611Q188 624 234 624Q281 624 318.5 611Q356 598 382 574Q408 550 422 517Q436 484 436 445Q436 400 415.5 364Q395 328 362 312Q405 293 426 256.5Q447 220 447 178Q447 138 432 103.5Q417 69 389.5 44Q362 19 322.5 4.5Q283 -10 234 -10Q140 -10 81 38Q22 86 11 168L135 190Q139 149 163.5 123.5Q188 98 234 98Q274 98 300 120.5Q326 143 326 180Q326 219 298.5 241Q271 263 228 263H189Z" glyph-name="three" horiz-adv-x="474" unicode="3" /><glyph d="M115 32H135Q152 32 163.5 40Q175 48 175 65Q175 78 167 87Q159 96 143 96Q125 96 115.5 85.5Q106 75 104 60L20 75Q27 117 57.5 144.5Q88 172 142 172Q198 172 229.5 143Q261 114 261 68Q261 46 250.5 27Q240 8 226 -1Q246 -10 256 -28.5Q266 -47 266 -70Q266 -115 232.5 -145Q199 -175 142 -175Q88 -175 54.5 -149Q21 -123 15 -76L104 -61Q106 -78 115.5 -88.5Q125 -99 143 -99Q159 -99 169 -89.5Q179 -80 179 -65Q179 -48 167.5 -40.5Q156 -33 138 -33H115Z" glyph-name="three.inf" horiz-adv-x="288" unicode="&#58740;" /><glyph d="M219 362H253Q293 362 319.5 381.5Q346 401 346 439Q346 471 324.5 493Q303 515 265 515Q223 515 200 490.5Q177 466 174 431L54 453Q60 490 76 521.5Q92 553 118 575.5Q144 598 180.5 611Q217 624 264 624Q310 624 347.5 611Q385 598 411.5 574Q438 550 452 517Q466 484 466 445Q466 400 445.5 364Q425 328 392 312Q435 293 455.5 256.5Q476 220 476 178Q476 138 461 103.5Q446 69 418.5 44Q391 19 352 4.5Q313 -10 264 -10Q170 -10 111 38Q52 86 41 168L164 190Q169 149 193.5 123.5Q218 98 263 98Q304 98 329.5 120.5Q355 143 355 180Q355 219 328 241Q301 263 257 263H219Z" glyph-name="three.lt" horiz-adv-x="520" /><glyph d="M115 480H135Q152 480 163.5 488Q175 496 175 513Q175 526 167 535Q159 544 143 544Q125 544 115.5 533Q106 522 104 508L20 523Q27 565 57.5 592.5Q88 620 142 620Q198 620 229.5 591Q261 562 261 516Q261 494 250.5 474.5Q240 455 226 447Q246 438 256 419Q266 400 266 377Q266 332 232.5 302Q199 272 142 272Q88 272 54.5 298.5Q21 325 15 372L104 387Q106 370 115.5 359Q125 348 143 348Q159 348 169 357.5Q179 367 179 382Q179 399 167.5 407Q156 415 138 415H115ZM255 0H168L537 614H624ZM619 134H669V190H749V134H794V60H749V0H669V60H521V128L624 336H712Z" glyph-name="threequarters" horiz-adv-x="811" unicode="&#190;" /><glyph d="M115 480H135Q152 480 163.5 488Q175 496 175 513Q175 526 167 535Q159 544 143 544Q125 544 115.5 533Q106 522 104 508L20 523Q27 565 57.5 592.5Q88 620 142 620Q198 620 229.5 591Q261 562 261 516Q261 494 250.5 474.5Q240 455 226 447Q246 438 256 419Q266 400 266 377Q266 332 232.5 302Q199 272 142 272Q88 272 54.5 298.5Q21 325 15 372L104 387Q106 370 115.5 359Q125 348 143 348Q159 348 169 357.5Q179 367 179 382Q179 399 167.5 407Q156 415 138 415H115ZM255 0H168L537 614H624ZM687 0H598V236L519 198V287L625 336H687ZM888 342Q938 342 967.5 319.5Q997 297 1004 256L922 242Q916 267 887 267Q861 267 848 247.5Q835 228 835 202V198Q843 209 859 216Q875 223 896 223Q948 223 978 191Q1008 159 1008 113Q1008 62 974.5 28.5Q941 -5 882 -5Q850 -5 823 9Q796 23 779 49Q749 94 749 161Q749 201 758 234.5Q767 268 785 292Q803 316 829 329Q855 342 888 342ZM839 110Q839 91 851 79.5Q863 68 883 68Q902 68 914 79.5Q926 91 926 110Q926 130 914 142.5Q902 155 883 155Q863 155 851 142.5Q839 130 839 110Z" glyph-name="threesixteenths" horiz-adv-x="1031" unicode="&#61974;" /><glyph d="M115 480H135Q152 480 163.5 488Q175 496 175 513Q175 526 167 535Q159 544 143 544Q125 544 115.5 533Q106 522 104 508L20 523Q27 565 57.5 592.5Q88 620 142 620Q198 620 229.5 591Q261 562 261 516Q261 494 250.5 474.5Q240 455 226 447Q246 438 256 419Q266 400 266 377Q266 332 232.5 302Q199 272 142 272Q88 272 54.5 298.5Q21 325 15 372L104 387Q106 370 115.5 359Q125 348 143 348Q159 348 169 357.5Q179 367 179 382Q179 399 167.5 407Q156 415 138 415H115Z" glyph-name="threesuperior" horiz-adv-x="288" unicode="&#179;" /><glyph d="M115 480H135Q152 480 163.5 488Q175 496 175 513Q175 526 167 535Q159 544 143 544Q125 544 115.5 533Q106 522 104 508L20 523Q27 565 57.5 592.5Q88 620 142 620Q198 620 229.5 591Q261 562 261 516Q261 494 250.5 474.5Q240 455 226 447Q246 438 256 419Q266 400 266 377Q266 332 232.5 302Q199 272 142 272Q88 272 54.5 298.5Q21 325 15 372L104 387Q106 370 115.5 359Q125 348 143 348Q159 348 169 357.5Q179 367 179 382Q179 399 167.5 407Q156 415 138 415H115ZM255 0H168L537 614H624ZM618 202H639Q656 202 667.5 210Q679 218 679 235Q679 248 671 257Q663 266 646 266Q629 266 619.5 255.5Q610 245 608 230L524 245Q531 287 561.5 314.5Q592 342 646 342Q701 342 733 313Q765 284 765 238Q765 216 754.5 197Q744 178 730 169Q750 160 760 141.5Q770 123 770 100Q770 55 736.5 25Q703 -5 646 -5Q592 -5 558.5 21Q525 47 519 94L608 109Q610 92 619.5 81.5Q629 71 647 71Q663 71 673 80.5Q683 90 683 105Q683 122 671.5 129.5Q660 137 642 137H618ZM965 231Q965 244 956.5 252.5Q948 261 934 261Q918 261 910.5 251.5Q903 242 901 229L810 245Q818 290 849 316Q880 342 934 342Q993 342 1025 313Q1057 284 1057 237Q1057 203 1038 179Q1019 155 993 130L940 78H1057V0H810V58L929 173Q945 190 955 203Q965 216 965 231Z" glyph-name="threethirtyseconds" horiz-adv-x="1081" /><glyph d="M406 639Q406 575 379 539.5Q352 504 313 504Q293 504 277.5 510.5Q262 517 249.5 524.5Q237 532 225.5 538.5Q214 545 201 545Q190 545 182 537.5Q174 530 174 514H94Q94 577 121 612.5Q148 648 187 648Q207 648 222.5 641.5Q238 635 250.5 627.5Q263 620 274.5 614Q286 608 299 608Q310 608 318 615Q326 622 326 639Z" glyph-name="tilde" horiz-adv-x="500" unicode="&#732;" /><glyph d="M399 802Q399 772 394 747Q389 722 379 703Q369 684 352.5 673.5Q336 663 314 663Q296 663 281 669.5Q266 676 252.5 684Q239 692 226.5 698.5Q214 705 201 705Q173 705 172 666H101Q101 696 106 721Q111 746 121 765Q131 784 147 794.5Q163 805 186 805Q204 805 219 798.5Q234 792 247.5 784Q261 776 273.5 769.5Q286 763 299 763Q326 763 328 802Z" glyph-name="tilde.cap" horiz-adv-x="500" unicode="&#58404;" /><glyph d="M20 614H248V550H171V360H97V550H20ZM401 360 350 506V360H283V614H371L424 461L478 614H565V360H498V506L447 360Z" glyph-name="trademark" horiz-adv-x="602" unicode="&#8482;" /><glyph d="M174 509Q174 522 165 530Q156 538 142 538Q126 538 118.5 528.5Q111 519 109 506L19 522Q27 568 57.5 594Q88 620 142 620Q202 620 233.5 591Q265 562 265 514Q265 481 246 456.5Q227 432 202 408L148 356H266V278H19V336L137 451Q153 468 163.5 481Q174 494 174 509ZM439 429Q427 429 417.5 424.5Q408 420 402 413H327V614H537V538H400V489Q408 494 422.5 497.5Q437 501 451 501Q503 501 533 470Q563 439 563 389Q563 336 529 304Q495 272 439 272Q382 272 349.5 298Q317 324 311 371L398 386Q400 369 411 358.5Q422 348 440 348Q457 348 467 359.5Q477 371 477 389Q477 406 467.5 417.5Q458 429 439 429ZM550 0H463L832 614H919ZM914 202H934Q951 202 962.5 210Q974 218 974 235Q974 248 966 257Q958 266 941 266Q924 266 914.5 255.5Q905 245 903 230L819 245Q826 287 856.5 314.5Q887 342 941 342Q996 342 1028 313Q1060 284 1060 238Q1060 216 1049.5 197Q1039 178 1025 169Q1045 160 1055 141.5Q1065 123 1065 100Q1065 55 1031.5 25Q998 -5 941 -5Q887 -5 853.5 21Q820 47 814 94L903 109Q905 92 914.5 81.5Q924 71 942 71Q958 71 968 80.5Q978 90 978 105Q978 122 966.5 129.5Q955 137 937 137H914ZM1260 231Q1260 244 1251.5 252.5Q1243 261 1229 261Q1213 261 1205.5 251.5Q1198 242 1196 229L1105 245Q1113 290 1144 316Q1175 342 1229 342Q1288 342 1320 313Q1352 284 1352 237Q1352 203 1333 179Q1314 155 1288 130L1235 78H1353V0H1106V58L1224 173Q1240 190 1250 203Q1260 216 1260 231Z" glyph-name="twentyfivethirtyseconds" horiz-adv-x="1376" /><glyph d="M174 509Q174 522 165 530Q156 538 142 538Q126 538 118.5 528.5Q111 519 109 506L19 522Q27 568 57.5 594Q88 620 142 620Q202 620 233.5 591Q265 562 265 514Q265 481 246 456.5Q227 432 202 408L148 356H266V278H19V336L137 451Q153 468 163.5 481Q174 494 174 509ZM432 272Q383 272 354 294.5Q325 317 317 358L399 372Q405 347 434 347Q460 347 473 366.5Q486 386 486 413V416Q478 406 462.5 399Q447 392 424 392Q373 392 343 423.5Q313 455 313 501Q313 552 347 586Q381 620 438 620Q472 620 498.5 605.5Q525 591 542 565Q558 542 564.5 514.5Q571 487 571 454Q571 373 536 322.5Q501 272 432 272ZM483 504Q483 523 470.5 535Q458 547 438 547Q420 547 407 535Q394 523 394 504Q394 484 407 471.5Q420 459 438 459Q458 459 470.5 471.5Q483 484 483 504ZM561 0H474L843 614H930ZM925 202H945Q962 202 973.5 210Q985 218 985 235Q985 248 977 257Q969 266 953 266Q935 266 925.5 255.5Q916 245 915 230L830 245Q837 287 867.5 314.5Q898 342 953 342Q1008 342 1039.5 313Q1071 284 1071 238Q1071 216 1060.5 197Q1050 178 1036 169Q1056 160 1066 141.5Q1076 123 1076 100Q1076 55 1042.5 25Q1009 -5 952 -5Q898 -5 864.5 21Q831 47 825 94L914 109Q916 92 925.5 81.5Q935 71 953 71Q969 71 979 80.5Q989 90 989 105Q989 122 977.5 129.5Q966 137 948 137H925ZM1271 231Q1271 244 1262.5 252.5Q1254 261 1240 261Q1224 261 1216.5 251.5Q1209 242 1207 229L1117 245Q1125 290 1155.5 316Q1186 342 1240 342Q1300 342 1331.5 313Q1363 284 1363 237Q1363 203 1344 179Q1325 155 1300 130L1246 78H1364V0H1117V58L1235 173Q1251 190 1261 203Q1271 216 1271 231Z" glyph-name="twentyninethirtyseconds" horiz-adv-x="1388" /><glyph d="M174 509Q174 522 165 530Q156 538 142 538Q126 538 118.5 528.5Q111 519 109 506L19 522Q27 568 57.5 594Q88 620 142 620Q202 620 233.5 591Q265 562 265 514Q265 481 246 456.5Q227 432 202 408L148 356H266V278H19V336L137 451Q153 468 163.5 481Q174 494 174 509ZM473 278H384V514L305 475V565L411 614H473ZM480 0H393L762 614H849ZM844 202H864Q881 202 892.5 210Q904 218 904 235Q904 248 896 257Q888 266 871 266Q854 266 844.5 255.5Q835 245 833 230L749 245Q756 287 786.5 314.5Q817 342 871 342Q926 342 958 313Q990 284 990 238Q990 216 979.5 197Q969 178 955 169Q975 160 985 141.5Q995 123 995 100Q995 55 961.5 25Q928 -5 871 -5Q817 -5 783.5 21Q750 47 744 94L833 109Q835 92 844.5 81.5Q854 71 872 71Q888 71 898 80.5Q908 90 908 105Q908 122 896.5 129.5Q885 137 867 137H844ZM1190 231Q1190 244 1181.5 252.5Q1173 261 1159 261Q1143 261 1135.5 251.5Q1128 242 1126 229L1035 245Q1043 290 1074 316Q1105 342 1159 342Q1218 342 1250 313Q1282 284 1282 237Q1282 203 1263 179Q1244 155 1218 130L1165 78H1283V0H1036V58L1154 173Q1170 190 1180 203Q1190 216 1190 231Z" glyph-name="twentyonethirtyseconds" horiz-adv-x="1306" /><glyph d="M174 509Q174 522 165 530Q156 538 142 538Q126 538 118.5 528.5Q111 519 109 506L19 522Q27 568 57.5 594Q88 620 142 620Q202 620 233.5 591Q265 562 265 514Q265 481 246 456.5Q227 432 202 408L148 356H266V278H19V336L137 451Q153 468 163.5 481Q174 494 174 509ZM438 278H346L447 536H306V614H545V553ZM533 0H446L815 614H902ZM896 202H917Q934 202 945.5 210Q957 218 957 235Q957 248 949 257Q941 266 924 266Q907 266 897.5 255.5Q888 245 886 230L802 245Q809 287 839.5 314.5Q870 342 924 342Q979 342 1011 313Q1043 284 1043 238Q1043 216 1032.5 197Q1022 178 1008 169Q1028 160 1038 141.5Q1048 123 1048 100Q1048 55 1014.5 25Q981 -5 924 -5Q870 -5 836.5 21Q803 47 797 94L886 109Q888 92 897.5 81.5Q907 71 925 71Q941 71 951 80.5Q961 90 961 105Q961 122 949.5 129.5Q938 137 920 137H896ZM1243 231Q1243 244 1234.5 252.5Q1226 261 1212 261Q1196 261 1188.5 251.5Q1181 242 1179 229L1088 245Q1096 290 1127 316Q1158 342 1212 342Q1271 342 1303 313Q1335 284 1335 237Q1335 203 1316 179Q1297 155 1271 130L1218 78H1335V0H1088V58L1207 173Q1223 190 1233 203Q1243 216 1243 231Z" glyph-name="twentyseventhirtyseconds" horiz-adv-x="1359" /><glyph d="M174 509Q174 522 165 530Q156 538 142 538Q126 538 118.5 528.5Q111 519 109 506L19 522Q27 568 57.5 594Q88 620 142 620Q202 620 233.5 591Q265 562 265 514Q265 481 246 456.5Q227 432 202 408L148 356H266V278H19V336L137 451Q153 468 163.5 481Q174 494 174 509ZM404 480H425Q442 480 453.5 488Q465 496 465 513Q465 526 457 535Q449 544 432 544Q415 544 405.5 533Q396 522 394 508L310 523Q317 565 347.5 592.5Q378 620 432 620Q487 620 519 591Q551 562 551 516Q551 494 540.5 474.5Q530 455 516 447Q536 438 546 419Q556 400 556 377Q556 332 522.5 302Q489 272 432 272Q378 272 344.5 298.5Q311 325 305 372L394 387Q396 370 405.5 359Q415 348 433 348Q449 348 459 357.5Q469 367 469 382Q469 399 457.5 407Q446 415 428 415H404ZM545 0H458L827 614H914ZM908 202H929Q946 202 957.5 210Q969 218 969 235Q969 248 961 257Q953 266 936 266Q919 266 909 255.5Q899 245 898 230L814 245Q821 287 851 314.5Q881 342 936 342Q991 342 1023 313Q1055 284 1055 238Q1055 216 1044.5 197Q1034 178 1020 169Q1039 160 1049 141.5Q1059 123 1059 100Q1059 55 1026 25Q993 -5 936 -5Q882 -5 848 21Q814 47 808 94L898 109Q900 92 909 81.5Q918 71 937 71Q953 71 963 80.5Q973 90 973 105Q973 122 961.5 129.5Q950 137 931 137H908ZM1255 231Q1255 244 1246.5 252.5Q1238 261 1224 261Q1208 261 1200.5 251.5Q1193 242 1191 229L1100 245Q1108 290 1139 316Q1170 342 1224 342Q1283 342 1315 313Q1347 284 1347 237Q1347 203 1328 179Q1309 155 1283 130L1230 78H1347V0H1100V58L1219 173Q1235 190 1245 203Q1255 216 1255 231Z" glyph-name="twentythreethirtyseconds" horiz-adv-x="1371" /><glyph d="M316 436Q316 468 294.5 489Q273 510 236 510Q194 510 174.5 485Q155 460 150 425L26 447Q37 528 90 576Q143 624 237 624Q337 624 390 574Q443 524 443 441Q443 412 433 386Q423 360 406 335Q389 310 367 286Q345 262 321 238L202 111H450V0H25V83L220 288Q261 333 288.5 367Q316 401 316 436Z" glyph-name="two" horiz-adv-x="479" unicode="2" /><glyph d="M174 61Q174 74 165 82.5Q156 91 142 91Q126 91 118.5 81.5Q111 72 109 59L19 75Q27 120 57.5 146Q88 172 142 172Q202 172 233.5 143Q265 114 265 67Q265 33 246 9Q227 -15 202 -40L148 -92H266V-170H19V-112L137 3Q153 20 163.5 33Q174 46 174 61Z" glyph-name="two.inf" horiz-adv-x="290" unicode="&#58739;" /><glyph d="M334 436Q334 468 312 489Q290 510 254 510Q212 510 192.5 485Q173 460 168 425L43 447Q55 528 108 576Q161 624 254 624Q354 624 407.5 574Q461 524 461 441Q461 412 450.5 386Q440 360 423 335Q406 310 384 286Q362 262 339 238L220 111H468V0H43V83L237 288Q279 333 306.5 367Q334 401 334 436Z" glyph-name="two.lt" horiz-adv-x="520" /><glyph d="M174 509Q174 522 165 530Q156 538 142 538Q126 538 118.5 528.5Q111 519 109 506L19 522Q27 568 57.5 594Q88 620 142 620Q202 620 233.5 591Q265 562 265 514Q265 481 246 456.5Q227 432 202 408L148 356H266V278H19V336L137 451Q153 468 163.5 481Q174 494 174 509Z" glyph-name="twosuperior" horiz-adv-x="290" unicode="&#178;" /><glyph d="M449 0H326V38Q307 17 276 3.5Q245 -10 206 -10Q131 -10 90 35Q49 80 49 155V447H173V180Q173 145 190.5 122.5Q208 100 245 100Q274 100 296 115.5Q318 131 325 160V447H449Z" glyph-name="u" horiz-adv-x="503" unicode="u" /><glyph d="M194 503 273 650H396L306 503ZM449 0H326V38Q307 17 276 3.5Q245 -10 206 -10Q131 -10 90 35Q49 80 49 155V447H173V180Q173 145 190.5 122.5Q208 100 245 100Q274 100 296 115.5Q318 131 325 160V447H449Z" glyph-name="uacute" horiz-adv-x="503" unicode="&#250;" /><glyph d="M449 0H326V38Q307 17 276 3.5Q245 -10 206 -10Q131 -10 90 35Q49 80 49 155V447H173V180Q173 145 190.5 122.5Q208 100 245 100Q274 100 296 115.5Q318 131 325 160V447H449ZM252 493Q222 493 196.5 501.5Q171 510 152 529Q133 548 121 577.5Q109 607 108 648H199Q200 613 213 598Q226 583 252 583Q278 583 290.5 598Q303 613 305 648H396Q394 607 382.5 577.5Q371 548 351.5 529Q332 510 306.5 501.5Q281 493 252 493Z" glyph-name="ubreve" horiz-adv-x="503" unicode="&#365;" /><glyph d="M398 503H305L252 572L199 503H105L197 650H307ZM449 0H326V38Q307 17 276 3.5Q245 -10 206 -10Q131 -10 90 35Q49 80 49 155V447H173V180Q173 145 190.5 122.5Q208 100 245 100Q274 100 296 115.5Q318 131 325 160V447H449Z" glyph-name="ucircumflex" horiz-adv-x="503" unicode="&#251;" /><glyph d="M103 576Q103 605 121.5 623.5Q140 642 170 642Q199 642 217.5 623.5Q236 605 236 576Q236 547 217.5 528.5Q199 510 170 510Q140 510 121.5 528.5Q103 547 103 576ZM269 576Q269 605 287.5 623.5Q306 642 335 642Q365 642 383.5 623.5Q402 605 402 576Q402 547 383.5 528.5Q365 510 335 510Q306 510 287.5 528.5Q269 547 269 576ZM449 0H326V38Q307 17 276 3.5Q245 -10 206 -10Q131 -10 90 35Q49 80 49 155V447H173V180Q173 145 190.5 122.5Q208 100 245 100Q274 100 296 115.5Q318 131 325 160V447H449Z" glyph-name="udieresis" horiz-adv-x="503" unicode="&#252;" /><glyph d="M449 0H326V38Q307 17 276 3.5Q245 -10 206 -10Q131 -10 90 35Q49 80 49 155V447H173V180Q173 145 190.5 122.5Q208 100 245 100Q274 100 296 115.5Q318 131 325 160V447H449ZM197 503 107 650H230L309 503Z" glyph-name="ugrave" horiz-adv-x="503" unicode="&#249;" /><glyph d="M449 0H326V38Q307 17 276 3.5Q245 -10 206 -10Q131 -10 90 35Q49 80 49 155V447H173V180Q173 145 190.5 122.5Q208 100 245 100Q274 100 296 115.5Q318 131 325 160V447H449ZM132 503 204 650H318L236 503ZM274 503 346 650H461L379 503Z" glyph-name="uhungarumlaut" horiz-adv-x="503" unicode="&#369;" /><glyph d="M449 0H326V38Q307 17 276 3.5Q245 -10 206 -10Q131 -10 90 35Q49 80 49 155V447H173V180Q173 145 190.5 122.5Q208 100 245 100Q274 100 296 115.5Q318 131 325 160V447H449ZM134 615H371V521H134Z" glyph-name="umacron" horiz-adv-x="503" unicode="&#363;" /><glyph d="M20 -42H361V-142H20Z" glyph-name="underscore" horiz-adv-x="381" unicode="_" /><glyph glyph-name="uni00A0" horiz-adv-x="212" unicode="&#160;" /><glyph d="M164 353Q192 353 204 380.5Q216 408 216 446Q216 484 204 511.5Q192 539 164 539Q135 539 123 511.5Q111 484 111 446Q111 408 123 380.5Q135 353 164 353ZM164 272Q132 272 106.5 284.5Q81 297 62 320Q43 343 33 375Q23 407 23 446Q23 484 33 516Q43 548 62 571Q81 594 106.5 607Q132 620 164 620Q195 620 221 607Q247 594 265.5 571Q284 548 294 516Q304 484 304 446Q304 407 294 375Q284 343 265.5 320Q247 297 221 284.5Q195 272 164 272Z" glyph-name="uni2070" horiz-adv-x="327" unicode="&#8304;" /><glyph d="M115 412H166V468H245V412H290V338H245V278H166V338H17V405L121 614H208Z" glyph-name="uni2074" horiz-adv-x="307" unicode="&#8308;" /><glyph d="M149 429Q137 429 127.5 424.5Q118 420 112 413H37V614H248V538H111V489Q119 494 133 497.5Q147 501 161 501Q213 501 243 470Q273 439 273 389Q273 336 239 304Q205 272 150 272Q92 272 59.5 298Q27 324 21 371L109 386Q111 369 121.5 358.5Q132 348 150 348Q167 348 177.5 359.5Q188 371 188 389Q188 406 178 417.5Q168 429 149 429Z" glyph-name="uni2075" horiz-adv-x="293" unicode="&#8309;" /><glyph d="M161 620Q211 620 240.5 597Q270 574 277 533L195 520Q192 531 184 538Q176 545 160 545Q134 545 121 525.5Q108 506 108 479V476Q116 487 132 494Q148 501 169 501Q221 501 251 469Q281 437 281 391Q281 340 247.5 306Q214 272 155 272Q123 272 96 286.5Q69 301 52 327Q22 372 22 438Q22 519 58 569.5Q94 620 161 620ZM112 388Q112 369 124 357.5Q136 346 156 346Q175 346 187 357.5Q199 369 199 388Q199 408 187 420Q175 432 156 432Q136 432 124 420Q112 408 112 388Z" glyph-name="uni2076" horiz-adv-x="304" unicode="&#8310;" /><glyph d="M149 278H56L157 536H16V614H255V553Z" glyph-name="uni2077" horiz-adv-x="276" unicode="&#8311;" /><glyph d="M149 342Q167 342 178.5 352Q190 362 190 377Q190 394 178.5 404Q167 414 149 414Q132 414 120 404Q108 394 108 377Q108 362 120 352Q132 342 149 342ZM149 485Q165 485 175.5 494.5Q186 504 186 518Q186 533 175.5 542.5Q165 552 149 552Q134 552 123.5 542.5Q113 533 113 518Q113 504 123.5 494.5Q134 485 149 485ZM149 272Q122 272 99 278.5Q76 285 58.5 298Q41 311 31 329.5Q21 348 21 371Q21 400 36 420Q51 440 74 448Q54 459 42.5 478Q31 497 31 521Q31 545 40.5 563.5Q50 582 66.5 594.5Q83 607 104.5 613.5Q126 620 149 620Q172 620 193.5 613.5Q215 607 231.5 594.5Q248 582 257.5 563.5Q267 545 267 521Q267 497 256 478Q245 459 225 448Q247 440 262.5 420Q278 400 278 371Q278 348 268 329.5Q258 311 240.5 298Q223 285 199.5 278.5Q176 272 149 272Z" glyph-name="uni2078" horiz-adv-x="300" unicode="&#8312;" /><glyph d="M143 272Q93 272 64 294.5Q35 317 28 358L109 372Q115 347 144 347Q170 347 183 366.5Q196 386 196 413V416Q188 406 172.5 399Q157 392 135 392Q84 392 54 423.5Q24 455 24 501Q24 552 57.5 586Q91 620 149 620Q182 620 208.5 605.5Q235 591 252 565Q268 542 274.5 514.5Q281 487 281 454Q281 373 246 322.5Q211 272 143 272ZM193 504Q193 523 180.5 535Q168 547 148 547Q130 547 117 535Q104 523 104 504Q104 484 117 471.5Q130 459 148 459Q168 459 180.5 471.5Q193 484 193 504Z" glyph-name="uni2079" horiz-adv-x="304" unicode="&#8313;" /><glyph d="M192 565V476H282V406H192V317H123V406H33V476H123V565Z" glyph-name="uni207A" horiz-adv-x="316" unicode="&#8314;" /><glyph d="M37 477H287V406H37Z" glyph-name="uni207B" horiz-adv-x="324" unicode="&#8315;" /><glyph d="M42 424H292V361H42ZM42 525H292V462H42Z" glyph-name="uni207C" horiz-adv-x="334" unicode="&#8316;" /><glyph d="M22 446Q22 493 33.5 531Q45 569 65 597.5Q85 626 112 645.5Q139 665 169 675L182 598Q168 593 154.5 581.5Q141 570 130 552Q119 534 112 507.5Q105 481 105 446Q105 411 112 384.5Q119 358 130 340Q141 322 154.5 310.5Q168 299 182 294L169 217Q139 227 112 246.5Q85 266 65 294.5Q45 323 33.5 361Q22 399 22 446Z" glyph-name="uni207D" horiz-adv-x="204" unicode="&#8317;" /><glyph d="M182 446Q182 399 170.5 361Q159 323 139 294.5Q119 266 92 246.5Q65 227 35 217L22 294Q35 299 49 310.5Q63 322 73.5 340Q84 358 91 384.5Q98 411 98 446Q98 481 91 507.5Q84 534 73.5 552Q63 570 49 581.5Q35 593 22 598L35 675Q65 665 92 645.5Q119 626 139 597.5Q159 569 170.5 531Q182 493 182 446Z" glyph-name="uni207E" horiz-adv-x="204" unicode="&#8318;" /><glyph d="M164 75Q192 75 204 102.5Q216 130 216 168Q216 206 204 233.5Q192 261 164 261Q135 261 123 233.5Q111 206 111 168Q111 130 123 102.5Q135 75 164 75ZM164 -5Q132 -5 106.5 7.5Q81 20 62 43Q43 66 33 98Q23 130 23 168Q23 207 33 239Q43 271 62 294Q81 317 106.5 329.5Q132 342 164 342Q195 342 221 329.5Q247 317 265.5 294Q284 271 294 239Q304 207 304 168Q304 130 294 98Q284 66 265.5 43Q247 20 221 7.5Q195 -5 164 -5Z" glyph-name="uni2080" horiz-adv-x="327" unicode="&#8320;" /><glyph d="M184 0H95V236L15 198V287L121 336H184Z" glyph-name="uni2081" horiz-adv-x="223" unicode="&#8321;" /><glyph d="M174 231Q174 244 165 252.5Q156 261 142 261Q126 261 118.5 251.5Q111 242 109 229L19 245Q27 290 57.5 316Q88 342 142 342Q202 342 233.5 313Q265 284 265 237Q265 203 246 179Q227 155 202 130L148 78H266V0H19V58L137 173Q153 190 163.5 203Q174 216 174 231Z" glyph-name="uni2082" horiz-adv-x="290" unicode="&#8322;" /><glyph d="M115 202H135Q152 202 163.5 210Q175 218 175 235Q175 248 167 257Q159 266 143 266Q125 266 115.5 255.5Q106 245 104 230L20 245Q27 287 57.5 314.5Q88 342 142 342Q198 342 229.5 313Q261 284 261 238Q261 216 250.5 197Q240 178 226 169Q246 160 256 141.5Q266 123 266 100Q266 55 232.5 25Q199 -5 142 -5Q88 -5 54.5 21Q21 47 15 94L104 109Q106 92 115.5 81.5Q125 71 143 71Q159 71 169 80.5Q179 90 179 105Q179 122 167.5 129.5Q156 137 138 137H115Z" glyph-name="uni2083" horiz-adv-x="288" unicode="&#8323;" /><glyph d="M115 134H166V190H245V134H290V60H245V0H166V60H17V128L121 336H208Z" glyph-name="uni2084" horiz-adv-x="307" unicode="&#8324;" /><glyph d="M149 151Q125 151 112 135H37V336H248V260H111V211Q119 216 133 219.5Q147 223 161 223Q213 223 243 192.5Q273 162 273 111Q273 58 239 26.5Q205 -5 150 -5Q92 -5 59.5 21Q27 47 21 93L109 109Q111 91 121.5 80.5Q132 70 150 70Q167 70 177.5 81.5Q188 93 188 111Q188 128 178 139.5Q168 151 149 151Z" glyph-name="uni2085" horiz-adv-x="293" unicode="&#8325;" /><glyph d="M161 342Q211 342 240.5 319.5Q270 297 277 256L195 242Q189 267 160 267Q134 267 121 247.5Q108 228 108 202V198Q116 209 132 216Q148 223 169 223Q221 223 251 191Q281 159 281 113Q281 62 247.5 28.5Q214 -5 155 -5Q123 -5 96 9Q69 23 52 49Q22 94 22 161Q22 201 31 234.5Q40 268 58 292Q76 316 102 329Q128 342 161 342ZM112 110Q112 91 124 79.5Q136 68 156 68Q175 68 187 79.5Q199 91 199 110Q199 130 187 142.5Q175 155 156 155Q136 155 124 142.5Q112 130 112 110Z" glyph-name="uni2086" horiz-adv-x="304" unicode="&#8326;" /><glyph d="M149 0H56L157 258H16V336H255V275Z" glyph-name="uni2087" horiz-adv-x="276" unicode="&#8327;" /><glyph d="M149 65Q167 65 178.5 74.5Q190 84 190 100Q190 117 178.5 126.5Q167 136 149 136Q132 136 120 126.5Q108 117 108 100Q108 84 120 74.5Q132 65 149 65ZM149 208Q165 208 175.5 217Q186 226 186 241Q186 255 175.5 265Q165 275 149 275Q134 275 123.5 265Q113 255 113 241Q113 226 123.5 217Q134 208 149 208ZM149 -5Q122 -5 99 1.5Q76 8 58.5 20.5Q41 33 31 51.5Q21 70 21 93Q21 122 36 142Q51 162 74 170Q54 181 42.5 200Q31 219 31 243Q31 267 40.5 285.5Q50 304 66.5 316.5Q83 329 104.5 335.5Q126 342 149 342Q172 342 193.5 335.5Q215 329 231.5 316.5Q248 304 257.5 285.5Q267 267 267 243Q267 219 256 200Q245 181 225 170Q247 162 262.5 142Q278 122 278 93Q278 70 268 51.5Q258 33 240.5 20.5Q223 8 199.5 1.5Q176 -5 149 -5Z" glyph-name="uni2088" horiz-adv-x="300" unicode="&#8328;" /><glyph d="M143 -5Q93 -5 64 17.5Q35 40 28 81L109 94Q116 69 144 69Q170 69 183 88.5Q196 108 196 135V138Q188 128 172.5 121Q157 114 135 114Q84 114 54 146Q24 178 24 223Q24 274 57.5 308Q91 342 149 342Q182 342 208.5 327.5Q235 313 252 287Q268 264 274.5 236.5Q281 209 281 176Q281 95 246 45Q211 -5 143 -5ZM193 226Q193 246 180.5 257.5Q168 269 148 269Q130 269 117 257.5Q104 246 104 226Q104 206 117 193.5Q130 181 148 181Q168 181 180.5 193.5Q193 206 193 226Z" glyph-name="uni2089" horiz-adv-x="304" unicode="&#8329;" /><glyph d="M192 288V198H282V129H192V39H123V129H33V198H123V288Z" glyph-name="uni208A" horiz-adv-x="316" unicode="&#8330;" /><glyph d="M37 199H287V129H37Z" glyph-name="uni208B" horiz-adv-x="324" unicode="&#8331;" /><glyph d="M42 146H292V83H42ZM42 247H292V184H42Z" glyph-name="uni208C" horiz-adv-x="334" unicode="&#8332;" /><glyph d="M22 168Q22 215 33.5 253Q45 291 65 319.5Q85 348 112 367.5Q139 387 169 398L182 320Q168 315 154.5 304Q141 293 130 274.5Q119 256 112 230Q105 204 105 168Q105 133 112 106.5Q119 80 130 62Q141 44 154.5 32.5Q168 21 182 16L169 -60Q139 -50 112 -31Q85 -12 65 16.5Q45 45 33.5 83Q22 121 22 168Z" glyph-name="uni208D" horiz-adv-x="204" unicode="&#8333;" /><glyph d="M182 168Q182 121 170.5 83Q159 45 139 16.5Q119 -12 92 -31Q65 -50 35 -60L22 16Q35 21 49 32.5Q63 44 73.5 62Q84 80 91 106.5Q98 133 98 168Q98 204 91 230Q84 256 73.5 274.5Q63 293 49 304Q35 315 22 320L35 398Q65 387 92 367.5Q119 348 139 319.5Q159 291 170.5 253Q182 215 182 168Z" glyph-name="uni208E" horiz-adv-x="204" unicode="&#8334;" /><glyph d="M184 278H95V514L15 475V565L121 614H184ZM190 0H103L472 614H559ZM554 202H574Q591 202 602.5 210Q614 218 614 235Q614 248 606 257Q598 266 582 266Q564 266 554.5 255.5Q545 245 544 230L459 245Q466 287 496.5 314.5Q527 342 582 342Q637 342 668.5 313Q700 284 700 238Q700 216 689.5 197Q679 178 665 169Q685 160 695 141.5Q705 123 705 100Q705 55 671.5 25Q638 -5 581 -5Q527 -5 493.5 21Q460 47 454 94L543 109Q545 92 554.5 81.5Q564 71 582 71Q598 71 608 80.5Q618 90 618 105Q618 122 606.5 129.5Q595 137 577 137H554Z" glyph-name="uni2153" horiz-adv-x="727" unicode="&#8531;" /><glyph d="M174 509Q174 522 165 530Q156 538 142 538Q126 538 118.5 528.5Q111 519 109 506L19 522Q27 568 57.5 594Q88 620 142 620Q202 620 233.5 591Q265 562 265 514Q265 481 246 456.5Q227 432 202 408L148 356H266V278H19V336L137 451Q153 468 163.5 481Q174 494 174 509ZM257 0H170L539 614H626ZM620 202H641Q658 202 669.5 210Q681 218 681 235Q681 248 673 257Q665 266 648 266Q631 266 621.5 255.5Q612 245 610 230L526 245Q533 287 563.5 314.5Q594 342 648 342Q703 342 735 313Q767 284 767 238Q767 216 756.5 197Q746 178 732 169Q752 160 762 141.5Q772 123 772 100Q772 55 738.5 25Q705 -5 648 -5Q594 -5 560.5 21Q527 47 521 94L610 109Q612 92 621.5 81.5Q631 71 649 71Q665 71 675 80.5Q685 90 685 105Q685 122 673.5 129.5Q662 137 644 137H620Z" glyph-name="uni2154" horiz-adv-x="794" unicode="&#8532;" /><glyph d="M184 278H95V514L15 475V565L121 614H184ZM190 0H103L472 614H559ZM588 151Q564 151 551 135H476V336H687V260H550V211Q558 216 572 219.5Q586 223 600 223Q652 223 682 192.5Q712 162 712 111Q712 58 678 26.5Q644 -5 589 -5Q531 -5 499 21Q467 47 460 93L548 109Q550 91 560.5 80.5Q571 70 589 70Q606 70 616.5 81.5Q627 93 627 111Q627 128 617 139.5Q607 151 588 151Z" glyph-name="uni2155" horiz-adv-x="732" unicode="&#8533;" /><glyph d="M174 509Q174 522 165 530Q156 538 142 538Q126 538 118.5 528.5Q111 519 109 506L19 522Q27 568 57.5 594Q88 620 142 620Q202 620 233.5 591Q265 562 265 514Q265 481 246 456.5Q227 432 202 408L148 356H266V278H19V336L137 451Q153 468 163.5 481Q174 494 174 509ZM257 0H170L539 614H626ZM655 151Q631 151 618 135H543V336H753V260H616V211Q624 216 638.5 219.5Q653 223 667 223Q719 223 749 192.5Q779 162 779 111Q779 58 745 26.5Q711 -5 655 -5Q598 -5 565.5 21Q533 47 527 93L614 109Q616 91 627 80.5Q638 70 656 70Q673 70 683 81.5Q693 93 693 111Q693 128 683.5 139.5Q674 151 655 151Z" glyph-name="uni2156" horiz-adv-x="799" unicode="&#8534;" /><glyph d="M115 480H135Q152 480 163.5 488Q175 496 175 513Q175 526 167 535Q159 544 143 544Q125 544 115.5 533Q106 522 104 508L20 523Q27 565 57.5 592.5Q88 620 142 620Q198 620 229.5 591Q261 562 261 516Q261 494 250.5 474.5Q240 455 226 447Q246 438 256 419Q266 400 266 377Q266 332 232.5 302Q199 272 142 272Q88 272 54.5 298.5Q21 325 15 372L104 387Q106 370 115.5 359Q125 348 143 348Q159 348 169 357.5Q179 367 179 382Q179 399 167.5 407Q156 415 138 415H115ZM255 0H168L537 614H624ZM653 151Q629 151 616 135H541V336H751V260H614V211Q622 216 636.5 219.5Q651 223 665 223Q717 223 747 192.5Q777 162 777 111Q777 58 743 26.5Q709 -5 653 -5Q596 -5 563.5 21Q531 47 525 93L612 109Q614 91 625 80.5Q636 70 654 70Q671 70 681 81.5Q691 93 691 111Q691 128 681.5 139.5Q672 151 653 151Z" glyph-name="uni2157" horiz-adv-x="797" unicode="&#8535;" /><glyph d="M115 412H166V468H245V412H290V338H245V278H166V338H17V405L121 614H208ZM274 0H187L556 614H643ZM672 151Q648 151 635 135H560V336H771V260H634V211Q642 216 656 219.5Q670 223 684 223Q736 223 766 192.5Q796 162 796 111Q796 58 762 26.5Q728 -5 673 -5Q615 -5 582.5 21Q550 47 544 93L632 109Q634 91 644.5 80.5Q655 70 673 70Q690 70 700.5 81.5Q711 93 711 111Q711 128 701 139.5Q691 151 672 151Z" glyph-name="uni2158" horiz-adv-x="816" unicode="&#8536;" /></font>
</defs>
</svg>
