<?xml version="1.0" standalone="no"?><!DOCTYPE svg PUBLIC "-//W3C//DTD SVG 1.1//EN" "http://www.w3.org/Graphics/SVG/1.1/DTD/svg11.dtd" ><svg version="1.1" xmlns="http://www.w3.org/2000/svg"><defs><font horiz-adv-x="0" id="font"><font-face ascent="850" bbox="-120 -228 1328 894" cap-height="614" descent="-350" font-family="The Met Sans" font-stretch="normal" font-style="normal" font-weight="600" units-per-em="1000" x-height="444" /><missing-glyph d="M682 614V0H68V614ZM160 92H590V522H160ZM256 482 375 364 494 482 550 426 432 307 550 188 494 132 375 250 256 132 200 188 318 307 200 426Z" horiz-adv-x="750" /><glyph glyph-name=".null" horiz-adv-x="0" /><glyph d="M356 614 592 0H486L423 170H188L125 0H20L256 614ZM221 260H389L305 487Z" glyph-name="A" horiz-adv-x="612" unicode="A" /><glyph d="M820 614V522H541V360H792V269H541V93H820V0H439V170H227L128 0H20L375 614ZM279 260H439V533Z" glyph-name="AE" horiz-adv-x="865" unicode="&#198;" /><glyph d="M820 614V522H541V360H792V269H541V93H820V0H439V170H227L128 0H20L375 614ZM279 260H439V533ZM522 671 599 788H715L620 671Z" glyph-name="AEacute" horiz-adv-x="865" unicode="&#508;" /><glyph d="M356 614 592 0H486L423 170H188L125 0H20L256 614ZM221 260H389L305 487ZM250 671 327 788H443L348 671Z" glyph-name="Aacute" horiz-adv-x="612" unicode="&#193;" /><glyph d="M356 614 592 0H486L423 170H188L125 0H20L256 614ZM306 667Q248 667 213.5 699Q179 731 179 791H252Q252 765 267 752.5Q282 740 306 740Q331 740 346 752.5Q361 765 361 791H434Q434 731 399.5 699Q365 667 306 667ZM221 260H389L305 487Z" glyph-name="Abreve" horiz-adv-x="612" unicode="&#258;" /><glyph d="M356 614 592 0H486L423 170H188L125 0H20L256 614ZM446 671H357L306 731L255 671H166L260 795H352ZM221 260H389L305 487Z" glyph-name="Acircumflex" horiz-adv-x="612" unicode="&#194;" /><glyph d="M356 614 592 0H486L423 170H188L125 0H20L256 614ZM221 260H389L305 487ZM172 728Q172 754 188 770Q204 786 230 786Q256 786 272 770Q288 754 288 728Q288 702 272 686Q256 670 230 670Q204 670 188 686Q172 702 172 728ZM325 728Q325 754 341 770Q357 786 383 786Q409 786 425 770Q441 754 441 728Q441 702 425 686Q409 670 383 670Q357 670 341 686Q325 702 325 728Z" glyph-name="Adieresis" horiz-adv-x="612" unicode="&#196;" /><glyph d="M356 614 592 0H486L423 170H188L125 0H20L256 614ZM221 260H389L305 487ZM261 671 166 788H282L359 671Z" glyph-name="Agrave" horiz-adv-x="612" unicode="&#192;" /><glyph d="M356 614 592 0H486L423 170H188L125 0H20L256 614ZM221 260H389L305 487ZM194 750H419V671H194Z" glyph-name="Amacron" horiz-adv-x="612" unicode="&#256;" /><glyph d="M356 614 592 0Q563 -18 547 -37Q531 -56 531 -76Q531 -110 571 -110Q586 -110 598 -106.5Q610 -103 615 -99L628 -158Q621 -165 601.5 -172.5Q582 -180 552 -180Q502 -180 479.5 -156.5Q457 -133 457 -101Q457 -70 472.5 -44Q488 -18 513 0H486L423 170H188L125 0H20L256 614ZM221 260H389L305 487Z" glyph-name="Aogonek" horiz-adv-x="612" unicode="&#260;" /><glyph d="M356 614 592 0H486L423 170H188L125 0H20L256 614ZM399 740Q399 701 372 675Q345 649 306 649Q267 649 240 675Q213 701 213 740Q213 779 240 805Q267 831 306 831Q345 831 372 805Q399 779 399 740ZM221 260H389L305 487ZM348 740Q348 758 335.5 770Q323 782 306 782Q289 782 276.5 770Q264 758 264 740Q264 722 276.5 710Q289 698 306 698Q323 698 335.5 710Q348 722 348 740Z" glyph-name="Aring" horiz-adv-x="612" unicode="&#197;" /><glyph d="M356 614 592 0H486L423 170H188L125 0H20L256 614ZM398 710Q398 678 371 655.5Q344 633 305 633Q266 633 239 655.5Q212 678 212 710Q212 742 239 764.5Q266 787 305 787Q344 787 371 764.5Q398 742 398 710ZM221 260H389L305 487ZM432 894 361 806H263L316 894ZM305 678Q322 678 334.5 686.5Q347 695 347 710Q347 725 334.5 733.5Q322 742 305 742Q288 742 275.5 733.5Q263 725 263 710Q263 695 275.5 686.5Q288 678 305 678Z" glyph-name="Aringacute" horiz-adv-x="612" unicode="&#506;" /><glyph d="M356 614 592 0H486L423 170H188L125 0H20L256 614ZM449 797Q449 738 428.5 702Q408 666 366 666Q348 666 333.5 673.5Q319 681 306 690Q293 699 280.5 706.5Q268 714 255 714Q224 714 223 669H163Q163 728 183.5 764Q204 800 246 800Q264 800 278.5 792.5Q293 785 306 776Q319 767 331 759.5Q343 752 357 752Q388 752 389 797ZM221 260H389L305 487Z" glyph-name="Atilde" horiz-adv-x="612" unicode="&#195;" /><glyph d="M411 317Q455 303 483 264Q511 225 511 176Q511 89 455.5 44.5Q400 0 303 0H68V614H283Q380 614 435.5 572Q491 530 491 447Q491 397 468 363Q445 329 411 317ZM282 356Q391 356 391 441Q391 485 363.5 504.5Q336 524 282 524H169V356ZM169 90H301Q354 90 381.5 114Q409 138 409 180Q409 222 381.5 246Q354 270 301 270H169Z" glyph-name="B" horiz-adv-x="551" unicode="B" /><glyph d="M411 317Q455 303 483 264Q511 225 511 176Q511 89 455.5 44.5Q400 0 303 0H68V614H283Q380 614 435.5 572Q491 530 491 447Q491 397 468 363Q445 329 411 317ZM282 356Q391 356 391 441Q391 485 363.5 504.5Q336 524 282 524H169V356ZM169 90H301Q354 90 381.5 114Q409 138 409 180Q409 222 381.5 246Q354 270 301 270H169ZM217 728Q217 754 233 770Q249 786 275 786Q301 786 317 770Q333 754 333 728Q333 702 317 686Q301 670 275 670Q249 670 233 686Q217 702 217 728Z" glyph-name="Bdotaccent" horiz-adv-x="551" unicode="&#7682;" /><glyph d="M140 307Q140 259 152 218Q164 177 187 147Q210 117 243.5 100.5Q277 84 319 84Q435 84 462 193L562 175Q544 86 481.5 38Q419 -10 312 -10Q252 -10 201 13Q150 36 113.5 77.5Q77 119 56 177.5Q35 236 35 307Q35 378 56 436.5Q77 495 113.5 536.5Q150 578 201 601Q252 624 312 624Q419 624 481.5 576Q544 528 562 439L462 421Q435 530 319 530Q277 530 243.5 513.5Q210 497 187 467Q164 437 152 396Q140 355 140 307Z" glyph-name="C" horiz-adv-x="597" unicode="C" /><glyph d="M140 307Q140 259 152 218Q164 177 187 147Q210 117 243.5 100.5Q277 84 319 84Q435 84 462 193L562 175Q544 86 481.5 38Q419 -10 312 -10Q252 -10 201 13Q150 36 113.5 77.5Q77 119 56 177.5Q35 236 35 307Q35 378 56 436.5Q77 495 113.5 536.5Q150 578 201 601Q252 624 312 624Q419 624 481.5 576Q544 528 562 439L462 421Q435 530 319 530Q277 530 243.5 513.5Q210 497 187 467Q164 437 152 396Q140 355 140 307ZM265 671 342 788H458L363 671Z" glyph-name="Cacute" horiz-adv-x="597" unicode="&#262;" /><glyph d="M177 795H266L317 735L368 795H457L363 671H271ZM140 307Q140 259 152 218Q164 177 187 147Q210 117 243.5 100.5Q277 84 319 84Q435 84 462 193L562 175Q544 86 481.5 38Q419 -10 312 -10Q252 -10 201 13Q150 36 113.5 77.5Q77 119 56 177.5Q35 236 35 307Q35 378 56 436.5Q77 495 113.5 536.5Q150 578 201 601Q252 624 312 624Q419 624 481.5 576Q544 528 562 439L462 421Q435 530 319 530Q277 530 243.5 513.5Q210 497 187 467Q164 437 152 396Q140 355 140 307Z" glyph-name="Ccaron" horiz-adv-x="597" unicode="&#268;" /><glyph d="M290 -9Q234 -5 187 19.5Q140 44 106.5 85.5Q73 127 54 183Q35 239 35 307Q35 378 56 436.5Q77 495 113.5 536.5Q150 578 201 601Q252 624 312 624Q419 624 481.5 576Q544 528 562 439L462 421Q435 530 319 530Q277 530 243.5 513.5Q210 497 187 467Q164 437 152 396Q140 355 140 307Q140 259 152 218Q164 177 187 147Q210 117 243.5 100.5Q277 84 319 84Q435 84 462 193L562 175Q545 94 491 46.5Q437 -1 346 -8L342 -31Q373 -39 393 -57.5Q413 -76 413 -108Q413 -140 388.5 -160Q364 -180 316 -180Q291 -180 271.5 -174Q252 -168 238 -159L251 -107Q262 -113 277.5 -117Q293 -121 309 -121Q327 -121 338 -116Q349 -111 349 -100Q349 -83 330.5 -74.5Q312 -66 280 -64Z" glyph-name="Ccedilla" horiz-adv-x="597" unicode="&#199;" /><glyph d="M140 307Q140 259 152 218Q164 177 187 147Q210 117 243.5 100.5Q277 84 319 84Q435 84 462 193L562 175Q544 86 481.5 38Q419 -10 312 -10Q252 -10 201 13Q150 36 113.5 77.5Q77 119 56 177.5Q35 236 35 307Q35 378 56 436.5Q77 495 113.5 536.5Q150 578 201 601Q252 624 312 624Q419 624 481.5 576Q544 528 562 439L462 421Q435 530 319 530Q277 530 243.5 513.5Q210 497 187 467Q164 437 152 396Q140 355 140 307ZM462 671H373L322 731L271 671H182L276 795H368Z" glyph-name="Ccircumflex" horiz-adv-x="597" unicode="&#264;" /><glyph d="M259 728Q259 754 275 770Q291 786 317 786Q343 786 359 770Q375 754 375 728Q375 702 359 686Q343 670 317 670Q291 670 275 686Q259 702 259 728ZM140 307Q140 259 152 218Q164 177 187 147Q210 117 243.5 100.5Q277 84 319 84Q435 84 462 193L562 175Q544 86 481.5 38Q419 -10 312 -10Q252 -10 201 13Q150 36 113.5 77.5Q77 119 56 177.5Q35 236 35 307Q35 378 56 436.5Q77 495 113.5 536.5Q150 578 201 601Q252 624 312 624Q419 624 481.5 576Q544 528 562 439L462 421Q435 530 319 530Q277 530 243.5 513.5Q210 497 187 467Q164 437 152 396Q140 355 140 307Z" glyph-name="Cdotaccent" horiz-adv-x="597" unicode="&#266;" /><glyph d="M271 93Q368 93 418.5 150.5Q469 208 469 307Q469 407 418.5 464.5Q368 522 271 522H172V93ZM68 614H275Q343 614 398 592.5Q453 571 492 531Q531 491 552 434Q573 377 573 307Q573 237 552 180Q531 123 492 83Q453 43 398 21.5Q343 0 275 0H68Z" glyph-name="D" horiz-adv-x="608" unicode="D" /><glyph d="M142 795H231L282 735L333 795H422L328 671H236ZM271 93Q368 93 418.5 150.5Q469 208 469 307Q469 407 418.5 464.5Q368 522 271 522H172V93ZM68 614H275Q343 614 398 592.5Q453 571 492 531Q531 491 552 434Q573 377 573 307Q573 237 552 180Q531 123 492 83Q453 43 398 21.5Q343 0 275 0H68Z" glyph-name="Dcaron" horiz-adv-x="608" unicode="&#270;" /><glyph d="M30 361H85V614H292Q360 614 415 592.5Q470 571 509 531Q548 491 569 434Q590 377 590 307Q590 237 569 180Q548 123 509 83Q470 43 415 21.5Q360 0 292 0H85V273H30ZM288 93Q385 93 435.5 150.5Q486 208 486 307Q486 407 435.5 464.5Q385 522 288 522H189V361H305V273H189V93Z" glyph-name="Dcroat" horiz-adv-x="625" unicode="&#272;" /><glyph d="M271 93Q368 93 418.5 150.5Q469 208 469 307Q469 407 418.5 464.5Q368 522 271 522H172V93ZM68 614H275Q343 614 398 592.5Q453 571 492 531Q531 491 552 434Q573 377 573 307Q573 237 552 180Q531 123 492 83Q453 43 398 21.5Q343 0 275 0H68ZM226 728Q226 754 242 770Q258 786 284 786Q310 786 326 770Q342 754 342 728Q342 702 326 686Q310 670 284 670Q258 670 242 686Q226 702 226 728Z" glyph-name="Ddotaccent" horiz-adv-x="608" unicode="&#7690;" /><glyph d="M469 614V522H170V360H441V269H170V93H469V0H68V614Z" glyph-name="E" horiz-adv-x="514" unicode="E" /><glyph d="M216 671 293 788H409L314 671ZM469 614V522H170V360H441V269H170V93H469V0H68V614Z" glyph-name="Eacute" horiz-adv-x="514" unicode="&#201;" /><glyph d="M272 667Q214 667 179.5 699Q145 731 145 791H218Q218 765 233 752.5Q248 740 272 740Q297 740 312 752.5Q327 765 327 791H400Q400 731 365.5 699Q331 667 272 667ZM469 614V522H170V360H441V269H170V93H469V0H68V614Z" glyph-name="Ebreve" horiz-adv-x="514" unicode="&#276;" /><glyph d="M138 795H227L278 735L329 795H418L324 671H232ZM469 614V522H170V360H441V269H170V93H469V0H68V614Z" glyph-name="Ecaron" horiz-adv-x="514" unicode="&#282;" /><glyph d="M469 614V522H170V360H441V269H170V93H469V0H68V614ZM412 671H323L272 731L221 671H132L226 795H318Z" glyph-name="Ecircumflex" horiz-adv-x="514" unicode="&#202;" /><glyph d="M138 728Q138 754 154 770Q170 786 196 786Q222 786 238 770Q254 754 254 728Q254 702 238 686Q222 670 196 670Q170 670 154 686Q138 702 138 728ZM291 728Q291 754 307 770Q323 786 349 786Q375 786 391 770Q407 754 407 728Q407 702 391 686Q375 670 349 670Q323 670 307 686Q291 702 291 728ZM469 614V522H170V360H441V269H170V93H469V0H68V614Z" glyph-name="Edieresis" horiz-adv-x="514" unicode="&#203;" /><glyph d="M214 728Q214 754 230 770Q246 786 272 786Q298 786 314 770Q330 754 330 728Q330 702 314 686Q298 670 272 670Q246 670 230 686Q214 702 214 728ZM469 614V522H170V360H441V269H170V93H469V0H68V614Z" glyph-name="Edotaccent" horiz-adv-x="514" unicode="&#278;" /><glyph d="M227 671 132 788H248L325 671ZM469 614V522H170V360H441V269H170V93H469V0H68V614Z" glyph-name="Egrave" horiz-adv-x="514" unicode="&#200;" /><glyph d="M160 750H385V671H160ZM469 614V522H170V360H441V269H170V93H469V0H68V614Z" glyph-name="Emacron" horiz-adv-x="514" unicode="&#274;" /><glyph d="M562 -40Q562 -106 526.5 -143Q491 -180 422 -180Q411 -180 396 -178.5Q381 -177 373 -172L388 -90Q400 -95 413 -95Q438 -95 450 -81Q462 -67 462 -35V28L168 447V0H68V614H166L462 188V614H562Z" glyph-name="Eng" horiz-adv-x="630" unicode="&#330;" /><glyph d="M469 614V522H170V360H441V269H170V93H469V0Q440 -18 424 -37Q408 -56 408 -76Q408 -110 448 -110Q463 -110 475 -106.5Q487 -103 492 -99L505 -158Q498 -165 478.5 -172.5Q459 -180 429 -180Q379 -180 356.5 -156.5Q334 -133 334 -101Q334 -70 349.5 -44Q365 -18 390 0H68V614Z" glyph-name="Eogonek" horiz-adv-x="514" unicode="&#280;" /><glyph d="M30 361H85V614H292Q360 614 415 592.5Q470 571 509 531Q548 491 569 434Q590 377 590 307Q590 237 569 180Q548 123 509 83Q470 43 415 21.5Q360 0 292 0H85V273H30ZM288 93Q385 93 435.5 150.5Q486 208 486 307Q486 407 435.5 464.5Q385 522 288 522H189V361H305V273H189V93Z" glyph-name="Eth" horiz-adv-x="625" unicode="&#208;" /><glyph d="M28 413H87Q108 512 167.5 568Q227 624 318 624Q394 624 450 583.5Q506 543 522 465L431 449Q423 490 391.5 511.5Q360 533 316 533Q264 533 232.5 501.5Q201 470 187 413H409L374 336H177V278H350L315 201H187Q201 144 232.5 112.5Q264 81 316 81Q360 81 391.5 102.5Q423 124 431 165L522 149Q506 71 450 30.5Q394 -10 318 -10Q227 -10 167.5 46Q108 102 87 201H28V278H77V336H28Z" glyph-name="Euro" horiz-adv-x="547" unicode="&#8364;" /><glyph d="M23 413H81Q101 512 156.5 568Q212 624 303 624Q379 624 430 583.5Q481 543 497 465L406 449Q398 490 371.5 511.5Q345 533 301 533Q249 533 220 501.5Q191 470 180 413H384L349 336H172V278H325L290 201H180Q191 144 220 112.5Q249 81 301 81Q345 81 371.5 102.5Q398 124 406 165L497 149Q481 71 430 30.5Q379 -10 303 -10Q212 -10 156.5 46Q101 102 81 201H23V278H72V336H23Z" glyph-name="Euro.lt" horiz-adv-x="520" /><glyph d="M68 0V614H460V522H172V340H441V249H172V0Z" glyph-name="F" horiz-adv-x="495" unicode="F" /><glyph d="M68 0V614H460V522H172V340H441V249H172V0ZM215 728Q215 754 231 770Q247 786 273 786Q299 786 315 770Q331 754 331 728Q331 702 315 686Q299 670 273 670Q247 670 231 686Q215 702 215 728Z" glyph-name="Fdotaccent" horiz-adv-x="495" unicode="&#7710;" /><glyph d="M352 228V317H585V269Q585 204 566.5 152.5Q548 101 513.5 65Q479 29 430 9.5Q381 -10 321 -10Q258 -10 205.5 13Q153 36 115 77.5Q77 119 56 177.5Q35 236 35 307Q35 378 56 436.5Q77 495 114.5 536.5Q152 578 205 601Q258 624 323 624Q424 624 488.5 574Q553 524 568 439L468 421Q455 471 421 500.5Q387 530 318 530Q275 530 241.5 513.5Q208 497 185.5 467.5Q163 438 151.5 397Q140 356 140 307Q140 258 152 217Q164 176 188 146.5Q212 117 247 100.5Q282 84 329 84Q399 84 438.5 120.5Q478 157 486 228Z" glyph-name="G" horiz-adv-x="620" unicode="G" /><glyph d="M321 667Q263 667 228.5 699Q194 731 194 791H267Q267 765 282 752.5Q297 740 321 740Q346 740 361 752.5Q376 765 376 791H449Q449 731 414.5 699Q380 667 321 667ZM352 228V317H585V269Q585 204 566.5 152.5Q548 101 513.5 65Q479 29 430 9.5Q381 -10 321 -10Q258 -10 205.5 13Q153 36 115 77.5Q77 119 56 177.5Q35 236 35 307Q35 378 56 436.5Q77 495 114.5 536.5Q152 578 205 601Q258 624 323 624Q424 624 488.5 574Q553 524 568 439L468 421Q455 471 421 500.5Q387 530 318 530Q275 530 241.5 513.5Q208 497 185.5 467.5Q163 438 151.5 397Q140 356 140 307Q140 258 152 217Q164 176 188 146.5Q212 117 247 100.5Q282 84 329 84Q399 84 438.5 120.5Q478 157 486 228Z" glyph-name="Gbreve" horiz-adv-x="620" unicode="&#286;" /><glyph d="M459 671H370L319 731L268 671H179L273 795H365ZM352 228V317H585V269Q585 204 566.5 152.5Q548 101 513.5 65Q479 29 430 9.5Q381 -10 321 -10Q258 -10 205.5 13Q153 36 115 77.5Q77 119 56 177.5Q35 236 35 307Q35 378 56 436.5Q77 495 114.5 536.5Q152 578 205 601Q258 624 323 624Q424 624 488.5 574Q553 524 568 439L468 421Q455 471 421 500.5Q387 530 318 530Q275 530 241.5 513.5Q208 497 185.5 467.5Q163 438 151.5 397Q140 356 140 307Q140 258 152 217Q164 176 188 146.5Q212 117 247 100.5Q282 84 329 84Q399 84 438.5 120.5Q478 157 486 228Z" glyph-name="Gcircumflex" horiz-adv-x="620" unicode="&#284;" /><glyph d="M352 228V317H585V269Q585 204 566.5 152.5Q548 101 513.5 65Q479 29 430 9.5Q381 -10 321 -10Q258 -10 205.5 13Q153 36 115 77.5Q77 119 56 177.5Q35 236 35 307Q35 378 56 436.5Q77 495 114.5 536.5Q152 578 205 601Q258 624 323 624Q424 624 488.5 574Q553 524 568 439L468 421Q455 471 421 500.5Q387 530 318 530Q275 530 241.5 513.5Q208 497 185.5 467.5Q163 438 151.5 397Q140 356 140 307Q140 258 152 217Q164 176 188 146.5Q212 117 247 100.5Q282 84 329 84Q399 84 438.5 120.5Q478 157 486 228ZM274 -152Q291 -149 304.5 -143Q318 -137 326 -125H316Q294 -125 280 -111.5Q266 -98 266 -76Q266 -54 281.5 -40.5Q297 -27 318 -27Q347 -27 362.5 -44.5Q378 -62 378 -94Q378 -131 353 -156.5Q328 -182 282 -190Z" glyph-name="Gcommaaccent" horiz-adv-x="620" unicode="&#290;" /><glyph d="M264 728Q264 754 280 770Q296 786 322 786Q348 786 364 770Q380 754 380 728Q380 702 364 686Q348 670 322 670Q296 670 280 686Q264 702 264 728ZM352 228V317H585V269Q585 204 566.5 152.5Q548 101 513.5 65Q479 29 430 9.5Q381 -10 321 -10Q258 -10 205.5 13Q153 36 115 77.5Q77 119 56 177.5Q35 236 35 307Q35 378 56 436.5Q77 495 114.5 536.5Q152 578 205 601Q258 624 323 624Q424 624 488.5 574Q553 524 568 439L468 421Q455 471 421 500.5Q387 530 318 530Q275 530 241.5 513.5Q208 497 185.5 467.5Q163 438 151.5 397Q140 356 140 307Q140 258 152 217Q164 176 188 146.5Q212 117 247 100.5Q282 84 329 84Q399 84 438.5 120.5Q478 157 486 228Z" glyph-name="Gdotaccent" horiz-adv-x="620" unicode="&#288;" /><glyph d="M585 614V0H481V269H172V0H68V614H172V361H481V614Z" glyph-name="H" horiz-adv-x="653" unicode="H" /><glyph d="M30 509H83V614H187V509H496V614H600V509H653V423H600V0H496V229H187V0H83V423H30ZM496 315V423H187V315Z" glyph-name="Hbar" horiz-adv-x="683" unicode="&#294;" /><glyph d="M585 614V0H481V269H172V0H68V614H172V361H481V614ZM466 671H377L326 731L275 671H186L280 795H372Z" glyph-name="Hcircumflex" horiz-adv-x="653" unicode="&#292;" /><glyph d="M172 0H68V614H172Z" glyph-name="I" horiz-adv-x="240" unicode="I" /><glyph d="M172 0H68V614H172ZM283 -10Q263 -10 242.5 -5.5Q222 -1 214 5L230 90Q238 85 250.5 81.5Q263 78 274 78Q300 78 312.5 93Q325 108 325 141V614H429V136Q429 67 392 28.5Q355 -10 283 -10Z" glyph-name="IJ" horiz-adv-x="492" unicode="&#306;" /><glyph d="M172 0H68V614H172ZM64 671 141 788H257L162 671Z" glyph-name="Iacute" horiz-adv-x="240" unicode="&#205;" /><glyph d="M172 0H68V614H172ZM120 667Q62 667 27.5 699Q-7 731 -7 791H66Q66 765 81 752.5Q96 740 120 740Q145 740 160 752.5Q175 765 175 791H248Q248 731 213.5 699Q179 667 120 667Z" glyph-name="Ibreve" horiz-adv-x="240" unicode="&#300;" /><glyph d="M172 0H68V614H172ZM260 671H171L120 731L69 671H-20L74 795H166Z" glyph-name="Icircumflex" horiz-adv-x="240" unicode="&#206;" /><glyph d="M172 0H68V614H172ZM-14 728Q-14 754 2 770Q18 786 44 786Q70 786 86 770Q102 754 102 728Q102 702 86 686Q70 670 44 670Q18 670 2 686Q-14 702 -14 728ZM139 728Q139 754 155 770Q171 786 197 786Q223 786 239 770Q255 754 255 728Q255 702 239 686Q223 670 197 670Q171 670 155 686Q139 702 139 728Z" glyph-name="Idieresis" horiz-adv-x="240" unicode="&#207;" /><glyph d="M172 0H68V614H172ZM62 728Q62 754 78 770Q94 786 120 786Q146 786 162 770Q178 754 178 728Q178 702 162 686Q146 670 120 670Q94 670 78 686Q62 702 62 728Z" glyph-name="Idotaccent" horiz-adv-x="240" unicode="&#304;" /><glyph d="M172 0H68V614H172ZM75 671 -20 788H96L173 671Z" glyph-name="Igrave" horiz-adv-x="240" unicode="&#204;" /><glyph d="M172 0H68V614H172ZM8 750H233V671H8Z" glyph-name="Imacron" horiz-adv-x="240" unicode="&#298;" /><glyph d="M172 0Q143 -18 127 -37Q111 -56 111 -76Q111 -110 151 -110Q166 -110 178 -106.5Q190 -103 195 -99L208 -158Q201 -165 181.5 -172.5Q162 -180 132 -180Q82 -180 59.5 -156.5Q37 -133 37 -101Q37 -70 52.5 -44Q68 -18 93 0H68V614H172Z" glyph-name="Iogonek" horiz-adv-x="240" unicode="&#302;" /><glyph d="M172 0H68V614H172ZM263 797Q263 738 242.5 702Q222 666 180 666Q162 666 147.5 673.5Q133 681 120 690Q107 699 94.5 706.5Q82 714 69 714Q38 714 37 669H-23Q-23 728 -2.5 764Q18 800 60 800Q78 800 92.5 792.5Q107 785 120 776Q133 767 145 759.5Q157 752 171 752Q202 752 203 797Z" glyph-name="Itilde" horiz-adv-x="240" unicode="&#296;" /><glyph d="M119 150Q123 119 140 102Q157 85 189 85Q265 85 265 174V614H369V173Q369 83 321 36.5Q273 -10 188 -10Q144 -10 113 1.5Q82 13 62 32.5Q42 52 31.5 78Q21 104 17 132Z" glyph-name="J" horiz-adv-x="425" unicode="J" /><glyph d="M458 671H369L318 731L267 671H178L272 795H364ZM119 150Q123 119 140 102Q157 85 189 85Q265 85 265 174V614H369V173Q369 83 321 36.5Q273 -10 188 -10Q144 -10 113 1.5Q82 13 62 32.5Q42 52 31.5 78Q21 104 17 132Z" glyph-name="Jcircumflex" horiz-adv-x="425" unicode="&#308;" /><glyph d="M172 320 427 614H558L310 335L567 0H437L235 263L172 191V0H68V614H172Z" glyph-name="K" horiz-adv-x="582" unicode="K" /><glyph d="M172 320 427 614H558L310 335L567 0H437L235 263L172 191V0H68V614H172ZM228 -152Q245 -149 258.5 -143Q272 -137 280 -125H270Q248 -125 234 -111.5Q220 -98 220 -76Q220 -54 235.5 -40.5Q251 -27 272 -27Q301 -27 316.5 -44.5Q332 -62 332 -94Q332 -131 307 -156.5Q282 -182 236 -190Z" glyph-name="Kcommaaccent" horiz-adv-x="582" unicode="&#310;" /><glyph d="M68 614H172V93H467V0H68Z" glyph-name="L" horiz-adv-x="505" unicode="L" /><glyph d="M75 671 152 788H268L173 671ZM68 614H172V93H467V0H68Z" glyph-name="Lacute" horiz-adv-x="505" unicode="&#313;" /><glyph d="M291 447 315 614H393L369 447ZM68 614H172V93H467V0H68Z" glyph-name="Lcaron" horiz-adv-x="505" unicode="&#317;" /><glyph d="M68 614H172V93H467V0H68ZM225 -152Q242 -149 255.5 -143Q269 -137 277 -125H267Q245 -125 231 -111.5Q217 -98 217 -76Q217 -54 232.5 -40.5Q248 -27 269 -27Q298 -27 313.5 -44.5Q329 -62 329 -94Q329 -131 304 -156.5Q279 -182 233 -190Z" glyph-name="Lcommaaccent" horiz-adv-x="505" unicode="&#315;" /><glyph d="M68 614H172V93H467V0H68ZM309 307Q309 333 325 349Q341 365 367 365Q393 365 409 349Q425 333 425 307Q425 281 409 265Q393 249 367 249Q341 249 325 265Q309 281 309 307Z" glyph-name="Ldot" horiz-adv-x="505" unicode="&#319;" /><glyph d="M30 302 94 329V614H198V367L349 430V335L198 273V93H493V0H94V233L30 207Z" glyph-name="Lslash" horiz-adv-x="531" unicode="&#321;" /><glyph d="M336 0 167 427V0H68V614H187L374 142L559 614H675V0H575V427L410 0Z" glyph-name="M" horiz-adv-x="743" unicode="M" /><glyph d="M336 0 167 427V0H68V614H187L374 142L559 614H675V0H575V427L410 0ZM316 728Q316 754 332 770Q348 786 374 786Q400 786 416 770Q432 754 432 728Q432 702 416 686Q400 670 374 670Q348 670 332 686Q316 702 316 728Z" glyph-name="Mdotaccent" horiz-adv-x="743" unicode="&#7744;" /><glyph d="M562 0H482L168 447V0H68V614H166L462 188V614H562Z" glyph-name="N" horiz-adv-x="630" unicode="N" /><glyph d="M259 671 336 788H452L357 671ZM562 0H482L168 447V0H68V614H166L462 188V614H562Z" glyph-name="Nacute" horiz-adv-x="630" unicode="&#323;" /><glyph d="M175 795H264L315 735L366 795H455L361 671H269ZM562 0H482L168 447V0H68V614H166L462 188V614H562Z" glyph-name="Ncaron" horiz-adv-x="630" unicode="&#327;" /><glyph d="M562 0H482L168 447V0H68V614H166L462 188V614H562ZM271 -152Q288 -149 301.5 -143Q315 -137 323 -125H313Q291 -125 277 -111.5Q263 -98 263 -76Q263 -54 278.5 -40.5Q294 -27 315 -27Q344 -27 359.5 -44.5Q375 -62 375 -94Q375 -131 350 -156.5Q325 -182 279 -190Z" glyph-name="Ncommaaccent" horiz-adv-x="630" unicode="&#325;" /><glyph d="M458 797Q458 738 437.5 702Q417 666 375 666Q357 666 342.5 673.5Q328 681 315 690Q302 699 289.5 706.5Q277 714 264 714Q233 714 232 669H172Q172 728 192.5 764Q213 800 255 800Q273 800 287.5 792.5Q302 785 315 776Q328 767 340 759.5Q352 752 366 752Q397 752 398 797ZM562 0H482L168 447V0H68V614H166L462 188V614H562Z" glyph-name="Ntilde" horiz-adv-x="630" unicode="&#209;" /><glyph d="M602 307Q602 238 581 180Q560 122 522.5 80Q485 38 432.5 14Q380 -10 318 -10Q256 -10 204 14Q152 38 114.5 80Q77 122 56 180Q35 238 35 307Q35 376 56 434Q77 492 114.5 534.5Q152 577 204 600.5Q256 624 318 624Q380 624 432.5 600.5Q485 577 522.5 534.5Q560 492 581 434Q602 376 602 307ZM497 307Q497 356 484 397Q471 438 448 468Q425 498 391.5 514.5Q358 531 318 531Q277 531 244.5 514.5Q212 498 188.5 468Q165 438 152.5 397Q140 356 140 307Q140 258 152.5 217Q165 176 188.5 146Q212 116 244.5 99.5Q277 83 318 83Q358 83 391.5 99.5Q425 116 448 146Q471 176 484 217Q497 258 497 307Z" glyph-name="O" horiz-adv-x="637" unicode="O" /><glyph d="M776 522H497V360H748V269H497V93H776V0H333Q265 0 210 21.5Q155 43 116 83Q77 123 56 180Q35 237 35 307Q35 377 56 434Q77 491 116 531Q155 571 210 592.5Q265 614 333 614H776ZM395 93V522H337Q240 522 189.5 464.5Q139 407 139 307Q139 208 189.5 150.5Q240 93 337 93Z" glyph-name="OE" horiz-adv-x="821" unicode="&#338;" /><glyph d="M262 671 339 788H455L360 671ZM602 307Q602 238 581 180Q560 122 522.5 80Q485 38 432.5 14Q380 -10 318 -10Q256 -10 204 14Q152 38 114.5 80Q77 122 56 180Q35 238 35 307Q35 376 56 434Q77 492 114.5 534.5Q152 577 204 600.5Q256 624 318 624Q380 624 432.5 600.5Q485 577 522.5 534.5Q560 492 581 434Q602 376 602 307ZM497 307Q497 356 484 397Q471 438 448 468Q425 498 391.5 514.5Q358 531 318 531Q277 531 244.5 514.5Q212 498 188.5 468Q165 438 152.5 397Q140 356 140 307Q140 258 152.5 217Q165 176 188.5 146Q212 116 244.5 99.5Q277 83 318 83Q358 83 391.5 99.5Q425 116 448 146Q471 176 484 217Q497 258 497 307Z" glyph-name="Oacute" horiz-adv-x="637" unicode="&#211;" /><glyph d="M318 667Q260 667 225.5 699Q191 731 191 791H264Q264 765 279 752.5Q294 740 318 740Q343 740 358 752.5Q373 765 373 791H446Q446 731 411.5 699Q377 667 318 667ZM602 307Q602 238 581 180Q560 122 522.5 80Q485 38 432.5 14Q380 -10 318 -10Q256 -10 204 14Q152 38 114.5 80Q77 122 56 180Q35 238 35 307Q35 376 56 434Q77 492 114.5 534.5Q152 577 204 600.5Q256 624 318 624Q380 624 432.5 600.5Q485 577 522.5 534.5Q560 492 581 434Q602 376 602 307ZM497 307Q497 356 484 397Q471 438 448 468Q425 498 391.5 514.5Q358 531 318 531Q277 531 244.5 514.5Q212 498 188.5 468Q165 438 152.5 397Q140 356 140 307Q140 258 152.5 217Q165 176 188.5 146Q212 116 244.5 99.5Q277 83 318 83Q358 83 391.5 99.5Q425 116 448 146Q471 176 484 217Q497 258 497 307Z" glyph-name="Obreve" horiz-adv-x="637" unicode="&#334;" /><glyph d="M602 307Q602 238 581 180Q560 122 522.5 80Q485 38 432.5 14Q380 -10 318 -10Q256 -10 204 14Q152 38 114.5 80Q77 122 56 180Q35 238 35 307Q35 376 56 434Q77 492 114.5 534.5Q152 577 204 600.5Q256 624 318 624Q380 624 432.5 600.5Q485 577 522.5 534.5Q560 492 581 434Q602 376 602 307ZM497 307Q497 356 484 397Q471 438 448 468Q425 498 391.5 514.5Q358 531 318 531Q277 531 244.5 514.5Q212 498 188.5 468Q165 438 152.5 397Q140 356 140 307Q140 258 152.5 217Q165 176 188.5 146Q212 116 244.5 99.5Q277 83 318 83Q358 83 391.5 99.5Q425 116 448 146Q471 176 484 217Q497 258 497 307ZM458 671H369L318 731L267 671H178L272 795H364Z" glyph-name="Ocircumflex" horiz-adv-x="637" unicode="&#212;" /><glyph d="M300 728Q300 702 284 686Q268 670 242 670Q216 670 200 686Q184 702 184 728Q184 754 200 770Q216 786 242 786Q268 786 284 770Q300 754 300 728ZM337 728Q337 754 353 770Q369 786 395 786Q421 786 437 770Q453 754 453 728Q453 702 437 686Q421 670 395 670Q369 670 353 686Q337 702 337 728ZM140 307Q140 258 152.5 217Q165 176 188.5 146Q212 116 244.5 99.5Q277 83 318 83Q358 83 391.5 99.5Q425 116 448 146Q471 176 484 217Q497 258 497 307Q497 356 484 397Q471 438 448 468Q425 498 391.5 514.5Q358 531 318 531Q277 531 244.5 514.5Q212 498 188.5 468Q165 438 152.5 397Q140 356 140 307ZM602 307Q602 238 581 180Q560 122 522.5 80Q485 38 432.5 14Q380 -10 318 -10Q256 -10 204 14Q152 38 114.5 80Q77 122 56 180Q35 238 35 307Q35 376 56 434Q77 492 114.5 534.5Q152 577 204 600.5Q256 624 318 624Q380 624 432.5 600.5Q485 577 522.5 534.5Q560 492 581 434Q602 376 602 307Z" glyph-name="Odieresis" horiz-adv-x="637" unicode="&#214;" /><glyph d="M497 307Q497 356 484 397Q471 438 448 468Q425 498 391.5 514.5Q358 531 318 531Q277 531 244.5 514.5Q212 498 188.5 468Q165 438 152.5 397Q140 356 140 307Q140 258 152.5 217Q165 176 188.5 146Q212 116 244.5 99.5Q277 83 318 83Q358 83 391.5 99.5Q425 116 448 146Q471 176 484 217Q497 258 497 307ZM35 307Q35 376 56 434Q77 492 114.5 534.5Q152 577 204 600.5Q256 624 318 624Q380 624 432.5 600.5Q485 577 522.5 534.5Q560 492 581 434Q602 376 602 307Q602 238 581 180Q560 122 522.5 80Q485 38 432.5 14Q380 -10 318 -10Q256 -10 204 14Q152 38 114.5 80Q77 122 56 180Q35 238 35 307ZM371 671H273L178 788H294Z" glyph-name="Ograve" horiz-adv-x="637" unicode="&#210;" /><glyph d="M602 307Q602 238 581 180Q560 122 522.5 80Q485 38 432.5 14Q380 -10 318 -10Q256 -10 204 14Q152 38 114.5 80Q77 122 56 180Q35 238 35 307Q35 376 56 434Q77 492 114.5 534.5Q152 577 204 600.5Q256 624 318 624Q380 624 432.5 600.5Q485 577 522.5 534.5Q560 492 581 434Q602 376 602 307ZM497 307Q497 356 484 397Q471 438 448 468Q425 498 391.5 514.5Q358 531 318 531Q277 531 244.5 514.5Q212 498 188.5 468Q165 438 152.5 397Q140 356 140 307Q140 258 152.5 217Q165 176 188.5 146Q212 116 244.5 99.5Q277 83 318 83Q358 83 391.5 99.5Q425 116 448 146Q471 176 484 217Q497 258 497 307ZM217 671 277 788H362L300 671ZM350 671 410 788H495L433 671Z" glyph-name="Ohungarumlaut" horiz-adv-x="637" unicode="&#336;" /><glyph d="M318 83Q358 83 391.5 99.5Q425 116 448 146Q471 176 484 217Q497 258 497 307Q497 356 484 397Q471 438 448 468Q425 498 391.5 514.5Q358 531 318 531Q277 531 244.5 514.5Q212 498 188.5 468Q165 438 152.5 397Q140 356 140 307Q140 258 152.5 217Q165 176 188.5 146Q212 116 244.5 99.5Q277 83 318 83ZM602 307Q602 238 581 180Q560 122 522.5 80Q485 38 432.5 14Q380 -10 318 -10Q256 -10 204 14Q152 38 114.5 80Q77 122 56 180Q35 238 35 307Q35 376 56 434Q77 492 114.5 534.5Q152 577 204 600.5Q256 624 318 624Q380 624 432.5 600.5Q485 577 522.5 534.5Q560 492 581 434Q602 376 602 307ZM431 671H206V750H431Z" glyph-name="Omacron" horiz-adv-x="637" unicode="&#332;" /><glyph d="M106 90Q72 132 53.5 187Q35 242 35 307Q35 376 56 434Q77 492 114.5 534.5Q152 577 204 600.5Q256 624 318 624Q365 624 405.5 610.5Q446 597 480 572L523 628L583 587L532 522Q565 480 583.5 425.5Q602 371 602 307Q602 238 581 180Q560 122 522.5 80Q485 38 432.5 14Q380 -10 318 -10Q227 -10 158 39L117 -14L57 27ZM140 307Q140 228 170 173L420 496Q399 513 373 522Q347 531 318 531Q277 531 244.5 514.5Q212 498 188.5 468Q165 438 152.5 397Q140 356 140 307ZM497 307Q497 345 489 378Q481 411 467 438L218 116Q260 83 318 83Q358 83 391.5 99.5Q425 116 448 146Q471 176 484 217Q497 258 497 307Z" glyph-name="Oslash" horiz-adv-x="637" unicode="&#216;" /><glyph d="M106 90Q72 132 53.5 187Q35 242 35 307Q35 376 56 434Q77 492 114.5 534.5Q152 577 204 600.5Q256 624 318 624Q365 624 405.5 610.5Q446 597 480 572L523 628L583 587L532 522Q565 480 583.5 425.5Q602 371 602 307Q602 238 581 180Q560 122 522.5 80Q485 38 432.5 14Q380 -10 318 -10Q227 -10 158 39L117 -14L57 27ZM140 307Q140 228 170 173L420 496Q399 513 373 522Q347 531 318 531Q277 531 244.5 514.5Q212 498 188.5 468Q165 438 152.5 397Q140 356 140 307ZM497 307Q497 345 489 378Q481 411 467 438L218 116Q260 83 318 83Q358 83 391.5 99.5Q425 116 448 146Q471 176 484 217Q497 258 497 307ZM265 671 342 788H458L363 671Z" glyph-name="Oslashacute" horiz-adv-x="637" unicode="&#510;" /><glyph d="M461 797Q461 738 440.5 702Q420 666 378 666Q360 666 345.5 673.5Q331 681 318 690Q305 699 292.5 706.5Q280 714 267 714Q236 714 235 669H175Q175 728 195.5 764Q216 800 258 800Q276 800 290.5 792.5Q305 785 318 776Q331 767 343 759.5Q355 752 369 752Q400 752 401 797ZM602 307Q602 238 581 180Q560 122 522.5 80Q485 38 432.5 14Q380 -10 318 -10Q256 -10 204 14Q152 38 114.5 80Q77 122 56 180Q35 238 35 307Q35 376 56 434Q77 492 114.5 534.5Q152 577 204 600.5Q256 624 318 624Q380 624 432.5 600.5Q485 577 522.5 534.5Q560 492 581 434Q602 376 602 307ZM497 307Q497 356 484 397Q471 438 448 468Q425 498 391.5 514.5Q358 531 318 531Q277 531 244.5 514.5Q212 498 188.5 468Q165 438 152.5 397Q140 356 140 307Q140 258 152.5 217Q165 176 188.5 146Q212 116 244.5 99.5Q277 83 318 83Q358 83 391.5 99.5Q425 116 448 146Q471 176 484 217Q497 258 497 307Z" glyph-name="Otilde" horiz-adv-x="637" unicode="&#213;" /><glyph d="M172 229V0H68V614H305Q400 614 457.5 565Q515 516 515 421Q515 327 458 278Q401 229 305 229ZM412 421Q412 467 384.5 495.5Q357 524 303 524H172V319H303Q357 319 384.5 347.5Q412 376 412 421Z" glyph-name="P" horiz-adv-x="545" unicode="P" /><glyph d="M172 229V0H68V614H305Q400 614 457.5 565Q515 516 515 421Q515 327 458 278Q401 229 305 229ZM412 421Q412 467 384.5 495.5Q357 524 303 524H172V319H303Q357 319 384.5 347.5Q412 376 412 421ZM214 728Q214 754 230 770Q246 786 272 786Q298 786 314 770Q330 754 330 728Q330 702 314 686Q298 670 272 670Q246 670 230 686Q214 702 214 728Z" glyph-name="Pdotaccent" horiz-adv-x="545" unicode="&#7766;" /><glyph d="M447 21Q388 -10 318 -10Q256 -10 204 14Q152 38 114.5 80Q77 122 56 180Q35 238 35 307Q35 376 56 434Q77 492 114.5 534.5Q152 577 204 600.5Q256 624 318 624Q380 624 432.5 600.5Q485 577 522.5 534.5Q560 492 581 434Q602 376 602 307Q602 236 580 177Q558 118 518 75L568 13L497 -41ZM497 307Q497 356 484 397Q471 438 448 468Q425 498 391.5 514.5Q358 531 318 531Q277 531 244.5 514.5Q212 498 188.5 468Q165 438 152.5 397Q140 356 140 307Q140 258 152.5 217Q165 176 188.5 146Q212 116 244.5 99.5Q277 83 318 83Q355 83 387 95L337 158L409 211L457 151Q497 208 497 307Z" glyph-name="Q" horiz-adv-x="636" unicode="Q" /><glyph d="M172 249V0H68V614H305Q400 614 457 567Q514 520 514 430Q514 353 472 308.5Q430 264 357 253L535 0H417L246 249ZM172 336H303Q355 336 383 361.5Q411 387 411 430Q411 473 383 498.5Q355 524 303 524H172Z" glyph-name="R" horiz-adv-x="555" unicode="R" /><glyph d="M172 249V0H68V614H305Q400 614 457 567Q514 520 514 430Q514 353 472 308.5Q430 264 357 253L535 0H417L246 249ZM172 336H303Q355 336 383 361.5Q411 387 411 430Q411 473 383 498.5Q355 524 303 524H172ZM221 671 298 788H414L319 671Z" glyph-name="Racute" horiz-adv-x="555" unicode="&#340;" /><glyph d="M172 249V0H68V614H305Q400 614 457 567Q514 520 514 430Q514 353 472 308.5Q430 264 357 253L535 0H417L246 249ZM172 336H303Q355 336 383 361.5Q411 387 411 430Q411 473 383 498.5Q355 524 303 524H172ZM137 795H226L277 735L328 795H417L323 671H231Z" glyph-name="Rcaron" horiz-adv-x="555" unicode="&#344;" /><glyph d="M172 249V0H68V614H305Q400 614 457 567Q514 520 514 430Q514 353 472 308.5Q430 264 357 253L535 0H417L246 249ZM172 336H303Q355 336 383 361.5Q411 387 411 430Q411 473 383 498.5Q355 524 303 524H172ZM233 -152Q250 -149 263.5 -143Q277 -137 285 -125H275Q253 -125 239 -111.5Q225 -98 225 -76Q225 -54 240.5 -40.5Q256 -27 277 -27Q306 -27 321.5 -44.5Q337 -62 337 -94Q337 -131 312 -156.5Q287 -182 241 -190Z" glyph-name="Rcommaaccent" horiz-adv-x="555" unicode="&#342;" /><glyph d="M124 169Q134 120 167.5 99Q201 78 255 78Q318 78 351 102Q384 126 384 169Q384 201 363 222Q342 243 294 254L190 279Q158 286 131 298.5Q104 311 84 330.5Q64 350 52.5 377.5Q41 405 41 442Q41 481 55.5 514.5Q70 548 97.5 572Q125 596 165 610Q205 624 255 624Q354 624 406 583.5Q458 543 472 471L373 453Q369 471 361.5 486Q354 501 340.5 512Q327 523 306.5 529.5Q286 536 256 536Q198 536 169 512.5Q140 489 140 451Q140 420 158 400.5Q176 381 218 371L325 346Q397 329 440.5 287Q484 245 484 176Q484 133 467 98.5Q450 64 419.5 40Q389 16 347 3Q305 -10 255 -10Q54 -10 24 152Z" glyph-name="S" horiz-adv-x="519" unicode="S" /><glyph d="M124 169Q134 120 167.5 99Q201 78 255 78Q318 78 351 102Q384 126 384 169Q384 201 363 222Q342 243 294 254L190 279Q158 286 131 298.5Q104 311 84 330.5Q64 350 52.5 377.5Q41 405 41 442Q41 481 55.5 514.5Q70 548 97.5 572Q125 596 165 610Q205 624 255 624Q354 624 406 583.5Q458 543 472 471L373 453Q369 471 361.5 486Q354 501 340.5 512Q327 523 306.5 529.5Q286 536 256 536Q198 536 169 512.5Q140 489 140 451Q140 420 158 400.5Q176 381 218 371L325 346Q397 329 440.5 287Q484 245 484 176Q484 133 467 98.5Q450 64 419.5 40Q389 16 347 3Q305 -10 255 -10Q54 -10 24 152ZM197 671 274 788H390L295 671Z" glyph-name="Sacute" horiz-adv-x="519" unicode="&#346;" /><glyph d="M119 795H208L259 735L310 795H399L305 671H213ZM124 169Q134 120 167.5 99Q201 78 255 78Q318 78 351 102Q384 126 384 169Q384 201 363 222Q342 243 294 254L190 279Q158 286 131 298.5Q104 311 84 330.5Q64 350 52.5 377.5Q41 405 41 442Q41 481 55.5 514.5Q70 548 97.5 572Q125 596 165 610Q205 624 255 624Q354 624 406 583.5Q458 543 472 471L373 453Q369 471 361.5 486Q354 501 340.5 512Q327 523 306.5 529.5Q286 536 256 536Q198 536 169 512.5Q140 489 140 451Q140 420 158 400.5Q176 381 218 371L325 346Q397 329 440.5 287Q484 245 484 176Q484 133 467 98.5Q450 64 419.5 40Q389 16 347 3Q305 -10 255 -10Q54 -10 24 152Z" glyph-name="Scaron" horiz-adv-x="519" unicode="&#352;" /><glyph d="M225 -9Q51 3 24 152L124 169Q134 120 167.5 99Q201 78 255 78Q318 78 351 102Q384 126 384 169Q384 201 363 222Q342 243 294 254L190 279Q158 286 131 298.5Q104 311 84 330.5Q64 350 52.5 377.5Q41 405 41 442Q41 481 55.5 514.5Q70 548 97.5 572Q125 596 165 610Q205 624 255 624Q354 624 406 583.5Q458 543 472 471L373 453Q369 471 361.5 486Q354 501 340.5 512Q327 523 306.5 529.5Q286 536 256 536Q198 536 169 512.5Q140 489 140 451Q140 420 158 400.5Q176 381 218 371L325 346Q397 329 440.5 287Q484 245 484 176Q484 135 469 102.5Q454 70 427 46.5Q400 23 363 8.5Q326 -6 281 -9L277 -31Q308 -39 328 -57.5Q348 -76 348 -108Q348 -140 323.5 -160Q299 -180 251 -180Q226 -180 206.5 -174Q187 -168 173 -159L186 -107Q197 -113 212.5 -117Q228 -121 244 -121Q262 -121 273 -116Q284 -111 284 -100Q284 -83 265.5 -74.5Q247 -66 215 -64Z" glyph-name="Scedilla" horiz-adv-x="519" unicode="&#350;" /><glyph d="M35 345H490Q482 428 437 479Q392 530 314 530Q241 530 201.5 500.5Q162 471 149 421L49 439Q64 524 132.5 574Q201 624 309 624Q373 624 426.5 601Q480 578 517.5 536.5Q555 495 576 436.5Q597 378 597 307Q597 236 576 177.5Q555 119 517 77.5Q479 36 426.5 13Q374 -10 311 -10Q249 -10 198 12.5Q147 35 111 76.5Q75 118 55 176Q35 234 35 306ZM303 84Q383 84 429.5 130.5Q476 177 488 254H140Q144 219 156 188Q168 157 188 134Q208 111 237 97.5Q266 84 303 84Z" glyph-name="Schwa" horiz-adv-x="632" unicode="&#399;" /><glyph d="M124 169Q134 120 167.5 99Q201 78 255 78Q318 78 351 102Q384 126 384 169Q384 201 363 222Q342 243 294 254L190 279Q158 286 131 298.5Q104 311 84 330.5Q64 350 52.5 377.5Q41 405 41 442Q41 481 55.5 514.5Q70 548 97.5 572Q125 596 165 610Q205 624 255 624Q354 624 406 583.5Q458 543 472 471L373 453Q369 471 361.5 486Q354 501 340.5 512Q327 523 306.5 529.5Q286 536 256 536Q198 536 169 512.5Q140 489 140 451Q140 420 158 400.5Q176 381 218 371L325 346Q397 329 440.5 287Q484 245 484 176Q484 133 467 98.5Q450 64 419.5 40Q389 16 347 3Q305 -10 255 -10Q54 -10 24 152ZM399 671H310L259 731L208 671H119L213 795H305Z" glyph-name="Scircumflex" horiz-adv-x="519" unicode="&#348;" /><glyph d="M124 169Q134 120 167.5 99Q201 78 255 78Q318 78 351 102Q384 126 384 169Q384 201 363 222Q342 243 294 254L190 279Q158 286 131 298.5Q104 311 84 330.5Q64 350 52.5 377.5Q41 405 41 442Q41 481 55.5 514.5Q70 548 97.5 572Q125 596 165 610Q205 624 255 624Q354 624 406 583.5Q458 543 472 471L373 453Q369 471 361.5 486Q354 501 340.5 512Q327 523 306.5 529.5Q286 536 256 536Q198 536 169 512.5Q140 489 140 451Q140 420 158 400.5Q176 381 218 371L325 346Q397 329 440.5 287Q484 245 484 176Q484 133 467 98.5Q450 64 419.5 40Q389 16 347 3Q305 -10 255 -10Q54 -10 24 152ZM209 -152Q226 -149 239.5 -143Q253 -137 261 -125H251Q229 -125 215 -111.5Q201 -98 201 -76Q201 -54 216.5 -40.5Q232 -27 253 -27Q282 -27 297.5 -44.5Q313 -62 313 -94Q313 -131 288 -156.5Q263 -182 217 -190Z" glyph-name="Scommaaccent" horiz-adv-x="519" unicode="&#536;" /><glyph d="M30 614H542V522H338V0H234V522H30Z" glyph-name="T" horiz-adv-x="572" unicode="T" /><glyph d="M30 614H542V522H338V361H448V273H338V0H234V273H124V361H234V522H30Z" glyph-name="Tbar" horiz-adv-x="572" unicode="&#358;" /><glyph d="M146 795H235L286 735L337 795H426L332 671H240ZM30 614H542V522H338V0H234V522H30Z" glyph-name="Tcaron" horiz-adv-x="572" unicode="&#356;" /><glyph d="M30 614H542V522H338V0H234V522H30ZM242 -152Q259 -149 272.5 -143Q286 -137 294 -125H284Q262 -125 248 -111.5Q234 -98 234 -76Q234 -54 249.5 -40.5Q265 -27 286 -27Q315 -27 330.5 -44.5Q346 -62 346 -94Q346 -131 321 -156.5Q296 -182 250 -190Z" glyph-name="Tcommaaccent" horiz-adv-x="572" unicode="&#354;" /><glyph d="M30 614H542V522H338V0H234V522H30ZM228 728Q228 754 244 770Q260 786 286 786Q312 786 328 770Q344 754 344 728Q344 702 328 686Q312 670 286 670Q260 670 244 686Q228 702 228 728Z" glyph-name="Tdotaccent" horiz-adv-x="572" unicode="&#7786;" /><glyph d="M172 123V0H68V614H172V508H305Q400 508 457.5 459Q515 410 515 315Q515 221 458 172Q401 123 305 123ZM412 315Q412 361 384.5 389.5Q357 418 303 418H172V213H303Q357 213 384.5 241.5Q412 270 412 315Z" glyph-name="Thorn" horiz-adv-x="545" unicode="&#222;" /><glyph d="M304 -10Q249 -10 204 6Q159 22 126.5 54Q94 86 76 134Q58 182 58 245V614H162V256Q162 167 198.5 125Q235 83 304 83Q373 83 409.5 125Q446 167 446 256V614H550V244Q550 181 532 133.5Q514 86 482 54Q450 22 404.5 6Q359 -10 304 -10Z" glyph-name="U" horiz-adv-x="608" unicode="U" /><glyph d="M248 671 325 788H441L346 671ZM304 -10Q249 -10 204 6Q159 22 126.5 54Q94 86 76 134Q58 182 58 245V614H162V256Q162 167 198.5 125Q235 83 304 83Q373 83 409.5 125Q446 167 446 256V614H550V244Q550 181 532 133.5Q514 86 482 54Q450 22 404.5 6Q359 -10 304 -10Z" glyph-name="Uacute" horiz-adv-x="608" unicode="&#218;" /><glyph d="M304 667Q246 667 211.5 699Q177 731 177 791H250Q250 765 265 752.5Q280 740 304 740Q329 740 344 752.5Q359 765 359 791H432Q432 731 397.5 699Q363 667 304 667ZM304 -10Q249 -10 204 6Q159 22 126.5 54Q94 86 76 134Q58 182 58 245V614H162V256Q162 167 198.5 125Q235 83 304 83Q373 83 409.5 125Q446 167 446 256V614H550V244Q550 181 532 133.5Q514 86 482 54Q450 22 404.5 6Q359 -10 304 -10Z" glyph-name="Ubreve" horiz-adv-x="608" unicode="&#364;" /><glyph d="M304 -10Q249 -10 204 6Q159 22 126.5 54Q94 86 76 134Q58 182 58 245V614H162V256Q162 167 198.5 125Q235 83 304 83Q373 83 409.5 125Q446 167 446 256V614H550V244Q550 181 532 133.5Q514 86 482 54Q450 22 404.5 6Q359 -10 304 -10ZM444 671H355L304 731L253 671H164L258 795H350Z" glyph-name="Ucircumflex" horiz-adv-x="608" unicode="&#219;" /><glyph d="M170 728Q170 754 186 770Q202 786 228 786Q254 786 270 770Q286 754 286 728Q286 702 270 686Q254 670 228 670Q202 670 186 686Q170 702 170 728ZM323 728Q323 754 339 770Q355 786 381 786Q407 786 423 770Q439 754 439 728Q439 702 423 686Q407 670 381 670Q355 670 339 686Q323 702 323 728ZM304 -10Q249 -10 204 6Q159 22 126.5 54Q94 86 76 134Q58 182 58 245V614H162V256Q162 167 198.5 125Q235 83 304 83Q373 83 409.5 125Q446 167 446 256V614H550V244Q550 181 532 133.5Q514 86 482 54Q450 22 404.5 6Q359 -10 304 -10Z" glyph-name="Udieresis" horiz-adv-x="608" unicode="&#220;" /><glyph d="M259 671 164 788H280L357 671ZM304 -10Q249 -10 204 6Q159 22 126.5 54Q94 86 76 134Q58 182 58 245V614H162V256Q162 167 198.5 125Q235 83 304 83Q373 83 409.5 125Q446 167 446 256V614H550V244Q550 181 532 133.5Q514 86 482 54Q450 22 404.5 6Q359 -10 304 -10Z" glyph-name="Ugrave" horiz-adv-x="608" unicode="&#217;" /><glyph d="M304 -10Q249 -10 204 6Q159 22 126.5 54Q94 86 76 134Q58 182 58 245V614H162V256Q162 167 198.5 125Q235 83 304 83Q373 83 409.5 125Q446 167 446 256V614H550V244Q550 181 532 133.5Q514 86 482 54Q450 22 404.5 6Q359 -10 304 -10ZM203 671 263 788H348L286 671ZM336 671 396 788H481L419 671Z" glyph-name="Uhungarumlaut" horiz-adv-x="608" unicode="&#368;" /><glyph d="M192 750H417V671H192ZM304 -10Q249 -10 204 6Q159 22 126.5 54Q94 86 76 134Q58 182 58 245V614H162V256Q162 167 198.5 125Q235 83 304 83Q373 83 409.5 125Q446 167 446 256V614H550V244Q550 181 532 133.5Q514 86 482 54Q450 22 404.5 6Q359 -10 304 -10Z" glyph-name="Umacron" horiz-adv-x="608" unicode="&#362;" /><glyph d="M550 244Q550 142 505.5 81Q461 20 384 0H385Q356 -18 340 -37Q324 -56 324 -76Q324 -110 364 -110Q379 -110 391 -106.5Q403 -103 408 -99L421 -158Q414 -165 394.5 -172.5Q375 -180 345 -180Q295 -180 272.5 -156.5Q250 -133 250 -101Q250 -75 261.5 -51Q273 -27 293 -10Q240 -9 197 8Q154 25 123 57Q92 89 75 136Q58 183 58 245V614H162V256Q162 167 198.5 125Q235 83 304 83Q373 83 409.5 125Q446 167 446 256V614H550V244Z" glyph-name="Uogonek" horiz-adv-x="608" unicode="&#370;" /><glyph d="M304 -10Q249 -10 204 6Q159 22 126.5 54Q94 86 76 134Q58 182 58 245V614H162V256Q162 167 198.5 125Q235 83 304 83Q373 83 409.5 125Q446 167 446 256V614H550V244Q550 181 532 133.5Q514 86 482 54Q450 22 404.5 6Q359 -10 304 -10ZM397 740Q397 701 370 675Q343 649 304 649Q265 649 238 675Q211 701 211 740Q211 779 238 805Q265 831 304 831Q343 831 370 805Q397 779 397 740ZM346 740Q346 758 333.5 770Q321 782 304 782Q287 782 274.5 770Q262 758 262 740Q262 722 274.5 710Q287 698 304 698Q321 698 333.5 710Q346 722 346 740Z" glyph-name="Uring" horiz-adv-x="608" unicode="&#366;" /><glyph d="M447 797Q447 738 426.5 702Q406 666 364 666Q346 666 331.5 673.5Q317 681 304 690Q291 699 278.5 706.5Q266 714 253 714Q222 714 221 669H161Q161 728 181.5 764Q202 800 244 800Q262 800 276.5 792.5Q291 785 304 776Q317 767 329 759.5Q341 752 355 752Q386 752 387 797ZM304 -10Q249 -10 204 6Q159 22 126.5 54Q94 86 76 134Q58 182 58 245V614H162V256Q162 167 198.5 125Q235 83 304 83Q373 83 409.5 125Q446 167 446 256V614H550V244Q550 181 532 133.5Q514 86 482 54Q450 22 404.5 6Q359 -10 304 -10Z" glyph-name="Utilde" horiz-adv-x="608" unicode="&#360;" /><glyph d="M252 0 20 614H129L303 135L477 614H583L351 0Z" glyph-name="V" horiz-adv-x="603" unicode="V" /><glyph d="M431 614 547 162 658 614H758L600 0H504L388 439L270 0H175L17 614H119L230 162L347 614Z" glyph-name="W" horiz-adv-x="775" unicode="W" /><glyph d="M338 671 415 788H531L436 671ZM431 614 547 162 658 614H758L600 0H504L388 439L270 0H175L17 614H119L230 162L347 614Z" glyph-name="Wacute" horiz-adv-x="775" unicode="&#7810;" /><glyph d="M431 614 547 162 658 614H758L600 0H504L388 439L270 0H175L17 614H119L230 162L347 614ZM527 671H438L387 731L336 671H247L341 795H433Z" glyph-name="Wcircumflex" horiz-adv-x="775" unicode="&#372;" /><glyph d="M253 728Q253 754 269 770Q285 786 311 786Q337 786 353 770Q369 754 369 728Q369 702 353 686Q337 670 311 670Q285 670 269 686Q253 702 253 728ZM406 728Q406 754 422 770Q438 786 464 786Q490 786 506 770Q522 754 522 728Q522 702 506 686Q490 670 464 670Q438 670 422 686Q406 702 406 728ZM431 614 547 162 658 614H758L600 0H504L388 439L270 0H175L17 614H119L230 162L347 614Z" glyph-name="Wdieresis" horiz-adv-x="775" unicode="&#7812;" /><glyph d="M338 671 243 788H359L436 671ZM431 614 547 162 658 614H758L600 0H504L388 439L270 0H175L17 614H119L230 162L347 614Z" glyph-name="Wgrave" horiz-adv-x="775" unicode="&#7808;" /><glyph d="M345 315 563 0H444L285 231L126 0H10L227 313L20 614H139L287 397L438 614H553Z" glyph-name="X" horiz-adv-x="573" unicode="X" /><glyph d="M453 614H563L340 245V0H237V245L15 614H128L291 339Z" glyph-name="Y" horiz-adv-x="578" unicode="Y" /><glyph d="M453 614H563L340 245V0H237V245L15 614H128L291 339ZM233 671 310 788H426L331 671Z" glyph-name="Yacute" horiz-adv-x="578" unicode="&#221;" /><glyph d="M453 614H563L340 245V0H237V245L15 614H128L291 339ZM429 671H340L289 731L238 671H149L243 795H335Z" glyph-name="Ycircumflex" horiz-adv-x="578" unicode="&#374;" /><glyph d="M453 614H563L340 245V0H237V245L15 614H128L291 339ZM155 728Q155 754 171 770Q187 786 213 786Q239 786 255 770Q271 754 271 728Q271 702 255 686Q239 670 213 670Q187 670 171 686Q155 702 155 728ZM308 728Q308 754 324 770Q340 786 366 786Q392 786 408 770Q424 754 424 728Q424 702 408 686Q392 670 366 670Q340 670 324 686Q308 702 308 728Z" glyph-name="Ydieresis" horiz-adv-x="578" unicode="&#376;" /><glyph d="M453 614H563L340 245V0H237V245L15 614H128L291 339ZM244 671 149 788H265L342 671Z" glyph-name="Ygrave" horiz-adv-x="578" unicode="&#7922;" /><glyph d="M453 614H563L340 245V0H237V245L15 614H128L291 339ZM178 750H403V671H178Z" glyph-name="Ymacron" horiz-adv-x="578" unicode="&#562;" /><glyph d="M504 0H45V73L369 522H50V614H499V542L176 93H504Z" glyph-name="Z" horiz-adv-x="549" unicode="Z" /><glyph d="M504 0H45V73L369 522H50V614H499V542L176 93H504ZM219 671 296 788H412L317 671Z" glyph-name="Zacute" horiz-adv-x="549" unicode="&#377;" /><glyph d="M135 795H224L275 735L326 795H415L321 671H229ZM504 0H45V73L369 522H50V614H499V542L176 93H504Z" glyph-name="Zcaron" horiz-adv-x="549" unicode="&#142;" /><glyph d="M217 728Q217 754 233 770Q249 786 275 786Q301 786 317 770Q333 754 333 728Q333 702 317 686Q301 670 275 670Q249 670 233 686Q217 702 217 728ZM504 0H45V73L369 522H50V614H499V542L176 93H504Z" glyph-name="Zdotaccent" horiz-adv-x="549" unicode="&#379;" /><glyph d="M309 155Q301 176 273 188Q245 200 210 200Q195 200 180 196.5Q165 193 153 185Q141 177 133.5 165Q126 153 126 137Q126 120 133 108Q140 96 151.5 88Q163 80 177.5 76.5Q192 73 206 73Q246 73 272 87Q298 101 309 118ZM309 0V38Q293 17 262.5 3.5Q232 -10 185 -10Q155 -10 127.5 0Q100 10 79 29Q58 48 45.5 75.5Q33 103 33 137Q33 168 46 195Q59 222 81 241Q103 260 132.5 271Q162 282 195 282Q232 282 262.5 272Q293 262 309 248V289Q309 323 288.5 346Q268 369 220 369Q185 369 167.5 356.5Q150 344 142 321L49 337Q64 388 108 421Q152 454 222 454Q307 454 355.5 410.5Q404 367 404 291V0Z" glyph-name="a" horiz-adv-x="460" unicode="a" /><glyph d="M309 155Q301 176 273 188Q245 200 210 200Q195 200 180 196.5Q165 193 153 185Q141 177 133.5 165Q126 153 126 137Q126 120 133 108Q140 96 151.5 88Q163 80 177.5 76.5Q192 73 206 73Q246 73 272 87Q298 101 309 118ZM309 0V38Q293 17 262.5 3.5Q232 -10 185 -10Q155 -10 127.5 0Q100 10 79 29Q58 48 45.5 75.5Q33 103 33 137Q33 168 46 195Q59 222 81 241Q103 260 132.5 271Q162 282 195 282Q232 282 262.5 272Q293 262 309 248V289Q309 323 288.5 346Q268 369 220 369Q185 369 167.5 356.5Q150 344 142 321L49 337Q64 388 108 421Q152 454 222 454Q307 454 355.5 410.5Q404 367 404 291V0ZM180 506 257 650H360L269 506Z" glyph-name="aacute" horiz-adv-x="460" unicode="&#225;" /><glyph d="M309 155Q301 176 273 188Q245 200 210 200Q195 200 180 196.5Q165 193 153 185Q141 177 133.5 165Q126 153 126 137Q126 120 133 108Q140 96 151.5 88Q163 80 177.5 76.5Q192 73 206 73Q246 73 272 87Q298 101 309 118ZM309 0V38Q293 17 262.5 3.5Q232 -10 185 -10Q155 -10 127.5 0Q100 10 79 29Q58 48 45.5 75.5Q33 103 33 137Q33 168 46 195Q59 222 81 241Q103 260 132.5 271Q162 282 195 282Q232 282 262.5 272Q293 262 309 248V289Q309 323 288.5 346Q268 369 220 369Q185 369 167.5 356.5Q150 344 142 321L49 337Q64 388 108 421Q152 454 222 454Q307 454 355.5 410.5Q404 367 404 291V0ZM222 496Q194 496 169 504.5Q144 513 125.5 531.5Q107 550 95.5 579Q84 608 82 650H159Q161 608 176 591Q191 574 222 574Q253 574 268 591Q283 608 285 650H362Q360 608 348.5 579Q337 550 318 531.5Q299 513 274.5 504.5Q250 496 222 496Z" glyph-name="abreve" horiz-adv-x="460" unicode="&#259;" /><glyph d="M360 506H281L220 586L159 506H80L170 650H270ZM309 155Q301 176 273 188Q245 200 210 200Q195 200 180 196.5Q165 193 153 185Q141 177 133.5 165Q126 153 126 137Q126 120 133 108Q140 96 151.5 88Q163 80 177.5 76.5Q192 73 206 73Q246 73 272 87Q298 101 309 118ZM309 0V38Q293 17 262.5 3.5Q232 -10 185 -10Q155 -10 127.5 0Q100 10 79 29Q58 48 45.5 75.5Q33 103 33 137Q33 168 46 195Q59 222 81 241Q103 260 132.5 271Q162 282 195 282Q232 282 262.5 272Q293 262 309 248V289Q309 323 288.5 346Q268 369 220 369Q185 369 167.5 356.5Q150 344 142 321L49 337Q64 388 108 421Q152 454 222 454Q307 454 355.5 410.5Q404 367 404 291V0Z" glyph-name="acircumflex" horiz-adv-x="460" unicode="&#226;" /><glyph d="M205 506 282 650H385L294 506Z" glyph-name="acute" horiz-adv-x="500" unicode="&#180;" /><glyph d="M153 671 230 788H346L251 671Z" glyph-name="acute.cap" horiz-adv-x="500" unicode="&#58402;" /><glyph d="M87 578Q87 604 103 620Q119 636 145 636Q171 636 187 620Q203 604 203 578Q203 552 187 536Q171 520 145 520Q119 520 103 536Q87 552 87 578ZM240 578Q240 604 256 620Q272 636 298 636Q324 636 340 620Q356 604 356 578Q356 552 340 536Q324 520 298 520Q272 520 256 536Q240 552 240 578ZM309 155Q301 176 273 188Q245 200 210 200Q195 200 180 196.5Q165 193 153 185Q141 177 133.5 165Q126 153 126 137Q126 120 133 108Q140 96 151.5 88Q163 80 177.5 76.5Q192 73 206 73Q246 73 272 87Q298 101 309 118ZM309 0V38Q293 17 262.5 3.5Q232 -10 185 -10Q155 -10 127.5 0Q100 10 79 29Q58 48 45.5 75.5Q33 103 33 137Q33 168 46 195Q59 222 81 241Q103 260 132.5 271Q162 282 195 282Q232 282 262.5 272Q293 262 309 248V289Q309 323 288.5 346Q268 369 220 369Q185 369 167.5 356.5Q150 344 142 321L49 337Q64 388 108 421Q152 454 222 454Q307 454 355.5 410.5Q404 367 404 291V0Z" glyph-name="adieresis" horiz-adv-x="460" unicode="&#228;" /><glyph d="M699 122Q685 62 635 26Q585 -10 510 -10Q461 -10 421.5 7.5Q382 25 354 57Q325 27 284 8.5Q243 -10 194 -10Q159 -10 129.5 0Q100 10 78 29Q56 48 44 74Q32 100 32 132Q32 166 45.5 192Q59 218 83 236Q107 254 139 263.5Q171 273 208 273H308V289Q308 323 287.5 346Q267 369 219 369Q184 369 166.5 356.5Q149 344 141 321L48 337Q63 388 107 421Q151 454 221 454Q274 454 312 437Q350 420 370 388Q396 417 431 435.5Q466 454 508 454Q555 454 591 438Q627 422 651.5 393Q676 364 688.5 324Q701 284 701 235V199H398Q400 140 431 107Q462 74 510 74Q546 74 574 90Q602 106 610 138ZM205 73Q241 73 271.5 89Q302 105 318 128Q315 137 313 149Q311 161 310 172Q308 184 308 197H216Q199 197 182.5 194Q166 191 153.5 183.5Q141 176 133 164.5Q125 153 125 137Q125 120 132 108Q139 96 150.5 88.5Q162 81 176 77Q190 73 205 73ZM509 370Q467 370 438.5 345Q410 320 401 272H602Q601 313 578 341.5Q555 370 509 370Z" glyph-name="ae" horiz-adv-x="731" unicode="&#230;" /><glyph d="M385 506 462 650H565L474 506ZM699 122Q685 62 635 26Q585 -10 510 -10Q461 -10 421.5 7.5Q382 25 354 57Q325 27 284 8.5Q243 -10 194 -10Q159 -10 129.5 0Q100 10 78 29Q56 48 44 74Q32 100 32 132Q32 166 45.5 192Q59 218 83 236Q107 254 139 263.5Q171 273 208 273H308V289Q308 323 287.5 346Q267 369 219 369Q184 369 166.5 356.5Q149 344 141 321L48 337Q63 388 107 421Q151 454 221 454Q274 454 312 437Q350 420 370 388Q396 417 431 435.5Q466 454 508 454Q555 454 591 438Q627 422 651.5 393Q676 364 688.5 324Q701 284 701 235V199H398Q400 140 431 107Q462 74 510 74Q546 74 574 90Q602 106 610 138ZM205 73Q241 73 271.5 89Q302 105 318 128Q315 137 313 149Q311 161 310 172Q308 184 308 197H216Q199 197 182.5 194Q166 191 153.5 183.5Q141 176 133 164.5Q125 153 125 137Q125 120 132 108Q139 96 150.5 88.5Q162 81 176 77Q190 73 205 73ZM509 370Q467 370 438.5 345Q410 320 401 272H602Q601 313 578 341.5Q555 370 509 370Z" glyph-name="aeacute" horiz-adv-x="731" unicode="&#509;" /><glyph d="M309 155Q301 176 273 188Q245 200 210 200Q195 200 180 196.5Q165 193 153 185Q141 177 133.5 165Q126 153 126 137Q126 120 133 108Q140 96 151.5 88Q163 80 177.5 76.5Q192 73 206 73Q246 73 272 87Q298 101 309 118ZM309 0V38Q293 17 262.5 3.5Q232 -10 185 -10Q155 -10 127.5 0Q100 10 79 29Q58 48 45.5 75.5Q33 103 33 137Q33 168 46 195Q59 222 81 241Q103 260 132.5 271Q162 282 195 282Q232 282 262.5 272Q293 262 309 248V289Q309 323 288.5 346Q268 369 220 369Q185 369 167.5 356.5Q150 344 142 321L49 337Q64 388 108 421Q152 454 222 454Q307 454 355.5 410.5Q404 367 404 291V0ZM174 506 83 650H186L263 506Z" glyph-name="agrave" horiz-adv-x="460" unicode="&#224;" /><glyph d="M309 155Q301 176 273 188Q245 200 210 200Q195 200 180 196.5Q165 193 153 185Q141 177 133.5 165Q126 153 126 137Q126 120 133 108Q140 96 151.5 88Q163 80 177.5 76.5Q192 73 206 73Q246 73 272 87Q298 101 309 118ZM309 0V38Q293 17 262.5 3.5Q232 -10 185 -10Q155 -10 127.5 0Q100 10 79 29Q58 48 45.5 75.5Q33 103 33 137Q33 168 46 195Q59 222 81 241Q103 260 132.5 271Q162 282 195 282Q232 282 262.5 272Q293 262 309 248V289Q309 323 288.5 346Q268 369 220 369Q185 369 167.5 356.5Q150 344 142 321L49 337Q64 388 108 421Q152 454 222 454Q307 454 355.5 410.5Q404 367 404 291V0ZM113 614H338V531H113Z" glyph-name="amacron" horiz-adv-x="460" unicode="&#257;" /><glyph d="M40 175Q40 208 47.5 234Q55 260 70 281Q85 302 107 319.5Q129 337 158 354Q135 385 119.5 416.5Q104 448 104 482Q104 508 112.5 533.5Q121 559 139 579Q157 599 185.5 611.5Q214 624 255 624Q295 624 324 611.5Q353 599 371 579Q389 559 397.5 533.5Q406 508 406 482Q406 440 381.5 405Q357 370 300 336L427 192Q458 259 458 338L550 322Q550 269 534 218Q518 167 488 123L597 0H469L423 52Q387 23 342 6.5Q297 -10 244 -10Q199 -10 161.5 3.5Q124 17 97 41Q70 65 55 99Q40 133 40 175ZM244 72Q281 72 312 83Q343 94 367 114L213 289Q175 266 154.5 238.5Q134 211 134 175Q134 127 163.5 99.5Q193 72 244 72ZM198 486Q198 464 210.5 443.5Q223 423 242 401Q277 422 294.5 441Q312 460 312 486Q312 506 299.5 525.5Q287 545 255 545Q223 545 210.5 525.5Q198 506 198 486Z" glyph-name="ampersand" horiz-adv-x="606" unicode="&amp;" /><glyph d="M347 475Q345 501 328.5 523Q312 545 276 545Q244 545 220 524.5Q196 504 196 468Q196 438 213.5 414Q231 390 254 366L408 201Q427 257 428 328L520 312Q518 264 506.5 218Q495 172 472 132L596 0H466L413 56Q380 25 337.5 7.5Q295 -10 244 -10Q199 -10 161.5 4Q124 18 97 43.5Q70 69 55 103.5Q40 138 40 180Q40 234 69.5 276.5Q99 319 146 344Q124 371 112 399.5Q100 428 100 465Q100 502 113.5 531.5Q127 561 150.5 581.5Q174 602 206 613Q238 624 276 624Q354 624 395 587Q436 550 445 493ZM244 72Q313 72 357 116L200 283Q171 270 152.5 242.5Q134 215 134 180Q134 132 163.5 102Q193 72 244 72Z" glyph-name="ampersand.alt" horiz-adv-x="606" unicode="&#60321;" /><glyph d="M404 0Q375 -18 359 -37Q343 -56 343 -76Q343 -110 383 -110Q398 -110 410 -106.5Q422 -103 427 -99L440 -158Q433 -165 413.5 -172.5Q394 -180 364 -180Q314 -180 291.5 -156.5Q269 -133 269 -101Q269 -75 279.5 -53Q290 -31 309 -13V38Q293 17 262.5 3.5Q232 -10 185 -10Q155 -10 127.5 0Q100 10 79 29Q58 48 45.5 75.5Q33 103 33 137Q33 168 46 195Q59 222 81 241Q103 260 132.5 271Q162 282 195 282Q232 282 262.5 272Q293 262 309 248V289Q309 323 288.5 346Q268 369 220 369Q185 369 167.5 356.5Q150 344 142 321L49 337Q64 388 108 421Q152 454 222 454Q307 454 355.5 410.5Q404 367 404 291ZM309 155Q301 176 273 188Q245 200 210 200Q195 200 180 196.5Q165 193 153 185Q141 177 133.5 165Q126 153 126 137Q126 120 133 108Q140 96 151.5 88Q163 80 177.5 76.5Q192 73 206 73Q246 73 272 87Q298 101 309 118Z" glyph-name="aogonek" horiz-adv-x="460" unicode="&#261;" /><glyph d="M82 388Q112 408 140 416.5Q168 425 194 425Q220 425 243 419.5Q266 414 288 407Q310 400 333 394.5Q356 389 382 389Q408 389 436.5 398Q465 407 497 427V351Q465 331 436.5 322Q408 313 382 313Q356 313 333 319Q310 325 288 331.5Q266 338 243 344Q220 350 194 350Q168 350 140 341Q112 332 82 312ZM82 249Q112 269 140 278Q168 287 194 287Q220 287 243 281Q266 275 288 268.5Q310 262 333 256Q356 250 382 250Q408 250 436.5 258.5Q465 267 497 288V212Q465 192 436.5 183.5Q408 175 382 175Q356 175 333 180.5Q310 186 288 193Q266 200 243 205.5Q220 211 194 211Q168 211 140 202.5Q112 194 82 174Z" glyph-name="approxequal" horiz-adv-x="578" unicode="&#8776;" /><glyph d="M52 388Q82 408 110 416.5Q138 425 164 425Q190 425 213 419.5Q236 414 258 407Q280 400 303 394.5Q326 389 352 389Q378 389 406.5 398Q435 407 467 427V351Q435 331 406.5 322Q378 313 352 313Q326 313 303 319Q280 325 258 331.5Q236 338 213 344Q190 350 164 350Q138 350 110 341Q82 332 52 312ZM52 249Q82 269 110 278Q138 287 164 287Q190 287 213 281Q236 275 258 268.5Q280 262 303 256Q326 250 352 250Q378 250 406.5 258.5Q435 267 467 288V212Q435 192 406.5 183.5Q378 175 352 175Q326 175 303 180.5Q280 186 258 193Q236 200 213 205.5Q190 211 164 211Q138 211 110 202.5Q82 194 52 174Z" glyph-name="approxequal.lt" horiz-adv-x="520" /><glyph d="M309 155Q301 176 273 188Q245 200 210 200Q195 200 180 196.5Q165 193 153 185Q141 177 133.5 165Q126 153 126 137Q126 120 133 108Q140 96 151.5 88Q163 80 177.5 76.5Q192 73 206 73Q246 73 272 87Q298 101 309 118ZM309 0V38Q293 17 262.5 3.5Q232 -10 185 -10Q155 -10 127.5 0Q100 10 79 29Q58 48 45.5 75.5Q33 103 33 137Q33 168 46 195Q59 222 81 241Q103 260 132.5 271Q162 282 195 282Q232 282 262.5 272Q293 262 309 248V289Q309 323 288.5 346Q268 369 220 369Q185 369 167.5 356.5Q150 344 142 321L49 337Q64 388 108 421Q152 454 222 454Q307 454 355.5 410.5Q404 367 404 291V0ZM316 578Q316 539 289 513Q262 487 223 487Q184 487 157 513Q130 539 130 578Q130 617 157 643Q184 669 223 669Q262 669 289 643Q316 617 316 578ZM265 578Q265 596 252.5 608Q240 620 223 620Q206 620 193.5 608Q181 596 181 578Q181 560 193.5 548Q206 536 223 536Q240 536 252.5 548Q265 560 265 578Z" glyph-name="aring" horiz-adv-x="460" unicode="&#229;" /><glyph d="M327 550Q327 518 300 495.5Q273 473 234 473Q195 473 168 495.5Q141 518 141 550Q141 582 168 604.5Q195 627 234 627Q273 627 300 604.5Q327 582 327 550ZM361 734 290 646H192L245 734ZM234 518Q251 518 263.5 526.5Q276 535 276 550Q276 565 263.5 573.5Q251 582 234 582Q217 582 204.5 573.5Q192 565 192 550Q192 535 204.5 526.5Q217 518 234 518ZM309 155Q301 176 273 188Q245 200 210 200Q195 200 180 196.5Q165 193 153 185Q141 177 133.5 165Q126 153 126 137Q126 120 133 108Q140 96 151.5 88Q163 80 177.5 76.5Q192 73 206 73Q246 73 272 87Q298 101 309 118ZM309 0V38Q293 17 262.5 3.5Q232 -10 185 -10Q155 -10 127.5 0Q100 10 79 29Q58 48 45.5 75.5Q33 103 33 137Q33 168 46 195Q59 222 81 241Q103 260 132.5 271Q162 282 195 282Q232 282 262.5 272Q293 262 309 248V289Q309 323 288.5 346Q268 369 220 369Q185 369 167.5 356.5Q150 344 142 321L49 337Q64 388 108 421Q152 454 222 454Q307 454 355.5 410.5Q404 367 404 291V0Z" glyph-name="aringacute" horiz-adv-x="460" unicode="&#507;" /><glyph d="M247 614 381 408H280L196 534L112 408H10L145 614Z" glyph-name="asciicircum" horiz-adv-x="391" unicode="^" /><glyph d="M389 341Q389 272 361.5 234.5Q334 197 286 197Q263 197 245 206.5Q227 216 212 228Q197 240 184 249.5Q171 259 157 259Q120 259 120 201H40Q40 269 67 306.5Q94 344 143 344Q165 344 183 334.5Q201 325 216 313.5Q231 302 244.5 292.5Q258 283 272 283Q309 283 309 341Z" glyph-name="asciitilde" horiz-adv-x="429" unicode="~" /><glyph d="M30 551 58 599 146 548V650H202V548L290 599L318 551L229 500L318 449L290 401L202 452V350H146V452L58 401L30 449L118 500Z" glyph-name="asterisk" horiz-adv-x="348" unicode="*" /><glyph d="M530 151Q525 125 532.5 113Q540 101 563 101Q610 101 639.5 147Q669 193 669 274Q669 327 649.5 368.5Q630 410 595.5 439Q561 468 513.5 483.5Q466 499 411 499Q344 499 288 476.5Q232 454 192 413Q152 372 130 315.5Q108 259 108 190Q108 111 136 58.5Q164 6 208 -25.5Q252 -57 305.5 -70Q359 -83 410 -83Q480 -83 544.5 -68Q609 -53 657 -32L670 -101Q649 -112 618.5 -121.5Q588 -131 553 -138.5Q518 -146 481 -150Q444 -154 410 -154Q336 -154 267.5 -134Q199 -114 145.5 -72Q92 -30 60 35Q28 100 28 190Q28 269 55.5 338Q83 407 133.5 459Q184 511 254.5 541Q325 571 411 571Q486 571 547.5 548.5Q609 526 653 486Q697 446 721.5 391.5Q746 337 746 274Q746 212 729 167Q712 122 684.5 92Q657 62 621 47.5Q585 33 547 33Q512 33 483 47Q454 61 439 87Q425 62 397.5 47.5Q370 33 343 33Q312 33 287 44.5Q262 56 244.5 76Q227 96 217.5 123Q208 150 208 182Q208 224 221.5 262Q235 300 259.5 329Q284 358 318 375Q352 392 392 392Q423 392 445 380.5Q467 369 477 355L483 382H570ZM462 271Q456 288 439 300Q422 312 398 312Q375 312 357 301.5Q339 291 326.5 273.5Q314 256 307 233.5Q300 211 300 187Q300 155 316.5 134.5Q333 114 365 114Q391 114 410 128Q429 142 441 160Z" glyph-name="at" horiz-adv-x="774" unicode="@" /><glyph d="M530 243Q525 217 532.5 205Q540 193 563 193Q610 193 639.5 239Q669 285 669 366Q669 419 649.5 460.5Q630 502 595.5 531Q561 560 513.5 575.5Q466 591 411 591Q344 591 288 568.5Q232 546 192 505Q152 464 130 407.5Q108 351 108 282Q108 203 136 150.5Q164 98 208 66.5Q252 35 305.5 22Q359 9 410 9Q480 9 544.5 24Q609 39 657 60L670 -9Q649 -20 618.5 -29.5Q588 -39 553 -46.5Q518 -54 481 -58Q444 -62 410 -62Q336 -62 267.5 -42Q199 -22 145.5 20Q92 62 60 127Q28 192 28 282Q28 361 55.5 430Q83 499 133.5 551Q184 603 254.5 633Q325 663 411 663Q486 663 547.5 640.5Q609 618 653 578Q697 538 721.5 483.5Q746 429 746 366Q746 304 729 259Q712 214 684.5 184Q657 154 621 139.5Q585 125 547 125Q512 125 483 139Q454 153 439 179Q425 154 397.5 139.5Q370 125 343 125Q312 125 287 136.5Q262 148 244.5 168Q227 188 217.5 215Q208 242 208 274Q208 316 221.5 354Q235 392 259.5 421Q284 450 318 467Q352 484 392 484Q423 484 445 472.5Q467 461 477 447L483 474H570ZM462 363Q456 380 439 392Q422 404 398 404Q375 404 357 393.5Q339 383 326.5 365.5Q314 348 307 325.5Q300 303 300 279Q300 247 316.5 226.5Q333 206 365 206Q391 206 410 220Q429 234 441 252Z" glyph-name="at.cap" horiz-adv-x="774" unicode="&#58643;" /><glyph d="M309 155Q301 176 273 188Q245 200 210 200Q195 200 180 196.5Q165 193 153 185Q141 177 133.5 165Q126 153 126 137Q126 120 133 108Q140 96 151.5 88Q163 80 177.5 76.5Q192 73 206 73Q246 73 272 87Q298 101 309 118ZM309 0V38Q293 17 262.5 3.5Q232 -10 185 -10Q155 -10 127.5 0Q100 10 79 29Q58 48 45.5 75.5Q33 103 33 137Q33 168 46 195Q59 222 81 241Q103 260 132.5 271Q162 282 195 282Q232 282 262.5 272Q293 262 309 248V289Q309 323 288.5 346Q268 369 220 369Q185 369 167.5 356.5Q150 344 142 321L49 337Q64 388 108 421Q152 454 222 454Q307 454 355.5 410.5Q404 367 404 291V0ZM381 635Q381 603 372.5 579.5Q364 556 350.5 540.5Q337 525 320 517.5Q303 510 286 510Q265 510 249 517Q233 524 219.5 532.5Q206 541 194 548Q182 555 169 555Q157 555 149 547.5Q141 540 140 521H67Q67 553 75.5 576.5Q84 600 97.5 615.5Q111 631 128 638.5Q145 646 162 646Q183 646 199 639Q215 632 228.5 623.5Q242 615 254 608Q266 601 279 601Q291 601 299 608.5Q307 616 308 635Z" glyph-name="atilde" horiz-adv-x="460" unicode="&#227;" /><glyph d="M162 0H62V650H162V406Q177 425 207.5 439.5Q238 454 275 454Q324 454 362 435.5Q400 417 426.5 385.5Q453 354 467 312Q481 270 481 222Q481 174 467 131.5Q453 89 426.5 57.5Q400 26 362 8Q324 -10 275 -10Q238 -10 207.5 4.5Q177 19 162 38ZM162 138Q175 112 201 95.5Q227 79 258 79Q316 79 348.5 119.5Q381 160 381 222Q381 284 348.5 324.5Q316 365 258 365Q227 365 201 348.5Q175 332 162 306Z" glyph-name="b" horiz-adv-x="512" unicode="b" /><glyph d="M352 -84H253L5 650H104Z" glyph-name="backslash" horiz-adv-x="357" unicode="\" /><glyph d="M352 -64H253L5 670H104Z" glyph-name="backslash.cap" horiz-adv-x="357" unicode="&#58466;" /><glyph d="M68 650H164V-84H68Z" glyph-name="bar" horiz-adv-x="232" unicode="|" /><glyph d="M68 670H164V-64H68Z" glyph-name="bar.cap" horiz-adv-x="232" unicode="&#58467;" /><glyph d="M162 0H62V650H162V406Q177 425 207.5 439.5Q238 454 275 454Q324 454 362 435.5Q400 417 426.5 385.5Q453 354 467 312Q481 270 481 222Q481 174 467 131.5Q453 89 426.5 57.5Q400 26 362 8Q324 -10 275 -10Q238 -10 207.5 4.5Q177 19 162 38ZM162 138Q175 112 201 95.5Q227 79 258 79Q316 79 348.5 119.5Q381 160 381 222Q381 284 348.5 324.5Q316 365 258 365Q227 365 201 348.5Q175 332 162 306ZM54 728Q54 754 70 770Q86 786 112 786Q138 786 154 770Q170 754 170 728Q170 702 154 686Q138 670 112 670Q86 670 70 686Q54 702 54 728Z" glyph-name="bdotaccent" horiz-adv-x="512" unicode="&#7683;" /><glyph d="M210 -19Q210 -48 239 -48H318V-130H240Q182 -130 149 -97Q116 -64 116 -6V213Q116 242 87 242H18V324H87Q116 324 116 353V572Q116 630 149 663Q182 696 240 696H318V614H239Q210 614 210 585V366Q210 332 197 312Q184 292 161 283Q184 274 197 254Q210 234 210 200Z" glyph-name="braceleft" horiz-adv-x="340" unicode="{" /><glyph d="M210 1Q210 -28 239 -28H318V-110H240Q182 -110 149 -77Q116 -44 116 14V233Q116 262 87 262H18V344H87Q116 344 116 373V592Q116 650 149 683Q182 716 240 716H318V634H239Q210 634 210 605V386Q210 352 197 332Q184 312 161 303Q184 294 197 274Q210 254 210 220Z" glyph-name="braceleft.cap" horiz-adv-x="340" unicode="&#58517;" /><glyph d="M130 200Q130 234 143 254Q156 274 179 283Q156 292 143 312Q130 332 130 366V585Q130 614 101 614H22V696H100Q158 696 191 663Q224 630 224 572V353Q224 324 253 324H322V242H253Q224 242 224 213V-6Q224 -64 191 -97Q158 -130 100 -130H22V-48H101Q130 -48 130 -19Z" glyph-name="braceright" horiz-adv-x="340" unicode="}" /><glyph d="M130 220Q130 254 143 274Q156 294 179 303Q156 312 143 332Q130 352 130 386V605Q130 634 101 634H22V716H100Q158 716 191 683Q224 650 224 592V373Q224 344 253 344H322V262H253Q224 262 224 233V14Q224 -44 191 -77Q158 -110 100 -110H22V-28H101Q130 -28 130 1Z" glyph-name="braceright.cap" horiz-adv-x="340" unicode="&#58518;" /><glyph d="M162 -48H280V-130H68V696H280V614H162Z" glyph-name="bracketleft" horiz-adv-x="320" unicode="[" /><glyph d="M162 -28H280V-110H68V716H280V634H162Z" glyph-name="bracketleft.cap" horiz-adv-x="320" unicode="&#58515;" /><glyph d="M158 614H40V696H252V-130H40V-48H158Z" glyph-name="bracketright" horiz-adv-x="320" unicode="]" /><glyph d="M158 634H40V716H252V-110H40V-28H158Z" glyph-name="bracketright.cap" horiz-adv-x="320" unicode="&#58516;" /><glyph d="M250 496Q222 496 197 504.5Q172 513 153.5 531.5Q135 550 123.5 579Q112 608 110 650H187Q189 608 204 591Q219 574 250 574Q281 574 296 591Q311 608 313 650H390Q388 608 376.5 579Q365 550 346 531.5Q327 513 302.5 504.5Q278 496 250 496Z" glyph-name="breve" horiz-adv-x="500" unicode="&#728;" /><glyph d="M249 667Q191 667 156.5 699Q122 731 122 791H195Q195 765 210 752.5Q225 740 249 740Q274 740 289 752.5Q304 765 304 791H377Q377 731 342.5 699Q308 667 249 667Z" glyph-name="breve.cap" horiz-adv-x="500" unicode="&#58406;" /><glyph d="M320 262Q320 230 308.5 204Q297 178 277.5 159Q258 140 232 129.5Q206 119 176 119Q146 119 119.5 129.5Q93 140 73.5 159Q54 178 43 204Q32 230 32 262Q32 294 43 320.5Q54 347 73.5 366Q93 385 119.5 395.5Q146 406 176 406Q206 406 232 395.5Q258 385 277.5 366Q297 347 308.5 320.5Q320 294 320 262Z" glyph-name="bullet" horiz-adv-x="352" unicode="&#8226;" /><glyph d="M320 302Q320 270 308.5 244Q297 218 277.5 199Q258 180 232 169.5Q206 159 176 159Q146 159 119.5 169.5Q93 180 73.5 199Q54 218 43 244Q32 270 32 302Q32 334 43 360.5Q54 387 73.5 406Q93 425 119.5 435.5Q146 446 176 446Q206 446 232 435.5Q258 425 277.5 406Q297 387 308.5 360.5Q320 334 320 302Z" glyph-name="bullet.cap" horiz-adv-x="352" unicode="&#58470;" /><glyph d="M31 222Q31 274 45.5 316.5Q60 359 87.5 389.5Q115 420 154 437Q193 454 241 454Q327 454 372 418Q417 382 424 322L328 305Q322 336 300.5 351.5Q279 367 244 367Q185 367 158 326Q131 285 131 222Q131 159 158 118Q185 77 244 77Q279 77 300.5 92.5Q322 108 328 139L424 122Q417 62 372 26Q327 -10 241 -10Q193 -10 154 7Q115 24 87.5 54.5Q60 85 45.5 127.5Q31 170 31 222Z" glyph-name="c" horiz-adv-x="451" unicode="c" /><glyph d="M198 506 275 650H378L287 506ZM31 222Q31 274 45.5 316.5Q60 359 87.5 389.5Q115 420 154 437Q193 454 241 454Q327 454 372 418Q417 382 424 322L328 305Q322 336 300.5 351.5Q279 367 244 367Q185 367 158 326Q131 285 131 222Q131 159 158 118Q185 77 244 77Q279 77 300.5 92.5Q322 108 328 139L424 122Q417 62 372 26Q327 -10 241 -10Q193 -10 154 7Q115 24 87.5 54.5Q60 85 45.5 127.5Q31 170 31 222Z" glyph-name="cacute" horiz-adv-x="451" unicode="&#263;" /><glyph d="M300 506H200L110 650H189L250 570L311 650H390Z" glyph-name="caron" horiz-adv-x="500" unicode="&#711;" /><glyph d="M186 483 210 650H288L264 483Z" glyph-name="caron.Slovak" horiz-adv-x="500" /><glyph d="M110 795H199L250 735L301 795H390L296 671H204Z" glyph-name="caron.cap" horiz-adv-x="500" unicode="&#58413;" /><glyph d="M293 506H193L103 650H182L243 570L304 650H383ZM31 222Q31 274 45.5 316.5Q60 359 87.5 389.5Q115 420 154 437Q193 454 241 454Q327 454 372 418Q417 382 424 322L328 305Q322 336 300.5 351.5Q279 367 244 367Q185 367 158 326Q131 285 131 222Q131 159 158 118Q185 77 244 77Q279 77 300.5 92.5Q322 108 328 139L424 122Q417 62 372 26Q327 -10 241 -10Q193 -10 154 7Q115 24 87.5 54.5Q60 85 45.5 127.5Q31 170 31 222Z" glyph-name="ccaron" horiz-adv-x="451" unicode="&#269;" /><glyph d="M31 222Q31 274 45.5 316.5Q60 359 87.5 389.5Q115 420 154 437Q193 454 241 454Q327 454 372 418Q417 382 424 322L328 305Q322 336 300.5 351.5Q279 367 244 367Q185 367 158 326Q131 285 131 222Q131 159 158 118Q185 77 244 77Q279 77 300.5 92.5Q322 108 328 139L424 122Q417 67 378.5 32Q340 -3 266 -9L262 -31Q294 -39 313.5 -57.5Q333 -76 333 -108Q333 -140 308.5 -160Q284 -180 236 -180Q211 -180 191.5 -174Q172 -168 158 -159L171 -107Q182 -113 197.5 -117Q213 -121 229 -121Q247 -121 258 -116Q269 -111 269 -100Q269 -83 251 -74.5Q233 -66 203 -64H200L210 -8Q126 3 78.5 64.5Q31 126 31 222Z" glyph-name="ccedilla" horiz-adv-x="451" unicode="&#231;" /><glyph d="M383 506H304L243 586L182 506H103L193 650H293ZM31 222Q31 274 45.5 316.5Q60 359 87.5 389.5Q115 420 154 437Q193 454 241 454Q327 454 372 418Q417 382 424 322L328 305Q322 336 300.5 351.5Q279 367 244 367Q185 367 158 326Q131 285 131 222Q131 159 158 118Q185 77 244 77Q279 77 300.5 92.5Q322 108 328 139L424 122Q417 62 372 26Q327 -10 241 -10Q193 -10 154 7Q115 24 87.5 54.5Q60 85 45.5 127.5Q31 170 31 222Z" glyph-name="ccircumflex" horiz-adv-x="451" unicode="&#265;" /><glyph d="M31 222Q31 274 45.5 316.5Q60 359 87.5 389.5Q115 420 154 437Q193 454 241 454Q327 454 372 418Q417 382 424 322L328 305Q322 336 300.5 351.5Q279 367 244 367Q185 367 158 326Q131 285 131 222Q131 159 158 118Q185 77 244 77Q279 77 300.5 92.5Q322 108 328 139L424 122Q417 62 372 26Q327 -10 241 -10Q193 -10 154 7Q115 24 87.5 54.5Q60 85 45.5 127.5Q31 170 31 222ZM185 578Q185 604 201 620Q217 636 243 636Q269 636 285 620Q301 604 301 578Q301 552 285 536Q269 520 243 520Q217 520 201 536Q185 552 185 578Z" glyph-name="cdotaccent" horiz-adv-x="451" unicode="&#267;" /><glyph d="M277 11 269 -31Q300 -39 320 -57.5Q340 -76 340 -108Q340 -140 315.5 -160Q291 -180 243 -180Q218 -180 198.5 -174Q179 -168 165 -159L178 -107Q189 -113 204.5 -117Q220 -121 236 -121Q254 -121 265 -116Q276 -111 276 -100Q276 -83 258 -74.5Q240 -66 210 -64H207L221 11Z" glyph-name="cedilla" horiz-adv-x="500" unicode="&#184;" /><glyph d="M216 -16Q273 -21 306.5 -43.5Q340 -66 340 -108Q340 -140 315.5 -160Q291 -180 243 -180Q218 -180 198.5 -174Q179 -168 165 -159L178 -107Q189 -113 204.5 -117Q220 -121 236 -121Q254 -121 265 -116Q276 -111 276 -100Q276 -83 257.5 -74.5Q239 -66 207 -64Z" glyph-name="cedilla.alt" horiz-adv-x="500" /><glyph d="M31 232Q31 278 42.5 316.5Q54 355 75.5 384.5Q97 414 128 433.5Q159 453 198 460V547H288V460Q351 450 384.5 416.5Q418 383 424 332L328 315Q322 346 300.5 361.5Q279 377 244 377Q185 377 158 336Q131 295 131 232Q131 169 158 128Q185 87 244 87Q279 87 300.5 102.5Q322 118 328 149L424 132Q418 81 384.5 47Q351 13 288 3V-89H198V4Q159 11 128 30.5Q97 50 75.5 79.5Q54 109 42.5 147.5Q31 186 31 232Z" glyph-name="cent" horiz-adv-x="451" unicode="&#162;" /><glyph d="M64 232Q64 278 75.5 316.5Q87 355 108.5 384.5Q130 414 161 433.5Q192 453 231 460V547H321V460Q384 450 417.5 416.5Q451 383 457 332L361 315Q355 346 333.5 361.5Q312 377 277 377Q218 377 191 336Q164 295 164 232Q164 169 191 128Q218 87 277 87Q312 87 333.5 102.5Q355 118 361 149L457 132Q451 81 417.5 47Q384 13 321 3V-89H231V4Q192 11 161 30.5Q130 50 108.5 79.5Q87 109 75.5 147.5Q64 186 64 232Z" glyph-name="cent.lt" horiz-adv-x="520" /><glyph d="M390 506H311L250 586L189 506H110L200 650H300Z" glyph-name="circumflex" horiz-adv-x="500" unicode="&#710;" /><glyph d="M390 671H301L250 731L199 671H110L204 795H296Z" glyph-name="circumflex.cap" horiz-adv-x="500" unicode="&#58403;" /><glyph d="M158 54Q158 28 142 12Q126 -4 100 -4Q74 -4 58 12Q42 28 42 54Q42 80 58 96Q74 112 100 112Q126 112 142 96Q158 80 158 54ZM158 354Q158 328 142 312Q126 296 100 296Q74 296 58 312Q42 328 42 354Q42 380 58 396Q74 412 100 412Q126 412 142 396Q158 380 158 354Z" glyph-name="colon" horiz-adv-x="200" unicode=":" /><glyph d="M188 54Q188 28 172 12Q156 -4 130 -4Q104 -4 88 12Q72 28 72 54Q72 80 88 96Q104 112 130 112Q156 112 172 96Q188 80 188 54ZM188 354Q188 328 172 312Q156 296 130 296Q104 296 88 312Q72 328 72 354Q72 380 88 396Q104 412 130 412Q156 412 172 396Q188 380 188 354Z" glyph-name="colon.tab" horiz-adv-x="260" /><glyph d="M48 -63Q107 -51 117 -2Q107 -4 100 -4Q74 -4 58 12Q42 28 42 54Q42 80 58 96Q74 112 100 112Q136 112 153 90.5Q170 69 170 29Q170 -17 141.5 -55.5Q113 -94 56 -105Z" glyph-name="comma" horiz-adv-x="200" unicode="," /><glyph d="M78 -63Q137 -51 147 -2Q137 -4 130 -4Q104 -4 88 12Q72 28 72 54Q72 80 88 96Q104 112 130 112Q166 112 183 90.5Q200 69 200 29Q200 -17 171.5 -55.5Q143 -94 86 -105Z" glyph-name="comma.tab" horiz-adv-x="260" /><glyph d="M206 -152Q223 -149 236.5 -143Q250 -137 258 -125H248Q226 -125 212 -111.5Q198 -98 198 -76Q198 -54 213.5 -40.5Q229 -27 250 -27Q279 -27 294.5 -44.5Q310 -62 310 -94Q310 -131 285 -156.5Q260 -182 214 -190Z" glyph-name="commaaccent" horiz-adv-x="500" unicode="&#58388;" /><glyph d="M294 628Q276 625 262 617Q248 609 240 594Q244 595 252 595Q274 595 288 581Q302 567 302 545Q302 523 286.5 509Q271 495 250 495Q220 495 204 513.5Q188 532 188 564Q188 602 214 630Q240 658 286 666Z" glyph-name="commaturn" horiz-adv-x="500" /><glyph d="M669 307Q669 238 644 180Q619 122 576 79.5Q533 37 475 13.5Q417 -10 352 -10Q287 -10 229 13.5Q171 37 128 79.5Q85 122 60 180Q35 238 35 307Q35 376 60 434Q85 492 128 534.5Q171 577 229 600.5Q287 624 352 624Q417 624 475 600.5Q533 577 576 534.5Q619 492 644 434Q669 376 669 307ZM622 307Q622 366 600.5 415.5Q579 465 542.5 501Q506 537 456.5 557.5Q407 578 352 578Q296 578 247 557.5Q198 537 161.5 501Q125 465 103.5 415.5Q82 366 82 307Q82 248 103.5 198.5Q125 149 161.5 113Q198 77 247 56.5Q296 36 352 36Q407 36 456.5 56.5Q506 77 542.5 113Q579 149 600.5 198.5Q622 248 622 307ZM264 307Q264 259 287 228Q310 197 355 197Q381 197 398 209Q415 221 420 247L514 230Q508 171 465 139.5Q422 108 353 108Q311 108 277 122.5Q243 137 218.5 163.5Q194 190 180.5 226.5Q167 263 167 307Q167 351 180.5 387.5Q194 424 218.5 450.5Q243 477 277 491.5Q311 506 353 506Q422 506 465 474.5Q508 443 514 384L420 367Q415 393 398 405Q381 417 355 417Q310 417 287 386Q264 355 264 307Z" glyph-name="copyright" horiz-adv-x="704" unicode="&#169;" /><glyph d="M350 38Q335 19 304.5 4.5Q274 -10 237 -10Q188 -10 150 8Q112 26 85.5 57.5Q59 89 45 131.5Q31 174 31 222Q31 270 45 312Q59 354 85.5 385.5Q112 417 150 435.5Q188 454 237 454Q274 454 304.5 439.5Q335 425 350 406V650H450V0H350ZM350 306Q337 332 311 348.5Q285 365 254 365Q196 365 163.5 324.5Q131 284 131 222Q131 160 163.5 119.5Q196 79 254 79Q285 79 311 95.5Q337 112 350 138Z" glyph-name="d" horiz-adv-x="512" unicode="d" /><glyph d="M30 558H129V650H203V558H302V486H203V276H129V486H30Z" glyph-name="dagger" horiz-adv-x="332" unicode="&#8224;" /><glyph d="M35 570H135V650H209V570H310V502H209V423H310V356H209V276H135V356H35V423H135V502H35Z" glyph-name="daggerdbl" horiz-adv-x="345" unicode="&#8225;" /><glyph d="M500 483 524 650H602L578 483ZM350 0V38Q335 19 304.5 4.5Q274 -10 237 -10Q188 -10 150 8Q112 26 85.5 57.5Q59 89 45 131.5Q31 174 31 222Q31 270 45 312Q59 354 85.5 385.5Q112 417 150 435.5Q188 454 237 454Q274 454 304.5 439.5Q335 425 350 406V650H450V0ZM350 306Q337 332 311 348.5Q285 365 254 365Q196 365 163.5 324.5Q131 284 131 222Q131 160 163.5 119.5Q196 79 254 79Q285 79 311 95.5Q337 112 350 138Z" glyph-name="dcaron" horiz-adv-x="512" unicode="&#271;" /><glyph d="M249 572H350V650H450V572H510V502H450V0H350V38Q335 19 304.5 4.5Q274 -10 237 -10Q188 -10 150 8Q112 26 85.5 57.5Q59 89 45 131.5Q31 174 31 222Q31 270 45 312Q59 354 85.5 385.5Q112 417 150 435.5Q188 454 237 454Q274 454 304.5 439.5Q335 425 350 406V502H249ZM350 306Q337 332 311 348.5Q285 365 254 365Q196 365 163.5 324.5Q131 284 131 222Q131 160 163.5 119.5Q196 79 254 79Q285 79 311 95.5Q337 112 350 138Z" glyph-name="dcroat" horiz-adv-x="512" unicode="&#273;" /><glyph d="M350 38Q335 19 304.5 4.5Q274 -10 237 -10Q188 -10 150 8Q112 26 85.5 57.5Q59 89 45 131.5Q31 174 31 222Q31 270 45 312Q59 354 85.5 385.5Q112 417 150 435.5Q188 454 237 454Q274 454 304.5 439.5Q335 425 350 406V650H450V0H350ZM350 306Q337 332 311 348.5Q285 365 254 365Q196 365 163.5 324.5Q131 284 131 222Q131 160 163.5 119.5Q196 79 254 79Q285 79 311 95.5Q337 112 350 138ZM344 728Q344 754 360 770Q376 786 402 786Q428 786 444 770Q460 754 460 728Q460 702 444 686Q428 670 402 670Q376 670 360 686Q344 702 344 728Z" glyph-name="ddotaccent" horiz-adv-x="512" unicode="&#7691;" /><glyph d="M115 491Q115 465 133 446.5Q151 428 177 428Q203 428 221 446.5Q239 465 239 491Q239 517 221 535.5Q203 554 177 554Q151 554 133 535.5Q115 517 115 491ZM309 491Q309 463 298.5 439Q288 415 270 397Q252 379 228 368.5Q204 358 177 358Q150 358 126 368.5Q102 379 84 397Q66 415 55.5 439Q45 463 45 491Q45 519 55.5 543Q66 567 84 585Q102 603 126 613.5Q150 624 177 624Q204 624 228 613.5Q252 603 270 585Q288 567 298.5 543Q309 519 309 491Z" glyph-name="degree" horiz-adv-x="354" unicode="&#176;" /><glyph d="M115 578Q115 604 131 620Q147 636 173 636Q199 636 215 620Q231 604 231 578Q231 552 215 536Q199 520 173 520Q147 520 131 536Q115 552 115 578ZM268 578Q268 604 284 620Q300 636 326 636Q352 636 368 620Q384 604 384 578Q384 552 368 536Q352 520 326 520Q300 520 284 536Q268 552 268 578Z" glyph-name="dieresis" horiz-adv-x="500" unicode="&#168;" /><glyph d="M115 728Q115 754 131 770Q147 786 173 786Q199 786 215 770Q231 754 231 728Q231 702 215 686Q199 670 173 670Q147 670 131 686Q115 702 115 728ZM268 728Q268 754 284 770Q300 786 326 786Q352 786 368 770Q384 754 384 728Q384 702 368 686Q352 670 326 670Q300 670 284 686Q268 702 268 728Z" glyph-name="dieresis.cap" horiz-adv-x="500" unicode="&#58409;" /><glyph d="M74 339H490V259H74ZM219 467Q219 493 237.5 512Q256 531 282 531Q308 531 327 512Q346 493 346 467Q346 441 327 422.5Q308 404 282 404Q256 404 237.5 422.5Q219 441 219 467ZM219 131Q219 157 237.5 175.5Q256 194 282 194Q308 194 327 175.5Q346 157 346 131Q346 105 327 86Q308 67 282 67Q256 67 237.5 86Q219 105 219 131Z" glyph-name="divide" horiz-adv-x="564" unicode="&#247;" /><glyph d="M52 339H468V259H52ZM197 467Q197 493 215.5 512Q234 531 260 531Q286 531 305 512Q324 493 324 467Q324 441 305 422.5Q286 404 260 404Q234 404 215.5 422.5Q197 441 197 467ZM197 131Q197 157 215.5 175.5Q234 194 260 194Q286 194 305 175.5Q324 157 324 131Q324 105 305 86Q286 67 260 67Q234 67 215.5 86Q197 105 197 131Z" glyph-name="divide.lt" horiz-adv-x="520" /><glyph d="M209 7Q146 17 96 55Q46 93 28 165L126 182Q130 158 142 140.5Q154 123 171 111.5Q188 100 208.5 95Q229 90 250 90Q306 90 336 112Q366 134 366 175Q366 206 347 224.5Q328 243 283 254L185 278Q155 285 129 297.5Q103 310 83.5 329.5Q64 349 52.5 375.5Q41 402 41 438Q41 475 54 504.5Q67 534 89.5 556Q112 578 143 591Q174 604 209 608V699H299V604Q354 592 394.5 556.5Q435 521 452 459L358 442Q349 479 322.5 502.5Q296 526 241 526Q190 526 162.5 503.5Q135 481 135 445Q135 387 211 368L311 344Q379 328 419.5 287Q460 246 460 180Q460 143 448 113Q436 83 414.5 61.5Q393 40 363.5 26Q334 12 299 7V-92H209Z" glyph-name="dollar" horiz-adv-x="490" unicode="$" /><glyph d="M228 7Q165 17 115 55Q65 93 47 165L145 182Q149 158 161 140.5Q173 123 190 111.5Q207 100 227.5 95Q248 90 269 90Q325 90 355 112Q385 134 385 175Q385 206 366 224.5Q347 243 302 254L204 278Q174 285 148 297.5Q122 310 102.5 329.5Q83 349 71.5 375.5Q60 402 60 438Q60 475 73 504.5Q86 534 108.5 556Q131 578 162 591Q193 604 228 608V699H318V604Q373 592 413.5 556.5Q454 521 471 459L377 442Q368 479 341.5 502.5Q315 526 260 526Q209 526 181.5 503.5Q154 481 154 445Q154 387 230 368L330 344Q398 328 438.5 287Q479 246 479 180Q479 143 467 113Q455 83 433.5 61.5Q412 40 382.5 26Q353 12 318 7V-92H228Z" glyph-name="dollar.lt" horiz-adv-x="520" /><glyph d="M192 578Q192 604 208 620Q224 636 250 636Q276 636 292 620Q308 604 308 578Q308 552 292 536Q276 520 250 520Q224 520 208 536Q192 552 192 578Z" glyph-name="dotaccent" horiz-adv-x="500" unicode="&#729;" /><glyph d="M192 728Q192 754 208 770Q224 786 250 786Q276 786 292 770Q308 754 308 728Q308 702 292 686Q276 670 250 670Q224 670 208 686Q192 702 192 728Z" glyph-name="dotaccent.cap" horiz-adv-x="500" unicode="&#58408;" /><glyph d="M192 -95Q192 -69 208 -53Q224 -37 250 -37Q276 -37 292 -53Q308 -69 308 -95Q308 -121 292 -137Q276 -153 250 -153Q224 -153 208 -137Q192 -121 192 -95Z" glyph-name="dotbelow" horiz-adv-x="500" unicode="&#58389;" /><glyph d="M162 0H62V444H162Z" glyph-name="dotlessi" horiz-adv-x="224" unicode="&#305;" /><glyph d="M162 -40Q162 -106 126.5 -143Q91 -180 22 -180Q11 -180 -4 -178.5Q-19 -177 -27 -172L-12 -90Q0 -95 13 -95Q38 -95 50 -81Q62 -67 62 -35V444H162Z" glyph-name="dotlessj" horiz-adv-x="224" unicode="&#567;" /><glyph d="M430 122Q416 62 366 26Q316 -10 241 -10Q194 -10 155.5 7Q117 24 89 54.5Q61 85 46 127.5Q31 170 31 221Q31 271 46.5 313.5Q62 356 89.5 387.5Q117 419 155.5 436.5Q194 454 239 454Q286 454 322 438Q358 422 382.5 393Q407 364 419.5 324Q432 284 432 235V199H129Q131 140 161 107Q191 74 241 74Q277 74 305 90Q333 106 341 138ZM240 370Q198 370 169.5 345Q141 320 132 272H333Q332 313 309 341.5Q286 370 240 370Z" glyph-name="e" horiz-adv-x="462" unicode="e" /><glyph d="M199 506 276 650H379L288 506ZM430 122Q416 62 366 26Q316 -10 241 -10Q194 -10 155.5 7Q117 24 89 54.5Q61 85 46 127.5Q31 170 31 221Q31 271 46.5 313.5Q62 356 89.5 387.5Q117 419 155.5 436.5Q194 454 239 454Q286 454 322 438Q358 422 382.5 393Q407 364 419.5 324Q432 284 432 235V199H129Q131 140 161 107Q191 74 241 74Q277 74 305 90Q333 106 341 138ZM240 370Q198 370 169.5 345Q141 320 132 272H333Q332 313 309 341.5Q286 370 240 370Z" glyph-name="eacute" horiz-adv-x="462" unicode="&#233;" /><glyph d="M430 122Q416 62 366 26Q316 -10 241 -10Q194 -10 155.5 7Q117 24 89 54.5Q61 85 46 127.5Q31 170 31 221Q31 271 46.5 313.5Q62 356 89.5 387.5Q117 419 155.5 436.5Q194 454 239 454Q286 454 322 438Q358 422 382.5 393Q407 364 419.5 324Q432 284 432 235V199H129Q131 140 161 107Q191 74 241 74Q277 74 305 90Q333 106 341 138ZM240 370Q198 370 169.5 345Q141 320 132 272H333Q332 313 309 341.5Q286 370 240 370ZM244 496Q216 496 191 504.5Q166 513 147.5 531.5Q129 550 117.5 579Q106 608 104 650H181Q183 608 198 591Q213 574 244 574Q275 574 290 591Q305 608 307 650H384Q382 608 370.5 579Q359 550 340 531.5Q321 513 296.5 504.5Q272 496 244 496Z" glyph-name="ebreve" horiz-adv-x="462" unicode="&#277;" /><glyph d="M305 650H384L294 506H194L104 650H183L244 570ZM430 122Q416 62 366 26Q316 -10 241 -10Q194 -10 155.5 7Q117 24 89 54.5Q61 85 46 127.5Q31 170 31 221Q31 271 46.5 313.5Q62 356 89.5 387.5Q117 419 155.5 436.5Q194 454 239 454Q286 454 322 438Q358 422 382.5 393Q407 364 419.5 324Q432 284 432 235V199H129Q131 140 161 107Q191 74 241 74Q277 74 305 90Q333 106 341 138ZM240 370Q198 370 169.5 345Q141 320 132 272H333Q332 313 309 341.5Q286 370 240 370Z" glyph-name="ecaron" horiz-adv-x="462" unicode="&#283;" /><glyph d="M383 506H304L243 586L182 506H103L193 650H293ZM430 122Q416 62 366 26Q316 -10 241 -10Q194 -10 155.5 7Q117 24 89 54.5Q61 85 46 127.5Q31 170 31 221Q31 271 46.5 313.5Q62 356 89.5 387.5Q117 419 155.5 436.5Q194 454 239 454Q286 454 322 438Q358 422 382.5 393Q407 364 419.5 324Q432 284 432 235V199H129Q131 140 161 107Q191 74 241 74Q277 74 305 90Q333 106 341 138ZM240 370Q198 370 169.5 345Q141 320 132 272H333Q332 313 309 341.5Q286 370 240 370Z" glyph-name="ecircumflex" horiz-adv-x="462" unicode="&#234;" /><glyph d="M110 578Q110 604 126 620Q142 636 168 636Q194 636 210 620Q226 604 226 578Q226 552 210 536Q194 520 168 520Q142 520 126 536Q110 552 110 578ZM263 578Q263 604 279 620Q295 636 321 636Q347 636 363 620Q379 604 379 578Q379 552 363 536Q347 520 321 520Q295 520 279 536Q263 552 263 578ZM430 122Q416 62 366 26Q316 -10 241 -10Q194 -10 155.5 7Q117 24 89 54.5Q61 85 46 127.5Q31 170 31 221Q31 271 46.5 313.5Q62 356 89.5 387.5Q117 419 155.5 436.5Q194 454 239 454Q286 454 322 438Q358 422 382.5 393Q407 364 419.5 324Q432 284 432 235V199H129Q131 140 161 107Q191 74 241 74Q277 74 305 90Q333 106 341 138ZM240 370Q198 370 169.5 345Q141 320 132 272H333Q332 313 309 341.5Q286 370 240 370Z" glyph-name="edieresis" horiz-adv-x="462" unicode="&#235;" /><glyph d="M430 122Q416 62 366 26Q316 -10 241 -10Q194 -10 155.5 7Q117 24 89 54.5Q61 85 46 127.5Q31 170 31 221Q31 271 46.5 313.5Q62 356 89.5 387.5Q117 419 155.5 436.5Q194 454 239 454Q286 454 322 438Q358 422 382.5 393Q407 364 419.5 324Q432 284 432 235V199H129Q131 140 161 107Q191 74 241 74Q277 74 305 90Q333 106 341 138ZM240 370Q198 370 169.5 345Q141 320 132 272H333Q332 313 309 341.5Q286 370 240 370ZM186 578Q186 604 202 620Q218 636 244 636Q270 636 286 620Q302 604 302 578Q302 552 286 536Q270 520 244 520Q218 520 202 536Q186 552 186 578Z" glyph-name="edotaccent" horiz-adv-x="462" unicode="&#279;" /><glyph d="M430 122Q416 62 366 26Q316 -10 241 -10Q194 -10 155.5 7Q117 24 89 54.5Q61 85 46 127.5Q31 170 31 221Q31 271 46.5 313.5Q62 356 89.5 387.5Q117 419 155.5 436.5Q194 454 239 454Q286 454 322 438Q358 422 382.5 393Q407 364 419.5 324Q432 284 432 235V199H129Q131 140 161 107Q191 74 241 74Q277 74 305 90Q333 106 341 138ZM240 370Q198 370 169.5 345Q141 320 132 272H333Q332 313 309 341.5Q286 370 240 370ZM190 506 99 650H202L279 506Z" glyph-name="egrave" horiz-adv-x="462" unicode="&#232;" /><glyph d="M246 74Q294 74 326 100.5Q358 127 358 175Q358 223 326 249.5Q294 276 246 276Q198 276 166 249.5Q134 223 134 175Q134 127 166 100.5Q198 74 246 74ZM246 363Q284 363 312 386Q340 409 340 451Q340 495 312 518Q284 541 246 541Q208 541 180 518Q152 495 152 451Q152 409 180 386Q208 363 246 363ZM246 -10Q202 -10 163 2Q124 14 95.5 37Q67 60 50.5 92.5Q34 125 34 167Q34 198 43 223Q52 248 68 267.5Q84 287 104 299.5Q124 312 147 318Q108 333 80.5 368.5Q53 404 53 456Q53 496 68.5 527.5Q84 559 110.5 580.5Q137 602 172 613Q207 624 246 624Q285 624 320 613Q355 602 381.5 580.5Q408 559 423.5 527.5Q439 496 439 456Q439 404 411.5 368.5Q384 333 345 318Q367 312 387.5 299.5Q408 287 424 267.5Q440 248 449 223Q458 198 458 167Q458 125 441.5 92.5Q425 60 396.5 37Q368 14 329 2Q290 -10 246 -10Z" glyph-name="eight" horiz-adv-x="492" unicode="8" /><glyph d="M145 -112Q165 -112 177 -101.5Q189 -91 189 -74Q189 -55 177 -44.5Q165 -34 145 -34Q126 -34 113.5 -44.5Q101 -55 101 -74Q101 -91 113.5 -101.5Q126 -112 145 -112ZM145 31Q162 31 173 40.5Q184 50 184 66Q184 83 173 93Q162 103 145 103Q129 103 118 93Q107 83 107 66Q107 50 118 40.5Q129 31 145 31ZM145 -175Q94 -175 58.5 -150Q23 -125 23 -79Q23 -50 38.5 -30Q54 -10 77 -3Q57 7 45 25.5Q33 44 33 69Q33 92 42 109.5Q51 127 66.5 139Q82 151 102.5 157.5Q123 164 145 164Q167 164 187.5 157.5Q208 151 223.5 139Q239 127 248 109.5Q257 92 257 69Q257 44 245.5 25.5Q234 7 214 -3Q236 -10 252 -30Q268 -50 268 -79Q268 -125 232 -150Q196 -175 145 -175Z" glyph-name="eight.inf" horiz-adv-x="291" unicode="&#58745;" /><glyph d="M262 74Q311 74 344.5 100.5Q378 127 378 175Q378 223 344.5 249.5Q311 276 262 276Q214 276 180.5 249.5Q147 223 147 175Q147 127 180.5 100.5Q214 74 262 74ZM262 363Q281 363 299 369Q317 375 330.5 386Q344 397 352 413.5Q360 430 360 451Q360 473 352 489.5Q344 506 330.5 517.5Q317 529 299 535Q281 541 262 541Q243 541 225.5 535Q208 529 194.5 517.5Q181 506 173 489.5Q165 473 165 451Q165 430 173 413.5Q181 397 194.5 386Q208 375 225.5 369Q243 363 262 363ZM262 -10Q217 -10 178 2Q139 14 110 37Q81 60 64.5 92.5Q48 125 48 167Q48 198 57.5 223Q67 248 82.5 267.5Q98 287 118.5 299.5Q139 312 162 318Q123 333 95 368.5Q67 404 67 456Q67 496 83 527.5Q99 559 125.5 580.5Q152 602 187.5 613Q223 624 262 624Q301 624 336.5 613Q372 602 399 580.5Q426 559 442 527.5Q458 496 458 456Q458 404 430 368.5Q402 333 363 318Q385 312 406 299.5Q427 287 442.5 267.5Q458 248 467.5 223Q477 198 477 167Q477 125 460.5 92.5Q444 60 414.5 37Q385 14 346 2Q307 -10 262 -10Z" glyph-name="eight.lt" horiz-adv-x="520" /><glyph d="M173 286H94V525L17 487V566L119 614H173ZM387 286H308V525L231 487V566L333 614H387ZM395 0H308L677 614H764ZM817 0H738V239L661 201V280L763 328H817ZM1015 334Q1061 334 1089 312Q1117 290 1124 252L1051 240Q1043 267 1014 267Q987 267 972.5 244.5Q958 222 958 193V189Q966 201 982.5 209Q999 217 1021 217Q1072 217 1100.5 185.5Q1129 154 1129 109Q1129 60 1097.5 27.5Q1066 -5 1009 -5Q977 -5 951.5 9Q926 23 909 50Q895 72 888.5 98Q882 124 882 157Q882 236 916 285Q950 334 1015 334ZM962 107Q962 87 975.5 74Q989 61 1010 61Q1030 61 1043 74Q1056 87 1056 107Q1056 129 1043 142Q1030 155 1010 155Q989 155 975.5 142Q962 129 962 107Z" glyph-name="elevensixteenths" horiz-adv-x="1154" unicode="&#61984;" /><glyph d="M173 286H94V525L17 487V566L119 614H173ZM387 286H308V525L231 487V566L333 614H387ZM395 0H308L677 614H764ZM756 196H775Q793 196 805.5 204.5Q818 213 818 231Q818 245 808.5 255Q799 265 782 265Q763 265 752.5 254Q742 243 741 227L665 240Q671 281 700 307.5Q729 334 783 334Q834 334 864.5 306.5Q895 279 895 234Q895 212 884.5 193Q874 174 859 166Q879 157 889.5 138Q900 119 900 96Q900 53 868 24Q836 -5 782 -5Q730 -5 697 20.5Q664 46 659 91L739 104Q741 86 751.5 74.5Q762 63 782 63Q799 63 810.5 73Q822 83 822 100Q822 118 809.5 127Q797 136 777 136H756ZM1095 228Q1095 242 1085.5 251.5Q1076 261 1060 261Q1042 261 1033.5 250Q1025 239 1023 225L943 239Q950 283 979 308.5Q1008 334 1061 334Q1118 334 1147.5 306Q1177 278 1177 233Q1177 201 1158 176.5Q1139 152 1114 127L1057 70H1179V0H944V52L1055 164Q1072 183 1083.5 197.5Q1095 212 1095 228Z" glyph-name="eleventhirtyseconds" horiz-adv-x="1204" /><glyph d="M70 54Q70 80 86 96Q102 112 128 112Q154 112 170 96Q186 80 186 54Q186 28 170 12Q154 -4 128 -4Q102 -4 86 12Q70 28 70 54ZM342 54Q342 80 358 96Q374 112 400 112Q426 112 442 96Q458 80 458 54Q458 28 442 12Q426 -4 400 -4Q374 -4 358 12Q342 28 342 54ZM614 54Q614 80 630 96Q646 112 672 112Q698 112 714 96Q730 80 730 54Q730 28 714 12Q698 -4 672 -4Q646 -4 630 12Q614 28 614 54Z" glyph-name="ellipsis" horiz-adv-x="800" unicode="&#8230;" /><glyph d="M132 614H357V531H132ZM430 122Q416 62 366 26Q316 -10 241 -10Q194 -10 155.5 7Q117 24 89 54.5Q61 85 46 127.5Q31 170 31 221Q31 271 46.5 313.5Q62 356 89.5 387.5Q117 419 155.5 436.5Q194 454 239 454Q286 454 322 438Q358 422 382.5 393Q407 364 419.5 324Q432 284 432 235V199H129Q131 140 161 107Q191 74 241 74Q277 74 305 90Q333 106 341 138ZM240 370Q198 370 169.5 345Q141 320 132 272H333Q332 313 309 341.5Q286 370 240 370Z" glyph-name="emacron" horiz-adv-x="462" unicode="&#275;" /><glyph d="M40 302H806V223H40Z" glyph-name="emdash" horiz-adv-x="846" unicode="&#8212;" /><glyph d="M40 342H806V263H40Z" glyph-name="emdash.cap" horiz-adv-x="846" unicode="&#58502;" /><glyph d="M40 302H435V223H40Z" glyph-name="endash" horiz-adv-x="475" unicode="&#8211;" /><glyph d="M40 342H435V263H40Z" glyph-name="endash.cap" horiz-adv-x="475" unicode="&#58500;" /><glyph d="M439 -40Q439 -106 403.5 -143Q368 -180 299 -180Q288 -180 273 -178.5Q258 -177 250 -172L265 -90Q277 -95 290 -95Q315 -95 327 -81Q339 -67 339 -35V272Q339 314 318.5 338.5Q298 363 255 363Q223 363 196.5 345.5Q170 328 162 295V0H62V444H162V405Q180 426 211.5 440Q243 454 282 454Q358 454 398.5 408.5Q439 363 439 289Z" glyph-name="eng" horiz-adv-x="495" unicode="&#331;" /><glyph d="M430 122Q419 77 388.5 45.5Q358 14 312 0Q283 -18 266.5 -37Q250 -56 250 -76Q250 -110 290 -110Q305 -110 317 -106.5Q329 -103 334 -99L347 -158Q340 -165 320.5 -172.5Q301 -180 271 -180Q221 -180 198.5 -156.5Q176 -133 176 -101Q176 -74 188.5 -50.5Q201 -27 221 -9Q178 -6 143 12.5Q108 31 83 61Q58 91 44.5 131.5Q31 172 31 221Q31 271 46.5 313.5Q62 356 89.5 387.5Q117 419 155.5 436.5Q194 454 239 454Q286 454 322 438Q358 422 382.5 393Q407 364 419.5 324Q432 284 432 235V199H129Q131 140 161 107Q191 74 241 74Q277 74 305 90Q333 106 341 138ZM240 370Q198 370 169.5 345Q141 320 132 272H333Q332 313 309 341.5Q286 370 240 370Z" glyph-name="eogonek" horiz-adv-x="462" unicode="&#281;" /><glyph d="M82 262H497V188H82ZM82 412H497V336H82Z" glyph-name="equal" horiz-adv-x="578" unicode="=" /><glyph d="M44 -30H283V-83H44ZM44 65H283V12H44Z" glyph-name="equal.inf" horiz-adv-x="327" unicode="&#58749;" /><glyph d="M52 262H467V188H52ZM52 412H467V336H52Z" glyph-name="equal.lt" horiz-adv-x="520" /><glyph d="M117 547 182 568Q157 588 131 608Q105 628 79 646V650H209Q243 626 275 599L364 629L386 570L325 549Q385 483 419 401Q453 319 453 228Q453 174 437.5 130.5Q422 87 394.5 55.5Q367 24 328 7Q289 -10 242 -10Q195 -10 156 7Q117 24 89.5 54.5Q62 85 46.5 127Q31 169 31 219Q31 270 46 312Q61 354 88 384.5Q115 415 151.5 432Q188 449 230 449Q261 449 282 439.5Q303 430 317 417H321Q312 438 289.5 464.5Q267 491 236 520L140 488ZM353 219Q353 282 324.5 322.5Q296 363 242 363Q188 363 159.5 322.5Q131 282 131 219Q131 156 159.5 116Q188 76 242 76Q296 76 324.5 116Q353 156 353 219Z" glyph-name="eth" horiz-adv-x="484" unicode="&#240;" /><glyph d="M42 614H158L130 193H70ZM158 54Q158 28 142 12Q126 -4 100 -4Q74 -4 58 12Q42 28 42 54Q42 80 58 96Q74 112 100 112Q126 112 142 96Q158 80 158 54Z" glyph-name="exclam" horiz-adv-x="200" unicode="!" /><glyph d="M70 325H130L158 -96H42ZM158 464Q158 438 142 422Q126 406 100 406Q74 406 58 422Q42 438 42 464Q42 490 58 506Q74 522 100 522Q126 522 142 506Q158 490 158 464Z" glyph-name="exclamdown" horiz-adv-x="210" unicode="&#161;" /><glyph d="M70 421H130L158 0H42ZM158 560Q158 534 142 518Q126 502 100 502Q74 502 58 518Q42 534 42 560Q42 586 58 602Q74 618 100 618Q126 618 142 602Q158 586 158 560Z" glyph-name="exclamdown.cap" horiz-adv-x="200" unicode="&#58433;" /><glyph d="M297 564Q280 574 258 574Q228 574 210.5 556.5Q193 539 193 506V444H290V361H193V0H95V361H18V444H95V513Q95 549 106 576Q117 603 136.5 622Q156 641 183 650.5Q210 660 241 660Q263 660 282 656Q301 652 312 646Z" glyph-name="f" horiz-adv-x="317" unicode="f" /><glyph d="M581 564Q564 574 542 574Q512 574 494.5 556.5Q477 539 477 506V444H574V361H477V0H379V361H193V0H95V361H18V444H95V513Q95 549 106 576Q117 603 136.5 622Q156 641 183 650.5Q210 660 241 660Q263 660 282 656Q301 652 312 646L297 564Q280 574 258 574Q228 574 210.5 556.5Q193 539 193 506V444H379V513Q379 549 390 576Q401 603 420.5 622Q440 641 467 650.5Q494 660 525 660Q547 660 566 656Q585 652 596 646Z" glyph-name="f_f" horiz-adv-x="601" unicode="&#64256;" /><glyph d="M297 564Q280 574 258 574Q228 574 210.5 556.5Q193 539 193 506V444H290V361H193V0H95V361H18V444H95V513Q95 549 106 576Q117 603 136.5 622Q156 641 183 650.5Q210 660 241 660Q263 660 282 656Q301 652 312 646ZM127 728Q127 754 143 770Q159 786 185 786Q211 786 227 770Q243 754 243 728Q243 702 227 686Q211 670 185 670Q159 670 143 686Q127 702 127 728Z" glyph-name="fdotaccent" horiz-adv-x="317" unicode="&#7711;" /><glyph d="M297 564Q280 574 258 574Q228 574 210.5 556.5Q193 539 193 506V444H290V361H193V0H95V361H18V444H95V513Q95 549 106 576Q117 603 136.5 622Q156 641 183 650.5Q210 660 241 660Q263 660 282 656Q301 652 312 646ZM479 0H379V444H479ZM487 578Q487 552 471 536Q455 520 429 520Q403 520 387 536Q371 552 371 578Q371 604 387 620Q403 636 429 636Q455 636 471 620Q487 604 487 578Z" glyph-name="fi" horiz-adv-x="541" unicode="&#64257;" /><glyph d="M173 286H94V525L17 487V566L119 614H173ZM358 438Q345 438 335 433Q325 428 318 420H253V614H452V544H318V491Q326 496 339.5 500Q353 504 369 504Q419 504 447.5 473.5Q476 443 476 394Q476 343 443.5 312Q411 281 358 281Q304 281 273 306.5Q242 332 236 377L314 391Q316 372 327.5 360.5Q339 349 359 349Q379 349 389.5 361.5Q400 374 400 394Q400 413 389 425.5Q378 438 358 438ZM465 0H378L747 614H834ZM887 0H808V239L731 201V280L833 328H887ZM1085 334Q1131 334 1159 312Q1187 290 1194 252L1121 240Q1113 267 1084 267Q1057 267 1042.5 244.5Q1028 222 1028 193V189Q1036 201 1052.5 209Q1069 217 1091 217Q1142 217 1170.5 185.5Q1199 154 1199 109Q1199 60 1167.5 27.5Q1136 -5 1079 -5Q1047 -5 1021.5 9Q996 23 979 50Q965 72 958.5 98Q952 124 952 157Q952 236 986 285Q1020 334 1085 334ZM1032 107Q1032 87 1045.5 74Q1059 61 1080 61Q1100 61 1113 74Q1126 87 1126 107Q1126 129 1113 142Q1100 155 1080 155Q1059 155 1045.5 142Q1032 129 1032 107Z" glyph-name="fifteensixteenths" horiz-adv-x="1224" unicode="&#61986;" /><glyph d="M173 286H94V525L17 487V566L119 614H173ZM358 438Q345 438 335 433Q325 428 318 420H253V614H452V544H318V491Q326 496 339.5 500Q353 504 369 504Q419 504 447.5 473.5Q476 443 476 394Q476 343 443.5 312Q411 281 358 281Q304 281 273 306.5Q242 332 236 377L314 391Q316 372 327.5 360.5Q339 349 359 349Q379 349 389.5 361.5Q400 374 400 394Q400 413 389 425.5Q378 438 358 438ZM465 0H378L747 614H834ZM826 196H845Q863 196 875.5 204.5Q888 213 888 231Q888 245 878.5 255Q869 265 852 265Q833 265 822.5 254Q812 243 811 227L735 240Q741 281 770 307.5Q799 334 853 334Q904 334 934.5 306.5Q965 279 965 234Q965 212 954.5 193Q944 174 929 166Q949 157 959.5 138Q970 119 970 96Q970 53 938 24Q906 -5 852 -5Q800 -5 767 20.5Q734 46 729 91L809 104Q811 86 821.5 74.5Q832 63 852 63Q869 63 880.5 73Q892 83 892 100Q892 118 879.5 127Q867 136 847 136H826ZM1165 228Q1165 242 1155.5 251.5Q1146 261 1130 261Q1112 261 1103.5 250Q1095 239 1093 225L1013 239Q1020 283 1049 308.5Q1078 334 1131 334Q1188 334 1217.5 306Q1247 278 1247 233Q1247 201 1228 176.5Q1209 152 1184 127L1127 70H1249V0H1014V52L1125 164Q1142 183 1153.5 197.5Q1165 212 1165 228Z" glyph-name="fifteenthirtyseconds" horiz-adv-x="1274" /><glyph d="M243 316Q209 316 184 302Q159 288 143 268H64V614H410V522H149V373Q163 384 191 394.5Q219 405 254 405Q297 405 333 390Q369 375 394.5 347.5Q420 320 434 282Q448 244 448 198Q448 152 432.5 114Q417 76 390 48.5Q363 21 325.5 5.5Q288 -10 243 -10Q154 -10 98 38Q42 86 32 167L131 184Q136 137 164.5 108.5Q193 80 245 80Q294 80 322.5 113Q351 146 351 198Q351 250 322.5 283Q294 316 243 316Z" glyph-name="five" horiz-adv-x="477" unicode="5" /><glyph d="M144 -18Q131 -18 121 -23Q111 -28 104 -36H39V158H238V88H104V35Q112 40 125.5 44Q139 48 155 48Q205 48 233.5 17.5Q262 -13 262 -62Q262 -113 229.5 -144Q197 -175 144 -175Q90 -175 59 -149.5Q28 -124 22 -79L100 -65Q102 -84 113.5 -95.5Q125 -107 145 -107Q165 -107 175.5 -94.5Q186 -82 186 -62Q186 -43 175 -30.5Q164 -18 144 -18Z" glyph-name="five.inf" horiz-adv-x="284" unicode="&#58742;" /><glyph d="M265 316Q230 316 200.5 302Q171 288 155 268H77V614H434V522H161V372Q175 383 206 394Q237 405 273 405Q317 405 354 390Q391 375 417.5 347.5Q444 320 458.5 282Q473 244 473 198Q473 152 458 113.5Q443 75 415.5 47.5Q388 20 349.5 5Q311 -10 264 -10Q169 -10 112 38Q55 86 44 167L144 184Q150 137 180 108.5Q210 80 265 80Q316 80 346 113Q376 146 376 198Q376 250 346 283Q316 316 265 316Z" glyph-name="five.lt" horiz-adv-x="520" /><glyph d="M144 438Q131 438 121 433Q111 428 104 420H39V614H238V544H104V491Q112 496 125.5 500Q139 504 155 504Q205 504 233.5 473.5Q262 443 262 394Q262 343 229.5 312Q197 281 144 281Q90 281 59 306.5Q28 332 22 377L100 391Q102 372 113.5 360.5Q125 349 145 349Q165 349 175.5 361.5Q186 374 186 394Q186 413 175 425.5Q164 438 144 438ZM251 0H164L533 614H620ZM673 0H594V239L517 201V280L619 328H673ZM871 334Q917 334 945 312Q973 290 980 252L907 240Q899 267 870 267Q843 267 828.5 244.5Q814 222 814 193V189Q822 201 838.5 209Q855 217 877 217Q928 217 956.5 185.5Q985 154 985 109Q985 60 953.5 27.5Q922 -5 865 -5Q833 -5 807.5 9Q782 23 765 50Q751 72 744.5 98Q738 124 738 157Q738 236 772 285Q806 334 871 334ZM818 107Q818 87 831.5 74Q845 61 866 61Q886 61 899 74Q912 87 912 107Q912 129 899 142Q886 155 866 155Q845 155 831.5 142Q818 129 818 107Z" glyph-name="fivesixteenths" horiz-adv-x="1010" unicode="&#61975;" /><glyph d="M144 438Q131 438 121 433Q111 428 104 420H39V614H238V544H104V491Q112 496 125.5 500Q139 504 155 504Q205 504 233.5 473.5Q262 443 262 394Q262 343 229.5 312Q197 281 144 281Q90 281 59 306.5Q28 332 22 377L100 391Q102 372 113.5 360.5Q125 349 145 349Q165 349 175.5 361.5Q186 374 186 394Q186 413 175 425.5Q164 438 144 438ZM251 0H164L533 614H620ZM612 196H631Q649 196 661.5 204.5Q674 213 674 231Q674 245 664.5 255Q655 265 638 265Q619 265 608.5 254Q598 243 597 227L521 240Q527 281 556 307.5Q585 334 639 334Q690 334 720.5 306.5Q751 279 751 234Q751 212 740.5 193Q730 174 715 166Q735 157 745.5 138Q756 119 756 96Q756 53 724 24Q692 -5 638 -5Q586 -5 553 20.5Q520 46 515 91L595 104Q597 86 607.5 74.5Q618 63 638 63Q655 63 666.5 73Q678 83 678 100Q678 118 665.5 127Q653 136 633 136H612ZM951 228Q951 242 941.5 251.5Q932 261 916 261Q898 261 889.5 250Q881 239 879 225L799 239Q806 283 835 308.5Q864 334 917 334Q974 334 1003.5 306Q1033 278 1033 233Q1033 201 1014 176.5Q995 152 970 127L913 70H1035V0H800V52L911 164Q928 183 939.5 197.5Q951 212 951 228Z" glyph-name="fivethirtyseconds" horiz-adv-x="1060" /><glyph d="M297 564Q280 574 258 574Q228 574 210.5 556.5Q193 539 193 506V444H290V361H193V0H95V361H18V444H95V513Q95 549 106 576Q117 603 136.5 622Q156 641 183 650.5Q210 660 241 660Q263 660 282 656Q301 652 312 646ZM479 0H379V650H479Z" glyph-name="fl" horiz-adv-x="541" unicode="&#64258;" /><glyph d="M69 351H156L178 477Q191 549 235.5 586.5Q280 624 350 624Q369 624 385 620.5Q401 617 414 612V524Q388 538 352 538Q322 538 301.5 520.5Q281 503 275 470L254 351H344V267H239L186 -33Q173 -105 138 -142.5Q103 -180 31 -180Q9 -180 -5.5 -177Q-20 -174 -33 -168V-80Q-20 -87 -1.5 -90.5Q17 -94 29 -94Q60 -94 71.5 -76.5Q83 -59 89 -26L141 267H69Z" glyph-name="florin" horiz-adv-x="424" unicode="&#402;" /><glyph d="M138 351H225L247 477Q260 549 304.5 586.5Q349 624 419 624Q438 624 454 620.5Q470 617 483 612V524Q457 538 421 538Q391 538 370.5 520.5Q350 503 344 470L323 351H413V267H308L255 -33Q242 -105 207 -142.5Q172 -180 100 -180Q78 -180 63.5 -177Q49 -174 36 -168V-80Q49 -87 67.5 -90.5Q86 -94 98 -94Q129 -94 140.5 -76.5Q152 -59 158 -26L210 267H138Z" glyph-name="florin.lt" horiz-adv-x="520" /><glyph d="M136 214H300V358H396V214H497V128H396V0H300V128H23V200L254 614H359Z" glyph-name="four" horiz-adv-x="517" unicode="4" /><glyph d="M107 -42H163V17H234V-42H280V-108H234V-170H163V-108H20V-49L123 158H201Z" glyph-name="four.inf" horiz-adv-x="299" unicode="&#58741;" /><glyph d="M136 214H300V358H396V214H497V128H396V0H300V128H23V200L254 614H359Z" glyph-name="four.lt" horiz-adv-x="520" /><glyph d="M-33 0H-120L249 614H336Z" glyph-name="fraction" horiz-adv-x="216" unicode="&#8260;" /><glyph d="M350 52Q335 34 305 19Q275 4 237 4Q188 4 149.5 22.5Q111 41 85 72.5Q59 104 45 144.5Q31 185 31 229Q31 273 45 313.5Q59 354 85 385.5Q111 417 149.5 435.5Q188 454 237 454Q275 454 305 439Q335 424 350 406V444H450V12Q450 -37 433.5 -73Q417 -109 388.5 -133Q360 -157 322 -168.5Q284 -180 241 -180Q153 -180 101 -143Q49 -106 38 -40L133 -24Q144 -98 240 -98Q293 -98 321.5 -68Q350 -38 350 10ZM350 311Q337 334 311.5 350Q286 366 254 366Q196 366 164.5 327.5Q133 289 133 229Q133 169 164.5 130.5Q196 92 254 92Q286 92 311.5 108Q337 124 350 147Z" glyph-name="g" horiz-adv-x="512" unicode="g" /><glyph d="M350 52Q335 34 305 19Q275 4 237 4Q188 4 149.5 22.5Q111 41 85 72.5Q59 104 45 144.5Q31 185 31 229Q31 273 45 313.5Q59 354 85 385.5Q111 417 149.5 435.5Q188 454 237 454Q275 454 305 439Q335 424 350 406V444H450V12Q450 -37 433.5 -73Q417 -109 388.5 -133Q360 -157 322 -168.5Q284 -180 241 -180Q153 -180 101 -143Q49 -106 38 -40L133 -24Q144 -98 240 -98Q293 -98 321.5 -68Q350 -38 350 10ZM350 311Q337 334 311.5 350Q286 366 254 366Q196 366 164.5 327.5Q133 289 133 229Q133 169 164.5 130.5Q196 92 254 92Q286 92 311.5 108Q337 124 350 147ZM248 496Q220 496 195 504.5Q170 513 151.5 531.5Q133 550 121.5 579Q110 608 108 650H185Q187 608 202 591Q217 574 248 574Q279 574 294 591Q309 608 311 650H388Q386 608 374.5 579Q363 550 344 531.5Q325 513 300.5 504.5Q276 496 248 496Z" glyph-name="gbreve" horiz-adv-x="512" unicode="&#287;" /><glyph d="M388 506H309L248 586L187 506H108L198 650H298ZM350 52Q335 34 305 19Q275 4 237 4Q188 4 149.5 22.5Q111 41 85 72.5Q59 104 45 144.5Q31 185 31 229Q31 273 45 313.5Q59 354 85 385.5Q111 417 149.5 435.5Q188 454 237 454Q275 454 305 439Q335 424 350 406V444H450V12Q450 -37 433.5 -73Q417 -109 388.5 -133Q360 -157 322 -168.5Q284 -180 241 -180Q153 -180 101 -143Q49 -106 38 -40L133 -24Q144 -98 240 -98Q293 -98 321.5 -68Q350 -38 350 10ZM350 311Q337 334 311.5 350Q286 366 254 366Q196 366 164.5 327.5Q133 289 133 229Q133 169 164.5 130.5Q196 92 254 92Q286 92 311.5 108Q337 124 350 147Z" glyph-name="gcircumflex" horiz-adv-x="512" unicode="&#285;" /><glyph d="M350 52Q335 34 305 19Q275 4 237 4Q188 4 149.5 22.5Q111 41 85 72.5Q59 104 45 144.5Q31 185 31 229Q31 273 45 313.5Q59 354 85 385.5Q111 417 149.5 435.5Q188 454 237 454Q275 454 305 439Q335 424 350 406V444H450V12Q450 -37 433.5 -73Q417 -109 388.5 -133Q360 -157 322 -168.5Q284 -180 241 -180Q153 -180 101 -143Q49 -106 38 -40L133 -24Q144 -98 240 -98Q293 -98 321.5 -68Q350 -38 350 10ZM350 311Q337 334 311.5 350Q286 366 254 366Q196 366 164.5 327.5Q133 289 133 229Q133 169 164.5 130.5Q196 92 254 92Q286 92 311.5 108Q337 124 350 147ZM292 628Q274 625 260 617Q246 609 238 594Q242 595 250 595Q272 595 286 581Q300 567 300 545Q300 523 284.5 509Q269 495 248 495Q218 495 202 513.5Q186 532 186 564Q186 602 212 630Q238 658 284 666Z" glyph-name="gcommaaccent" horiz-adv-x="512" unicode="&#291;" /><glyph d="M190 578Q190 604 206 620Q222 636 248 636Q274 636 290 620Q306 604 306 578Q306 552 290 536Q274 520 248 520Q222 520 206 536Q190 552 190 578ZM350 52Q335 34 305 19Q275 4 237 4Q188 4 149.5 22.5Q111 41 85 72.5Q59 104 45 144.5Q31 185 31 229Q31 273 45 313.5Q59 354 85 385.5Q111 417 149.5 435.5Q188 454 237 454Q275 454 305 439Q335 424 350 406V444H450V12Q450 -37 433.5 -73Q417 -109 388.5 -133Q360 -157 322 -168.5Q284 -180 241 -180Q153 -180 101 -143Q49 -106 38 -40L133 -24Q144 -98 240 -98Q293 -98 321.5 -68Q350 -38 350 10ZM350 311Q337 334 311.5 350Q286 366 254 366Q196 366 164.5 327.5Q133 289 133 229Q133 169 164.5 130.5Q196 92 254 92Q286 92 311.5 108Q337 124 350 147Z" glyph-name="gdotaccent" horiz-adv-x="512" unicode="&#289;" /><glyph d="M371 365Q396 357 417 340.5Q438 324 453.5 301Q469 278 478 249Q487 220 487 187Q487 140 472.5 103.5Q458 67 431.5 42Q405 17 369 3.5Q333 -10 290 -10Q263 -10 239 -5Q215 0 200 9L215 92Q225 87 242 83Q259 79 280 79Q334 79 363 111Q392 143 392 197Q392 252 356.5 284Q321 316 255 316H215V402H255Q299 402 323.5 423.5Q348 445 348 489Q348 527 324 551Q300 575 258 575Q206 575 183 541.5Q160 508 160 460V0H62V459Q62 504 76 541.5Q90 579 115.5 605Q141 631 177 645.5Q213 660 257 660Q302 660 337 647.5Q372 635 395 612.5Q418 590 430 559.5Q442 529 442 494Q442 444 421.5 411Q401 378 371 365Z" glyph-name="germandbls" horiz-adv-x="518" unicode="&#223;" /><glyph d="M206 506 115 650H218L295 506Z" glyph-name="grave" horiz-adv-x="500" unicode="`" /><glyph d="M248 671 153 788H269L346 671Z" glyph-name="grave.cap" horiz-adv-x="500" unicode="&#58401;" /><glyph d="M382 244 65 91V184L308 297L65 411V503L382 351Z" glyph-name="greater" horiz-adv-x="446" unicode="&gt;" /><glyph d="M418 244 101 91V184L344 297L101 411V503L418 351Z" glyph-name="greater.lt" horiz-adv-x="520" /><glyph d="M385 307 68 182V269L302 358L68 446V534L385 408ZM385 73H68V152H385Z" glyph-name="greaterequal" horiz-adv-x="453" unicode="&#8805;" /><glyph d="M418 307 101 182V269L335 358L101 446V534L418 408ZM418 73H101V152H418Z" glyph-name="greaterequal.lt" horiz-adv-x="520" /><glyph d="M117 64 25 222 117 380H207L115 222L207 64ZM282 64 190 222 282 380H372L280 222L372 64Z" glyph-name="guillemotleft" horiz-adv-x="397" unicode="&#171;" /><glyph d="M117 144 25 302 117 460H207L115 302L207 144ZM282 144 190 302 282 460H372L280 302L372 144Z" glyph-name="guillemotleft.cap" horiz-adv-x="397" unicode="&#58451;" /><glyph d="M190 64 282 222 190 380H280L372 222L280 64ZM25 64 117 222 25 380H115L207 222L115 64Z" glyph-name="guillemotright" horiz-adv-x="397" unicode="&#187;" /><glyph d="M190 144 282 302 190 460H280L372 302L280 144ZM25 144 117 302 25 460H115L207 302L115 144Z" glyph-name="guillemotright.cap" horiz-adv-x="397" unicode="&#58452;" /><glyph d="M117 64 25 222 117 380H211L119 222L211 64Z" glyph-name="guilsinglleft" horiz-adv-x="236" unicode="&#8249;" /><glyph d="M117 144 25 302 117 460H211L119 302L211 144Z" glyph-name="guilsinglleft.cap" horiz-adv-x="236" unicode="&#58449;" /><glyph d="M25 64 117 222 25 380H119L211 222L119 64Z" glyph-name="guilsinglright" horiz-adv-x="236" unicode="&#8250;" /><glyph d="M25 144 117 302 25 460H119L211 302L119 144Z" glyph-name="guilsinglright.cap" horiz-adv-x="236" unicode="&#58450;" /><glyph d="M62 650H162V405Q180 426 211.5 440Q243 454 282 454Q358 454 398.5 408.5Q439 363 439 289V0H339V272Q339 314 318.5 338.5Q298 363 255 363Q223 363 196.5 345.5Q170 328 162 295V0H62Z" glyph-name="h" horiz-adv-x="495" unicode="h" /><glyph d="M2 572H62V650H162V572H263V502H162V405Q180 426 211.5 440Q243 454 282 454Q358 454 398.5 408.5Q439 363 439 289V0H339V272Q339 314 318.5 338.5Q298 363 255 363Q223 363 196.5 345.5Q170 328 162 295V0H62V502H2Z" glyph-name="hbar" horiz-adv-x="495" unicode="&#295;" /><glyph d="M62 650H162V405Q180 426 211.5 440Q243 454 282 454Q358 454 398.5 408.5Q439 363 439 289V0H339V272Q339 314 318.5 338.5Q298 363 255 363Q223 363 196.5 345.5Q170 328 162 295V0H62ZM390 691H301L250 751L199 691H110L204 815H296Z" glyph-name="hcircumflex" horiz-adv-x="495" unicode="&#293;" /><glyph d="M140 506 207 650H310L229 506ZM270 506 337 650H440L359 506Z" glyph-name="hungarumlaut" horiz-adv-x="500" unicode="&#733;" /><glyph d="M111 671 171 788H256L194 671ZM244 671 304 788H389L327 671Z" glyph-name="hungarumlaut.cap" horiz-adv-x="500" unicode="&#58411;" /><glyph d="M40 308H281V217H40Z" glyph-name="hyphen" horiz-adv-x="321" unicode="-" /><glyph d="M40 348H281V257H40Z" glyph-name="hyphen.cap" horiz-adv-x="321" unicode="&#58498;" /><glyph d="M162 0H62V444H162ZM170 578Q170 552 154 536Q138 520 112 520Q86 520 70 536Q54 552 54 578Q54 604 70 620Q86 636 112 636Q138 636 154 620Q170 604 170 578Z" glyph-name="i" horiz-adv-x="224" unicode="i" /><glyph d="M72 506 149 650H252L161 506ZM162 0H62V444H162Z" glyph-name="iacute" horiz-adv-x="224" unicode="&#237;" /><glyph d="M112 495Q61 495 30.5 529.5Q0 564 0 630H71Q71 601 79.5 583Q88 565 112 565Q136 565 144.5 583Q153 601 153 630H224Q224 564 193.5 529.5Q163 495 112 495ZM162 0H62V444H162Z" glyph-name="ibreve" horiz-adv-x="224" unicode="&#301;" /><glyph d="M234 506H152L112 582L72 506H-10L66 646H158ZM162 0H62V444H162Z" glyph-name="icircumflex" horiz-adv-x="224" unicode="&#238;" /><glyph d="M162 0H62V444H162ZM-22 578Q-22 604 -6 620Q10 636 36 636Q62 636 78 620Q94 604 94 578Q94 552 78 536Q62 520 36 520Q10 520 -6 536Q-22 552 -22 578ZM131 578Q131 604 147 620Q163 636 189 636Q215 636 231 620Q247 604 247 578Q247 552 231 536Q215 520 189 520Q163 520 147 536Q131 552 131 578Z" glyph-name="idieresis" horiz-adv-x="224" unicode="&#239;" /><glyph d="M162 0H62V444H162ZM54 578Q54 604 70 620Q86 636 112 636Q138 636 154 620Q170 604 170 578Q170 552 154 536Q138 520 112 520Q86 520 70 536Q54 552 54 578Z" glyph-name="idotaccent" horiz-adv-x="224" unicode="&#59269;" /><glyph d="M162 0H62V444H162ZM28 506 -63 650H40L117 506Z" glyph-name="igrave" horiz-adv-x="224" unicode="&#236;" /><glyph d="M170 578Q170 552 154 536Q138 520 112 520Q86 520 70 536Q54 552 54 578Q54 604 70 620Q86 636 112 636Q138 636 154 620Q170 604 170 578ZM162 0H62V444H162ZM315 -40Q315 -106 279.5 -143Q244 -180 175 -180Q164 -180 149 -178.5Q134 -177 126 -172L141 -90Q153 -95 166 -95Q191 -95 203 -81Q215 -67 215 -35V444H315ZM323 578Q323 552 307 536Q291 520 265 520Q239 520 223 536Q207 552 207 578Q207 604 223 620Q239 636 265 636Q291 636 307 620Q323 604 323 578Z" glyph-name="ij" horiz-adv-x="377" unicode="&#307;" /><glyph d="M162 0H62V444H162ZM13 614H211V531H13Z" glyph-name="imacron" horiz-adv-x="224" unicode="&#299;" /><glyph d="M162 0H163Q134 -18 117.5 -37Q101 -56 101 -76Q101 -110 141 -110Q156 -110 168 -106.5Q180 -103 185 -99L198 -158Q191 -165 171.5 -172.5Q152 -180 122 -180Q72 -180 49.5 -156.5Q27 -133 27 -101Q27 -78 36.5 -57Q46 -36 62 -19V444H162ZM170 578Q170 552 154 536Q138 520 112 520Q86 520 70 536Q54 552 54 578Q54 604 70 620Q86 636 112 636Q138 636 154 620Q170 604 170 578Z" glyph-name="iogonek" horiz-adv-x="224" unicode="&#303;" /><glyph d="M232 641Q232 582 213 546Q194 510 159 510Q145 510 133 517.5Q121 525 111 534.5Q101 544 92.5 551.5Q84 559 75 559Q49 559 48 513H-10Q-10 572 9 608Q28 644 63 644Q77 644 89 636.5Q101 629 111 619.5Q121 610 130 602.5Q139 595 147 595Q173 595 174 641ZM162 0H62V444H162Z" glyph-name="itilde" horiz-adv-x="224" unicode="&#297;" /><glyph d="M162 -40Q162 -106 126.5 -143Q91 -180 22 -180Q11 -180 -4 -178.5Q-19 -177 -27 -172L-12 -90Q0 -95 13 -95Q38 -95 50 -81Q62 -67 62 -35V444H162ZM170 578Q170 552 154 536Q138 520 112 520Q86 520 70 536Q54 552 54 578Q54 604 70 620Q86 636 112 636Q138 636 154 620Q170 604 170 578Z" glyph-name="j" horiz-adv-x="224" unicode="j" /><glyph d="M234 506H152L112 582L72 506H-10L66 646H158ZM162 -40Q162 -106 126.5 -143Q91 -180 22 -180Q11 -180 -4 -178.5Q-19 -177 -27 -172L-12 -90Q0 -95 13 -95Q38 -95 50 -81Q62 -67 62 -35V444H162Z" glyph-name="jcircumflex" horiz-adv-x="224" unicode="&#309;" /><glyph d="M203 189 162 147V0H62V650H162V262L336 444H464L275 252L471 0H350Z" glyph-name="k" horiz-adv-x="481" unicode="k" /><glyph d="M203 189 162 147V0H62V650H162V262L336 444H464L275 252L471 0H350ZM199 -152Q216 -149 229.5 -143Q243 -137 251 -125H241Q219 -125 205 -111.5Q191 -98 191 -76Q191 -54 206.5 -40.5Q222 -27 243 -27Q272 -27 287.5 -44.5Q303 -62 303 -94Q303 -131 278 -156.5Q253 -182 207 -190Z" glyph-name="kcommaaccent" horiz-adv-x="481" unicode="&#311;" /><glyph d="M203 189 162 147V0H62V444H162V262L336 444H464L275 252L471 0H350Z" glyph-name="kgreenlandic" horiz-adv-x="481" unicode="&#312;" /><glyph d="M162 0H62V650H162Z" glyph-name="l" horiz-adv-x="224" unicode="l" /><glyph d="M62 701 139 818H255L160 701ZM162 0H62V650H162Z" glyph-name="lacute" horiz-adv-x="224" unicode="&#314;" /><glyph d="M212 483 236 650H314L290 483ZM162 0H62V650H162Z" glyph-name="lcaron" horiz-adv-x="224" unicode="&#318;" /><glyph d="M162 0H62V650H162ZM68 -152Q85 -149 98.5 -143Q112 -137 120 -125H110Q88 -125 74 -111.5Q60 -98 60 -76Q60 -54 75.5 -40.5Q91 -27 112 -27Q141 -27 156.5 -44.5Q172 -62 172 -94Q172 -131 147 -156.5Q122 -182 76 -190Z" glyph-name="lcommaaccent" horiz-adv-x="224" unicode="&#316;" /><glyph d="M162 0H62V650H162ZM234 325Q234 351 250 367Q266 383 292 383Q318 383 334 367Q350 351 350 325Q350 299 334 283Q318 267 292 267Q266 267 250 283Q234 299 234 325Z" glyph-name="ldot" horiz-adv-x="224" unicode="&#320;" /><glyph d="M65 351 381 503V411L138 297L381 184V91L65 244Z" glyph-name="less" horiz-adv-x="446" unicode="&lt;" /><glyph d="M102 351 418 503V411L175 297L418 184V91L102 244Z" glyph-name="less.lt" horiz-adv-x="520" /><glyph d="M68 408 385 534V446L150 358L385 269V182L68 307ZM68 152H385V73H68Z" glyph-name="lessequal" horiz-adv-x="453" unicode="&#8804;" /><glyph d="M101 408 418 534V446L183 358L418 269V182L101 307ZM101 152H418V73H101Z" glyph-name="lessequal.lt" horiz-adv-x="520" /><glyph d="M180 421 235 454V368L180 335V0H80V290L30 261V347L80 376V650H180Z" glyph-name="lslash" horiz-adv-x="260" unicode="&#322;" /><glyph d="M390 393Q413 420 445 437Q477 454 522 454Q591 454 628.5 409.5Q666 365 666 289V0H566V273Q566 315 548 339.5Q530 364 493 364Q466 364 443.5 346.5Q421 329 414 296V0H314V273Q314 315 296 339.5Q278 364 241 364Q214 364 191.5 346.5Q169 329 162 296V0H62V444H162V405Q178 426 206.5 440Q235 454 273 454Q312 454 343 436.5Q374 419 390 393Z" glyph-name="m" horiz-adv-x="722" unicode="m" /><glyph d="M137 614H362V531H137Z" glyph-name="macron" horiz-adv-x="500" unicode="&#175;" /><glyph d="M137 750H362V671H137Z" glyph-name="macron.cap" horiz-adv-x="500" unicode="&#58405;" /><glyph d="M390 393Q413 420 445 437Q477 454 522 454Q591 454 628.5 409.5Q666 365 666 289V0H566V273Q566 315 548 339.5Q530 364 493 364Q466 364 443.5 346.5Q421 329 414 296V0H314V273Q314 315 296 339.5Q278 364 241 364Q214 364 191.5 346.5Q169 329 162 296V0H62V444H162V405Q178 426 206.5 440Q235 454 273 454Q312 454 343 436.5Q374 419 390 393ZM306 578Q306 604 322 620Q338 636 364 636Q390 636 406 620Q422 604 422 578Q422 552 406 536Q390 520 364 520Q338 520 322 536Q306 552 306 578Z" glyph-name="mdotaccent" horiz-adv-x="722" unicode="&#7745;" /><glyph d="M74 339H490V259H74Z" glyph-name="minus" horiz-adv-x="564" unicode="&#8722;" /><glyph d="M39 20H279V-40H39Z" glyph-name="minus.inf" horiz-adv-x="318" unicode="&#58748;" /><glyph d="M52 339H468V259H52Z" glyph-name="minus.lt" horiz-adv-x="520" /><glyph d="M71 418 126 473 247 351 369 473 424 418 302 297 424 176 369 120 247 242 126 120 71 176 194 297Z" glyph-name="multiply" horiz-adv-x="496" unicode="&#215;" /><glyph d="M83 418 138 473 259 351 381 473 436 418 314 297 436 176 381 120 259 242 138 120 83 176 206 297Z" glyph-name="multiply.lt" horiz-adv-x="520" /><glyph d="M62 444H162V405Q180 426 211.5 440Q243 454 282 454Q358 454 398.5 408.5Q439 363 439 289V0H339V272Q339 314 318.5 338.5Q298 363 255 363Q223 363 196.5 345.5Q170 328 162 295V0H62Z" glyph-name="n" horiz-adv-x="495" unicode="n" /><glyph d="M241 506 318 650H421L330 506ZM62 444H162V405Q180 426 211.5 440Q243 454 282 454Q358 454 398.5 408.5Q439 363 439 289V0H339V272Q339 314 318.5 338.5Q298 363 255 363Q223 363 196.5 345.5Q170 328 162 295V0H62Z" glyph-name="nacute" horiz-adv-x="495" unicode="&#324;" /><glyph d="M306 506H206L116 650H195L256 570L317 650H396ZM62 444H162V405Q180 426 211.5 440Q243 454 282 454Q358 454 398.5 408.5Q439 363 439 289V0H339V272Q339 314 318.5 338.5Q298 363 255 363Q223 363 196.5 345.5Q170 328 162 295V0H62Z" glyph-name="ncaron" horiz-adv-x="495" unicode="&#328;" /><glyph d="M62 444H162V405Q180 426 211.5 440Q243 454 282 454Q358 454 398.5 408.5Q439 363 439 289V0H339V272Q339 314 318.5 338.5Q298 363 255 363Q223 363 196.5 345.5Q170 328 162 295V0H62ZM208 -152Q225 -149 238.5 -143Q252 -137 260 -125H250Q228 -125 214 -111.5Q200 -98 200 -76Q200 -54 215.5 -40.5Q231 -27 252 -27Q281 -27 296.5 -44.5Q312 -62 312 -94Q312 -131 287 -156.5Q262 -182 216 -190Z" glyph-name="ncommaaccent" horiz-adv-x="495" unicode="&#326;" /><glyph d="M231 -10Q156 -10 109 26.5Q62 63 48 129L144 146Q153 113 174.5 94Q196 75 236 75Q269 75 295 92Q321 109 338.5 137.5Q356 166 365.5 203Q375 240 375 280V291Q358 256 320.5 234Q283 212 234 212Q187 212 150.5 228.5Q114 245 88 273Q62 301 48.5 338Q35 375 35 416Q35 458 49 495.5Q63 533 90 561.5Q117 590 156 607Q195 624 245 624Q302 624 350.5 596Q399 568 430 506Q450 465 458.5 421Q467 377 467 320Q467 244 451.5 183Q436 122 406 79Q376 36 332 13Q288 -10 231 -10ZM360 418Q360 472 328.5 504.5Q297 537 244 537Q193 537 161.5 504.5Q130 472 130 418Q130 363 161.5 329.5Q193 296 244 296Q297 296 328.5 329Q360 362 360 418Z" glyph-name="nine" horiz-adv-x="505" unicode="9" /><glyph d="M138 -175Q93 -175 65 -153.5Q37 -132 30 -94L103 -82Q109 -109 140 -109Q167 -109 181 -86.5Q195 -64 195 -34V-31Q187 -42 171 -50Q155 -58 132 -58Q82 -58 53.5 -27Q25 4 25 49Q25 98 56.5 131Q88 164 144 164Q211 164 245 108Q259 86 265 60Q271 34 271 2Q271 -78 237.5 -126.5Q204 -175 138 -175ZM192 51Q192 72 178.5 85Q165 98 144 98Q124 98 110.5 85Q97 72 97 51Q97 29 110.5 15.5Q124 2 144 2Q165 2 178.5 15.5Q192 29 192 51Z" glyph-name="nine.inf" horiz-adv-x="296" unicode="&#58746;" /><glyph d="M235 -10Q160 -10 113 26.5Q66 63 52 129L148 146Q157 113 178.5 94Q200 75 240 75Q273 75 299 92Q325 109 342.5 137.5Q360 166 369.5 203Q379 240 379 280V291Q362 256 324.5 234Q287 212 238 212Q191 212 154.5 228.5Q118 245 92 273Q66 301 52.5 338Q39 375 39 416Q39 458 53 495.5Q67 533 94 561.5Q121 590 160 607Q199 624 249 624Q306 624 354.5 596Q403 568 434 506Q454 465 462.5 421Q471 377 471 320Q471 244 455.5 183Q440 122 410 79Q380 36 336 13Q292 -10 235 -10ZM364 418Q364 472 332.5 504.5Q301 537 248 537Q197 537 165.5 504.5Q134 472 134 418Q134 363 165.5 329.5Q197 296 248 296Q301 296 332.5 329Q364 362 364 418Z" glyph-name="nine.lt" horiz-adv-x="520" /><glyph d="M138 281Q93 281 65 302.5Q37 324 30 362L103 374Q109 347 140 347Q167 347 181 369.5Q195 392 195 422V425Q187 414 171 406Q155 398 132 398Q82 398 53.5 429Q25 460 25 505Q25 554 56.5 587Q88 620 144 620Q211 620 245 564Q259 542 265 516Q271 490 271 458Q271 378 237.5 329.5Q204 281 138 281ZM192 507Q192 528 178.5 541Q165 554 144 554Q124 554 110.5 541Q97 528 97 507Q97 485 110.5 471.5Q124 458 144 458Q165 458 178.5 471.5Q192 485 192 507ZM263 0H176L545 614H632ZM685 0H606V239L529 201V280L631 328H685ZM883 334Q929 334 957 312Q985 290 992 252L919 240Q911 267 882 267Q855 267 840.5 244.5Q826 222 826 193V189Q834 201 850.5 209Q867 217 889 217Q940 217 968.5 185.5Q997 154 997 109Q997 60 965.5 27.5Q934 -5 877 -5Q845 -5 819.5 9Q794 23 777 50Q763 72 756.5 98Q750 124 750 157Q750 236 784 285Q818 334 883 334ZM830 107Q830 87 843.5 74Q857 61 878 61Q898 61 911 74Q924 87 924 107Q924 129 911 142Q898 155 878 155Q857 155 843.5 142Q830 129 830 107Z" glyph-name="ninesixteenths" horiz-adv-x="1022" unicode="&#61977;" /><glyph d="M173 286H94V525L17 487V566L119 614H173ZM352 281Q307 281 279 302.5Q251 324 244 362L317 374Q323 347 354 347Q381 347 395 369.5Q409 392 409 422V425Q401 414 385 406Q369 398 346 398Q296 398 267.5 429Q239 460 239 505Q239 554 270.5 587Q302 620 358 620Q425 620 459 564Q473 542 479 516Q485 490 485 458Q485 378 451.5 329.5Q418 281 352 281ZM406 507Q406 528 392.5 541Q379 554 358 554Q338 554 324.5 541Q311 528 311 507Q311 485 324.5 471.5Q338 458 358 458Q379 458 392.5 471.5Q406 485 406 507ZM477 0H390L759 614H846ZM838 196H857Q875 196 887.5 204.5Q900 213 900 231Q900 245 890.5 255Q881 265 864 265Q845 265 834.5 254Q824 243 823 227L747 240Q753 281 782 307.5Q811 334 865 334Q916 334 946.5 306.5Q977 279 977 234Q977 212 966.5 193Q956 174 941 166Q961 157 971.5 138Q982 119 982 96Q982 53 950 24Q918 -5 864 -5Q812 -5 779 20.5Q746 46 741 91L821 104Q823 86 833.5 74.5Q844 63 864 63Q881 63 892.5 73Q904 83 904 100Q904 118 891.5 127Q879 136 859 136H838ZM1177 228Q1177 242 1167.5 251.5Q1158 261 1142 261Q1124 261 1115.5 250Q1107 239 1105 225L1025 239Q1032 283 1061 308.5Q1090 334 1143 334Q1200 334 1229.5 306Q1259 278 1259 233Q1259 201 1240 176.5Q1221 152 1196 127L1139 70H1261V0H1026V52L1137 164Q1154 183 1165.5 197.5Q1177 212 1177 228Z" glyph-name="nineteenthirtyseconds" horiz-adv-x="1286" /><glyph d="M138 281Q93 281 65 302.5Q37 324 30 362L103 374Q109 347 140 347Q167 347 181 369.5Q195 392 195 422V425Q187 414 171 406Q155 398 132 398Q82 398 53.5 429Q25 460 25 505Q25 554 56.5 587Q88 620 144 620Q211 620 245 564Q259 542 265 516Q271 490 271 458Q271 378 237.5 329.5Q204 281 138 281ZM192 507Q192 528 178.5 541Q165 554 144 554Q124 554 110.5 541Q97 528 97 507Q97 485 110.5 471.5Q124 458 144 458Q165 458 178.5 471.5Q192 485 192 507ZM263 0H176L545 614H632ZM624 196H643Q661 196 673.5 204.5Q686 213 686 231Q686 245 676.5 255Q667 265 650 265Q631 265 620.5 254Q610 243 609 227L533 240Q539 281 568 307.5Q597 334 651 334Q702 334 732.5 306.5Q763 279 763 234Q763 212 752.5 193Q742 174 727 166Q747 157 757.5 138Q768 119 768 96Q768 53 736 24Q704 -5 650 -5Q598 -5 565 20.5Q532 46 527 91L607 104Q609 86 619.5 74.5Q630 63 650 63Q667 63 678.5 73Q690 83 690 100Q690 118 677.5 127Q665 136 645 136H624ZM963 228Q963 242 953.5 251.5Q944 261 928 261Q910 261 901.5 250Q893 239 891 225L811 239Q818 283 847 308.5Q876 334 929 334Q986 334 1015.5 306Q1045 278 1045 233Q1045 201 1026 176.5Q1007 152 982 127L925 70H1047V0H812V52L923 164Q940 183 951.5 197.5Q963 212 963 228Z" glyph-name="ninethirtyseconds" horiz-adv-x="1072" /><glyph d="M82 410H329L396 506H468L401 410H497V337H351L298 261H497V188H248L182 93H110L176 188H82V261H226L279 337H82Z" glyph-name="notequal" horiz-adv-x="578" unicode="&#8800;" /><glyph d="M52 410H299L366 506H438L371 410H467V337H321L268 261H467V188H218L152 93H80L146 188H52V261H196L249 337H52Z" glyph-name="notequal.lt" horiz-adv-x="520" /><glyph d="M62 444H162V405Q180 426 211.5 440Q243 454 282 454Q358 454 398.5 408.5Q439 363 439 289V0H339V272Q339 314 318.5 338.5Q298 363 255 363Q223 363 196.5 345.5Q170 328 162 295V0H62ZM414 635Q414 603 405.5 579.5Q397 556 383.5 540.5Q370 525 353 517.5Q336 510 319 510Q298 510 282 517Q266 524 252.5 532.5Q239 541 227 548Q215 555 202 555Q190 555 182 547.5Q174 540 173 521H100Q100 553 108.5 576.5Q117 600 130.5 615.5Q144 631 161 638.5Q178 646 195 646Q216 646 232 639Q248 632 261.5 623.5Q275 615 287 608Q299 601 312 601Q324 601 332 608.5Q340 616 341 635Z" glyph-name="ntilde" horiz-adv-x="495" unicode="&#241;" /><glyph d="M523 162H417L379 0H291L330 162H202L163 0H76L114 162H20L36 238H132L165 376H63L78 452H183L222 614H310L271 452H399L438 614H525L486 452H581L565 376H468L435 238H538ZM220 238H348L381 376H253Z" glyph-name="numbersign" horiz-adv-x="601" unicode="#" /><glyph d="M453 222Q453 171 437.5 128.5Q422 86 394.5 55Q367 24 328 7Q289 -10 242 -10Q195 -10 156 7Q117 24 89.5 55Q62 86 46.5 128.5Q31 171 31 222Q31 273 46.5 315.5Q62 358 89.5 389Q117 420 156 437Q195 454 242 454Q289 454 328 437Q367 420 394.5 389Q422 358 437.5 315.5Q453 273 453 222ZM353 222Q353 285 324.5 326.5Q296 368 242 368Q188 368 159.5 326.5Q131 285 131 222Q131 159 159.5 117.5Q188 76 242 76Q296 76 324.5 117.5Q353 159 353 222Z" glyph-name="o" horiz-adv-x="484" unicode="o" /><glyph d="M242 76Q296 76 324.5 117.5Q353 159 353 222Q353 285 324.5 326.5Q296 368 242 368Q188 368 159.5 326.5Q131 285 131 222Q131 159 159.5 117.5Q188 76 242 76ZM288 506H199L276 650H379ZM453 222Q453 171 437.5 128.5Q422 86 394.5 55Q367 24 328 7Q289 -10 242 -10Q195 -10 156 7Q117 24 89.5 55Q62 86 46.5 128.5Q31 171 31 222Q31 273 46.5 315.5Q62 358 89.5 389Q117 420 156 437Q195 454 242 454Q289 454 328 437Q367 420 394.5 389Q422 358 437.5 315.5Q453 273 453 222Z" glyph-name="oacute" horiz-adv-x="484" unicode="&#243;" /><glyph d="M453 222Q453 171 437.5 128.5Q422 86 394.5 55Q367 24 328 7Q289 -10 242 -10Q195 -10 156 7Q117 24 89.5 55Q62 86 46.5 128.5Q31 171 31 222Q31 273 46.5 315.5Q62 358 89.5 389Q117 420 156 437Q195 454 242 454Q289 454 328 437Q367 420 394.5 389Q422 358 437.5 315.5Q453 273 453 222ZM353 222Q353 285 324.5 326.5Q296 368 242 368Q188 368 159.5 326.5Q131 285 131 222Q131 159 159.5 117.5Q188 76 242 76Q296 76 324.5 117.5Q353 159 353 222ZM242 496Q214 496 189 504.5Q164 513 145.5 531.5Q127 550 115.5 579Q104 608 102 650H179Q181 608 196 591Q211 574 242 574Q273 574 288 591Q303 608 305 650H382Q380 608 368.5 579Q357 550 338 531.5Q319 513 294.5 504.5Q270 496 242 496Z" glyph-name="obreve" horiz-adv-x="484" unicode="&#335;" /><glyph d="M382 506H303L242 586L181 506H102L192 650H292ZM453 222Q453 171 437.5 128.5Q422 86 394.5 55Q367 24 328 7Q289 -10 242 -10Q195 -10 156 7Q117 24 89.5 55Q62 86 46.5 128.5Q31 171 31 222Q31 273 46.5 315.5Q62 358 89.5 389Q117 420 156 437Q195 454 242 454Q289 454 328 437Q367 420 394.5 389Q422 358 437.5 315.5Q453 273 453 222ZM353 222Q353 285 324.5 326.5Q296 368 242 368Q188 368 159.5 326.5Q131 285 131 222Q131 159 159.5 117.5Q188 76 242 76Q296 76 324.5 117.5Q353 159 353 222Z" glyph-name="ocircumflex" horiz-adv-x="484" unicode="&#244;" /><glyph d="M108 578Q108 604 124 620Q140 636 166 636Q192 636 208 620Q224 604 224 578Q224 552 208 536Q192 520 166 520Q140 520 124 536Q108 552 108 578ZM261 578Q261 604 277 620Q293 636 319 636Q345 636 361 620Q377 604 377 578Q377 552 361 536Q345 520 319 520Q293 520 277 536Q261 552 261 578ZM453 222Q453 171 437.5 128.5Q422 86 394.5 55Q367 24 328 7Q289 -10 242 -10Q195 -10 156 7Q117 24 89.5 55Q62 86 46.5 128.5Q31 171 31 222Q31 273 46.5 315.5Q62 358 89.5 389Q117 420 156 437Q195 454 242 454Q289 454 328 437Q367 420 394.5 389Q422 358 437.5 315.5Q453 273 453 222ZM353 222Q353 285 324.5 326.5Q296 368 242 368Q188 368 159.5 326.5Q131 285 131 222Q131 159 159.5 117.5Q188 76 242 76Q296 76 324.5 117.5Q353 159 353 222Z" glyph-name="odieresis" horiz-adv-x="484" unicode="&#246;" /><glyph d="M353 222Q353 285 324.5 326.5Q296 368 242 368Q188 368 159.5 326.5Q131 285 131 222Q131 159 159.5 117.5Q188 76 242 76Q296 76 324.5 117.5Q353 159 353 222ZM560 370Q518 370 489.5 345Q461 320 452 272H653Q652 313 629 341.5Q606 370 560 370ZM561 -10Q510 -10 469.5 8.5Q429 27 400 61Q372 27 332 8.5Q292 -10 242 -10Q195 -10 156 7Q117 24 89.5 55Q62 86 46.5 128.5Q31 171 31 222Q31 273 46.5 315.5Q62 358 89.5 389Q117 420 156 437Q195 454 242 454Q292 454 332 435Q372 416 400 382Q429 416 469 435Q509 454 559 454Q606 454 642 438Q678 422 702.5 393Q727 364 739.5 324Q752 284 752 235V199H449Q451 140 481 107Q511 74 561 74Q597 74 625 90Q653 106 661 138L750 122Q736 62 686 26Q636 -10 561 -10Z" glyph-name="oe" horiz-adv-x="782" unicode="&#339;" /><glyph d="M306 0Q277 -18 261 -37Q245 -56 245 -76Q245 -110 285 -110Q300 -110 312 -106.5Q324 -103 329 -99L342 -158Q335 -165 315.5 -172.5Q296 -180 266 -180Q216 -180 193.5 -156.5Q171 -133 171 -101Q171 -63 194 -32.5Q217 -2 252 15Z" glyph-name="ogonek" horiz-adv-x="500" unicode="&#731;" /><glyph d="M453 222Q453 171 437.5 128.5Q422 86 394.5 55Q367 24 328 7Q289 -10 242 -10Q195 -10 156 7Q117 24 89.5 55Q62 86 46.5 128.5Q31 171 31 222Q31 273 46.5 315.5Q62 358 89.5 389Q117 420 156 437Q195 454 242 454Q289 454 328 437Q367 420 394.5 389Q422 358 437.5 315.5Q453 273 453 222ZM353 222Q353 285 324.5 326.5Q296 368 242 368Q188 368 159.5 326.5Q131 285 131 222Q131 159 159.5 117.5Q188 76 242 76Q296 76 324.5 117.5Q353 159 353 222ZM201 506 110 650H213L290 506Z" glyph-name="ograve" horiz-adv-x="484" unicode="&#242;" /><glyph d="M242 76Q296 76 324.5 117.5Q353 159 353 222Q353 285 324.5 326.5Q296 368 242 368Q188 368 159.5 326.5Q131 285 131 222Q131 159 159.5 117.5Q188 76 242 76ZM269 506 336 650H439L358 506ZM453 222Q453 171 437.5 128.5Q422 86 394.5 55Q367 24 328 7Q289 -10 242 -10Q195 -10 156 7Q117 24 89.5 55Q62 86 46.5 128.5Q31 171 31 222Q31 273 46.5 315.5Q62 358 89.5 389Q117 420 156 437Q195 454 242 454Q289 454 328 437Q367 420 394.5 389Q422 358 437.5 315.5Q453 273 453 222ZM228 506H139L206 650H309Z" glyph-name="ohungarumlaut" horiz-adv-x="484" unicode="&#337;" /><glyph d="M242 76Q296 76 324.5 117.5Q353 159 353 222Q353 285 324.5 326.5Q296 368 242 368Q188 368 159.5 326.5Q131 285 131 222Q131 159 159.5 117.5Q188 76 242 76ZM453 222Q453 171 437.5 128.5Q422 86 394.5 55Q367 24 328 7Q289 -10 242 -10Q195 -10 156 7Q117 24 89.5 55Q62 86 46.5 128.5Q31 171 31 222Q31 273 46.5 315.5Q62 358 89.5 389Q117 420 156 437Q195 454 242 454Q289 454 328 437Q367 420 394.5 389Q422 358 437.5 315.5Q453 273 453 222ZM355 531H130V614H355Z" glyph-name="omacron" horiz-adv-x="484" unicode="&#333;" /><glyph d="M264 0H163V489L19 416V521L203 614H264Z" glyph-name="one" horiz-adv-x="329" unicode="1" /><glyph d="M173 -170H94V69L17 31V110L119 158H173Z" glyph-name="one.inf" horiz-adv-x="214" unicode="&#58738;" /><glyph d="M81 91H244V489L81 406V511L284 614H345V91H492V0H81Z" glyph-name="one.lt" horiz-adv-x="520" /><glyph d="M173 286H94V525L17 487V566L119 614H173ZM181 0H94L463 614H550ZM602 228Q602 242 592.5 251.5Q583 261 567 261Q549 261 540.5 250Q532 239 530 225L450 239Q457 283 486 308.5Q515 334 568 334Q625 334 654.5 306Q684 278 684 233Q684 201 665 176.5Q646 152 621 127L564 70H686V0H451V52L562 164Q579 183 590.5 197.5Q602 212 602 228Z" glyph-name="onehalf" horiz-adv-x="711" unicode="&#189;" /><glyph d="M173 286H94V525L17 487V566L119 614H173ZM181 0H94L463 614H550ZM537 128H593V187H664V128H710V62H664V0H593V62H450V121L553 328H631Z" glyph-name="onequarter" horiz-adv-x="729" unicode="&#188;" /><glyph d="M173 286H94V525L17 487V566L119 614H173ZM181 0H94L463 614H550ZM603 0H524V239L447 201V280L549 328H603ZM801 334Q847 334 875 312Q903 290 910 252L837 240Q829 267 800 267Q773 267 758.5 244.5Q744 222 744 193V189Q752 201 768.5 209Q785 217 807 217Q858 217 886.5 185.5Q915 154 915 109Q915 60 883.5 27.5Q852 -5 795 -5Q763 -5 737.5 9Q712 23 695 50Q681 72 674.5 98Q668 124 668 157Q668 236 702 285Q736 334 801 334ZM748 107Q748 87 761.5 74Q775 61 796 61Q816 61 829 74Q842 87 842 107Q842 129 829 142Q816 155 796 155Q775 155 761.5 142Q748 129 748 107Z" glyph-name="onesixteenth" horiz-adv-x="940" unicode="&#61973;" /><glyph d="M173 286H94V525L17 487V566L119 614H173Z" glyph-name="onesuperior" horiz-adv-x="214" unicode="&#185;" /><glyph d="M173 286H94V525L17 487V566L119 614H173ZM181 0H94L463 614H550ZM542 196H561Q579 196 591.5 204.5Q604 213 604 231Q604 245 594.5 255Q585 265 568 265Q549 265 538.5 254Q528 243 527 227L451 240Q457 281 486 307.5Q515 334 569 334Q620 334 650.5 306.5Q681 279 681 234Q681 212 670.5 193Q660 174 645 166Q665 157 675.5 138Q686 119 686 96Q686 53 654 24Q622 -5 568 -5Q516 -5 483 20.5Q450 46 445 91L525 104Q527 86 537.5 74.5Q548 63 568 63Q585 63 596.5 73Q608 83 608 100Q608 118 595.5 127Q583 136 563 136H542ZM881 228Q881 242 871.5 251.5Q862 261 846 261Q828 261 819.5 250Q811 239 809 225L729 239Q736 283 765 308.5Q794 334 847 334Q904 334 933.5 306Q963 278 963 233Q963 201 944 176.5Q925 152 900 127L843 70H965V0H730V52L841 164Q858 183 869.5 197.5Q881 212 881 228Z" glyph-name="onethirtysecond" horiz-adv-x="990" /><glyph d="M192 321V343Q186 335 165.5 325.5Q145 316 116 316Q74 316 42 340.5Q10 365 10 412Q10 455 43 481Q76 507 125 507Q145 507 164 501.5Q183 496 192 490V511Q192 528 181 541Q170 554 147 554Q113 554 105 527L25 541Q35 582 66 603.5Q97 625 150 625Q210 625 243.5 594.5Q277 564 277 509V321ZM192 423Q187 434 173 440.5Q159 447 142 447Q124 447 109 438.5Q94 430 94 413Q94 395 109 387Q124 379 142 379Q159 379 173 385.5Q187 392 192 403Z" glyph-name="ordfeminine" horiz-adv-x="299" unicode="&#170;" /><glyph d="M305 470Q305 435 294 406.5Q283 378 263.5 357.5Q244 337 217 325.5Q190 314 157 314Q124 314 97 325.5Q70 337 50.5 357.5Q31 378 20 406.5Q9 435 9 470Q9 504 20 532.5Q31 561 50.5 581.5Q70 602 97 613.5Q124 625 157 625Q190 625 217 613.5Q244 602 263.5 581.5Q283 561 294 532.5Q305 504 305 470ZM216 470Q216 505 201 527.5Q186 550 157 550Q129 550 114 527.5Q99 505 99 470Q99 435 114 412.5Q129 390 157 390Q186 390 201 412.5Q216 435 216 470Z" glyph-name="ordmasculine" horiz-adv-x="315" unicode="&#186;" /><glyph d="M31 222Q31 273 46.5 315.5Q62 358 89.5 389Q117 420 156 437Q195 454 242 454Q306 454 356 421L397 475L448 439L402 379Q426 349 439.5 309.5Q453 270 453 222Q453 171 437.5 128.5Q422 86 394.5 55Q367 24 328 7Q289 -10 242 -10Q177 -10 127 23L83 -34L32 2L81 65Q31 127 31 222ZM353 222Q353 266 340 298L182 94Q207 76 242 76Q296 76 324.5 117.5Q353 159 353 222ZM131 222Q131 178 143 147L300 350Q274 368 242 368Q188 368 159.5 326.5Q131 285 131 222Z" glyph-name="oslash" horiz-adv-x="484" unicode="&#248;" /><glyph d="M31 222Q31 273 46.5 315.5Q62 358 89.5 389Q117 420 156 437Q195 454 242 454Q306 454 356 421L397 475L448 439L402 379Q426 349 439.5 309.5Q453 270 453 222Q453 171 437.5 128.5Q422 86 394.5 55Q367 24 328 7Q289 -10 242 -10Q177 -10 127 23L83 -34L32 2L81 65Q31 127 31 222ZM242 76Q296 76 324.5 117.5Q353 159 353 222Q353 266 340 298L182 94Q207 76 242 76ZM131 222Q131 178 143 147L300 350Q274 368 242 368Q188 368 159.5 326.5Q131 285 131 222ZM381 650 290 506H201L278 650Z" glyph-name="oslashacute" horiz-adv-x="484" unicode="&#511;" /><glyph d="M453 222Q453 171 437.5 128.5Q422 86 394.5 55Q367 24 328 7Q289 -10 242 -10Q195 -10 156 7Q117 24 89.5 55Q62 86 46.5 128.5Q31 171 31 222Q31 273 46.5 315.5Q62 358 89.5 389Q117 420 156 437Q195 454 242 454Q289 454 328 437Q367 420 394.5 389Q422 358 437.5 315.5Q453 273 453 222ZM353 222Q353 285 324.5 326.5Q296 368 242 368Q188 368 159.5 326.5Q131 285 131 222Q131 159 159.5 117.5Q188 76 242 76Q296 76 324.5 117.5Q353 159 353 222ZM399 635Q399 603 390.5 579.5Q382 556 368.5 540.5Q355 525 338 517.5Q321 510 304 510Q283 510 267 517Q251 524 237.5 532.5Q224 541 212 548Q200 555 187 555Q175 555 167 547.5Q159 540 158 521H85Q85 553 93.5 576.5Q102 600 115.5 615.5Q129 631 146 638.5Q163 646 180 646Q201 646 217 639Q233 632 246.5 623.5Q260 615 272 608Q284 601 297 601Q309 601 317 608.5Q325 616 326 635Z" glyph-name="otilde" horiz-adv-x="484" unicode="&#245;" /><glyph d="M162 -170H62V444H162V406Q177 425 207.5 439.5Q238 454 275 454Q324 454 362 435Q400 416 426.5 384.5Q453 353 467 310.5Q481 268 481 222Q481 175 467 133Q453 91 426.5 59.5Q400 28 362 9Q324 -10 275 -10Q238 -10 207.5 4.5Q177 19 162 38ZM162 138Q175 112 201 95.5Q227 79 258 79Q316 79 348.5 119.5Q381 160 381 222Q381 284 348.5 324.5Q316 365 258 365Q227 365 201 348.5Q175 332 162 306Z" glyph-name="p" horiz-adv-x="512" unicode="p" /><glyph d="M379 614H460V-90H379ZM227 267Q188 267 150 277Q112 287 81 308Q50 329 31 362Q12 395 12 441Q12 487 31 519.5Q50 552 81 573Q112 594 150 604Q188 614 227 614H308V-90H227Z" glyph-name="paragraph" horiz-adv-x="528" unicode="&#182;" /><glyph d="M119 283Q119 211 133 155.5Q147 100 170.5 59.5Q194 19 224.5 -7.5Q255 -34 287 -48L273 -129Q218 -108 173 -72.5Q128 -37 96.5 14.5Q65 66 47.5 133Q30 200 30 283Q30 366 47.5 433Q65 500 96.5 551.5Q128 603 173 638.5Q218 674 273 695L287 614Q255 600 224.5 573.5Q194 547 170.5 506.5Q147 466 133 410.5Q119 355 119 283Z" glyph-name="parenleft" horiz-adv-x="320" unicode="(" /><glyph d="M119 303Q119 231 133 175.5Q147 120 170.5 79.5Q194 39 224.5 12.5Q255 -14 287 -28L273 -109Q218 -88 173 -52.5Q128 -17 96.5 34.5Q65 86 47.5 153Q30 220 30 303Q30 386 47.5 453Q65 520 96.5 571.5Q128 623 173 658.5Q218 694 273 715L287 634Q255 620 224.5 593.5Q194 567 170.5 526.5Q147 486 133 430.5Q119 375 119 303Z" glyph-name="parenleft.cap" horiz-adv-x="320" unicode="&#58513;" /><glyph d="M24 -6Q24 40 35 76.5Q46 113 64.5 140.5Q83 168 108.5 187Q134 206 164 217L175 149Q161 144 146.5 132Q132 120 120.5 101.5Q109 83 102 56Q95 29 95 -6Q95 -41 102 -68Q109 -95 120.5 -114Q132 -133 146.5 -144.5Q161 -156 175 -162L164 -228Q134 -218 108.5 -199Q83 -180 64.5 -152.5Q46 -125 35 -88.5Q24 -52 24 -6Z" glyph-name="parenleft.inf" horiz-adv-x="198" unicode="&#58750;" /><glyph d="M201 283Q201 355 187 410.5Q173 466 149.5 506.5Q126 547 95.5 573.5Q65 600 33 614L47 695Q102 674 147 638.5Q192 603 223.5 551.5Q255 500 272.5 433Q290 366 290 283Q290 200 272.5 133Q255 66 223.5 14.5Q192 -37 147 -72.5Q102 -108 47 -129L33 -48Q65 -34 95.5 -7.5Q126 19 149.5 59.5Q173 100 187 155.5Q201 211 201 283Z" glyph-name="parenright" horiz-adv-x="320" unicode=")" /><glyph d="M201 303Q201 375 187 430.5Q173 486 149.5 526.5Q126 567 95.5 593.5Q65 620 33 634L47 715Q102 694 147 658.5Q192 623 223.5 571.5Q255 520 272.5 453Q290 386 290 303Q290 220 272.5 153Q255 86 223.5 34.5Q192 -17 147 -52.5Q102 -88 47 -109L33 -28Q65 -14 95.5 12.5Q126 39 149.5 79.5Q173 120 187 175.5Q201 231 201 303Z" glyph-name="parenright.cap" horiz-adv-x="320" unicode="&#58514;" /><glyph d="M173 -6Q173 -52 162.5 -88.5Q152 -125 133 -152.5Q114 -180 89 -199Q64 -218 34 -228L23 -162Q37 -156 51 -144.5Q65 -133 76.5 -114Q88 -95 95 -68Q102 -41 102 -6Q102 29 95 56Q88 83 76.5 101.5Q65 120 51 132Q37 144 23 149L34 217Q64 206 89 187Q114 168 133 140.5Q152 113 162.5 76.5Q173 40 173 -6Z" glyph-name="parenright.inf" horiz-adv-x="198" unicode="&#58751;" /><glyph d="M162 -170H62V444H162V406Q177 425 207.5 439.5Q238 454 275 454Q324 454 362 435Q400 416 426.5 384.5Q453 353 467 310.5Q481 268 481 222Q481 175 467 133Q453 91 426.5 59.5Q400 28 362 9Q324 -10 275 -10Q238 -10 207.5 4.5Q177 19 162 38ZM162 138Q175 112 201 95.5Q227 79 258 79Q316 79 348.5 119.5Q381 160 381 222Q381 284 348.5 324.5Q316 365 258 365Q227 365 201 348.5Q175 332 162 306ZM208 578Q208 604 224 620Q240 636 266 636Q292 636 308 620Q324 604 324 578Q324 552 308 536Q292 520 266 520Q240 520 224 536Q208 552 208 578Z" glyph-name="pdotaccent" horiz-adv-x="512" unicode="&#7767;" /><glyph d="M476 614H555L186 0H107ZM105 485Q105 459 123.5 440.5Q142 422 168 422Q194 422 213 440.5Q232 459 232 485Q232 511 213 530Q194 549 168 549Q142 549 123.5 530Q105 511 105 485ZM632 129Q632 100 621.5 74.5Q611 49 592 30.5Q573 12 548 1Q523 -10 494 -10Q465 -10 439.5 1Q414 12 395.5 30.5Q377 49 366 74.5Q355 100 355 129Q355 158 366 183Q377 208 395.5 227Q414 246 439.5 256.5Q465 267 494 267Q523 267 548 256.5Q573 246 592 227Q611 208 621.5 183Q632 158 632 129ZM307 485Q307 456 296 431Q285 406 266.5 387Q248 368 222.5 357.5Q197 347 168 347Q139 347 114 357.5Q89 368 70 387Q51 406 40.5 431Q30 456 30 485Q30 514 40.5 539.5Q51 565 70 583.5Q89 602 114 613Q139 624 168 624Q197 624 222.5 613Q248 602 266.5 583.5Q285 565 296 539.5Q307 514 307 485ZM557 129Q557 155 538.5 173.5Q520 192 494 192Q468 192 449 173.5Q430 155 430 129Q430 103 449 84Q468 65 494 65Q520 65 538.5 84Q557 103 557 129Z" glyph-name="percent" horiz-adv-x="662" unicode="%" /><glyph d="M20 502Q20 527 29.5 549.5Q39 572 55.5 588.5Q72 605 94 614.5Q116 624 141 624Q166 624 188.5 614.5Q211 605 227.5 588.5Q244 572 253.5 549.5Q263 527 263 502Q263 477 253.5 455Q244 433 227.5 416.5Q211 400 188.5 390.5Q166 381 141 381Q116 381 94 390.5Q72 400 55.5 416.5Q39 433 29.5 455Q20 477 20 502ZM86 502Q86 479 102 463Q118 447 141 447Q164 447 180.5 463Q197 479 197 502Q197 525 180.5 541.5Q164 558 141 558Q118 558 102 541.5Q86 525 86 502ZM500 112Q500 86 490.5 64Q481 42 464.5 25.5Q448 9 426 -0.5Q404 -10 379 -10Q353 -10 331 -0.5Q309 9 292.5 25.5Q276 42 266.5 64Q257 86 257 112Q257 137 266.5 159Q276 181 292.5 197.5Q309 214 331 223.5Q353 233 379 233Q404 233 426 223.5Q448 214 464.5 197.5Q481 181 490.5 159Q500 137 500 112ZM434 112Q434 135 418 151Q402 167 379 167Q356 167 339.5 151Q323 135 323 112Q323 89 339.5 72.5Q356 56 379 56Q402 56 418 72.5Q434 89 434 112ZM405 614H484L115 0H36Z" glyph-name="percent.lt" horiz-adv-x="520" /><glyph d="M158 54Q158 28 142 12Q126 -4 100 -4Q74 -4 58 12Q42 28 42 54Q42 80 58 96Q74 112 100 112Q126 112 142 96Q158 80 158 54Z" glyph-name="period" horiz-adv-x="200" unicode="." /><glyph d="M72 54Q72 80 88 96Q104 112 130 112Q156 112 172 96Q188 80 188 54Q188 28 172 12Q156 -4 130 -4Q104 -4 88 12Q72 28 72 54Z" glyph-name="period.tab" horiz-adv-x="260" /><glyph d="M158 255Q158 229 142 213Q126 197 100 197Q74 197 58 213Q42 229 42 255Q42 281 58 297Q74 313 100 313Q126 313 142 297Q158 281 158 255Z" glyph-name="periodcentered" horiz-adv-x="200" unicode="&#183;" /><glyph d="M158 295Q158 269 142 253Q126 237 100 237Q74 237 58 253Q42 269 42 295Q42 321 58 337Q74 353 100 353Q126 353 142 337Q158 321 158 295Z" glyph-name="periodcentered.cap" horiz-adv-x="200" unicode="&#58497;" /><glyph d="M476 614H555L186 0H107ZM30 485Q30 514 40.5 539.5Q51 565 70 583.5Q89 602 114 613Q139 624 168 624Q197 624 222.5 613Q248 602 266.5 583.5Q285 565 296 539.5Q307 514 307 485Q307 456 296 431Q285 406 266.5 387Q248 368 222.5 357.5Q197 347 168 347Q139 347 114 357.5Q89 368 70 387Q51 406 40.5 431Q30 456 30 485ZM632 129Q632 100 621.5 74.5Q611 49 592 30.5Q573 12 548 1Q523 -10 494 -10Q465 -10 439.5 1Q414 12 395.5 30.5Q377 49 366 74.5Q355 100 355 129Q355 158 366 183Q377 208 395.5 227Q414 246 439.5 256.5Q465 267 494 267Q523 267 548 256.5Q573 246 592 227Q611 208 621.5 183Q632 158 632 129ZM557 129Q557 155 538.5 173.5Q520 192 494 192Q468 192 449 173.5Q430 155 430 129Q430 103 449 84Q468 65 494 65Q520 65 538.5 84Q557 103 557 129ZM942 129Q942 100 931.5 74.5Q921 49 902 30.5Q883 12 858 1Q833 -10 804 -10Q775 -10 749.5 1Q724 12 705.5 30.5Q687 49 676 74.5Q665 100 665 129Q665 158 676 183Q687 208 705.5 227Q724 246 749.5 256.5Q775 267 804 267Q833 267 858 256.5Q883 246 902 227Q921 208 931.5 183Q942 158 942 129ZM867 129Q867 155 848.5 173.5Q830 192 804 192Q778 192 759 173.5Q740 155 740 129Q740 103 759 84Q778 65 804 65Q830 65 848.5 84Q867 103 867 129ZM105 485Q105 459 123.5 440.5Q142 422 168 422Q194 422 213 440.5Q232 459 232 485Q232 511 213 530Q194 549 168 549Q142 549 123.5 530Q105 511 105 485Z" glyph-name="perthousand" horiz-adv-x="972" unicode="&#8240;" /><glyph d="M411 614H490L121 0H42ZM92 502Q92 479 108 463Q124 447 147 447Q170 447 186.5 463Q203 479 203 502Q203 525 186.5 541.5Q170 558 147 558Q124 558 108 541.5Q92 525 92 502ZM506 112Q506 86 496.5 64Q487 42 470.5 25.5Q454 9 432 -0.5Q410 -10 385 -10Q359 -10 337 -0.5Q315 9 298.5 25.5Q282 42 272.5 64Q263 86 263 112Q263 137 272.5 159Q282 181 298.5 197.5Q315 214 337 223.5Q359 233 385 233Q410 233 432 223.5Q454 214 470.5 197.5Q487 181 496.5 159Q506 137 506 112ZM440 112Q440 135 424 151Q408 167 385 167Q362 167 345.5 151Q329 135 329 112Q329 89 345.5 72.5Q362 56 385 56Q408 56 424 72.5Q440 89 440 112ZM26 502Q26 527 35.5 549.5Q45 572 61.5 588.5Q78 605 100 614.5Q122 624 147 624Q172 624 194.5 614.5Q217 605 233.5 588.5Q250 572 259.5 549.5Q269 527 269 502Q269 477 259.5 455Q250 433 233.5 416.5Q217 400 194.5 390.5Q172 381 147 381Q122 381 100 390.5Q78 400 61.5 416.5Q45 433 35.5 455Q26 477 26 502ZM773 112Q773 86 763.5 64Q754 42 737.5 25.5Q721 9 699 -0.5Q677 -10 652 -10Q626 -10 604 -0.5Q582 9 565.5 25.5Q549 42 539.5 64Q530 86 530 112Q530 137 539.5 159Q549 181 565.5 197.5Q582 214 604 223.5Q626 233 652 233Q677 233 699 223.5Q721 214 737.5 197.5Q754 181 763.5 159Q773 137 773 112ZM707 112Q707 135 691 151Q675 167 652 167Q629 167 612.5 151Q596 135 596 112Q596 89 612.5 72.5Q629 56 652 56Q675 56 691 72.5Q707 89 707 112Z" glyph-name="perthousand.lt" horiz-adv-x="800" /><glyph d="M322 507V339H490V259H322V92H242V259H74V339H242V507Z" glyph-name="plus" horiz-adv-x="564" unicode="+" /><glyph d="M182 108V18H272V-40H182V-130H124V-40H34V18H124V108Z" glyph-name="plus.inf" horiz-adv-x="306" unicode="&#58747;" /><glyph d="M300 507V339H468V259H300V92H220V259H52V339H220V507Z" glyph-name="plus.lt" horiz-adv-x="520" /><glyph d="M325 539V407H489V328H325V196H246V328H82V407H246V539ZM82 152H489V73H82Z" glyph-name="plusminus" horiz-adv-x="570" unicode="&#177;" /><glyph d="M299 539V407H463V328H299V196H220V328H56V407H220V539ZM56 152H463V73H56Z" glyph-name="plusminus.lt" horiz-adv-x="520" /><glyph d="M669 307Q669 238 644 180Q619 122 576 79.5Q533 37 475 13.5Q417 -10 352 -10Q287 -10 229 13.5Q171 37 128 79.5Q85 122 60 180Q35 238 35 307Q35 376 60 434Q85 492 128 534.5Q171 577 229 600.5Q287 624 352 624Q417 624 475 600.5Q533 577 576 534.5Q619 492 644 434Q669 376 669 307ZM622 307Q622 366 600.5 415.5Q579 465 542.5 501Q506 537 456.5 557.5Q407 578 352 578Q296 578 247 557.5Q198 537 161.5 501Q125 465 103.5 415.5Q82 366 82 307Q82 248 103.5 198.5Q125 149 161.5 113Q198 77 247 56.5Q296 36 352 36Q407 36 456.5 56.5Q506 77 542.5 113Q579 149 600.5 198.5Q622 248 622 307ZM317 239V124H227V493H389Q449 493 486 460.5Q523 428 523 366Q523 304 486 271.5Q449 239 389 239ZM434 366Q434 387 421.5 400.5Q409 414 383 414H317V318H383Q409 318 421.5 331.5Q434 345 434 366Z" glyph-name="published" horiz-adv-x="704" unicode="&#8471;" /><glyph d="M350 38Q335 19 304.5 4.5Q274 -10 237 -10Q188 -10 150 9Q112 28 85.5 59.5Q59 91 45 133Q31 175 31 222Q31 268 45 310.5Q59 353 85.5 384.5Q112 416 150 435Q188 454 237 454Q274 454 304.5 439.5Q335 425 350 406V444H450V-170H350ZM350 306Q337 332 311 348.5Q285 365 254 365Q196 365 163.5 324.5Q131 284 131 222Q131 160 163.5 119.5Q196 79 254 79Q285 79 311 95.5Q337 112 350 138Z" glyph-name="q" horiz-adv-x="512" unicode="q" /><glyph d="M418 444Q418 415 408.5 390.5Q399 366 384 345.5Q369 325 350.5 308Q332 291 314 276Q285 253 276 236Q267 219 263 193H185Q183 215 183.5 233.5Q184 252 189 267.5Q194 283 205.5 298Q217 313 238 329Q254 342 268.5 354Q283 366 293.5 379Q304 392 310 407.5Q316 423 316 444Q316 481 292.5 506.5Q269 532 224 532Q178 532 154.5 505Q131 478 128 436L27 451Q37 533 86.5 578.5Q136 624 224 624Q315 624 366.5 575Q418 526 418 444ZM282 54Q282 28 266 12Q250 -4 224 -4Q198 -4 182 12Q166 28 166 54Q166 80 182 96Q198 112 224 112Q250 112 266 96Q282 80 282 54Z" glyph-name="question" horiz-adv-x="441" unicode="?" /><glyph d="M23 74Q23 103 32.5 127.5Q42 152 57 172.5Q72 193 90.5 210Q109 227 127 242Q142 254 151 263.5Q160 273 165 282Q170 291 173 301.5Q176 312 178 325H256Q258 302 257.5 284Q257 266 252 250.5Q247 235 235.5 220Q224 205 203 189Q186 176 172 164Q158 152 147.5 139Q137 126 131 110.5Q125 95 125 74Q125 37 148.5 11.5Q172 -14 217 -14Q263 -14 286.5 13Q310 40 313 82L414 67Q404 -15 354.5 -60.5Q305 -106 217 -106Q126 -106 74.5 -57Q23 -8 23 74ZM159 464Q159 490 175 506Q191 522 217 522Q243 522 259 506Q275 490 275 464Q275 438 259 422Q243 406 217 406Q191 406 175 422Q159 438 159 464Z" glyph-name="questiondown" horiz-adv-x="441" unicode="&#191;" /><glyph d="M23 169Q23 198 32.5 222.5Q42 247 57 267.5Q72 288 90.5 305Q109 322 127 337Q142 349 151 358.5Q160 368 165 377Q170 386 173 396.5Q176 407 178 420H256Q258 397 257.5 379Q257 361 252 345.5Q247 330 235.5 315Q224 300 203 284Q186 271 172 259Q158 247 147.5 234Q137 221 131 205.5Q125 190 125 169Q125 132 148.5 106.5Q172 81 217 81Q263 81 286.5 108Q310 135 313 177L414 162Q404 80 354.5 34.5Q305 -11 217 -11Q126 -11 74.5 38Q23 87 23 169ZM159 559Q159 585 175 601Q191 617 217 617Q243 617 259 601Q275 585 275 559Q275 533 259 517Q243 501 217 501Q191 501 175 517Q159 533 159 559Z" glyph-name="questiondown.cap" horiz-adv-x="441" unicode="&#58436;" /><glyph d="M40 614H125V374H40ZM180 614H265V374H180Z" glyph-name="quotedbl" horiz-adv-x="305" unicode="&quot;" /><glyph d="M48 -63Q107 -51 117 -2Q107 -4 100 -4Q74 -4 58 12Q42 28 42 54Q42 80 58 96Q74 112 100 112Q136 112 153 90.5Q170 69 170 29Q170 -17 141.5 -55.5Q113 -94 56 -105ZM209 -63Q268 -51 278 -2Q268 -4 261 -4Q235 -4 219 12Q203 28 203 54Q203 80 219 96Q235 112 261 112Q297 112 314 90.5Q331 69 331 29Q331 -17 302.5 -55.5Q274 -94 217 -105Z" glyph-name="quotedblbase" horiz-adv-x="361" unicode="&#8222;" /><glyph d="M152 582Q93 570 83 521Q93 523 100 523Q126 523 142 507Q158 491 158 465Q158 439 142 423Q126 407 100 407Q64 407 47 428.5Q30 450 30 490Q30 536 58.5 574.5Q87 613 144 624ZM313 582Q254 570 244 521Q254 523 261 523Q287 523 303 507Q319 491 319 465Q319 439 303 423Q287 407 261 407Q225 407 208 428.5Q191 450 191 490Q191 536 219.5 574.5Q248 613 305 624Z" glyph-name="quotedblleft" horiz-adv-x="361" unicode="&#8220;" /><glyph d="M48 449Q107 461 117 510Q107 508 100 508Q74 508 58 524Q42 540 42 566Q42 592 58 608Q74 624 100 624Q136 624 153 602.5Q170 581 170 541Q170 495 141.5 456.5Q113 418 56 407ZM209 449Q268 461 278 510Q268 508 261 508Q235 508 219 524Q203 540 203 566Q203 592 219 608Q235 624 261 624Q297 624 314 602.5Q331 581 331 541Q331 495 302.5 456.5Q274 418 217 407Z" glyph-name="quotedblright" horiz-adv-x="361" unicode="&#8221;" /><glyph d="M152 582Q93 570 83 521Q93 523 100 523Q126 523 142 507Q158 491 158 465Q158 439 142 423Q126 407 100 407Q64 407 47 428.5Q30 450 30 490Q30 536 58.5 574.5Q87 613 144 624Z" glyph-name="quoteleft" horiz-adv-x="200" unicode="&#8216;" /><glyph d="M48 449Q107 461 117 510Q107 508 100 508Q74 508 58 524Q42 540 42 566Q42 592 58 608Q74 624 100 624Q136 624 153 602.5Q170 581 170 541Q170 495 141.5 456.5Q113 418 56 407Z" glyph-name="quoteright" horiz-adv-x="200" unicode="&#8217;" /><glyph d="M48 -63Q107 -51 117 -2Q107 -4 100 -4Q74 -4 58 12Q42 28 42 54Q42 80 58 96Q74 112 100 112Q136 112 153 90.5Q170 69 170 29Q170 -17 141.5 -55.5Q113 -94 56 -105Z" glyph-name="quotesinglbase" horiz-adv-x="200" unicode="&#8218;" /><glyph d="M40 614H129V374H40Z" glyph-name="quotesingle" horiz-adv-x="169" unicode="&apos;" /><glyph d="M298 349Q278 358 253 358Q222 358 196 340.5Q170 323 162 287V0H62V444H162V398Q175 423 203.5 438.5Q232 454 264 454Q297 454 315 444Z" glyph-name="r" horiz-adv-x="340" unicode="r" /><glyph d="M145 506 222 650H325L234 506ZM298 349Q278 358 253 358Q222 358 196 340.5Q170 323 162 287V0H62V444H162V398Q175 423 203.5 438.5Q232 454 264 454Q297 454 315 444Z" glyph-name="racute" horiz-adv-x="340" unicode="&#341;" /><glyph d="M236 506H136L46 650H125L186 570L247 650H326ZM298 349Q278 358 253 358Q222 358 196 340.5Q170 323 162 287V0H62V444H162V398Q175 423 203.5 438.5Q232 454 264 454Q297 454 315 444Z" glyph-name="rcaron" horiz-adv-x="340" unicode="&#345;" /><glyph d="M298 349Q278 358 253 358Q222 358 196 340.5Q170 323 162 287V0H62V444H162V398Q175 423 203.5 438.5Q232 454 264 454Q297 454 315 444ZM66 -152Q83 -149 96.5 -143Q110 -137 118 -125H108Q86 -125 72 -111.5Q58 -98 58 -76Q58 -54 73.5 -40.5Q89 -27 110 -27Q139 -27 154.5 -44.5Q170 -62 170 -94Q170 -131 145 -156.5Q120 -182 74 -190Z" glyph-name="rcommaaccent" horiz-adv-x="340" unicode="&#343;" /><glyph d="M384 441Q384 401 369.5 367.5Q355 334 330.5 309.5Q306 285 273 271.5Q240 258 203 258Q166 258 133 271.5Q100 285 75.5 309.5Q51 334 36.5 367.5Q22 401 22 441Q22 481 36.5 514.5Q51 548 75.5 572.5Q100 597 133 610.5Q166 624 203 624Q240 624 273 610.5Q306 597 330.5 572.5Q355 548 369.5 514.5Q384 481 384 441ZM351 441Q351 474 339.5 502Q328 530 308 550.5Q288 571 261 582Q234 593 203 593Q172 593 145 582Q118 571 98 550.5Q78 530 66.5 502Q55 474 55 441Q55 408 66.5 380Q78 352 98 331.5Q118 311 145 300Q172 289 203 289Q234 289 261 300Q288 311 308 331.5Q328 352 339.5 380Q351 408 351 441ZM179 409V346H129V538H218Q250 538 269 521Q288 504 288 472Q288 427 250 414L295 346H240L200 409ZM240 472Q240 483 233.5 489.5Q227 496 214 496H179V449H214Q227 449 233.5 455.5Q240 462 240 472Z" glyph-name="registered" horiz-adv-x="407" unicode="&#174;" /><glyph d="M343 578Q343 539 316 513Q289 487 250 487Q211 487 184 513Q157 539 157 578Q157 617 184 643Q211 669 250 669Q289 669 316 643Q343 617 343 578ZM292 578Q292 596 279.5 608Q267 620 250 620Q233 620 220.5 608Q208 596 208 578Q208 560 220.5 548Q233 536 250 536Q267 536 279.5 548Q292 560 292 578Z" glyph-name="ring" horiz-adv-x="500" unicode="&#730;" /><glyph d="M343 740Q343 701 316 675Q289 649 250 649Q211 649 184 675Q157 701 157 740Q157 779 184 805Q211 831 250 831Q289 831 316 805Q343 779 343 740ZM292 740Q292 758 279.5 770Q267 782 250 782Q233 782 220.5 770Q208 758 208 740Q208 722 220.5 710Q233 698 250 698Q267 698 279.5 710Q292 722 292 740Z" glyph-name="ring.cap" horiz-adv-x="500" unicode="&#58410;" /><glyph d="M209 -10Q134 -10 86 23Q38 56 30 113L125 129Q129 102 153 87Q177 72 212 72Q247 72 272 85.5Q297 99 297 125Q297 143 285 153.5Q273 164 245 171L153 193Q106 204 73.5 232.5Q41 261 41 316Q41 346 53 371.5Q65 397 87.5 415Q110 433 142 443.5Q174 454 214 454Q288 454 332 423Q376 392 387 337L293 321Q288 344 268.5 358Q249 372 211 372Q182 372 159.5 360Q137 348 137 325Q137 306 149 296Q161 286 185 280L279 258Q393 231 393 132Q393 99 380 72.5Q367 46 343 28Q319 10 285 0Q251 -10 209 -10Z" glyph-name="s" horiz-adv-x="429" unicode="s" /><glyph d="M181 506 258 650H361L270 506ZM209 -10Q134 -10 86 23Q38 56 30 113L125 129Q129 102 153 87Q177 72 212 72Q247 72 272 85.5Q297 99 297 125Q297 143 285 153.5Q273 164 245 171L153 193Q106 204 73.5 232.5Q41 261 41 316Q41 346 53 371.5Q65 397 87.5 415Q110 433 142 443.5Q174 454 214 454Q288 454 332 423Q376 392 387 337L293 321Q288 344 268.5 358Q249 372 211 372Q182 372 159.5 360Q137 348 137 325Q137 306 149 296Q161 286 185 280L279 258Q393 231 393 132Q393 99 380 72.5Q367 46 343 28Q319 10 285 0Q251 -10 209 -10Z" glyph-name="sacute" horiz-adv-x="429" unicode="&#347;" /><glyph d="M266 506H166L76 650H155L216 570L277 650H356ZM209 -10Q134 -10 86 23Q38 56 30 113L125 129Q129 102 153 87Q177 72 212 72Q247 72 272 85.5Q297 99 297 125Q297 143 285 153.5Q273 164 245 171L153 193Q106 204 73.5 232.5Q41 261 41 316Q41 346 53 371.5Q65 397 87.5 415Q110 433 142 443.5Q174 454 214 454Q288 454 332 423Q376 392 387 337L293 321Q288 344 268.5 358Q249 372 211 372Q182 372 159.5 360Q137 348 137 325Q137 306 149 296Q161 286 185 280L279 258Q393 231 393 132Q393 99 380 72.5Q367 46 343 28Q319 10 285 0Q251 -10 209 -10Z" glyph-name="scaron" horiz-adv-x="429" unicode="&#353;" /><glyph d="M184 -9Q119 -4 78.5 28.5Q38 61 30 113L125 129Q129 102 153 87Q177 72 212 72Q247 72 272 85.5Q297 99 297 125Q297 143 285 153.5Q273 164 245 171L153 193Q106 204 73.5 232.5Q41 261 41 316Q41 346 53 371.5Q65 397 87.5 415Q110 433 142 443.5Q174 454 214 454Q288 454 332 423Q376 392 387 337L293 321Q288 344 268.5 358Q249 372 211 372Q182 372 159.5 360Q137 348 137 325Q137 306 149 296Q161 286 185 280L279 258Q393 231 393 132Q393 72 351.5 35.5Q310 -1 240 -8L236 -31Q267 -39 287 -57.5Q307 -76 307 -108Q307 -140 282.5 -160Q258 -180 210 -180Q185 -180 165.5 -174Q146 -168 132 -159L145 -107Q156 -113 171.5 -117Q187 -121 203 -121Q221 -121 232 -116Q243 -111 243 -100Q243 -83 224.5 -74.5Q206 -66 174 -64Z" glyph-name="scedilla" horiz-adv-x="429" unicode="&#351;" /><glyph d="M32 322Q46 382 96 418Q146 454 221 454Q268 454 306.5 437Q345 420 373 389.5Q401 359 416 316.5Q431 274 431 223Q431 173 415.5 130.5Q400 88 372.5 56.5Q345 25 306.5 7.5Q268 -10 223 -10Q176 -10 140 6Q104 22 79.5 51Q55 80 42.5 120Q30 160 30 209V245H333Q331 304 301 337Q271 370 221 370Q185 370 157 354Q129 338 121 306ZM222 74Q264 74 292.5 99Q321 124 330 172H129Q130 131 153 102.5Q176 74 222 74Z" glyph-name="schwa" horiz-adv-x="462" unicode="&#601;" /><glyph d="M356 506H277L216 586L155 506H76L166 650H266ZM209 -10Q134 -10 86 23Q38 56 30 113L125 129Q129 102 153 87Q177 72 212 72Q247 72 272 85.5Q297 99 297 125Q297 143 285 153.5Q273 164 245 171L153 193Q106 204 73.5 232.5Q41 261 41 316Q41 346 53 371.5Q65 397 87.5 415Q110 433 142 443.5Q174 454 214 454Q288 454 332 423Q376 392 387 337L293 321Q288 344 268.5 358Q249 372 211 372Q182 372 159.5 360Q137 348 137 325Q137 306 149 296Q161 286 185 280L279 258Q393 231 393 132Q393 99 380 72.5Q367 46 343 28Q319 10 285 0Q251 -10 209 -10Z" glyph-name="scircumflex" horiz-adv-x="429" unicode="&#349;" /><glyph d="M209 -10Q134 -10 86 23Q38 56 30 113L125 129Q129 102 153 87Q177 72 212 72Q247 72 272 85.5Q297 99 297 125Q297 143 285 153.5Q273 164 245 171L153 193Q106 204 73.5 232.5Q41 261 41 316Q41 346 53 371.5Q65 397 87.5 415Q110 433 142 443.5Q174 454 214 454Q288 454 332 423Q376 392 387 337L293 321Q288 344 268.5 358Q249 372 211 372Q182 372 159.5 360Q137 348 137 325Q137 306 149 296Q161 286 185 280L279 258Q393 231 393 132Q393 99 380 72.5Q367 46 343 28Q319 10 285 0Q251 -10 209 -10ZM162 -152Q179 -149 192.5 -143Q206 -137 214 -125H204Q182 -125 168 -111.5Q154 -98 154 -76Q154 -54 169.5 -40.5Q185 -27 206 -27Q235 -27 250.5 -44.5Q266 -62 266 -94Q266 -131 241 -156.5Q216 -182 170 -190Z" glyph-name="scommaaccent" horiz-adv-x="429" unicode="&#537;" /><glyph d="M313 152Q336 157 345 173Q354 189 354 206Q354 231 333.5 248.5Q313 266 291 280L152 372Q129 367 120 351Q111 335 111 318Q111 293 131.5 275.5Q152 258 174 244ZM295 29Q295 51 279.5 64.5Q264 78 238 95L130 165Q108 179 88 194Q68 209 53 227Q38 245 29 266.5Q20 288 20 315Q20 350 37 382Q54 414 88 434Q74 457 74 490Q74 552 119.5 588Q165 624 238 624Q310 624 353 594.5Q396 565 409 509L317 494Q312 517 292 530.5Q272 544 238 544Q211 544 190.5 532Q170 520 170 495Q170 473 185.5 459.5Q201 446 227 429L335 359Q357 345 377 330Q397 315 412 297Q427 279 436 257.5Q445 236 445 209Q445 173 427.5 141Q410 109 377 90Q391 65 391 34Q391 -28 345.5 -64Q300 -100 227 -100Q155 -100 112 -70.5Q69 -41 56 15L148 30Q153 7 173 -6.5Q193 -20 227 -20Q254 -20 274.5 -8Q295 4 295 29Z" glyph-name="section" horiz-adv-x="465" unicode="&#167;" /><glyph d="M48 -63Q107 -51 117 -2Q107 -4 100 -4Q74 -4 58 12Q42 28 42 54Q42 80 58 96Q74 112 100 112Q136 112 153 90.5Q170 69 170 29Q170 -17 141.5 -55.5Q113 -94 56 -105ZM100 296Q74 296 58 312Q42 328 42 354Q42 380 58 396Q74 412 100 412Q126 412 142 396Q158 380 158 354Q158 328 142 312Q126 296 100 296Z" glyph-name="semicolon" horiz-adv-x="200" unicode=";" /><glyph d="M78 -63Q137 -51 147 -2Q137 -4 130 -4Q104 -4 88 12Q72 28 72 54Q72 80 88 96Q104 112 130 112Q166 112 183 90.5Q200 69 200 29Q200 -17 171.5 -55.5Q143 -94 86 -105ZM130 296Q104 296 88 312Q72 328 72 354Q72 380 88 396Q104 412 130 412Q156 412 172 396Q188 380 188 354Q188 328 172 312Q156 296 130 296Z" glyph-name="semicolon.tab" horiz-adv-x="260" /><glyph d="M210 0H106L316 522H18V614H422V535Z" glyph-name="seven" horiz-adv-x="450" unicode="7" /><glyph d="M143 -170H62L160 88H17V158H246V103Z" glyph-name="seven.inf" horiz-adv-x="268" unicode="&#58744;" /><glyph d="M249 0H145L365 522H47V614H471V535Z" glyph-name="seven.lt" horiz-adv-x="520" /><glyph d="M143 286H62L160 544H17V614H246V559ZM235 0H148L517 614H604ZM657 0H578V239L501 201V280L603 328H657ZM855 334Q901 334 929 312Q957 290 964 252L891 240Q883 267 854 267Q827 267 812.5 244.5Q798 222 798 193V189Q806 201 822.5 209Q839 217 861 217Q912 217 940.5 185.5Q969 154 969 109Q969 60 937.5 27.5Q906 -5 849 -5Q817 -5 791.5 9Q766 23 749 50Q735 72 728.5 98Q722 124 722 157Q722 236 756 285Q790 334 855 334ZM802 107Q802 87 815.5 74Q829 61 850 61Q870 61 883 74Q896 87 896 107Q896 129 883 142Q870 155 850 155Q829 155 815.5 142Q802 129 802 107Z" glyph-name="sevensixteenths" horiz-adv-x="994" unicode="&#61976;" /><glyph d="M173 286H94V525L17 487V566L119 614H173ZM357 286H276L374 544H231V614H460V559ZM449 0H362L731 614H818ZM810 196H829Q847 196 859.5 204.5Q872 213 872 231Q872 245 862.5 255Q853 265 836 265Q817 265 806.5 254Q796 243 795 227L719 240Q725 281 754 307.5Q783 334 837 334Q888 334 918.5 306.5Q949 279 949 234Q949 212 938.5 193Q928 174 913 166Q933 157 943.5 138Q954 119 954 96Q954 53 922 24Q890 -5 836 -5Q784 -5 751 20.5Q718 46 713 91L793 104Q795 86 805.5 74.5Q816 63 836 63Q853 63 864.5 73Q876 83 876 100Q876 118 863.5 127Q851 136 831 136H810ZM1149 228Q1149 242 1139.5 251.5Q1130 261 1114 261Q1096 261 1087.5 250Q1079 239 1077 225L997 239Q1004 283 1033 308.5Q1062 334 1115 334Q1172 334 1201.5 306Q1231 278 1231 233Q1231 201 1212 176.5Q1193 152 1168 127L1111 70H1233V0H998V52L1109 164Q1126 183 1137.5 197.5Q1149 212 1149 228Z" glyph-name="seventeenthirtyseconds" horiz-adv-x="1258" /><glyph d="M143 286H62L160 544H17V614H246V559ZM235 0H148L517 614H604ZM596 196H615Q633 196 645.5 204.5Q658 213 658 231Q658 245 648.5 255Q639 265 622 265Q603 265 592.5 254Q582 243 581 227L505 240Q511 281 540 307.5Q569 334 623 334Q674 334 704.5 306.5Q735 279 735 234Q735 212 724.5 193Q714 174 699 166Q719 157 729.5 138Q740 119 740 96Q740 53 708 24Q676 -5 622 -5Q570 -5 537 20.5Q504 46 499 91L579 104Q581 86 591.5 74.5Q602 63 622 63Q639 63 650.5 73Q662 83 662 100Q662 118 649.5 127Q637 136 617 136H596ZM935 228Q935 242 925.5 251.5Q916 261 900 261Q882 261 873.5 250Q865 239 863 225L783 239Q790 283 819 308.5Q848 334 901 334Q958 334 987.5 306Q1017 278 1017 233Q1017 201 998 176.5Q979 152 954 127L897 70H1019V0H784V52L895 164Q912 183 923.5 197.5Q935 212 935 228Z" glyph-name="seventhirtyseconds" horiz-adv-x="1044" /><glyph d="M274 624Q349 624 396 587.5Q443 551 457 485L361 468Q352 501 330.5 520Q309 539 269 539Q236 539 210 522Q184 505 166.5 476.5Q149 448 139.5 411Q130 374 130 334V323Q147 358 184.5 380Q222 402 271 402Q317 402 354 385.5Q391 369 417 341Q443 313 456.5 276Q470 239 470 198Q470 156 456 118Q442 80 415 51.5Q388 23 349 6.5Q310 -10 260 -10Q203 -10 154.5 18Q106 46 75 108Q55 149 46.5 193Q38 237 38 294Q38 370 53.5 431Q69 492 99 535Q129 578 173 601Q217 624 274 624ZM145 196Q145 142 176.5 109.5Q208 77 261 77Q312 77 343.5 109.5Q375 142 375 196Q375 251 343.5 284.5Q312 318 261 318Q208 318 176.5 285Q145 252 145 196Z" glyph-name="six" horiz-adv-x="505" unicode="6" /><glyph d="M157 164Q203 164 231 142Q259 120 266 82L193 70Q185 97 156 97Q129 97 114.5 74.5Q100 52 100 23V19Q108 31 124.5 39Q141 47 163 47Q214 47 242.5 15.5Q271 -16 271 -61Q271 -110 239.5 -142.5Q208 -175 151 -175Q119 -175 93.5 -161Q68 -147 51 -120Q37 -98 30.5 -72Q24 -46 24 -13Q24 66 58 115Q92 164 157 164ZM104 -63Q104 -83 117.5 -96Q131 -109 152 -109Q172 -109 185 -96Q198 -83 198 -63Q198 -41 185 -28Q172 -15 152 -15Q131 -15 117.5 -28Q104 -41 104 -63Z" glyph-name="six.inf" horiz-adv-x="296" unicode="&#58743;" /><glyph d="M285 624Q360 624 407 587.5Q454 551 468 485L372 468Q363 501 341.5 520Q320 539 280 539Q247 539 221 522Q195 505 177.5 476.5Q160 448 150.5 411Q141 374 141 334V323Q158 358 195.5 380Q233 402 282 402Q328 402 365 385.5Q402 369 428 341Q454 313 467.5 276Q481 239 481 198Q481 156 467 118Q453 80 426 51.5Q399 23 360 6.5Q321 -10 271 -10Q214 -10 165.5 18Q117 46 86 108Q66 149 57.5 193Q49 237 49 294Q49 370 64.5 431Q80 492 110 535Q140 578 184 601Q228 624 285 624ZM156 196Q156 142 187.5 109.5Q219 77 272 77Q323 77 354.5 109.5Q386 142 386 196Q386 251 354.5 284.5Q323 318 272 318Q219 318 187.5 285Q156 252 156 196Z" glyph-name="six.lt" horiz-adv-x="520" /><glyph d="M253 650H352L104 -84H5Z" glyph-name="slash" horiz-adv-x="357" unicode="/" /><glyph d="M253 670H352L104 -64H5Z" glyph-name="slash.cap" horiz-adv-x="357" unicode="&#58465;" /><glyph glyph-name="space" horiz-adv-x="160" unicode=" " /><glyph glyph-name="space.tab" horiz-adv-x="260" /><glyph d="M203 343H344V262H203V174Q203 148 198 123Q193 98 182 83H468V0H30V83H87Q97 100 102 120.5Q107 141 107 174V262H30V343H107V426Q107 467 120.5 503Q134 539 158.5 566Q183 593 218 608.5Q253 624 295 624Q375 624 416.5 584Q458 544 467 480L373 463Q368 499 348 518.5Q328 538 293 538Q247 538 225 506Q203 474 203 426Z" glyph-name="sterling" horiz-adv-x="492" unicode="&#163;" /><glyph d="M214 343H355V262H214V174Q214 148 209 123Q204 98 193 83H479V0H41V83H98Q108 100 113 120.5Q118 141 118 174V262H41V343H118V426Q118 467 131.5 503Q145 539 169.5 566Q194 593 229 608.5Q264 624 306 624Q386 624 427.5 584Q469 544 478 480L384 463Q379 499 359 518.5Q339 538 304 538Q258 538 236 506Q214 474 214 426Z" glyph-name="sterling.lt" horiz-adv-x="520" /><glyph d="M85 361H15V444H85V563H185V444H285V361H185V131Q185 104 199 91.5Q213 79 238 79Q264 79 285 92L300 9Q268 -10 212 -10Q157 -10 121 22Q85 54 85 120Z" glyph-name="t" horiz-adv-x="335" unicode="t" /><glyph d="M30 278H91V361H21V444H91V563H191V444H291V361H191V278H278V199H191V131Q191 104 205 91.5Q219 79 244 79Q270 79 291 92L306 9Q274 -10 218 -10Q163 -10 127 22Q91 54 91 120V199H30Z" glyph-name="tbar" horiz-adv-x="341" unicode="&#359;" /><glyph d="M234 493 258 660H336L312 493ZM85 361H15V444H85V563H185V444H285V361H185V131Q185 104 199 91.5Q213 79 238 79Q264 79 285 92L300 9Q268 -10 212 -10Q157 -10 121 22Q85 54 85 120Z" glyph-name="tcaron" horiz-adv-x="335" unicode="&#357;" /><glyph d="M85 361H15V444H85V563H185V444H285V361H185V131Q185 104 199 91.5Q213 79 238 79Q264 79 285 92L300 9Q268 -10 212 -10Q157 -10 121 22Q85 54 85 120ZM135 -152Q152 -149 165.5 -143Q179 -137 187 -125H177Q155 -125 141 -111.5Q127 -98 127 -76Q127 -54 142.5 -40.5Q158 -27 179 -27Q208 -27 223.5 -44.5Q239 -62 239 -94Q239 -131 214 -156.5Q189 -182 143 -190Z" glyph-name="tcommaaccent" horiz-adv-x="335" unicode="&#355;" /><glyph d="M85 361H15V444H85V563H185V444H285V361H185V131Q185 104 199 91.5Q213 79 238 79Q264 79 285 92L300 9Q268 -10 212 -10Q157 -10 121 22Q85 54 85 120ZM78 668Q78 694 94 710Q110 726 136 726Q162 726 178 710Q194 694 194 668Q194 642 178 626Q162 610 136 610Q110 610 94 626Q78 642 78 668Z" glyph-name="tdotaccent" horiz-adv-x="335" unicode="&#7787;" /><glyph d="M173 286H94V525L17 487V566L119 614H173ZM326 482H345Q363 482 375.5 490.5Q388 499 388 517Q388 531 378.5 541Q369 551 352 551Q333 551 322.5 540Q312 529 311 513L235 526Q241 567 270 593.5Q299 620 353 620Q404 620 434.5 592.5Q465 565 465 520Q465 498 454.5 479Q444 460 429 452Q449 443 459.5 424Q470 405 470 382Q470 339 438 310Q406 281 352 281Q300 281 267 306.5Q234 332 229 377L309 390Q311 372 321.5 360.5Q332 349 352 349Q369 349 380.5 359Q392 369 392 386Q392 404 379.5 413Q367 422 347 422H326ZM460 0H373L742 614H829ZM882 0H803V239L726 201V280L828 328H882ZM1080 334Q1126 334 1154 312Q1182 290 1189 252L1116 240Q1108 267 1079 267Q1052 267 1037.5 244.5Q1023 222 1023 193V189Q1031 201 1047.5 209Q1064 217 1086 217Q1137 217 1165.5 185.5Q1194 154 1194 109Q1194 60 1162.5 27.5Q1131 -5 1074 -5Q1042 -5 1016.5 9Q991 23 974 50Q960 72 953.5 98Q947 124 947 157Q947 236 981 285Q1015 334 1080 334ZM1027 107Q1027 87 1040.5 74Q1054 61 1075 61Q1095 61 1108 74Q1121 87 1121 107Q1121 129 1108 142Q1095 155 1075 155Q1054 155 1040.5 142Q1027 129 1027 107Z" glyph-name="thirteensixteenths" horiz-adv-x="1219" unicode="&#61985;" /><glyph d="M173 286H94V525L17 487V566L119 614H173ZM326 482H345Q363 482 375.5 490.5Q388 499 388 517Q388 531 378.5 541Q369 551 352 551Q333 551 322.5 540Q312 529 311 513L235 526Q241 567 270 593.5Q299 620 353 620Q404 620 434.5 592.5Q465 565 465 520Q465 498 454.5 479Q444 460 429 452Q449 443 459.5 424Q470 405 470 382Q470 339 438 310Q406 281 352 281Q300 281 267 306.5Q234 332 229 377L309 390Q311 372 321.5 360.5Q332 349 352 349Q369 349 380.5 359Q392 369 392 386Q392 404 379.5 413Q367 422 347 422H326ZM460 0H373L742 614H829ZM821 196H840Q858 196 870.5 204.5Q883 213 883 231Q883 245 873.5 255Q864 265 847 265Q828 265 817.5 254Q807 243 806 227L730 240Q736 281 765 307.5Q794 334 848 334Q899 334 929.5 306.5Q960 279 960 234Q960 212 949.5 193Q939 174 924 166Q944 157 954.5 138Q965 119 965 96Q965 53 933 24Q901 -5 847 -5Q795 -5 762 20.5Q729 46 724 91L804 104Q806 86 816.5 74.5Q827 63 847 63Q864 63 875.5 73Q887 83 887 100Q887 118 874.5 127Q862 136 842 136H821ZM1160 228Q1160 242 1150.5 251.5Q1141 261 1125 261Q1107 261 1098.5 250Q1090 239 1088 225L1008 239Q1015 283 1044 308.5Q1073 334 1126 334Q1183 334 1212.5 306Q1242 278 1242 233Q1242 201 1223 176.5Q1204 152 1179 127L1122 70H1244V0H1009V52L1120 164Q1137 183 1148.5 197.5Q1160 212 1160 228Z" glyph-name="thirteenthirtyseconds" horiz-adv-x="1269" /><glyph d="M112 482H131Q149 482 161.5 490.5Q174 499 174 517Q174 531 164.5 541Q155 551 138 551Q119 551 108.5 540Q98 529 97 513L21 526Q27 567 56 593.5Q85 620 139 620Q190 620 220.5 592.5Q251 565 251 520Q251 498 240.5 479Q230 460 215 452Q235 443 245.5 424Q256 405 256 382Q256 339 224 310Q192 281 138 281Q86 281 53 306.5Q20 332 15 377L95 390Q97 372 107.5 360.5Q118 349 138 349Q155 349 166.5 359Q178 369 178 386Q178 404 165.5 413Q153 422 133 422H112ZM452 286H373V525L296 487V566L398 614H452ZM460 0H373L742 614H829ZM821 196H840Q858 196 870.5 204.5Q883 213 883 231Q883 245 873.5 255Q864 265 847 265Q828 265 817.5 254Q807 243 806 227L730 240Q736 281 765 307.5Q794 334 848 334Q899 334 929.5 306.5Q960 279 960 234Q960 212 949.5 193Q939 174 924 166Q944 157 954.5 138Q965 119 965 96Q965 53 933 24Q901 -5 847 -5Q795 -5 762 20.5Q729 46 724 91L804 104Q806 86 816.5 74.5Q827 63 847 63Q864 63 875.5 73Q887 83 887 100Q887 118 874.5 127Q862 136 842 136H821ZM1160 228Q1160 242 1150.5 251.5Q1141 261 1125 261Q1107 261 1098.5 250Q1090 239 1088 225L1008 239Q1015 283 1044 308.5Q1073 334 1126 334Q1183 334 1212.5 306Q1242 278 1242 233Q1242 201 1223 176.5Q1204 152 1179 127L1122 70H1244V0H1009V52L1120 164Q1137 183 1148.5 197.5Q1160 212 1160 228Z" glyph-name="thirtyonethirtyseconds" horiz-adv-x="1269" /><glyph d="M162 -170H62V650H162V406Q177 425 207.5 439.5Q238 454 275 454Q324 454 362 435Q400 416 426.5 384.5Q453 353 467 310.5Q481 268 481 222Q481 175 467 133Q453 91 426.5 59.5Q400 28 362 9Q324 -10 275 -10Q238 -10 207.5 4.5Q177 19 162 38ZM162 138Q175 112 201 95.5Q227 79 258 79Q316 79 348.5 119.5Q381 160 381 222Q381 284 348.5 324.5Q316 365 258 365Q227 365 201 348.5Q175 332 162 306Z" glyph-name="thorn" horiz-adv-x="512" unicode="&#254;" /><glyph d="M186 357H222Q267 357 296 379.5Q325 402 325 446Q325 483 300.5 508.5Q276 534 231 534Q182 534 156.5 506Q131 478 127 438L28 456Q34 493 49.5 523.5Q65 554 90 576.5Q115 599 149.5 611.5Q184 624 228 624Q273 624 309 611Q345 598 370 575.5Q395 553 408.5 521Q422 489 422 452Q422 404 400.5 367Q379 330 342 314Q390 294 412 256Q434 218 434 175Q434 136 420 102Q406 68 379.5 43.5Q353 19 315 4.5Q277 -10 229 -10Q184 -10 146.5 2.5Q109 15 81 38Q53 61 35.5 93.5Q18 126 13 167L112 184Q117 137 145.5 108Q174 79 228 79Q276 79 306 105Q336 131 336 174Q336 219 305 244.5Q274 270 225 270H186Z" glyph-name="three" horiz-adv-x="465" unicode="3" /><glyph d="M112 26H131Q149 26 161.5 34.5Q174 43 174 61Q174 75 164.5 85Q155 95 138 95Q119 95 108.5 84Q98 73 97 57L21 70Q27 111 56 137.5Q85 164 139 164Q190 164 220.5 136.5Q251 109 251 64Q251 42 240.5 23Q230 4 215 -4Q235 -13 245.5 -32Q256 -51 256 -74Q256 -117 224 -146Q192 -175 138 -175Q86 -175 53 -149.5Q20 -124 15 -79L95 -66Q97 -84 107.5 -95.5Q118 -107 138 -107Q155 -107 166.5 -97Q178 -87 178 -70Q178 -52 165.5 -43Q153 -34 133 -34H112Z" glyph-name="three.inf" horiz-adv-x="279" unicode="&#58740;" /><glyph d="M222 357H258Q303 357 332 379.5Q361 402 361 446Q361 483 336.5 508.5Q312 534 267 534Q218 534 192.5 506Q167 478 163 438L64 456Q70 493 85.5 523.5Q101 554 126 576.5Q151 599 185.5 611.5Q220 624 264 624Q309 624 345 611Q381 598 406 575.5Q431 553 444.5 521Q458 489 458 452Q458 404 436.5 367Q415 330 378 314Q426 294 448 256Q470 218 470 175Q470 136 456 102Q442 68 415.5 43.5Q389 19 351 4.5Q313 -10 265 -10Q220 -10 182.5 2.5Q145 15 117 38Q89 61 71.5 93.5Q54 126 49 167L148 184Q153 137 181.5 108Q210 79 264 79Q312 79 342 105Q372 131 372 174Q372 219 341 244.5Q310 270 261 270H222Z" glyph-name="three.lt" horiz-adv-x="520" /><glyph d="M112 482H131Q149 482 161.5 490.5Q174 499 174 517Q174 531 164.5 541Q155 551 138 551Q119 551 108.5 540Q98 529 97 513L21 526Q27 567 56 593.5Q85 620 139 620Q190 620 220.5 592.5Q251 565 251 520Q251 498 240.5 479Q230 460 215 452Q235 443 245.5 424Q256 405 256 382Q256 339 224 310Q192 281 138 281Q86 281 53 306.5Q20 332 15 377L95 390Q97 372 107.5 360.5Q118 349 138 349Q155 349 166.5 359Q178 369 178 386Q178 404 165.5 413Q153 422 133 422H112ZM246 0H159L528 614H615ZM602 128H658V187H729V128H775V62H729V0H658V62H515V121L618 328H696Z" glyph-name="threequarters" horiz-adv-x="794" unicode="&#190;" /><glyph d="M112 482H131Q149 482 161.5 490.5Q174 499 174 517Q174 531 164.5 541Q155 551 138 551Q119 551 108.5 540Q98 529 97 513L21 526Q27 567 56 593.5Q85 620 139 620Q190 620 220.5 592.5Q251 565 251 520Q251 498 240.5 479Q230 460 215 452Q235 443 245.5 424Q256 405 256 382Q256 339 224 310Q192 281 138 281Q86 281 53 306.5Q20 332 15 377L95 390Q97 372 107.5 360.5Q118 349 138 349Q155 349 166.5 359Q178 369 178 386Q178 404 165.5 413Q153 422 133 422H112ZM246 0H159L528 614H615ZM668 0H589V239L512 201V280L614 328H668ZM866 334Q912 334 940 312Q968 290 975 252L902 240Q894 267 865 267Q838 267 823.5 244.5Q809 222 809 193V189Q817 201 833.5 209Q850 217 872 217Q923 217 951.5 185.5Q980 154 980 109Q980 60 948.5 27.5Q917 -5 860 -5Q828 -5 802.5 9Q777 23 760 50Q746 72 739.5 98Q733 124 733 157Q733 236 767 285Q801 334 866 334ZM813 107Q813 87 826.5 74Q840 61 861 61Q881 61 894 74Q907 87 907 107Q907 129 894 142Q881 155 861 155Q840 155 826.5 142Q813 129 813 107Z" glyph-name="threesixteenths" horiz-adv-x="1005" unicode="&#61974;" /><glyph d="M112 482H131Q149 482 161.5 490.5Q174 499 174 517Q174 531 164.5 541Q155 551 138 551Q119 551 108.5 540Q98 529 97 513L21 526Q27 567 56 593.5Q85 620 139 620Q190 620 220.5 592.5Q251 565 251 520Q251 498 240.5 479Q230 460 215 452Q235 443 245.5 424Q256 405 256 382Q256 339 224 310Q192 281 138 281Q86 281 53 306.5Q20 332 15 377L95 390Q97 372 107.5 360.5Q118 349 138 349Q155 349 166.5 359Q178 369 178 386Q178 404 165.5 413Q153 422 133 422H112Z" glyph-name="threesuperior" horiz-adv-x="279" unicode="&#179;" /><glyph d="M112 482H131Q149 482 161.5 490.5Q174 499 174 517Q174 531 164.5 541Q155 551 138 551Q119 551 108.5 540Q98 529 97 513L21 526Q27 567 56 593.5Q85 620 139 620Q190 620 220.5 592.5Q251 565 251 520Q251 498 240.5 479Q230 460 215 452Q235 443 245.5 424Q256 405 256 382Q256 339 224 310Q192 281 138 281Q86 281 53 306.5Q20 332 15 377L95 390Q97 372 107.5 360.5Q118 349 138 349Q155 349 166.5 359Q178 369 178 386Q178 404 165.5 413Q153 422 133 422H112ZM246 0H159L528 614H615ZM607 196H626Q644 196 656.5 204.5Q669 213 669 231Q669 245 659.5 255Q650 265 633 265Q614 265 603.5 254Q593 243 592 227L516 240Q522 281 551 307.5Q580 334 634 334Q685 334 715.5 306.5Q746 279 746 234Q746 212 735.5 193Q725 174 710 166Q730 157 740.5 138Q751 119 751 96Q751 53 719 24Q687 -5 633 -5Q581 -5 548 20.5Q515 46 510 91L590 104Q592 86 602.5 74.5Q613 63 633 63Q650 63 661.5 73Q673 83 673 100Q673 118 660.5 127Q648 136 628 136H607ZM946 228Q946 242 936.5 251.5Q927 261 911 261Q893 261 884.5 250Q876 239 874 225L794 239Q801 283 830 308.5Q859 334 912 334Q969 334 998.5 306Q1028 278 1028 233Q1028 201 1009 176.5Q990 152 965 127L908 70H1030V0H795V52L906 164Q923 183 934.5 197.5Q946 212 946 228Z" glyph-name="threethirtyseconds" horiz-adv-x="1055" /><glyph d="M407 635Q407 603 398.5 579.5Q390 556 376.5 540.5Q363 525 346 517.5Q329 510 312 510Q291 510 275 517Q259 524 245.5 532.5Q232 541 220 548Q208 555 195 555Q183 555 175 547.5Q167 540 166 521H93Q93 553 101.5 576.5Q110 600 123.5 615.5Q137 631 154 638.5Q171 646 188 646Q209 646 225 639Q241 632 254.5 623.5Q268 615 280 608Q292 601 305 601Q317 601 325 608.5Q333 616 334 635Z" glyph-name="tilde" horiz-adv-x="500" unicode="&#732;" /><glyph d="M393 797Q393 738 372.5 702Q352 666 310 666Q292 666 277.5 673.5Q263 681 250 690Q237 699 224.5 706.5Q212 714 199 714Q168 714 167 669H107Q107 728 127.5 764Q148 800 190 800Q208 800 222.5 792.5Q237 785 250 776Q263 767 275 759.5Q287 752 301 752Q332 752 333 797Z" glyph-name="tilde.cap" horiz-adv-x="500" unicode="&#58404;" /><glyph d="M20 614H243V557H165V360H98V557H20ZM396 360 342 510V360H279V614H361L418 455L476 614H557V360H494V510L440 360Z" glyph-name="trademark" horiz-adv-x="597" unicode="&#8482;" /><glyph d="M172 514Q172 528 162.5 537.5Q153 547 137 547Q119 547 110.5 536Q102 525 100 511L20 525Q27 569 56 594.5Q85 620 138 620Q195 620 224.5 592Q254 564 254 519Q254 487 235 462.5Q216 438 191 413L134 356H256V286H21V338L132 450Q149 469 160.5 483.5Q172 498 172 514ZM425 438Q412 438 402 433Q392 428 385 420H320V614H519V544H385V491Q393 496 406.5 500Q420 504 436 504Q486 504 514.5 473.5Q543 443 543 394Q543 343 510.5 312Q478 281 425 281Q371 281 340 306.5Q309 332 303 377L381 391Q383 372 394.5 360.5Q406 349 426 349Q446 349 456.5 361.5Q467 374 467 394Q467 413 456 425.5Q445 438 425 438ZM532 0H445L814 614H901ZM893 196H912Q930 196 942.5 204.5Q955 213 955 231Q955 245 945.5 255Q936 265 919 265Q900 265 889.5 254Q879 243 878 227L802 240Q808 281 837 307.5Q866 334 920 334Q971 334 1001.5 306.5Q1032 279 1032 234Q1032 212 1021.5 193Q1011 174 996 166Q1016 157 1026.5 138Q1037 119 1037 96Q1037 53 1005 24Q973 -5 919 -5Q867 -5 834 20.5Q801 46 796 91L876 104Q878 86 888.5 74.5Q899 63 919 63Q936 63 947.5 73Q959 83 959 100Q959 118 946.5 127Q934 136 914 136H893ZM1232 228Q1232 242 1222.5 251.5Q1213 261 1197 261Q1179 261 1170.5 250Q1162 239 1160 225L1080 239Q1087 283 1116 308.5Q1145 334 1198 334Q1255 334 1284.5 306Q1314 278 1314 233Q1314 201 1295 176.5Q1276 152 1251 127L1194 70H1316V0H1081V52L1192 164Q1209 183 1220.5 197.5Q1232 212 1232 228Z" glyph-name="twentyfivethirtyseconds" horiz-adv-x="1341" /><glyph d="M172 514Q172 528 162.5 537.5Q153 547 137 547Q119 547 110.5 536Q102 525 100 511L20 525Q27 569 56 594.5Q85 620 138 620Q195 620 224.5 592Q254 564 254 519Q254 487 235 462.5Q216 438 191 413L134 356H256V286H21V338L132 450Q149 469 160.5 483.5Q172 498 172 514ZM419 281Q374 281 346 302.5Q318 324 311 362L384 374Q390 347 421 347Q448 347 462 369.5Q476 392 476 422V425Q468 414 452 406Q436 398 413 398Q363 398 334.5 429Q306 460 306 505Q306 554 337.5 587Q369 620 425 620Q492 620 526 564Q540 542 546 516Q552 490 552 458Q552 378 518.5 329.5Q485 281 419 281ZM473 507Q473 528 459.5 541Q446 554 425 554Q405 554 391.5 541Q378 528 378 507Q378 485 391.5 471.5Q405 458 425 458Q446 458 459.5 471.5Q473 485 473 507ZM544 0H457L826 614H913ZM905 196H924Q942 196 954.5 204.5Q967 213 967 231Q967 245 957.5 255Q948 265 931 265Q912 265 901.5 254Q891 243 890 227L814 240Q820 281 849 307.5Q878 334 932 334Q983 334 1013.5 306.5Q1044 279 1044 234Q1044 212 1033.5 193Q1023 174 1008 166Q1028 157 1038.5 138Q1049 119 1049 96Q1049 53 1017 24Q985 -5 931 -5Q879 -5 846 20.5Q813 46 808 91L888 104Q890 86 900.5 74.5Q911 63 931 63Q948 63 959.5 73Q971 83 971 100Q971 118 958.5 127Q946 136 926 136H905ZM1244 228Q1244 242 1234.5 251.5Q1225 261 1209 261Q1191 261 1182.5 250Q1174 239 1172 225L1092 239Q1099 283 1128 308.5Q1157 334 1210 334Q1267 334 1296.5 306Q1326 278 1326 233Q1326 201 1307 176.5Q1288 152 1263 127L1206 70H1328V0H1093V52L1204 164Q1221 183 1232.5 197.5Q1244 212 1244 228Z" glyph-name="twentyninethirtyseconds" horiz-adv-x="1353" /><glyph d="M172 514Q172 528 162.5 537.5Q153 547 137 547Q119 547 110.5 536Q102 525 100 511L20 525Q27 569 56 594.5Q85 620 138 620Q195 620 224.5 592Q254 564 254 519Q254 487 235 462.5Q216 438 191 413L134 356H256V286H21V338L132 450Q149 469 160.5 483.5Q172 498 172 514ZM454 286H375V525L298 487V566L400 614H454ZM462 0H375L744 614H831ZM823 196H842Q860 196 872.5 204.5Q885 213 885 231Q885 245 875.5 255Q866 265 849 265Q830 265 819.5 254Q809 243 808 227L732 240Q738 281 767 307.5Q796 334 850 334Q901 334 931.5 306.5Q962 279 962 234Q962 212 951.5 193Q941 174 926 166Q946 157 956.5 138Q967 119 967 96Q967 53 935 24Q903 -5 849 -5Q797 -5 764 20.5Q731 46 726 91L806 104Q808 86 818.5 74.5Q829 63 849 63Q866 63 877.5 73Q889 83 889 100Q889 118 876.5 127Q864 136 844 136H823ZM1162 228Q1162 242 1152.5 251.5Q1143 261 1127 261Q1109 261 1100.5 250Q1092 239 1090 225L1010 239Q1017 283 1046 308.5Q1075 334 1128 334Q1185 334 1214.5 306Q1244 278 1244 233Q1244 201 1225 176.5Q1206 152 1181 127L1124 70H1246V0H1011V52L1122 164Q1139 183 1150.5 197.5Q1162 212 1162 228Z" glyph-name="twentyonethirtyseconds" horiz-adv-x="1271" /><glyph d="M172 514Q172 528 162.5 537.5Q153 547 137 547Q119 547 110.5 536Q102 525 100 511L20 525Q27 569 56 594.5Q85 620 138 620Q195 620 224.5 592Q254 564 254 519Q254 487 235 462.5Q216 438 191 413L134 356H256V286H21V338L132 450Q149 469 160.5 483.5Q172 498 172 514ZM424 286H343L441 544H298V614H527V559ZM516 0H429L798 614H885ZM877 196H896Q914 196 926.5 204.5Q939 213 939 231Q939 245 929.5 255Q920 265 903 265Q884 265 873.5 254Q863 243 862 227L786 240Q792 281 821 307.5Q850 334 904 334Q955 334 985.5 306.5Q1016 279 1016 234Q1016 212 1005.5 193Q995 174 980 166Q1000 157 1010.5 138Q1021 119 1021 96Q1021 53 989 24Q957 -5 903 -5Q851 -5 818 20.5Q785 46 780 91L860 104Q862 86 872.5 74.5Q883 63 903 63Q920 63 931.5 73Q943 83 943 100Q943 118 930.5 127Q918 136 898 136H877ZM1216 228Q1216 242 1206.5 251.5Q1197 261 1181 261Q1163 261 1154.5 250Q1146 239 1144 225L1064 239Q1071 283 1100 308.5Q1129 334 1182 334Q1239 334 1268.5 306Q1298 278 1298 233Q1298 201 1279 176.5Q1260 152 1235 127L1178 70H1300V0H1065V52L1176 164Q1193 183 1204.5 197.5Q1216 212 1216 228Z" glyph-name="twentyseventhirtyseconds" horiz-adv-x="1325" /><glyph d="M172 514Q172 528 162.5 537.5Q153 547 137 547Q119 547 110.5 536Q102 525 100 511L20 525Q27 569 56 594.5Q85 620 138 620Q195 620 224.5 592Q254 564 254 519Q254 487 235 462.5Q216 438 191 413L134 356H256V286H21V338L132 450Q149 469 160.5 483.5Q172 498 172 514ZM393 482H412Q430 482 442.5 490.5Q455 499 455 517Q455 531 445.5 541Q436 551 419 551Q400 551 389.5 540Q379 529 378 513L302 526Q308 567 337 593.5Q366 620 420 620Q471 620 501.5 592.5Q532 565 532 520Q532 498 521.5 479Q511 460 496 452Q516 443 526.5 424Q537 405 537 382Q537 339 505 310Q473 281 419 281Q367 281 334 306.5Q301 332 296 377L376 390Q378 372 388.5 360.5Q399 349 419 349Q436 349 447.5 359Q459 369 459 386Q459 404 446.5 413Q434 422 414 422H393ZM527 0H440L809 614H896ZM888 196H907Q925 196 937.5 204.5Q950 213 950 231Q950 245 940.5 255Q931 265 914 265Q895 265 884.5 254Q874 243 873 227L797 240Q803 281 832 307.5Q861 334 915 334Q966 334 996.5 306.5Q1027 279 1027 234Q1027 212 1016.5 193Q1006 174 991 166Q1011 157 1021.5 138Q1032 119 1032 96Q1032 53 1000 24Q968 -5 914 -5Q862 -5 829 20.5Q796 46 791 91L871 104Q873 86 883.5 74.5Q894 63 914 63Q931 63 942.5 73Q954 83 954 100Q954 118 941.5 127Q929 136 909 136H888ZM1227 228Q1227 242 1217.5 251.5Q1208 261 1192 261Q1174 261 1165.5 250Q1157 239 1155 225L1075 239Q1082 283 1111 308.5Q1140 334 1193 334Q1250 334 1279.5 306Q1309 278 1309 233Q1309 201 1290 176.5Q1271 152 1246 127L1189 70H1311V0H1076V52L1187 164Q1204 183 1215.5 197.5Q1227 212 1227 228Z" glyph-name="twentythreethirtyseconds" horiz-adv-x="1336" /><glyph d="M329 445Q329 483 303.5 507.5Q278 532 234 532Q183 532 159.5 501.5Q136 471 131 429L32 447Q43 529 94.5 576.5Q146 624 234 624Q327 624 378.5 576Q430 528 430 446Q430 418 419.5 392Q409 366 391.5 340.5Q374 315 351.5 289.5Q329 264 305 238L173 91H440V0H31V68L213 270Q237 296 258 319.5Q279 343 294.5 364Q310 385 319.5 405Q329 425 329 445Z" glyph-name="two" horiz-adv-x="470" unicode="2" /><glyph d="M172 58Q172 72 162.5 81.5Q153 91 137 91Q119 91 110.5 80Q102 69 100 55L20 69Q27 113 56 138.5Q85 164 138 164Q195 164 224.5 136Q254 108 254 63Q254 31 235 6.5Q216 -18 191 -43L134 -100H256V-170H21V-118L132 -6Q149 13 160.5 27.5Q172 42 172 58Z" glyph-name="two.inf" horiz-adv-x="281" unicode="&#58739;" /><glyph d="M348 445Q348 483 322.5 507.5Q297 532 253 532Q202 532 178.5 501.5Q155 471 150 429L51 447Q62 529 113.5 576.5Q165 624 253 624Q346 624 397.5 576Q449 528 449 446Q449 418 438.5 392Q428 366 410.5 340.5Q393 315 370.5 289.5Q348 264 324 238L192 91H459V0H50V68L232 270Q256 296 277 319.5Q298 343 313.5 364Q329 385 338.5 405Q348 425 348 445Z" glyph-name="two.lt" horiz-adv-x="520" /><glyph d="M172 514Q172 528 162.5 537.5Q153 547 137 547Q119 547 110.5 536Q102 525 100 511L20 525Q27 569 56 594.5Q85 620 138 620Q195 620 224.5 592Q254 564 254 519Q254 487 235 462.5Q216 438 191 413L134 356H256V286H21V338L132 450Q149 469 160.5 483.5Q172 498 172 514Z" glyph-name="twosuperior" horiz-adv-x="281" unicode="&#178;" /><glyph d="M431 0H331V39Q313 18 282 4Q251 -10 212 -10Q136 -10 96 35.5Q56 81 56 155V444H156V172Q156 130 176 105.5Q196 81 239 81Q271 81 297 98.5Q323 116 331 149V444H431Z" glyph-name="u" horiz-adv-x="493" unicode="u" /><glyph d="M202 506 279 650H382L291 506ZM431 0H331V39Q313 18 282 4Q251 -10 212 -10Q136 -10 96 35.5Q56 81 56 155V444H156V172Q156 130 176 105.5Q196 81 239 81Q271 81 297 98.5Q323 116 331 149V444H431Z" glyph-name="uacute" horiz-adv-x="493" unicode="&#250;" /><glyph d="M431 0H331V39Q313 18 282 4Q251 -10 212 -10Q136 -10 96 35.5Q56 81 56 155V444H156V172Q156 130 176 105.5Q196 81 239 81Q271 81 297 98.5Q323 116 331 149V444H431ZM247 496Q219 496 194 504.5Q169 513 150.5 531.5Q132 550 120.5 579Q109 608 107 650H184Q186 608 201 591Q216 574 247 574Q278 574 293 591Q308 608 310 650H387Q385 608 373.5 579Q362 550 343 531.5Q324 513 299.5 504.5Q275 496 247 496Z" glyph-name="ubreve" horiz-adv-x="493" unicode="&#365;" /><glyph d="M387 506H308L247 586L186 506H107L197 650H297ZM431 0H331V39Q313 18 282 4Q251 -10 212 -10Q136 -10 96 35.5Q56 81 56 155V444H156V172Q156 130 176 105.5Q196 81 239 81Q271 81 297 98.5Q323 116 331 149V444H431Z" glyph-name="ucircumflex" horiz-adv-x="493" unicode="&#251;" /><glyph d="M113 578Q113 604 129 620Q145 636 171 636Q197 636 213 620Q229 604 229 578Q229 552 213 536Q197 520 171 520Q145 520 129 536Q113 552 113 578ZM266 578Q266 604 282 620Q298 636 324 636Q350 636 366 620Q382 604 382 578Q382 552 366 536Q350 520 324 520Q298 520 282 536Q266 552 266 578ZM431 0H331V39Q313 18 282 4Q251 -10 212 -10Q136 -10 96 35.5Q56 81 56 155V444H156V172Q156 130 176 105.5Q196 81 239 81Q271 81 297 98.5Q323 116 331 149V444H431Z" glyph-name="udieresis" horiz-adv-x="493" unicode="&#252;" /><glyph d="M431 0H331V39Q313 18 282 4Q251 -10 212 -10Q136 -10 96 35.5Q56 81 56 155V444H156V172Q156 130 176 105.5Q196 81 239 81Q271 81 297 98.5Q323 116 331 149V444H431ZM203 506 112 650H215L292 506Z" glyph-name="ugrave" horiz-adv-x="493" unicode="&#249;" /><glyph d="M431 0H331V39Q313 18 282 4Q251 -10 212 -10Q136 -10 96 35.5Q56 81 56 155V444H156V172Q156 130 176 105.5Q196 81 239 81Q271 81 297 98.5Q323 116 331 149V444H431ZM143 506 210 650H313L232 506ZM273 506 340 650H443L362 506Z" glyph-name="uhungarumlaut" horiz-adv-x="493" unicode="&#369;" /><glyph d="M431 0H331V39Q313 18 282 4Q251 -10 212 -10Q136 -10 96 35.5Q56 81 56 155V444H156V172Q156 130 176 105.5Q196 81 239 81Q271 81 297 98.5Q323 116 331 149V444H431ZM135 614H360V531H135Z" glyph-name="umacron" horiz-adv-x="493" unicode="&#363;" /><glyph d="M20 -42H361V-129H20Z" glyph-name="underscore" horiz-adv-x="381" unicode="_" /><glyph glyph-name="uni00A0" horiz-adv-x="221" unicode="&#160;" /><glyph d="M159 352Q188 352 201 380.5Q214 409 214 450Q214 491 201 519.5Q188 548 159 548Q129 548 116 519.5Q103 491 103 450Q103 409 116 380.5Q129 352 159 352ZM159 281Q129 281 104 293.5Q79 306 61 328Q43 350 33.5 381Q24 412 24 450Q24 487 33.5 518.5Q43 550 61 572.5Q79 595 104 607.5Q129 620 159 620Q189 620 213.5 607.5Q238 595 256 572.5Q274 550 283.5 518.5Q293 487 293 450Q293 412 283.5 381Q274 350 256 328Q238 306 213.5 293.5Q189 281 159 281Z" glyph-name="uni2070" horiz-adv-x="317" unicode="&#8304;" /><glyph d="M107 414H163V473H234V414H280V348H234V286H163V348H20V407L123 614H201Z" glyph-name="uni2074" horiz-adv-x="299" unicode="&#8308;" /><glyph d="M144 438Q131 438 121 433Q111 428 104 420H39V614H238V544H104V491Q112 496 125.5 500Q139 504 155 504Q205 504 233.5 473.5Q262 443 262 394Q262 343 229.5 312Q197 281 144 281Q90 281 59 306.5Q28 332 22 377L100 391Q102 372 113.5 360.5Q125 349 145 349Q165 349 175.5 361.5Q186 374 186 394Q186 413 175 425.5Q164 438 144 438Z" glyph-name="uni2075" horiz-adv-x="284" unicode="&#8309;" /><glyph d="M157 620Q203 620 231 598Q259 576 266 538L193 526Q185 553 156 553Q129 553 114.5 530.5Q100 508 100 479V475Q108 487 124.5 495Q141 503 163 503Q214 503 242.5 471.5Q271 440 271 395Q271 346 239.5 313.5Q208 281 151 281Q119 281 93.5 295Q68 309 51 336Q37 358 30.5 384Q24 410 24 443Q24 522 58 571Q92 620 157 620ZM104 393Q104 373 117.5 360Q131 347 152 347Q172 347 185 360Q198 373 198 393Q198 415 185 428Q172 441 152 441Q131 441 117.5 428Q104 415 104 393Z" glyph-name="uni2076" horiz-adv-x="296" unicode="&#8310;" /><glyph d="M143 286H62L160 544H17V614H246V559Z" glyph-name="uni2077" horiz-adv-x="268" unicode="&#8311;" /><glyph d="M145 344Q165 344 177 354.5Q189 365 189 382Q189 401 177 411.5Q165 422 145 422Q126 422 113.5 411.5Q101 401 101 382Q101 365 113.5 354.5Q126 344 145 344ZM145 487Q162 487 173 496.5Q184 506 184 522Q184 539 173 549Q162 559 145 559Q129 559 118 549Q107 539 107 522Q107 506 118 496.5Q129 487 145 487ZM145 281Q94 281 58.5 306Q23 331 23 377Q23 406 38.5 426Q54 446 77 453Q57 463 45 481.5Q33 500 33 525Q33 548 42 565.5Q51 583 66.5 595Q82 607 102.5 613.5Q123 620 145 620Q167 620 187.5 613.5Q208 607 223.5 595Q239 583 248 565.5Q257 548 257 525Q257 500 245.5 481.5Q234 463 214 453Q236 446 252 426Q268 406 268 377Q268 331 232 306Q196 281 145 281Z" glyph-name="uni2078" horiz-adv-x="291" unicode="&#8312;" /><glyph d="M138 281Q93 281 65 302.5Q37 324 30 362L103 374Q109 347 140 347Q167 347 181 369.5Q195 392 195 422V425Q187 414 171 406Q155 398 132 398Q82 398 53.5 429Q25 460 25 505Q25 554 56.5 587Q88 620 144 620Q211 620 245 564Q259 542 265 516Q271 490 271 458Q271 378 237.5 329.5Q204 281 138 281ZM192 507Q192 528 178.5 541Q165 554 144 554Q124 554 110.5 541Q97 528 97 507Q97 485 110.5 471.5Q124 458 144 458Q165 458 178.5 471.5Q192 485 192 507Z" glyph-name="uni2079" horiz-adv-x="296" unicode="&#8313;" /><glyph d="M182 564V474H272V416H182V326H124V416H34V474H124V564Z" glyph-name="uni207A" horiz-adv-x="306" unicode="&#8314;" /><glyph d="M39 476H279V416H39Z" glyph-name="uni207B" horiz-adv-x="318" unicode="&#8315;" /><glyph d="M44 426H283V373H44ZM44 521H283V468H44Z" glyph-name="uni207C" horiz-adv-x="327" unicode="&#8316;" /><glyph d="M24 450Q24 496 35 532.5Q46 569 64.5 596.5Q83 624 108.5 643Q134 662 164 673L175 605Q161 600 146.5 588Q132 576 120.5 557.5Q109 539 102 512Q95 485 95 450Q95 415 102 388Q109 361 120.5 342Q132 323 146.5 311.5Q161 300 175 294L164 228Q134 238 108.5 257Q83 276 64.5 303.5Q46 331 35 367.5Q24 404 24 450Z" glyph-name="uni207D" horiz-adv-x="198" unicode="&#8317;" /><glyph d="M173 450Q173 404 162.5 367.5Q152 331 133 303.5Q114 276 89 257Q64 238 34 228L23 294Q37 300 51 311.5Q65 323 76.5 342Q88 361 95 388Q102 415 102 450Q102 485 95 512Q88 539 76.5 557.5Q65 576 51 588Q37 600 23 605L34 673Q64 662 89 643Q114 624 133 596.5Q152 569 162.5 532.5Q173 496 173 450Z" glyph-name="uni207E" horiz-adv-x="198" unicode="&#8318;" /><glyph d="M159 66Q188 66 201 94.5Q214 123 214 164Q214 205 201 233.5Q188 262 159 262Q129 262 116 233.5Q103 205 103 164Q103 123 116 94.5Q129 66 159 66ZM159 -5Q129 -5 104 7.5Q79 20 61 42Q43 64 33.5 95Q24 126 24 164Q24 201 33.5 232.5Q43 264 61 286.5Q79 309 104 321.5Q129 334 159 334Q189 334 213.5 321.5Q238 309 256 286.5Q274 264 283.5 232.5Q293 201 293 164Q293 126 283.5 95Q274 64 256 42Q238 20 213.5 7.5Q189 -5 159 -5Z" glyph-name="uni2080" horiz-adv-x="317" unicode="&#8320;" /><glyph d="M173 0H94V239L17 201V280L119 328H173Z" glyph-name="uni2081" horiz-adv-x="214" unicode="&#8321;" /><glyph d="M172 228Q172 242 162.5 251.5Q153 261 137 261Q119 261 110.5 250Q102 239 100 225L20 239Q27 283 56 308.5Q85 334 138 334Q195 334 224.5 306Q254 278 254 233Q254 201 235 176.5Q216 152 191 127L134 70H256V0H21V52L132 164Q149 183 160.5 197.5Q172 212 172 228Z" glyph-name="uni2082" horiz-adv-x="281" unicode="&#8322;" /><glyph d="M112 196H131Q149 196 161.5 204.5Q174 213 174 231Q174 245 164.5 255Q155 265 138 265Q119 265 108.5 254Q98 243 97 227L21 240Q27 281 56 307.5Q85 334 139 334Q190 334 220.5 306.5Q251 279 251 234Q251 212 240.5 193Q230 174 215 166Q235 157 245.5 138Q256 119 256 96Q256 53 224 24Q192 -5 138 -5Q86 -5 53 20.5Q20 46 15 91L95 104Q97 86 107.5 74.5Q118 63 138 63Q155 63 166.5 73Q178 83 178 100Q178 118 165.5 127Q153 136 133 136H112Z" glyph-name="uni2083" horiz-adv-x="279" unicode="&#8323;" /><glyph d="M107 128H163V187H234V128H280V62H234V0H163V62H20V121L123 328H201Z" glyph-name="uni2084" horiz-adv-x="299" unicode="&#8324;" /><glyph d="M144 152Q131 152 121 147Q111 142 104 134H39V328H238V258H104V205Q112 210 125.5 214Q139 218 155 218Q205 218 233.5 187.5Q262 157 262 108Q262 57 229.5 26Q197 -5 144 -5Q90 -5 59 20.5Q28 46 22 91L100 105Q102 86 113.5 74.5Q125 63 145 63Q165 63 175.5 75.5Q186 88 186 108Q186 127 175 139.5Q164 152 144 152Z" glyph-name="uni2085" horiz-adv-x="284" unicode="&#8325;" /><glyph d="M157 334Q203 334 231 312Q259 290 266 252L193 240Q185 267 156 267Q129 267 114.5 244.5Q100 222 100 193V189Q108 201 124.5 209Q141 217 163 217Q214 217 242.5 185.5Q271 154 271 109Q271 60 239.5 27.5Q208 -5 151 -5Q119 -5 93.5 9Q68 23 51 50Q37 72 30.5 98Q24 124 24 157Q24 236 58 285Q92 334 157 334ZM104 107Q104 87 117.5 74Q131 61 152 61Q172 61 185 74Q198 87 198 107Q198 129 185 142Q172 155 152 155Q131 155 117.5 142Q104 129 104 107Z" glyph-name="uni2086" horiz-adv-x="296" unicode="&#8326;" /><glyph d="M143 0H62L160 258H17V328H246V273Z" glyph-name="uni2087" horiz-adv-x="268" unicode="&#8327;" /><glyph d="M145 58Q165 58 177 68.5Q189 79 189 96Q189 115 177 125.5Q165 136 145 136Q126 136 113.5 125.5Q101 115 101 96Q101 79 113.5 68.5Q126 58 145 58ZM145 201Q162 201 173 210.5Q184 220 184 236Q184 253 173 263Q162 273 145 273Q129 273 118 263Q107 253 107 236Q107 220 118 210.5Q129 201 145 201ZM145 -5Q94 -5 58.5 20Q23 45 23 91Q23 120 38.5 140Q54 160 77 167Q57 177 45 195.5Q33 214 33 239Q33 262 42 279.5Q51 297 66.5 309Q82 321 102.5 327.5Q123 334 145 334Q167 334 187.5 327.5Q208 321 223.5 309Q239 297 248 279.5Q257 262 257 239Q257 214 245.5 195.5Q234 177 214 167Q236 160 252 140Q268 120 268 91Q268 45 232 20Q196 -5 145 -5Z" glyph-name="uni2088" horiz-adv-x="291" unicode="&#8328;" /><glyph d="M138 -5Q93 -5 65 16.5Q37 38 30 76L103 88Q109 61 140 61Q167 61 181 83.5Q195 106 195 136V139Q187 128 171 120Q155 112 132 112Q82 112 53.5 143Q25 174 25 219Q25 268 56.5 301Q88 334 144 334Q211 334 245 278Q259 256 265 230Q271 204 271 172Q271 92 237.5 43.5Q204 -5 138 -5ZM192 221Q192 242 178.5 255Q165 268 144 268Q124 268 110.5 255Q97 242 97 221Q97 199 110.5 185.5Q124 172 144 172Q165 172 178.5 185.5Q192 199 192 221Z" glyph-name="uni2089" horiz-adv-x="296" unicode="&#8329;" /><glyph d="M182 278V188H272V130H182V40H124V130H34V188H124V278Z" glyph-name="uni208A" horiz-adv-x="306" unicode="&#8330;" /><glyph d="M39 190H279V130H39Z" glyph-name="uni208B" horiz-adv-x="318" unicode="&#8331;" /><glyph d="M44 140H283V87H44ZM44 235H283V182H44Z" glyph-name="uni208C" horiz-adv-x="327" unicode="&#8332;" /><glyph d="M24 164Q24 210 35 246.5Q46 283 64.5 310.5Q83 338 108.5 357Q134 376 164 387L175 319Q161 314 146.5 302Q132 290 120.5 271.5Q109 253 102 226Q95 199 95 164Q95 129 102 102Q109 75 120.5 56Q132 37 146.5 25.5Q161 14 175 8L164 -58Q134 -48 108.5 -29Q83 -10 64.5 17.5Q46 45 35 81.5Q24 118 24 164Z" glyph-name="uni208D" horiz-adv-x="198" unicode="&#8333;" /><glyph d="M173 164Q173 118 162.5 81.5Q152 45 133 17.5Q114 -10 89 -29Q64 -48 34 -58L23 8Q37 14 51 25.5Q65 37 76.5 56Q88 75 95 102Q102 129 102 164Q102 199 95 226Q88 253 76.5 271.5Q65 290 51 302Q37 314 23 319L34 387Q64 376 89 357Q114 338 133 310.5Q152 283 162.5 246.5Q173 210 173 164Z" glyph-name="uni208E" horiz-adv-x="198" unicode="&#8334;" /><glyph d="M173 286H94V525L17 487V566L119 614H173ZM181 0H94L463 614H550ZM542 196H561Q579 196 591.5 204.5Q604 213 604 231Q604 245 594.5 255Q585 265 568 265Q549 265 538.5 254Q528 243 527 227L451 240Q457 281 486 307.5Q515 334 569 334Q620 334 650.5 306.5Q681 279 681 234Q681 212 670.5 193Q660 174 645 166Q665 157 675.5 138Q686 119 686 96Q686 53 654 24Q622 -5 568 -5Q516 -5 483 20.5Q450 46 445 91L525 104Q527 86 537.5 74.5Q548 63 568 63Q585 63 596.5 73Q608 83 608 100Q608 118 595.5 127Q583 136 563 136H542Z" glyph-name="uni2153" horiz-adv-x="709" unicode="&#8531;" /><glyph d="M172 514Q172 528 162.5 537.5Q153 547 137 547Q119 547 110.5 536Q102 525 100 511L20 525Q27 569 56 594.5Q85 620 138 620Q195 620 224.5 592Q254 564 254 519Q254 487 235 462.5Q216 438 191 413L134 356H256V286H21V338L132 450Q149 469 160.5 483.5Q172 498 172 514ZM248 0H161L530 614H617ZM609 196H628Q646 196 658.5 204.5Q671 213 671 231Q671 245 661.5 255Q652 265 635 265Q616 265 605.5 254Q595 243 594 227L518 240Q524 281 553 307.5Q582 334 636 334Q687 334 717.5 306.5Q748 279 748 234Q748 212 737.5 193Q727 174 712 166Q732 157 742.5 138Q753 119 753 96Q753 53 721 24Q689 -5 635 -5Q583 -5 550 20.5Q517 46 512 91L592 104Q594 86 604.5 74.5Q615 63 635 63Q652 63 663.5 73Q675 83 675 100Q675 118 662.5 127Q650 136 630 136H609Z" glyph-name="uni2154" horiz-adv-x="776" unicode="&#8532;" /><glyph d="M173 286H94V525L17 487V566L119 614H173ZM181 0H94L463 614H550ZM574 152Q561 152 551 147Q541 142 534 134H469V328H668V258H534V205Q542 210 555.5 214Q569 218 585 218Q635 218 663.5 187.5Q692 157 692 108Q692 57 659.5 26Q627 -5 574 -5Q520 -5 489 20.5Q458 46 452 91L530 105Q532 86 543.5 74.5Q555 63 575 63Q595 63 605.5 75.5Q616 88 616 108Q616 127 605 139.5Q594 152 574 152Z" glyph-name="uni2155" horiz-adv-x="714" unicode="&#8533;" /><glyph d="M172 514Q172 528 162.5 537.5Q153 547 137 547Q119 547 110.5 536Q102 525 100 511L20 525Q27 569 56 594.5Q85 620 138 620Q195 620 224.5 592Q254 564 254 519Q254 487 235 462.5Q216 438 191 413L134 356H256V286H21V338L132 450Q149 469 160.5 483.5Q172 498 172 514ZM248 0H161L530 614H617ZM641 152Q628 152 618 147Q608 142 601 134H536V328H735V258H601V205Q609 210 622.5 214Q636 218 652 218Q702 218 730.5 187.5Q759 157 759 108Q759 57 726.5 26Q694 -5 641 -5Q587 -5 556 20.5Q525 46 519 91L597 105Q599 86 610.5 74.5Q622 63 642 63Q662 63 672.5 75.5Q683 88 683 108Q683 127 672 139.5Q661 152 641 152Z" glyph-name="uni2156" horiz-adv-x="781" unicode="&#8534;" /><glyph d="M112 482H131Q149 482 161.5 490.5Q174 499 174 517Q174 531 164.5 541Q155 551 138 551Q119 551 108.5 540Q98 529 97 513L21 526Q27 567 56 593.5Q85 620 139 620Q190 620 220.5 592.5Q251 565 251 520Q251 498 240.5 479Q230 460 215 452Q235 443 245.5 424Q256 405 256 382Q256 339 224 310Q192 281 138 281Q86 281 53 306.5Q20 332 15 377L95 390Q97 372 107.5 360.5Q118 349 138 349Q155 349 166.5 359Q178 369 178 386Q178 404 165.5 413Q153 422 133 422H112ZM246 0H159L528 614H615ZM639 152Q626 152 616 147Q606 142 599 134H534V328H733V258H599V205Q607 210 620.5 214Q634 218 650 218Q700 218 728.5 187.5Q757 157 757 108Q757 57 724.5 26Q692 -5 639 -5Q585 -5 554 20.5Q523 46 517 91L595 105Q597 86 608.5 74.5Q620 63 640 63Q660 63 670.5 75.5Q681 88 681 108Q681 127 670 139.5Q659 152 639 152Z" glyph-name="uni2157" horiz-adv-x="779" unicode="&#8535;" /><glyph d="M107 414H163V473H234V414H280V348H234V286H163V348H20V407L123 614H201ZM266 0H179L548 614H635ZM659 152Q646 152 636 147Q626 142 619 134H554V328H753V258H619V205Q627 210 640.5 214Q654 218 670 218Q720 218 748.5 187.5Q777 157 777 108Q777 57 744.5 26Q712 -5 659 -5Q605 -5 574 20.5Q543 46 537 91L615 105Q617 86 628.5 74.5Q640 63 660 63Q680 63 690.5 75.5Q701 88 701 108Q701 127 690 139.5Q679 152 659 152Z" glyph-name="uni2158" horiz-adv-x="799" unicode="&#8536;" /><glyph d="M173 286H94V525L17 487V566L119 614H173ZM181 0H94L463 614H550ZM587 334Q633 334 661 312Q689 290 696 252L623 240Q615 267 586 267Q559 267 544.5 244.5Q530 222 530 193V189Q538 201 554.5 209Q571 217 593 217Q644 217 672.5 185.5Q701 154 701 109Q701 60 669.5 27.5Q638 -5 581 -5Q549 -5 523.5 9Q498 23 481 50Q467 72 460.5 98Q454 124 454 157Q454 236 488 285Q522 334 587 334ZM534 107Q534 87 547.5 74Q561 61 582 61Q602 61 615 74Q628 87 628 107Q628 129 615 142Q602 155 582 155Q561 155 547.5 142Q534 129 534 107Z" glyph-name="uni2159" horiz-adv-x="726" unicode="&#8537;" /><glyph d="M144 438Q131 438 121 433Q111 428 104 420H39V614H238V544H104V491Q112 496 125.5 500Q139 504 155 504Q205 504 233.5 473.5Q262 443 262 394Q262 343 229.5 312Q197 281 144 281Q90 281 59 306.5Q28 332 22 377L100 391Q102 372 113.5 360.5Q125 349 145 349Q165 349 175.5 361.5Q186 374 186 394Q186 413 175 425.5Q164 438 144 438ZM251 0H164L533 614H620ZM657 334Q703 334 731 312Q759 290 766 252L693 240Q685 267 656 267Q629 267 614.5 244.5Q600 222 600 193V189Q608 201 624.5 209Q641 217 663 217Q714 217 742.5 185.5Q771 154 771 109Q771 60 739.5 27.5Q708 -5 651 -5Q619 -5 593.5 9Q568 23 551 50Q537 72 530.5 98Q524 124 524 157Q524 236 558 285Q592 334 657 334ZM604 107Q604 87 617.5 74Q631 61 652 61Q672 61 685 74Q698 87 698 107Q698 129 685 142Q672 155 652 155Q631 155 617.5 142Q604 129 604 107Z" glyph-name="uni215A" horiz-adv-x="796" unicode="&#8538;" /></font>
</defs>
</svg>
